<?xml version="1.0" encoding="UTF-8"?>
<svg id="Layer_2" data-name="Layer 2" xmlns="http://www.w3.org/2000/svg" viewBox="0 0 120 71.69">
  <defs>
    <style>
      .cls-1 {
        fill: #010101;
      }

      .cls-2 {
        fill: #fee548;
      }

      .cls-3 {
        fill: #ecc311;
      }

      .cls-4 {
        fill: #fdfdfd;
      }

      .cls-5 {
        fill: #fed10a;
      }
    </style>
  </defs>
  <g id="Layer_1-2" data-name="Layer 1">
    <g>
      <path d="M120,16.4v54.61l-.68.6-98.55.09-.82-.35C13.39,65.86,6.49,60.73.06,55.14L0,1.51C.05.95.03.24.69.1l99.97-.1,1.53,1.05,17.81,15.35Z"/>
      <rect class="cls-5" x="22.04" y="18.27" width="95.62" height="51.09"/>
      <path class="cls-2" d="M115.55,15.93H21.45C15.84,11.45,10.1,7.03,4.7,2.34h95.27c5.21,4.5,10.59,8.87,15.58,13.59Z"/>
      <polygon class="cls-3" points="19.7 67.96 2.35 54.01 2.35 3.74 19.7 17.69 19.7 67.96"/>
      <path d="M80.81,58.29c-.26.26-.86.27-1.22.3l-36.09-.02c-.48-.07-.73-.35-.82-.82-.16-.86-.16-6.39,0-7.25.11-.57.46-.83,1.04-.84l36.56.02c.24.03.46.13.62.32.38.48.35,7.85-.08,8.29Z"/>
      <path d="M36.1,33.51c3.86,3.51,2.06,9.55-3.17,10.07-1.34.13-4.57.18-5.87.01-.85-.11-1.34-.66-1.29-1.52.37-5.4-.44-11.33,0-16.66.11-1.31.22-1.41,1.52-1.52,2-.17,6.31-.21,8.03.67,3.31,1.7,3.99,6.92.77,8.96Z"/>
      <path d="M103.6,33.51v9.26c0,.9-2.12,1.38-2.36-.46-.67-5.17.54-11.8,0-17.13,0-.59.49-1.16,1.07-1.27.97-.18,5.01-.12,6.03.05,4.73.79,5.16,7.48.89,9.43.59,1.44,4.79,7.35,4.68,8.43-.08.78-1.29,1.51-1.9.73l-5.37-8.92-3.05-.12Z"/>
      <path d="M27.12,49.73c3.39.25,7.7-.49,10.98-.06.91.12,1.18.67,1.28,1.53.29,2.53.18,7.7,0,10.33-.12,1.7-.2,2.08-1.99,2.23-2.36.2-6.81.22-9.16,0-.94-.09-1.62-.24-1.76-1.29-.28-2.09-.28-9.65,0-11.74.06-.48.13-.82.64-1Z"/>
      <path d="M90.94,26.24v6.33h7.62c.71,0,.93,2.34-.23,2.34h-7.38v6.33h7.62c.45,0,1.46,2.1-.7,2.35-1.36.16-6.96.21-8.16-.06-.97-.21-1.04-1.07-1.11-1.93-.34-4.07-.37-11.91,0-15.96.09-.96.24-1.62,1.29-1.76,1.28-.17,7.27-.2,8.44.02,1.36.26.92,2.34,0,2.34h-7.38Z"/>
      <path d="M52.27,38.78c-.56,3.59-5,5.69-8.33,4.34-1.27-.51-3.62-2.72-3.62-4.11v-14.53c0-.43,2-1.28,2.33.72.43,2.57.02,7.45.02,10.31,0,.5-.25.95-.24,1.4.05,4.75,5.42,6.04,7.39,1.77.67-4.09-.54-9.49.17-13.43.38-2.13,2.29-1.13,2.29-.76v14.3Z"/>
      <path d="M63.05,26.24v16.76c0,.43-2,1.28-2.33-.72v-16.04h-5.52c-.54,0-1.51-1.99.05-2.29,4.09.21,8.85-.47,12.86-.07,2.26.23,1.35,2.36.46,2.36h-5.51Z"/>
      <path d="M78.05,26.24h-5.74c-.73,0-1.28-2.05.24-2.34,4.06.3,8.68-.41,12.67-.02.91.09,1.88.62,1.39,1.65-.05.11-.65.71-.7.71h-5.39s-.35.33-.35.35v16.4c0,.74-2.11.74-2.11,0v-16.76Z"/>
      <path class="cls-1" d="M86.84,50.62h24.61c.47,0,1.35,2.04-.48,2.33-7.39-.48-15.68.69-22.96.03-1.61-.15-2.38-.99-1.16-2.35Z"/>
      <path d="M86.54,57.36c-.57-.57-.27-1.58.42-1.93l23.79-.13c1.67-.06,1.85,2.19.24,2.36-7.52-.5-15.8.62-23.22,0-.37-.03-.96-.04-1.22-.3Z"/>
      <rect class="cls-4" x="45.01" y="52.02" width="33.75" height="4.22"/>
      <path class="cls-5" d="M28.13,41.24v-6.33h5.27c1.09,0,2.49,2.02,2.48,3.17,0,1.07-1.45,3.16-2.48,3.16h-5.27Z"/>
      <path class="cls-5" d="M28.13,32.57v-6.33h5.27c1.02,0,2.48,2.09,2.48,3.16s-1.42,3.16-2.48,3.16h-5.27Z"/>
      <path class="cls-5" d="M103.6,31.16v-4.92h4.34c.81,0,1.91,1.46,1.99,2.25s-.98,2.67-1.52,2.67h-4.8Z"/>
      <path class="cls-4" d="M37.04,52.02v9.02s-.33.35-.35.35h-7.85v-9.37h8.2Z"/>
    </g>
  </g>
</svg>