<?xml version="1.0" encoding="UTF-8"?>
<svg id="Layer_2" data-name="Layer 2" xmlns="http://www.w3.org/2000/svg" viewBox="0 0 116.06 120">
  <defs>
    <style>
      .cls-1 {
        fill: #eeeef0;
      }

      .cls-2 {
        fill: #fec244;
      }

      .cls-3 {
        fill: #e5af3d;
      }
    </style>
  </defs>
  <g id="Layer_1-2" data-name="Layer 1">
    <g>
      <path class="cls-3" d="M7.95,116.72c28.91-1.02,57.88-.8,86.81-.57,2.22.02,4.45.11,6.67.2s4.45.22,6.67.37c1.39.01,6.1-.26,7.01.12,1.43.59,1.07,2.37,0,3.15H.93c-1.06-.79-1.42-2.56,0-3.15.91-.38,5.62-.11,7.01-.12Z"/>
      <path class="cls-2" d="M107.64,41.37c.39,5.03.29,10.06.46,15.1.54,16.45,1.25,32.9,1.64,49.38.05,2.04.47,4.1.18,6.25-.23,1.69-1.16,3.1-1.81,4.62-33.35-.29-66.81-.29-100.15,0-2.05-2.74-1.94-5.74-1.88-9.02.35-19.24,1.49-38.55,2.13-57.78.09-2.78-.09-5.55.22-8.32l.67-.38c5.95,1.55,10.76.17,15.95-2.78,3.49-1.64,7.38-2.26,10.83-.3,3.22,2.03,6.23,3.22,10.12,2.73,5.77.69,11.51,1.52,17.25,2.51,9.73,1.7,19.14.89,27.5-4.35,3.03-1.11,5.04-.67,7.58,1.26,2.86.74,5.84.94,8.94.6l.38.46Z"/>
      <path class="cls-3" d="M16.15,21.48c27.91-.87,55.87-.87,83.77,0,3.29.02,8.01-.4,11.09.02,1.87.25,3.03,1.77,3.19,3.6.29,3.27.29,9.62,0,12.89-.35,3.99-3.6,3.32-6.56,3.38-2.47.05-7.07.36-9.21-.5-.92-.37-1.64-1.12-2.49-1.49-3.71-1.63-6.84,1.22-9.97,2.66-12.29,5.66-26.9.46-39.75-.67-1.28-.11-2.65.1-3.95-.03-4.28-.45-6.69-4.09-11.27-3.96-5.56.15-9.84,4.55-14.97,4.92-2.39.17-5.21-.38-7.6-.7-2.63-.35-5.26.2-6.44-2.8.09-4.39-.5-9.38-.12-13.71.16-1.82,1.32-3.34,3.19-3.6,3.08-.42,7.81,0,11.09-.02Z"/>
      <path class="cls-1" d="M99.92,21.48c-27.91-.13-55.86-.13-83.77,0l20.35-15.11c.49-.21.94-.09,1.43,0,2.18.39,4.92,1.87,7.13,2.46L57.73.24c5.82.34,12.49-.62,18.21-.06.81.08,1.21.23,1.86.71,7.25,6.99,14.96,13.52,22.11,20.59Z"/>
      <path class="cls-3" d="M59.67,67.35v4.21c1.6-1.98,6.92-4.68,9.3-3.57.56.26,1.54,2.47,1.76,3.16,2.36,7.57-3.25,15.13-11.06,15.39v2.81c1.88-2.03,6.2-4.11,8.96-3.46.85.2,1.63,1.95,1.92,2.76,2.77,7.63-2.97,15.4-10.88,15.67-.29,1.67.96,6.44-1.52,6.58-2.78.16-1.47-4.88-1.75-6.58-8.05-.23-13.64-8.31-10.95-15.98.81-2.31,1.3-2.71,3.78-2.48,2.7.25,5.22,1.66,7.16,3.48v-2.81c-7.55-.19-13.01-7.42-11.36-14.75.19-.83,1.11-3.46,1.82-3.79,2.36-1.1,7.91,1.59,9.54,3.57v-3.86c0-.23-1.56-1.3-1.87-1.64-4.4-4.84-4.44-12.37.35-16.96,1.73-1.66,3.04-2.54,5.14-.93,6.41,4.89,6.41,14.75-.35,19.18Z"/>
    </g>
  </g>
</svg>