<?xml version="1.0" encoding="UTF-8"?>
<svg id="Layer_2" data-name="Layer 2" xmlns="http://www.w3.org/2000/svg" viewBox="0 0 49.78 120">
  <defs>
    <style>
      .cls-1 {
        fill: #c0bebe;
      }

      .cls-2 {
        fill: #e7e0da;
      }

      .cls-3 {
        fill: #bc283b;
      }

      .cls-4 {
        fill: #eee8e2;
      }

      .cls-5 {
        fill: #cdcaca;
      }

      .cls-6 {
        fill: #aa283f;
      }
    </style>
  </defs>
  <g id="Layer_1-2" data-name="Layer 1">
    <g>
      <path class="cls-4" d="M24.89,120h20.41c3.36,0,4.47-3.5,4.47-4.75V47.29c0-8.81-5.45-22.37-9.09-28.1-4.76-7.5-2.66-8.95-2.66-8.95,0,0,1.54-.14,1.54-1.4s-1.54-1.12-1.54-1.54v-1.96H11.75v1.96c0,.42-1.54.28-1.54,1.54s1.54,1.4,1.54,1.4c0,0,2.1,1.45-2.66,8.95C5.45,24.92,0,38.48,0,47.29v67.96c0,1.26,1.12,4.75,4.47,4.75h20.41Z"/>
      <path class="cls-2" d="M24.89,120h20.41c3.36,0,4.47-3.5,4.47-4.75V47.29c0-8.81-5.45-22.37-9.09-28.1-4.76-7.5-2.66-8.95-2.66-8.95,0,0,1.54-.14,1.54-1.4s-1.54-1.12-1.54-1.54v-1.96h-13.14v114.66Z"/>
      <path class="cls-3" d="M41.44,30.15c3.11,4.9,4.74,13.82,4.74,24.04v58.14c0,1.08-.96,4.07-3.83,4.07H7.42c-2.87,0-3.83-2.99-3.83-4.07v-58.14c0-11.46,1.83-19.14,4.94-24.04h32.91Z"/>
      <path class="cls-6" d="M24.89,116.4h17.46c2.87,0,3.83-2.99,3.83-4.07v-58.14c0-8.93-1.63-19.14-4.74-24.04h-16.55v86.25Z"/>
      <rect class="cls-5" x="9.91" width="29.96" height="7.01" rx=".8" ry=".8"/>
      <path class="cls-1" d="M24.89,7.01h13.65c.73,0,1.33-.63,1.33-1.4V1.4c0-.77-.6-1.4-1.33-1.4h-13.65v7.01Z"/>
    </g>
  </g>
</svg>