<?xml version="1.0" encoding="UTF-8"?>
<svg xmlns="http://www.w3.org/2000/svg" xmlns:xlink="http://www.w3.org/1999/xlink" viewBox="0 0 120 85.97">
  <defs>
    <style>
      .cls-1 {
        fill: url(#linear-gradient-15);
      }

      .cls-2 {
        fill: url(#linear-gradient-13);
      }

      .cls-3 {
        fill: #214056;
      }

      .cls-4 {
        fill: url(#linear-gradient-2);
      }

      .cls-5 {
        fill: url(#linear-gradient-19);
      }

      .cls-5, .cls-6, .cls-7, .cls-8, .cls-9, .cls-10, .cls-11 {
        opacity: .5;
      }

      .cls-5, .cls-6, .cls-7, .cls-8, .cls-12, .cls-10 {
        mix-blend-mode: lighten;
      }

      .cls-13 {
        fill: #3c5b75;
      }

      .cls-14 {
        fill: #ffd68d;
      }

      .cls-6 {
        fill: url(#linear-gradient-24);
      }

      .cls-7 {
        fill: url(#linear-gradient-11);
      }

      .cls-8 {
        fill: url(#linear-gradient-18);
      }

      .cls-15 {
        fill: url(#linear-gradient-4);
      }

      .cls-16 {
        fill: url(#linear-gradient-23);
        opacity: .85;
      }

      .cls-16, .cls-17, .cls-9, .cls-18, .cls-19, .cls-11 {
        mix-blend-mode: screen;
      }

      .cls-20 {
        fill: url(#linear-gradient-3);
      }

      .cls-17 {
        fill: url(#White_Black);
      }

      .cls-17, .cls-21 {
        opacity: .25;
      }

      .cls-9 {
        fill: url(#White_Black-2);
      }

      .cls-22 {
        isolation: isolate;
      }

      .cls-23 {
        fill: url(#linear-gradient-8);
      }

      .cls-12 {
        fill: url(#linear-gradient-21);
      }

      .cls-12, .cls-18 {
        opacity: .35;
      }

      .cls-18 {
        fill: url(#linear-gradient-22);
      }

      .cls-24 {
        fill: #d2e7f7;
      }

      .cls-21 {
        fill: #fca870;
      }

      .cls-21, .cls-25, .cls-26, .cls-27, .cls-28, .cls-29 {
        mix-blend-mode: multiply;
      }

      .cls-25 {
        fill: url(#linear-gradient-10);
      }

      .cls-10 {
        fill: url(#linear-gradient-12);
      }

      .cls-26 {
        fill: url(#linear-gradient-5);
      }

      .cls-30 {
        fill: #cee2f2;
      }

      .cls-19 {
        fill: url(#radial-gradient);
        opacity: .04;
      }

      .cls-31 {
        fill: url(#linear-gradient-9);
      }

      .cls-32 {
        fill: url(#linear-gradient-6);
      }

      .cls-27 {
        fill: url(#linear-gradient-17);
      }

      .cls-33 {
        fill: #c3d4e5;
      }

      .cls-34 {
        fill: #f4f4f4;
      }

      .cls-35 {
        fill: url(#linear-gradient-16);
      }

      .cls-36 {
        fill: #8a9eb2;
      }

      .cls-37 {
        fill: url(#linear-gradient);
      }

      .cls-28 {
        fill: url(#linear-gradient-14);
      }

      .cls-11 {
        fill: url(#linear-gradient-20);
      }

      .cls-29 {
        fill: url(#linear-gradient-7);
      }
    </style>
    <linearGradient id="linear-gradient" x1="304.64" y1="11.81" x2="304.64" y2="-108.19" gradientTransform="translate(11.81 -261.65) rotate(90)" gradientUnits="userSpaceOnUse">
      <stop offset="0" stop-color="#e3e4e6"/>
      <stop offset="1" stop-color="#cacccb"/>
    </linearGradient>
    <linearGradient id="linear-gradient-2" x1="304.64" y1="10.78" x2="304.64" y2="-107.15" gradientTransform="translate(108.18 347.62) rotate(-90)" gradientUnits="userSpaceOnUse">
      <stop offset="0" stop-color="#fff"/>
      <stop offset=".99" stop-color="#f4f4f4"/>
    </linearGradient>
    <linearGradient id="linear-gradient-3" x1="337.24" y1="8.28" x2="272.04" y2="-104.65" gradientTransform="translate(108.18 347.62) rotate(-90)" gradientUnits="userSpaceOnUse">
      <stop offset="0" stop-color="#f4f4f4"/>
      <stop offset="1" stop-color="#cacccb"/>
    </linearGradient>
    <linearGradient id="linear-gradient-4" x1="304.64" y1="-2.15" x2="304.64" y2="-94.22" gradientTransform="translate(108.18 347.62) rotate(-90)" gradientUnits="userSpaceOnUse">
      <stop offset="0" stop-color="#f4f4f4"/>
      <stop offset=".99" stop-color="#e3e4e6"/>
    </linearGradient>
    <linearGradient id="linear-gradient-5" x1="276.29" y1="-47.59" x2="338.71" y2="-47.59" gradientTransform="translate(11.81 -261.65) rotate(90)" xlink:href="#linear-gradient-3"/>
    <linearGradient id="linear-gradient-6" x1="275.92" y1="-39.02" x2="303.06" y2="-39.02" gradientTransform="translate(11.81 -261.65) rotate(90)" gradientUnits="userSpaceOnUse">
      <stop offset="0" stop-color="#3c5b75"/>
      <stop offset=".05" stop-color="#4d6a83"/>
      <stop offset=".18" stop-color="#718aa1"/>
      <stop offset=".31" stop-color="#8fa5b9"/>
      <stop offset=".45" stop-color="#a6bacd"/>
      <stop offset=".6" stop-color="#b6c8da"/>
      <stop offset=".77" stop-color="#bfd1e2"/>
      <stop offset=".99" stop-color="#c3d4e5"/>
    </linearGradient>
    <linearGradient id="linear-gradient-7" x1="276.52" y1="-69.25" x2="300.58" y2="-69.25" gradientTransform="translate(11.81 -261.65) rotate(90)" gradientUnits="userSpaceOnUse">
      <stop offset="0" stop-color="#3c5b75"/>
      <stop offset=".07" stop-color="#5e788d"/>
      <stop offset=".18" stop-color="#899bab"/>
      <stop offset=".29" stop-color="#adbac5"/>
      <stop offset=".4" stop-color="#cbd3da"/>
      <stop offset=".53" stop-color="#e2e6ea"/>
      <stop offset=".66" stop-color="#f2f4f6"/>
      <stop offset=".8" stop-color="#fbfcfc"/>
      <stop offset=".99" stop-color="#fff"/>
    </linearGradient>
    <linearGradient id="linear-gradient-8" x1="278.74" y1="-84.97" x2="299.94" y2="-84.97" xlink:href="#linear-gradient-6"/>
    <linearGradient id="linear-gradient-9" x1="284.41" y1="-82.43" x2="284.41" y2="-88.83" gradientTransform="translate(11.81 -261.65) rotate(90)" gradientUnits="userSpaceOnUse">
      <stop offset="0" stop-color="#a72527"/>
      <stop offset=".14" stop-color="#ab2b2a"/>
      <stop offset=".34" stop-color="#b73d34"/>
      <stop offset=".56" stop-color="#ca5b45"/>
      <stop offset=".81" stop-color="#e5845c"/>
      <stop offset=".99" stop-color="#fca870"/>
    </linearGradient>
    <linearGradient id="linear-gradient-10" x1="284.82" y1="-85.77" x2="299.94" y2="-85.77" gradientTransform="translate(11.81 -261.65) rotate(90)" gradientUnits="userSpaceOnUse">
      <stop offset="0" stop-color="#fff"/>
      <stop offset=".2" stop-color="#fbfcfc"/>
      <stop offset=".34" stop-color="#f2f4f6"/>
      <stop offset=".47" stop-color="#e2e6ea"/>
      <stop offset=".6" stop-color="#cbd3da"/>
      <stop offset=".71" stop-color="#adbac5"/>
      <stop offset=".82" stop-color="#899bab"/>
      <stop offset=".93" stop-color="#5e788d"/>
      <stop offset="1" stop-color="#3c5b75"/>
    </linearGradient>
    <linearGradient id="linear-gradient-11" x1="284.87" y1="-81.44" x2="295.15" y2="-81.44" xlink:href="#linear-gradient-10"/>
    <linearGradient id="linear-gradient-12" x1="288.56" y1="-10.72" x2="288.56" y2="-71.23" xlink:href="#linear-gradient-7"/>
    <linearGradient id="linear-gradient-13" x1="306.01" y1="-38.49" x2="333.14" y2="-38.49" xlink:href="#linear-gradient-6"/>
    <linearGradient id="linear-gradient-14" x1="306.61" y1="-68.72" x2="330.66" y2="-68.72" xlink:href="#linear-gradient-7"/>
    <linearGradient id="linear-gradient-15" x1="308.83" y1="-84.43" x2="330.02" y2="-84.43" xlink:href="#linear-gradient-6"/>
    <linearGradient id="linear-gradient-16" x1="314.5" y1="-81.89" x2="314.5" y2="-88.29" xlink:href="#linear-gradient-9"/>
    <linearGradient id="linear-gradient-17" x1="314.91" y1="-85.23" x2="330.02" y2="-85.23" xlink:href="#linear-gradient-10"/>
    <linearGradient id="linear-gradient-18" x1="314.96" y1="-80.9" x2="325.24" y2="-80.9" xlink:href="#linear-gradient-10"/>
    <linearGradient id="linear-gradient-19" x1="318.65" y1="-10.19" x2="318.65" y2="-70.69" xlink:href="#linear-gradient-7"/>
    <radialGradient id="radial-gradient" cx="304.64" cy="-48.19" fx="304.64" fy="-48.19" r="52.19" gradientTransform="translate(11.81 -261.65) rotate(90)" gradientUnits="userSpaceOnUse">
      <stop offset="0" stop-color="#000"/>
      <stop offset=".17" stop-color="#030303"/>
      <stop offset=".3" stop-color="#0c0c0c"/>
      <stop offset=".42" stop-color="#1d1d1d"/>
      <stop offset=".53" stop-color="#343434"/>
      <stop offset=".64" stop-color="#515151"/>
      <stop offset=".74" stop-color="#767676"/>
      <stop offset=".84" stop-color="#a2a2a2"/>
      <stop offset=".93" stop-color="#d3d3d3"/>
      <stop offset="1" stop-color="#fff"/>
    </radialGradient>
    <linearGradient id="White_Black" data-name="White, Black" x1="279.22" y1="-12.31" x2="301.97" y2="-47.05" gradientTransform="translate(11.81 -261.65) rotate(90)" gradientUnits="userSpaceOnUse">
      <stop offset="0" stop-color="#fff"/>
      <stop offset="1" stop-color="#000"/>
    </linearGradient>
    <linearGradient id="White_Black-2" data-name="White, Black" x1="290.41" y1="-4.8" x2="313" y2="-39.31" xlink:href="#White_Black"/>
    <linearGradient id="linear-gradient-20" x1="281.24" y1="-75.59" x2="291.23" y2="-90.84" gradientTransform="translate(11.81 -261.65) rotate(90)" gradientUnits="userSpaceOnUse">
      <stop offset="0" stop-color="#000"/>
      <stop offset="1" stop-color="#fff"/>
    </linearGradient>
    <linearGradient id="linear-gradient-21" x1="308.26" y1="-55.24" x2="324.6" y2="-21.27" gradientTransform="translate(11.81 -261.65) rotate(90)" gradientUnits="userSpaceOnUse">
      <stop offset="0" stop-color="#000"/>
      <stop offset=".09" stop-color="#202020"/>
      <stop offset=".28" stop-color="#636363"/>
      <stop offset=".46" stop-color="#9a9a9a"/>
      <stop offset=".63" stop-color="#c6c6c6"/>
      <stop offset=".78" stop-color="#e5e5e5"/>
      <stop offset=".91" stop-color="#f8f8f8"/>
      <stop offset="1" stop-color="#fff"/>
    </linearGradient>
    <linearGradient id="linear-gradient-22" x1="261.65" y1="-52.84" x2="297.03" y2="-52.84" gradientTransform="translate(11.81 -261.65) rotate(90)" gradientUnits="userSpaceOnUse">
      <stop offset="0" stop-color="#fff"/>
      <stop offset=".19" stop-color="#fcfcfc"/>
      <stop offset=".33" stop-color="#f3f3f3"/>
      <stop offset=".44" stop-color="#e3e3e3"/>
      <stop offset=".55" stop-color="#cdcdcd"/>
      <stop offset=".65" stop-color="#b1b1b1"/>
      <stop offset=".74" stop-color="#8e8e8e"/>
      <stop offset=".83" stop-color="#656565"/>
      <stop offset=".92" stop-color="#363636"/>
      <stop offset="1" stop-color="#020202"/>
      <stop offset="1" stop-color="#000"/>
    </linearGradient>
    <linearGradient id="linear-gradient-23" x1="308" y1="-77.27" x2="330.66" y2="-111.89" gradientTransform="translate(11.81 -261.65) rotate(90)" gradientUnits="userSpaceOnUse">
      <stop offset="0" stop-color="#000"/>
      <stop offset=".06" stop-color="#1f1f1f"/>
      <stop offset=".16" stop-color="#535353"/>
      <stop offset=".26" stop-color="#818181"/>
      <stop offset=".37" stop-color="#a8a8a8"/>
      <stop offset=".48" stop-color="#c7c7c7"/>
      <stop offset=".59" stop-color="#e0e0e0"/>
      <stop offset=".71" stop-color="#f1f1f1"/>
      <stop offset=".84" stop-color="#fbfbfb"/>
      <stop offset="1" stop-color="#fff"/>
    </linearGradient>
    <linearGradient id="linear-gradient-24" x1="319.67" y1="-51.53" x2="338.27" y2="-87.75" gradientTransform="translate(11.81 -261.65) rotate(90)" gradientUnits="userSpaceOnUse">
      <stop offset="0" stop-color="#000"/>
      <stop offset=".05" stop-color="#303030"/>
      <stop offset=".1" stop-color="#5b5b5b"/>
      <stop offset=".15" stop-color="#828282"/>
      <stop offset=".21" stop-color="#a4a4a4"/>
      <stop offset=".28" stop-color="silver"/>
      <stop offset=".35" stop-color="#d7d7d7"/>
      <stop offset=".44" stop-color="#e9e9e9"/>
      <stop offset=".54" stop-color="#f5f5f5"/>
      <stop offset=".67" stop-color="#fcfcfc"/>
      <stop offset="1" stop-color="#fff"/>
    </linearGradient>
  </defs>
  <g class="cls-22">
    <g id="Layer_2" data-name="Layer 2">
      <g id="Layer_1-2" data-name="Layer 1">
        <g>
          <g>
            <path class="cls-37" d="M103.66,85.97H16.34c-9.03,0-16.34-7.32-16.34-16.34V16.34C0,7.32,7.32,0,16.34,0h87.31c9.03,0,16.34,7.32,16.34,16.34v53.28c0,2.47-.55,4.8-1.53,6.9-.86,1.85-2.05,3.5-3.5,4.89-2.94,2.83-6.92,4.56-11.32,4.56Z"/>
            <rect class="cls-4" x="1.03" y="1.07" width="117.93" height="83.82" rx="14.23" ry="14.23" transform="translate(120 85.97) rotate(180)"/>
            <rect class="cls-20" x="2.59" y="2.69" width="114.82" height="80.6" rx="12.75" ry="12.75" transform="translate(120 85.97) rotate(180)"/>
            <rect class="cls-34" x="12.93" y="13.43" width="94.14" height="59.1" rx="6.54" ry="6.54" transform="translate(120 85.97) rotate(180)"/>
            <rect class="cls-15" x="13.97" y="14.51" width="92.07" height="56.95" rx="5.56" ry="5.56" transform="translate(120 85.97) rotate(180)"/>
          </g>
          <path class="cls-26" d="M52.64,76.07c2.72-.65,5.17-1.39,5.64-1.54,3.35.37,6.76.58,10.1.54,3.43-.03,7.4-.69,10.93-1.46,1.51-.33,2.93-.68,4.2-1.01,1.51-.39,2.78-.76,3.73-1.04.12.14.22.25.31.31.06.04.16.06.28.08.03,0,.06,0,.09,0,.11,0,.24,0,.38-.01.02,0,.04,0,.06,0,.17-.02.37-.05.58-.1.05-.01.11-.02.16-.04.18-.04.38-.09.58-.14.05-.01.1-.02.15-.04.25-.07.52-.15.8-.23.06-.02.13-.04.19-.06.24-.07.48-.15.73-.24.08-.03.16-.05.24-.08.31-.1.63-.21.96-.33.06-.02.12-.04.18-.07.29-.1.58-.21.88-.32.09-.03.18-.07.27-.1.75-.28,1.53-.57,2.31-.87.48-.18.91-.35,1.35-.52.69-.27,1.37-.54,2.03-.8,1.34-.53,2.63-1.03,3.72-1.44,4.39-1.64,4.87-3.61,3.89-4.29-.04-.03-.09-.06-.13-.07-.03-.02-.08-.03-.11-.04-.05-.02-.09-.04-.15-.06-.12-.04-.24-.06-.38-.07,0,0,.03-.03.09-.07.02-.01.04-.03.06-.05.05-.04.11-.09.18-.15.03-.03.07-.06.1-.09.07-.06.14-.13.23-.2.04-.04.08-.08.13-.12.06-.06.12-.11.18-.17.04-.04.08-.08.12-.12.44-.46.8-1,.62-1.35-.38-.75-1.33-1.18-1.33-1.18,0,0-1.27-.71-3.14-1.71-.32-.17-.67-.35-1.02-.54-.21-.11-.42-.22-.64-.33-2.99-1.55-6.75-3.39-9.55-4.41-.56-.21-1.07-.37-1.53-.5-.03,0-.06-.02-.09-.02-.18-.05-.35-.09-.52-.13-.05,0-.09-.02-.14-.03-.19-.04-.36-.07-.52-.08-.7-.07-1.3-.05-1.82.07-.05-.01-.1-.03-.15-.04-.08-.02-.16-.04-.24-.06-.15-.04-.31-.08-.48-.12-.09-.02-.18-.04-.27-.06-.18-.04-.37-.08-.57-.12-.09-.02-.18-.04-.27-.05-.25-.05-.51-.1-.78-.15-.05,0-.09-.02-.14-.03-1.72-.3-3.82-.59-6.09-.86-.21,0-6.37-1.69-12.11-3.04-3.82-.89-7.46-1.63-9.07-1.61.48-.14.81-.24.96-.29,3.35.37,6.76.58,10.1.54,3.43-.03,7.4-.69,10.93-1.46,1.51-.33,2.93-.68,4.2-1.01,1.51-.39,2.78-.76,3.73-1.04.12.14.22.25.31.31.06.04.16.06.28.08.03,0,.06,0,.09,0,.11,0,.24,0,.38-.01.02,0,.04,0,.06,0,.17-.02.37-.05.58-.1.05-.01.11-.02.16-.04.18-.04.38-.09.58-.14.05-.01.1-.02.15-.04.25-.07.52-.15.8-.23.06-.02.13-.04.19-.06.24-.07.48-.15.73-.24.08-.03.16-.05.24-.08.31-.1.63-.21.96-.33.06-.02.12-.04.18-.07.29-.1.58-.21.88-.32.09-.03.18-.07.27-.1.75-.28,1.53-.57,2.31-.87.48-.18.91-.35,1.35-.52.69-.27,1.37-.54,2.03-.8,1.34-.53,2.63-1.03,3.72-1.44,4.39-1.64,4.87-3.61,3.89-4.29-.04-.03-.09-.06-.13-.07-.03-.02-.08-.03-.11-.04-.05-.02-.09-.04-.15-.06-.12-.04-.24-.06-.38-.07,0,0,.03-.03.09-.07.02-.01.04-.03.06-.05.05-.04.11-.09.18-.15.03-.03.07-.06.1-.09.07-.06.14-.13.23-.2.04-.04.08-.08.13-.12.06-.06.12-.11.18-.17.04-.04.08-.08.12-.12.44-.46.8-1,.62-1.35-.38-.75-1.33-1.18-1.33-1.18,0,0-1.27-.71-3.14-1.71-.32-.17-.67-.35-1.02-.54-.21-.11-.42-.22-.64-.33-2.99-1.55-6.75-3.39-9.55-4.41-.56-.21-1.07-.37-1.53-.5-.03,0-.06-.02-.09-.02-.18-.05-.35-.09-.52-.13-.05,0-.09-.02-.14-.03-.19-.04-.36-.07-.52-.08-.7-.07-1.3-.05-1.82.07-.05-.01-.1-.03-.15-.04-.08-.02-.16-.04-.24-.06-.15-.04-.31-.08-.48-.12-.09-.02-.18-.04-.27-.06-.18-.04-.37-.08-.57-.12-.09-.02-.18-.04-.27-.05-.25-.05-.51-.1-.78-.15-.05,0-.09-.02-.14-.03-1.72-.3-3.82-.59-6.09-.86-.21,0-6.37-1.69-12.11-3.04-4.22-.99-8.23-1.78-9.51-1.59-1,.16-2.1.97-3.12,1.99-.61.61-1.2,1.29-1.72,1.95-10.66,1.89-26.93,6.57-28.67,6.19-.57-.12-1.27-.27-2.19-.41-.29-.05-.61-.11-.94-.18-.14-.03-.29-.06-.43-.09-.15-.03-.3-.07-.45-.1-1.93-.46-4.18-1.14-6.07-1.66-.1-.03-.2-.06-.3-.08-.14-.04-.28-.08-.42-.11-.15-.04-.3-.08-.45-.12-.1-.03-.2-.05-.3-.07-.18-.04-.34-.08-.51-.12-.06-.01-.12-.03-.18-.04-.21-.05-.41-.08-.59-.11-.21-.03-.38-.05-.53-.06-.15,0-.26,0-.36,0-.03,0-.04.01-.07.02-.06.01-.12.03-.16.06-.02.01-.03.03-.04.05-.02.03-.03.07-.03.11,0,.07,0,.1.02.14.05.12.13.27.22.43.02.04.04.08.06.12.08.16.18.33.29.51.01.02.03.05.04.08.12.21.25.43.39.68.14.25.28.51.43.78.03.05.05.1.08.15.13.25.27.5.4.77.02.05.05.1.07.15.32.63.62,1.31.9,2.01.02.04.03.09.05.13.11.3.22.61.32.91.02.07.04.14.06.21.1.34.19.68.26,1.02,0,.03.01.05.02.08.07.36.12.71.15,1.07,0,.08,0,.16.01.24.02.26.02.52,0,.78,0,.11,0,.22-.02.33-.03.33-.08.66-.16.98-.07.25-.14.5-.22.74-.02.06-.04.12-.07.19-.06.18-.13.36-.19.54-.03.07-.05.13-.08.2-.07.17-.14.34-.21.51-.02.05-.05.11-.07.16-.08.19-.17.37-.25.55-.01.03-.03.06-.04.09-.35.73-.71,1.4-1.02,2-.04.08-.09.17-.13.25-.04.07-.07.14-.1.2-.05.11-.1.21-.15.31-.02.05-.05.1-.07.15-.05.11-.1.22-.14.33-.01.03-.03.07-.04.1-.11.28-.18.54-.19.77,0,.12,0,.22.01.31,0,.03.01.05.02.07.01.04.02.09.03.13,0,.02.02.03.03.04.03.06.07.12.12.18.03.03.05.06.08.09.09.08.2.15.33.21,1.78.76,10.4-3.12,14.48-3.64.46-.06.87-.08,1.2-.04,1.9.22,7.19,1.82,14.11,3.45-.43.31-.53.68-.39,1.08.41,1.21,2.82,2.74,3.94,4.07.8.96,4.7.3,8.16-.52,1.12-.27,2.19-.55,3.1-.8-.66.37-1.33.93-1.98,1.57-.61.61-1.2,1.29-1.72,1.95-10.66,1.89-26.93,6.57-28.67,6.19-.57-.12-1.27-.27-2.19-.41-.29-.05-.61-.11-.94-.18-.14-.03-.29-.06-.43-.09-.15-.03-.3-.07-.45-.1-1.93-.46-4.18-1.14-6.07-1.66-.1-.03-.2-.06-.3-.08-.14-.04-.28-.08-.42-.11-.15-.04-.3-.08-.45-.12-.1-.03-.2-.05-.3-.07-.18-.04-.34-.08-.51-.12-.06-.01-.12-.03-.18-.04-.21-.05-.41-.08-.59-.11-.21-.03-.38-.05-.53-.06-.15,0-.26,0-.36,0-.03,0-.04.01-.07.02-.06.01-.12.03-.16.06-.02.01-.03.03-.04.05-.02.03-.03.07-.03.11,0,.07,0,.1.02.14.05.12.13.27.22.43.02.04.04.08.06.12.08.16.18.33.29.51.01.02.03.05.04.08.12.21.25.43.39.68.14.25.28.51.43.78.03.05.05.1.08.15.13.25.27.5.4.77.02.05.05.1.07.15.32.63.62,1.31.9,2.01.02.04.03.09.05.13.11.3.22.61.32.91.02.07.04.14.06.21.1.34.19.68.26,1.02,0,.03.01.05.02.08.07.36.12.71.15,1.07,0,.08,0,.16.01.24.02.26.02.52,0,.78,0,.11,0,.22-.02.33-.03.33-.08.66-.16.98-.07.25-.14.5-.22.74-.02.06-.04.12-.07.19-.06.18-.13.36-.19.54-.03.07-.05.13-.08.2-.07.17-.14.34-.21.51-.02.05-.05.11-.07.16-.08.19-.17.37-.25.55-.01.03-.03.06-.04.09-.35.73-.71,1.4-1.02,2-.04.08-.09.17-.13.25-.04.07-.07.14-.1.2-.05.11-.1.21-.15.31-.02.05-.05.1-.07.15-.05.11-.1.22-.14.33-.01.03-.03.07-.04.1-.11.28-.18.54-.19.77,0,.12,0,.22.01.31,0,.03.01.05.02.07.01.04.02.09.03.13,0,.02.02.03.03.04.03.06.07.12.12.18.03.03.05.06.08.09.09.08.2.15.33.21,1.78.76,10.4-3.12,14.48-3.64.46-.06.87-.08,1.2-.04,1.9.22,7.19,1.82,14.11,3.45-.43.31-.53.68-.39,1.08.41,1.21,2.82,2.74,3.94,4.07.8.96,4.7.3,8.16-.52Z"/>
          <g>
            <g>
              <path class="cls-36" d="M45.02,42.91c-1.12-1.33-3.54-2.87-3.94-4.07-.14-.42-.04-.8.45-1.12,1.89-1.22,15.39.76,15.39.76l1.98,2.36s-2.7.84-5.72,1.56c-3.46.82-7.35,1.47-8.16.52Z"/>
              <path class="cls-13" d="M53.18,42.39c-3.24-1.37-8.09-3.17-12.1-3.56-.14-.42-.04-.8.45-1.12,1.89-1.22,15.39.76,15.39.76l1.98,2.36s-2.7.84-5.72,1.56Z"/>
              <path class="cls-13" d="M50.97,18.08s1.78-2.93,3.87-5c1.02-1.03,2.12-1.84,3.12-1.99,1.28-.2,5.29.6,9.51,1.59,5.75,1.35,11.9,3.04,12.12,3.04l-28.61,2.36Z"/>
              <path class="cls-3" d="M54.84,13.08c4,.83,8.83.31,12.62-.41,5.75,1.35,11.9,3.04,12.12,3.04l-28.61,2.36s1.78-2.93,3.87-5Z"/>
              <path class="cls-32" d="M26.16,34.35c-4.08.53-12.7,4.41-14.48,3.64-1.98-.85,1.22-3.87,2.36-8.12.19-.72.24-1.47.17-2.24-.06-.78-.23-1.56-.47-2.33-.92-3.03-2.84-5.85-3.29-6.85-.56-1.28,5.29.84,9.67,1.92.77.19,1.5.34,2.14.44.91.14,1.61.28,2.19.41,2.09.45,25.01-6.36,34.17-6.92,1.92-.12,6.85.12,12.26.57,7.67.62,16.29,1.65,18.62,2.65.86.37,1.34,1.5,1.58,3.05.67,4.39-.66,12.13-1.28,15.33-.18.91-.29,1.45-.29,1.45,0,0-2.23.74-5.46,1.58-1.27.33-2.69.69-4.2,1.01-3.53.78-7.5,1.43-10.93,1.46-17.85.19-37.49-6.61-41.56-7.08-.33-.04-.73-.02-1.2.04Z"/>
              <path class="cls-36" d="M69.66,40.36c-.52-.79-1.18-1.67-1.7-2.46-.9-1.39-1.34-2.54.28-2.54,2.55,0,17.66-1.04,17.66-1.04l.57.85s-1.33.63-3.24,1.48c-4.6,2.03-12.57,5.25-13.57,3.72Z"/>
              <path class="cls-13" d="M11.68,38c-.29-.12-.48-.3-.57-.52-.51-1.25,1.96-3.98,2.92-7.6,1.13-4.25-2.92-9.92-3.59-11.43-.02-.04-.03-.07-.03-.11-.19-1.23,7.7,1.82,11.84,2.47.91.14,1.61.28,2.19.41-2.29,1.31-4.57,3.3-4.26,5.82.32,2.57,3.35,5.35,5.98,7.31-4.08.53-12.7,4.41-14.48,3.64Z"/>
              <path class="cls-13" d="M67.96,37.9c-.9-1.39-1.34-2.54.28-2.54,2.55,0,17.66-1.04,17.66-1.04l.57.85s-1.33.63-3.24,1.48c-3.82-.57-11.58-1.32-15.27,1.25Z"/>
              <path class="cls-13" d="M24.44,21.22c2.09.45,25.01-6.36,34.17-6.92,4.63-.29,26.91,1.51,30.88,3.21.86.37,1.34,1.5,1.58,3.05l-4.41,3.18s-7.18-7.93-17-6.99c-9.82.95-51.18,8.13-51.18,8.13l1.64-4.5c.77.19,1.5.34,2.14.44.91.14,1.61.28,2.19.41Z"/>
              <path class="cls-29" d="M84.04,38.92c-2.48-1.75-4.65-4.5-3.75-8.62,1.2-5.52-4.95-11.75-9.41-15.44,7.67.62,16.29,1.65,18.62,2.65.86.37,1.34,1.5,1.58,3.05.86,5.63-1.58,16.78-1.58,16.78,0,0-2.23.74-5.46,1.58Z"/>
              <path class="cls-3" d="M11.68,38c-.29-.12-.48-.3-.57-.52,3.8-2.74,8.12-6.19,8.12-10.53,0-3.95-5.34-7.08-8.82-8.61-.19-1.23,7.7,1.82,11.84,2.47.91.14,1.61.28,2.19.41-2.29,1.31-4.57,3.3-4.26,5.82.32,2.57,3.35,5.35,5.98,7.31-4.08.53-12.7,4.41-14.48,3.64Z"/>
              <path class="cls-21" d="M26.16,34.35c-4.08.53-12.7,4.41-14.48,3.64-1.98-.85,1.22-3.87,2.36-8.12.19-.72.24-1.47.17-2.24.23.09.45.17.68.26,33.06,13.03,72.91,6.05,73.47,5.85l1.43,2.14c-.18.91-.29,1.45-.29,1.45,0,0-2.23.74-5.46,1.58-1.27.33-2.69.69-4.2,1.01-3.53.78-7.5,1.43-10.93,1.46-17.85.19-37.49-6.61-41.56-7.08-.33-.04-.73-.02-1.2.04Z"/>
              <path class="cls-23" d="M88.08,38.19c-.43-.29-1.16-1.48-1.82-3.18-.39-.98-.75-2.13-1.04-3.37-.08-.34-.15-.68-.21-1.03-.04-.22-.08-.44-.11-.66-.27-1.78-.33-3.66-.02-5.45.09-.5.18-.98.27-1.43.96-4.81,2.08-6.27,5.25-5.94,2.79.29,9.86,3.85,14,6.04.8.42,1.49.8,2.02,1.09.71.39,1.12.62,1.12.62,0,0,.95.42,1.33,1.18.18.35-.19.88-.62,1.35-.05.05-.09.09-.12.12-.46.47-.96.84-.96.84.31.02.57.1.77.24.99.67.5,2.65-3.89,4.29-5.29,1.98-14.83,6.05-15.96,5.29Z"/>
              <path class="cls-13" d="M100.97,29.88c.35-.41,6.78-2.33,7.26-2.48-.49.53-1.08.96-1.08.96.31.02.57.1.77.24-2.56.57-7.22,1.58-6.96,1.27Z"/>
              <path class="cls-13" d="M84.89,29.94c.03-1.8.13-4.3.25-6.87.96-4.81,2.08-6.27,5.25-5.94,4.06.43,17.14,7.75,17.14,7.75,0,0,.95.42,1.33,1.18.18.35-.19.88-.62,1.35-.05.05-.09.09-.12.12-1.95-1.1-7.76-4.29-9.55-4.45-2.17-.19-11.71-4.06-13.13,6.99-.09.66-.16,1.17-.22,1.56-.31,1.88-.38.76-.32-1.69Z"/>
              <path class="cls-3" d="M96.61,25.61c-1.89-.68-3.02-2.39-2.51-3.8.51-1.42,2.46-2.01,4.36-1.33s3.02,2.39,2.51,3.8c-.51,1.42-2.46,2.01-4.36,1.33Z"/>
              <path class="cls-31" d="M96.61,25.07c-1.71-.62-2.72-2.15-2.26-3.43s2.22-1.81,3.93-1.2c1.71.62,2.72,2.15,2.26,3.43-.46,1.28-2.22,1.81-3.93,1.2Z"/>
              <path class="cls-14" d="M99.82,23.8c-.26.73-.86,1.25-1.61,1.51,1.09-.05,2.01-.57,2.32-1.44.44-1.22-.46-2.67-2.03-3.33,1.16.78,1.74,2.1,1.32,3.26Z"/>
              <path class="cls-3" d="M96.45,24.1c-1-.15-1.73-.88-1.62-1.63.11-.75,1.02-1.24,2.02-1.08,1,.15,1.73.88,1.62,1.63-.11.75-1.02,1.24-2.02,1.08Z"/>
              <path class="cls-25" d="M88.08,38.19c-.43-.29-1.16-1.48-1.82-3.18,12.27.18,16.74-8.1,18.13-11.84,1.88.99,3.14,1.71,3.14,1.71,0,0,.95.42,1.33,1.18.18.35-.19.88-.62,1.35-.05.05-.09.09-.12.12-.46.47-.96.84-.96.84.31.02.57.1.77.24.99.67.5,2.65-3.89,4.29-5.29,1.98-14.83,6.05-15.96,5.29Z"/>
              <path class="cls-7" d="M93.4,24.95c-.71-.72-1.37-1.69-2.38-1.73-.85-.04-1.56.62-2.09,1.27-.89,1.09-1.61,2.31-2.13,3.62-.34.86-.6,1.78-.53,2.7.07.92.51,1.86,1.31,2.33,1.18.7,2.68.24,3.95-.29,1.29-.54,9-3.57,8.69-5.26-.16-.88-2.22-.73-2.84-.83-1.51-.22-2.88-.69-3.98-1.81Z"/>
              <path class="cls-10" d="M77.44,19.66c-2.13-.66-4.43-.35-6.64-.04-4.87.68-9.73,1.37-14.6,2.05-10.5,1.48-20.99,2.95-31.49,4.43-.83.12-1.81.34-2.1,1.1-.32.84.45,1.7,1.24,2.17,1.97,1.17,4.36,1.43,6.67,1.65,9.32.91,18.65,1.83,27.97,2.74,5.58.55,11.21,1.1,16.79.56,2.09-.2,4.29-.61,5.87-1.96,4.11-3.52.93-11.28-3.7-12.71Z"/>
              <path class="cls-21" d="M88.08,38.19c-.43-.29-1.16-1.48-1.82-3.18-.39-.98-.75-2.13-1.04-3.37-.08-.34-.15-.68-.21-1.03,2.09-.59,5.29,1.81,7.11,2.26,2.7.66,5.84.27,7.82-1.68,1.77-1.75,2.41-4.48,4.38-6,.61-.47,1.34-.79,2.1-.92.71.39,1.12.62,1.12.62,0,0,.95.42,1.33,1.18.18.35-.19.88-.62,1.35-.05.05-.09.09-.12.12-.46.47-.96.84-.96.84.24.01.46.07.64.17.05.02.09.05.13.07.99.67.5,2.65-3.89,4.29-1.63.61-3.65,1.42-5.72,2.22-4.67,1.82-9.46,3.6-10.24,3.08Z"/>
              <path class="cls-13" d="M67.33,18.9c-.51,0-.92-.73-.92-1.63s.41-1.63.92-1.63.92.73.92,1.63-.41,1.63-.92,1.63Z"/>
              <path class="cls-13" d="M64.85,19.18c-.51,0-.92-.73-.92-1.63s.41-1.63.92-1.63.92.73.92,1.63-.41,1.63-.92,1.63Z"/>
              <path class="cls-13" d="M60.6,21.73c-.51,0-.92-.73-.92-1.63s.41-1.63.92-1.63.92.73.92,1.63-.41,1.63-.92,1.63Z"/>
              <path class="cls-13" d="M52.81,20.74c-.51,0-.92-.73-.92-1.63s.41-1.63.92-1.63.92.73.92,1.63-.41,1.63-.92,1.63Z"/>
              <ellipse class="cls-13" cx="46.15" cy="22.09" rx=".92" ry="1.63"/>
              <path class="cls-13" d="M41.33,22.44c-.51,0-.92-.73-.92-1.63s.41-1.63.92-1.63.92.73.92,1.63-.41,1.63-.92,1.63Z"/>
              <ellipse class="cls-13" cx="34.61" cy="22.23" rx=".92" ry="1.63"/>
              <ellipse class="cls-13" cx="48.98" cy="19.25" rx=".92" ry="1.63"/>
              <ellipse class="cls-13" cx="56.21" cy="20.1" rx=".92" ry="1.63"/>
              <path class="cls-3" d="M77.88,21.59c-.51,0-.92-.73-.92-1.63s.41-1.63.92-1.63.92.73.92,1.63-.41,1.63-.92,1.63Z"/>
              <ellipse class="cls-13" cx="27.17" cy="23.08" rx=".92" ry="1.63"/>
              <path class="cls-13" d="M22.78,26.12c-.51,0-.92-.73-.92-1.63s.41-1.63.92-1.63.92.73.92,1.63-.41,1.63-.92,1.63Z"/>
              <path class="cls-13" d="M30.71,26.69c-.51,0-.92-.73-.92-1.63s.41-1.63.92-1.63.92.73.92,1.63-.41,1.63-.92,1.63Z"/>
              <path class="cls-33" d="M36.38,28.89c-.31,0-.56-.44-.56-.99s.25-.99.56-.99.56.44.56.99-.25.99-.56.99Z"/>
              <path class="cls-33" d="M28.01,28.32c-.31,0-.56-.44-.56-.99s.25-.99.56-.99.56.44.56.99-.25.99-.56.99Z"/>
              <path class="cls-33" d="M63.57,23.5c-.31,0-.56-.44-.56-.99s.25-.99.56-.99.56.44.56.99-.25.99-.56.99Z"/>
              <path class="cls-24" d="M72.92,30.44c-.31,0-.56-.44-.56-.99s.25-.99.56-.99.56.44.56.99-.25.99-.56.99Z"/>
              <path class="cls-24" d="M74.91,19.11c-.31,0-.56-.44-.56-.99s.25-.99.56-.99.56.44.56.99-.25.99-.56.99Z"/>
              <path class="cls-30" d="M50.68,24.85c-.51,0-.92-.73-.92-1.63s.41-1.63.92-1.63.92.73.92,1.63-.41,1.63-.92,1.63Z"/>
              <path class="cls-30" d="M54.65,30.73c-.53,0-.96-.76-.96-1.7s.43-1.7.96-1.7.96.76.96,1.7-.43,1.7-.96,1.7Z"/>
              <path class="cls-30" d="M61.84,32c-.53,0-.96-.76-.96-1.7s.43-1.7.96-1.7.96.76.96,1.7-.43,1.7-.96,1.7Z"/>
              <path class="cls-30" d="M70.94,22.44c-.51,0-.92-.73-.92-1.63s.41-1.63.92-1.63.92.73.92,1.63-.41,1.63-.92,1.63Z"/>
              <path class="cls-30" d="M73.91,25.56c-.51,0-.92-.73-.92-1.63s.41-1.63.92-1.63.92.73.92,1.63-.41,1.63-.92,1.63Z"/>
              <path class="cls-30" d="M67.75,26.41c-.51,0-.92-.73-.92-1.63s.41-1.63.92-1.63.92.73.92,1.63-.41,1.63-.92,1.63Z"/>
              <path class="cls-30" d="M80.36,24.21c-.35,0-.64-.51-.64-1.13s.29-1.13.64-1.13.64.51.64,1.13-.29,1.13-.64,1.13Z"/>
              <ellipse class="cls-30" cx="81.35" cy="27.47" rx=".8" ry="1.42"/>
              <path class="cls-13" d="M37.23,22.58c-.51,0-.92-.73-.92-1.63s.41-1.63.92-1.63.92.73.92,1.63-.41,1.63-.92,1.63Z"/>
              <path class="cls-21" d="M83.26,21.45c-.51,0-.92-.73-.92-1.63s.41-1.63.92-1.63.92.73.92,1.63-.41,1.63-.92,1.63Z"/>
              <path class="cls-13" d="M70.16,18.12c-.51,0-.92-.73-.92-1.63s.41-1.63.92-1.63.92.73.92,1.63-.41,1.63-.92,1.63Z"/>
              <path class="cls-30" d="M93.82,21.52s-1.13,5.03,5.74,4.46c0,0-2.69,1.06-4.75.5-2.05-.57-2.34-2.9-.99-4.96Z"/>
              <path class="cls-13" d="M98.32,35.11c2.44-1.2,7.21-3.59,8.45-4.53,1.7-1.27,0-1.7,0-1.7l1.02-.35s.09.05.13.07c.99.67.5,2.65-3.89,4.29-1.63.61-3.65,1.42-5.72,2.22Z"/>
            </g>
            <g>
              <path class="cls-36" d="M44.48,73c-1.12-1.33-3.54-2.87-3.94-4.07-.14-.42-.04-.8.45-1.12,1.89-1.22,15.39.76,15.39.76l1.98,2.36s-2.7.84-5.72,1.56c-3.46.82-7.35,1.47-8.16.52Z"/>
              <path class="cls-13" d="M52.64,72.48c-3.24-1.37-8.09-3.17-12.1-3.56-.14-.42-.04-.8.45-1.12,1.89-1.22,15.39.76,15.39.76l1.98,2.36s-2.7.84-5.72,1.56Z"/>
              <path class="cls-13" d="M50.43,48.16s1.78-2.93,3.87-5c1.02-1.03,2.12-1.84,3.12-1.99,1.28-.2,5.29.6,9.51,1.59,5.75,1.35,11.9,3.04,12.12,3.04l-28.61,2.36Z"/>
              <path class="cls-3" d="M54.3,43.17c4,.83,8.83.31,12.62-.41,5.75,1.35,11.9,3.04,12.12,3.04l-28.61,2.36s1.78-2.93,3.87-5Z"/>
              <path class="cls-2" d="M25.62,64.44c-4.08.53-12.7,4.41-14.48,3.64-1.98-.85,1.22-3.87,2.36-8.12.19-.72.24-1.47.17-2.24-.06-.78-.23-1.56-.47-2.33-.92-3.03-2.84-5.85-3.29-6.85-.56-1.28,5.29.84,9.67,1.92.77.19,1.5.34,2.14.44.91.14,1.61.28,2.19.41,2.09.45,25.01-6.36,34.17-6.92,1.92-.12,6.85.12,12.26.57,7.67.62,16.29,1.65,18.62,2.65.86.37,1.34,1.5,1.58,3.05.67,4.39-.66,12.13-1.28,15.33-.18.91-.29,1.45-.29,1.45,0,0-2.23.74-5.46,1.58-1.27.33-2.69.69-4.2,1.01-3.53.78-7.5,1.43-10.93,1.46-17.85.19-37.49-6.61-41.56-7.08-.33-.04-.73-.02-1.2.04Z"/>
              <path class="cls-36" d="M69.13,70.45c-.52-.79-1.18-1.67-1.7-2.46-.9-1.39-1.34-2.54.28-2.54,2.55,0,17.66-1.04,17.66-1.04l.57.85s-1.33.63-3.24,1.48c-4.6,2.03-12.57,5.25-13.57,3.72Z"/>
              <path class="cls-13" d="M11.15,68.09c-.29-.12-.48-.3-.57-.52-.51-1.25,1.96-3.98,2.92-7.6,1.13-4.25-2.92-9.92-3.59-11.43-.02-.04-.03-.07-.03-.11-.19-1.23,7.7,1.82,11.84,2.47.91.14,1.61.28,2.19.41-2.29,1.31-4.57,3.3-4.26,5.82.32,2.57,3.35,5.35,5.98,7.31-4.08.53-12.7,4.41-14.48,3.64Z"/>
              <path class="cls-13" d="M67.43,67.98c-.9-1.39-1.34-2.54.28-2.54,2.55,0,17.66-1.04,17.66-1.04l.57.85s-1.33.63-3.24,1.48c-3.82-.57-11.58-1.32-15.27,1.25Z"/>
              <path class="cls-13" d="M23.91,51.31c2.09.45,25.01-6.36,34.17-6.92,4.63-.29,26.91,1.51,30.88,3.21.86.37,1.34,1.5,1.58,3.05l-4.41,3.18s-7.18-7.93-17-6.99c-9.82.95-51.18,8.13-51.18,8.13l1.64-4.5c.77.19,1.5.34,2.14.44.91.14,1.61.28,2.19.41Z"/>
              <path class="cls-28" d="M83.5,69.01c-2.48-1.75-4.65-4.5-3.75-8.62,1.2-5.52-4.95-11.75-9.41-15.44,7.67.62,16.29,1.65,18.62,2.65.86.37,1.34,1.5,1.58,3.05.86,5.63-1.58,16.78-1.58,16.78,0,0-2.23.74-5.46,1.58Z"/>
              <path class="cls-3" d="M11.15,68.09c-.29-.12-.48-.3-.57-.52,3.8-2.74,8.12-6.19,8.12-10.53,0-3.95-5.34-7.08-8.82-8.61-.19-1.23,7.7,1.82,11.84,2.47.91.14,1.61.28,2.19.41-2.29,1.31-4.57,3.3-4.26,5.82.32,2.57,3.35,5.35,5.98,7.31-4.08.53-12.7,4.41-14.48,3.64Z"/>
              <path class="cls-21" d="M25.62,64.44c-4.08.53-12.7,4.41-14.48,3.64-1.98-.85,1.22-3.87,2.36-8.12.19-.72.24-1.47.17-2.24.23.09.45.17.68.26,33.06,13.03,72.91,6.05,73.47,5.85l1.43,2.14c-.18.91-.29,1.45-.29,1.45,0,0-2.23.74-5.46,1.58-1.27.33-2.69.69-4.2,1.01-3.53.78-7.5,1.43-10.93,1.46-17.85.19-37.49-6.61-41.56-7.08-.33-.04-.73-.02-1.2.04Z"/>
              <path class="cls-1" d="M87.54,68.28c-.43-.29-1.16-1.48-1.82-3.18-.39-.98-.75-2.13-1.04-3.37-.08-.34-.15-.68-.21-1.03-.04-.22-.08-.44-.11-.66-.27-1.78-.33-3.66-.02-5.45.09-.5.18-.98.27-1.43.96-4.81,2.08-6.27,5.25-5.94,2.79.29,9.86,3.85,14,6.04.8.42,1.49.8,2.02,1.09.71.39,1.12.62,1.12.62,0,0,.95.42,1.33,1.18.18.35-.19.88-.62,1.35-.05.05-.09.09-.12.12-.46.47-.96.84-.96.84.31.02.57.1.77.24.99.67.5,2.65-3.89,4.29-5.29,1.98-14.83,6.05-15.96,5.29Z"/>
              <path class="cls-13" d="M100.43,59.97c.35-.41,6.78-2.33,7.26-2.48-.49.53-1.08.96-1.08.96.31.02.57.1.77.24-2.56.57-7.22,1.58-6.96,1.27Z"/>
              <path class="cls-13" d="M84.35,60.03c.03-1.8.13-4.3.25-6.87.96-4.81,2.08-6.27,5.25-5.94,4.06.43,17.14,7.75,17.14,7.75,0,0,.95.42,1.33,1.18.18.35-.19.88-.62,1.35-.05.05-.09.09-.12.12-1.95-1.1-7.76-4.29-9.55-4.45-2.17-.19-11.71-4.06-13.13,6.99-.09.66-.16,1.17-.22,1.56-.31,1.88-.38.76-.32-1.69Z"/>
              <path class="cls-3" d="M96.07,55.7c-1.89-.68-3.02-2.39-2.51-3.8.51-1.42,2.46-2.01,4.36-1.33s3.02,2.39,2.51,3.8c-.51,1.42-2.46,2.01-4.36,1.33Z"/>
              <path class="cls-35" d="M96.07,55.16c-1.71-.62-2.72-2.15-2.26-3.43s2.22-1.81,3.93-1.2c1.71.62,2.72,2.15,2.26,3.43-.46,1.28-2.22,1.81-3.93,1.2Z"/>
              <path class="cls-14" d="M99.29,53.89c-.26.73-.86,1.25-1.61,1.51,1.09-.05,2.01-.57,2.32-1.44.44-1.22-.46-2.67-2.03-3.33,1.16.78,1.74,2.1,1.32,3.26Z"/>
              <path class="cls-3" d="M95.91,54.19c-1-.15-1.73-.88-1.62-1.63.11-.75,1.02-1.24,2.02-1.08,1,.15,1.73.88,1.62,1.63-.11.75-1.02,1.24-2.02,1.08Z"/>
              <path class="cls-27" d="M87.54,68.28c-.43-.29-1.16-1.48-1.82-3.18,12.27.18,16.74-8.1,18.13-11.84,1.88.99,3.14,1.71,3.14,1.71,0,0,.95.42,1.33,1.18.18.35-.19.88-.62,1.35-.05.05-.09.09-.12.12-.46.47-.96.84-.96.84.31.02.57.1.77.24.99.67.5,2.65-3.89,4.29-5.29,1.98-14.83,6.05-15.96,5.29Z"/>
              <path class="cls-8" d="M92.86,55.04c-.71-.72-1.37-1.69-2.38-1.73-.85-.04-1.56.62-2.09,1.27-.89,1.09-1.61,2.31-2.13,3.62-.34.86-.6,1.78-.53,2.7.07.92.51,1.86,1.31,2.33,1.18.7,2.68.24,3.95-.29,1.29-.54,9-3.57,8.69-5.26-.16-.88-2.22-.73-2.84-.83-1.51-.22-2.88-.69-3.98-1.81Z"/>
              <path class="cls-5" d="M76.9,49.75c-2.13-.66-4.43-.35-6.64-.04-4.87.68-9.73,1.37-14.6,2.05-10.5,1.48-20.99,2.95-31.49,4.43-.83.12-1.81.34-2.1,1.1-.32.84.45,1.7,1.24,2.17,1.97,1.17,4.36,1.43,6.67,1.65,9.32.91,18.65,1.83,27.97,2.74,5.58.55,11.21,1.1,16.79.56,2.09-.2,4.29-.61,5.87-1.96,4.11-3.52.93-11.28-3.7-12.71Z"/>
              <path class="cls-21" d="M87.54,68.28c-.43-.29-1.16-1.48-1.82-3.18-.39-.98-.75-2.13-1.04-3.37-.08-.34-.15-.68-.21-1.03,2.09-.59,5.29,1.81,7.11,2.26,2.7.66,5.84.27,7.82-1.68,1.77-1.75,2.41-4.48,4.38-6,.61-.47,1.34-.79,2.1-.92.71.39,1.12.62,1.12.62,0,0,.95.42,1.33,1.18.18.35-.19.88-.62,1.35-.05.05-.09.09-.12.12-.46.47-.96.84-.96.84.24.01.46.07.64.17.05.02.09.05.13.07.99.67.5,2.65-3.89,4.29-1.63.61-3.65,1.42-5.72,2.22-4.67,1.82-9.46,3.6-10.24,3.08Z"/>
              <path class="cls-13" d="M66.79,48.99c-.51,0-.92-.73-.92-1.63s.41-1.63.92-1.63.92.73.92,1.63-.41,1.63-.92,1.63Z"/>
              <path class="cls-13" d="M64.31,49.27c-.51,0-.92-.73-.92-1.63s.41-1.63.92-1.63.92.73.92,1.63-.41,1.63-.92,1.63Z"/>
              <path class="cls-13" d="M60.06,51.82c-.51,0-.92-.73-.92-1.63s.41-1.63.92-1.63.92.73.92,1.63-.41,1.63-.92,1.63Z"/>
              <path class="cls-13" d="M52.27,50.83c-.51,0-.92-.73-.92-1.63s.41-1.63.92-1.63.92.73.92,1.63-.41,1.63-.92,1.63Z"/>
              <ellipse class="cls-13" cx="45.61" cy="52.18" rx=".92" ry="1.63"/>
              <path class="cls-13" d="M40.8,52.53c-.51,0-.92-.73-.92-1.63s.41-1.63.92-1.63.92.73.92,1.63-.41,1.63-.92,1.63Z"/>
              <ellipse class="cls-13" cx="34.07" cy="52.32" rx=".92" ry="1.63"/>
              <ellipse class="cls-13" cx="48.45" cy="49.34" rx=".92" ry="1.63"/>
              <ellipse class="cls-13" cx="55.67" cy="50.19" rx=".92" ry="1.63"/>
              <path class="cls-3" d="M77.34,51.68c-.51,0-.92-.73-.92-1.63s.41-1.63.92-1.63.92.73.92,1.63-.41,1.63-.92,1.63Z"/>
              <ellipse class="cls-13" cx="26.63" cy="53.17" rx=".92" ry="1.63"/>
              <path class="cls-13" d="M22.24,56.21c-.51,0-.92-.73-.92-1.63s.41-1.63.92-1.63.92.73.92,1.63-.41,1.63-.92,1.63Z"/>
              <path class="cls-13" d="M30.17,56.78c-.51,0-.92-.73-.92-1.63s.41-1.63.92-1.63.92.73.92,1.63-.41,1.63-.92,1.63Z"/>
              <path class="cls-33" d="M35.84,58.98c-.31,0-.56-.44-.56-.99s.25-.99.56-.99.56.44.56.99-.25.99-.56.99Z"/>
              <path class="cls-33" d="M27.47,58.41c-.31,0-.56-.44-.56-.99s.25-.99.56-.99.56.44.56.99-.25.99-.56.99Z"/>
              <path class="cls-33" d="M63.04,53.59c-.31,0-.56-.44-.56-.99s.25-.99.56-.99.56.44.56.99-.25.99-.56.99Z"/>
              <path class="cls-24" d="M72.38,60.53c-.31,0-.56-.44-.56-.99s.25-.99.56-.99.56.44.56.99-.25.99-.56.99Z"/>
              <path class="cls-24" d="M74.37,49.2c-.31,0-.56-.44-.56-.99s.25-.99.56-.99.56.44.56.99-.25.99-.56.99Z"/>
              <path class="cls-30" d="M50.15,54.94c-.51,0-.92-.73-.92-1.63s.41-1.63.92-1.63.92.73.92,1.63-.41,1.63-.92,1.63Z"/>
              <path class="cls-30" d="M54.11,60.82c-.53,0-.96-.76-.96-1.7s.43-1.7.96-1.7.96.76.96,1.7-.43,1.7-.96,1.7Z"/>
              <path class="cls-30" d="M61.31,62.09c-.53,0-.96-.76-.96-1.7s.43-1.7.96-1.7.96.76.96,1.7-.43,1.7-.96,1.7Z"/>
              <path class="cls-30" d="M70.4,52.53c-.51,0-.92-.73-.92-1.63s.41-1.63.92-1.63.92.73.92,1.63-.41,1.63-.92,1.63Z"/>
              <path class="cls-30" d="M73.38,55.65c-.51,0-.92-.73-.92-1.63s.41-1.63.92-1.63.92.73.92,1.63-.41,1.63-.92,1.63Z"/>
              <path class="cls-30" d="M67.21,56.5c-.51,0-.92-.73-.92-1.63s.41-1.63.92-1.63.92.73.92,1.63-.41,1.63-.92,1.63Z"/>
              <path class="cls-30" d="M79.82,54.3c-.35,0-.64-.51-.64-1.13s.29-1.13.64-1.13.64.51.64,1.13-.29,1.13-.64,1.13Z"/>
              <ellipse class="cls-30" cx="80.81" cy="57.56" rx=".8" ry="1.42"/>
              <path class="cls-13" d="M36.69,52.67c-.51,0-.92-.73-.92-1.63s.41-1.63.92-1.63.92.73.92,1.63-.41,1.63-.92,1.63Z"/>
              <path class="cls-21" d="M82.73,51.54c-.51,0-.92-.73-.92-1.63s.41-1.63.92-1.63.92.73.92,1.63-.41,1.63-.92,1.63Z"/>
              <path class="cls-13" d="M69.62,48.21c-.51,0-.92-.73-.92-1.63s.41-1.63.92-1.63.92.73.92,1.63-.41,1.63-.92,1.63Z"/>
              <path class="cls-30" d="M93.28,51.61s-1.13,5.03,5.74,4.46c0,0-2.69,1.06-4.75.5s-2.34-2.9-.99-4.96Z"/>
              <path class="cls-13" d="M97.79,65.2c2.44-1.2,7.21-3.59,8.45-4.53,1.7-1.27,0-1.7,0-1.7l1.02-.35s.09.05.13.07c.99.67.5,2.65-3.89,4.29-1.63.61-3.65,1.42-5.72,2.22Z"/>
            </g>
          </g>
          <g>
            <path class="cls-19" d="M103.66,85.97H16.34c-3.94,0-7.55-1.4-10.37-3.72-2.04-1.68-3.66-3.83-4.7-6.3-.83-1.95-1.28-4.08-1.28-6.33V16.34C0,7.32,7.32,0,16.34,0h87.31c9.03,0,16.34,7.32,16.34,16.34v53.28c0,2.47-.55,4.8-1.53,6.9-.86,1.85-2.05,3.5-3.5,4.89-2.94,2.83-6.92,4.56-11.32,4.56Z"/>
            <g>
              <polygon class="cls-17" points="5.1 5.91 54.09 26.15 53.73 48 5.1 5.91"/>
              <polygon class="cls-9" points="4.57 6.72 49.59 53.53 42.98 60.18 4.57 6.72"/>
              <polygon class="cls-11" points="115.79 5.64 66.89 33.04 75.49 44.33 117.13 7.39 115.79 5.64"/>
              <path class="cls-12" d="M5.97,82.25c-2.04-1.68-3.66-3.83-4.7-6.3,14-8.34,57.82-37.98,57.82-37.98l7.88,21.13L5.97,82.25Z"/>
              <polygon class="cls-18" points="72.18 34.03 57.13 35.37 58.5 0 64.13 0 72.18 34.03"/>
              <path class="cls-16" d="M114.97,81.41l-40.82-29.11,4.66-30.81,39.67,55.03c-.86,1.85-2.05,3.5-3.5,4.89Z"/>
              <polygon class="cls-6" points="113.91 82.48 53.46 60.71 62.2 49.67 113.91 82.48"/>
            </g>
          </g>
        </g>
      </g>
    </g>
  </g>
</svg>