<?xml version="1.0" encoding="UTF-8"?>
<svg id="Layer_2" data-name="Layer 2" xmlns="http://www.w3.org/2000/svg" viewBox="0 0 97.05 120">
  <defs>
    <style>
      .cls-1 {
        fill: #e09874;
      }

      .cls-2 {
        fill: #fdf0d9;
      }

      .cls-3 {
        fill: #89c8fd;
      }

      .cls-4 {
        fill: #db8658;
      }

      .cls-5 {
        fill: #b2d9fd;
      }

      .cls-6 {
        fill: #8c9ba7;
      }

      .cls-7 {
        fill: #7a8b97;
      }

      .cls-8 {
        fill: #f9e1bf;
      }

      .cls-9 {
        fill: #e19b76;
      }
    </style>
  </defs>
  <g id="Layer_1-2" data-name="Layer 1">
    <g>
      <path class="cls-1" d="M82.15,0c3,.79,4.64,3.72,3.24,6.63l-7.68,12.32-.54.12c-1.81-1.61-4-2.85-6.31-3.58l-.17-.52c2.65-4.57,4.65-9.63,7.74-13.9l2.09-1.07h1.64Z"/>
      <path class="cls-1" d="M84.49,68.79c.18,0,.47.05.47.16.17,13.32.08,27.02-.18,40.33-.48,4.16-2.42,9.38-6.84,10.51-23.51.13-47.04-.1-70.55,0-3.14-.33-5.89-2.19-6.93-5.23-2.41-6.97,5.61-10.6,5.63-17.38l.03-28.63,3.92-.31c22.2-.21,44.43-.34,66.64-.03,1.31.02,2.61.11,3.91.2s2.61.23,3.91.37Z"/>
      <path class="cls-6" d="M8.91,50.3l1.68-.38c20.78-.64,41.56-.62,62.36.06l1.71.31c4.42-.68,8.92-.7,13.34,0,.81,0,1.96-.2,2.57.23,0,.2-.08.35-.24.45l-4.91-.04c1.7,1.2,1.9,2.86,2.06,4.75.31,3.59.78,9.78-2,12.37l4.28.02.34.47c-1.25,1.03-4.23,1.03-5.62.23-26.1-.4-52.26-.19-78.38-.23-1.5-.6-2.93-1.75-3.22-3.45-.32-1.88-.3-8.98-.04-10.92.45-3.34,3.31-3.77,6.06-3.88Z"/>
      <path class="cls-2" d="M49.39,35.56c.13-.45.34-.45.47,0,5.1,1.05,10.3,3.57,14.79,6.23,2.24,1.33,9.03,5.78,9.84,7.87.08.2.13.42.16.64-21.58,0-44.31-.9-65.75,0,3.02-5.35,9.24-8.69,14.85-10.77,8.35-3.09,16.76-4.01,25.62-3.97Z"/>
      <path class="cls-4" d="M90.8,68.55l.03,28.16c-.25,7.49,10.33,12.69,4.41,20.15-3.44,4.34-12.1,2.9-17.31,2.93,4.92-2.82,6.26-7.35,6.56-12.74v-38.26c1.91.03,3.76.09,5.61-.23.06-.7.5-.61.7,0Z"/>
      <path class="cls-5" d="M70.68,14.97c2,.42,5.63,2.47,7.02,3.98.84.91,2.27,3.49,2.68,4.69,2.36,6.86-.86,11.57-4.79,16.84-2.2-.17-4.75-1.07-6.55-2.34l-.28-.52c.99-1.67,2.08-3.27,3.28-4.8,2.21-2.8,1.49-7.36-1.64-9.15-6.2-3.56-9.38,3.37-11.28,8.03-.52,1.59-1.27,2.95-2.25,4.11-2.27.51-4.61.43-7.02-.23-.16,0-.31,0-.47,0,.08-.46.24-.9.43-1.33,1.8-4.17,5.86-13.48,9.04-16.23s7.64-3.9,11.82-3.04Z"/>
      <path class="cls-8" d="M56.88,35.8c.21-.1.42-.19.64-.25,1.32-.35,9.92,1.31,11.02,2.12.18.13.35.3.5.47,2.22.63,4.44,1.41,6.55,2.34,4.76,2.09,9.83,5.17,12.4,9.83-4.44-.02-8.89,0-13.34,0-6.58-7.22-15.78-11.38-24.8-14.74,2.34.03,4.68.01,7.02.23Z"/>
      <path class="cls-7" d="M90.57,50.54c1.91.21,3.35,2.01,3.52,3.85.19,2.02.3,9.17-.06,10.95-.29,1.45-1.85,2.8-3.22,3.21-.18.05-.49-.04-.7,0h-6.32c.31-.47,1.02-.55,1.52-.94.39-.3.83-.85,1.06-1.28,1.01-1.94.94-10.52.36-12.77-.35-1.35-1.49-2.37-2.71-2.91,0-.33,6.07-.17,6.55-.12Z"/>
      <path class="cls-2" d="M42.32,78.68c12.49-1.71,12.61,17.3.41,16.08-9.15-.92-9.3-14.87-.41-16.08Z"/>
      <path class="cls-2" d="M73.96,90.08v3.39c0,.11-.64.97-.8,1.07-1.08.65-2.31.07-2.7-1.07v-13.56c.23-.69.79-1.21,1.5-1.3,2.04-.27,5.23-.2,6.89,1.09,3.29,2.54,2.16,7.18-1.38,8.87,0,.25,2.99,2.95,3.21,3.8.41,1.53-.8,2.82-2.35,2.35-1.03-.31-3.27-3.91-4.38-4.63Z"/>
      <path class="cls-2" d="M55.88,78.67c1-.23,1.99.07,2.3,1.11.72,2.37-.42,7.11.15,9.67.51,2.27,4.11,2.24,5.05.24.3-2.94-.23-6.19.04-9.09.25-2.71,3.47-2.94,3.76.47.17,1.99.15,5.49,0,7.51-.64,8.49-11.84,7.64-12.42,1.17-.2-2.27-.25-7.4,0-9.61.09-.75.32-1.29,1.11-1.47Z"/>
      <path class="cls-2" d="M19.68,82.12v2.57c1.57.07,4.6-.56,4.7,1.76.11,2.45-3.07,1.98-4.7,1.98v5.03c0,1.28-2.96,1.89-3.46.19v-13.94c.29-.56.86-.99,1.49-1.09.87-.14,5.23-.14,5.96.09,1.87.58.91,3.4.11,3.4h-4.09Z"/>
      <path class="cls-2" d="M30.91,91.25c1.72.14,4.19-.73,4.23,1.75.02,1.05-.47,1.63-1.53,1.77-1.45.18-5.84.41-6.34-1.17l-.05-13.65c.28-1.31,2.24-1.85,3.1-.86.1.12.59,1.21.59,1.28v10.88Z"/>
      <path class="cls-3" d="M69.05,38.14c-3.89-1.11-8.13-1.96-12.17-2.34.81-2.17,1.81-4.33,2.84-6.4,1.29-2.59,2.47-6.02,5.63-6.78,5.14-1.23,9.07,2.49,8.36,7.66-.34,2.5-3.72,5.45-4.66,7.86Z"/>
      <path class="cls-1" d="M43.26,82.18c6.22-.68,6.7,8.93.63,9.08-5.61.13-6.25-8.46-.63-9.08Z"/>
      <path class="cls-9" d="M73.96,85.17v-3.04c4.3-.6,4.31,3.64,0,3.04Z"/>
    </g>
  </g>
</svg>