<?xml version="1.0" encoding="UTF-8"?>
<svg id="Layer_2" data-name="Layer 2" xmlns="http://www.w3.org/2000/svg" viewBox="0 0 121.32 98.97">
  <defs>
    <style>
      .cls-1 {
        fill: #c7eefd;
      }

      .cls-1, .cls-2, .cls-3, .cls-4, .cls-5, .cls-6, .cls-7 {
        stroke: #000;
        stroke-miterlimit: 10;
        stroke-width: .5px;
      }

      .cls-2 {
        fill: #fd5693;
      }

      .cls-3 {
        fill: #fefefe;
      }

      .cls-4 {
        fill: #fecf64;
      }

      .cls-5 {
        fill: #fedf7c;
      }

      .cls-6 {
        fill: #def5fc;
      }

      .cls-7 {
        fill: #fd76a7;
      }
    </style>
  </defs>
  <g id="Layer_1-2" data-name="Layer 1">
    <g>
      <path class="cls-7" d="M103.86,21.2c.35-.35.51-.19.23.23l.52.82c.68,11.17,1.36,22.33,2.04,33.49l-.45.31-.87-.09c-5.54-4.3-13.47-4.33-18.68.4-6.82,7.11-14.81,10.26-23.47,3.8-7.08-6.87-14.07-10.62-22.95-4.02-6.97,6.81-14.8,10.66-23.64,4.21-2.09-1.85-4.26-3.6-6.52-5.24l-.24-.7c.71-10.51,1.35-21.08,2.11-31.58l.73-.06,5.11,4.06c8.78,6.07,15.91.85,22.65-5.17.98-.69,2-1.35,3.1-1.83,8.57-3.71,14.54,1.08,20.58,6.57,8.17,5.82,15.47,2.8,21.85-3.85,3.52-3.18,8.19-4.52,12.91-3.69,1.67.29,4.19.86,5.02,2.34Z"/>
      <path class="cls-5" d="M99.65.61c-.61.41-1.39.58-2.34.51,5.07,2.41,6.13,6.88,6.59,11.97.21,2.3.38,5.24.37,7.53l-.41.58c-3.67-2.14-7.83-2.64-11.93-1.52-6.95,1.91-9.39,9.53-17.65,10.18-12.07.95-13.49-10.14-23.87-10.77-12.29-.74-13.5,12.1-26.63,10.73-5.17-.54-7.92-4.29-11.84-6.99.01-.15.21-.46.24-.81.59-8.12-1.02-18.85,9.11-21.31C46.91.3,72.7.1,98.37.37c.4,0,1.04-.15,1.28.24Z"/>
      <path class="cls-5" d="M106.2,56.05c.63-.13.67.02.23.47l.52.93,1.1,18.88-.45.31c-33.06-.15-66.13.11-99.18,0,.48-7.4.91-14.82,1.4-22.22,5.24,3.15,7.84,8.17,14.61,8.66,12.03.88,13.53-10.15,23.87-10.77,11.27-.67,13.18,9.9,22.69,10.75,11.85,1.07,13.11-8.77,22.05-10.46,4.93-.93,9.32.35,13.15,3.44Z"/>
      <path class="cls-6" d="M101.99,89.97l.27.56c-.52,2.4-1.31,5.82-3.28,7.34l3.16.09.55.43c-.24.39-.89.23-1.28.24-26.89.28-53.81-.22-80.7,0-5.31-.45-5.3-4.39-6.42-8.63l1.26-.27c28.79.42,57.7-.63,86.44.24Z"/>
      <path class="cls-2" d="M110.18,26.34c.83,11.68,1.75,23.4,2.57,35.09-.94.13-1.87-.27-2.79-1.22-1.28-.95-2.92-2.26-3.52-3.69-.1-.08-.14-.39-.23-.47l-2.11-34.62c.8-.07,1.55.28,2.24,1.06,1.35,1,3.07,2.42,3.84,3.86Z"/>
      <path class="cls-4" d="M99.65.61c5.14.36,8.88,4.51,9.59,9.47s.57,11.06.94,16.26c-2.15-1.61-3.78-3.46-6.08-4.91-.01,0,0-.1-.23-.23-.85-7.63,1.11-16.18-7.33-19.92-.5-.22-1.01-.41-1.56-.43-.06-.41.53-.22.81-.23,1.2-.05,2.68-.08,3.86,0Z"/>
      <path class="cls-4" d="M112.75,61.43c.36,5.06.61,10.14.94,15.2-2.02-.02-4.06,0-6.08,0l-1.17-20.12c2.04,1.7,3.87,3.76,6.32,4.91Z"/>
      <path class="cls-6" d="M113.69,76.63c1.6.01,4.53-.26,5.91.05.7.16,1.21.79,1.32,1.48.31,1.97.14,6.12-.72,7.91-.79,1.65-3.36,3.89-5.23,3.89h-5.5c-.12-.75,1.15-.71,1.69-1,3.64-1.95,4.52-6.5,3.91-10.33-.15-.95-.94-1.25-1.39-2Z"/>
      <path class="cls-1" d="M101.99,89.97c2.02.06,4.06-.05,6.08,0-1.25,2.9-1.3,8-5.38,8.42-1.55.16-3.33-.12-4.91,0,.72-.89,1.65-1.24,2.23-2.32.9-1.67,1.18-4.3,1.98-6.09Z"/>
      <path class="cls-3" d="M2.25,76.51h116.54c1.1,0,2,.9,2,2v4.65c0,3.67-2.98,6.65-6.65,6.65H6.9c-3.67,0-6.65-2.98-6.65-6.65v-4.65c0-1.1.9-2,2-2Z"/>
    </g>
  </g>
</svg>