<?xml version="1.0" encoding="UTF-8"?>
<svg id="Layer_2" data-name="Layer 2" xmlns="http://www.w3.org/2000/svg" viewBox="0 0 96.35 120">
  <defs>
    <style>
      .cls-1 {
        fill: #fdfdfb;
      }

      .cls-2 {
        fill: #010101;
      }

      .cls-3 {
        fill: #7a3f2c;
      }

      .cls-4 {
        fill: #fedf7c;
      }

      .cls-5 {
        fill: #924c35;
      }

      .cls-6 {
        fill: #de646e;
      }

      .cls-7 {
        fill: #fef8de;
      }

      .cls-8 {
        fill: #010000;
      }

      .cls-9 {
        fill: #010100;
      }

      .cls-10 {
        fill: #fedf7d;
      }

      .cls-11 {
        fill: #fecf64;
      }
    </style>
  </defs>
  <g id="Layer_1-2" data-name="Layer 1">
    <g>
      <path d="M19.06,0c1.07.08,2.22,1.19,1.17,1.87,1.04,1.33-1.3,2.33-2.54,2.21l-3.8-.15c-2.1.06-3.42.19-3.76,2.55-.31,2.13-.55,11.75.39,13.19.19.29,1.03,1.08,1.32,1.08,20.19.12,40.39.19,60.59.16,2.13.01,4.26.2,6.38.41,1.14-.33,2.29-.45,3.48-.38,3.31-.1,3.76-1.01,3.93-4.1.14-2.61.12-5.27.01-7.89-.2-5.11-.91-5.16-5.92-5l-.56-.45c-1.53.21-3.07.41-4.62.41-16.16.06-32.33.09-48.49.06-1.17-.01-2.79-1.39-1.73-2.35-.96-.72.22-1.53,1.17-1.64h58.59c2.31.54,4.79,2.51,5.29,4.91s.36,11.61.1,14.19c-.35,3.43-3.64,6-7.03,5.74.03.62-.16,1.99.4,2.36.95.63,4.2,1.38,5.52,1.92,3.61,1.47,6.77,3.48,7.2,7.79.21,2.05.27,7.4.01,9.38-.1.77-.94,1.51-1.65,1.51-.74,1.07-2.94-1.31-1.87-1.99-.18-.05-.45-.12-.47-.27-.1-.7-.12-4.49,0-5.13l.47-.34-.22.47h-5.23s-.29-.35-.29-.35l-83.31.11.47.16v44.74c.02,1.74-1.19,3.81-2.81,2.43-.5-.31-1.21-.33-1.18-1.28l.04-49.67c1.01-7.16,7.58-6.84,12.22-9.34.83-.44,1.27-2.14.88-2.52-.05-.05-1.09.02-1.46-.06-2.87-.57-5.26-2.66-5.56-5.68-.26-2.58-.38-11.89.1-14.19S9.14.7,11.33,0h7.73Z"/>
      <path class="cls-1" d="M26.09,0c-.55.46-1.13.84-1.17,1.64l-.24.56c-.63.32-4.01.37-4.45-.32.05-.94-.51-1.36-1.17-1.87h7.03Z"/>
      <path class="cls-4" d="M3.6,40.31l83.81-.07c.11,20.53.14,41.08.09,61.65l-.47.29c-5.95.41-11.91.58-17.88.5-21.84.18-43.72.11-65.55-.5-.18,0-.46-.04-.47-.16-.08-1.02-.19-6.81,0-7.42l.47-.28c-.35-.2-.67-.54-.96-1.03-.57-.16-1.03-.4-1.38-.73.45-.22.45-.33.48-.8.07-.86.1-2.72,0-3.54-.05-.36-.21-.41-.49-.58,1.89.28,2.22-.88,2.35-2.45v-44.89Z"/>
      <path d="M94.76,52.5c.99.08,1.46.79,1.42,1.75l-.04,52.01c-1.15,7.66-7.35,13.27-15.08,13.75H14.95c-6.3-.43-12.12-4.72-14.11-10.73-1.57-4.73-.38-10.47-.77-15.42.02-.68.52-1.17,1.18-1.28,1.19-.19,2.34.47,2.34,1.76v7.85c27.81-.08,55.62.11,83.43,0,1.88-.59,3.74-.58,5.62,0l-.47-.16v-47.47l.47-.29c-1.12-.98,1.28-2.95,2.11-1.76Z"/>
      <path class="cls-11" d="M3.6,40.31l89.05-.23v5.74c0,.81,1.03,1.99,1.87,1.99.12,1.53-.27,3.23.23,4.69-1.06-.09-2.11.63-2.11,1.76v47.93c-1.87,0-3.75,0-5.62,0v-61.87s-83.43,0-83.43,0Z"/>
      <path class="cls-10" d="M79.76,3.52c1.4.16,1.96,3.32.94,3.98-.5.49-.88,1.04-1.13,1.65-.2,2.24-.25,4.53,0,6.77.47.48.84.96,1.13,1.42.65-.01.56,1.45.45,1.93-.39,1.67-.48,1.98-2.32,2.05-22.33.27-44.7-.11-67.03-.11-1.01-.36-1.92-1.27-2.09-2.37-.37-2.4-.26-9.85-.02-12.41.45-4.8,6.49-2.12,9.4-3.03.61-.19,1.13-.9,1.16-1.54,1.53-.12,3.23.27,4.69-.23-.05,1.03.73,1.84,1.75,1.88,17.69.2,35.4-.29,53.09,0Z"/>
      <path class="cls-5" d="M73.67,24.84l.47.39c.02,2.07,1.57,3.31,3.39,3.97,3.09.85,9.17,2.99,9.55,6.74l-.29.62c-27.65.17-55.31-.12-82.96,0,1.91-6.62,14.08-3.11,12.89-11.72,18.98.05,37.97-.06,56.95,0Z"/>
      <path class="cls-11" d="M78.82,21.33c2.14-.29,1.88-2.27,1.87-3.98l.19-.48c1.82-.22,1.53-6.85,1.13-7.84-.38-.56-.82-1.06-1.33-1.52.08-1.46.05-2.82-.94-3.98,2.76.04,6.45-.81,6.81,2.92.26,2.77.32,9.5,0,12.2-.44,3.62-5.11,2.66-7.74,2.69Z"/>
      <path class="cls-3" d="M73.67,24.84c1.95,0,3.91,0,5.86,0-1.2,8.57,10.97,5.09,12.89,11.72-1.87.01-3.75,0-5.62,0-.85-2.68-2.18-4.11-4.7-5.26-3.35-1.54-8.54-1.62-8.43-6.45Z"/>
      <path d="M46.65,45.05c1.92-.39,3.21.04,4.82.93,10.7,5.93,20.97,14.45,31.64,20.62,2.95,2.11,3.26,6.04.74,8.63-10.52,6.48-20.7,14.21-31.3,20.49-2.94,1.74-4.24,2.56-7.55.79-10.63-5.65-20.9-14.57-31.55-20.48-3.48-2.1-3.74-6.89-.47-9.33,10.69-6.23,20.93-14.58,31.64-20.62.5-.28,1.53-.92,2.03-1.02Z"/>
      <path d="M23.92,97.66c-.21.26-.85.5-1.21.55-1.89.24-8.71.26-10.54-.02-2.04-.32-1.86-3.19,0-3.49,1.64-.26,8.88-.26,10.52,0,1.4.22,2.11,1.88,1.23,2.97Z"/>
      <path d="M72.33,97.66c-.87-1.08-.17-2.74,1.23-2.97,1.63-.26,8.88-.26,10.52,0,1.86.29,2.04,3.17,0,3.49-1.83.28-8.65.26-10.54.02-.36-.04-1-.28-1.21-.55Z"/>
      <path class="cls-9" d="M11.97,87.23c.94-.21,7.88-.21,8.8,0,1.65.38,1.55,3.14-.43,3.45-1.13.18-7.11.19-8.14-.04-1.81-.4-2.08-3.01-.23-3.42Z"/>
      <path class="cls-9" d="M75.48,87.23c.92-.21,7.87-.21,8.8,0,1.91.42,1.56,3.14-.43,3.45-1.13.18-7.11.19-8.14-.04-1.76-.4-1.84-3.05-.23-3.42Z"/>
      <path class="cls-5" d="M3.83,106.4c-.21-.33.05-.52.77-.59h82.37c.66.61-.59,3.67-1,4.52-1.19,2.5-3.46,5.45-6.22,6.15-21.44.9-43.5-.65-65-.03-5.81-.79-9.74-4.33-10.93-10.05Z"/>
      <path class="cls-3" d="M3.83,106.4c-.02-.1-.53-.5-.12-.7h88.94c-1.28,6.96-5.97,10.49-12.89,10.78,3.73-2.32,6.49-6.1,7.03-10.54H4.64s-.81.47-.81.47Z"/>
      <path class="cls-2" d="M47.83,7.54c.62-.11,1.37.26,1.71.78.67,1.01.63,6.33.27,7.55-.72,2.39-3.32,1.71-3.56-1.2-.14-1.64-.5-6.74,1.59-7.12Z"/>
      <path d="M24.86,16.8c-.99.84-2.75.35-2.97-1-.16-1.04-.18-6,.04-6.97.4-1.81,3.16-1.62,3.45.2.19,1.2.18,5.32.03,6.56-.05.36-.28.98-.55,1.21Z"/>
      <path d="M71.39,16.8c-.27-.23-.5-.84-.55-1.21-.15-1.24-.16-5.36.03-6.56.29-1.82,3.05-2,3.45-.2.21.96.2,5.92.04,6.97-.21,1.35-1.97,1.84-2.97,1Z"/>
      <path class="cls-8" d="M14.2,16.81c-.24-.22-.49-1.1-.53-1.46-.14-1.29-.17-5.09.02-6.32.29-1.82,3.05-2,3.45-.2.21.96.2,5.92.04,6.97-.21,1.36-2.06,1.85-2.97,1.01Z"/>
      <path class="cls-8" d="M80.7,7.5c.87-.03,1.67.74,1.82,1.58.23,1.26.19,4.7.07,6.05-.1,1.16-.6,2.19-1.89,2.21-.58.01-1.46-.76-1.59-1.34-.24-1.08-.17-5.27-.06-6.52.09-.98.55-1.95,1.65-1.98Z"/>
      <path class="cls-9" d="M33.06,8.03c.26.26.5,1.07.54,1.45.14,1.24.17,4.9-.02,6.09-.31,1.94-3.03,2.32-3.45.43-.21-.97-.2-5.92-.04-6.97.22-1.4,1.97-1.99,2.97-1Z"/>
      <path class="cls-9" d="M39.86,7.54c.72-.06,1.63.69,1.83,1.35.25.83.22,5.67.05,6.64-.4,2.23-3.22,2.24-3.47.3-.15-1.15-.18-5.98.02-7.04.12-.65.95-1.2,1.58-1.25Z"/>
      <path class="cls-9" d="M63.19,8.03c.99-.99,2.75-.4,2.97,1,.16,1.05.18,6-.04,6.97-.42,1.89-3.15,1.51-3.45-.43-.19-1.18-.16-4.85-.02-6.09.04-.39.28-1.2.54-1.45Z"/>
      <path class="cls-9" d="M56.02,7.54c.55-.09,1.6.4,1.82.9s.24,6.82.07,7.56c-.38,1.71-2.78,1.64-3.31-.11-.27-.88-.31-5.89-.11-6.83.13-.58.93-1.44,1.52-1.53Z"/>
      <path class="cls-6" d="M47.36,48.57c.44-.11.89-.1,1.34-.05,11.07,7.02,22.23,14.14,33.04,21.57.74,1.2.1,2.29-.96,2.99-10,6.22-19.57,13.23-29.62,19.36-1.19.73-2.59,2.1-4.05,1.27l-31.63-20.63c-1.41-.87-1.81-2.52-.37-3.57l32.26-20.93Z"/>
      <path d="M30.86,72.8c-1.29-1.29-1.28-5.52-.96-7.25.24-1.32,1.41-2.39,2.7-2.7l30.65-.05c1.45.12,2.84,1.29,3.11,2.75.18.99.19,4.76-.05,5.7-.32,1.2-1.48,2.18-2.64,2.52l-30.65.06c-.61-.07-1.72-.59-2.14-1.02Z"/>
      <path class="cls-8" d="M58.84,78.33c.98.91.43,2.89-.98,3h-19.48c-1.99-.26-2.22-3.23.71-3.53,4.38-.44,13.39-.38,17.82,0,.49.04,1.59.23,1.92.54Z"/>
      <rect class="cls-7" x="33.36" y="66.32" width="29.53" height="3.98"/>
    </g>
  </g>
</svg>