<?xml version="1.0" encoding="UTF-8"?>
<svg id="Layer_2" data-name="Layer 2" xmlns="http://www.w3.org/2000/svg" viewBox="0 0 119.88 61.85">
  <defs>
    <style>
      .cls-1 {
        fill: #fcb341;
      }

      .cls-2 {
        fill: #030302;
      }

      .cls-3 {
        fill: #faa413;
      }

      .cls-4 {
        fill: #050403;
      }

      .cls-5 {
        fill: #db8658;
      }

      .cls-6 {
        fill: #f4c77c;
      }

      .cls-7 {
        fill: #fba513;
      }

      .cls-8 {
        fill: #e09873;
      }

      .cls-9 {
        fill: #e7ac8b;
      }

      .cls-10 {
        fill: #fbb341;
      }

      .cls-11 {
        fill: #fda613;
      }

      .cls-12 {
        fill: #d67e4a;
      }

      .cls-13 {
        fill: #020101;
      }

      .cls-14 {
        fill: #fcd69a;
      }

      .cls-15 {
        fill: #f8a414;
      }

      .cls-16 {
        fill: #fbcc7e;
      }

      .cls-17 {
        fill: #030202;
      }

      .cls-18 {
        fill: #fca613;
      }
    </style>
  </defs>
  <g id="Layer_1-2" data-name="Layer 1">
    <g>
      <path d="M28.3,5.55c-.83-3.49,5.17-2.42,6.87-1.2,3.64-5.79,11.4-5.78,15.03.01,2.98-1.76,6.98-1.59,9.6.7,2.84-2.18,6.64-2.56,9.76-.7,2.75-4.6,9.4-5.98,13.37-2.09.45.44,1.29,2.01,1.66,2.08.33.06,1.27-.63,1.73-.78,5.54-1.78,11.25,2.46,10.99,8.3,6.75-.23,10.81,6.89,7.51,12.72,3.91,2.39,5.69,7.5,3.26,11.6h8.3c.76,0,2.32,1.24,2.74,1.94.86,1.45.85,5.78.65,7.53-.25,2.26-1.89,3.64-4.1,3.86-.78.08-2.65-.19-3.16.12-.24.15-2.16,4.22-2.71,5.01-2.92,4.21-7.78,6.68-12.85,7.04-2,.14-6.79.28-8.64-.01-.78-.12-1.84-.99-1.77-1.86-1-1.93,2.22-2.36,3.75-2.26,2.49.12,4.97.13,7.46.01l.72.38c3.96-1.55,7.58-3.71,9.29-7.79-.8-.11-1.64-.32-2.51-.63l-5.22.29c-29.56.3-59.11.29-88.66-.03l.5.13c1.82,4.41,6.02,7.36,10.75,7.77l58,.02c.97.04,2.42,1.39,1.48,2.12.07,1.31-1.02,1.88-2.21,1.88-19.78-.21-39.62.38-59.36-.3-4.09-.71-8.21-3.34-10.56-6.75-.55-.79-2.47-4.86-2.71-5.01-.5-.31-2.55-.04-3.37-.14-2.02-.24-3.18-1.42-3.89-3.25v-6.78c.35-1.23,2.06-3.27,3.39-3.27h8.3c-2.43-4.1-.65-9.21,3.26-11.6-3.34-5.78.85-12.96,7.51-12.72-.04-1.31,0-2.85,1.4-3.41.35-.14.77-.04.94-.1,1.84-.57,1.84,1.87,1.62,3.15-.31.76,2.47,3.22,2.68,3.27l2.47-1.53.49.26c.69-.79,1.65-1.34,2.89-1.64.95-.62-1.05-4.33-2.42-4.33l-.47-.58c-.46.4-2.51.23-3.1-.05-.65-.31-1.21-.71-.64-1.35Z"/>
      <path class="cls-9" d="M105.26,49.53c.2,1.74-1.5,4.08-2.65,5.46s-2.32,2.44-4.13,2.96c-3.43.54-7.24-.24-10.4.25-.79.12-1.47.82-1.53,1.62h-4.44c-.04-.72-.74-1.65-1.51-1.65l-57.99-.02c-5.15-.44-9.62-3.74-11.37-8.62,31.34.12,62.7-.17,94.04,0Z"/>
      <path class="cls-1" d="M28.3,5.55c.34,1.45,2.33,1,3.18,1.16.3.06.48.23.56.24,1.61,1.27,1.59,5.22,0,6.55-.5.25-2.93,1.92-3.14,1.87-.93-1.8-2.91-1.67-2.96-3.86-.03-1.44.68-2.29-1.15-3.16.8-.29,1.98-2.93,3.51-2.81Z"/>
      <path class="cls-5" d="M3.74,39.94c36.71-.14,73.38-.05,110.02.28.22.13.28,4.68.04,5.1-.19.34-.3.4-.74.48H3.98s-.47,0-.47,0c.16-1.73-.22-3.83,0-5.51.02-.19.01-.35.24-.34Z"/>
      <path class="cls-14" d="M75.32,14.68c10.71-1.05,19.34,10.79,18.99,20.83l-.51.69c-12.16.13-24.33-.1-36.49,0v-3.63c0-8.93,9.29-17.52,18.01-17.89Z"/>
      <path class="cls-14" d="M40.94,14.68c.83-.19,1.7-.14,2.54-.06,1.66.17,4.9.56,5.18,2.4-.84,2.52-.56,5.26.68,7.58-3.91,2.48-5.62,7.43-3.26,11.6h-23.16v-3.86c0-8.79,9.46-17.3,18.01-17.66Z"/>
      <path class="cls-16" d="M75.32,14.68c2.36-.58,5.3.02,7.61.7,6.75,1.99,13.91,9.67,13.91,16.96v3.86c-1.01,0-2.03-.01-3.04,0,.63-8.1-4.41-16.29-11.53-19.93-2.48-1.27-4.14-1.71-6.95-1.59Z"/>
      <path class="cls-12" d="M3.74,39.94l112.51.12v5.73H3.98h109.08c.62-.14.46-4.92.18-5.71-36.43-.32-73.01-.05-109.5-.14Z"/>
      <path class="cls-1" d="M57.54,15.61c1.44.74,1.8,3.12.94,4.44-.83,1.15-1.7,2.91-2.34,4.21-1.77-.84-2.91.24-3.91-1.81-1.85-3.79,1.19-7.7,5.32-6.84Z"/>
      <path class="cls-1" d="M23.16,15.61c1.41.77,1.77,3.13.94,4.44-.88,1.21-1.72,2.84-2.34,4.21-1.7-.86-2.83.26-3.83-1.66-1.98-3.8,1.07-7.96,5.24-6.99Z"/>
      <path class="cls-1" d="M66.43,6.96c1.64,1.31,1.62,5.23,0,6.55-.55.28-2.82,1.93-3.13,1.86-.89-1.73-2.99-1.73-2.96-3.84.05-3.32,3.02-5.29,6.1-4.56Z"/>
      <path class="cls-1" d="M19.42,36.2c-2.17.07-3.69.31-4.77-1.9-1.74-3.55,1.16-7.73,5.12-6.99.25.05.49.09.57.38.07.25-.84,4.25-.92,5.12-.09,1.11.06,2.27,0,3.39Z"/>
      <path class="cls-1" d="M53.8,36.2c-1.81-.05-3.11.46-4.31-1.19-2.52-3.44.34-8.5,4.66-7.7.25.05.49.09.57.38.07.25-.84,4.25-.92,5.12-.09,1.11.06,2.27,0,3.39Z"/>
      <path class="cls-1" d="M43.74,3.68c1.23.61,1.39,2.18,1.36,3.44-.02,1.16-.42,3.51-1.6,3.81-1.5-.01-2.95.13-4.45.23.29-2.36-1.85-3.33-.33-5.6,1.16-1.74,3.02-2.33,5.01-1.89Z"/>
      <path class="cls-1" d="M78.13,3.68c1.23.63,1.41,2.28,1.38,3.56-.03,1.17-.41,3.41-1.61,3.69-1.5-.01-2.95.13-4.45.24.3-2.29-1.76-3.47-.33-5.6,1.17-1.74,3.02-2.33,5.01-1.89Z"/>
      <path class="cls-1" d="M90.06,6.96c1.64.96,1.55,3.8,1,5.44-.27.81-.75,2.18-1.7,2.05-1.58-.93-3.28-1.57-4.88-2.45,1.39-2.29-.02-4.61,3.42-5.21.99-.17,1.33-.01,2.17.18Z"/>
      <path class="cls-1" d="M55.44,6.72c1.94.8,1.51,3.66.94,5.15-.92.04-1.45.1-2.34.35-.56.15-1.48.74-1.79.77-.28.02-2.14-.76-2.16-1,.92-.99.61-3.31,1.24-4.12.75-.96,2.97-1.31,4.11-1.15Z"/>
      <path class="cls-1" d="M98.71,15.61c1.73,1.02,1.59,4.08.93,5.77-.31.8-.93,2.21-1.87,1.95l-3.73-5.23c1.94-1.75,1.7-3.17,4.66-2.49Z"/>
      <path class="cls-18" d="M97.78,23.33c2.12-1.95,2.37-5.25.94-7.72,4.53,1.05,5.06,7.01,1.09,8.93-1.93.93-1.36-.11-2.03-1.21Z"/>
      <path class="cls-18" d="M101.99,27.54c2.21,0,3.87,2.95,3.69,4.96-.27,3-2.51,4.2-5.33,3.69-.01-.15,0-.31,0-.47l.23-.71c1.85-1.86,2.1-4.56,1.14-6.92l.26-.56Z"/>
      <path class="cls-8" d="M105.26,49.53c1.09,0,2.19,0,3.27,0-1.62,4.37-5.41,7.68-10.06,8.42,3.31-1.96,5.3-4.95,6.78-8.42Z"/>
      <path class="cls-18" d="M89.36,14.44c1.84-2.11,2.06-5.07.7-7.49,3.2.72,4.82,4.23,3,7.1-1.57,2.48-1.98,1.4-3.71.39Z"/>
      <path class="cls-11" d="M43.51,10.93c1.26-2.38,1.64-4.82.23-7.25,2.86.64,4.68,3.79,3.39,6.55-.77,1.65-2.16.71-3.63.7Z"/>
      <path class="cls-18" d="M77.89,10.93c1.35-2.34,1.61-4.83.23-7.25,2.86.64,4.68,3.79,3.39,6.55-.77,1.65-2.16.71-3.63.7Z"/>
      <path class="cls-10" d="M101.99,27.54c1.31,2.74,1,6.38-1.64,8.19-.12-2.49-.05-4.88-.72-7.34.04-.19,1.96-.85,2.36-.85Z"/>
      <path class="cls-18" d="M66.43,6.96c2.23.53,3.82,2.43,3.53,4.81-.02.2.01.23-.16.37-.53.41-2.56.97-3.36,1.38.94-2.27.94-4.29,0-6.55Z"/>
      <path class="cls-18" d="M32.05,6.96c1.19.26,1.65.45,2.43,1.42.55.68,1.7,3.15.93,3.75-.52.4-2.53.96-3.36,1.38.9-2.27.9-4.28,0-6.55Z"/>
      <path class="cls-3" d="M58.48,20.06c.11-1.59-.08-3.07-.94-4.44.97.2,2.9.88,3.01,2.03.04.47-1.76,1.99-2.07,2.42Z"/>
      <path class="cls-7" d="M24.09,20.06c.08-1.55-.12-3.12-.94-4.44.9.21,2.85.99,3.01,2.03.06.42-1.78,2.01-2.07,2.41Z"/>
      <path class="cls-6" d="M40.94,14.68c.98-.79,8.06.46,8.42.94.11.55-.6,1.1-.7,1.4-2.06-1.92-4.96-2.46-7.72-2.34Z"/>
      <path class="cls-15" d="M55.44,6.72c3.61.51,1.18,2.8,1.4,5.15-.15.01-.31,0-.47,0,.22-1.74.22-3.69-.94-5.15Z"/>
      <path class="cls-4" d="M67.77,25.95c2.17-.33,2.37,3.27.18,3.21-1.8-.05-2-2.93-.18-3.21Z"/>
      <path class="cls-17" d="M84.62,27.58c2.66-.55,2.56,3.77-.24,2.95-1.28-.38-1.17-2.66.24-2.95Z"/>
      <path class="cls-2" d="M71.87,21.99c1.3-1.23,3.89.75,2.17,2.28s-3.48-1.04-2.17-2.28Z"/>
      <path class="cls-2" d="M34.79,28.65c-1.32,1.4-3.73-.54-2.28-2.17,1.53-1.72,3.51.86,2.28,2.17Z"/>
      <path class="cls-13" d="M39.71,21.99c1.32,1.25-.5,3.77-2.17,2.28s.87-3.51,2.17-2.28Z"/>
    </g>
  </g>
</svg>