<?xml version="1.0" encoding="UTF-8"?>
<svg xmlns="http://www.w3.org/2000/svg" xmlns:xlink="http://www.w3.org/1999/xlink" viewBox="0 0 120 85.97">
  <defs>
    <style>
      .cls-1 {
        fill: url(#linear-gradient-14);
      }

      .cls-1, .cls-2, .cls-3, .cls-4, .cls-5, .cls-6, .cls-7, .cls-8, .cls-9 {
        mix-blend-mode: multiply;
      }

      .cls-1, .cls-3, .cls-10 {
        opacity: .85;
      }

      .cls-11 {
        fill: url(#linear-gradient-2);
      }

      .cls-2 {
        fill: url(#linear-gradient-13);
      }

      .cls-12 {
        fill: #ffbfa8;
      }

      .cls-13 {
        fill: url(#linear-gradient-27);
      }

      .cls-13, .cls-14, .cls-5, .cls-15, .cls-16, .cls-17 {
        opacity: .5;
      }

      .cls-13, .cls-18, .cls-19, .cls-16, .cls-20, .cls-21, .cls-22, .cls-23, .cls-24, .cls-25 {
        mix-blend-mode: lighten;
      }

      .cls-26 {
        fill: url(#linear-gradient-28);
      }

      .cls-26, .cls-14, .cls-15, .cls-27, .cls-10, .cls-17 {
        mix-blend-mode: screen;
      }

      .cls-26, .cls-18, .cls-27, .cls-19, .cls-20, .cls-21, .cls-22, .cls-23, .cls-24, .cls-25 {
        opacity: .35;
      }

      .cls-28 {
        fill: #ff9b78;
      }

      .cls-29 {
        fill: url(#linear-gradient-4);
      }

      .cls-14 {
        fill: url(#linear-gradient-26);
      }

      .cls-3 {
        fill: url(#linear-gradient-19);
      }

      .cls-4 {
        fill: url(#linear-gradient-9);
        opacity: .9;
      }

      .cls-5 {
        fill: url(#linear-gradient-24);
      }

      .cls-30 {
        fill: url(#linear-gradient-3);
      }

      .cls-15 {
        fill: url(#White_Black-2);
      }

      .cls-31 {
        isolation: isolate;
      }

      .cls-32 {
        fill: #f99a71;
      }

      .cls-6 {
        fill: url(#linear-gradient-8);
      }

      .cls-18 {
        fill: url(#linear-gradient-12);
      }

      .cls-7 {
        fill: url(#linear-gradient-23);
      }

      .cls-8 {
        fill: url(#linear-gradient-18);
      }

      .cls-9 {
        fill: url(#linear-gradient-5);
      }

      .cls-27 {
        fill: url(#radial-gradient);
      }

      .cls-33 {
        fill: url(#linear-gradient-11);
      }

      .cls-19 {
        fill: url(#linear-gradient-15);
      }

      .cls-16 {
        fill: url(#linear-gradient-30);
      }

      .cls-34 {
        fill: url(#linear-gradient-6);
      }

      .cls-20 {
        fill: url(#linear-gradient-7);
      }

      .cls-10 {
        fill: url(#linear-gradient-29);
      }

      .cls-35 {
        fill: #f4f4f4;
      }

      .cls-36 {
        fill: url(#linear-gradient-21);
      }

      .cls-21 {
        fill: url(#linear-gradient-20);
      }

      .cls-37 {
        fill: #eb662e;
      }

      .cls-22 {
        fill: url(#linear-gradient-17);
      }

      .cls-17 {
        fill: url(#White_Black);
      }

      .cls-23 {
        fill: url(#linear-gradient-22);
      }

      .cls-38 {
        fill: url(#linear-gradient-16);
      }

      .cls-24 {
        fill: url(#linear-gradient-25);
      }

      .cls-25 {
        fill: url(#linear-gradient-10);
      }

      .cls-39 {
        fill: url(#linear-gradient);
      }
    </style>
    <linearGradient id="linear-gradient" x1="186.03" y1="180.47" x2="186.03" y2="60.47" gradientTransform="translate(-60.47 229.01) rotate(-90)" gradientUnits="userSpaceOnUse">
      <stop offset="0" stop-color="#e3e4e6"/>
      <stop offset="1" stop-color="#cacccb"/>
    </linearGradient>
    <linearGradient id="linear-gradient-2" x1="186.03" y1="179.44" x2="186.03" y2="61.51" gradientTransform="translate(-60.47 229.01) rotate(-90)" gradientUnits="userSpaceOnUse">
      <stop offset="0" stop-color="#fff"/>
      <stop offset=".99" stop-color="#f4f4f4"/>
    </linearGradient>
    <linearGradient id="linear-gradient-3" x1="218.63" y1="176.94" x2="153.43" y2="64.01" gradientTransform="translate(-60.47 229.01) rotate(-90)" gradientUnits="userSpaceOnUse">
      <stop offset="0" stop-color="#f4f4f4"/>
      <stop offset="1" stop-color="#cacccb"/>
    </linearGradient>
    <linearGradient id="linear-gradient-4" x1="186.03" y1="166.51" x2="186.03" y2="74.44" gradientTransform="translate(-60.47 229.01) rotate(-90)" gradientUnits="userSpaceOnUse">
      <stop offset="0" stop-color="#f4f4f4"/>
      <stop offset=".99" stop-color="#e3e4e6"/>
    </linearGradient>
    <radialGradient id="radial-gradient" cx="186.03" cy="120.47" fx="186.03" fy="120.47" r="52.19" gradientTransform="translate(-60.47 229.01) rotate(-90)" gradientUnits="userSpaceOnUse">
      <stop offset="0" stop-color="#000"/>
      <stop offset=".17" stop-color="#030303"/>
      <stop offset=".3" stop-color="#0c0c0c"/>
      <stop offset=".42" stop-color="#1d1d1d"/>
      <stop offset=".53" stop-color="#343434"/>
      <stop offset=".64" stop-color="#515151"/>
      <stop offset=".74" stop-color="#767676"/>
      <stop offset=".84" stop-color="#a2a2a2"/>
      <stop offset=".93" stop-color="#d3d3d3"/>
      <stop offset="1" stop-color="#fff"/>
    </radialGradient>
    <linearGradient id="linear-gradient-5" x1="157.56" y1="121.01" x2="221.73" y2="121.01" xlink:href="#linear-gradient-3"/>
    <linearGradient id="linear-gradient-6" x1="154.8" y1="120.24" x2="175.85" y2="119.27" gradientTransform="translate(-60.47 229.01) rotate(-90)" gradientUnits="userSpaceOnUse">
      <stop offset="0" stop-color="#f99a71"/>
      <stop offset=".27" stop-color="#ffb897"/>
      <stop offset=".72" stop-color="#fba57f"/>
      <stop offset="1" stop-color="#fa9e76"/>
    </linearGradient>
    <linearGradient id="linear-gradient-7" x1="160.42" y1="165.13" x2="160.42" y2="71.27" gradientTransform="translate(-60.47 229.01) rotate(-90)" gradientUnits="userSpaceOnUse">
      <stop offset="0" stop-color="#261b20"/>
      <stop offset="0" stop-color="#3b3136"/>
      <stop offset=".03" stop-color="#645a5f"/>
      <stop offset=".05" stop-color="#897f84"/>
      <stop offset=".07" stop-color="#a9a0a5"/>
      <stop offset=".09" stop-color="#c4bbc0"/>
      <stop offset=".12" stop-color="#dad1d6"/>
      <stop offset=".15" stop-color="#eae2e7"/>
      <stop offset=".2" stop-color="#f6eef3"/>
      <stop offset=".25" stop-color="#fdf5fa"/>
      <stop offset=".41" stop-color="#fff7fc"/>
      <stop offset=".51" stop-color="#fbf3f8"/>
      <stop offset=".58" stop-color="#f1eaee"/>
      <stop offset=".65" stop-color="#e1d9de"/>
      <stop offset=".72" stop-color="#c9c2c6"/>
      <stop offset=".79" stop-color="#aaa4a7"/>
      <stop offset=".85" stop-color="#857f82"/>
      <stop offset=".91" stop-color="#585455"/>
      <stop offset=".96" stop-color="#262223"/>
      <stop offset="1" stop-color="#030000"/>
    </linearGradient>
    <linearGradient id="linear-gradient-8" x1="161.68" y1="139.48" x2="176.75" y2="139.48" gradientTransform="translate(-60.47 229.01) rotate(-90)" gradientUnits="userSpaceOnUse">
      <stop offset="0" stop-color="#fff7fc"/>
      <stop offset=".01" stop-color="#fef5fa"/>
      <stop offset=".35" stop-color="#fcd0c1"/>
      <stop offset=".64" stop-color="#fbb498"/>
      <stop offset=".86" stop-color="#faa47f"/>
      <stop offset="1" stop-color="#fa9e76"/>
    </linearGradient>
    <linearGradient id="linear-gradient-9" x1="168.39" y1="167.94" x2="168.39" y2="74.57" gradientTransform="translate(-60.47 229.01) rotate(-90)" gradientUnits="userSpaceOnUse">
      <stop offset="0" stop-color="#fff7fc"/>
      <stop offset=".28" stop-color="#fa9e76"/>
      <stop offset=".39" stop-color="#faa17b"/>
      <stop offset=".52" stop-color="#faab8a"/>
      <stop offset=".66" stop-color="#fbbca3"/>
      <stop offset=".81" stop-color="#fdd4c7"/>
      <stop offset=".97" stop-color="#fef1f4"/>
      <stop offset="1" stop-color="#fff7fc"/>
    </linearGradient>
    <linearGradient id="linear-gradient-10" x1="166.83" y1="167" x2="166.83" y2="76.16" gradientTransform="translate(-60.47 229.01) rotate(-90)" gradientUnits="userSpaceOnUse">
      <stop offset="0" stop-color="#030000"/>
      <stop offset=".07" stop-color="#1d1a1a"/>
      <stop offset=".27" stop-color="#615c5e"/>
      <stop offset=".46" stop-color="#999396"/>
      <stop offset=".63" stop-color="#c5bec2"/>
      <stop offset=".78" stop-color="#e4dde1"/>
      <stop offset=".91" stop-color="#f8f0f5"/>
      <stop offset="1" stop-color="#fff7fc"/>
    </linearGradient>
    <linearGradient id="linear-gradient-11" x1="171.19" y1="121.05" x2="192.24" y2="120.08" xlink:href="#linear-gradient-6"/>
    <linearGradient id="linear-gradient-12" x1="176.81" y1="165.94" x2="176.81" y2="72.07" xlink:href="#linear-gradient-7"/>
    <linearGradient id="linear-gradient-13" x1="178.07" y1="140.28" x2="193.14" y2="140.28" xlink:href="#linear-gradient-8"/>
    <linearGradient id="linear-gradient-14" x1="184.78" y1="168.75" x2="184.78" y2="75.37" xlink:href="#linear-gradient-9"/>
    <linearGradient id="linear-gradient-15" x1="183.22" y1="167.81" x2="183.22" y2="76.97" xlink:href="#linear-gradient-10"/>
    <linearGradient id="linear-gradient-16" x1="186.24" y1="119.43" x2="207.29" y2="118.47" xlink:href="#linear-gradient-6"/>
    <linearGradient id="linear-gradient-17" x1="191.85" y1="164.33" x2="191.85" y2="70.46" xlink:href="#linear-gradient-7"/>
    <linearGradient id="linear-gradient-18" x1="193.12" y1="138.67" x2="208.18" y2="138.67" xlink:href="#linear-gradient-8"/>
    <linearGradient id="linear-gradient-19" x1="199.83" y1="167.14" x2="199.83" y2="73.76" xlink:href="#linear-gradient-9"/>
    <linearGradient id="linear-gradient-20" x1="198.26" y1="166.2" x2="198.26" y2="75.36" xlink:href="#linear-gradient-10"/>
    <linearGradient id="linear-gradient-21" x1="201.01" y1="118.9" x2="222.06" y2="117.93" xlink:href="#linear-gradient-6"/>
    <linearGradient id="linear-gradient-22" x1="206.63" y1="163.79" x2="206.63" y2="69.92" xlink:href="#linear-gradient-7"/>
    <linearGradient id="linear-gradient-23" x1="207.89" y1="138.14" x2="222.96" y2="138.14" xlink:href="#linear-gradient-8"/>
    <linearGradient id="linear-gradient-24" x1="214.6" y1="166.59" x2="214.6" y2="73.22" xlink:href="#linear-gradient-9"/>
    <linearGradient id="linear-gradient-25" x1="213.04" y1="165.66" x2="213.04" y2="74.82" xlink:href="#linear-gradient-10"/>
    <linearGradient id="White_Black" data-name="White, Black" x1="160.62" y1="156.35" x2="183.36" y2="121.61" gradientTransform="translate(-60.47 229.01) rotate(-90)" gradientUnits="userSpaceOnUse">
      <stop offset="0" stop-color="#fff"/>
      <stop offset="1" stop-color="#000"/>
    </linearGradient>
    <linearGradient id="White_Black-2" data-name="White, Black" x1="171.8" y1="163.86" x2="194.4" y2="129.35" xlink:href="#White_Black"/>
    <linearGradient id="linear-gradient-26" x1="162.64" y1="93.07" x2="172.62" y2="77.82" gradientTransform="translate(-60.47 229.01) rotate(-90)" gradientUnits="userSpaceOnUse">
      <stop offset="0" stop-color="#000"/>
      <stop offset="1" stop-color="#fff"/>
    </linearGradient>
    <linearGradient id="linear-gradient-27" x1="189.66" y1="113.42" x2="205.99" y2="147.39" gradientTransform="translate(-60.47 229.01) rotate(-90)" gradientUnits="userSpaceOnUse">
      <stop offset="0" stop-color="#000"/>
      <stop offset=".09" stop-color="#202020"/>
      <stop offset=".28" stop-color="#636363"/>
      <stop offset=".46" stop-color="#9a9a9a"/>
      <stop offset=".63" stop-color="#c6c6c6"/>
      <stop offset=".78" stop-color="#e5e5e5"/>
      <stop offset=".91" stop-color="#f8f8f8"/>
      <stop offset="1" stop-color="#fff"/>
    </linearGradient>
    <linearGradient id="linear-gradient-28" x1="143.05" y1="115.82" x2="178.42" y2="115.82" gradientTransform="translate(-60.47 229.01) rotate(-90)" gradientUnits="userSpaceOnUse">
      <stop offset="0" stop-color="#fff"/>
      <stop offset=".19" stop-color="#fcfcfc"/>
      <stop offset=".33" stop-color="#f3f3f3"/>
      <stop offset=".44" stop-color="#e3e3e3"/>
      <stop offset=".55" stop-color="#cdcdcd"/>
      <stop offset=".65" stop-color="#b1b1b1"/>
      <stop offset=".74" stop-color="#8e8e8e"/>
      <stop offset=".83" stop-color="#656565"/>
      <stop offset=".92" stop-color="#363636"/>
      <stop offset="1" stop-color="#020202"/>
      <stop offset="1" stop-color="#000"/>
    </linearGradient>
    <linearGradient id="linear-gradient-29" x1="189.39" y1="91.39" x2="212.05" y2="56.77" gradientTransform="translate(-60.47 229.01) rotate(-90)" gradientUnits="userSpaceOnUse">
      <stop offset="0" stop-color="#000"/>
      <stop offset=".06" stop-color="#1f1f1f"/>
      <stop offset=".16" stop-color="#535353"/>
      <stop offset=".26" stop-color="#818181"/>
      <stop offset=".37" stop-color="#a8a8a8"/>
      <stop offset=".48" stop-color="#c7c7c7"/>
      <stop offset=".59" stop-color="#e0e0e0"/>
      <stop offset=".71" stop-color="#f1f1f1"/>
      <stop offset=".84" stop-color="#fbfbfb"/>
      <stop offset="1" stop-color="#fff"/>
    </linearGradient>
    <linearGradient id="linear-gradient-30" x1="201.07" y1="117.13" x2="219.66" y2="80.91" gradientTransform="translate(-60.47 229.01) rotate(-90)" gradientUnits="userSpaceOnUse">
      <stop offset="0" stop-color="#000"/>
      <stop offset=".05" stop-color="#303030"/>
      <stop offset=".1" stop-color="#5b5b5b"/>
      <stop offset=".15" stop-color="#828282"/>
      <stop offset=".21" stop-color="#a4a4a4"/>
      <stop offset=".28" stop-color="silver"/>
      <stop offset=".35" stop-color="#d7d7d7"/>
      <stop offset=".44" stop-color="#e9e9e9"/>
      <stop offset=".54" stop-color="#f5f5f5"/>
      <stop offset=".67" stop-color="#fcfcfc"/>
      <stop offset="1" stop-color="#fff"/>
    </linearGradient>
  </defs>
  <g class="cls-31">
    <g id="Layer_2" data-name="Layer 2">
      <g id="Layer_1-2" data-name="Layer 1">
        <g>
          <path class="cls-39" d="M16.34,0h87.31c9.03,0,16.34,7.32,16.34,16.34v53.28c0,9.03-7.32,16.34-16.34,16.34H16.34c-9.03,0-16.34-7.32-16.34-16.34V16.34c0-2.47.55-4.8,1.53-6.9.86-1.85,2.05-3.5,3.5-4.89C7.97,1.73,11.95,0,16.34,0Z"/>
          <rect class="cls-11" x="1.04" y="1.07" width="117.93" height="83.82" rx="14.23" ry="14.23"/>
          <rect class="cls-30" x="2.59" y="2.69" width="114.82" height="80.6" rx="12.75" ry="12.75"/>
          <rect class="cls-35" x="12.93" y="13.43" width="94.14" height="59.1" rx="6.54" ry="6.54"/>
          <rect class="cls-29" x="13.97" y="14.51" width="92.07" height="56.95" rx="5.56" ry="5.56"/>
          <path class="cls-27" d="M16.34,0h87.31c3.94,0,7.55,1.4,10.37,3.72,2.04,1.68,3.66,3.83,4.7,6.3.83,1.95,1.28,4.08,1.28,6.33v53.28c0,9.03-7.32,16.34-16.34,16.34H16.34c-9.03,0-16.34-7.32-16.34-16.34V16.34c0-2.47.55-4.8,1.53-6.9.86-1.85,2.05-3.5,3.5-4.89C7.97,1.73,11.95,0,16.34,0Z"/>
          <path class="cls-9" d="M66.3,8.22c-1.37.04-2.7.07-3.96.11-.84.02-1.65.05-2.42.07-2.42.07-4.5.15-6.06.2-.28.01-.55.02-.82.03-.08,0-.15,0-.23,0-9.03.33-30.72.03-34.48.77-.16.04-.28.07-.39.11-.18.07-.37.16-.56.25-.04.02-.08.03-.12.05-.08.04-.17.09-.25.13-.18.09-.35.18-.53.29-.03.02-.06.04-.09.06-.23.14-.46.28-.69.44-.03.02-.06.04-.08.06-.23.16-.45.33-.67.51-.05.04-.09.08-.14.12-.19.16-.38.33-.56.51-.07.07-.14.14-.2.22-.15.16-.29.31-.42.48-.09.11-.17.22-.25.33-.1.14-.19.28-.28.42-.05.07-.1.14-.14.22-.07.07-.15.13-.22.2-.18.43-.3.88-.39,1.36-.08.42-.12.78-.12,1.15,0,.21.02.45.03.7,0,.04,0,.07,0,.12.01.18.03.36.05.55.05.37.13.77.23,1.18.03.13.06.26.09.4,0,.02.02.05.02.08,0,.02,0,.04.02.06.02.05.04.1.05.14.27.86.68,1.73,1.28,2.53.1.13.19.26.29.38.01.01.02.03.04.05.05.06.12.12.18.18.16.17.32.33.5.48.1.09.21.17.32.25.17.13.35.26.55.37.13.08.25.15.39.22.21.11.44.21.67.31.13.05.26.11.4.16.14.05.29.09.44.13-.08.04-.17.09-.25.13-.18.09-.35.18-.53.29-.03.02-.06.04-.09.06-.23.14-.46.28-.69.44-.03.02-.06.04-.08.06-.23.16-.45.33-.67.51-.05.04-.09.08-.14.12-.19.16-.38.33-.56.51-.07.07-.14.14-.2.22-.15.16-.29.31-.42.48-.09.11-.17.22-.25.33-.1.14-.19.28-.28.42-.05.07-.1.14-.14.22-.07.07-.15.13-.22.2-.18.43-.3.88-.39,1.36-.08.42-.12.78-.12,1.15,0,.21.02.45.03.7,0,.04,0,.07,0,.12.01.18.03.36.05.55.05.37.13.77.23,1.18.03.13.06.26.09.4,0,.02.02.05.02.08,0,.02,0,.04.02.06.02.05.04.1.05.14.27.86.68,1.73,1.28,2.53.1.13.19.26.29.38.01.01.02.03.04.05.05.06.12.12.18.18.16.17.32.33.5.48.1.09.21.17.32.25.17.13.35.26.55.37.13.08.25.15.39.22.21.11.44.21.67.31.13.05.26.11.4.16.38.13.79.25,1.23.33.11.02.24.02.35.04-.02,0-.04.02-.05.02-.08.04-.17.09-.25.13-.18.09-.35.18-.53.29-.03.02-.06.04-.09.06-.23.14-.46.28-.69.44-.03.02-.06.04-.08.06-.23.16-.45.33-.67.51-.05.04-.09.08-.14.12-.19.16-.38.33-.56.51-.07.07-.14.14-.2.22-.15.16-.29.31-.42.48-.09.11-.17.22-.25.33-.1.14-.19.28-.28.42-.05.07-.1.14-.14.22-.07.07-.15.13-.22.2-.18.43-.3.88-.39,1.36-.08.42-.12.78-.12,1.15,0,.21.02.45.03.7,0,.04,0,.07,0,.12.01.18.03.36.05.55.05.37.13.77.23,1.18.03.13.06.26.09.4,0,.02.02.05.02.08,0,.02,0,.04.02.06.02.05.04.1.05.14.27.86.68,1.73,1.28,2.53.1.13.19.26.29.38.01.01.02.03.04.05.05.06.12.12.18.18.16.17.32.33.5.48.1.09.21.17.32.25.17.13.35.26.55.37.13.08.25.15.39.22.21.11.44.21.67.31.13.05.26.11.4.16.38.13.79.25,1.23.33.43.08.9.14,1.4.17,2.07.11,8.03.24,16.01.27-8.2.05-16.3.14-18.46.56-.16.04-.28.07-.39.11-.18.07-.37.16-.56.25-.04.02-.08.03-.12.05-.08.04-.17.09-.25.13-.18.09-.35.18-.53.29-.03.02-.06.04-.09.06-.23.14-.46.28-.69.44-.03.02-.06.04-.08.06-.23.16-.45.33-.67.51-.05.04-.09.08-.14.12-.19.16-.38.33-.56.51-.07.07-.14.14-.2.22-.15.16-.29.31-.42.48-.09.11-.17.22-.25.33-.1.14-.19.28-.28.42-.05.07-.1.14-.14.22-.07.07-.15.13-.22.2-.18.43-.3.88-.39,1.36-.08.42-.12.78-.12,1.15,0,.21.02.45.03.7,0,.04,0,.07,0,.12.01.18.03.36.05.55.05.37.13.77.23,1.18.03.13.06.26.09.4,0,.02.02.05.02.08,0,.02,0,.04.02.06.02.05.04.1.05.14.27.86.68,1.73,1.28,2.53.1.13.19.26.29.38.01.01.02.03.04.05.05.06.12.12.18.18.16.17.32.33.5.48.1.09.21.17.32.25.17.13.35.26.55.37.13.08.25.15.39.22.21.11.44.21.67.31.13.05.26.11.4.16.38.13.79.25,1.23.33.43.08.9.14,1.4.17,6.56.35,52.37.86,77.08-1.85,1.05-.12,2.06-.34,3.02-.66.24-.05.47-.17.72-.26.08-.03.17-.07.25-.1.81-.34,1.59-.72,2.27-1.21.04-.03.07-.06.12-.09.28-.2.54-.41.77-.64.11-.11.22-.21.32-.33.03-.04.07-.07.11-.12.05-.06.1-.12.15-.17.73-.81,1.29-1.73,1.58-2.74.05-.18.07-.37.11-.56.36-1.85.17-3.93-.92-5.51-1.28-1.85-3-2.1-4.95-2.76-.71-.24-1.39-.4-1.95-.48-.32-.04-.6-.06-.85-.06-.6.01-5.4.13-11.71.29,4.23-.27,8.22-.59,11.76-.98,1.05-.12,2.06-.34,3.02-.66.24-.05.47-.17.72-.26.08-.03.17-.07.25-.1.81-.34,1.59-.72,2.27-1.21.04-.03.07-.06.12-.09.28-.2.54-.41.77-.64.11-.11.22-.21.32-.33.03-.04.07-.07.11-.12.05-.06.1-.12.15-.17,2.06-2.38,2.66-6.1.85-8.79-1.59-2.36-4.34-2.89-6.98-3.26-.11-.01-.2-.02-.3-.03.04-.01.07-.02.11-.03.24-.05.47-.17.72-.26.08-.03.17-.07.25-.1.81-.34,1.59-.72,2.27-1.21.04-.03.07-.06.12-.09.28-.2.54-.41.77-.64.11-.11.22-.21.32-.33.03-.04.07-.07.11-.12.05-.06.1-.12.15-.18,1.85-2.03,2.56-5.49,1.3-7.99-1.19-2.35-3.22-2.82-5.48-3.58-.34-.11-.66-.21-.97-.29.22-.07.42-.17.63-.25.08-.03.17-.07.25-.1.81-.34,1.59-.72,2.27-1.21.04-.03.07-.06.12-.09.28-.2.54-.41.77-.64.11-.11.22-.21.32-.33.03-.04.07-.07.11-.12.05-.06.1-.12.15-.17,1.49-1.73,2.26-4.07,1.74-6.34-.63-2.74-2.91-4.59-5.52-5.36-3.41-1-7.22-.32-10.72-.23-5.89.15-11.77.3-17.66.45-2.11.06-4.22.11-6.33.17Z"/>
          <g>
            <g>
              <path class="cls-34" d="M97.74,56.3c.93-.02,2.66.35,4.33,1.18,3.47,1.73,5.13,5.04,4.21,8.19-1.01,3.46-4.93,5.84-9.31,6.33-24.72,2.72-70.52,2.2-77.08,1.85-.5-.03-.97-.08-1.4-.17-1.93-.36-3.29-1.23-4.24-2.31-.86-.98-1.39-2.14-1.7-3.24-.31-1.12-.41-2.18-.42-2.94,0-.4.04-.78.12-1.15.09-.4.22-.77.39-1.13,1.04-2.28,3.48-3.85,5.22-4.52.09-.03.22-.06.38-.11,3.79-.75,25.87-.43,34.73-.78.24-.01.51-.02.8-.03,1.57-.05,3.64-.13,6.06-.2.77-.02,1.58-.05,2.42-.07,13.5-.38,34.18-.89,35.49-.92Z"/>
              <path class="cls-20" d="M106.4,64.97c0,.05-.01.09-.03.15-.05.27-.14.53-.22.76-.03.09-.07.18-.09.27-.07.18-.15.36-.23.53-.05.13-.12.24-.18.36-.08.13-.15.25-.23.38-.24.43-.55.82-.88,1.18-.04.04-.08.07-.11.12-.11.12-.22.22-.32.33-.23.23-.49.44-.77.64-15.75,2.98-72.8,2.52-79.76,2.52-3.42,0-6.75-.39-9.36-.81-.86-.98-1.39-2.14-1.7-3.24,15.98.38,55.77,1.19,72.82.36,9.45-.46,16.32-1.98,21.05-3.54Z"/>
              <path class="cls-6" d="M97.72,56.3c.94-.02,2.67.35,4.35,1.18.23.12.46.24.7.38.23.12.45.24.65.39.82.54,1.55,1.19,2.12,1.99-.03,0-.04-.01-.07-.02.14.2.26.4.38.62.13.24.26.51.35.77.04.09.07.17.08.25.08.26.15.53.2.81.01.02.01.04.01.06s.04.35.04.35c0,.19.01.37.01.56,0,.14-.01.28-.03.43-.01.09-.01.2-.03.3-.01.19-.05.37-.09.55,0,.06-.01.13-.03.19-.04.17-.08.34-.14.47-.01.09-.04.19-.08.28-.03.09-.07.18-.09.27-.07.18-.15.36-.23.53-.05.13-.12.24-.18.36-.08.13-.15.25-.23.38-.27.42-.55.82-.88,1.18-.04.04-.08.07-.11.12-.11.12-.23.22-.34.33-.28.26-.58.51-.88.74-.96.67-2.05,1.21-3.25,1.6,1.8-4.26,4.02-13.41-6.53-13.93-13.53-.65-49.71.44-40.5.08.27-.01.54-.02.82-.03,1.57-.05,3.64-.13,6.06-.2.77-.02,1.58-.05,2.42-.07,13.5-.38,34.18-.89,35.48-.92Z"/>
              <path class="cls-37" d="M106.57,63.65c0,.14-.01.28-.03.43-1.71.24-3.78.45-3.83.02-.04-.43,2.11-.48,3.86-.45Z"/>
              <path class="cls-28" d="M106.48,62.73s-.04.21-.04.21c-1.32-.13-2.73-.19-3.35-.37-.05-.01-.09-.02-.14-.04-.04-.02-.08-.03-.11-.05-.05-.03-.08-.07-.08-.12.2-.5,1.42-.61,3.71.37Z"/>
              <path class="cls-37" d="M106.39,65.11c-.04.16-.08.33-.13.47-1.48.45-2.97.83-2.85.5.12-.33,1.58-.7,2.98-.97Z"/>
              <path class="cls-37" d="M105.85,66.67c-.12.26-.26.51-.4.74-.86.36-1.51.57-1.49.33.03-.27.88-.67,1.89-1.06Z"/>
              <path class="cls-37" d="M105.47,60.22c.14.2.26.4.38.62-1.43-.39-2.75-.82-2.39-1.01.26-.15,1.08.07,2.01.39Z"/>
              <path class="cls-28" d="M103.85,60.67c.46.06,2.04.8,2.35.95-.34-.03-2.55-.39-3.1-.63-.03-.01-.05-.02-.08-.04-.04-.01-.05-.02-.04-.04,0-.03.01-.07.03-.09.09-.16.43-.19.85-.14Z"/>
              <path class="cls-37" d="M106.2,61.62c.04.08.07.16.08.24-1.3-.33-2.75-.63-3.19-.89-.03-.01-.05-.02-.08-.04-.04-.01-.05-.02-.04-.04-.04-.03-.03-.06.03-.09.42-.2,1.88.3,3.2.82Z"/>
              <path class="cls-37" d="M106.48,62.73s.05.36.05.36c-1.28-.13-2.78-.31-3.44-.52-.05-.01-.09-.02-.14-.04-.04-.02-.08-.03-.11-.05-.08-.04-.11-.07-.08-.12.38-.32,2.2.03,3.71.37Z"/>
              <path class="cls-4" d="M101.74,57.32c-3.23-.15-7.61-.21-13.37-.03-.54.01-1.1.03-1.67.05-16.65.63-67.27,1.38-68.85,2.01-.09.03-.18.08-.28.11-1.12.48-2.96,1.34-4.7,2.99l-.25.25c-.14.33-.25.69-.31,1.05-.02.05-.03.11-.04.17-.01.04-.03.09-.03.14.63-.39,1.47-.8,2.55-1.14.29-.1.6-.18.93-.26.26-.06.52-.13.8-.18.55-.11,1.14-.19,1.78-.27,6.07-.63,72.01-1.79,76.5-1.9,1.55-.03,3.31-.25,5.12-.34,1.16-.09,2.33-.11,3.48-.02.66.05,1.3.14,1.92.29.05.01.12.02.17.03.04.01.08.02.12.03l-3.88-2.98Z"/>
              <path class="cls-25" d="M104.76,59.58c1.35.73,1.76,2.41,1.77,3.59-2.28.6-5.52.29-7.94.36-3.34.09-6.68.18-10.02.26-7.97.2-15.94.37-23.91.54-14.12.3-28.24.57-42.36.83-2.18.04-4.36.08-6.54.12,0,0-.43-4.68.92-4.94,1.35-.26,55.7-.93,60.75-1.05,4.9-.12,9.8-.2,14.7-.2,2.92,0,5.84.02,8.75.14,1.02.04,2.74-.14,3.63.23.09.04.18.08.26.12Z"/>
              <path class="cls-12" d="M18.24,58.31c-3.77,6.03-1.39,12.31.24,15.38-3.15-.59-4.78-2.53-5.58-4.52-.13-.3-.23-.59-.32-.89-.18-.6-.3-1.19-.36-1.72-.03-.19-.04-.37-.05-.55-.03-.3-.04-.57-.04-.81,0-.37.04-.73.11-1.07.05-.26.12-.52.22-.76.92-2.51,3.56-4.24,5.4-4.96.11-.03.23-.06.39-.11Z"/>
              <g>
                <path class="cls-32" d="M15.32,66.19c-.07.46-2.01.43-3.1.38-.03-.19-.04-.37-.05-.55,1.31-.13,3.23-.25,3.16.17Z"/>
                <path class="cls-32" d="M12.58,68.28c1.13.51,2.92,1.39,2.51,1.71-.34.26-1.36-.28-2.19-.82-.13-.3-.23-.59-.32-.89Z"/>
                <path class="cls-32" d="M14.82,62.74c.19.44-1.58,1.07-2.59,1.39.05-.26.12-.52.22-.76,1.03-.5,2.21-.98,2.38-.63Z"/>
              </g>
            </g>
            <g>
              <path class="cls-33" d="M98.53,39.91c.16,0,.34,0,.54.03.91.08,2.19.4,3.48.99.11.05.23.11.33.16.17.09.33.17.52.28.92.53,1.71,1.17,2.31,1.9.14.16.27.33.39.51.02.02.03.04.05.06.13.18.25.38.34.57.15.24.27.48.37.74.06.14.09.22.11.29.11.28.19.57.24.86.03.09.04.16.05.25.01.04.02.09.02.14.01.03.01.06.01.1.02.15.04.31.04.47.01.1.01.19.01.29v.14c-.01.53-.09,1.05-.25,1.59-.28.95-.77,1.82-1.44,2.58-.06.08-.13.15-.2.23-.02.03-.05.06-.09.1-.02.02-.04.04-.06.06-.37.38-.77.73-1.23,1.04-.95.7-2.06,1.26-3.28,1.65-.96.32-1.98.55-3.02.67-3.59.4-7.62.72-11.91.99-4.59.29-9.46.5-14.4.68-12.42.42-25.31.51-35.09.46h-.64c-7.49-.04-13.07-.16-15.04-.27-.51-.03-.98-.09-1.41-.17-.42-.08-.81-.18-1.17-.3-.14-.05-.27-.1-.39-.14-.04-.02-.09-.03-.12-.05-.14-.05-.28-.12-.41-.18-.52-.25-.97-.54-1.36-.87-.14-.11-.26-.21-.38-.32-.15-.15-.29-.29-.42-.44-.3-.35-.57-.72-.8-1.11-.06-.12-.14-.24-.2-.37-.05-.12-.12-.25-.17-.37-.05-.13-.11-.25-.16-.38-.06-.14-.12-.29-.17-.44-.05-.15-.1-.3-.15-.44-.02-.06-.03-.1-.04-.14-.15-.55-.26-1.1-.32-1.58-.01-.13-.03-.26-.03-.39-.01-.05-.01-.11-.01-.16-.01-.06-.02-.13-.02-.18-.01-.12-.01-.23-.02-.32-.01-.11-.01-.2-.01-.3,0-.18.01-.38.03-.55.01-.09.02-.17.03-.25.01-.1.03-.19.05-.28,0-.02,0-.05.01-.08,0-.05.02-.1.03-.14.03-.15.08-.3.13-.44.01-.04.03-.09.04-.12.05-.15.12-.29.18-.43.08-.16.16-.32.25-.48.7-1.21,1.78-2.21,2.9-2.96.23-.14.45-.28.68-.41.23-.13.44-.25.67-.35.02-.01.05-.03.08-.03.23-.11.44-.2.64-.29.11-.03.23-.06.39-.11,3.73-.73,25.07-.44,34.25-.75.14-.01.29-.01.46-.02.27-.01.54-.02.83-.03,1.57-.05,3.64-.13,6.06-.2.76-.02,1.58-.05,2.42-.08,13.5-.38,34.18-.88,35.47-.91Z"/>
              <path class="cls-18" d="M107.21,48.58c0,.05-.01.09-.03.15-.05.27-.14.53-.22.76-.03.09-.07.18-.09.27-.07.18-.15.36-.23.53-.05.13-.12.24-.18.36-.08.13-.15.25-.23.38-.24.43-.55.82-.88,1.18-.04.04-.08.07-.11.12-.11.12-.22.22-.32.33-.23.23-.49.44-.77.64-15.75,2.98-72.8,2.52-79.76,2.52-3.42,0-6.75-.39-9.36-.81-.86-.98-1.39-2.14-1.7-3.24,15.98.38,55.77,1.19,72.82.36,9.45-.46,16.32-1.98,21.05-3.54Z"/>
              <path class="cls-2" d="M98.53,39.91c.16,0,.34,0,.54.03.91.08,2.19.4,3.48.99.11.05.23.11.33.16.17.09.33.17.52.28.05.02.12.06.18.1.23.12.45.25.64.39.76.51,1.44,1.1,1.98,1.82.08.08.11.13.15.18-.03,0-.04-.01-.08-.02.01.01.02.03.03.04.13.18.24.38.34.58.14.24.26.51.35.76.04.1.06.17.09.26.08.26.15.53.2.81.01.02.01.04.01.06s.02.18.02.18l.02.17c0,.18.01.37.01.56,0,.09,0,.19-.02.29,0,.06-.01.11-.01.14-.01.1-.01.19-.02.29-.01.19-.05.38-.1.55,0,.1-.01.14-.03.19-.01.1-.03.17-.05.25-.02.05-.03.11-.04.15-.01.03-.02.05-.03.08,0,.02-.01.04-.01.06-.01.08-.04.15-.08.21-.02.1-.06.18-.09.28-.08.18-.15.35-.24.53-.05.14-.12.25-.17.35-.09.13-.15.26-.23.39-.26.39-.51.74-.8,1.06-.02.03-.05.06-.09.1-.02.03-.04.05-.06.06-.02.02-.03.04-.04.06-.05.06-.11.12-.17.17-.06.05-.12.11-.17.16-.24.21-.48.43-.73.61-.06.05-.1.09-.14.12-.69.49-1.48.88-2.31,1.22-.04.02-.08.03-.11.05-.28.11-.54.24-.83.33.17-.4.32-.81.47-1.25.4-1.11.75-2.42.92-3.75.13-.95.16-1.91.05-2.84-.16-1.31-.61-2.56-1.5-3.57-.25-.29-.53-.56-.85-.81-1.25-.96-3.06-1.59-5.63-1.72-.67-.03-1.39-.06-2.15-.09-.95-.03-1.9-.05-2.92-.06-15.4-.28-42.5.52-35.89.26.14-.01.29-.01.46-.02.27-.01.54-.02.83-.03,1.57-.05,3.64-.13,6.06-.2.76-.02,1.58-.05,2.42-.08,13.5-.38,34.18-.88,35.47-.91Z"/>
              <path class="cls-37" d="M107.37,47.26c0,.14-.01.28-.03.43-1.71.24-3.78.45-3.83.02-.04-.43,2.11-.48,3.86-.45Z"/>
              <path class="cls-28" d="M107.29,46.34s-.04.21-.04.21c-1.32-.13-2.73-.19-3.35-.37-.05-.01-.09-.02-.14-.04-.04-.02-.08-.03-.11-.05-.05-.03-.08-.07-.08-.12.2-.5,1.42-.61,3.71.37Z"/>
              <path class="cls-37" d="M107.2,48.73c-.04.16-.08.33-.13.47-1.48.45-2.97.83-2.85.5.12-.33,1.58-.7,2.98-.97Z"/>
              <path class="cls-37" d="M106.66,50.28c-.12.26-.26.51-.4.74-.86.36-1.51.57-1.49.33.03-.27.88-.67,1.89-1.06Z"/>
              <path class="cls-37" d="M106.28,43.84c.14.2.26.4.38.62-1.43-.39-2.75-.82-2.39-1.01.26-.15,1.08.07,2.01.39Z"/>
              <path class="cls-28" d="M104.66,44.28c.46.06,2.04.8,2.35.95-.34-.03-2.55-.39-3.1-.63-.03-.01-.05-.02-.08-.04-.04-.01-.05-.02-.04-.04,0-.03.01-.07.03-.09.09-.16.43-.19.85-.14Z"/>
              <path class="cls-37" d="M107.01,45.24c.04.08.07.16.08.24-1.3-.33-2.75-.63-3.19-.89-.03-.01-.05-.02-.08-.04-.04-.01-.05-.02-.04-.04-.04-.03-.03-.06.03-.09.42-.2,1.88.3,3.2.82Z"/>
              <path class="cls-37" d="M107.29,46.34s.05.36.05.36c-1.28-.13-2.78-.31-3.44-.52-.05-.01-.09-.02-.14-.04-.04-.02-.08-.03-.11-.05-.08-.04-.11-.07-.08-.12.38-.32,2.2.03,3.71.37Z"/>
              <path class="cls-1" d="M102.55,40.94c.11.05.23.11.33.16.17.09.33.17.52.28.05.02.12.06.18.1.23.12.45.25.64.39.76.51,1.44,1.1,1.98,1.82.1.09.17.16.24.24-.04-.01-.09-.02-.13-.03l-.16-.03c-.62-.15-1.28-.24-1.93-.29-1.15-.09-2.32-.06-3.48.02-1.81.1-3.57.31-5.12.34-4.49.11-70.43,1.27-76.5,1.9-.64.06-1.24.16-1.78.27-.28.05-.54.11-.8.18-.33.08-.64.16-.93.26-1.07.34-1.91.75-2.55,1.14,0-.05.02-.1.03-.14.01-.06.02-.12.04-.17.06-.37.17-.72.31-1.05l.21-.22c1.77-1.68,3.61-2.54,4.73-3.01.1-.04.19-.09.28-.12.31-.13,2.44-.25,5.8-.38.03-.01.05,0,.08,0,14.1-.54,49.56-1.12,62.97-1.63.57-.02,1.13-.04,1.67-.05,1.68-.05,3.22-.09,4.66-.1,3.55-.04,6.42.02,8.7.13Z"/>
              <path class="cls-19" d="M101.68,42.84c1.02.04,2.74-.13,3.63.24.09.03.17.08.26.12.04.02.1.05.14.09.18.11.34.24.49.4.1.09.17.16.24.24.6.76.85,1.79.89,2.62.01.06.01.12.01.17v.08s-.03.01-.05.01c-1.45.38-3.29.39-5.05.35-1,0-1.98-.03-2.85,0-3.33.1-6.67.18-10.02.26-7.96.2-15.94.38-23.91.54-14.12.3-28.24.57-42.36.84-2.02.03-4.05.06-6.07.11-.16,0-.31.01-.47.01,0,0-.12-1.33-.02-2.62.08-1.12.31-2.2.95-2.32.06-.01.24-.02.53-.04,5.8-.29,55.41-.9,60.22-1.01,4.9-.13,9.8-.2,14.7-.2,2.31,0,4.63.01,6.95.08.59.02,1.19.04,1.79.06Z"/>
              <path class="cls-12" d="M19.04,41.92c-3.77,6.03-1.39,12.31.24,15.38-3.15-.59-4.78-2.53-5.58-4.52-.13-.3-.23-.59-.32-.89-.18-.6-.3-1.19-.36-1.72-.03-.19-.04-.37-.05-.55-.03-.3-.04-.57-.04-.81,0-.37.04-.73.11-1.07.05-.26.12-.52.22-.76.92-2.51,3.56-4.24,5.4-4.96.11-.03.23-.06.39-.11Z"/>
              <g>
                <path class="cls-32" d="M16.13,49.8c-.07.46-2.01.43-3.1.38-.03-.19-.04-.37-.05-.55,1.31-.13,3.23-.25,3.16.17Z"/>
                <path class="cls-32" d="M13.39,51.9c1.13.51,2.92,1.39,2.51,1.71-.34.26-1.36-.28-2.19-.82-.13-.3-.23-.59-.32-.89Z"/>
                <path class="cls-32" d="M15.63,46.35c.19.44-1.58,1.07-2.59,1.39.05-.26.12-.52.22-.76,1.03-.5,2.21-.98,2.38-.63Z"/>
              </g>
            </g>
            <g>
              <path class="cls-38" d="M96.92,24.87c.44-.01,1.05.06,1.74.23.76.19,1.52.44,2.28.8.11.05.23.11.33.16.17.09.33.17.52.28.92.53,1.71,1.17,2.31,1.9.14.16.27.33.39.51.02.02.03.04.05.06.13.18.25.38.34.57.15.24.27.48.37.74.06.14.09.22.11.29.11.28.19.57.24.86.03.09.04.16.05.25.01.04.02.09.02.14.01.03.01.06.01.1.02.15.04.31.04.47.01.1.01.19.01.29v.14c-.01.53-.09,1.05-.25,1.59-.28.95-.77,1.82-1.44,2.58-.06.08-.13.15-.2.23-.02.03-.05.06-.09.1-.02.02-.04.04-.06.06-.37.38-.77.73-1.23,1.04-.95.7-2.06,1.26-3.28,1.65-.03.02-.08.03-.12.04-.92.3-1.9.5-2.9.62-.75.09-1.52.16-2.31.24-.57.05-1.16.12-1.75.16-21.31,1.9-53.99,1.87-67.56,1.62-.02,0-.04-.01-.06,0-2.55-.05-4.42-.11-5.39-.16-.11-.01-.23-.01-.33-.03-.26-.01-.51-.04-.74-.09-.12-.01-.23-.03-.33-.05-.42-.08-.81-.18-1.17-.3-.14-.05-.27-.1-.39-.14-.04-.02-.09-.03-.12-.05-.14-.05-.28-.12-.41-.18-.52-.25-.97-.54-1.36-.87-.14-.11-.26-.21-.38-.32-.15-.15-.29-.29-.42-.44-.3-.35-.57-.72-.8-1.11-.06-.12-.14-.24-.2-.37-.05-.12-.12-.25-.17-.37-.05-.13-.11-.25-.16-.38-.06-.14-.12-.29-.17-.44-.05-.15-.1-.3-.15-.44-.02-.06-.03-.1-.04-.14-.15-.55-.26-1.1-.32-1.58-.01-.13-.03-.26-.03-.39-.01-.05-.01-.11-.01-.16-.01-.06-.02-.13-.02-.18-.01-.12-.01-.23-.02-.32-.01-.11-.01-.2-.01-.3,0-.18.01-.38.03-.55.01-.09.02-.17.03-.25.01-.1.03-.19.05-.28,0-.02,0-.05.01-.08,0-.05.02-.1.03-.14.03-.15.08-.3.13-.44.01-.04.03-.09.04-.12.05-.15.12-.29.18-.43.08-.16.16-.32.25-.48.7-1.21,1.78-2.21,2.9-2.96.23-.14.45-.28.68-.41.23-.13.44-.25.67-.35.24-.12.42-.19.59-.26.04-.03.09-.04.13-.06.11-.03.23-.06.39-.11,3.73-.73,25.07-.44,34.25-.75.14-.01.29-.01.46-.02.27-.01.54-.02.83-.03,1.57-.05,3.64-.13,6.06-.2.28-.01.57-.02.87-.03.53-.01,1.03-.03,1.55-.04,5.37-.15,11.89-.32,17.86-.47.13,0,.25,0,.37-.01,8.88-.23,16.48-.41,17.25-.43Z"/>
              <path class="cls-22" d="M105.6,33.53c0,.05-.01.09-.03.15-.05.27-.14.53-.22.76-.03.09-.07.18-.09.27-.07.18-.15.36-.23.53-.05.13-.12.24-.18.36-.08.13-.15.25-.23.38-.24.43-.55.82-.88,1.18-.04.04-.08.07-.11.12-.11.12-.22.22-.32.33-.23.23-.49.44-.77.64-15.75,2.98-72.8,2.52-79.76,2.52-3.42,0-6.75-.39-9.36-.81-.86-.98-1.39-2.14-1.7-3.24,15.98.38,55.77,1.19,72.82.36,9.45-.46,16.32-1.98,21.05-3.54Z"/>
              <path class="cls-8" d="M96.92,24.87c.44-.01,1.05.06,1.74.23.76.19,1.52.44,2.28.8.11.05.23.11.33.16.17.09.33.17.52.28.05.02.12.06.18.1.23.12.45.25.64.39.76.51,1.44,1.1,1.98,1.82.08.08.11.13.15.18-.03,0-.04-.01-.08-.02.01.01.02.03.03.04.13.18.24.38.34.58.14.24.26.51.35.76.04.1.06.17.09.26.08.26.15.53.2.81.01.02.01.04.01.06s.02.18.02.18l.02.17c0,.18.01.37.01.56,0,.09,0,.19-.02.29,0,.06-.01.11-.01.14-.01.1-.01.19-.02.29-.01.19-.05.38-.1.55,0,.1-.01.14-.03.19-.01.1-.03.17-.05.25-.02.05-.03.11-.04.15-.01.03-.02.05-.03.08,0,.02-.01.04-.01.06-.01.08-.04.15-.08.21-.02.1-.06.18-.09.28-.08.18-.15.35-.24.53-.05.14-.12.25-.17.35-.09.13-.15.26-.23.39-.26.39-.51.74-.8,1.06-.02.03-.05.06-.09.1-.02.03-.04.05-.06.06-.02.02-.03.04-.04.06-.05.06-.11.12-.17.17-.06.05-.12.11-.17.16-.24.21-.48.43-.73.61-.06.05-.1.09-.14.12-.69.49-1.48.88-2.31,1.22-.04.02-.08.03-.11.05-.28.11-.54.24-.83.33.17-.4.32-.81.47-1.25.4-1.11.75-2.42.92-3.75.13-.95.16-1.91.05-2.84-.16-1.31-.61-2.56-1.5-3.57-.25-.29-.53-.56-.85-.81-1.16-.88-2.8-1.49-5.08-1.68-.2-.02-.38-.03-.55-.04-1.46-.08-3.18-.12-5.07-.15-15.4-.28-42.5.52-35.89.26.14-.01.29-.01.46-.02.27-.01.54-.02.83-.03,1.57-.05,3.64-.13,6.06-.2.28-.01.57-.02.87-.03.53-.01,1.03-.03,1.55-.04,5.37-.15,11.89-.32,17.86-.47.13,0,.25,0,.37-.01,8.88-.23,16.48-.41,17.25-.43Z"/>
              <path class="cls-37" d="M105.76,32.22c0,.14-.01.28-.03.43-1.71.24-3.78.45-3.83.02-.04-.43,2.11-.48,3.86-.45Z"/>
              <path class="cls-28" d="M105.68,31.3s-.04.21-.04.21c-1.32-.13-2.73-.19-3.35-.37-.05-.01-.09-.02-.14-.04-.04-.02-.08-.03-.11-.05-.05-.03-.08-.07-.08-.12.2-.5,1.42-.61,3.71.37Z"/>
              <path class="cls-37" d="M105.58,33.68c-.04.16-.08.33-.13.47-1.48.45-2.97.83-2.85.5.12-.33,1.58-.7,2.98-.97Z"/>
              <path class="cls-37" d="M105.04,35.24c-.12.26-.26.51-.4.74-.86.36-1.51.57-1.49.33.03-.27.88-.67,1.89-1.06Z"/>
              <path class="cls-37" d="M104.67,28.79c.14.2.26.4.38.62-1.43-.39-2.75-.82-2.39-1.01.26-.15,1.08.07,2.01.39Z"/>
              <path class="cls-28" d="M103.05,29.23c.46.06,2.04.8,2.35.95-.34-.03-2.55-.39-3.1-.63-.03-.01-.05-.02-.08-.04-.04-.01-.05-.02-.04-.04,0-.03.01-.07.03-.09.09-.16.43-.19.85-.14Z"/>
              <path class="cls-37" d="M105.4,30.19c.04.08.07.16.08.24-1.3-.33-2.75-.63-3.19-.89-.03-.01-.05-.02-.08-.04-.04-.01-.05-.02-.04-.04-.04-.03-.03-.06.03-.09.42-.2,1.88.3,3.2.82Z"/>
              <path class="cls-37" d="M105.68,31.3s.05.36.05.36c-1.28-.13-2.78-.31-3.44-.52-.05-.01-.09-.02-.14-.04-.04-.02-.08-.03-.11-.05-.08-.04-.11-.07-.08-.12.38-.32,2.2.03,3.71.37Z"/>
              <path class="cls-3" d="M95.84,25.76c1.96.01,3.64.06,5.09.13.11.05.23.11.33.16.17.09.33.17.52.28.05.02.12.06.18.1.23.12.45.25.64.39.76.51,1.44,1.1,1.98,1.82.1.09.17.16.24.24-.04-.01-.09-.02-.13-.03l-.16-.03c-.62-.15-1.28-.24-1.93-.29-1.15-.09-2.32-.06-3.48.02-1.81.1-3.57.31-5.12.34-4.49.11-70.43,1.27-76.5,1.9-.64.06-1.24.16-1.78.27-.28.05-.54.11-.8.18-.33.08-.64.16-.93.26-1.07.34-1.91.75-2.55,1.14,0-.05.02-.1.03-.14.01-.06.02-.12.04-.17.06-.37.17-.72.31-1.05l.21-.22c1.77-1.68,3.61-2.54,4.73-3.01.1-.04.19-.09.28-.12.18-.08,1.02-.15,2.39-.23,10.55-.58,51.76-1.23,66.46-1.78.57-.02,1.13-.04,1.67-.05,3.16-.11,5.91-.13,8.27-.1Z"/>
              <path class="cls-21" d="M100.06,27.79c1.02.04,2.74-.13,3.63.24.09.03.17.08.26.12.04.02.1.05.14.09.18.11.34.24.49.4.1.09.17.16.24.24.6.76.85,1.79.89,2.62.01.06.01.12.01.17v.08s-.03.01-.05.01c-1.45.38-3.29.39-5.05.35-1,0-1.98-.03-2.85,0-3.33.1-6.67.18-10.02.26-7.96.2-15.94.38-23.91.54-14.12.3-28.24.57-42.36.84-2.02.03-4.05.06-6.07.11-.16,0-.31.01-.47.01,0,0-.12-1.33-.02-2.62.08-1.12.31-2.2.95-2.32.06-.01.24-.02.53-.04,5.8-.29,55.41-.9,60.22-1.01,4.9-.13,9.8-.2,14.7-.2,2.31,0,4.63.01,6.95.08.59.02,1.19.04,1.79.06Z"/>
              <path class="cls-12" d="M17.43,26.87c-3.77,6.03-1.39,12.31.24,15.38-3.15-.59-4.78-2.53-5.58-4.52-.13-.3-.23-.59-.32-.89-.18-.6-.3-1.19-.36-1.72-.03-.19-.04-.37-.05-.55-.03-.3-.04-.57-.04-.81,0-.37.04-.73.11-1.07.05-.26.12-.52.22-.76.92-2.51,3.56-4.24,5.4-4.96.11-.03.23-.06.39-.11Z"/>
              <g>
                <path class="cls-32" d="M14.52,34.76c-.07.46-2.01.43-3.1.38-.03-.19-.04-.37-.05-.55,1.31-.13,3.23-.25,3.16.17Z"/>
                <path class="cls-32" d="M11.77,36.85c1.13.51,2.92,1.39,2.51,1.71-.34.26-1.36-.28-2.19-.82-.13-.3-.23-.59-.32-.89Z"/>
                <path class="cls-32" d="M14.02,31.31c.19.44-1.58,1.07-2.59,1.39.05-.26.12-.52.22-.76,1.03-.5,2.21-.98,2.38-.63Z"/>
              </g>
            </g>
            <g>
              <path class="cls-36" d="M96.38,10.09c.88-.02,2.45.3,4.02,1.02.11.05.23.11.33.16.17.09.33.17.52.28.92.53,1.71,1.17,2.31,1.9.14.16.27.33.39.51.02.02.03.04.05.06.13.18.25.38.34.57.15.24.27.48.37.74.06.14.09.22.11.29.11.28.19.57.24.86.03.09.04.16.05.25.01.04.02.09.02.14.01.03.01.06.01.1.02.15.04.31.04.47.01.1.01.19.01.29v.14c-.01.53-.09,1.05-.25,1.59-.25.85-.68,1.64-1.26,2.35-.08.1-.15.19-.24.29-.03.04-.08.09-.13.13-.02.04-.06.09-.11.13-.39.4-.82.77-1.29,1.11-.93.69-2.02,1.24-3.21,1.63-.02.02-.04.02-.06.02-.88.31-1.83.52-2.79.63-.08.01-.15.02-.23.03-.81.09-1.62.17-2.47.26-24.17,2.33-64.85,1.97-73.67,1.64-.37-.01-.68-.03-.93-.04-.51-.03-.98-.09-1.41-.17-.02,0-.04-.01-.06-.01-.25-.05-.49-.11-.72-.18-.14-.03-.27-.06-.39-.11-.14-.04-.27-.09-.39-.14-.04-.02-.09-.03-.12-.05-.14-.05-.28-.12-.41-.18-.52-.25-.97-.54-1.36-.87-.14-.11-.26-.21-.38-.32-.15-.15-.28-.29-.42-.44-.3-.34-.57-.72-.8-1.11-.06-.12-.14-.24-.2-.37-.05-.12-.12-.25-.17-.37-.05-.13-.11-.25-.16-.38-.06-.15-.12-.29-.17-.44-.05-.15-.1-.29-.15-.44-.02-.06-.03-.1-.04-.14-.15-.55-.26-1.1-.32-1.58-.01-.13-.03-.26-.03-.39-.01-.05-.01-.11-.01-.16-.01-.06-.02-.13-.02-.18-.01-.12-.01-.23-.02-.32-.01-.11-.01-.2-.01-.3,0-.19.01-.37.03-.55.01-.09.02-.17.03-.25.01-.1.03-.19.05-.28,0-.02,0-.05.01-.08,0-.05.02-.1.03-.14.03-.15.08-.3.13-.44.01-.04.03-.09.04-.12.05-.15.12-.29.18-.43.08-.16.16-.32.25-.48.05-.12.13-.23.2-.33.08-.12.15-.23.24-.33.91-1.25,2.22-2.21,3.43-2.86.13-.08.25-.14.38-.19.25-.13.49-.23.72-.32.11-.03.23-.06.39-.11,3.73-.73,25.07-.44,34.25-.75.14-.01.29-.01.46-.02.27-.01.54-.02.83-.03,1.57-.05,3.64-.13,6.06-.2.76-.02,1.58-.05,2.42-.08,13.5-.38,34.18-.88,35.47-.91Z"/>
              <path class="cls-23" d="M105.06,18.76c0,.05-.01.09-.03.15-.05.27-.14.53-.22.76-.03.09-.07.18-.09.27-.07.18-.15.36-.23.53-.05.13-.12.24-.18.36-.08.13-.15.25-.23.38-.24.43-.55.82-.88,1.18-.04.04-.08.07-.11.12-.11.12-.22.22-.32.33-.23.23-.49.44-.77.64-15.75,2.98-72.8,2.52-79.76,2.52-3.42,0-6.75-.39-9.36-.81-.86-.98-1.39-2.14-1.7-3.24,15.98.38,55.77,1.19,72.82.36,9.45-.46,16.32-1.98,21.05-3.54Z"/>
              <path class="cls-7" d="M96.38,10.09c.88-.02,2.45.3,4.02,1.02.11.05.23.11.33.16.17.09.33.17.52.28.05.02.12.06.18.1.23.12.45.25.64.39.76.51,1.44,1.1,1.98,1.82.08.08.11.13.15.18-.03,0-.04-.01-.08-.02.01.01.02.03.03.04.13.18.24.37.34.58.14.24.26.51.35.76.04.1.06.17.09.26.08.26.15.53.2.81.01.02.01.04.01.06s.02.18.02.18l.02.17c0,.18.01.37.01.56,0,.09,0,.19-.02.29,0,.06-.01.11-.01.14-.01.1-.01.19-.02.29-.01.19-.05.38-.1.55,0,.1-.01.14-.03.19-.01.1-.03.17-.05.25-.02.05-.03.11-.04.15-.01.03-.02.05-.03.08,0,.02-.01.04-.01.06-.01.08-.04.15-.08.21-.02.1-.06.18-.09.28-.08.18-.15.35-.24.53-.05.14-.12.25-.17.35-.09.13-.15.26-.23.39-.25.38-.49.72-.77,1.03-.02.04-.06.09-.11.13-.04.05-.09.09-.11.13-.05.05-.11.12-.17.17-.06.05-.12.11-.17.16-.24.21-.48.43-.73.61-.06.05-.1.09-.14.12-.92.66-1.99,1.18-3.15,1.56-.03.02-.08.03-.11.04.17-.42.33-.82.47-1.25.4-1.11.75-2.42.92-3.75.13-.95.16-1.91.05-2.84-.16-1.31-.61-2.56-1.5-3.57-.25-.29-.53-.56-.85-.81-1.25-.96-3.06-1.59-5.63-1.72-1.46-.08-3.18-.12-5.07-.15-15.4-.28-42.5.52-35.89.26.14-.01.29-.01.46-.02.27-.01.54-.02.83-.03,1.57-.05,3.64-.13,6.06-.2.76-.02,1.58-.05,2.42-.08,13.5-.38,34.18-.88,35.47-.91Z"/>
              <path class="cls-37" d="M105.22,17.44c0,.14-.01.28-.03.43-1.71.24-3.78.45-3.83.02-.04-.43,2.11-.48,3.86-.45Z"/>
              <path class="cls-28" d="M105.14,16.52s-.04.21-.04.21c-1.32-.13-2.73-.19-3.35-.37-.05-.01-.09-.02-.14-.04-.04-.02-.08-.03-.11-.05-.05-.03-.08-.07-.08-.12.2-.5,1.42-.61,3.71.37Z"/>
              <path class="cls-37" d="M105.05,18.91c-.04.16-.08.33-.13.47-1.48.45-2.97.83-2.85.5.12-.33,1.58-.7,2.98-.97Z"/>
              <path class="cls-37" d="M104.51,20.46c-.12.26-.26.51-.4.74-.86.36-1.51.57-1.49.33.03-.27.88-.67,1.89-1.06Z"/>
              <path class="cls-37" d="M104.13,14.02c.14.2.26.4.38.62-1.43-.39-2.75-.82-2.39-1.01.26-.15,1.08.07,2.01.39Z"/>
              <path class="cls-28" d="M102.51,14.46c.46.06,2.04.8,2.35.95-.34-.03-2.55-.39-3.1-.63-.03-.01-.05-.02-.08-.04-.04-.01-.05-.02-.04-.04,0-.03.01-.07.03-.09.09-.16.43-.19.85-.14Z"/>
              <path class="cls-37" d="M104.86,15.42c.04.08.07.16.08.24-1.3-.33-2.75-.63-3.19-.89-.03-.01-.05-.02-.08-.04-.04-.01-.05-.02-.04-.04-.04-.03-.03-.06.03-.09.42-.2,1.88.3,3.2.82Z"/>
              <path class="cls-37" d="M105.14,16.52s.05.36.05.36c-1.28-.13-2.78-.31-3.44-.52-.05-.01-.09-.02-.14-.04-.04-.02-.08-.03-.11-.05-.08-.04-.11-.07-.08-.12.38-.32,2.2.03,3.71.37Z"/>
              <path class="cls-5" d="M100.4,11.12c.11.05.23.11.33.16.17.09.33.17.52.28.05.02.12.06.18.1.23.12.45.25.64.39.76.51,1.44,1.1,1.98,1.82.1.09.16.16.23.24-.04-.01-.08-.02-.12-.03l-.16-.03c-.62-.15-1.28-.24-1.93-.29-1.15-.09-2.32-.06-3.48.02-1.81.1-3.57.31-5.12.34-4.49.11-70.43,1.27-76.5,1.9-.64.08-1.24.16-1.78.27-.28.05-.54.12-.8.18-.33.08-.64.16-.93.26-1.07.34-1.91.75-2.55,1.14,0-.05.02-.1.03-.14.01-.06.02-.12.04-.17.06-.37.17-.72.31-1.05l.21-.22c1.77-1.68,3.61-2.54,4.73-3.02.1-.03.19-.08.28-.11,1.58-.63,52.2-1.38,68.85-2.01.57-.02,1.13-.04,1.67-.05,5.76-.18,10.13-.12,13.37.03Z"/>
              <path class="cls-24" d="M99.53,13.02c1.02.04,2.74-.13,3.63.24.09.03.17.08.26.12.04.02.1.05.14.09.18.11.34.24.49.4.1.09.16.16.23.24.61.76.86,1.78.9,2.62.01.06.01.12.01.17v.08s-.03.01-.05.01c-1.45.38-3.29.39-5.05.35-1,0-1.98-.03-2.85,0-3.33.1-6.67.18-10.02.26-7.96.2-15.94.38-23.91.54-14.12.3-28.24.57-42.36.84-2.02.03-4.05.06-6.07.11-.16,0-.31.01-.47.01,0,0-.12-1.33-.02-2.62.08-1.12.31-2.2.95-2.32.06-.01.24-.03.53-.04,5.8-.29,55.41-.9,60.22-1.01,4.9-.13,9.8-.2,14.7-.2,2.31,0,4.63.01,6.95.08.59.02,1.19.04,1.79.06Z"/>
              <path class="cls-12" d="M16.89,12.1c-3.77,6.03-1.39,12.31.24,15.38-3.15-.59-4.78-2.53-5.58-4.52-.13-.3-.23-.59-.32-.89-.18-.6-.3-1.19-.36-1.72-.03-.19-.04-.37-.05-.55-.03-.3-.04-.57-.04-.81,0-.37.04-.73.11-1.07.05-.26.12-.52.22-.76.92-2.51,3.56-4.24,5.4-4.96.11-.03.23-.06.39-.11Z"/>
              <g>
                <path class="cls-32" d="M13.98,19.98c-.07.46-2.01.43-3.1.38-.03-.19-.04-.37-.05-.55,1.31-.13,3.23-.25,3.16.17Z"/>
                <path class="cls-32" d="M11.24,22.08c1.13.51,2.92,1.39,2.51,1.71-.34.26-1.36-.28-2.19-.82-.13-.3-.23-.59-.32-.89Z"/>
                <path class="cls-32" d="M13.48,16.53c.19.44-1.58,1.07-2.59,1.39.05-.26.12-.52.22-.76,1.03-.5,2.21-.98,2.38-.63Z"/>
              </g>
            </g>
          </g>
          <g>
            <polygon class="cls-17" points="114.9 80.06 65.91 59.82 66.27 37.97 114.9 80.06"/>
            <polygon class="cls-15" points="115.43 79.25 70.41 32.44 77.02 25.79 115.43 79.25"/>
            <polygon class="cls-14" points="4.21 80.33 53.11 52.92 44.51 41.64 2.87 78.58 4.21 80.33"/>
            <path class="cls-13" d="M114.03,3.72c2.04,1.68,3.66,3.83,4.7,6.3-14,8.34-57.82,37.98-57.82,37.98l-7.88-21.13L114.03,3.72Z"/>
            <polygon class="cls-26" points="47.82 51.94 62.87 50.6 61.5 85.97 55.87 85.97 47.82 51.94"/>
            <path class="cls-10" d="M5.03,4.56l40.82,29.11-4.66,30.81L1.53,9.45c.86-1.85,2.05-3.5,3.5-4.89Z"/>
            <polygon class="cls-16" points="6.09 3.49 66.54 25.25 57.8 36.3 6.09 3.49"/>
          </g>
        </g>
      </g>
    </g>
  </g>
</svg>