<?xml version="1.0" encoding="UTF-8"?>
<svg xmlns="http://www.w3.org/2000/svg" xmlns:xlink="http://www.w3.org/1999/xlink" viewBox="0 0 120 130.84">
  <defs>
    <style>
      .cls-1 {
        fill: url(#linear-gradient-15);
      }

      .cls-2 {
        fill: url(#linear-gradient-13);
      }

      .cls-3 {
        fill: url(#linear-gradient-28);
      }

      .cls-4 {
        fill: #431a74;
        mix-blend-mode: multiply;
        opacity: .2;
      }

      .cls-5 {
        fill: url(#linear-gradient-43);
      }

      .cls-5, .cls-6, .cls-7, .cls-8, .cls-9, .cls-10, .cls-11, .cls-12, .cls-13, .cls-14, .cls-15, .cls-16, .cls-17, .cls-18, .cls-19, .cls-20, .cls-21, .cls-22 {
        mix-blend-mode: screen;
      }

      .cls-5, .cls-6, .cls-7, .cls-8, .cls-10, .cls-11, .cls-12, .cls-16, .cls-17, .cls-18 {
        opacity: .4;
      }

      .cls-6 {
        fill: url(#linear-gradient-44);
      }

      .cls-23 {
        fill: url(#linear-gradient-2);
      }

      .cls-24 {
        fill: url(#linear-gradient-25);
      }

      .cls-25 {
        fill: url(#linear-gradient-10);
      }

      .cls-26 {
        fill: url(#linear-gradient-12);
      }

      .cls-27 {
        fill: url(#linear-gradient-27);
      }

      .cls-7 {
        fill: url(#linear-gradient-45);
      }

      .cls-8 {
        fill: url(#linear-gradient-49);
      }

      .cls-9 {
        fill: url(#linear-gradient-41);
      }

      .cls-9, .cls-13, .cls-14, .cls-19, .cls-20 {
        opacity: .85;
      }

      .cls-28, .cls-29, .cls-30, .cls-31, .cls-32 {
        fill: #fff;
      }

      .cls-10 {
        fill: url(#linear-gradient-47);
      }

      .cls-33 {
        fill: url(#linear-gradient-26);
      }

      .cls-34 {
        fill: url(#linear-gradient-4);
      }

      .cls-11 {
        fill: url(#linear-gradient-48);
      }

      .cls-35 {
        fill: url(#linear-gradient-35);
      }

      .cls-36 {
        fill: url(#linear-gradient-30);
      }

      .cls-37 {
        fill: url(#linear-gradient-3);
      }

      .cls-38 {
        fill: url(#linear-gradient-34);
      }

      .cls-39 {
        fill: url(#linear-gradient-5);
      }

      .cls-40 {
        fill: url(#linear-gradient-22);
      }

      .cls-41 {
        fill: url(#linear-gradient-24);
      }

      .cls-12 {
        fill: url(#linear-gradient-51);
      }

      .cls-13 {
        fill: url(#linear-gradient-39);
      }

      .cls-42 {
        isolation: isolate;
      }

      .cls-29 {
        opacity: .3;
      }

      .cls-29, .cls-30, .cls-31 {
        mix-blend-mode: lighten;
      }

      .cls-43 {
        mix-blend-mode: overlay;
        opacity: .25;
      }

      .cls-44 {
        fill: url(#linear-gradient-33);
      }

      .cls-45 {
        fill: url(#linear-gradient-8);
      }

      .cls-14 {
        fill: url(#linear-gradient-40);
      }

      .cls-46 {
        fill: url(#linear-gradient-14);
      }

      .cls-47 {
        fill: url(#linear-gradient-29);
      }

      .cls-48 {
        fill: url(#linear-gradient-20);
      }

      .cls-49 {
        fill: url(#linear-gradient-17);
      }

      .cls-50 {
        fill: url(#linear-gradient-7);
      }

      .cls-30, .cls-21, .cls-22 {
        opacity: .5;
      }

      .cls-31 {
        opacity: .15;
      }

      .cls-51 {
        fill: url(#linear-gradient-9);
      }

      .cls-15 {
        fill: url(#radial-gradient);
        opacity: .35;
      }

      .cls-52 {
        fill: url(#linear-gradient-11);
      }

      .cls-53 {
        fill: url(#linear-gradient-19);
      }

      .cls-54 {
        fill: url(#linear-gradient-6);
      }

      .cls-16 {
        fill: url(#linear-gradient-50);
      }

      .cls-17 {
        fill: url(#linear-gradient-42);
      }

      .cls-55 {
        fill: url(#linear-gradient-36);
      }

      .cls-56 {
        fill: url(#linear-gradient-21);
      }

      .cls-18 {
        fill: url(#linear-gradient-46);
      }

      .cls-19 {
        fill: url(#linear-gradient-38);
      }

      .cls-20 {
        fill: url(#linear-gradient-37);
      }

      .cls-21 {
        fill: url(#linear-gradient-53);
      }

      .cls-57 {
        fill: url(#linear-gradient-32);
      }

      .cls-32 {
        mix-blend-mode: soft-light;
      }

      .cls-58 {
        fill: url(#linear-gradient-16);
      }

      .cls-59 {
        fill: url(#linear-gradient);
      }

      .cls-60 {
        fill: url(#linear-gradient-23);
      }

      .cls-61 {
        fill: url(#linear-gradient-31);
      }

      .cls-22 {
        fill: url(#linear-gradient-52);
      }

      .cls-62 {
        fill: url(#linear-gradient-18);
      }
    </style>
    <linearGradient id="linear-gradient" x1="60.05" y1="130.84" x2="60.05" y2="0" gradientUnits="userSpaceOnUse">
      <stop offset=".56" stop-color="#bcb6e6"/>
      <stop offset=".98" stop-color="#ddcfee"/>
    </linearGradient>
    <linearGradient id="linear-gradient-2" x1="-22.76" y1="438.48" x2="-15.67" y2="438.48" gradientTransform="translate(-20.83 -346.88) rotate(-15.98)" gradientUnits="userSpaceOnUse">
      <stop offset="0" stop-color="#ff7906"/>
      <stop offset=".3" stop-color="#fc6f0c"/>
      <stop offset=".78" stop-color="#f6571d"/>
      <stop offset=".99" stop-color="#f34a27"/>
    </linearGradient>
    <linearGradient id="linear-gradient-3" x1="-28.41" y1="440.91" x2="-18.37" y2="440.91" xlink:href="#linear-gradient-2"/>
    <linearGradient id="linear-gradient-4" x1="-19.12" y1="430.73" x2="9.2" y2="430.73" xlink:href="#linear-gradient-2"/>
    <linearGradient id="linear-gradient-5" x1="-37.65" y1="441.99" x2="-28.65" y2="441.99" xlink:href="#linear-gradient-2"/>
    <linearGradient id="linear-gradient-6" x1="-38.87" y1="454.78" x2="-7.65" y2="454.78" xlink:href="#linear-gradient-2"/>
    <linearGradient id="linear-gradient-7" x1="-20.28" y1="416.45" x2="-13.2" y2="416.45" gradientTransform="translate(-20.83 -346.88) rotate(-15.98)" gradientUnits="userSpaceOnUse">
      <stop offset="0" stop-color="#ffaa07"/>
      <stop offset=".29" stop-color="#fca00d"/>
      <stop offset=".76" stop-color="#f6881d"/>
      <stop offset=".99" stop-color="#f37928"/>
    </linearGradient>
    <linearGradient id="linear-gradient-8" x1="-25.94" y1="418.87" x2="-15.89" y2="418.87" xlink:href="#linear-gradient-7"/>
    <linearGradient id="linear-gradient-9" x1="-16.64" y1="408.69" x2="11.67" y2="408.69" xlink:href="#linear-gradient-7"/>
    <linearGradient id="linear-gradient-10" x1="-35.17" y1="419.95" x2="-26.17" y2="419.95" xlink:href="#linear-gradient-7"/>
    <linearGradient id="linear-gradient-11" x1="-36.39" y1="432.74" x2="-5.17" y2="432.74" xlink:href="#linear-gradient-7"/>
    <linearGradient id="linear-gradient-12" x1="-2643.21" y1="-311.26" x2="-2636.13" y2="-311.26" gradientTransform="translate(-2584.01 -346.88) rotate(-164.02) scale(1 -1)" xlink:href="#linear-gradient-7"/>
    <linearGradient id="linear-gradient-13" x1="-2648.87" y1="-308.83" x2="-2638.83" y2="-308.83" gradientTransform="translate(-2584.01 -346.88) rotate(-164.02) scale(1 -1)" xlink:href="#linear-gradient-7"/>
    <linearGradient id="linear-gradient-14" x1="-2639.57" y1="-319.01" x2="-2611.26" y2="-319.01" gradientTransform="translate(-2584.01 -346.88) rotate(-164.02) scale(1 -1)" xlink:href="#linear-gradient-7"/>
    <linearGradient id="linear-gradient-15" x1="-2658.1" y1="-307.76" x2="-2649.1" y2="-307.76" gradientTransform="translate(-2584.01 -346.88) rotate(-164.02) scale(1 -1)" xlink:href="#linear-gradient-7"/>
    <linearGradient id="linear-gradient-16" x1="-2659.33" y1="-294.96" x2="-2628.11" y2="-294.96" gradientTransform="translate(-2584.01 -346.88) rotate(-164.02) scale(1 -1)" xlink:href="#linear-gradient-7"/>
    <linearGradient id="linear-gradient-17" x1="-2651.43" y1="-329.95" x2="-2644.34" y2="-329.95" gradientTransform="translate(-2584.01 -346.88) rotate(-164.02) scale(1 -1)" xlink:href="#linear-gradient-7"/>
    <linearGradient id="linear-gradient-18" x1="-2657.08" y1="-327.52" x2="-2647.04" y2="-327.52" gradientTransform="translate(-2584.01 -346.88) rotate(-164.02) scale(1 -1)" xlink:href="#linear-gradient-7"/>
    <linearGradient id="linear-gradient-19" x1="-2647.79" y1="-337.71" x2="-2619.47" y2="-337.71" gradientTransform="translate(-2584.01 -346.88) rotate(-164.02) scale(1 -1)" xlink:href="#linear-gradient-7"/>
    <linearGradient id="linear-gradient-20" x1="-2666.32" y1="-326.45" x2="-2657.32" y2="-326.45" gradientTransform="translate(-2584.01 -346.88) rotate(-164.02) scale(1 -1)" xlink:href="#linear-gradient-7"/>
    <linearGradient id="linear-gradient-21" x1="-2667.54" y1="-313.66" x2="-2636.32" y2="-313.66" gradientTransform="translate(-2584.01 -346.88) rotate(-164.02) scale(1 -1)" xlink:href="#linear-gradient-7"/>
    <linearGradient id="linear-gradient-22" x1="-2421.89" y1="-743.07" x2="-2414.81" y2="-743.07" gradientTransform="translate(-2461.27 10.31) rotate(164.02)" xlink:href="#linear-gradient-2"/>
    <linearGradient id="linear-gradient-23" x1="-2427.55" y1="-740.64" x2="-2417.5" y2="-740.64" gradientTransform="translate(-2461.27 10.31) rotate(164.02)" xlink:href="#linear-gradient-2"/>
    <linearGradient id="linear-gradient-24" x1="-2418.25" y1="-750.82" x2="-2389.94" y2="-750.82" gradientTransform="translate(-2461.27 10.31) rotate(164.02)" xlink:href="#linear-gradient-2"/>
    <linearGradient id="linear-gradient-25" x1="-2436.78" y1="-739.56" x2="-2427.78" y2="-739.56" gradientTransform="translate(-2461.27 10.31) rotate(164.02)" xlink:href="#linear-gradient-2"/>
    <linearGradient id="linear-gradient-26" x1="-2438" y1="-726.77" x2="-2406.78" y2="-726.77" gradientTransform="translate(-2461.27 10.31) rotate(164.02)" xlink:href="#linear-gradient-2"/>
    <linearGradient id="linear-gradient-27" x1="-2002.31" y1="-1236.02" x2="-1995.22" y2="-1236.02" gradientTransform="translate(-2263.82 518.68) rotate(136.54)" xlink:href="#linear-gradient-2"/>
    <linearGradient id="linear-gradient-28" x1="-2007.96" y1="-1233.59" x2="-1997.92" y2="-1233.59" gradientTransform="translate(-2263.82 518.68) rotate(136.54)" xlink:href="#linear-gradient-2"/>
    <linearGradient id="linear-gradient-29" x1="-1998.67" y1="-1243.77" x2="-1970.36" y2="-1243.77" gradientTransform="translate(-2263.82 518.68) rotate(136.54)" xlink:href="#linear-gradient-2"/>
    <linearGradient id="linear-gradient-30" x1="-2017.2" y1="-1232.52" x2="-2008.2" y2="-1232.52" gradientTransform="translate(-2263.82 518.68) rotate(136.54)" xlink:href="#linear-gradient-2"/>
    <linearGradient id="linear-gradient-31" x1="-2018.42" y1="-1219.73" x2="-1987.2" y2="-1219.73" gradientTransform="translate(-2263.82 518.68) rotate(136.54)" xlink:href="#linear-gradient-2"/>
    <linearGradient id="linear-gradient-32" x1="-2458.55" y1="312.69" x2="-2451.47" y2="312.69" gradientTransform="translate(-2226.7 -886.71) rotate(-150.88)" xlink:href="#linear-gradient-2"/>
    <linearGradient id="linear-gradient-33" x1="-2464.21" y1="315.12" x2="-2454.17" y2="315.12" gradientTransform="translate(-2226.7 -886.71) rotate(-150.88)" xlink:href="#linear-gradient-2"/>
    <linearGradient id="linear-gradient-34" x1="-2454.92" y1="304.94" x2="-2426.6" y2="304.94" gradientTransform="translate(-2226.7 -886.71) rotate(-150.88)" xlink:href="#linear-gradient-2"/>
    <linearGradient id="linear-gradient-35" x1="-2473.44" y1="316.19" x2="-2464.44" y2="316.19" gradientTransform="translate(-2226.7 -886.71) rotate(-150.88)" xlink:href="#linear-gradient-2"/>
    <linearGradient id="linear-gradient-36" x1="-2474.67" y1="328.99" x2="-2443.45" y2="328.99" gradientTransform="translate(-2226.7 -886.71) rotate(-150.88)" xlink:href="#linear-gradient-2"/>
    <radialGradient id="radial-gradient" cx="60.01" cy="65.42" fx="60.01" fy="65.42" r="62.76" gradientUnits="userSpaceOnUse">
      <stop offset="0" stop-color="#000"/>
      <stop offset=".09" stop-color="#070707"/>
      <stop offset=".22" stop-color="#1b1b1b"/>
      <stop offset=".37" stop-color="#3c3c3c"/>
      <stop offset=".55" stop-color="#6b6b6b"/>
      <stop offset=".75" stop-color="#a6a6a6"/>
      <stop offset=".95" stop-color="#ededed"/>
      <stop offset="1" stop-color="#fff"/>
    </radialGradient>
    <linearGradient id="linear-gradient-37" x1="4.91" y1="110.8" x2="23.25" y2="110.8" gradientUnits="userSpaceOnUse">
      <stop offset="0" stop-color="#000"/>
      <stop offset=".06" stop-color="#1f1f1f"/>
      <stop offset=".16" stop-color="#535353"/>
      <stop offset=".26" stop-color="#818181"/>
      <stop offset=".37" stop-color="#a8a8a8"/>
      <stop offset=".48" stop-color="#c7c7c7"/>
      <stop offset=".59" stop-color="#e0e0e0"/>
      <stop offset=".71" stop-color="#f1f1f1"/>
      <stop offset=".84" stop-color="#fbfbfb"/>
      <stop offset="1" stop-color="#fff"/>
    </linearGradient>
    <linearGradient id="linear-gradient-38" x1="3.67" y1="23.22" x2="16.23" y2="23.22" xlink:href="#linear-gradient-37"/>
    <linearGradient id="linear-gradient-39" x1="91.31" y1="96.6" x2="116.73" y2="96.6" xlink:href="#linear-gradient-37"/>
    <linearGradient id="linear-gradient-40" x1="102.03" y1="114.7" x2="109.67" y2="114.7" xlink:href="#linear-gradient-37"/>
    <linearGradient id="linear-gradient-41" x1="81.57" y1="10.4" x2="87.57" y2="10.4" xlink:href="#linear-gradient-37"/>
    <linearGradient id="linear-gradient-42" x1="62.46" y1="43.28" x2="118.97" y2="43.28" xlink:href="#linear-gradient-37"/>
    <linearGradient id="linear-gradient-43" x1="62.91" y1="52.9" x2="118.97" y2="52.9" xlink:href="#linear-gradient-37"/>
    <linearGradient id="linear-gradient-44" x1="60.86" y1="44.23" x2=".95" y2="44.23" gradientUnits="userSpaceOnUse">
      <stop offset=".21" stop-color="#000"/>
      <stop offset=".25" stop-color="#1f1f1f"/>
      <stop offset=".33" stop-color="#535353"/>
      <stop offset=".42" stop-color="#818181"/>
      <stop offset=".5" stop-color="#a8a8a8"/>
      <stop offset=".59" stop-color="#c7c7c7"/>
      <stop offset=".68" stop-color="#e0e0e0"/>
      <stop offset=".77" stop-color="#f1f1f1"/>
      <stop offset=".88" stop-color="#fbfbfb"/>
      <stop offset="1" stop-color="#fff"/>
    </linearGradient>
    <linearGradient id="linear-gradient-45" x1="56.32" y1="54.33" y2="54.33" xlink:href="#linear-gradient-44"/>
    <linearGradient id="linear-gradient-46" x1="50.83" y1="38.43" x2="1.35" y2="38.43" xlink:href="#linear-gradient-44"/>
    <linearGradient id="linear-gradient-47" x1="57.31" y1="89.81" x2="1.24" y2="89.81" gradientUnits="userSpaceOnUse">
      <stop offset=".34" stop-color="#000"/>
      <stop offset=".37" stop-color="#1f1f1f"/>
      <stop offset=".44" stop-color="#535353"/>
      <stop offset=".51" stop-color="#818181"/>
      <stop offset=".58" stop-color="#a8a8a8"/>
      <stop offset=".65" stop-color="#c7c7c7"/>
      <stop offset=".73" stop-color="#e0e0e0"/>
      <stop offset=".81" stop-color="#f1f1f1"/>
      <stop offset=".9" stop-color="#fbfbfb"/>
      <stop offset="1" stop-color="#fff"/>
    </linearGradient>
    <linearGradient id="linear-gradient-48" x1="85" y1="61.31" x2="85" y2="130.67" gradientUnits="userSpaceOnUse">
      <stop offset=".16" stop-color="#000"/>
      <stop offset=".21" stop-color="#1f1f1f"/>
      <stop offset=".29" stop-color="#535353"/>
      <stop offset=".38" stop-color="#818181"/>
      <stop offset=".47" stop-color="#a8a8a8"/>
      <stop offset=".56" stop-color="#c7c7c7"/>
      <stop offset=".66" stop-color="#e0e0e0"/>
      <stop offset=".76" stop-color="#f1f1f1"/>
      <stop offset=".87" stop-color="#fbfbfb"/>
      <stop offset="1" stop-color="#fff"/>
    </linearGradient>
    <linearGradient id="linear-gradient-49" x1="75.14" y1="80.23" x2="75.14" xlink:href="#linear-gradient-48"/>
    <linearGradient id="linear-gradient-50" x1="68.19" y1="59.9" x2="68.19" y2=".36" xlink:href="#linear-gradient-37"/>
    <linearGradient id="linear-gradient-51" x1="58.71" y1="56.13" x2="58.71" y2=".02" xlink:href="#linear-gradient-37"/>
    <linearGradient id="linear-gradient-52" x1="8.67" y1="91.25" x2="83.59" y2="91.25" gradientUnits="userSpaceOnUse">
      <stop offset=".17" stop-color="#000"/>
      <stop offset=".24" stop-color="#1c1c1c"/>
      <stop offset=".4" stop-color="#606060"/>
      <stop offset=".55" stop-color="#989898"/>
      <stop offset=".7" stop-color="#c5c5c5"/>
      <stop offset=".82" stop-color="#e4e4e4"/>
      <stop offset=".93" stop-color="#f8f8f8"/>
      <stop offset="1" stop-color="#fff"/>
    </linearGradient>
    <linearGradient id="linear-gradient-53" x1="33.91" y1="107.46" x2="73.33" y2="107.46" xlink:href="#linear-gradient-52"/>
  </defs>
  <g class="cls-42">
    <g id="Layer_2" data-name="Layer 2">
      <g id="Layer_1-2" data-name="Layer 1">
        <g>
          <g>
            <g>
              <path class="cls-59" d="M117.66,116.86c-.47,5.03-3.7,9.04-7.86,9.76-32.86,5.68-66.04,5.56-99.52-.03-4.21-.7-7.47-4.76-7.92-9.83-2.99-34.33-2.98-68,.02-101,.44-4.81,3.4-8.73,7.35-9.68.66-.15,1.33-.31,1.99-.46,33.01-7.55,65.88-7.59,98.62.42,3.9.96,6.84,4.87,7.29,9.64,3.13,33.5,3.15,67.23.04,101.17Z"/>
              <path class="cls-32" d="M116.84,14.93c-.45-4.54-3.34-8.25-7.2-9.17-12.22-2.89-24.46-4.67-36.72-5.4C52.14-.86,31.3,1,10.41,5.8c-3.89.89-6.81,4.64-7.24,9.21C1.18,36.1.51,57.48,1.2,79.15c.32,10.6.97,21.28,1.94,32.01.43,4.83,3.65,8.69,7.8,9.35,33.03,5.33,65.76,5.44,98.18.04,4.11-.69,7.3-4.51,7.75-9.3,3.07-32.31,3.05-64.42-.04-96.31ZM109.97,104.02c-.39,4.2-3.2,7.56-6.81,8.17-28.47,4.75-57.23,4.65-86.25-.03-3.64-.59-6.47-3.98-6.86-8.22-.73-8.08-1.25-16.11-1.56-24.1-.82-20.41-.29-40.53,1.58-60.38.38-4.01,2.95-7.3,6.37-8.08,19.43-4.46,38.81-6.03,58.12-4.56,9.71.73,19.4,2.23,29.07,4.52,3.39.8,5.94,4.07,6.32,8.05,2.72,28.03,2.73,56.23.03,84.63Z"/>
              <path class="cls-4" d="M109.67,126.62c-32.86,5.68-66.04,5.56-99.52-.03-4.21-.7-7.47-4.76-7.92-9.83-2.99-34.33-2.98-68,.02-101,.39-4.34,2.85-7.95,6.21-9.3-2.95,1.47-5.07,4.72-5.43,8.54C.08,46.42.08,78.48,3.03,111.16c.44,4.83,3.65,8.69,7.81,9.35,21.33,3.44,42.53,4.71,63.61,3.71,10.06,2.89,21.72,3.9,35.23,2.4Z"/>
              <path class="cls-32" d="M115.35,16.32c-.42-4.35-3.19-7.91-6.9-8.78C87.24,2.52,65.96.96,44.62,2.7c20.79-.63,41.75,1.96,61.8,6.71,3.7.88,6.47,4.43,6.89,8.78,2.42,24.87,4.24,50.55,3.23,75.93,1.71-26.08,1.31-52.02-1.19-77.81Z"/>
              <path class="cls-32" d="M4.92,109.4c.42,4.21,3.19,7.66,6.9,8.5,21.21,4.85,42.48,4.44,63.83,2.75-20.79.61-41.75.02-61.8-4.57-3.7-.85-6.47-4.29-6.89-8.5-2.42-24.07-4.24-48.94-3.23-73.51-1.71,25.25-1.31,50.36,1.19,75.33Z"/>
              <path class="cls-4" d="M109.95,19.39c-.39-3.99-2.93-7.25-6.32-8.05-28.93-6.84-58-6.67-87.19.03-3.42.78-5.99,4.07-6.37,8.09-2.6,27.6-2.61,55.76-.02,84.47.06.7.2,1.38.39,2.03-2.54-28.58-2.52-56.6.05-84.08.37-4.02,2.92-7.3,6.31-8.09,28.94-6.7,57.77-6.88,86.46-.03,3.36.8,5.88,4.07,6.27,8.05,2.68,27.87,2.71,55.93.08,84.17.18-.63.31-1.28.37-1.96,2.7-28.39,2.69-56.6-.03-84.62Z"/>
              <path class="cls-32" d="M99.43,108.64c-26.02,4.34-52.29,4.25-78.79-.03-3.33-.54-5.91-3.63-6.26-7.51-2.37-26.23-2.36-51.95.01-77.16.35-3.67,2.69-6.67,5.82-7.39,26.67-6.12,53.22-6.28,79.65-.03,3.1.73,5.42,3.71,5.77,7.36,2.49,25.6,2.5,51.37.03,77.3-.37,3.84-2.93,6.91-6.23,7.46Z"/>
              <path class="cls-28" d="M109.98,9.83c.71-.39,2.51,1.74,3.38,3.47,2,3.95.79,8.88-.19,8.98-1.55.17-4.67-11.64-3.19-12.45Z"/>
              <path class="cls-28" d="M106.75,9.2c-.23.84-4.34.85-4.82-.51-.2-.55.21-1.3.69-1.63,1.45-.99,4.34,1.36,4.13,2.14Z"/>
              <path class="cls-28" d="M56.69,119.35c.09-.78,6.74-.75,19.31-1.13,13.06-.39,18.88-.88,19.01-.18.17.94-10.28,4.47-22.58,4.02-8.41-.3-15.84-1.88-15.74-2.71Z"/>
            </g>
            <path class="cls-4" d="M103.38,55.66c-.02-.41-.13-.56-.3-.5-.99.34-4.06,7.49-4.06,7.49.66-4.89.72-9.36.12-13.4.45-7.51.62-14.21.56-15.46-.02-.41-.13-.56-.3-.5-.99.34-4.06,7.49-4.06,7.49,1.04-7.69.59-14.37-1.55-19.9,2.6,9.98.59,18.86-4.45,27.02,0,0-.67.64-1.32,1.3-1.18,1.21.04,2.74.04,2.74,0,0-1.47,2.1-3.19,4.64.07-2.76-1.13-7.71-1.49-9.11.33-.31.58-.59.73-.83,2-.98,5.53-6.77,6.41-8.24.83.04,1.45-.07,1.59-.32.26-.46,4.85-14.47-5.34-21.27-11.41-7.61-18.15-.71-18.15-.71,0,0-.31-1.25-2.65-.63-2.89.77-10.66,7.1-17.57,13.16-1.44-1.99-3.2-3.99-3.85-4.72.28-.79.37-1.4.17-1.61-.36-.38-12.36-8.96-21.89-1.27-10.67,8.61-6.11,17.1-6.11,17.1,0,0-1.28-.08-1.39,2.34-.11,2.58,2.63,9.85,5.78,17.2.07,1.82.24,3.71.5,5.66,0,0-3.07-7.15-4.06-7.49-.17-.06-.28.08-.3.5-.15,2.83.91,33.67,3.72,38.53,1.21,2.1,2.32,1.44,2.32,1.44,0,0-.13,9.64,13.31,12.35,12.01,2.42,18.69-10.72,18.84-11.23.08-.28-.28-.79-.89-1.35.15-.57.43-1.74.72-3.1,4.01-.8,7.17-3.28,9.39-5.71.16,2.83,1.15,6.88,1.47,8.13-.61.57-.98,1.07-.89,1.35.14.5,6.83,13.65,18.84,11.23,13.44-2.71,13.31-12.35,13.31-12.35,0,0,1.1.66,2.32-1.44,2.81-4.86,3.87-35.71,3.72-38.53ZM72.59,95.59s-1.67-1.43-3.19-1.75c1.24-1.31,4.79-5.39,3.3-7.7-.19-.3-.39-.5-.6-.64-1.72-1.13-3.8,2.88-3.8,2.88h0c-.01-.15-.28-2.63-1.67-3.59.54-.76.96-1.43,1.26-1.96,3.1,2.49,7.29,4.34,12.47,3.29.61-.12,1.19-.27,1.75-.42.39.55.71,1.08.98,1.56,0,.54.31.88.55,1.06.04.09.08.17.11.25-1.53.89-2.12,2.09-1.78,3.62-2.96-.63-4.61.67-5.22,3.49-1.22-1.27-2.62-1.17-4.16-.08ZM56.9,80.65c-.41-1.87-1.27-3.07-2.67-3.49.65-1.37,1.39-2.73,2.21-4.06,0,0,.67-.64,1.32-1.3,1.18-1.21-.04-2.74-.04-2.74,0,0,.7-1,1.7-2.45.63-.06,1.18-.09,1.61-.1.14,1.27.4,2.66.65,3.9-.04.02-.09.03-.13.06-.21.14-.41.34-.6.64-1.04,1.61.38,4.09,1.75,5.88.36.56.81,1.2,1.33,1.88-1.46.4-2.97,1.69-2.97,1.69-1.54-1.09-2.94-1.18-4.16.08ZM43.86,96.36c-.61-2.83-2.26-4.13-5.22-3.49.33-1.52-.25-2.73-1.78-3.62.04-.08.07-.16.11-.25.24-.18.55-.52.55-1.06.25-.44.54-.92.89-1.42,1.79,2.54,5.09,5.21,11.2,6.44.1.02.19.03.28.05.14.18.28.34.41.5.06.42.13.83.2,1.23-1.29.51-2.49,1.53-2.49,1.53-1.54-1.09-2.94-1.18-4.16.08ZM79.42,59.09c.26,1.17.51,3.16.68,4.79-.1.18-.2.34-.28.49-.4-1.3-1.05-2.7-2.12-3.61-1.78-1.52-6.02-1.42-8.24-1.24-.27-.19-.51-.4-.72-.63-1.05-1.14-1.81-2.31-2.35-3.27,0-.54-.31-.88-.55-1.06-.04-.09-.08-.17-.11-.25,1.53-.89,2.12-2.09,1.78-3.62,2.96.63,4.61-.67,5.22-3.49,1.22,1.27,2.62,1.17,4.16.08,0,0,1.67,1.43,3.19,1.75-1.02,1.08-3.58,4.01-3.66,6.31-2.04-.62-3.99-.89-3.99-.89,0,0,2.23.83,4.18,1.95.05.11.1.22.17.33.19.3.39.5.6.64.29.19.6.23.9.17.6.5,1.04,1.02,1.16,1.54ZM34.09,40.8c0,.36.02.72.03,1.08-.29-.42-.57-.84-.83-1.24.01-.2.02-.39.02-.56.24.25.5.49.78.72ZM69.67,33.05c-.6.5-1.21,1.03-1.75,1.57-.81.02-1.64.11-2.5.28-13.44,2.71-13.31,12.35-13.31,12.35,0,0-1.1-.66-2.31,1.44-1.27,2.2-2.18,9.74-2.79,17.58-2.39-3.59-5.11-7.47-5.11-7.47,0,0,1.22-1.53.04-2.74-.65-.67-1.32-1.3-1.32-1.3-1.6-2.6-2.9-5.28-3.84-8.04,2.85.46,7.67-1.26,7.67-1.26,0,0-4.38.55-6.9-.11,4.44-3.99,9.78-6.52,15.8-7.93,0,0,.92.03,1.85.02,1.69-.02,1.91-1.96,1.91-1.96,0,0,8.02-1.4,12.56-2.42ZM83.97,41.81c-.06.07-.71.88-1.11,1.89-.3-.46-.65-.95-1.05-1.47,1.11-.09,2.17-.42,2.17-.42h0ZM68.08,60.26c1.78,1.52,6.02,1.42,8.24,1.24.27.19.51.4.72.63,1.05,1.14,1.81,2.31,2.35,3.27,0,.54.31.88.55,1.06.04.09.08.17.11.25-1.53.89-2.12,2.09-1.78,3.62-2.96-.63-4.61.67-5.22,3.49-1.22-1.27-2.62-1.17-4.16-.08,0,0-.01,0-.01-.01.3-2.36.26-4.39-.76-4.34-.12,0-.23.04-.34.06.82-1.19,1.54-2.57,1.58-3.77,2.04.62,3.99.89,3.99.89,0,0-2.23-.83-4.18-1.95-.05-.11-.1-.22-.17-.33-.19-.3-.39-.5-.6-.64-.29-.19-.6-.23-.9-.17-.6-.5-1.04-1.02-1.16-1.54-.26-1.17-.51-3.16-.68-4.79.1-.18.2-.34.28-.49.4,1.3,1.05,2.7,2.12,3.61ZM69.74,59.71c1.75.11,4.48.46,6.3,1.6-1.75-.11-4.48-.46-6.3-1.6ZM34.6,47.42s-.03.04-.04.06c-.2-.46-.83-1.89-1.55-3.37.07-.68.13-1.32.18-1.91.33.81.7,1.64,1.1,2.38.08.93.18,1.88.31,2.85ZM64.87,58.46c-.13,1.43-.19,2.97,0,4.13.11.66.61,1.22,1.33,1.71-.9.91-1.59,2.22-1.59,2.22h0c-.02-.16-.3-2.77-1.78-3.67-.2-.12-.42-.19-.67-.24.98-1.46,1.95-2.92,2.71-4.14ZM69.62,34.66c.51-.66,1.06-1.35,1.56-1.97.2-.05.38-.1.55-.15-.37.7-.7,1.48-.9,2.29-.4-.07-.8-.13-1.21-.17ZM44.07,38.19c-1.12.85-2.18,1.71-3.19,2.59-1.41.33-2.89.45-4.07.01-.14-.05-.26-.1-.4-.15,1.92-.17,7.66-2.45,7.66-2.45ZM36.86,42.31c.73.17,1.61.07,2.53-.18-1,.94-1.93,1.89-2.79,2.86-.18-.1-.33-.21-.45-.34-.26-.94-.47-1.9-.64-2.86.43.23.88.42,1.35.53ZM30.43,68.16c.61,1.7,1.27,3.31,1.98,4.84.45,2.9.97,5.14,1.57,6.18.89,1.54,1.72,1.59,2.1,1.51-.03.1-.06.2-.08.3-.18,1.16-.13,2.7,0,4.13-1.6-2.54-4.1-6.2-5.68-8.49.66-1.02.11-8.46.11-8.46ZM37.1,86.92c-.08-.15-.18-.31-.28-.49.08-.74.17-1.54.27-2.32.17.41.37.83.61,1.27-.24.5-.44,1.03-.6,1.53ZM51.21,94.53c-.07.01-.13.03-.2.05,0-.1-.01-.19-.02-.29.08.09.15.17.22.24ZM60.91,64.43c-.02.58.02,1.26.1,1.98-.38-.04-.85-.07-1.39-.1.4-.57.83-1.21,1.28-1.88ZM83.73,85.21c.02.18.04.36.06.54-.1.18-.2.34-.28.49-.09-.28-.19-.57-.3-.86.18-.06.36-.11.53-.17ZM83.18,30.67c-.04,1.76,1.02,2.68,2.88,3,0,0,.16,2.2,1.01,3.5-1.66.04-6.33.35-7.55,2.48-1.91-1.88-4.37-3.64-7.36-4.5.12-1.16.34-2.19.58-3.03.38-.38.41-.84.36-1.13.03-.09.06-.18.09-.26,1.71.46,2.98.02,3.82-1.29,1.64,2.55,3.73,2.79,6.16,1.23ZM42.33,26.82c-.42,1.47-1.39,5.44-.24,7.46-3.16,2.89-5.49,5.14-6.05,5.75-.13.15-.2.26-.23.35-.18-.08-.36-.16-.54-.25-.44-3.64-.25-7.42.67-11.38,1.17.03,2.07-.69,2.75-2.02,0,0,2.15.5,3.64.08ZM34.96,28.59c.3.1.58.15.85.16-.23.66-.43,1.34-.61,2.04.06-.66-.02-1.39-.24-2.2ZM34.95,31.82c-.54,2.39-.82,4.96-.85,7.7-.32-.18-.61-.36-.88-.54-.25-.48-.68-.64-.97-.69-.08-.06-.15-.11-.22-.17.95-1.49.91-2.83-.09-4.03,1.59-.44,2.57-1.21,3.01-2.27ZM80.91,62.56c.13-1.43.19-2.97,0-4.13-.11-.66-.61-1.22-1.33-1.71.9-.91,1.59-2.22,1.59-2.22h0c.01.16.3,2.77,1.78,3.67.2.12.42.19.67.24-.98,1.46-1.95,2.92-2.71,4.14Z"/>
            <g>
              <g>
                <path class="cls-23" d="M84.04,86.34s1.02-5.23.56-8.1-8.5-3.97-8.5-3.97c0,0,6.5,2.41,7,4.63s.93,7.44.93,7.44Z"/>
                <path class="cls-37" d="M84.12,87.41s-.27-4.74-2.73-6.85c-2.47-2.11-9.67-1.09-9.67-1.09,0,0,6.57-.2,9.02,2.46,2.44,2.66,3.39,5.48,3.39,5.48Z"/>
                <g>
                  <path class="cls-34" d="M103.38,53.61c.15,2.83-.91,33.67-3.72,38.53-1.21,2.1-2.32,1.44-2.32,1.44l-13.46-7.16s-.87-.37-.81-1.3c0-.11.11-.34.28-.67,1.49-2.82,8.38-12.68,8.38-12.68,0,0-1.22-1.53-.04-2.74.65-.67,1.32-1.3,1.32-1.3,5.03-8.16,7.05-17.04,4.45-27.02,2.14,5.53,2.59,12.21,1.55,19.9,0,0,3.07-7.15,4.06-7.49.17-.06.28.08.3.5Z"/>
                  <path class="cls-30" d="M93.13,72.54s-8.05,9.41-6.08,10.19c1.97.78,6.08-10.19,6.08-10.19Z"/>
                  <path class="cls-43" d="M103.38,53.61c.15,2.83-.91,33.67-3.72,38.53-1.21,2.1-2.32,1.44-2.32,1.44l-13.46-7.16s-.87-.37-.81-1.3c0-.11.11-.34.28-.67.04.45.26.8.9.71,1.57-.22,5.08-.96,7.69.21s5.21,1.65,6.23.17c2.18-3.17,4.98-26.32,4.9-32.41.17-.06.28.08.3.5Z"/>
                  <path class="cls-31" d="M99.83,61.48c-.96-.17-2.65,4.35-3.5,7.59-1.99,7.53-1.49,15.82-.19,16,1.27.17,3.45-7.31,4.17-13.5.48-4.12.57-9.89-.48-10.08Z"/>
                </g>
                <g>
                  <path class="cls-39" d="M68.98,92.2l-1.51.82-1.28.7s-3.09-11.51-.67-11.39c.38.02.7.13.99.3,1.49.9,1.77,3.52,1.78,3.67h0s2.08-4,3.8-2.87c.21.14.41.34.6.64,1.8,2.78-3.71,8.13-3.71,8.13Z"/>
                  <path class="cls-30" d="M65.75,83.64c-.49.42.09,1.99.45,1.98.35,0,.89-1.51.35-1.96-.21-.18-.6-.2-.8-.02Z"/>
                  <path class="cls-30" d="M69.91,85.08c-.46-.05-.92.86-1.08,1.54-.06.26-.22.91,0,1.02.36.19,1.85-1.14,1.57-2.06-.07-.22-.25-.47-.48-.5Z"/>
                  <path class="cls-43" d="M68.98,92.2l-1.51.82c.2-1.86.62-9.03-.97-10.39,1.49.9,1.77,3.52,1.78,3.67h0s-.06,4.79-.06,4.79c0,0,5.92-3.89,3.86-7.66.21.14.41.34.6.64,1.8,2.78-3.71,8.13-3.71,8.13Z"/>
                  <path class="cls-31" d="M65.3,83.53c-.58,1.46-.13,2.8.25,4.46.63,2.69.58,3.96.71,3.95.33-.03.13-8.91-.61-8.96-.13,0-.25.28-.36.54Z"/>
                  <path class="cls-31" d="M70.61,84.36c-.16-.07-.86,1.18-1.26,2.15-.7,1.72-.85,3.61-.65,3.66.36.09,2.24-5.67,1.91-5.81Z"/>
                </g>
                <g>
                  <path class="cls-54" d="M97.35,93.57s.13,9.64-13.31,12.35c-12.01,2.42-18.69-10.72-18.84-11.23-.13-.45.87-1.47,2.24-2.4.17-.11.34-.23.52-.34,1.62-1.01,4.63,1.58,4.63,1.58,1.54-1.09,2.94-1.18,4.16.08.61-2.83,2.26-4.13,5.22-3.49-.36-1.62.32-2.89,2.07-3.79.65-.34,1.35-.55,2.07-.65.71-.1,1.43-.09,2.14.02,4.04.61,7.12,3.12,9.1,7.86Z"/>
                  <path class="cls-43" d="M97.35,93.57s.13,9.64-13.31,12.35c-12.01,2.42-18.69-10.72-18.84-11.23-.13-.45.87-1.47,2.24-2.4-.5.69-1.05,1.65-.95,2.48.19,1.48,3.39,5.4,3.39,5.4,0,0-.15-1.83.64-3.52.79-1.69,2.07-3.11,2.07-3.11-1.57,3.03-2.54,5.83-1.39,7.8,2.08,1.94,4.32,2.92,6.74,2.96-1.23-2.53-1.48-6.28-1.2-10.68.52,4.19,1.25,8.14,3.16,11.04,2.91.77,5.83.16,8.77-1.59-4.52-1.89-6.14-6.86-6.71-12.94,2.02,5.82,4.83,10.03,8.21,11.83-.11.41,9.45-5.56,3.39-12.91-2.19-2.65-4.74-3.19-7.46-3.36.71-.1,1.43-.09,2.14.02,4.04.61,7.12,3.12,9.1,7.86Z"/>
                  <path class="cls-29" d="M80.44,90.69c-.66-.01-1.56.88-1.88,1.58-1.65,3.65-.31,9.7,2.94,10.72,1.03.32,2.48.21,3.04-.6.6-.86-.19-1.94-1.67-5.55-1.63-3.98-1.5-6.14-2.43-6.16Z"/>
                  <path class="cls-29" d="M76.09,96.88s0,0,0,0c-.05.38-.09.81-.1,1.31,0,.13,0,.26,0,.38,0,0,0,0,0,0,.01,2.2.59,3.35.04,3.7-.22.13-.84-.13-2.07-.66-1.6-.68-2.4-1.03-2.52-1.19-.26-.34-.38-.76-.4-1.2-.02-.41.05-.85.17-1.28,0,0,0,0,0-.01.29-1.07.86-2.12,1.16-2.65.61-1.11,1.06-1.39,1.43-1.52.75-.26,1.75-.07,2.26.53.5.6.22,1.24.04,2.59Z"/>
                  <path class="cls-29" d="M76.09,96.88s0,0,0,0c-.05.38-.09.81-.1,1.31,0,.13,0,.26,0,.38,0,0,0,0,0,0,0,0-.93.34-2.06-.54-1.14-.88-1.49-1.5-1.49-1.5-.58.88-1.06,1.78-1.4,2.7-.02-.41.05-.85.17-1.28,0,0,0,0,0-.01.56-1.72,1.63-3.79,3.16-3.5,1.28.24,1.66,1.41,1.72,2.45Z"/>
                  <path class="cls-29" d="M67.05,93.76c-.09-.15.74-1.19,1.94-1.36,1.06-.15,2.5.38,2.67,1.36.12.7-.4,1.55-.85,1.55-.62,0-.63-1.6-1.71-1.98-.96-.34-1.96.58-2.06.42Z"/>
                  <path class="cls-29" d="M82.63,88.73c-.47,1.18.1,2.39,1.14,4.31,2.01,3.72,3.02,5.59,3.72,5.69,2.31.34,6.54-4.2,5.18-8.12-1.23-3.53-6.35-4.71-8.72-3.33-.19.11-.97.57-1.32,1.45Z"/>
                  <path class="cls-30" d="M79.8,91.15c-.46,0-.78.89-1.04,1.61-.44,1.2-.93,3.42-.27,3.74.59.29,2.18-.91,2.47-2.44.26-1.37-.55-2.92-1.16-2.91Z"/>
                  <path class="cls-30" d="M83.21,88.49c-.27.48-.26.97-.26,1.39.01.97.38,2.45,1.03,2.58,1.18.23,3.63-3.94,2.74-4.97-.58-.67-2.79-.26-3.51,1Z"/>
                </g>
              </g>
              <g>
                <path class="cls-50" d="M80.35,64.47s1.02-5.23.56-8.1c-.46-2.87-8.5-3.97-8.5-3.97,0,0,6.5,2.41,7,4.63.5,2.22.93,7.44.93,7.44Z"/>
                <path class="cls-45" d="M80.43,65.55s-.27-4.74-2.73-6.85c-2.47-2.11-9.67-1.09-9.67-1.09,0,0,6.57-.2,9.02,2.46s3.39,5.48,3.39,5.48Z"/>
                <g>
                  <path class="cls-51" d="M99.7,31.74c.15,2.83-.91,33.67-3.72,38.53-1.21,2.1-2.32,1.44-2.32,1.44l-13.46-7.16s-.87-.37-.81-1.3c0-.11.11-.34.28-.67,1.49-2.82,8.38-12.68,8.38-12.68,0,0-1.22-1.53-.04-2.74.65-.67,1.32-1.3,1.32-1.3,5.03-8.16,7.05-17.04,4.45-27.02,2.14,5.53,2.59,12.21,1.55,19.9,0,0,3.07-7.15,4.06-7.49.17-.06.28.08.3.5Z"/>
                  <path class="cls-30" d="M89.45,50.68s-8.05,9.41-6.08,10.19c1.97.78,6.08-10.19,6.08-10.19Z"/>
                  <path class="cls-43" d="M99.7,31.74c.15,2.83-.91,33.67-3.72,38.53-1.21,2.1-2.32,1.44-2.32,1.44l-13.46-7.16s-.87-.37-.81-1.3c0-.11.11-.34.28-.67.04.45.26.8.9.71,1.57-.22,5.08-.96,7.69.21,2.6,1.16,5.21,1.65,6.23.17,2.18-3.17,4.98-26.32,4.9-32.41.17-.06.28.08.3.5Z"/>
                  <path class="cls-31" d="M96.14,39.61c-.96-.17-2.65,4.35-3.5,7.59-1.99,7.53-1.49,15.82-.19,16,1.27.17,3.45-7.31,4.17-13.5.48-4.12.57-9.89-.48-10.08Z"/>
                </g>
                <g>
                  <path class="cls-25" d="M65.29,70.34l-1.51.82-1.28.7s-3.09-11.51-.67-11.39c.38.02.7.13.99.3,1.49.9,1.77,3.52,1.78,3.67h0s2.08-4,3.8-2.87c.21.14.41.34.6.64,1.8,2.78-3.71,8.13-3.71,8.13Z"/>
                  <path class="cls-30" d="M62.07,61.77c-.49.42.09,1.99.45,1.98.35,0,.89-1.51.35-1.96-.21-.18-.6-.2-.8-.02Z"/>
                  <path class="cls-30" d="M66.23,63.22c-.46-.05-.92.86-1.08,1.54-.06.26-.22.91,0,1.02.36.19,1.85-1.14,1.57-2.06-.07-.22-.25-.47-.48-.5Z"/>
                  <path class="cls-43" d="M65.29,70.34l-1.51.82c.2-1.86.62-9.03-.97-10.39,1.49.9,1.77,3.52,1.78,3.67h0s-.06,4.79-.06,4.79c0,0,5.92-3.89,3.86-7.66.21.14.41.34.6.64,1.8,2.78-3.71,8.13-3.71,8.13Z"/>
                  <path class="cls-31" d="M61.61,61.67c-.58,1.46-.13,2.8.25,4.46.63,2.69.58,3.96.71,3.95.33-.03.13-8.91-.61-8.96-.13,0-.25.28-.36.54Z"/>
                  <path class="cls-31" d="M66.92,62.5c-.16-.07-.86,1.18-1.26,2.15-.7,1.72-.85,3.61-.65,3.66.36.09,2.24-5.67,1.91-5.81Z"/>
                </g>
                <g>
                  <path class="cls-52" d="M93.66,71.71s.13,9.64-13.31,12.35c-12.01,2.42-18.69-10.72-18.84-11.23-.13-.45.87-1.47,2.24-2.4.17-.11.34-.23.52-.34,1.62-1.01,4.63,1.58,4.63,1.58,1.54-1.09,2.94-1.18,4.16.08.61-2.83,2.26-4.13,5.22-3.49-.36-1.62.32-2.89,2.07-3.79.65-.34,1.35-.55,2.07-.65.71-.1,1.43-.09,2.14.02,4.04.61,7.12,3.12,9.1,7.86Z"/>
                  <path class="cls-43" d="M93.66,71.71s.13,9.64-13.31,12.35c-12.01,2.42-18.69-10.72-18.84-11.23-.13-.45.87-1.47,2.24-2.4-.5.69-1.05,1.65-.95,2.48.19,1.48,3.39,5.4,3.39,5.4,0,0-.15-1.83.64-3.52.79-1.69,2.07-3.11,2.07-3.11-1.57,3.03-2.54,5.83-1.39,7.8,2.08,1.94,4.32,2.92,6.74,2.96-1.23-2.53-1.48-6.28-1.2-10.68.52,4.19,1.25,8.14,3.16,11.04,2.91.77,5.83.16,8.77-1.59-4.52-1.89-6.14-6.86-6.71-12.94,2.02,5.82,4.83,10.03,8.21,11.83-.11.41,9.45-5.56,3.39-12.91-2.19-2.65-4.74-3.19-7.46-3.36.71-.1,1.43-.09,2.14.02,4.04.61,7.12,3.12,9.1,7.86Z"/>
                  <path class="cls-29" d="M76.76,68.83c-.66-.01-1.56.88-1.88,1.58-1.65,3.65-.31,9.7,2.94,10.72,1.03.32,2.48.21,3.04-.6.6-.86-.19-1.94-1.67-5.55-1.63-3.98-1.5-6.14-2.43-6.16Z"/>
                  <path class="cls-29" d="M72.4,75.02s0,0,0,0c-.05.38-.09.81-.1,1.31,0,.13,0,.26,0,.38,0,0,0,0,0,0,.01,2.2.59,3.35.04,3.7-.22.13-.84-.13-2.07-.66-1.6-.68-2.4-1.03-2.52-1.19-.26-.34-.38-.76-.4-1.2-.02-.41.05-.85.17-1.28,0,0,0,0,0-.01.29-1.07.86-2.12,1.16-2.65.61-1.11,1.06-1.39,1.43-1.52.75-.26,1.75-.07,2.26.53.5.6.22,1.24.04,2.59Z"/>
                  <path class="cls-29" d="M72.4,75.02s0,0,0,0c-.05.38-.09.81-.1,1.31,0,.13,0,.26,0,.38,0,0,0,0,0,0,0,0-.93.34-2.06-.54-1.14-.88-1.49-1.5-1.49-1.5-.58.88-1.06,1.78-1.4,2.7-.02-.41.05-.85.17-1.28,0,0,0,0,0-.01.56-1.72,1.63-3.79,3.16-3.5,1.28.24,1.66,1.41,1.72,2.45Z"/>
                  <path class="cls-29" d="M63.37,71.89c-.09-.15.74-1.19,1.94-1.36,1.06-.15,2.5.38,2.67,1.36.12.7-.4,1.55-.85,1.55-.62,0-.63-1.6-1.71-1.98-.96-.34-1.96.58-2.06.42Z"/>
                  <path class="cls-29" d="M78.94,66.87c-.47,1.18.1,2.39,1.14,4.31,2.01,3.72,3.02,5.59,3.72,5.69,2.31.34,6.54-4.2,5.18-8.12-1.23-3.53-6.35-4.71-8.72-3.33-.19.11-.97.57-1.32,1.45Z"/>
                  <path class="cls-30" d="M76.11,69.29c-.46,0-.78.89-1.04,1.61-.44,1.2-.93,3.42-.27,3.74.59.29,2.18-.91,2.47-2.44.26-1.37-.55-2.92-1.16-2.91Z"/>
                  <path class="cls-30" d="M79.52,66.63c-.27.48-.26.97-.26,1.39.01.96.38,2.45,1.03,2.58,1.18.23,3.63-3.94,2.74-4.97-.58-.67-2.79-.26-3.51,1Z"/>
                </g>
              </g>
              <g>
                <path class="cls-26" d="M36.56,87.02s-1.02-5.23-.56-8.1c.46-2.87,8.5-3.97,8.5-3.97,0,0-6.5,2.41-7,4.63-.5,2.22-.93,7.44-.93,7.44Z"/>
                <path class="cls-2" d="M36.48,88.1s.27-4.74,2.73-6.85c2.47-2.11,9.67-1.09,9.67-1.09,0,0-6.57-.2-9.02,2.46s-3.39,5.48-3.39,5.48Z"/>
                <g>
                  <path class="cls-46" d="M17.22,54.29c-.15,2.83.91,33.67,3.72,38.53,1.21,2.1,2.32,1.44,2.32,1.44l13.46-7.16s.87-.37.81-1.3c0-.11-.11-.34-.28-.67-1.49-2.82-8.38-12.68-8.38-12.68,0,0,1.22-1.53.04-2.74-.65-.67-1.32-1.3-1.32-1.3-5.03-8.16-7.05-17.04-4.45-27.02-2.14,5.53-2.59,12.21-1.55,19.9,0,0-3.07-7.15-4.06-7.49-.17-.06-.28.08-.3.5Z"/>
                  <path class="cls-30" d="M27.47,73.23s8.05,9.41,6.08,10.19-6.08-10.19-6.08-10.19Z"/>
                  <path class="cls-43" d="M17.22,54.29c-.15,2.83.91,33.67,3.72,38.53,1.21,2.1,2.32,1.44,2.32,1.44l13.46-7.16s.87-.37.81-1.3c0-.11-.11-.34-.28-.67-.04.45-.26.8-.9.71-1.57-.22-5.08-.96-7.69.21-2.6,1.16-5.21,1.65-6.23.17-2.18-3.17-4.98-26.32-4.9-32.41-.17-.06-.28.08-.3.5Z"/>
                  <path class="cls-31" d="M20.77,62.16c.96-.17,2.65,4.35,3.5,7.59,1.99,7.53,1.49,15.82.19,16-1.27.17-3.45-7.31-4.17-13.5-.48-4.12-.57-9.89.48-10.08Z"/>
                </g>
                <g>
                  <path class="cls-1" d="M51.62,92.89l1.51.82,1.28.7s3.09-11.51.67-11.39c-.38.02-.7.13-.99.3-1.49.9-1.77,3.52-1.78,3.67h0s-2.08-4-3.8-2.87c-.21.14-.41.34-.6.64-1.8,2.78,3.71,8.13,3.71,8.13Z"/>
                  <path class="cls-30" d="M54.85,84.32c.49.42-.09,1.99-.45,1.98-.35,0-.89-1.51-.35-1.96.21-.18.6-.2.8-.02Z"/>
                  <path class="cls-30" d="M50.69,85.77c.46-.05.92.86,1.08,1.54.06.26.22.91,0,1.02-.36.19-1.85-1.14-1.57-2.06.07-.22.25-.47.48-.5Z"/>
                  <path class="cls-43" d="M51.62,92.89l1.51.82c-.2-1.86-.62-9.03.97-10.39-1.49.9-1.77,3.52-1.78,3.67h0s.06,4.79.06,4.79c0,0-5.92-3.89-3.86-7.66-.21.14-.41.34-.6.64-1.8,2.78,3.71,8.13,3.71,8.13Z"/>
                  <path class="cls-31" d="M55.3,84.21c.58,1.46.13,2.8-.25,4.46-.63,2.69-.58,3.96-.71,3.95-.33-.03-.13-8.91.61-8.96.13,0,.25.28.35.54Z"/>
                  <path class="cls-31" d="M49.99,85.04c.16-.07.86,1.18,1.26,2.15.7,1.72.85,3.61.65,3.66-.36.09-2.24-5.67-1.91-5.81Z"/>
                </g>
                <g>
                  <path class="cls-58" d="M23.25,94.26s-.13,9.64,13.31,12.35c12.01,2.42,18.69-10.72,18.84-11.23.13-.45-.87-1.47-2.24-2.4-.17-.11-.34-.23-.52-.34-1.62-1.01-4.63,1.58-4.63,1.58-1.54-1.09-2.94-1.18-4.16.08-.61-2.83-2.26-4.13-5.22-3.49.36-1.62-.32-2.89-2.07-3.79-.65-.34-1.35-.55-2.07-.65-.71-.1-1.43-.09-2.14.02-4.04.61-7.12,3.12-9.1,7.86Z"/>
                  <path class="cls-43" d="M23.25,94.26s-.13,9.64,13.31,12.35c12.01,2.42,18.69-10.72,18.84-11.23.13-.45-.87-1.47-2.24-2.4.5.69,1.05,1.65.95,2.48-.19,1.48-3.39,5.4-3.39,5.4,0,0,.15-1.83-.64-3.52-.79-1.69-2.07-3.11-2.07-3.11,1.57,3.03,2.54,5.83,1.39,7.8-2.08,1.94-4.32,2.92-6.74,2.96,1.23-2.53,1.48-6.28,1.2-10.68-.52,4.19-1.25,8.14-3.16,11.04-2.91.77-5.83.16-8.77-1.59,4.52-1.89,6.14-6.86,6.71-12.94-2.02,5.82-4.83,10.03-8.21,11.83.11.41-9.45-5.56-3.39-12.91,2.19-2.65,4.74-3.19,7.46-3.36-.71-.1-1.43-.09-2.14.02-4.04.61-7.12,3.12-9.1,7.86Z"/>
                  <path class="cls-29" d="M40.16,91.38c.66-.01,1.56.88,1.88,1.58,1.65,3.65.31,9.7-2.94,10.72-1.03.32-2.48.21-3.04-.6-.6-.86.19-1.94,1.67-5.55,1.63-3.98,1.5-6.14,2.43-6.16Z"/>
                  <path class="cls-29" d="M44.51,97.57s0,0,0,0c.05.38.09.81.1,1.31,0,.13,0,.26,0,.38,0,0,0,0,0,0-.01,2.2-.59,3.35-.04,3.7.22.13.84-.13,2.07-.66,1.6-.68,2.4-1.03,2.52-1.19.26-.34.38-.76.4-1.2.02-.41-.05-.85-.17-1.28,0,0,0,0,0-.01-.29-1.07-.86-2.12-1.16-2.65-.61-1.11-1.06-1.39-1.43-1.52-.75-.26-1.75-.07-2.26.53-.5.6-.22,1.24-.04,2.59Z"/>
                  <path class="cls-29" d="M44.51,97.57s0,0,0,0c.05.38.09.81.1,1.31,0,.13,0,.26,0,.38,0,0,0,0,0,0,0,0,.93.34,2.06-.54,1.14-.88,1.49-1.5,1.49-1.5.58.88,1.06,1.78,1.4,2.7.02-.41-.05-.85-.17-1.28,0,0,0,0,0-.01-.56-1.72-1.63-3.79-3.16-3.5-1.28.24-1.66,1.41-1.72,2.45Z"/>
                  <path class="cls-29" d="M53.55,94.44c.09-.15-.74-1.19-1.94-1.36-1.06-.15-2.5.38-2.67,1.36-.12.7.4,1.55.85,1.55.62,0,.63-1.6,1.71-1.98.96-.34,1.96.58,2.06.42Z"/>
                  <path class="cls-29" d="M37.97,89.42c.47,1.18-.1,2.39-1.14,4.31-2.01,3.72-3.02,5.59-3.72,5.69-2.31.34-6.54-4.2-5.17-8.12,1.23-3.53,6.35-4.71,8.72-3.33.19.11.97.57,1.32,1.45Z"/>
                  <path class="cls-30" d="M40.8,91.84c.46,0,.78.89,1.04,1.61.44,1.2.93,3.42.27,3.74-.59.29-2.18-.91-2.47-2.44-.26-1.37.55-2.92,1.16-2.91Z"/>
                  <path class="cls-30" d="M37.39,89.18c.27.48.26.97.26,1.39-.01.97-.38,2.45-1.03,2.58-1.18.23-3.63-3.94-2.74-4.97.58-.67,2.79-.26,3.51,1Z"/>
                </g>
              </g>
              <g>
                <path class="cls-49" d="M49.61,71.31s-1.02-5.23-.56-8.1c.46-2.87,8.5-3.97,8.5-3.97,0,0-6.5,2.41-7,4.63-.5,2.22-.93,7.44-.93,7.44Z"/>
                <path class="cls-62" d="M49.53,72.39s.27-4.74,2.73-6.85c2.47-2.11,9.67-1.09,9.67-1.09,0,0-6.57-.2-9.02,2.46s-3.39,5.48-3.39,5.48Z"/>
                <g>
                  <path class="cls-53" d="M30.26,38.58c-.15,2.83.91,33.67,3.72,38.53,1.21,2.1,2.32,1.44,2.32,1.44l13.46-7.16s.87-.37.81-1.3c0-.11-.11-.34-.28-.67-1.49-2.82-8.38-12.68-8.38-12.68,0,0,1.22-1.53.04-2.74-.65-.67-1.32-1.3-1.32-1.3-5.03-8.16-7.05-17.04-4.45-27.02-2.14,5.53-2.59,12.21-1.55,19.9,0,0-3.07-7.15-4.06-7.49-.17-.06-.28.08-.3.5Z"/>
                  <path class="cls-30" d="M40.51,57.52s8.05,9.41,6.08,10.19c-1.97.78-6.08-10.19-6.08-10.19Z"/>
                  <path class="cls-43" d="M30.26,38.58c-.15,2.83.91,33.67,3.72,38.53,1.21,2.1,2.32,1.44,2.32,1.44l13.46-7.16s.87-.37.81-1.3c0-.11-.11-.34-.28-.67-.04.45-.26.8-.9.71-1.57-.22-5.08-.96-7.69.21-2.6,1.16-5.21,1.65-6.23.17-2.18-3.17-4.98-26.32-4.9-32.41-.17-.06-.28.08-.3.5Z"/>
                  <path class="cls-31" d="M33.81,46.46c.96-.17,2.65,4.35,3.5,7.59,1.99,7.53,1.49,15.82.19,16-1.27.17-3.45-7.31-4.17-13.5-.48-4.12-.57-9.89.48-10.08Z"/>
                </g>
                <g>
                  <path class="cls-48" d="M64.66,77.18l1.51.82,1.28.7s3.09-11.51.67-11.39c-.38.02-.7.13-.99.3-1.49.9-1.77,3.52-1.78,3.67h0s-2.08-4-3.8-2.87c-.21.14-.41.34-.6.64-1.8,2.78,3.71,8.13,3.71,8.13Z"/>
                  <path class="cls-30" d="M67.89,68.61c.49.42-.09,1.99-.45,1.98-.35,0-.89-1.51-.35-1.96.21-.18.6-.2.8-.02Z"/>
                  <path class="cls-30" d="M63.73,70.06c.46-.05.92.86,1.08,1.54.06.26.22.91,0,1.02-.36.19-1.85-1.14-1.57-2.06.07-.22.25-.47.48-.5Z"/>
                  <path class="cls-43" d="M64.66,77.18l1.51.82c-.2-1.86-.62-9.03.97-10.39-1.49.9-1.77,3.52-1.78,3.67h0s.06,4.79.06,4.79c0,0-5.92-3.89-3.86-7.66-.21.14-.41.34-.6.64-1.8,2.78,3.71,8.13,3.71,8.13Z"/>
                  <path class="cls-31" d="M68.35,68.51c.58,1.46.13,2.8-.25,4.46-.63,2.69-.58,3.96-.71,3.95-.33-.03-.13-8.91.61-8.96.13,0,.25.28.36.54Z"/>
                  <path class="cls-31" d="M63.04,69.34c.16-.07.86,1.18,1.26,2.15.7,1.72.85,3.61.65,3.66-.36.09-2.24-5.67-1.91-5.81Z"/>
                </g>
                <g>
                  <path class="cls-56" d="M36.29,78.55s-.13,9.64,13.31,12.35c12.01,2.42,18.69-10.72,18.84-11.23.13-.45-.87-1.47-2.24-2.4-.17-.11-.34-.23-.52-.34-1.62-1.01-4.63,1.58-4.63,1.58-1.54-1.09-2.94-1.18-4.16.08-.61-2.83-2.26-4.13-5.22-3.49.36-1.62-.32-2.89-2.07-3.79-.65-.34-1.35-.55-2.07-.65-.71-.1-1.43-.09-2.14.02-4.04.61-7.12,3.12-9.1,7.86Z"/>
                  <path class="cls-43" d="M36.29,78.55s-.13,9.64,13.31,12.35c12.01,2.42,18.69-10.72,18.84-11.23.13-.45-.87-1.47-2.24-2.4.5.69,1.05,1.65.95,2.48-.19,1.48-3.39,5.4-3.39,5.4,0,0,.15-1.83-.64-3.52-.79-1.69-2.07-3.11-2.07-3.11,1.57,3.03,2.54,5.83,1.39,7.8-2.08,1.94-4.32,2.92-6.74,2.96,1.23-2.53,1.48-6.28,1.2-10.68-.52,4.19-1.25,8.14-3.16,11.04-2.91.77-5.83.16-8.77-1.59,4.52-1.89,6.14-6.86,6.71-12.94-2.02,5.82-4.83,10.03-8.21,11.83.11.41-9.45-5.56-3.39-12.91,2.19-2.65,4.74-3.19,7.46-3.36-.71-.1-1.43-.09-2.14.02-4.04.61-7.12,3.12-9.1,7.86Z"/>
                  <path class="cls-29" d="M53.2,75.67c.66-.01,1.56.88,1.88,1.58,1.65,3.65.31,9.7-2.94,10.72-1.03.32-2.48.21-3.04-.6-.6-.86.19-1.94,1.67-5.55,1.63-3.98,1.5-6.14,2.43-6.16Z"/>
                  <path class="cls-29" d="M57.55,81.86s0,0,0,0c.05.38.09.81.1,1.31,0,.13,0,.26,0,.38,0,0,0,0,0,0-.01,2.2-.59,3.35-.04,3.7.22.13.84-.13,2.07-.66,1.6-.68,2.4-1.03,2.52-1.19.26-.34.38-.76.4-1.2.02-.41-.05-.85-.17-1.28,0,0,0,0,0-.01-.29-1.07-.86-2.12-1.16-2.65-.61-1.11-1.06-1.39-1.43-1.52-.75-.26-1.75-.07-2.26.53-.5.6-.22,1.24-.04,2.59Z"/>
                  <path class="cls-29" d="M57.55,81.86s0,0,0,0c.05.38.09.81.1,1.31,0,.13,0,.26,0,.38,0,0,0,0,0,0,0,0,.93.34,2.06-.54,1.14-.88,1.49-1.5,1.49-1.5.58.88,1.06,1.78,1.4,2.7.02-.41-.05-.85-.17-1.28,0,0,0,0,0-.01-.56-1.72-1.63-3.79-3.16-3.5-1.28.24-1.66,1.41-1.72,2.45Z"/>
                  <path class="cls-29" d="M66.59,78.73c.09-.15-.74-1.19-1.94-1.36-1.06-.15-2.5.38-2.67,1.36-.12.7.4,1.55.85,1.55.62,0,.63-1.6,1.71-1.98.96-.34,1.96.58,2.06.42Z"/>
                  <path class="cls-29" d="M51.02,73.71c.47,1.18-.1,2.39-1.14,4.31-2.01,3.72-3.02,5.59-3.72,5.69-2.31.34-6.54-4.2-5.17-8.12,1.23-3.53,6.35-4.71,8.72-3.33.19.11.97.57,1.32,1.45Z"/>
                  <path class="cls-30" d="M53.84,76.13c.46,0,.78.89,1.04,1.61.44,1.2.93,3.42.27,3.74-.59.29-2.18-.91-2.47-2.44-.26-1.37.55-2.92,1.16-2.91Z"/>
                  <path class="cls-30" d="M50.44,73.47c.27.48.26.97.26,1.39-.01.97-.38,2.45-1.03,2.58-1.18.23-3.63-3.94-2.74-4.97.58-.67,2.79-.26,3.51,1Z"/>
                </g>
              </g>
              <g>
                <path class="cls-40" d="M65.42,52.43s-1.02,5.23-.56,8.1c.46,2.87,8.5,3.97,8.5,3.97,0,0-6.5-2.41-7-4.63-.5-2.22-.93-7.44-.93-7.44Z"/>
                <path class="cls-60" d="M65.34,51.35s.27,4.74,2.73,6.85c2.47,2.11,9.67,1.09,9.67,1.09,0,0-6.57.2-9.02-2.46-2.44-2.66-3.39-5.48-3.39-5.48Z"/>
                <g>
                  <path class="cls-41" d="M46.08,85.16c-.15-2.83.91-33.67,3.72-38.53,1.21-2.1,2.32-1.44,2.32-1.44l13.46,7.16s.87.37.81,1.3c0,.11-.11.34-.28.67-1.49,2.82-8.38,12.68-8.38,12.68,0,0,1.22,1.53.04,2.74-.65.67-1.32,1.3-1.32,1.3-5.03,8.16-7.05,17.04-4.45,27.02-2.14-5.53-2.59-12.21-1.55-19.9,0,0-3.07,7.15-4.06,7.49-.17.06-.28-.08-.3-.5Z"/>
                  <path class="cls-30" d="M56.33,66.22s8.05-9.41,6.08-10.19c-1.97-.78-6.08,10.19-6.08,10.19Z"/>
                  <path class="cls-43" d="M46.08,85.16c-.15-2.83.91-33.67,3.72-38.53,1.21-2.1,2.32-1.44,2.32-1.44l13.46,7.16s.87.37.81,1.3c0,.11-.11.34-.28.67-.04-.45-.26-.8-.9-.71-1.57.22-5.08.96-7.69-.21-2.6-1.16-5.21-1.65-6.23-.17-2.18,3.17-4.98,26.32-4.9,32.41-.17.06-.28-.08-.3-.5Z"/>
                  <path class="cls-31" d="M49.63,77.29c.96.17,2.65-4.35,3.5-7.59,1.99-7.53,1.49-15.82.19-16-1.27-.17-3.45,7.31-4.17,13.5-.48,4.12-.57,9.89.48,10.08Z"/>
                </g>
                <g>
                  <path class="cls-24" d="M80.48,46.56l1.51-.82,1.28-.7s3.09,11.51.67,11.39c-.38-.02-.7-.13-.99-.3-1.49-.9-1.77-3.52-1.78-3.67h0s-2.08,4-3.8,2.87c-.21-.14-.41-.34-.6-.64-1.8-2.78,3.71-8.13,3.71-8.13Z"/>
                  <path class="cls-30" d="M83.71,55.13c.49-.42-.09-1.99-.45-1.98-.35,0-.89,1.51-.35,1.96.21.18.6.2.8.02Z"/>
                  <path class="cls-30" d="M79.55,53.69c.46.05.92-.86,1.08-1.54.06-.26.22-.91,0-1.02-.36-.19-1.85,1.14-1.57,2.06.07.22.25.47.48.5Z"/>
                  <path class="cls-43" d="M80.48,46.56l1.51-.82c-.2,1.86-.62,9.03.97,10.39-1.49-.9-1.77-3.52-1.78-3.67h0s.06-4.79.06-4.79c0,0-5.92,3.89-3.86,7.66-.21-.14-.41-.34-.6-.64-1.8-2.78,3.71-8.13,3.71-8.13Z"/>
                  <path class="cls-31" d="M84.16,55.24c.58-1.46.13-2.8-.25-4.46-.63-2.69-.58-3.96-.71-3.95-.33.03-.13,8.91.61,8.96.13,0,.25-.28.35-.54Z"/>
                  <path class="cls-31" d="M78.85,54.41c.16.07.86-1.18,1.26-2.15.7-1.72.85-3.61.65-3.66-.36-.09-2.24,5.67-1.91,5.81Z"/>
                </g>
                <g>
                  <path class="cls-33" d="M52.11,45.19s-.13-9.64,13.31-12.35c12.01-2.42,18.69,10.72,18.84,11.23.13.45-.87,1.47-2.24,2.4-.17.11-.34.23-.52.34-1.62,1.01-4.63-1.58-4.63-1.58-1.54,1.09-2.94,1.18-4.16-.08-.61,2.83-2.26,4.13-5.22,3.49.36,1.62-.32,2.89-2.07,3.79-.65.34-1.35.55-2.07.65-.71.1-1.43.09-2.14-.02-4.04-.61-7.12-3.12-9.1-7.86Z"/>
                  <path class="cls-43" d="M52.11,45.19s-.13-9.64,13.31-12.35c12.01-2.42,18.69,10.72,18.84,11.23.13.45-.87,1.47-2.24,2.4.5-.69,1.05-1.65.95-2.48-.19-1.48-3.39-5.4-3.39-5.4,0,0,.15,1.83-.64,3.52s-2.07,3.11-2.07,3.11c1.57-3.03,2.54-5.83,1.39-7.8-2.08-1.94-4.32-2.92-6.74-2.96,1.23,2.53,1.48,6.28,1.2,10.68-.52-4.19-1.25-8.14-3.16-11.04-2.91-.77-5.83-.16-8.77,1.59,4.52,1.89,6.14,6.86,6.71,12.94-2.02-5.82-4.83-10.03-8.21-11.83.11-.41-9.45,5.56-3.39,12.91,2.19,2.65,4.74,3.19,7.46,3.36-.71.1-1.43.09-2.14-.02-4.04-.61-7.12-3.12-9.1-7.86Z"/>
                  <path class="cls-29" d="M69.02,48.07c.66.01,1.56-.88,1.88-1.58,1.65-3.65.31-9.7-2.94-10.72-1.03-.32-2.48-.21-3.04.6-.6.86.19,1.94,1.67,5.55,1.63,3.98,1.5,6.14,2.43,6.16Z"/>
                  <path class="cls-29" d="M73.37,41.88s0,0,0,0c.05-.38.09-.81.1-1.31,0-.13,0-.26,0-.38,0,0,0,0,0,0-.01-2.2-.59-3.35-.04-3.7.22-.13.84.13,2.07.66,1.6.68,2.4,1.03,2.52,1.19.26.34.38.76.4,1.2.02.41-.05.85-.17,1.28,0,0,0,0,0,.01-.29,1.07-.86,2.12-1.16,2.65-.61,1.11-1.06,1.39-1.43,1.52-.75.26-1.75.07-2.26-.53-.5-.6-.22-1.24-.04-2.59Z"/>
                  <path class="cls-29" d="M73.37,41.88s0,0,0,0c.05-.38.09-.81.1-1.31,0-.13,0-.26,0-.38,0,0,0,0,0,0,0,0,.93-.34,2.06.54,1.14.88,1.49,1.5,1.49,1.5.58-.88,1.06-1.78,1.4-2.7.02.41-.05.85-.17,1.28,0,0,0,0,0,.01-.56,1.72-1.63,3.79-3.16,3.5-1.28-.24-1.66-1.41-1.72-2.45Z"/>
                  <path class="cls-29" d="M82.41,45.01c.09.15-.74,1.19-1.94,1.36-1.06.15-2.5-.38-2.67-1.36-.12-.7.4-1.55.85-1.55.62,0,.63,1.6,1.71,1.98.96.34,1.96-.58,2.06-.42Z"/>
                  <path class="cls-29" d="M66.83,50.03c.47-1.18-.1-2.39-1.14-4.31-2.01-3.72-3.02-5.59-3.72-5.69-2.31-.34-6.54,4.2-5.18,8.12,1.23,3.53,6.35,4.71,8.72,3.33.19-.11.97-.57,1.32-1.45Z"/>
                  <path class="cls-30" d="M69.66,47.62c.46,0,.78-.89,1.04-1.61.44-1.2.93-3.42.27-3.74-.59-.29-2.18.91-2.47,2.44-.26,1.37.55,2.92,1.16,2.91Z"/>
                  <path class="cls-30" d="M66.25,50.27c.27-.48.26-.97.26-1.39-.01-.97-.38-2.45-1.03-2.58-1.18-.23-3.63,3.94-2.74,4.97.58.67,2.79.26,3.51-1Z"/>
                </g>
              </g>
              <g>
                <path class="cls-27" d="M31.85,36.35s1.51,5.11,3.24,7.44c1.73,2.33,9.37-.4,9.37-.4,0,0-6.88.87-8.35-.87-1.47-1.74-4.26-6.17-4.26-6.17Z"/>
                <path class="cls-3" d="M31.28,35.44s2.42,4.08,5.58,4.81c3.16.73,9.08-3.49,9.08-3.49,0,0-5.74,3.21-9.13,1.98s-5.53-3.3-5.53-3.3Z"/>
                <g>
                  <path class="cls-47" d="M29.79,74.32c-1.44-2.44-14.73-30.3-14.48-35.9.11-2.42,1.39-2.34,1.39-2.34l15.24.14s.95-.07,1.32.78c.04.1.06.36.06.73-.02,3.19-1.58,15.12-1.58,15.12,0,0,1.79.79,1.3,2.41-.27.89-.57,1.76-.57,1.76-.7,9.56,1.61,18.37,8.52,26.03-4.45-3.92-7.94-9.64-10.56-16.94,0,0,.58,7.76-.15,8.52-.12.13-.29.06-.5-.3Z"/>
                  <path class="cls-30" d="M30.14,52.79s2.8-12.06.69-11.85-.69,11.85-.69,11.85Z"/>
                  <path class="cls-43" d="M29.79,74.32c-1.44-2.44-14.73-30.3-14.48-35.9.11-2.42,1.39-2.34,1.39-2.34l15.24.14s.95-.07,1.32.78c.04.1.06.36.06.73-.24-.38-.6-.59-1.13-.21-1.29.92-4.07,3.19-6.92,3.37-2.85.17-5.38.94-5.6,2.72-.47,3.82,7.72,25.65,10.61,31.02-.12.13-.29.06-.5-.3Z"/>
                  <path class="cls-31" d="M29.31,65.7c.93-.29.34-5.08-.39-8.35-1.71-7.59-5.98-14.73-7.21-14.28-1.2.44.31,8.08,2.53,13.9,1.47,3.87,4.06,9.04,5.08,8.72Z"/>
                </g>
                <g>
                  <path class="cls-36" d="M42.5,24.2l.96-1.43.81-1.21s8.06,8.79,5.85,9.79c-.34.16-.69.21-1.02.19-1.74-.11-3.19-2.3-3.28-2.43h0s0,4.51-2.05,4.3c-.25-.02-.52-.11-.83-.29-2.88-1.64-.45-8.92-.45-8.92Z"/>
                  <path class="cls-30" d="M49.31,30.31c.24-.6-1-1.72-1.32-1.55-.31.17-.09,1.75.6,1.9.27.06.62-.1.72-.35Z"/>
                  <path class="cls-30" d="M44.96,30.95c.43-.17.42-1.19.25-1.86-.06-.26-.23-.91-.47-.91-.41,0-1.12,1.87-.44,2.55.16.16.44.3.66.22Z"/>
                  <path class="cls-43" d="M42.5,24.2l.96-1.43c.68,1.74,3.62,8.29,5.65,8.77-1.74-.11-3.19-2.3-3.28-2.43h0s-2.16-4.28-2.16-4.28c0,0-3.45,6.18.11,8.58-.25-.02-.52-.11-.83-.29-2.88-1.64-.45-8.92-.45-8.92Z"/>
                  <path class="cls-31" d="M49.77,30.2c-.16-1.56-1.17-2.54-2.28-3.84-1.8-2.1-2.35-3.25-2.45-3.18-.28.18,3.99,7.97,4.67,7.67.12-.06.09-.36.06-.65Z"/>
                  <path class="cls-31" d="M44.68,31.91c.17-.01.22-1.45.12-2.49-.17-1.85-.91-3.6-1.11-3.55-.36.09.63,6.07.98,6.04Z"/>
                </g>
                <g>
                  <path class="cls-61" d="M16.7,36.08s-4.56-8.49,6.11-17.1c9.53-7.69,21.53.89,21.89,1.27.32.34-.1,1.71-.88,3.17-.1.18-.2.36-.3.54-.97,1.64-4.84.74-4.84.74-.86,1.68-2.06,2.41-3.72,1.85.76,2.79-.1,4.7-3.02,5.51,1.06,1.27,1.05,2.71-.09,4.31-.42.6-.95,1.11-1.54,1.53-.58.41-1.23.74-1.91.97-3.86,1.32-7.76.51-11.7-2.78Z"/>
                  <path class="cls-43" d="M16.7,36.08s-4.56-8.49,6.11-17.1c9.53-7.69,21.53.89,21.89,1.27.32.34-.1,1.71-.88,3.17.13-.84.17-1.95-.3-2.63-.85-1.23-5.5-3.23-5.5-3.23,0,0,.98,1.56,1.06,3.42.08,1.87-.4,3.72-.4,3.72,0-3.41-.44-6.34-2.37-7.56-2.74-.77-5.18-.6-7.35.48,2.26,1.67,4.21,4.88,5.99,8.93-2.39-3.48-4.87-6.65-7.9-8.34-2.94.66-5.25,2.55-7.05,5.46,4.88-.41,8.61,3.25,11.93,8.39-4.47-4.23-8.91-6.67-12.75-6.7-.09-.42-5.82,9.29,2.95,13.01,3.17,1.34,5.68.64,8.16-.46-.58.41-1.23.74-1.91.97-3.86,1.32-7.76.51-11.7-2.78Z"/>
                  <path class="cls-29" d="M33.03,30.83c.59-.29.98-1.5.94-2.27-.22-4-4.2-8.75-7.56-8.16-1.06.19-2.3.96-2.43,1.93-.14,1.04,1.07,1.64,4.04,4.15,3.29,2.78,4.16,4.76,5,4.34Z"/>
                  <path class="cls-29" d="M34.03,23.33s0,0,0,0c-.13-.36-.29-.76-.51-1.21-.06-.12-.11-.23-.17-.34,0,0,0,0,0,0-1.02-1.94-2.07-2.7-1.74-3.26.13-.22.8-.27,2.14-.37,1.73-.13,2.6-.19,2.78-.11.39.18.69.5.91.88.2.36.34.78.44,1.22,0,0,0,0,0,.01.24,1.09.21,2.28.2,2.89-.03,1.27-.3,1.73-.56,2.01-.55.58-1.52.87-2.26.57-.72-.3-.76-1-1.23-2.28Z"/>
                  <path class="cls-29" d="M34.03,23.33s0,0,0,0c-.13-.36-.29-.76-.51-1.21-.06-.12-.11-.23-.17-.34,0,0,0,0,0,0,0,0,.67-.73,2.08-.47,1.41.25,2.01.65,2.01.65.11-1.05.12-2.06,0-3.04.2.36.34.78.44,1.22,0,0,0,0,0,.01.29,1.78.3,4.11-1.19,4.56-1.25.38-2.12-.49-2.66-1.38Z"/>
                  <path class="cls-29" d="M43.49,21.93c.15.09-.11,1.4-1.1,2.1-.87.62-2.39.82-3,.02-.43-.56-.36-1.56.04-1.77.55-.29,1.3,1.13,2.43.97,1-.14,1.48-1.42,1.63-1.32Z"/>
                  <path class="cls-29" d="M31.99,33.58c-.13-1.26-1.19-2.07-3-3.3-3.5-2.38-5.25-3.56-5.93-3.33-2.2.77-3.86,6.75-.84,9.6,2.72,2.56,7.81,1.25,9.27-1.07.12-.19.6-.95.5-1.9Z"/>
                  <path class="cls-30" d="M33.38,30.13c.4-.22.28-1.15.18-1.91-.16-1.27-.75-3.46-1.49-3.45-.66.01-1.52,1.82-1.06,3.31.41,1.34,1.84,2.34,2.37,2.05Z"/>
                  <path class="cls-30" d="M31.59,34.06c.02-.55-.21-.98-.41-1.35-.46-.85-1.47-2-2.1-1.81-1.15.34-1.4,5.17-.14,5.67.83.33,2.6-1.06,2.65-2.51Z"/>
                </g>
              </g>
              <g>
                <path class="cls-57" d="M72.88,28.58s-4.43,2.97-6.13,5.32c-1.71,2.35,3.18,8.82,3.18,8.82,0,0-2.88-6.31-1.67-8.23,1.22-1.92,4.62-5.91,4.62-5.91Z"/>
                <path class="cls-44" d="M73.58,27.77s-3.17,3.53-2.92,6.77c.25,3.24,6.05,7.62,6.05,7.62,0,0-4.78-4.51-4.62-8.12.16-3.61,1.49-6.27,1.49-6.27Z"/>
                <g>
                  <path class="cls-38" d="M36.04,37.98c1.9-2.1,24.5-23.12,29.92-24.56,2.34-.62,2.65.63,2.65.63l4.43,14.59s.35.88-.35,1.49c-.09.07-.32.17-.67.28-3.05.94-14.9,3.01-14.9,3.01,0,0-.22,1.94-1.91,1.96-.93,0-1.85-.02-1.85-.02-9.33,2.19-17.05,7.04-22.28,15.92,2.4-5.42,6.82-10.46,13-15.15,0,0-7.23,2.87-8.17,2.41-.16-.08-.14-.26.14-.57Z"/>
                  <path class="cls-30" d="M56.69,31.88s12.35-.94,11.51-2.89c-.84-1.95-11.51,2.89-11.51,2.89Z"/>
                  <path class="cls-43" d="M36.04,37.98c1.9-2.1,24.5-23.12,29.92-24.56,2.34-.62,2.65.63,2.65.63l4.43,14.59s.35.88-.35,1.49c-.09.07-.32.17-.67.28.29-.34.38-.75-.14-1.14-1.27-.96-4.27-2.93-5.28-5.59-1.01-2.66-2.5-4.86-4.27-4.53-3.78.69-22.16,15.04-26.42,19.41-.16-.08-.14-.26.14-.57Z"/>
                  <path class="cls-31" d="M44.12,34.94c.56.8,4.95-1.19,7.85-2.87,6.73-3.91,12.26-10.11,11.46-11.16-.78-1.02-7.62,2.72-12.51,6.58-3.25,2.57-7.41,6.58-6.8,7.46Z"/>
                </g>
                <g>
                  <path class="cls-35" d="M87.66,35.11l1.65.49,1.4.41s-5.97,10.32-7.59,8.51c-.25-.28-.41-.59-.48-.91-.41-1.69,1.24-3.74,1.34-3.85h0s-4.3,1.35-4.72-.67c-.05-.24-.05-.53.03-.88.7-3.23,8.38-3.1,8.38-3.1Z"/>
                  <path class="cls-30" d="M83.87,43.44c.65.05,1.34-1.47,1.08-1.72-.25-.24-1.7.44-1.63,1.14.02.27.28.56.55.58Z"/>
                  <path class="cls-30" d="M81.96,39.47c.29.36,1.26.04,1.85-.32.23-.14.8-.49.73-.72-.12-.39-2.12-.51-2.57.34-.11.2-.16.52-.01.69Z"/>
                  <path class="cls-43" d="M87.66,35.11l1.65.49c-1.45,1.17-6.83,5.93-6.68,8.02-.41-1.69,1.24-3.74,1.34-3.85h0s3.43-3.34,3.43-3.34c0,0-6.93-1.45-8.15,2.67-.05-.24-.05-.53.03-.88.7-3.23,8.38-3.1,8.38-3.1Z"/>
                  <path class="cls-31" d="M84.12,43.84c1.44-.62,2.08-1.88,2.98-3.33,1.46-2.35,2.4-3.21,2.3-3.29-.25-.21-6.41,6.2-5.92,6.75.09.1.37-.02.64-.13Z"/>
                  <path class="cls-31" d="M80.96,39.49c.07.16,1.45-.22,2.41-.63,1.71-.72,3.16-1.94,3.06-2.12-.19-.32-5.6,2.41-5.47,2.75Z"/>
                </g>
                <g>
                  <path class="cls-55" d="M68.61,14.04s6.74-6.89,18.15.71c10.19,6.8,5.6,20.81,5.34,21.27-.23.41-1.66.42-3.28.11-.2-.04-.4-.08-.61-.13-1.86-.44-2.15-4.4-2.15-4.4-1.86-.32-2.91-1.24-2.88-3-2.43,1.56-4.52,1.31-6.16-1.23-.9,1.39-2.27,1.81-4.14,1.2-.7-.23-1.34-.57-1.92-1.01-.57-.43-1.07-.95-1.5-1.53-2.42-3.29-2.81-7.25-.85-11.99Z"/>
                  <path class="cls-43" d="M68.61,14.04s6.74-6.89,18.15.71c10.19,6.8,5.6,20.81,5.34,21.27-.23.41-1.66.42-3.28.11.84-.13,1.91-.42,2.42-1.08.92-1.18,1.44-6.21,1.44-6.21,0,0-1.19,1.4-2.95,2.03-1.76.63-3.66.73-3.66.73,3.25-1.03,5.92-2.31,6.51-4.52-.09-2.84-.98-5.13-2.66-6.87-.92,2.66-3.4,5.48-6.72,8.39,2.6-3.32,4.89-6.63,5.59-10.03-1.51-2.6-4.01-4.24-7.32-5.09,1.85,4.54-.52,9.19-4.43,13.89,2.7-5.53,3.69-10.5,2.58-14.17.37-.21-10.61-2.77-11.53,6.71-.33,3.42,1.09,5.61,2.88,7.65-.57-.43-1.07-.95-1.5-1.53-2.42-3.29-2.81-7.25-.85-11.99Z"/>
                  <path class="cls-29" d="M78.5,28.05c.45.48,1.73.49,2.45.22,3.75-1.41,7.1-6.63,5.52-9.65-.5-.96-1.6-1.9-2.57-1.74-1.03.18-1.24,1.51-2.75,5.1-1.67,3.97-3.29,5.39-2.65,6.07Z"/>
                  <path class="cls-29" d="M85.96,26.77s0,0,0,0c.3-.23.63-.51,1-.85.09-.09.18-.18.27-.27,0,0,0,0,0,0,1.55-1.56,1.96-2.79,2.59-2.63.25.06.5.69,1,1.93.64,1.61.96,2.42.94,2.62-.06.43-.27.8-.57,1.13-.28.3-.64.56-1.03.79,0,0,0,0-.01,0-.96.55-2.11.88-2.69,1.05-1.22.35-1.74.23-2.09.06-.71-.35-1.29-1.19-1.22-1.98.07-.78.73-1.03,1.81-1.86Z"/>
                  <path class="cls-29" d="M85.96,26.77s0,0,0,0c.3-.23.63-.51,1-.85.09-.09.18-.18.27-.27,0,0,0,0,0,0,0,0,.89.42,1.07,1.84.18,1.42-.02,2.12-.02,2.12,1.04-.21,2.01-.51,2.9-.91-.28.3-.64.56-1.03.79,0,0,0,0-.01,0-1.61.81-3.83,1.52-4.71.23-.73-1.08-.17-2.17.52-2.95Z"/>
                  <path class="cls-29" d="M90.12,35.38c-.04.17-1.37.32-2.33-.42-.85-.65-1.5-2.04-.92-2.86.41-.58,1.38-.82,1.7-.5.44.44-.69,1.58-.2,2.61.44.91,1.79.98,1.75,1.16Z"/>
                  <path class="cls-29" d="M75.57,27.89c1.16-.5,1.62-1.76,2.25-3.85,1.22-4.05,1.83-6.08,1.4-6.65-1.39-1.87-7.59-1.67-9.41,2.07-1.63,3.36,1.14,7.82,3.8,8.53.22.06,1.08.29,1.96-.09Z"/>
                  <path class="cls-30" d="M79.28,28.19c.33.32,1.18-.07,1.88-.4,1.16-.53,3.08-1.75,2.84-2.45-.21-.63-2.19-.9-3.47-.03-1.16.79-1.68,2.45-1.25,2.88Z"/>
                  <path class="cls-30" d="M74.99,27.65c.53-.15.87-.5,1.17-.8.67-.69,1.47-2,1.1-2.55-.67-1-5.35.21-5.45,1.57-.07.89,1.79,2.16,3.19,1.78Z"/>
                </g>
              </g>
            </g>
          </g>
          <path class="cls-15" d="M117.67,116.86c-.46,5.03-3.7,9.04-7.86,9.76-.9.16-1.79.3-2.69.45-12.17,1.99-24.39,3.18-36.65,3.59-3.41.12-6.83.18-10.24.17-16.61-.02-33.3-1.45-50.06-4.25-2.77-.46-5.13-2.37-6.54-5.07-.74-1.4-1.22-3.02-1.37-4.75-.39-4.47-.73-8.93-1.01-13.37C-.69,73.68-.34,44.47,2.27,15.77c.4-4.34,2.85-7.95,6.21-9.3-.2.1-.39.21-.58.32.16-.08.32-.16.48-.23.08-.04.16-.07.24-.1.58-.28,1.17-.51,1.8-.66.48-.11.96-.22,1.44-.32,1.32-.3,2.64-.59,3.97-.85.52-.11,1.04-.22,1.56-.32.57-.11,1.13-.23,1.7-.33.42-.08.84-.16,1.26-.23,1.08-.2,2.15-.4,3.23-.58,2.45-.42,4.9-.79,7.35-1.13.85-.12,1.71-.23,2.56-.34.75-.09,1.49-.18,2.24-.27.75-.09,1.5-.17,2.25-.25.75-.08,1.49-.15,2.24-.23,3.73-.35,7.47-.61,11.2-.76.28-.01.55-.03.83-.04.72-.03,1.44-.05,2.16-.08.58-.01,1.16-.03,1.74-.04.54-.02,1.07-.03,1.61-.03,1.13-.01,2.27-.03,3.4-.02.22,0,.43,0,.65,0,.96,0,1.91.02,2.87.04.49,0,.98.02,1.47.04.65.01,1.28.03,1.92.06.64.03,1.27.05,1.9.08.38.02.77.04,1.15.06.47.03.96.04,1.44.07.13,0,.25.01.37.02h.02c.8.05,1.61.1,2.42.16,1.09.08,2.18.16,3.27.26.53.04,1.06.09,1.59.14.82.08,1.63.15,2.44.24.8.08,1.6.17,2.4.27.06,0,.11.01.17.02.78.09,1.56.19,2.34.3.35.04.7.1,1.06.15.73.1,1.47.2,2.21.3,1.68.24,3.35.5,5.02.78,1.84.31,3.68.65,5.52,1.01.92.18,1.84.37,2.76.56.91.19,1.82.39,2.72.59.02,0,.04,0,.06.01.92.2,1.84.41,2.76.63.04,0,.08.02.13.04.07.01.15.03.22.06.08.03.17.05.26.08.16.05.32.11.47.17.1.04.2.08.29.12.13.06.25.11.38.18,3.37,1.35,5.83,4.95,6.23,9.29,3.14,33.5,3.16,67.22.04,101.17Z"/>
          <path class="cls-28" d="M116.87,14.93c-.39-3.9-2.56-7.18-5.61-8.61,2.32,2.35,3.91,6.52,4.23,9.76,2.59,26.73,2.96,53.6,1.12,80.63-.37.91-.79,2.03-.88,2.52-.16.9.36,1.97.51,2.47-.01.17-.03.35-.04.52-.24,1.13-1.2,3.67-1.6,4.69-.48,1.23.59,3.28.81,4.01,0,0,0,0,0,0-.07.44-.34.82-.71,1.06-.13.09-.24.15-.26.19-.34.52-.59,1.83-.81,2.04s-.81.32-2.53.7-1.77,3.12-2.9,3.65c-1.13.54-1.72,0-2.2,0s-1.13.48-1.93.88c-.81.4-1.99-.61-3.22-.51-.77.07-1.93.96-2.7,1.63-28.42,3.73-57.08,3.18-85.99-1.49-1.32-.21-2.54-.76-3.6-1.55.22-.86.54-2.45.2-3.43-.48-1.4-2.42-1.72-3.3-2.69-.88-.97-.3-1.61-.25-2.46.05-.85-.21-.76-.59-1.19-.38-.43.21-1.29.64-1.79.43-.5.16-1.32-.87-2.13-1.03-.8.44-2.74.39-4.63-.04-1.4-.94-3.53-1.4-4.53-.33-5.34-.57-10.66-.74-15.96-.43-13.52-.31-26.92.33-40.21.11-2.26.65-4.48,1.47-6.59.12-.3.19-.55.19-.71.03-.85-.56-2.16-.62-2.93-.05-.77.38-.95.43-1.56s-.05-2.03,0-2.98.75-2.44.81-3.89c.02-.43-.05-1.06-.15-1.72-.38-2.51-.12-5.09.88-7.42.72-1.68,1.67-3.24,2.8-4.38-3.06,1.44-5.25,4.73-5.61,8.64C1.2,36.1.54,57.48,1.23,79.14c.32,10.61.96,21.28,1.94,32.01.43,4.83,3.65,8.69,7.8,9.35,33.03,5.33,65.76,5.44,98.18.04,4.11-.69,7.3-4.51,7.75-9.3,3.08-32.31,3.06-64.41-.03-96.31Z"/>
          <path class="cls-20" d="M4.91,113.18l4.51-4.73s-1.72,3.01-.5,3.01,13.85-10.44,13.85-10.44c0,0-15.43,13.44-11.77,13.3,3.65-.14,12.25-7.22,12.25-7.22,0,0-11.96,10.8-10.17,10.59s6.87-3.5,6.87-3.5c0,0-4.57,6.66-5.15,6.37-.57-.29-6.52-.86-7.31-2.29-.79-1.43-2.58-5.09-2.58-5.09Z"/>
          <path class="cls-19" d="M3.77,21.56l5.37.61s-2.72.49-2.36,1.09c.36.6,9.46,1.54,9.46,1.54,0,0-12.25.36-12.46-.43-.21-.79,0-2.81,0-2.81Z"/>
          <path class="cls-13" d="M116.73,104.3l-11.89-15.58s7.31,10.96,4.01,9.94c-3.3-1.02-17.54-19-17.54-19,0,0,22.21,27.72,20.71,28.65-1.49.93-6.54-3.15-6.54-3.15l9.46,8.38,1.79-5.3v-3.94Z"/>
          <polygon class="cls-14" points="109.67 118.41 102.03 109.92 108 119.48 109.67 118.41"/>
          <path class="cls-9" d="M83.49,19.63s1.94-14.26,1.05-15.76-2.97,2.41-2.97,2.41l1.08-5.12c1.64.17,3.27.36,4.91.58l-4.07,17.89Z"/>
          <path class="cls-17" d="M118.97,49.07l-55.87,10.66-.19-1.74-.44-4.1,55.39-27.06c.47,6.4.81,12.82,1.03,19.24.04,1,.07,2,.09,3Z"/>
          <path class="cls-5" d="M118.97,49.07l-55.87,10.66-.19-1.74,55.97-11.91c.04,1,.07,2,.09,3Z"/>
          <path class="cls-6" d="M60.86,44.56c0,1.43-1.52,2.86-4.54,4.27-7.97,3.74-26.43,7.4-55.37,11,.02-3.44.07-6.88.16-10.3.06-2.46.15-4.92.24-7.37.11-2.71.24-5.43.39-8.14.1-1.8.22-3.59.34-5.38,39.22,5.44,58.82,10.74,58.79,15.92Z"/>
          <path class="cls-7" d="M56.32,48.83c-7.97,3.74-26.43,7.4-55.37,11,.02-3.44.07-6.88.16-10.3,17.21,6.77,40.33,3.04,55.21-.7Z"/>
          <path class="cls-18" d="M50.83,41.7c-.1,1.35-16.6,1.51-49.49.46.11-2.71.24-5.43.39-8.14,32.83,3.76,49.19,6.31,49.1,7.68Z"/>
          <path class="cls-10" d="M57.31,60.48L6.48,118.27l-2.86,3.25c-.74-1.4-1.22-3.02-1.37-4.75-.39-4.47-.73-8.93-1.01-13.37l1.19-1.03,51.36-44.27,3.52,2.37Z"/>
          <path class="cls-11" d="M107.12,127.08c-7.23,1.18-14.48,2.08-21.74,2.71-4.96.42-9.93.72-14.91.89l-.7-6.26-4.87-44.18-2.04-18.44,2.85-.48,37.84,60.11h0l3.56,5.66Z"/>
          <path class="cls-8" d="M85.38,129.78c-4.96.42-9.93.72-14.91.89l-.7-6.26-4.87-44.18c4.22,3.66,11.04,20.17,20.48,49.55Z"/>
          <path class="cls-16" d="M80.97.99l-20.55,58.91-5.01-1.8L72.75.36c.06,0,.12,0,.18,0h.02c.8.05,1.61.1,2.42.16,1.09.08,2.18.16,3.27.26.53.04,1.06.09,1.59.14.25.03.5.04.75.07Z"/>
          <path class="cls-12" d="M66.46.09l-12.9,55.65-2.58.39L62.88.02c.59,0,1.2.01,1.79.03.49,0,.98.02,1.47.04.11,0,.22,0,.32,0Z"/>
          <path class="cls-22" d="M14.16,70.49c-7.7,6.38-6.74,22.33-.57,31.66,15.44,23.35,67.49,11.32,69.91-1,2.69-13.72-52.86-44.32-69.34-30.66Z"/>
          <path class="cls-21" d="M73.32,105.73c.17,2.64-10.26,5.5-17.34,6.59-8.79,1.35-21.53,1.35-22.06-1.43-.55-2.88,11.86-9.18,24.5-9.17,6.56,0,14.76,1.71,14.9,4.01Z"/>
        </g>
      </g>
    </g>
  </g>
</svg>