<?xml version="1.0" encoding="UTF-8"?>
<svg id="Layer_2" data-name="Layer 2" xmlns="http://www.w3.org/2000/svg" viewBox="0 0 88.93 120">
  <defs>
    <style>
      .cls-1 {
        fill: #bbbcbb;
      }

      .cls-2 {
        fill: #414241;
      }

      .cls-3 {
        fill: #c23e37;
      }

      .cls-4 {
        fill: #f4cd69;
      }

      .cls-5 {
        fill: #212121;
      }

      .cls-6 {
        fill: #a72e25;
      }

      .cls-7 {
        fill: #ecedec;
      }

      .cls-8 {
        fill: #dedfde;
      }
    </style>
  </defs>
  <g id="Layer_1-2" data-name="Layer 1">
    <g>
      <path d="M54.17,93.21c5.26-.34,10.54-.69,15.82-.5,3.95.14,15.69.95,18.21,3.99,1.48,1.78.36,6.07-.31,8.14-4.07,12.4-19.66,18.09-31.37,13.17l-5.73-3.08c-.26,3.27-3.54,3.68-6.19,4.07-9.33,1.37-23.37,1.21-32.79.27-2.14-.21-6.64-.64-7.78-2.59-5.18-8.85-4.79-26.36-2.06-35.96,4.24-14.91,10.38-29.78,14.42-44.71,1.15-4.24,1.3-7.56.84-11.94-.14-1.34-.62-5.02-1.15-6.09-.36-.72-2.17-1.93-2.91-3.13-.6-.98-1.01-2.95-1.38-3.45-.3-.4-1.11-.53-1.54-.87-1.07-.85-2.06-2.11-2.32-3.47-.27-1.45-.57-6.2.92-6.83C20.99-.08,33.28-.08,45.42.23c1.43.61,1.18,4.79,1.03,6.22-.17,1.55-1.09,3.02-2.3,3.98-.48.38-1.4.6-1.68.98-.37.5-.78,2.46-1.38,3.45-.71,1.15-2.66,2.58-2.98,3.3-1.93,4.4-1.44,13.45-.18,18.05,4.23,15.48,11.09,31.11,14.96,46.58.85,3.4,1.36,6.91,1.27,10.43Z"/>
      <path class="cls-2" d="M19.17,48.32c6.18-.11,12.43-.01,18.59.11l11.16,34.46c.99,3.58,1.54,7.3,1.36,11.02-2.14.35-7.28,1.76-7.69,4.26-.53,3.3,1.6,8.75,3.41,11.53.32.49,1.81,2.09,1.85,2.27.07.28-.72,2.25-.93,2.48-9.75,1.09-19.77,1.29-29.53.41-1.29-.12-4.4-.46-5.48-1.18-2.41-1.61-4.1-10.96-4.39-13.9-.66-6.73-.37-14.15,1.5-20.7,2.89-9.71,5.99-19.38,9.14-29,.21-.64.61-1.21,1-1.75Z"/>
      <path class="cls-4" d="M84.58,102.38c-5.12,17.96-32.55,17.91-37.65,0,2.45.51,4.9,1.13,7.39,1.42,2.25.25,4.94.44,7.2.52,7.65.28,15.63-.14,23.06-1.94Z"/>
      <path class="cls-5" d="M19.17,48.32c-3.4,12.28-8.37,24.12-11.07,36.6-.49,8.55-.96,17.65,2.51,25.67,1.05,2.42.87,2.81,3.67,3.32,7.27,1.35,16.9,1.03,24.3.78,2.78-.09,5.56-.05,8.34-.23-.58.64-6.81,1.12-8.09,1.2-5.77.39-12.3.44-18.11.26-3.55-.11-9.36-.27-12.68-1.09-.41-.1-.53-.04-.78-.43-.78-1.19-1.96-5.1-2.32-6.6-1.59-6.72-1.17-14.57-.42-21.39,3.4-12.71,7.99-25.09,11.79-37.69.41-.68,2.06-.39,2.86-.4Z"/>
      <path class="cls-7" d="M24.72,19.35c3.05-.02,6.12.01,9.17,0-.6,3.71-1.22,7.69-.96,11.46.32,4.71,2.34,9.17,3.62,13.64-5.3-.04-10.62.05-15.93,0-.18-.29-.27-.6-.27-.94l3.18-9.9c1.48-4.37,1.43-8.84.79-13.36l.4-.9Z"/>
      <path class="cls-3" d="M42.58,3.91c-.05,1.34.4,2.93-1.03,3.68-9.38.41-18.86.08-28.28.17-1.96-.39-1.59-2.28-1.58-3.85h30.89Z"/>
      <path class="cls-8" d="M24.72,19.35c.25,2.69.66,5.38.49,8.1-.35,5.8-3.29,11.39-4.6,17.01-.4,0-2.9.09-2.9-.12,1.34-4.35,3.31-8.92,3.62-13.51.26-3.77-.37-7.75-.96-11.46,1.44,0,2.9,0,4.34,0Z"/>
      <path class="cls-6" d="M38.24,11.63c-.34,1.8-2.54,3.51-4.28,3.8-2.58.43-9.95.28-12.74.07-2.38-.18-4.53-1.51-5.18-3.87h22.2Z"/>
      <path class="cls-1" d="M51.51,99.24c-.95-.18-2.05-.19-3.03-.48-.35-.1-.42.13-.35-.49,11.56-2.38,23.68-2.38,35.24,0,.07.62,0,.38-.35.49-.98.29-2.07.29-3.03.48-6.47-.11-12.95-.2-19.42-.25-3,.28-6.03.55-9.05.25Z"/>
      <path class="cls-2" d="M79.99,99.24c-9.28,1.76-19.2,1.76-28.48,0l9.04-.74c6.5-.01,12.99-.06,19.44.74Z"/>
      <path d="M26.59,67.67c.67-.15,1.02-.02,1.61.22,1.83.73,7.96,4.35,9.64,5.56.75.54.81.88.89,1.76.35,3.82-.18,8.32-.14,12.2-.25.56-7.97,5-9.13,5.6-1.87.96-1.99,1.29-4.03.32-2.36-1.13-6.08-3.3-8.28-4.76-.75-.5-1.5-.76-1.63-1.75-.32-2.45-.23-9.05,0-11.61.07-.77.17-1.34.89-1.76l10.15-5.78Z"/>
      <path class="cls-6" d="M34.82,76.11l-.12,9.4-7.65,4.27-7.59-4.35v-9.33c1.81-.39,6.1-4.05,7.57-4.14,1.36-.08,6.08,3.72,7.79,4.14Z"/>
    </g>
  </g>
</svg>