<?xml version="1.0" encoding="UTF-8"?>
<svg id="Layer_2" data-name="Layer 2" xmlns="http://www.w3.org/2000/svg" viewBox="0 0 116.03 120">
  <defs>
    <style>
      .cls-1 {
        fill: #f88ea5;
      }

      .cls-2 {
        fill: #f2c64b;
      }

      .cls-3 {
        fill: #fb657d;
      }

      .cls-4 {
        fill: #ecf3fb;
      }

      .cls-5 {
        fill: #f4c74c;
      }
    </style>
  </defs>
  <g id="Layer_1-2" data-name="Layer 1">
    <g>
      <path d="M111.39,96.71c2.38.32,4.18,2.24,4.39,4.62.27,3.01.4,11.67-.07,14.47-.31,1.83-2.05,3.57-3.88,3.88-2.62.44-11.94.37-14.71.06-1.23-.14-3.04-1.52-3.22-1.48-.34.06-2.23,1.91-3.28,1.49H10.49c-4.94-.53-8.33-4.4-7.89-9.41.18-2.08,1.56-4.35,1.95-6.56,1.02-5.87-1.38-10.87-2.36-16.54-2.08-12-1.4-24.75,1.94-36.44-1.35-.8-2.75-1.94-3.4-3.42-.89-2.02-.94-10.42-.3-12.57.59-2,2.22-3.65,4.19-4.32.67-.23,2.21-.31,2.44-.44.08-.05.8-1.28,1.06-1.56,2.47-2.74,5.66-3.83,7.61-7.16,1.04-1.79,1.37-3.59,2.77-5.24,2.6-3.06,6.7-3.82,9.25-7.03,1.5-1.89,1.81-3.73,3.92-5.34,6.6-5,23.03-4.78,29.95-.45,2.9,1.82,3.17,4.57,5.45,6.82,2.41,2.39,6.04,3.25,8.28,5.99,1.41,1.73,1.78,3.78,2.92,5.59,1.84,2.91,5.18,4.22,7.46,6.81.32.36.76,1.35,1.01,1.49.41.23,1.89.3,2.67.58,1.77.64,3.26,2.1,3.89,3.88.77,2.18.75,10.85-.18,12.95-.65,1.48-2.05,2.62-3.4,3.42,2.41,8.32,3.38,16.96,3.02,25.62h9.14c1.52,0,3.41,2.44,3.61,3.9.44,3.19.3,11.16.03,14.51-.06.7-.18,1.25-.51,1.87,2,.19,4.45-.26,6.38,0Z"/>
      <path class="cls-5" d="M4.61,86.7c-1.67-11.76-1.43-23.94,2.16-35.32l80.44.04c2.27,8.03,3.23,16.4,3.03,24.76-2.6-.05-5.24-.1-6.87,2.27-.18.26-.89,1.69-.89,1.86v6.38H4.61Z"/>
      <path class="cls-3" d="M82.48,89.2v6.13c0,.25.63.93.5,1.38h-6.89c-.11,0-1.5.65-1.71.79-1.15.76-1.98,2.26-2.14,3.62-.4,3.31-.3,10.34-.04,13.75.07.85.34,1.56.51,2.37H10.25c-1.26,0-3.66-1.85-4.34-2.92-2.03-3.18.1-5.82.79-8.89,1.34-5.89-.04-10.59-1.58-16.23h77.36Z"/>
      <path class="cls-1" d="M6.05,32.68l81.54-.04c1.51.29,2.82,1.17,3.34,2.67s.53,7.97.29,9.68-1.57,3.45-3.35,3.66l-82.11-.02c-1.47-.23-2.75-1.82-3.03-3.22-.32-1.54-.3-8.75.19-10.1s1.71-2.27,3.14-2.62Z"/>
      <path class="cls-4" d="M83.73,30.12H10.12c2.98-2.95,6.27-4.39,8.31-8.34.46-.89.63-1.82,1.07-2.68,1.8-3.52,6.35-4.42,9.12-7.15,2.5-2.47,2.54-5.34,5.94-7.08,5.84-2.99,16.42-2.91,22.57-.85s4.88,4.99,8.82,8.46c2.66,2.35,6.73,3.36,8.4,6.62.93,1.81,1.24,3.4,2.63,5.14,1.89,2.38,4.79,3.62,6.75,5.89Z"/>
      <path class="cls-4" d="M101.7,99.29c2.62-.11,6.42-.36,8.94-.07,1.83.21,2.47.81,2.64,2.62.28,3.05.35,10.3,0,13.28-.16,1.38-1.05,2.01-2.37,2.13-3.11.29-10.22.33-13.28-.01-1.64-.19-2.23-.99-2.39-2.62-.21-2.16-.32-11.92.13-13.66.06-.24.35-.8.52-.98.64-.68,4.57-.64,5.82-.69Z"/>
      <path class="cls-4" d="M86.91,78.99c4.39.29,9.7-.56,13.97-.06,1.18.14,1.99.92,2.13,2.13.36,3.04.29,10.42,0,13.54-.1,1.06-.46,1.97-1.63,2.13-2.66.35-6.27-.06-9.04.25-1.88-.8-6.78.85-7.14-1.88l.02-14.53c.11-.6,1.08-1.45,1.67-1.58Z"/>
      <path class="cls-4" d="M76.4,99.52l14.73-.07c.99.07,1.51.98,1.62,1.88.51,4.33-.4,9.6,0,14.04-.11,1-1.14,1.75-2.14,1.87-2.92.34-10.04.28-13.03,0-1.41-.13-2.44-.56-2.62-2.13-.34-2.87-.33-10.9,0-13.78.11-.93.52-1.54,1.44-1.82Z"/>
      <path d="M71.21,77.81c-.25,1.22-2.28,1.5-2.51-.5-.57-4.95.43-10.96,0-16.02.18-.92,1.09-1.07,1.86-1.14,1.7-.15,5.64-.15,7.2.33,4.59,1.42,4.25,8.39-.55,9.19-.46.53,3.86,6.48,3.78,7.88-.06,1.13-1.03,1.43-1.92.89-1.12-.68-3.56-6.98-4.72-8.3-.71-.52-2.26-.11-3.15-.23-.32,2.27.44,5.78,0,7.89Z"/>
      <path d="M53.43,75.06c-.3,1.81-2.35,3.44-4.13,3.63-4.15.45-7.79-.08-8.15-4.87-.17-2.24-.28-7.64.07-9.72.67-4.03,6.24-4.73,9.38-3.49,2.62,1.03,4.29,6.12,1.2,5.57-1.37-.24-.14-2.69-2.68-3.34-2.14-.55-5.16-.46-5.46,2.21-.16,1.4-.21,8.59.11,9.65.56,1.83,3.74,1.69,5.28,1.5,2.33-.28,1.87-2.8,1.87-4.52-1.03-.05-3.11.38-3.47-.93-.67-2.46,5.97-1.67,5.97-.95,0,1.49.22,3.93,0,5.26Z"/>
      <path d="M13.19,72.99c1.59-1.61,2.18,1.61,2.52,2.24.67,1.25,3.79,1.13,5.04.94,2.04-.32,2.11-2.74,1.88-4.35-.38-2.67-3.15-1.72-5.09-1.93-6.36-.67-6.39-9.14.22-9.73,2.44-.22,5.48.11,6.77,2.49.46.84,1.21,3.09-.06,3.47-2.18.65-1.54-1.63-2.32-2.59-1.17-1.44-6.79-1.52-6.79,1.51,0,3.31,4.4,2.03,6.35,2.44,4.67.96,4.71,10.31-.25,11.15-2.04.34-5.63.31-7.2-1.19-.87-.83-2.04-3.45-1.07-4.44Z"/>
      <path d="M27.21,60.47c.56-.5,2.13-.07,2.08.93.64,4.05-.49,9.23.12,13.15.16,1.02.87,1.53,1.86,1.65,2.6.3,5.11.44,5.4-2.62.36-3.89-.3-8.32,0-12.27.91-1.81,2.33-1.23,2.51.73.26,2.78.33,9.84-.03,12.51-.27,2-2.07,3.94-4.11,4.15-2.87.31-7.14.21-8.02-3.25-.5-1.97-.31-11.21-.13-13.66.03-.37.05-1.07.32-1.31Z"/>
      <path d="M64.76,78.38c-.46-.46-1.03-3.85-1.48-3.96l-5.32.04c-.38,1.72-1.41,6.55-3.47,3.07l4.93-16.26c.57-1.36,1.96-1.38,2.54,0l4.89,15.91c.22,1.14-1.25,2.05-2.09,1.2Z"/>
      <path class="cls-5" d="M71.21,67.17v-4.51h5.63c.16,0,1.27.9,1.39,1.11.59,1.03.04,3.39-1.14,3.39h-5.88Z"/>
      <path class="cls-2" d="M62.7,71.93h-3.76c.44-1.72.88-3.73,1.52-5.37.1-.26.09-.6.48-.64l1.76,6.01Z"/>
    </g>
  </g>
</svg>