<?xml version="1.0" encoding="UTF-8"?>
<svg id="Layer_2" data-name="Layer 2" xmlns="http://www.w3.org/2000/svg" viewBox="0 0 105.16 105.65">
  <defs>
    <style>
      .cls-1 {
        fill: #949799;
      }

      .cls-2 {
        fill: #b5babc;
      }

      .cls-3 {
        fill: sienna;
      }

      .cls-4 {
        fill: #b3795e;
      }

      .cls-5 {
        fill: #c66537;
      }

      .cls-6 {
        fill: #b6bbbd;
      }

      .cls-7 {
        fill: #b3795d;
      }

      .cls-8 {
        fill: #939698;
      }
    </style>
  </defs>
  <g id="Layer_1-2" data-name="Layer 1">
    <g>
      <path d="M8.48,80.98c-2.27-10.09,4.14-20.76,14.5-22.46-10.03-19.29,14.31-36.98,29.59-21.52,15.23-15.51,39.32,2.19,29.59,21.52,7.57,1.19,13.53,7.64,14.67,15.15.38,2.52.08,4.79-.17,7.3h7.37c.28,0,.97,1.14,1.04,1.53.56,3.46-1.73,9.57-3.63,12.48-4.3,6.59-11.14,9.91-18.92,10.32-19.64,1.03-40.17-.8-59.9,0-10.98.07-21.67-8.91-22.56-20.01-.07-.88-.3-4.32,1.05-4.32h7.37Z"/>
      <path d="M53.22.58c1.01-1.18,3.08-.46,3.22,1.22.36,4.29-4.1,6.12-4.23,9.13-.11,2.64,2.08,3.66,3.2,5.69.87,1.58,2.08,5.54-.74,5.66-2.19.09-1.71-2.11-2.16-3.46-.34-1-2.15-2.58-2.82-3.73-1.62-2.82-1.32-5.92.46-8.57.59-.87,1.93-1.99,2.28-2.87s.2-2.37.79-3.07Z"/>
      <path d="M43.73.1c3.19-.71,2.21,3.95,1.24,5.69-1.28,2.31-3.29,2.66-3.06,5.85.15,2.16,1.77,2.87,2.78,4.47.95,1.5,2.42,6-.31,6.18-2.31.15-1.76-2.19-2.34-3.53-1.16-2.67-3.76-3.25-3.88-7.36-.12-4.38,2.53-4.86,3.8-7.68.58-1.28.13-3.25,1.77-3.62Z"/>
      <path d="M64.56.09c2.65-.54,2.35,2.73,1.81,4.4-1,3.1-4.1,3.73-3.62,7.62.19,1.54,2,2.8,2.77,4.01.95,1.49,2.39,6.01-.31,6.18-2.35.15-1.78-2.34-2.41-3.7-1.16-2.51-3.58-3.09-3.8-6.96-.25-4.46,2.35-4.98,3.8-7.92.61-1.23.09-3.29,1.76-3.63Z"/>
      <path class="cls-2" d="M95.26,92.68c.1,1.71-1.9,3.54-3.2,4.66-2.96,2.56-6.46,4.01-10.37,4.23-20.44.5-40.95-.37-61.4,0-5.82-.73-10.78-4.01-13.92-8.88,29.62.3,59.27-.41,88.89,0Z"/>
      <path class="cls-5" d="M37.2,34.73c4.94-.56,10.01,1.36,13.13,5.23-3.5,5.8-3.5,13.32,0,19.11-6.84,8.27-20.23,6.44-24.74-3.28-4.2-9.05,1.67-19.94,11.61-21.07Z"/>
      <path class="cls-5" d="M64.15,34.9c8.94-.93,15.18,9.58,13.6,17.6-1.14,5.79-7.03,12.38-13.37,11.64-7.13.1-13.36-7.8-13.36-14.62s6.06-14.62,13.12-14.62Z"/>
      <path class="cls-6" d="M98.07,84.49l.48.44c.16.84-.51,3.95-1.42,4.24-30.58.61-61.23-.46-91.83.01-1.47-.18-1.38-3.44-1.74-4.69,31.5.11,63.01-.15,94.5,0Z"/>
      <path class="cls-5" d="M67.66,80.75h-28.3c-.67-.71-.77-4.63-.67-5.7.16-1.82,1.45-5.98,2.76-7.23.33-.32,2.77-.73,3.51-.99,2.97-1.05,5.29-2.67,7.58-4.77,2.49,2.47,5.59,4.44,9.04,5.25.97.23,3.8.39,4.33.82.93.77,2.3,4.95,2.43,6.22s.22,5.53-.67,6.4Z"/>
      <path class="cls-5" d="M12.22,80.52c-1.46-4.04-.21-9.57,2.38-12.94,2.02-2.63,6.71-5.94,10.14-5.79,1.04.04,2.51,1.81,3.55,2.55,2.59,1.85,5.74,3.21,8.96,3.32-.21,1.18-.87,2.15-1.23,3.33-1.01,3.28-1.05,6.41-.41,9.77H12.38s-.16-.23-.16-.23Z"/>
      <path class="cls-5" d="M89.65,80.75c-6.07.18-12.11.2-18.11.08l.1-.55c.74-4.36.12-9.02-2.11-12.86,4-.55,6.69-2.63,9.59-5.15,1.48-.58,3.69.77,5,1.66,3.73,2.55,6.07,6.85,6.47,11.32.15,1.65.29,4.42-.94,5.49Z"/>
      <path class="cls-3" d="M64.38,64.14c6.45-.09,12.54-6.76,13.1-12.99.69-7.73-5.19-16.25-13.33-16.25,2.61-.66,5.88.07,8.28,1.2,12.24,5.76,10.66,24.13-2.43,27.69-1.7.46-3.89.92-5.61.35Z"/>
      <path class="cls-3" d="M89.65,80.98c-.2-.07-.2-.14,0-.23,2.17-7.91-2.36-16.68-10.53-18.48.21-.18.3-.73.8-.68,8.62,1.1,14.34,8.19,13.44,16.91-.33,3.22-.98,2.42-3.71,2.48Z"/>
      <path class="cls-1" d="M95.26,92.68c.91.01,2.08-.11,2.93,0,.24.03.5-.06.34.35-.56,1.43-4.13,4.6-5.49,5.51-3.86,2.57-6.82,2.92-11.35,3.03,5.45-1,10.88-3.88,13.57-8.89Z"/>
      <path class="cls-8" d="M98.07,84.49c1.17,0,2.34,0,3.51,0l-1.16,4.57c-.38.25-2.6.09-3.28.11.44-1.53,1.06-3.05.94-4.68Z"/>
      <path class="cls-4" d="M35.61,80.75l-23.25.25c-.28-.04-.09-.35-.14-.48l23.39.23Z"/>
      <path class="cls-7" d="M71.63,80.28c-.13.71.36.45.81.47,5.72.19,11.48-.14,17.2,0v.23c-6.07.13-12.17-.1-18.24,0-.15-.35.22-.6.23-.7Z"/>
      <path d="M36.49,39.17c1.26-.18,3.58-.44,3.79,1.25.31,2.42-2.37,1.9-4.04,2.49-1.89.66-3.5,2.1-4.19,4-.55,1.53-.26,5.57-3.08,4.1-1.89-.98-.38-5.25.46-6.73,1.35-2.38,4.3-4.7,7.06-5.1Z"/>
      <path d="M64.09,39.17c1.31-.18,3.34-.48,3.56,1.25.31,2.43-2.41,1.94-4.04,2.49-2.29.77-4.04,2.95-4.56,5.27-.25,1.09.25,2.91-1.6,3.1-3.63.37-1.29-5.94-.29-7.56,1.39-2.24,4.3-4.18,6.92-4.54Z"/>
    </g>
  </g>
</svg>