<?xml version="1.0" encoding="UTF-8"?>
<svg id="Layer_2" data-name="Layer 2" xmlns="http://www.w3.org/2000/svg" viewBox="0 0 100 78.15">
  <defs>
    <style>
      .cls-1 {
        fill: #8581ff;
      }

      .cls-2 {
        opacity: .2;
      }

      .cls-3 {
        fill: #4a1434;
      }
    </style>
  </defs>
  <g id="Layer_1-2" data-name="Layer 1">
    <g>
      <path class="cls-3" d="M7.64,40.04s3.71,34.39,6.51,32.21c2.8-2.18,7.09-10.96,7.09-10.96l-3.29-22.01"/>
      <path class="cls-1" d="M15.46,34.69s2.28,25.7,3.69,26.9c1.41,1.2,60.04,2.39,62.11,0,2.07-2.39,5.99-26.9,5.99-26.9H15.46ZM26.88,52.82c-1.14-.61-2.88-13.19-2.88-13.19-.14-1.27,3.19-.15,3.5,0s2.58,12.66,2.58,13.19-2.05.61-3.19,0ZM36.94,53.01c-1.14-.61-1.38-13.26-1.38-13.26,1.21-1.15,3.19-.15,3.5,0,.3.15,1.08,12.72,1.08,13.26s-2.05.61-3.19,0ZM44.99,52.85c-1.14-.61-1.28-13.3-1.28-13.3,1.21-1.15,3.19-.15,3.5,0,.3.15.98,12.76.98,13.3s-2.05.61-3.19,0ZM55.4,52.86c-.3.17-2.24,1.25-3.5.15,0,0,.17-12.35,1.03-13.31.63-.71,3.17-.43,3.19.1.02.53-.43,12.9-.73,13.06ZM63.23,52.86c-.3.17-2.24,1.25-3.5.15,0,0,.15-12.66,1.26-13.31,1.11-.66,3.17-.67,3.19-.14.02.53-.66,13.14-.96,13.3ZM70.63,52.67c-.3.17-2.24,1.25-3.5.15,0,0,.8-12.66,1.91-13.31,1.11-.66,3.17-.67,3.19-.14.02.53-1.31,13.14-1.61,13.3Z"/>
      <g class="cls-2">
        <path class="cls-3" d="M28.73,45.19c-.07-.35-.13-.69-.2-1.03.07-.02.17-.02.28.02v1.01h-.08ZM28.82,61.29v-.89c-.52,0-.82.9,0,.89ZM28.41,36.67c-.04.3.05.57.41.47v-1.01c-.44.13-.45.15-.41.54ZM28.82,39.82v-1.01c-.45.17-.66,1.01,0,1.01ZM28.82,42.5v-.89c-.5.12-.62.97,0,.89ZM28.82,55.81v-.89c-.65-.05-.46.73,0,.89ZM28.82,58.49v-.78c-.31.1-.4.38-.53.62.17.16.33.22.53.17ZM22,52.04c1.27-.29.71-1.65-.4-1.17-.06.18-.11.34-.18.55.39.06.28.46.57.62ZM19.53,56.18c-.2.05-.41.11-.63.17-.29.95.81,1.45,1.19.5q-.19-.4-.56-.68ZM20.73,54.74c-.63.27-.69,1.22.08,1.31.28-.16.47-.35.62-.63-.09-.34-.28-.57-.7-.69ZM17.21,48.26c-.1.01-.2.03-.32.04-.02-.02-.03-.03-.05-.04.04.33.08.66.11.98.33-.19.59-.7.26-.98ZM16.73,43.94c.23-.34.86-.34.64-.91-.46-.43-.91-.28-1.1.01.02.23.05.46.07.69.09.09.22.16.39.21ZM24.75,48.05c-.18.16-.4.3-.49.54.11.26.19.36.26.65.33-.02.63.07.95-.07-.12-.47-.1-1.05-.72-1.12ZM17.98,56.04c.33-.08.63-.18.77-.53-.19-.16-.22-.3-.26-.56-.31-.1-.59-.01-.77.16.04.3.09.59.13.88.04.02.09.04.14.05ZM20.31,39.37c.22.11.16.27.14.45.34.08.63.03.86-.22.32-1.6-1.41-.83-.99-.23ZM20.91,52.07c-.73.07-.83.64-.4,1.16.43.17.63-.16.87-.39-.11-.35-.03-.65-.47-.77ZM24.13,51.43c.24.11.23.32.11.59,1.75.09,1.07-2.3-.11-.59ZM18.02,38.68c-.07.32-.23.49-.54.63.67,1.66,1.98-.37.54-.63ZM19.53,53.53c-.2.18-.58.16-.63.56.3,1.4,2.09-.12.63-.56ZM23.81,50.47c.38-.26.04-1.01-.37-1.09-.98.35-.48,1.52.37,1.09ZM23.52,46.77c-.57.18-.75.58-.36,1.07.94.22,1.33-.66.36-1.07ZM19.94,35.1c-.21-.19-.48-.32-.75-.36-.58.24-.23,1.01.27,1.19.31-.21.69-.34.49-.83ZM21.27,50.4c.05-.16.1-.31.16-.49-1.02-1.3-2,1.07-.16.49ZM21.67,35.09c-.18.67.65,1.02.96.48.34-.67-.86-1.28-.96-.48ZM23.04,44.27c-.04.3-.34.87.13.94.29.04.66,0,.72-.34.14-.64-.29-1-.85-.59ZM26.15,54.87c-1.24.29,0,1.9.55.73-.08-.32-.12-.66-.55-.73ZM24.66,43.95c-.06-.34-.11-.67-.16-.99-.2.22-.23.65.16.99ZM16.2,35.44c.1.63,1.17.44.99-.22h0c.1-.87-1.19-.48-1,.22ZM17.17,38.27c.53-.78-.59-1.14-1.03-.39,0,.54.72.88,1.03.39ZM19.39,51.99c.91-.35.61-1.28-.24-1.12-.05.18-.17.39-.29.54.1.28.19.54.53.58ZM22.46,41.14c.27-.42.28-.78-.15-1.13-.63.26-.88.75-.37,1.29.19-.06.37-.11.52-.16ZM17.6,47.41c.16,1.07,1.16.23,1.1-.49-.54-.35-.93,0-1.1.49ZM15.89,36.26c-.11-.07-.21-.13-.3-.16.03.28.06.6.09.94.09-.03.17-.08.21-.14v-.65ZM16.78,41.28c.17-.22.33-.42.54-.67-.49-.78-1.29-.48-1.1.42.2.11.36.24.56.25ZM28.14,56.62c-.42-.66-1.01-.58-1.21.01.2.72,1.03.7,1.21-.01ZM24.05,39.35c.01-.09.03-.17.07-.27-.71-.69-1.34-.13-.92.63.32.03.52-.06.82.09-.02-.11-.02-.17-.02-.17-.01-.11.01-.2.05-.28ZM17.75,42.37c.16.05.31.1.47.15.64-.21.48-.97-.1-1.08-.49-.03-.75.56-.37.92ZM19.03,49.07c.66.45.93-.2.83-.77-.55-.52-1.23.14-.83.77ZM19.05,59.02c-.09.13-.18.27-.29.42.27.23.59.58.96.49.08-.12.18-.26.25-.36-.03-.66-.35-.8-.92-.55ZM23.51,61.43c.18-.18.34-.34.49-.5-.1-.33-.08-.67-.47-.81-.15.07-.31.15-.5.25-.06.48,0,.85.48,1.06ZM17.16,50.95c.03.22.05.44.08.66.13-.23.08-.48-.08-.66ZM23.55,58.72c1.2-.71-.82-2-.62-.37.2.12.39.23.62.37ZM21.14,58.48c.06-.33.17-.63-.17-.85-1.2-.18-.76,1.73.17.85ZM22.24,53.51c-.24.2-.46.38-.68.56.1.49.84.72,1.22.33.02-.43-.22-.68-.54-.89ZM18.38,53.22c.08-.12.17-.25.25-.37-.07-.18-.13-.33-.2-.52-.38-.2-.87-.23-.79.33-.06.61.18.68.74.56ZM24.93,56.09c-.68-.12-.49.61-.57,1.04.2.05.38.08.56.12.52-.38.5-.75.01-1.16ZM20.06,43.59c-.06-1.04-1-.73-1.18-.04.38.45.52.45,1.18.04ZM22.77,59.4c-.3-.65-1.59-.48-1.1.3.25.47.99.12,1.1-.3ZM25.82,50.52s.1.05.15.06c-.06-.25-.13-.51-.19-.79-.08.27-.16.53.04.73ZM23.83,52.38q-.73-.16-1.03.46c.5.87,1.47.18,1.03-.46ZM22.64,49c-.09-.33.03-.85-.41-.87-.45-.03-.59.08-.56.52-.11.58.64.59.97.35ZM25.45,59.45c-.06-.35-.35-.62-.7-.56q-.41.2-.3.66c-.01.73.82.31,1-.1ZM27.88,54.46c.28-.56.2-.71-.52-.93-.17.22-.53.28-.47.65.19.14.38.28.58.42.14-.05.28-.1.41-.14ZM21.82,56.19c-.09.27-.17.49-.26.74,1.16.85,1.63-.98.26-.74ZM24.98,61.55c-.45.06-.66.27-.58.64.31.02.63.04.96.06.03-.3.01-.58-.37-.7ZM23.48,54.74c-.15.05-.29.1-.43.15-.04.23-.08.44-.12.68.2.26.44.42.83.28-.17-.34.14-.54.11-.84-.12-.08-.26-.18-.39-.27ZM26.31,57.53c-.57-.18-.95,1.08-.21.99.68.13.82-.86.21-.99ZM18.89,37.95c.36.58.93.77,1.21.02-.38-.62-.92-.76-1.21-.02ZM20.06,40.72c.17-.5-.79-.69-1.06-.32-.2.77.79,1.04,1.06.32ZM21.31,61.12c.28-.75-.75-1.12-1.07-.46.09.17.17.33.26.5.26.12.53.27.81-.03ZM17.32,46.27c-.1-.2-.19-.38-.28-.56-.23-.03-.33-.07-.51-.23.04.38.08.77.13,1.16.2.14.5-.18.66-.37ZM24.55,35.71c.69.15.75-.31.74-.9-.64-.32-1.41.35-.74.9ZM15.86,39.01c.01.14.03.28.04.42.04-.09.07-.2.06-.33-.04-.03-.07-.06-.1-.09ZM24.84,45.48c-.57.08-.67.97-.12,1.07.16.04.28.01.38-.05-.06-.33-.12-.66-.18-1-.03,0-.05-.01-.08-.02ZM26.55,52.98c.03-.16.05-.3.08-.46-.04-.08-.09-.17-.13-.27-1.24-.17-1.29,1.37.05.73ZM26.57,60.76c-.1-.21-.09-.48-.32-.67-1.4.25.08,2.09.32.67ZM27.71,40.27c.05.18.1.4.15.65.08-.12.14-.26.15-.44-.08-.09-.18-.17-.3-.21ZM28.02,37.89c.03-.35-.37-.14-.54-.3-.32-.22-.43.15-.56.4.32.71,1.12.75,1.1-.1ZM27.76,34.83c-.78-.22-1.22,1.03-.3.96.59-.07.49-.51.3-.96ZM21.31,44.62c-.23-.3-.5-.47-.92-.38-.09.14-.19.31-.23.47.21.55,1.08.53,1.15-.09ZM18.99,45.63c-.13.76.35,1.28.93.6.32-.62-.48-.68-.93-.6ZM21.73,38.24c1.1.53,1.3-.97.06-.73-.26.26-.28.49-.06.73ZM26.67,39.15c-.18-.59-.81-.46-.94-.03.3.06.61.13.88.21.03-.06.05-.12.06-.18ZM25.35,54.05c-.17-.76-1.1-.49-1.19.17.08.09.18.2.28.31.36-.19.75-.07.91-.48ZM27.77,61.76c-.52-.26-.82.07-.73.58.28.01.56.03.85.04.06-.18.04-.42-.12-.62ZM25.22,38.22c.03-.14.06-.3.09-.46-.14-.23-.36-.31-.6-.37-.21.14-.41.27-.47.57.35.24.57.66.99.26ZM21.33,47.6c-.1-.23-.19-.44-.28-.66-.28-.08-.51-.02-.71.2.03.24.08.49.14.72.37.1.64.02.86-.26ZM26.54,36.12c-.34.04-.67-.02-.96.15.05.34.25.55.43.77.64.17.66-.48.53-.92ZM18.54,37c0-.33.08-.93-.42-.81-.82.36-.51,1.34.42.81ZM18.72,58.03c-.14-.17-.38-.23-.6-.32.05.28.1.55.14.8.06,0,.12-.02.18-.05.09-.14.19-.29.28-.43ZM23.51,41.36c-.15.08-.31.16-.46.23-.06.68.03.79.68.81.26-.49.22-.64-.22-1.04ZM18.52,49.95c.08-.44-.55-.51-.86-.27,0,.34.05.74.33.95.36.17.39-.46.53-.68ZM23.84,36.3c-.33-.48-.68.25-.95.38.17.91,1.23.24.95-.38ZM21.06,36.31c-.33-.42-.83.13-.71.55.47.64,1.19.06.71-.55ZM22.34,42.77c-.24.19-.45.35-.66.52.06.17.1.3.16.47.7.2,1.18-.54.5-.99ZM18.36,44.24c-.37-.06-.63.03-.82.33.17.22.32.42.48.61.6-.07.61-.49.34-.94ZM22.25,46.66c.11-.28.22-.53.33-.83-.21-.03-.27-.51-.53-.34-.52.24-.23,1.04.2,1.17ZM21.7,62c.28.02.58.05.9.07-.18-.31-.77-.43-.9-.07ZM20.86,41.37c-.39.07-.47.36-.57.63.32.24.37.25,1.02.14.11-.42-.24-.56-.44-.77ZM27.09,59.25q.07.5.25.72c.17-.08.37-.07.53-.2-.05-.2-.09-.37-.13-.55-.22-.03-.43-.06-.65.03ZM28.82,41.39v1.12c1.04.13.92-1.12,0-1.12ZM28.82,53.25v.1c.19.02.34-.03.45-.12-.14.01-.29.02-.45.02ZM28.82,38.7v1.12c.24.03.44-.08.66-.14-.07-.49-.04-1.03-.66-.98ZM28.82,44.07v1.12c.92.22.74-1.03,0-1.12ZM28.82,36.02v1.01c.91.1.74-1.04,0-1.01ZM29.23,46.86h-.18c.06.3.11.6.16.89.32-.13.37-.6.01-.89ZM28.82,54.8v1.01c.64,0,1.05-1.15,0-1.01ZM29.23,58.62c0-.31.25-.53.08-.86-.15-.05-.33-.11-.5-.16v.89c.12.04.24.07.41.12ZM29.47,60.79c-.22-.2-.37-.44-.65-.51v.89c.31.11.56-.1.65-.39ZM38.73,37.56c-.63-.47-.76.17-.86.69.16.13.34.26.58.25.91,0,.45,1.27,1.24,1.44.29-.11.73-.43.4-.74-.07-.35-.12-.6-.52-.57-.65,0-.73-.57-.85-1.07ZM48.16,58.59c.67-.78-.56-1.76-1.04-.73.09.64.4,1.02,1.04.73ZM65.84,62.27c-.17-.71-.72-.85-1.39-.78-.12,1.01.62,1.57,1.39.78ZM47.42,62.91c.2,0,.4,0,.59,0-.07-.05-.14-.11-.22-.15-.15.04-.28.09-.38.15ZM55.92,52.08c-.13.02-.26.05-.38.07-.05.43-.09.69-.13.71-.04.02-.1.05-.18.09.23.39.53.51.98.19.53-.24.04-.88-.29-1.07ZM36.21,37.56c-.27-.15-.55-.23-.86-.1-.09.18-.18.36-.28.56.16,1.12,1.7.48,1.14-.45ZM44.63,52.18c-.1.22-.18.42-.27.62.15.35.45.49.84.56.13-.1.22-.2.29-.31-.18-.06-.35-.13-.51-.21-.13-.07-.25-.31-.36-.67ZM50.49,57.43c-.12.05-.26.11-.39.17-.37.62-.5.35.05,1.01.29.02.58.03.87.05.11-.78.06-.89-.53-1.23ZM73.09,41.3c.63.03,1.22-1.08.24-1.31-.61.25-1.15,1.12-.24,1.31ZM43.75,54.71c.76-.08.74-1.24.04-1.29-.89.34-.96.96-.04,1.29ZM45.54,54.98c-.16-.08-.34-.16-.53-.25-.22.14-.42.27-.61.4-.16,1.26,1.83.93,1.14-.15ZM48.4,60.63c-.41-.69-1.14-.65-1.33.16.37.87,1.09.74,1.33-.16ZM72.37,61.62c.5-.43.16-1.26-.46-1.37-.29.15-.64.21-.71.63.32.41.82.42,1.17.74ZM68.45,35.02c-.13-.09-.22-.23-.35-.33h-.44c-1.22.53.99,2.32.79.33ZM69.14,35.98c-.16.13-.33.27-.49.41-.13.91.63,1.04,1.19.66.03-.44-.17-1-.7-1.07ZM54.82,59.85c.5-1.08-.58-1.53-1.05-.42.12.5.7,1,1.05.42ZM42.41,45.34c.18-.22.34-.41.56-.68-.64-1.6-2.08.14-.56.68ZM51.22,62.49c.73.7,1.3-.16.93-.88-.61-.49-1.11.28-.93.88ZM51.13,56.56c.11.24.21.46.3.68.15.05.29.1.49.18,1.03-.79-.14-2-.8-.86ZM56.42,57.71c-1.03-.72-1.82.71-.58,1.01.19-.17.39-.34.58-.51v-.5ZM40.37,54.05c.22.86.7.74,1.25.24.26-.7-1.28-1.18-1.25-.24ZM43.56,56.21c-.21.08-.41.17-.52.42.37,1.84,2.39-.3.52-.42ZM46.31,38.58c1.14-.2.7-1.41-.29-1.15-.38.38-.24,1.05.29,1.15ZM74.83,38.66c-1.06.09-1.22.81-.22,1.19.7,0,.81-.9.22-1.19ZM72.36,41.44c-.1-.02-.2-.03-.3-.03-.03.35-.07.72-.11,1.12.41-.09.72-.63.41-1.09ZM72.57,46.39c.51.32,1.02.29,1.15-.29.28-1.09-1.52-.66-1.15.29ZM43.6,43.98c.08,0,.16-.02.23-.04-.02-.43-.03-.84-.04-1.23-.08,0-.18.02-.27.08-.56.38-.39.8.09,1.19ZM50.94,47.69v-.58c-.51-.57-.91-.48-1.21.21.12.21.22.39.31.55q.47.03.9-.19ZM54.82,53.53c-.58-.27-1.14.19-.92.81.11.52.71.16,1.02.03.37-.2.01-.56-.1-.84ZM62.98,59.06c-.79-.67-1.44.12-.81.86.48.52,1.04-.31.81-.86ZM38.46,58.78c-.36.23-.73.29-.81.75.61.69,1.07.77,1.32-.2-.07-.3-.29-.4-.52-.54ZM41.71,55.53c.13.25.34.42.65.52.32-.11.55-.28.63-.62-.24-.88-1.11-.73-1.28.1ZM75.65,39.96c-.16.24-.29.46-.43.67.78,1.68,2.01-.43.43-.67ZM53.64,55.15c-.47-.59-1.27-.13-1.19.5.53.67,1.39.39,1.19-.5ZM44.81,62.87c.18,0,.36,0,.54,0-.02-.03-.05-.07-.08-.1-.18-.02-.33.02-.45.09ZM75.39,35.67c.63.41,1.23-.06,1.04-.77-.1-.07-.2-.14-.29-.2h-.4c-.34.18-.56.57-.34.97ZM45.11,57.44c-1.7.53.12,1.91.58.67-.08-.3-.13-.61-.58-.67ZM62.71,37.4c-.27.06-.52.11-.75.16-.05.21-.09.39-.13.56.16.17.31.33.48.51.66-.28,1.21-.78.4-1.24ZM46.32,58.74c-1.49.77.73,2.29.6.38-.23-.11-.4-.22-.6-.38ZM65.57,56.1c-.72.12-1.31.62-.58,1.21.78.39,1.03-.74.58-1.21ZM81.76,40.4c-.27-.12-.48-.46-.89-.27-.09.14-.19.29-.3.46.29.88,1.43.91,1.19-.2ZM46.41,56.09c-.93.22-.78,1.13.13,1.19.18-.15.35-.29.49-.41.06-.49-.28-.63-.62-.77ZM61.81,56.74c.25.78,1.36.66,1.33-.16-.3-.68-1.06-.44-1.33.16ZM73.84,43.35c-.33-.85-.73-.82-1.29-.18.04.84,1.02.94,1.29.18ZM86.6,38.6c.07-.38.13-.74.18-1.08-.16-.02-.34,0-.53.11-.53.26-.12.83.34.97ZM75.08,49.59c-.15-.08-.29-.16-.43-.23-.23.07-.44.14-.58.37,0,.57.15,1.12.83.77.45-.08.18-.56.19-.9ZM60.32,53.56q-.45-.23-1.05.12c-.22,1.33,1.46,1.12,1.05-.12ZM76.56,56.91c-.11-.67-.45-.94-1.06-.57-.56.54.71,1.66,1.06.57ZM40.97,57.38c.76-.1.75-1.18.03-1.29-.34.1-.6.4-.64.73,0,.27.46.35.61.56ZM40.25,60.51c-.37-.38-1.01-.45-1.14.18.05,1.18,1.41.7,1.14-.18ZM49.7,56.64c-.41-.57-1.07-.64-1.31.1.45.9.98.78,1.31-.1ZM71.74,35.98c-.41.21-.57.81-.27,1.14.96.34,1.46-1.15.27-1.14ZM77.75,52.21c-.25-.12-.46.24-.73.07-1.5.93,1.32,1.77.73-.07ZM68.51,37.93c-.3-.93-1.43-.53-1.2.39.62.35.88.27,1.2-.39ZM34.82,52.2c-.96-.56-1.71,1.17-.21,1.03.16-.18.25-.38.32-.56-.04-.17-.07-.31-.11-.48ZM56.09,41.5c-.01.3-.02.63-.04.99.36-.15.52-.7.04-.99ZM41.63,37.87c-.16-.24-.38-.39-.67-.47-.15.05-.3.1-.39.14-.81.89,1.12,1.48,1.06.34ZM65.3,40.1c-.12.06-.22.12-.3.16-.19-.06-.18-.37-.5-.28-.02,2.17,2.1.99.8.12ZM75.06,42.3c.18-.54-.29-1.21-.8-.92-.57.78-.06,1.48.8.92ZM49.02,48.04c-.56.45-.67.96.05,1.31.83-.22.82-1.12-.05-1.31ZM29.72,48.86c.2.69,1.08.38,1.2-.22-.19-.77-1.38-.61-1.2.22ZM58.1,50.57c.59.15.79-.2,1.03-.68-.64-.83-1.72-.23-1.03.68ZM40.46,51.36c.21.77,1.1.79,1.18-.17-.39-.61-1.02-.59-1.18.17ZM57.43,59.1c-.09-.44-.81-.23-.86.13-.2.84.84,1.09,1.2.36-.04-.27-.29-.28-.34-.49ZM74.17,57.53c-.68.28.27,1.01.64,1.17.64-.56.22-1.54-.64-1.17ZM31.14,50.41c.48.47.87.19,1.12-.34-.34-1.02-1.29-.7-1.12.34ZM65.78,37.84c-.31-.49-1.1-.5-1.27.12.21.84,1.43.72,1.27-.12ZM78.02,40.8c.25.87,1.15.35,1.18-.39-.42-.51-1.23-.34-1.18.39ZM33.23,35.73c.72-.57.37-.79-.19-1.03h-.29c-.59.45-.29,1.46.48,1.03ZM52.3,59c-.16-.09-.28-.16-.43-.25-1.96.62.78,2.21.43.25ZM49.62,59.17c-.61-.53-.97-.5-1.15.32.19.2.35.38.53.57.25-.18.99-.53.62-.89ZM34.8,36.19c-.36-.23-.95-.02-1.05.41.05,1.17,1.43.62,1.05-.41ZM64.11,41.52c-.02.3-.03.63-.05.98.02,0,.03,0,.04,0,.02-.24.35-.34.31-.68-.09-.13-.2-.22-.3-.3ZM39.04,35.51c-.16-.27-.3-.63-.52-.81h-.61c-.02,1.05,0,1.46,1.13.81ZM50.63,44.22c-.7-.25-.97.88-.4,1.11.88.06,1.1-.54.4-1.11ZM33.12,40.02c-.24.03-.46.06-.72.1-.02.49.13.87.46,1.19.9-.28.67-.66.26-1.28ZM42.37,49.42c-.51.46-.85.68-.15,1.19.29.24.49-.17.68-.35.35-.36-.14-.78-.52-.84ZM57.74,54.02c-.07-.35-.35-.44-.56-.57-.42.03-.63.27-.72.64.13.16.27.33.39.47.53.17.67-.23.89-.55ZM73.99,47.29c.13.7.82.96,1.22.33-.14-.65-1-1.24-1.22-.33ZM47.68,44.1c.02.33.05.67.07,1.01.01,0,.03,0,.04,0,.31-.13.52-.23.61-.6-.28-.26-.52-.38-.71-.4ZM70.84,34.84c-.84-.41-.95.53-.56,1.09.57.1,1.35-.8.56-1.09ZM50.22,56.02c.55.21,1.16-1.15.29-1.18-.65,0-.93.85-.29,1.18ZM72.66,37.92c.05.13.11.29.15.39.22.11.39.19.57.28.08-.04.16-.08.26-.14q-.07-.33.18-.6c-.2-.7-1.08-.66-1.17.06ZM64.24,55.75c.04-.62-.03-.72-.59-.96q-.34.27-.5.71c.23.58.62.67,1.09.25ZM53.46,57.56c-.13-.04-.27-.08-.43-.13-.42.27-.63,1-.08,1.3.77-.31.81-.4.51-1.17ZM72.24,39.37s0,.18-.02.39c.15-.14.19-.27.29-.64-.16-.21-.36-.29-.6-.46-.15.1-.28.23-.37.35.41.04.7.16.71.36ZM65.99,39.69c.34.33,1.05,0,1.18-.54-.42-.8-1.47-.26-1.18.54ZM45.9,61.78c-.18,1.86,1.88.49.57-.35-.24.08-.45.15-.57.35ZM77.52,44.12c-.86.18-1.15.63-.32,1.19q.41-.11.65-.3c-.07-.31.07-.87-.32-.88ZM60,38.5c.68-.23.36-1.19-.32-1.16-.59.47-.6,1.26.32,1.16ZM67.07,60.86c-.12-.85-1.13-1.02-1.07-.12.07.1.18.18.14.34.07.68.82.22.93-.22ZM71.2,62.11c-.21-.74-1.59-.7-1.19.21.39.38,1.03.41,1.19-.21ZM49.74,61.97c-.21-.19-.4-.35-.6-.53-1.45.4,0,2.15.6.53ZM69.44,58.62c.21-.12.21-.39.31-.58-.09-.27-.19-.5-.48-.63-1.13.41-.73,1.1.17,1.21ZM49.78,39.34c.12.17.17.34.33.47,1.72.18.32-2.21-.33-.47ZM64.85,43.78c.26.18.73-.1.85-.34.21-.99-.99-.89-1.22-.07.2.12.26.26.36.42ZM70.13,53.54c-.59.9.8,1.54,1.07.51-.32-.26-.69-.91-1.07-.51ZM48.17,52.34c.01.28.02.46.02.51,0,.18-.25.31-.62.38.47.12.88-.5.6-.89ZM60.42,56.67c-.15-.41-.46-.51-.91-.47-.11.26-.22.5-.32.74.54.7.92.4,1.24-.27ZM55.78,49.36s-.03.02-.05.03c-.02.42-.05.82-.07,1.19.73-.02.86-.84.12-1.22ZM43.69,51.91c.18-.06.35-.1.52-.13.33-.64-.28-1.16-.91-.92-.32.38-.06.86.38,1.05ZM86.19,40.96c.04-.23.08-.46.12-.68-.24.19-.24.47-.12.68ZM78.28,42.68c-.1.26-.18.5-.26.71.43.82,1.07.42,1.11-.33-.11-.15-.2-.26-.32-.42-.19.02-.35.03-.53.04ZM30.56,50.85c-.38-.13-.64,0-.74.24.05.29.09.55.13.78.22.05.38-.11.54.02.46-.02.46-.88.08-1.04ZM79.95,48c.2-.15.38-.28.58-.43-.11-.72.02-.65-.67-.63-.8-.16-.57,1.03.09,1.06ZM56.48,51.44c.44,1.08,1.31.36,1.12-.48-.26-.03-.52-.06-.81-.1-.13.19-.22.37-.32.58ZM40.2,44.3c-.23-.16-.43-.17-.64-.14.02.31.05.62.07.94.13.05.26.12.4.09.17-.27.24-.56.16-.89ZM35.3,56.43c-.25.41-.03.81.4.95,1.04-.27.08-2.02-.4-.95ZM75.59,49.18c.79.28,1.25-.42.62-1.03-.63-.04-1.24.57-.62,1.03ZM67.06,58.12c-.08-.21-.17-.44-.28-.71-1.67-.13-.36,2.19.28.71ZM64.19,39.56s0,.13,0,.26c.02,0,.03,0,.05-.01.38-.46.31-.98-.17-.95-.28.16-.72-.03-.84.32.55.01.96.14.97.38ZM48.29,42.11c0-.53-.46-.85-.82-.67.03.36.07.76.1,1.19.3.02.5-.25.72-.51ZM31.07,42.21c.22.51.66.27,1.07.17.03-.16.07-.32.1-.47-.43-.87-1.04-.49-1.17.3ZM66.54,41.34c-.46.07-.5.4-.59.72.05.51.91.76.96.13.25-.44.05-.72-.37-.85ZM67.03,55.14c-.42-.36-.79-.1-1.16,0-.06,1.05,1.33,1.2,1.16,0ZM44.23,35.53c-.03-.37-.15-.59-.38-.84h-.32c-1.03.58.03,1.61.71.84ZM74.39,36.03c-1.35.24.54,2.07.6.55.04-.3-.3-.61-.6-.55ZM43.95,46.45c-.02-.3-.03-.61-.05-.91-.38-.19-.73-.07-.74.57.06.44.47.5.79.34ZM67.06,36.46c.09-.59-1.14-.75-.97-.02-.07.88,1,1,.97.02ZM52.06,34.83c-.9-.13-1.01.25-.58.95.62.21.7.16.91-.54-.16-.1-.26-.22-.33-.41ZM58.55,36.06c-.4.06-.57.32-.71.61.06.74,1.32.6,1.22-.14-.2-.19-.29-.37-.52-.47ZM36.58,52.34c-.28.31-.24.88.35.82.11,0,.21,0,.29-.02-.1-.04-.19-.08-.28-.13-.13-.07-.25-.31-.36-.67ZM47.73,39.98c.24-.2.44-.38.66-.56-.06-.38-.41-.53-.59-.8-.5.3-.59.41-.64.83.28.13.42.25.56.53ZM53.6,36.87c-.04-.3-.07-.54-.11-.8-.39,0-.78.16-1.06.42.15.7.69,1.03,1.17.38ZM41.39,35.81c.42-.64.07-1.38-.66-.92-.6.6-.05,1.1.66.92ZM71.06,56.49c-.56-.4-.59-.4-1.05-.03.03.18.06.35.07.53.02.24.32.16.38.35,0,.02.07.02.1.03.17-.1.34-.19.52-.29,0-.2,0-.41-.02-.59ZM73.11,50.72q-.31.24-.49.65c.21.54.57.91,1.03.35,0-.24.05-.46-.05-.68-.16-.11-.33-.21-.49-.32ZM43.17,48.32c-.24.64.57,1.24.97.75-.02-.25-.05-.51-.07-.78-.33-.22-.62-.21-.91.03ZM35.67,60.1c1.42-.93-.58-1.9-.67-.54.23.19.44.36.67.54ZM83.24,52.45c-.37-.32-1.15-.49-1.2.2.06.84,1.33.63,1.2-.2ZM83.52,37.56c-.34.35.18.92.54,1.04.55-.31.43-.66.25-1.1-.15-.36-.57-.13-.78.06ZM31.03,36.02c.02.28.04.52.06.77.19.16.3.42.62.49.15-.25.31-.5.48-.77-.27-.46-.68-.57-1.15-.49ZM84.1,46.66c.69-.51.29-1.56-.54-1.1-.42.39,0,.96.54,1.1ZM34.36,44.11c-.54.23-.6.32-.59.92.55.35.86.14,1.19-.24q-.22-.48-.6-.69ZM30.82,45.83c-.18-.18-.35-.34-.57-.55-.22.16-.38.27-.52.38v.59c.44.54,1.06.22,1.09-.42ZM59.78,50.8c-.18.11-.35.21-.5.3-.13.65.16.84.48.79,0-.31.02-.68.03-1.09ZM45.67,39.04c-.4-.32-.94-.34-1.2.06.39-.12.81-.12,1.2-.06ZM76.42,45.72c-.36-.43-1.22-.19-1.19.35.17.58,1.52.66,1.19-.35ZM63.12,61.98c-.37-.49-1.33-.48-1.3.28.49.46,1.24.59,1.3-.28ZM62.71,35.93c.15-.29.28-.55.42-.82-.14-.17-.27-.33-.47-.42h-.29c-.14.18-.29.36-.43.52.07.44.39.56.77.71ZM40.69,43.82q.68.11.83-.52c.06-1.15-1.75-.23-.83.52ZM57.93,52.88c.11.15.18.25.25.35.42.17.7-.18.91-.48.17-.9-1.17-.69-1.16.13ZM70.1,37.62c-.24.91.8,1.23,1.1.33-.42-.55-.46-.93-1.1-.33ZM79.38,36.77c.38.62,1.06.39,1.19-.27-.32-.6-1.41-.52-1.19.27ZM36.84,54.82c-.2.18-.32.27-.56.39.3.27.26.63.68.72,1.15-.07.61-.88-.12-1.11ZM45.54,36.31c-.5-.4-.84-.16-1.14.31.09.44.46.51.82.65.2-.3.51-.52.32-.97ZM46.62,54.6c.94-.79-.61-1.65-.9-.54.18.41.51.52.9.54ZM83.46,51.23c-.21.55.24.76.63.64.06-.3.13-.6.19-.9-.27-.25-.71-.23-.82.27ZM73.19,48.05c-.57.22-.54.67-.26,1.14q.5.08.95-.49c-.18-.24-.26-.57-.69-.65ZM70.94,51.12c-.04.28-.08.53-.11.74.25-.17.27-.5.11-.74ZM78.89,38.46c.07-.18.15-.39.25-.62-.55-1.4-2.04.97-.25.62ZM63.8,46.8c-.02.36-.05.72-.07,1.07.04,0,.07.02.12.02.73-.33.83-1.01-.05-1.09ZM65.1,49.13c1.06.14.46-1.52-.22-.98-.44.26-.35,1.01.22.98ZM69.73,60.51c-.19-.15-.35-.27-.5-.39-.53.22-.56.31-.34,1.18.66.13.98-.13.84-.79ZM29.62,35.29c.71.9,1.96.22.85-.6h-.23c-.28.11-.48.3-.62.6ZM74.03,60.48c-.56.54.62,1.09,1.04.66.16-.68-.49-1.07-1.04-.66ZM51.81,46.56c.13,0,.23-.03.31-.11.01-.28.03-.56.04-.84-.02-.02-.03-.04-.05-.06-.88-.38-1.36.82-.31,1.01ZM76.18,61.71c-.28-.14-.8-.32-.84.15-.03.31.06.54.23.67.26-.02.51-.04.76-.05,0-.29.09-.59-.14-.77ZM67.83,61.44c-1.26.4-.28,1.58.57.9-.16-.37-.07-.81-.57-.9ZM39.12,55.58c.48.82,1.03.43,1.12-.38-.29-.55-1.24-.24-1.12.38ZM77.24,50.75c.12-.15.28-.26.26-.34-.11-.32.27-.33.27-.59-.29-.79-2.11-.05-.53.93ZM57.87,55.38c.2.24.34.42.52.67.18-.09.32-.17.48-.25.03-.17.06-.33.1-.51-.44-.65-.83-.78-1.09.08ZM50.95,50.12c-.12-.23-.24-.47-.4-.79-1.58.43-.26,1.86.4.79ZM32.65,38.36c.25.04.46.08.69.12.09-.17.19-.34.31-.56-.45-.89-1.74-.45-.99.44ZM86.18,35c-.39.58.45,1.02.91.67.03-.2.06-.37.08-.51-.18-.42-.54-.59-.99-.16ZM80.2,39.81c.13-.21.25-.42.38-.64-.05-.09-.12-.2-.18-.31-.32-.02-.61-.03-.86,0-.24.29-.06.55-.09.83.27.03.49.25.75.12ZM84.5,48.69c-.08-.57-1.07-.87-1.03-.12.02.1-.09.22-.13.3.32.59,1.01.42,1.16-.19ZM57.69,45.77c-.34-.36-1.1-.27-1.08.33.04,1.01,1.39.35,1.08-.33ZM52.28,37.71c-.14-.11-.28-.23-.46-.38-1.79.71.57,1.99.46.38ZM34.23,49.56c-.37-.05-.62.29-.51.64.14.43,1.06.39,1.23-.03-.19-.7-.17-.54-.72-.62ZM60.67,55.71c.73.53,1.25.07.85-.75-.49-.15-1.5.2-.85.75ZM53.13,62.8c-.07.06-.13.11-.19.16.14,0,.28,0,.41,0-.05-.08-.11-.14-.22-.16ZM61,39.7c.17-.1.37-.19.58-.26.02-.12.03-.25.07-.38-1.13-.81-1.35.62-.81.84.05-.09.1-.16.16-.19ZM35.15,54.01c.13.49.87.88.92.19-.07-.21.08-.34.12-.54-.37-.53-1.11-.32-1.04.34ZM59.23,43.31c.13.35.34.8.82.65.04-.09.07-.17.11-.25.02-.23.04-.46.07-.68-.29-.66-.52-.24-.99.28ZM42.87,52.3c-.35-.11-.88-.3-1.05.17-.02.95,1.43,1.05,1.05-.17ZM77.1,37.13c.26-.03.25-.34.49-.23.76,0-.06-.96-.5-.93-.57.33-.42.81.02,1.16ZM76.62,39.37c.4.6.83.57,1.3.08-.31-.79-.99-.96-1.3-.08ZM53.63,61.01c0-.59-.02-.62-.69-.89-.87.75-.17,1.51.69.89ZM71.74,49.32c-.39.44-.49,1.37.3,1.35.16-.24.33-.49.49-.73-.14-.39-.54-.33-.79-.62ZM80.95,59.92c.55.01,1.32-.31.73-.88-.55-.48-1.39.51-.73.88ZM55.62,62.97c.09,0,.18,0,.26,0-.04-.03-.07-.05-.12-.08-.05.03-.1.05-.14.08ZM49.98,41.71v.64c1.41.81,1.36-1.72,0-.64ZM63.67,37.15c.34-.11.72-.05.78-.51-.4-.48-.57-.78-1.17-.4-.07.38.06.68.39.9ZM36.08,62.49c.41-.45.18-.89-.42-.95-1.04.36-.46,1.3.42.95ZM38.12,53.6c-.49.07-.36.53-.18.88,1.24.3,1.39-1.24.18-.88ZM54.46,56.07c-.69.2-.8,1.04-.06,1.22.8-.09.63-.89.06-1.22ZM78.54,61.56c-.25.06-.61.22-.51.53.02.09.05.16.09.23.35-.04.66-.08.96-.12-.06-.36-.09-.76-.54-.65ZM35.11,46.01c.12.59.47.65.74.45-.02-.33-.04-.65-.06-.97-.32-.09-.59.06-.68.53ZM80.9,42.84c-.1.19-.2.39-.31.61,1.1,1.05,2.05-.76.31-.61ZM57.66,48.68c.07-.81-1.1-.67-1.21,0,.26.5,1.05.62,1.21,0ZM40.61,59c-.6.83.58,1.1,1.14.54-.34-.38-.62-.96-1.14-.54ZM84.66,39.49c.33.32.7.27,1.08.2.46-1.12-.93-1.27-1.08-.2ZM44.51,60.39c-.23.59.55,1.24.95.64.46-.57-.44-1.12-.95-.64ZM73.72,62.5c.18-.51-.12-.78-.49-1.05-.33.18-.5.45-.63.77.26.41.71.33,1.13.28ZM69.05,39.51c.17-.1.36-.18.56-.25-.14-.37-.57-.61-.92-.26-.16.27-.05.58.16.77.07-.13.14-.22.21-.26ZM85.95,36.72c-.15-.7-.83-.91-1.21-.22.12.24.17.75.58.58.29-.09.54.03.63-.36ZM30.42,53.42c-.65.05-.85.5-.54,1.03.82.48,1.23-.53.54-1.03ZM62.88,54.56c.24-.51.18-.72-.34-1.07-.19.09-.57.15-.46.46,0,.12-.17.28-.23.41.33.3.68.28,1.03.2ZM56.26,55.65c.25-.41-.31-.46-.47-.74-.29-.26-.49.3-.68.48.13.55.88.79,1.16.25ZM79.84,54.84c-.29.12-.39.35-.49.65.35.81,1.05.55,1.11-.24-.16-.25-.37-.36-.62-.41ZM30.44,43.87c.96-.55-.2-1.75-.77-.74.09.2.17.38.26.57.17.05.34.11.52.17ZM60.75,36.23c-.27.26-.12.51.02.83.49,0,1.22.15,1.01-.59q-.57-.34-1.02-.24ZM65.96,49.9v.36c1.53,1.13,1.5-1.6,0-.36ZM55.88,46.71c-.02.39-.04.77-.06,1.15.46,0,.95-.62.06-1.15ZM49.26,37.39c-.29.12-.62.12-.73.46.23.68.28.72.94.6.09-.47.36-.71-.21-1.06ZM37.54,36.66c-.11-.94-1.06-.64-.99.16.03.78.89.35.99-.16ZM57.64,35.01c-.09-.25-.42-.16-.62-.28-.42-.07-.35.48-.39.74.4.62,1.31.28,1.01-.46ZM81.19,57.18c1.17-.13.38-1.62-.51-.8-.02.34.12.83.51.8ZM58.81,44.24c-.41-.09-.7,0-.77.44q.17.29.13.6c.43.15.67-.18.94-.36.07-.35-.16-.5-.29-.68ZM55.2,60.7c.07.17.13.31.23.45.51.24.91.15.96-.46-.17-.3-.44-.41-.79-.46-.18.14-.28.28-.41.47ZM58.84,61.1c.31-.91-.47-1.22-.94-.51-.15.57.52.96.94.51ZM71.32,55.28c-.14.63,1.16,1.04,1,.13h0c.2-.73-.87-.73-1-.13ZM61.66,57.59c-.36-.29-.59,0-.84.12-.06.25.13.5-.1.7-.05.04.08.21.15.17.31-.1.48.11.81.02,0-.38.04-.71-.02-1.02ZM36.85,60.34c-.45.63-.44.8.12,1.07.85-.24.9-1.19-.12-1.07ZM66.09,44.26c-.48.72.6,1.39.98.52-.03-.57-.49-.87-.98-.52ZM39.13,36.59c.08.83.65.52,1.1.15-.08-.86-.86-1-1.1-.15ZM84.19,34.74c-.44-.16-.65.27-.88.56q.22.14.3.28c.28.56.83.06,1-.32-.14-.18-.28-.35-.42-.52ZM30.03,37.39c-.14.14-.28.28-.42.43.11.21.2.38.3.58.26,0,.48.03.73-.04.24-.69.13-.88-.6-.96ZM72.25,45.19c.57-.48.07-.93-.47-1.03-.03.32-.07.64-.11.97.16.09.35.13.58.07ZM77.11,41.52c-.28,0-.45.14-.48.41.93,1.57,1.86-.63.48-.41ZM32.95,43.9c.76.03.68-1.23-.1-1.01-.7.12-.57,1.01.1,1.01ZM55.26,39.35c.41.07.73.2.84.35.41-.34.17-1.14-.74-.8,0,.15-.07.3-.1.45ZM82.39,41.5c-.77.79.2,1.42.9.6-.09-.32-.56-.76-.9-.6ZM81.34,53.49c-.2.27-.56.26-.72.52.27,1.22,2.25-.1.72-.52ZM57.4,57.28c.77-1.05-.39-1.51-.93-.54.2.32.46.53.93.54ZM51.34,48.32q-.06.54.16.9h.51c.01-.3.02-.62.03-.94-.22-.15-.5-.18-.7.04ZM59.84,49.13c.01-.32.02-.64.04-.98-.02,0-.03-.01-.04-.02-.38.11-.66.35-.7.81.23.2.49.24.71.19ZM48.02,49.61c.02.29.03.57.05.84,0,0,0,0,0,0,.15-.21.14-.62-.05-.84ZM50.81,52.18h-.65c-.73.95.08,1.1.91.8-.19-.27-.24-.47-.26-.8ZM67.97,58.78c-.7,0-.89.59-.39,1.04.43.14.65-.1.83-.41q-.15-.42-.43-.63ZM61.4,61.09c-.05-.2.16-.34.26-.48-.13-.4-.7-.48-1.04-.34-.04.18-.08.34-.13.52.15.25.87.79.91.29ZM50.42,61.43c.25-.19.46-.38.62-.62-.58-.99-2.12-.1-.62.62ZM65.98,47.39c.2.27.32.43.45.6q.42-.1.6-.74c-.17-.5-1.07-.47-1.05.14ZM31.68,46.66c-.44.18-.42.58-.57.9.53.54.88.27,1.19-.32-.17-.28-.42-.4-.61-.58ZM43.15,40.63c.05.14.09.26.14.41.18.07.32.1.45.11,0-.42-.02-.78-.02-1.05-.19-.02-.4.11-.57.53ZM65.7,54.05c-.08-.28-.25-.48-.51-.65-.33.13-.38.44-.6.65.23.61,1.04.81,1.11,0ZM67.7,54.57c.72.15.93-.79.27-1.08-.68.08-.92.76-.27,1.08ZM74.68,54.86c-.16.06-.26.08-.46.12-.46.88.57,1.35,1,.51q-.15-.33-.54-.63ZM64.68,35.49c.16.24.4.23.61.33.49-.22.51-.86.11-1.12h-.34c-.45.14-.3.34-.37.8ZM58.98,39.02c-.12-.24-.4-.15-.56-.3-1.46.53.75,2,.56.3ZM44.19,62.39c.12-.6.11-.62-.48-.85-1.1.36-.36,1.44.48.85ZM57.39,38.39c.83-.36.02-1.09-.61-.92-.58.39.1,1.07.61.92ZM40.21,50.04c-.04-.17-.14-.29-.26-.36.02.28.03.55.05.81.12-.08.21-.23.21-.44ZM71.03,59.1c-.37-.44-1.04.07-1.05.52.09.51,1.01.46,1.07,0-.16-.16.07-.32-.02-.51ZM78.29,58.92c-.38.57-.38.66.03,1.02.28-.15.85-.14.81-.49-.17-.32-.4-.8-.83-.53ZM77.99,34.95c.03.2,0,.41.09.61.17.1.44-.02.57.23.66.01.49-.73.12-1.05-.25.11-.56-.06-.78.21ZM82.14,50.24c.25.79,1.42.12.85-.52-.39-.32-1.16-.03-.85.52ZM53.61,39.37c.01-.14-.02-.31-.14-.49-.16-.04-.3-.08-.42-.11-.19.17-.35.32-.5.46.03.33.16.51.33.59.02-.05.05-.09.07-.12.14-.16.38-.27.67-.33ZM51.95,50.88s-.01-.02-.02-.03q-.47.14-.74.41c.06.44.42.69.73.66,0-.3.01-.65.03-1.04ZM36.19,51.41c-.04-.65-.75-.77-1.09-.17,0,.95.82.73,1.09.17ZM81.77,45.72c-.58-.58-1.48.02-.87.7.66.1.99-.16.87-.7ZM76.4,37.68c-.42-.4-.97-.09-1.16.39.31.62,1.4.48,1.16-.39ZM54.97,62.4c.01-.44-.03-.77-.46-.93-.18.15-.33.28-.49.41-.07.42.17.46.32.78.22.28.47-.14.64-.27ZM81.33,38.61c.46-.3.78-.99.05-1.19-.66.28-.92,1.08-.05,1.19ZM49.32,41.07c.59-.21.16-1.11-.39-.82-.11.06-.25.06-.36.09-.48.51.35,1.02.75.73ZM85.4,44.11c-.19.03-.4.07-.42.24-.02.21-.29.19-.29.39.09.37.44.45.75.36.05-.27.1-.55.15-.82-.07-.05-.14-.11-.19-.18ZM33.3,48.24c-.83-.26-1.17.83-.29.99.55.06.69-.65.29-.99ZM34.27,61.29c.16-.08.3-.16.44-.24.19-.45.19-.71-.34-.84-.67.11-.85.91-.1,1.08ZM58.32,62.97c.17,0,.35,0,.52,0-.12-.09-.29-.11-.52,0ZM41.82,60.49c-.11.84.84,1.12,1.09.3-.15-.68-.62-.64-1.09-.3ZM76.31,59.16c-.59-.39-1.14-.11-.97.61.51.52,1.22.03.97-.61ZM31.21,44.4c-.05.21-.1.4-.14.59.51.57,1.1.04,1.12-.59-.21-.11-.38-.2-.56-.29-.15.11-.29.2-.41.28ZM41.17,62.63c.26-.19.16-.58.5-.79-.77-1.07-1.78.82-.5.79ZM56.71,61.72c-.05.37-.08.97.34,1.04.2-.2.51-.25.62-.57-.03-.6-.46-.69-.96-.47ZM37.53,39.25s0-.03,0-.05c-.19-.57-1-.63-1.1.03,0,.02,0,.04.01.05.36-.09.74-.09,1.09-.03ZM76.3,54.45c.8-.39-.73-1.66-.95-.24.19.36.61.31.95.24ZM68.38,56.35c-1.39-.81-1.16,1.45-.44.82.23-.32.59-.29.44-.82ZM63.95,52.17c-1.4.41-.16,1.75.54.59q-.24-.42-.54-.59ZM48.9,50.67c-.31.35-.27,1.02.14,1.23,1-.23.73-.95-.14-1.23ZM76.34,51.03c-.24-.22-.47-.24-.73-.24-.59.49-.16,1.11.54,1.09.07-.29.13-.57.19-.85ZM74.11,52.65c.05,1.05,1.05.48.98-.16-.16-.46-1.02-.42-.98.16ZM59.09,47.26c-.25-.45-.64-.38-1.05-.32-.22,1.12.63,1.27,1.05.32ZM40.88,45.48c-.6.15-.47.83,0,1.08.19-.09.32-.18.45-.22.55-.19-.03-.98-.45-.86ZM82.07,39.68c.33.06,1.06.39.92-.18,0-.3.13-.53-.17-.76-.26.09-.54.12-.75.32v.63ZM67.99,40.1c-.21.05-.38.1-.55.14-.06.18-.11.34-.16.48.4.91,1.92-.15.7-.62ZM35.6,41.23c-.01-.44-.02-.8-.03-1.05-.13.06-.29.16-.47.32-.08.3.21.62.5.73ZM30.83,40.36c-.15-.56-.93-.25-1.05.22.23.87,1.23.49,1.05-.22ZM35.06,43.45c.23.23.45.3.64.26-.01-.32-.03-.62-.04-.91-.39-.04-.76.18-.6.65ZM39.52,57.65c-.11.17-.21.32-.3.46.22.67.43.57.96.36.27-.54-.08-.98-.66-.82ZM63.89,57.43c-.18.11-.4.25-.59.37-.08.23,0,.39.13.57.92.45,1.31-.53.45-.94ZM80.31,57.95c-.17-.09-.03-.3-.26-.4-.26.08-.57.1-.68.44.25.35.42.79.94.6.08-.11.16-.23.26-.37-.09-.1-.16-.22-.26-.27ZM85.8,42.04c-.11-.19-.23-.38-.37-.62-1.26-.13-.22,2.19.37.62ZM73.6,57.14c.26-1.12-.9-1.4-.98-.18.35.25.67.19.98.18ZM48.57,54.29c.24.12.46.22.72.34,1.02-.91-.83-1.77-.72-.34ZM67.2,48.82c.05.13.13.2.22.25.02-.18.03-.37.05-.56-.13.06-.25.13-.27.31ZM39.76,46.88c.02.33.05.66.07.99.5-.16.44-.93-.07-.99ZM48.82,42.83c-.11.13-.22.26-.36.42.78,1.8,1.77-.42.36-.42ZM64.15,61.28c.15-.2.25-.42.33-.63-.28-.31-.64-.18-.91-.25-.29.19-.22.46-.22.71.22.31.52.2.8.17ZM79.97,44.22c-.38,0-.48.08-.54.42,0,1.49,1.96-.43.54-.42ZM79,46.26c.16-.63-.23-.75-.76-.74-.31.24-.2.55-.27.84.38.15.71.07,1.03-.11ZM37.03,58.73c.24-.19.49-.38.59-.7-.67-1.16-1.68.42-.59.7ZM80.97,61.58c-.05.11-.08.18-.1.24.17-.07.3-.13.37-.21-.09-.02-.18-.03-.26-.03ZM72.13,58.6c.06-.24.14-.41.26-.6q-.27-.45-.92-.33c-.5.6.08.89.65.92ZM49.75,36.61c.08.22.17.42.4.53.56-.08.6-.54.82-.9-.36-.42-1-.02-1.21.37ZM59.17,46.12c.25.33.55.4.79.34.02-.31.04-.63.06-.94-.03-.02-.06-.03-.09-.05-.32.24-.65.22-.76.65ZM36.04,34.87c-1.09-.57-1.14,1.38.01.91-.06-.37.27-.61-.01-.91ZM60.07,35.78c.12-.14.23-.28.36-.42-.2-1.47-2.26.7-.36.42ZM56.58,40.36c-.13.61.44,1.26.95.66v-.66c-.32-.09-.63-.09-.95,0ZM78.33,53.57c-.14.17-.26.32-.4.49.12.13.26.29.37.42.23-.02.42-.03.61-.04.12-.18.22-.33.35-.53-.3-.24-.6-.33-.93-.35ZM80.45,52.45c-.64-.36-1.34-.08-.91.71.6.05,1.11,0,.91-.71ZM69.45,53.17c-.09.03-.18.05-.28.07.08,0,.17-.02.28-.07ZM77.26,47.9c.56-.29.64-.58.24-1.07-.18-.17-.67.07-.8.27.21.31.12.71.56.8ZM73.58,59.59c.33-.33.12-.62-.29-.71-.18.1-.34.18-.51.27,0,.22-.04.43-.1.63.29.3.86.28.9-.19ZM74.38,45.31c.45-.05.73-.23.83-.66-.2-.27-.27-.7-.73-.44q-.06.49-.46.74c.13.13.26.26.36.36ZM77.09,57.44c-.3.18-.13.51-.34.7.33.7.92.53,1.02-.17-.11-.36-.4-.46-.69-.53ZM48.51,35.4c.32.37.46.4.98.22v-.73c-.64-.39-.89.01-.98.51ZM82.16,36.61h0c-.11.63.77.47.98.14.29-.75-1.07-.98-.98-.14ZM31.74,38.91c-.91-.11-.7,1.24.21.94.21-.15.14-.32.15-.48.06-.39-.1-.36-.37-.45ZM42.37,39.96c.98-.37.54-1.22-.38-.99-.07.13-.12.23-.16.3.05.34.3.48.55.69ZM41.54,40.38c-.1-.22-.3-.31-.53-.4-1.45.53.61,1.83.53.4ZM64.64,45.68c.13.27,0,.56.19.85,1.3.08.85-1.63-.19-.85ZM84.76,47.51c.05.09.11.16.18.2.05-.28.11-.56.16-.84-.21.14-.34.34-.34.64ZM60.44,62.12c-.26-.21-.43-.53-.8-.54q-.4.35-.36.77c.43.17.9.32,1.15-.23ZM41.95,46.97c-.04.19-.09.37-.13.57.35.18.9.4,1.2.05-.06-.53-.59-.87-1.07-.61ZM78.84,56.22c-.54-.15-.59-.12-.8.55.12.61.88.48,1.08,0-.1-.19-.19-.36-.28-.54ZM30.32,58.89c-.78.02-.66,1.1,0,1.06.68-.23.58-.76,0-1.06ZM81.94,58.09c.27.28.4.39.56.4.09-.3.17-.61.26-.94-.02-.01-.05-.02-.07-.04-.35.11-.6.28-.75.58ZM42.91,36.73c0-.37-.59-1.12-.87-.59-.43.85.3,1.21.87.59ZM80.7,35.16c.1.19.19.36.29.55.24-.03.47.21.7-.08v-.7c-.23-.08-.43-.15-.64-.22-.12.16-.23.31-.34.46ZM33.77,39.54c.24.32.75.4.98.04.49-.88-1.05-.98-.98-.04ZM67.32,43.07c-.06.5.22.52.51.74.05,0,.1.01.15.01.04-.29.08-.58.12-.85-.21-.15-.5-.18-.78.11ZM59.74,41.17c.44-.04.53-.34.58-.69-.17-.67-.84-.3-1.16.11.18.23.37.42.58.58ZM83.81,42.66c-.25.16-.21.44-.34.67.65.86.8.44,1.12-.34-.27-.12-.53-.22-.78-.32ZM43.13,37.92c.38.54.53.57,1.13.26-.05-.72-.93-1.17-1.13-.26ZM33.2,45.47c-.29.06-.62-.05-.78.24-.07.58.79,1.02,1.11.49-.1-.24-.1-.54-.33-.73ZM67.06,52.73c-.11-.24-.2-.45-.3-.67-.57.05-.99.82-.39,1.21.3-.07.49-.31.69-.53ZM30.8,61.87c-.07-.07-.18-.17-.26-.26-.29.02-.52.07-.72.29.04.17.08.36.13.56.25,0,.5.02.75.03.03-.02.07-.05.1-.08v-.55ZM59.64,59.94c1.41-.46.47-1.84-.39-.4.06.2.15.35.39.4ZM33.1,58.93c-.33-.1-.58.08-.58.39.05,1.48,1.74-.15.58-.39ZM42.88,57.74c-.16-.08-.3-.15-.43-.22-.35.07-.57.25-.64.58.33.68,1.33.46,1.06-.36ZM77.72,60.43c-.21-.27-.71-.29-.87.06.03.08.07.16.11.25-.05.08-.1.16-.18.28.4.72,1.18-.03.94-.58ZM82.98,44.1c-1.41-.04-.65,1.93.19.7-.07-.24-.12-.45-.19-.7ZM38.17,61.58c-.22.14-.32.33-.38.54.07.49.88.6,1.06.13-.05-.2-.1-.36-.15-.57-.19-.04-.36-.07-.53-.1ZM82.07,47.1q.14.55.37.79c.25-.19.48-.36.71-.53-.19-.71-.64-.65-1.08-.26ZM39.34,41.59c.02.25.05.52.08.81.02.03.03.06.05.1.52.02.53.01.75-.68-.4-.51-.74-.49-.88-.23ZM65.47,59.95c-.02-.15-.04-.25-.06-.36.1-.12.19-.23.31-.37-.5-1.38-1.74.9-.25.73ZM47.86,46.84c.02.27.03.54.05.81.12-.09.22-.2.31-.32-.06-.38-.17-.47-.36-.49ZM77.61,54.96c-.51-.32-.87.15-.81.65.4.61,1.33.03.81-.65ZM38.48,56.2c-.4.12-.65.33-.63.77.33.58.99.3,1-.31-.08-.18-.19-.34-.37-.46ZM80.48,49.94s-.07.05-.1.07c-.11-.17-.23-.33-.35-.5-1.46.23.25,1.94.45.43ZM56.32,44.8c-.03-.29-.16-.46-.33-.52-.01.29-.02.58-.04.87.16-.06.3-.17.37-.35ZM82.1,55.32c.08.16.15.32.24.5,1.55.36.59-1.82-.24-.5ZM69.37,55.76c1.08-.43-.57-1.52-.72-.33.16.29.38.52.72.33ZM80.74,48.96c.36.24,1.05.28,1.07-.27-.02-.52-1.45-.61-1.07.27ZM29.9,56.27c-.11.24-.08.48-.05.74.21.09.41.17.59.25.77-.44.18-1.11-.54-.99ZM63.85,62.93c.06,0,.12,0,.19,0-.05-.01-.12-.01-.19,0ZM67.66,46.5c.03-.31.07-.61.1-.92-.06,0-.12.02-.2.03-.27.43-.15.78.1.89ZM72.25,52.29c-.23-.03-.31-.05-.56-.12-.16.23-.27.44-.36.67.24.51.86.31,1.09-.1-.06-.15-.11-.3-.17-.45ZM78.51,52.01c.53-.21.62-.58.34-1.05-.85-.27-.96.65-.34,1.05ZM33.22,53.72c-.36-.1-.61-.18-.81.23.58,1.35,1.64.19.81-.23ZM34.26,54.81c-.18.1-.34.18-.5.28.27,1.47,1.98.33.5-.28ZM73.1,54.66c.53.31.74-.78.21-.88-.04-.13-.18-.18-.32-.28-.4.27-.28.94.11,1.16ZM83.5,54.23s.04.02.07.02c.04-.18.08-.36.12-.54-.1.14-.17.3-.19.51ZM32.61,51.01c-.02.21-.03.4-.05.62.81.98,1.58-1.18.05-.62ZM35.08,48.71c.19.74.62.58.96.18-.02-.19-.04-.39-.05-.59-.33-.08-.66.13-.91.4ZM71.96,46.88c-.24.11-.4.26-.54.44,0,.05-.01.11-.02.16.35.48.84.62,1.12-.05-.14-.21-.32-.38-.57-.55ZM64.34,44.79c-.28-.24-.08-.56-.35-.78,0,0,0,0-.01,0-.02.34-.04.69-.06,1.05.27.04.52.02.43-.28ZM56.64,42.86c.09.5.52,1.34,1.01.71.1-.22-.32-.34-.12-.59-.13-.31-.56-.24-.89-.11ZM54.83,34.77c-.44-.17-.68.06-.9.33q.13.26.11.61c.7.15.94-.33.8-.94ZM31.9,60.36c-.36-.13-.56.04-.76.29-.07,1.18,1.37.56.76-.29ZM63.8,50.66c.27-.02.22-.24.3-.37.08-.14.26-.22.27-.41-.13-.17-.25-.32-.43-.4-.14,0-.24.04-.32.09-.02.28-.04.55-.06.8.07.11.15.21.25.29ZM79.43,41.95c.28.33.91.46,1.15.15-.08-.66-.91-1.06-1.15-.15ZM72.62,35.33c.4.54.92.45,1.14-.18-.42-.52-1.02-.57-1.14.18ZM80.65,51.31c.13.21.22.46.52.61.19-.1.37-.2.54-.29-.02-.25-.04-.46-.06-.69-.37.06-.77-.05-1,.37ZM47.73,55.93c.77,0,.69-1.13-.05-.94-.68.2-.41.65.05.94ZM83.52,40.81c.6.38,1.28-.04.82-.69-.71-.06-.83.05-.82.69ZM33.48,56.42h-.65c-.12.19-.4.26-.36.57.52.55,1.24.21,1-.57ZM42.67,42.09v-.65c-1.2-.5-.95,1.83,0,.65ZM33.47,62.17c-.08-.15-.16-.31-.25-.49-1.57-.14-.39,1.67.25.49ZM52.14,43.68c.06-.21.11-.4.18-.64-.33,0-.51-.43-.9-.18.07.12.13.23.21.38-.76.5-.02.81.51.45ZM34.21,57.68c-.1.21-.47.13-.45.39.39.85.82.57,1.13-.11-.11-.19-.47-.41-.68-.28ZM40.52,48.7c.22.86.85.47,1.05-.17-.18-.13-.3-.32-.49-.39q-.28.14-.56.56ZM58.11,42.23c.67.49,1.11.06.73-.69-.43-.11-1.09.23-.73.69ZM43.42,59.12c-.7.42.14.89.65.72.49-.49-.11-1.01-.65-.72ZM31.61,53.39c.13-.28.27-.36.53-.45.04-.72-.78-.97-1.07-.29.32.17.42.37.54.75ZM75.25,43.23c.41.9,1.14.79,1.2-.24-.45.29-1.02-.28-1.2.24ZM52.02,41.17c.07-.18.13-.33.18-.49-.29-1.01-1.25-.5-.74.35.21-.01.37.04.56.14ZM34.36,47.99c.27-.18.32-.5.49-.79-.34-.23-.67-.04-1.04-.14-.16.39.15.9.55.93ZM80.12,61.3c.74-.39-.39-1.5-.8-.63.37.16.34.75.8.63ZM51.7,54.69c.68-.48.7-1.46-.43-.88.17.3.04.69.43.88ZM64.61,51.2c.09.46.28.59.84.46.05-.2.09-.37.13-.54-.4-.45-.55-.44-.97.08ZM58.52,57.46c-.19.1-.35.18-.52.27.09.42.29.73.68.88.46-.16-.02-.53.19-.87-.14-.11-.25-.2-.35-.28ZM47.65,36.17c-.54-.02-.32.53-.2.85.77.59.97-.75.2-.85ZM56.17,37.13c.05-.15.1-.3.14-.45-.18-.2-.28-.44-.54-.54-.13.17-.25.32-.39.51.1.59.3.57.79.47ZM46.9,34.98c-.38-.12-1.44-.04-.9.51.49.33,1.12.18.9-.51ZM54.78,38.35c.34-.71-.41-.95-.94-.59-.29.39.58.72.94.59ZM33.86,41.71c-.07.41.11.77.6.71.29.01.31-.32.28-.61-.1-.47-.54-.21-.88-.11ZM78.84,48.17c-1.07-.17-.82,1.55.29.55-.11-.2-.2-.38-.29-.55ZM49.43,45.67c-.16-.08-.3-.15-.43-.22-1.21.63.92,1.74.43.22ZM31.21,57.82c-.08.37.26.51.23.88.83-.21.77-1.65-.23-.88ZM32.16,55.23c-.42-.06-.93-.44-1.08.16.18.14.37.27.56.42.16-.04.33-.09.52-.13v-.45ZM60.87,62.96s.06,0,.09,0c-.03-.02-.05-.02-.09,0Z"/>
      </g>
      <path class="cls-1" d="M99.37,34.5c-.96-.82-12.06-8.09-13.57-7.95-1.51.14-70.45,0-70.45,0-1.57,0-15.35,6.3-15.35,9.18s.2,6.88,2.4,7.56c2.19.69,95.05,1.89,96.15-.71,1.1-2.6,1.78-7.26.82-8.09ZM71.7,34.55s0,0,0,0h-3.75s0,0,0,0c-1.37,0-2.76,0-4.18,0,0,0,0,0,0,0h-3.75s0,0,0,0c-1.41,0-2.83,0-4.27,0h0s-3.64,0-3.64,0c0,0,0,0,0,0-1.62,0-3.27,0-4.92,0,0,0,0,0,0,0h-3.75s0,0,0,0c-1.46,0-2.93,0-4.4,0,0,0,0,0,0,0h-3.74s0,0,0,0c-2.52,0-5.04,0-7.56,0h0s-3.74,0-3.74,0c0,0,0,0,0,0-2.7,0-5.38,0-8.02,0h8.02c-.24-1.46-.38-2.45-.38-2.45-.14-.92,3.19-.11,3.5,0,.08.03.32,1.01.63,2.45h7.56c-.08-1.41-.12-2.36-.12-2.36,1.21-.83,3.19-.11,3.5,0,.08.03.21.97.36,2.36h4.4c-.08-1.5-.11-2.51-.11-2.51,1.21-.83,3.19-.11,3.5,0,.08.03.21,1.04.36,2.51h4.92c.1-1.31.24-2.24.45-2.4.63-.51,3.17-.31,3.19.07,0,.09,0,1.01,0,2.33h4.27c.13-1.35.32-2.29.59-2.4,1.11-.48,3.17-.49,3.19-.1,0,.1,0,1.08-.04,2.51h4.18c.2-1.43.43-2.42.71-2.54,1.11-.48,3.17-.49,3.19-.1,0,.1-.05,1.15-.15,2.65h14.13c-4.06,0-8.85,0-14.13,0Z"/>
      <path class="cls-3" d="M12.69,76.7s5.75-14.81,7-14.9c1.25-.09,55.36-.33,57.36,0,2,.33,10.2,14.73,10.2,14.73l-74.56.17Z"/>
      <path class="cls-3" d="M77.93,62.97c.08.62,8.69,14.01,8.69,14.01l2.8-32.59h-8.26l-2.65,18.57"/>
      <path class="cls-3" d="M21.24,34.93c-1.39,0-2.71,0-3.97,0-7.76,0-12.79-.02-13.14-.04-.27-.02-.32-.19-.33-.25-.04-.26-.09-.55,6.05-3.56,3.08-1.51,6.11-2.91,6.31-2.99l.09-.02c2.71-.01,66.5-.25,67.94,0,1.43.25,8.84,5.28,9.17,5.97l.05.12-.07.12c-.12.19-.26.4-28.98.55-14.37.07-31,.1-43.13.1ZM4.53,34.43c1.36.02,6.11.03,12.74.03,29.44.01,70.95-.12,75.42-.47-1.33-1.15-7.28-5.23-8.58-5.46-1.12-.2-44.82-.08-67.81,0-1.12.47-10.04,4.68-11.77,5.89Z"/>
      <path class="cls-3" d="M.34,36.11c8.32,0,16.65,0,24.97,0,8.67,0,17.33,0,26,0,7.79,0,15.59,0,23.38,0,5.76,0,11.53,0,17.29,0,1.75,0,3.51,0,5.26,0,.79,0,1.6.06,2.39,0,.03,0,.06,0,.1,0,.37,0,.38-.58,0-.58-.7,0-1.4,0-2.1,0-.37,0-.38.58,0,.58.7,0,1.4,0,2.1,0v-.58c-2.08.02-4.15,0-6.23,0-5.46,0-10.91,0-16.37,0-7.61,0-15.23,0-22.84,0-8.6,0-17.2,0-25.8,0-8.43,0-16.86,0-25.28,0-.96,0-1.91,0-2.87,0-.37,0-.38.58,0,.58H.34Z"/>
      <path class="cls-1" d="M6.05,41.34s4.01,33.94,5.58,35.27c1.57,1.33,73.56,2.66,75.85,0,2.3-2.66,5.67-35.27,5.67-35.27H6.05ZM17.03,72.46c-1.27-.68-3.3-26.38-3.3-26.38-.16-1.41,3.56-.17,3.89,0,.34.17,2.96,25.79,2.96,26.38s-2.29.68-3.56,0ZM25.36,72.46c-1.27-.68-3.3-26.38-3.3-26.38-.16-1.41,3.56-.17,3.89,0,.34.17,2.96,25.79,2.96,26.38s-2.29.68-3.56,0ZM35.01,72.66c-1.27-.68-1.63-26.45-1.63-26.45,1.35-1.28,3.56-.17,3.89,0,.34.17,1.29,25.86,1.29,26.45s-2.29.68-3.56,0ZM43.96,72.48c-1.27-.68-1.51-26.5-1.51-26.5,1.35-1.28,3.56-.17,3.89,0,.34.17,1.17,25.91,1.17,26.5s-2.29.68-3.56,0ZM55.55,72.5c-.33.18-2.49,1.39-3.89.17,0,0,.11-25.44,1.06-26.52.7-.79,3.53-.48,3.55.11.03.59-.39,26.05-.72,26.24ZM64.27,72.5c-.33.18-2.49,1.39-3.89.17,0,0,.08-25.79,1.32-26.52,1.24-.73,3.53-.75,3.55-.16.03.59-.65,26.32-.98,26.5ZM72.5,72.29c-.33.18-2.49,1.39-3.89.17,0,0,.8-25.79,2.04-26.52,1.24-.73,3.53-.75,3.55-.16.03.59-1.37,26.32-1.7,26.5ZM81.12,72.07c-.33.18-3.99,1.59-3.89.17,0,0,1.75-25.79,2.99-26.52,1.24-.73,3.53-.75,3.55-.16.03.59-2.32,26.32-2.65,26.5Z"/>
      <path class="cls-1" d="M12.9,75.43c3.27-3.51,6.07-7.48,8.9-11.35.5-.69,1.01-1.38,1.52-2.07.15-.2.3-.4.45-.6.05-.06.11-.12.15-.18.13-.22.09.1-.1-.02.15.1.68,0,.85,0,5.2,0,10.4.01,15.6.02,7.51.02,15.03.04,22.54.1,2.93.02,5.86.05,8.79.1,1.42.02,2.9-.05,4.31.14-.06,0,.05.01.05,0,.14.07.27.16.39.26.44.35.83.77,1.22,1.18,1.17,1.25,2.26,2.58,3.32,3.91,1.2,1.51,2.38,3.04,3.5,4.61.82,1.14,1.67,2.3,2.34,3.54.08.14.16.29.21.44.09.26-.04.1.14-.02-.32.2-.03.7.29.5.6-.37-.4-1.68-.62-2.02-.88-1.41-1.87-2.77-2.87-4.1-1.19-1.6-2.42-3.17-3.69-4.71-.98-1.18-1.96-2.38-3.08-3.43-.43-.4-.81-.73-1.41-.78-.61-.05-1.23-.06-1.85-.07-2.52-.07-5.05-.09-7.57-.11-3.6-.04-7.2-.06-10.8-.08-3.96-.02-7.93-.03-11.89-.05-3.55-.01-7.1-.02-10.65-.02-2.43,0-4.85,0-7.28,0-.55,0-1.1,0-1.64,0-.52,0-.74.46-1.04.86-2.76,3.65-5.36,7.41-8.26,10.95-.72.88-1.46,1.75-2.24,2.59-.26.27.16.69.41.41h0Z"/>
      <path class="cls-1" d="M24.14,60.8c-.8-5.44-.7-10.98-1.2-16.44-.03-.37-.62-.37-.58,0,.51,5.52.41,11.11,1.22,16.6.05.37.62.21.56-.15h0Z"/>
      <path class="cls-3" d="M83.85,28.44c.12,1.95.05,3.91.04,5.87,0,.37.58.38.58,0,0-1.96.08-3.91-.04-5.87-.02-.37-.6-.37-.58,0h0Z"/>
      <g>
        <path class="cls-3" d="M17.18,72.21s.01.03-.02-.04c-.04-.09-.06-.13-.09-.2-.1-.24-.16-.5-.22-.75-.2-.8-.33-1.62-.46-2.44-.38-2.43-.66-4.87-.93-7.31-.51-4.68-.93-9.36-1.32-14.05-.03-.42-.09-.84-.1-1.26,0-.2-.01-.31.2-.4.51-.21,1.28,0,1.79.13.28.07.57.14.85.23.07.02.52.24.59.2-.08.04-.05-.17-.08-.09-.01.03.04.16.05.19.11.53.17,1.07.24,1.6.65,4.84,1.13,9.71,1.64,14.57.24,2.34.49,4.67.72,7.01.07.7.14,1.41.2,2.11.02.18.07.4.05.58-.03.25-.12.24-.44.3-.87.16-1.89,0-2.67-.39-.33-.17-.63.33-.29.5.79.4,1.72.56,2.61.51.48-.03,1.28-.11,1.38-.7.05-.34-.05-.75-.08-1.09-.19-2.06-.41-4.11-.62-6.17-.56-5.4-1.11-10.8-1.78-16.19-.1-.77-.19-1.54-.31-2.31-.05-.32-.05-.77-.35-.95-.41-.26-1.03-.35-1.49-.46-.6-.14-1.26-.28-1.88-.19-.67.09-.94.5-.89,1.13.34,4.31.73,8.62,1.17,12.92.28,2.74.58,5.49.96,8.22.15,1.04.3,2.08.5,3.11.12.6.22,1.25.49,1.81.07.15.15.3.3.38.32.19.62-.31.29-.5Z"/>
        <path class="cls-3" d="M25.51,72.21s.01.03-.02-.04c-.04-.09-.06-.13-.09-.2-.1-.24-.16-.5-.22-.75-.2-.8-.33-1.62-.46-2.44-.38-2.43-.66-4.87-.93-7.31-.51-4.68-.93-9.36-1.32-14.05-.03-.42-.09-.84-.1-1.26,0-.2-.01-.31.2-.4.51-.21,1.28,0,1.79.13.28.07.57.14.85.23.07.02.52.24.59.2-.08.04-.05-.17-.08-.09-.01.03.04.16.05.19.11.53.17,1.07.24,1.6.65,4.84,1.13,9.71,1.64,14.57.24,2.34.49,4.67.72,7.01.07.7.14,1.41.2,2.11.02.18.07.4.05.58-.03.25-.12.24-.44.3-.87.16-1.89,0-2.67-.39-.33-.17-.63.33-.29.5.79.4,1.72.56,2.61.51.48-.03,1.28-.11,1.38-.7.05-.34-.05-.75-.08-1.09-.19-2.06-.41-4.11-.62-6.17-.56-5.4-1.11-10.8-1.78-16.19-.1-.77-.19-1.54-.31-2.31-.05-.32-.05-.77-.35-.95-.41-.26-1.03-.35-1.49-.46-.6-.14-1.26-.28-1.88-.19-.67.09-.94.5-.89,1.13.34,4.31.73,8.62,1.17,12.92.28,2.74.58,5.49.96,8.22.15,1.04.3,2.08.5,3.11.12.6.22,1.25.49,1.81.07.15.15.3.3.38.32.19.62-.31.29-.5Z"/>
        <path class="cls-3" d="M35.15,72.41s.02.05-.01-.03c-.03-.09-.04-.08-.08-.19-.08-.24-.13-.49-.18-.74-.14-.76-.22-1.54-.3-2.31-.23-2.36-.35-4.72-.46-7.09-.22-4.69-.34-9.39-.43-14.09,0-.5-.06-1.02-.03-1.52,0-.05-.03-.19,0-.23-.07.1.4-.09.24-.04.11-.03.24-.12.35-.16.21-.07.43-.11.65-.12.44-.02.88.07,1.3.2.27.08.53.25.8.32.19.05.01.09,0-.07,0-.09,0,.03,0,.02-.04.05.05.32.06.39.07.63.11,1.26.15,1.9.31,4.86.49,9.73.69,14.59.09,2.24.18,4.48.26,6.73.02.68.05,1.35.07,2.03,0,.16.05.38.02.54-.05.24-.21.24-.5.29-.85.14-1.84-.01-2.62-.4-.33-.17-.63.33-.29.5.78.39,1.67.55,2.54.51.46-.02,1.28-.08,1.44-.63.09-.32,0-.77-.01-1.1-.07-1.95-.14-3.89-.22-5.84-.21-5.35-.42-10.7-.72-16.05-.05-.84-.1-1.68-.17-2.52-.03-.34,0-.82-.14-1.14-.14-.32-.66-.44-.96-.55-.74-.26-1.58-.41-2.35-.2-.4.11-1.09.38-1.16.84-.02.12,0,.26,0,.38.07,4.4.18,8.81.36,13.21.11,2.68.23,5.35.44,8.02.08.98.17,1.96.3,2.93.08.57.14,1.18.36,1.72.07.16.14.32.3.41.32.19.62-.31.29-.5Z"/>
        <path class="cls-3" d="M44.11,72.23s.02.05-.01-.03c-.03-.09-.04-.09-.08-.19-.08-.24-.13-.49-.17-.74-.14-.77-.22-1.54-.29-2.32-.22-2.36-.33-4.73-.43-7.1-.2-4.7-.3-9.41-.37-14.11,0-.5-.06-1.03-.02-1.53,0-.05-.03-.19,0-.23-.07.1.4-.09.24-.04.11-.03.24-.12.35-.16.21-.07.43-.11.65-.12.44-.02.88.07,1.3.2.27.08.53.25.8.32.19.05.01.09,0-.07,0-.09,0,.03,0,.02-.04.04.05.32.05.39.07.63.1,1.27.14,1.9.29,4.87.45,9.74.63,14.62.08,2.25.16,4.49.23,6.74.02.68.04,1.35.06,2.03,0,.16.05.38.01.54-.05.24-.21.24-.5.29-.85.14-1.84-.01-2.62-.4-.33-.17-.63.33-.29.5.78.39,1.67.55,2.54.51.46-.02,1.28-.08,1.44-.63.09-.33,0-.77,0-1.1-.06-1.95-.13-3.9-.19-5.85-.19-5.36-.37-10.72-.66-16.07-.05-.84-.09-1.68-.16-2.53-.03-.34,0-.82-.14-1.14-.14-.32-.66-.44-.96-.55-.74-.26-1.58-.41-2.35-.2-.41.11-1.09.38-1.16.84-.02.12,0,.26,0,.38.05,4.41.14,8.82.3,13.23.09,2.68.21,5.36.41,8.04.07.98.16,1.95.29,2.92.08.57.14,1.2.36,1.73.07.16.14.32.3.41.32.19.62-.31.29-.5Z"/>
        <path class="cls-3" d="M55.41,72.25c-.58.32-1.21.58-1.87.65-.23.02-.45.03-.68,0-.26-.04-.46-.18-.7-.23-.14-.03-.15.04-.2-.04-.04-.07,0-.32,0-.4,0-.25,0-.5,0-.74.01-1.91.03-3.81.06-5.72.07-5.09.14-10.19.44-15.28.05-.9.11-1.8.21-2.69.05-.45.07-.98.25-1.41,0-.01.02-.05.1-.1.27-.19.63-.25.96-.28.36-.03.73-.02,1.09.03.22.03.71.07.87.26.09.1.03.64.03.87-.05,4.39-.14,8.77-.24,13.16-.06,2.49-.12,4.98-.2,7.47-.05,1.47-.04,2.97-.22,4.43-.01.1,0,.02-.02.12-.02.12-.02.03.04-.03-.29.23.12.64.41.41.22-.18.17-.78.19-1.02.05-.75.08-1.51.11-2.27.1-2.49.16-4.98.22-7.47.12-4.84.22-9.68.27-14.52,0-.37.06-.77,0-1.14-.13-1.06-2.24-.95-2.96-.82-.75.13-1.2.43-1.35,1.15-.15.7-.2,1.42-.26,2.13-.44,5.22-.46,10.49-.54,15.72-.03,2.19-.06,4.37-.07,6.56,0,.5-.03,1.01,0,1.51.04,1.03,1.86,1.03,2.57.9.62-.12,1.21-.37,1.76-.67.33-.18.03-.69-.29-.5Z"/>
        <path class="cls-3" d="M64.12,72.25c-.58.32-1.21.58-1.87.65-.48.05-1.05.02-1.45-.28-.12-.09-.08.11-.13,0-.11-.26,0-.85,0-1.12.01-1.88.03-3.76.06-5.64.08-5.09.15-10.19.52-15.27.1-1.32.14-2.91.56-4.11.03-.09.04-.08.06-.09-.05.04.24-.12.32-.15.22-.09.45-.16.69-.22.43-.1.87-.15,1.32-.14.19,0,.37.03.56.07.06.01.23.12.2.06.11.2-.01.79-.02,1-.09,4.45-.23,8.89-.37,13.33-.08,2.49-.17,4.99-.27,7.48-.06,1.45-.06,2.94-.26,4.38,0,.06,0,.03-.02.12-.02.12-.02.02.04-.03-.29.23.12.64.41.41.22-.17.18-.77.2-1.01.06-.76.1-1.52.14-2.28.12-2.48.21-4.96.29-7.43.16-4.88.31-9.77.42-14.65,0-.42.06-.87.02-1.29-.11-1.18-2.34-.73-3.03-.54-.78.22-1.17.42-1.36,1.18-.18.7-.25,1.44-.32,2.16-.53,5.2-.56,10.46-.65,15.68-.04,2.17-.06,4.35-.08,6.52,0,.49-.03.99,0,1.48.04,1.03,1.85,1.04,2.57.91.62-.12,1.21-.37,1.76-.67.33-.18.03-.69-.29-.5Z"/>
        <path class="cls-3" d="M72.35,72.03c-.58.32-1.21.58-1.87.65-.47.05-1.05.02-1.45-.28-.12-.09-.08.11-.13,0-.11-.26.03-.85.04-1.12.06-1.88.14-3.76.22-5.64.22-5.09.44-10.2.94-15.27.13-1.33.22-2.9.67-4.11.03-.09.04-.07.06-.09-.04.04.23-.11.32-.15.22-.09.45-.16.69-.22.43-.1.87-.15,1.32-.14.19,0,.37.03.56.07.06.01.23.12.2.06.11.2-.03.79-.04,1-.21,4.45-.47,8.89-.73,13.33-.15,2.49-.3,4.99-.48,7.48-.1,1.42-.14,2.97-.37,4.33,0,.06-.02.11-.03.17-.02.12-.03.02.04-.03-.3.23.12.64.41.41.22-.17.19-.77.22-1.01.08-.76.14-1.52.2-2.28.19-2.48.35-4.95.5-7.43.3-4.88.59-9.77.82-14.65.02-.42.09-.87.05-1.29-.1-1.18-2.35-.73-3.03-.54-.78.22-1.17.43-1.37,1.18-.19.7-.28,1.44-.37,2.16-.66,5.19-.84,10.46-1.08,15.68-.1,2.17-.18,4.35-.26,6.52-.02.49-.06.99-.05,1.48.02,1.03,1.86,1.04,2.57.91.62-.12,1.21-.37,1.76-.67.33-.18.03-.69-.29-.5Z"/>
        <path class="cls-3" d="M80.98,71.82c-.41.21-.88.35-1.32.48-.55.16-1.27.4-1.85.26-.4-.1-.28-.5-.25-.83.12-1.66.24-3.32.37-4.98.4-5.22.82-10.45,1.48-15.65.2-1.59.3-3.35.86-4.87.04-.1.03-.11.08-.19.05-.09.06-.09.02-.06.61-.5,1.81-.6,2.56-.53.14.01.54.1.56.14.02.03,0,.1,0,.14,0,.18-.03.37-.04.55-.34,4.41-.77,8.82-1.2,13.22-.25,2.58-.5,5.16-.77,7.73-.16,1.49-.26,3.01-.54,4.48-.01.06-.03.12-.04.19-.02.11,0,0,.04-.03-.3.23.12.64.41.41.22-.17.21-.78.25-1.02.11-.8.2-1.61.3-2.42.29-2.57.54-5.13.79-7.7.47-4.87.95-9.74,1.33-14.61.03-.33.16-.84.02-1.16-.23-.52-1.09-.52-1.56-.51-.75.02-1.78.15-2.39.62-.35.27-.44.81-.54,1.22-.2.84-.33,1.7-.45,2.55-.79,5.43-1.2,10.92-1.64,16.39-.15,1.94-.3,3.87-.44,5.81-.02.32-.11.71-.04,1.03.25,1.2,2.29.56,3.01.34.44-.13.89-.27,1.3-.49.33-.17.04-.68-.29-.5Z"/>
      </g>
      <path class="cls-3" d="M5.46,43.87c4.09,0,8.17,0,12.26,0,6.57,0,13.14,0,19.71,0,7.47,0,14.93,0,22.4.01,6.76,0,13.52,0,20.29,0,4.48,0,8.95,0,13.43,0,.3,0,.61,0,.91,0,.37,0,.38-.58,0-.58-4.09,0-8.17,0-12.26,0-6.57,0-13.14,0-19.71,0-7.47,0-14.93,0-22.4-.01-6.76,0-13.52,0-20.29,0-4.48,0-8.95,0-13.43,0-.3,0-.61,0-.91,0-.37,0-.38.58,0,.58h0Z"/>
      <path class="cls-3" d="M16.22,28.86c.31,1.93.53,3.89.76,5.83.04.37.63.37.58,0-.24-2-.46-4-.78-5.98-.06-.37-.62-.21-.56.15h0Z"/>
      <path class="cls-3" d="M36.76,2.97c-.2.38,6.51,31.13,7.43,31.57.92.44,6,.16,6,.16,0,0-8.37-32-9.51-32.57-1.14-.57-3.92.85-3.92.85Z"/>
      <path class="cls-3" d="M38.07,1.72c-.49.26-1.14.42-1.31,1.25-.17.83,7.74,23.93,7.74,23.93l2.39-.55L38.82,3.57s6.73-1.49,7.15-1.1c.35.33,5.82,20.66,7.56,27.15.31,1.16,1.31,1.93,2.42,1.89h0c1.63-.06,2.74-1.81,2.21-3.47C55.6,20,49.24.24,48.52.02c-.91-.27-10.45,1.69-10.45,1.69Z"/>
      <path class="cls-1" d="M41.44,3.38c2.31-.49,4.63-1.08,6.98-1.39-.09-.07-.19-.14-.28-.21,1.1,3.4,2.2,6.8,3.3,10.2,1.6,4.94,3.2,9.89,4.8,14.83.2.62.39,1.23.6,1.85.29.86.53,1.77-.41,2.38-.31.2-.02.71.29.5.7-.45,1.05-1.14.97-1.98-.03-.25-.09-.49-.17-.72-.03-.09-.09-.24-.06-.15-.13-.36-.23-.72-.35-1.08-.65-2-1.29-3.99-1.94-5.99-1.73-5.36-3.47-10.71-5.2-16.07-.42-1.31-.85-2.62-1.27-3.92-.04-.11-.15-.23-.28-.21-2.4.31-4.77.91-7.14,1.41-.37.08-.21.64.15.56h0Z"/>
      <circle class="cls-1" cx="55.61" cy="29.65" r=".97"/>
      <g class="cls-2">
        <path class="cls-3" d="M28.82,31.77v-.11h-.38c-.08-.35-.23-1.06.38-.89.13.02.25.05.4.07.06.21.11.41.17.62-.13.24-.28.4-.57.31ZM87.68,30.73c-.3.29-.68,1.06.01,1.07,1.66.02.56-1.69-.01-1.07ZM67,33.54c-.18-.09-.35-.17-.52-.25-.33.18-.39.5-.52.76.08.16.16.3.25.47h.68c.28-.19.38-.59.11-.97ZM59.55,33.23c.27.07.46-.06.68-.19.03-.17.07-.32.11-.44-.21-1.19-1.91-.25-.79.63ZM92.91,33.58c-.12.08-.21.2-.25.4.02.12.04.22.08.29.18-.04.33-.08.42-.13.16-.09.05-.29-.24-.56ZM80.26,33.34c-.25-.19-.39-.01-.57.13-.49.08-.42.82-.04.98h.47c.44-.16.54-.82.13-1.11ZM62.47,29.21c-.85.47-.57,1.65.4,1.14.41-.4.19-1.05-.4-1.14ZM64.88,29.39c-.33.12-.11.5-.37.75.33.37.84.59,1.18.14.15-.71-.3-1.04-.8-.89ZM65.55,32.07c-.36-.14-.74.02-1.11-.06,0,1.25,1.73,1.64,1.11.06ZM71.36,31.38c.03.22.04.27.22.3.47.17.8-.04.98-.48-.37-.71-1.42-.84-1.2.17ZM74.77,31.9c.4-.11.09-.63.34-.92-1.01-1.09-1.71,1-.34.92ZM67.44,33.1c.45.15.65.06.8-.17.06-.26.13-.48.2-.64-.63-.5-1.8.18-1,.81ZM86.29,32.1c-.02.18-.09.35-.21.48q.19.42.71.66c.37-.25.53-.58.48-1.02q-.53-.21-.97-.12ZM76.68,31.49c.52.74.87.29,1.19-.27-.15-.76-1.39-.64-1.19.27ZM79.41,31.43c.27.59,1.09.57,1.07-.16.09-.95-1.44-.6-1.07.16ZM84.64,28.74c.23.35.59.42.87.29-.33-.18-.61-.33-.83-.45-.02.05-.04.1-.04.16ZM41.79,28.54q.28.35.36.66c.46,0,.68-.27.89-.6-.03-.07-.07-.14-.11-.2h-1.09s-.04.08-.05.14ZM60.86,28.91c0,.1-.02.19-.03.31.4,0,.54-.35.83-.44v-.4h-1.11c-.03.08-.06.16-.07.25.12.09.25.19.37.28ZM81.8,32.4c-.2-.32-.47-.48-.82-.27-.47.17-.17.65-.16,1.05.63.15.81,0,.98-.78ZM32.61,33.08c.33.14.6.02.87-.11q.19-.53-.24-.95c-.17.05-.36.11-.55.16-.1.16-.2.31-.3.48.08.16.16.3.23.42ZM73.62,30.28c.29-.6,0-.65-.41-1.01-.39.1-.58.36-.68.73.41.5.49.52,1.08.28ZM56.46,29.67c-.1.69.87,1.27,1.15.44.3-.69-.76-.89-1.15-.44ZM77.89,28.36h-1.12c-.23.7,1.04,1.12,1.12,0ZM83.24,28.51c-.02-.06-.05-.11-.08-.16h-1.07s-.02.06-.02.09c-.06.74,1.24.75,1.18.06ZM46.94,32.53c.02.1.03.22.05.35.06-.12.03-.23-.05-.35ZM66.34,31.7c.71.31.82-.52.54-.99-.72-.31-1.45.78-.54.99ZM84.16,29.35v.98c.4-.24.36-.76,0-.98ZM83.86,30.45c.12-.02.22-.06.3-.11v-1c-.09-.05-.18-.08-.29-.09-.62.11-.65,1.09-.01,1.2ZM57.02,33.13c.22-.08.42-.16.63-.24v-.6c-.77-.78-1.66.39-.63.84ZM48.16,31.44c.25-.93-.87-1.12-1.01-.18.18.17.27.34.37.56.25.23.66-.08.64-.38ZM63.79,33.45c0,.32-.01.67-.02,1.07h.39c.4-.24.46-1.14-.37-1.07ZM33.85,33.83c-.44.81.67.36,1.03.49.17-.53-.08-.84-.47-1.07-.29.07-.53.15-.48.5,0,.02-.05.05-.08.07ZM64.47,31.31c-.04-.53-.66-.81-1.05-.44-.52.91.59,1.26,1.05.44ZM54.5,30.59c.16-.18.31-.34.48-.52-.09-.39-.22-.71-.59-.83-.86.21-.48,1.08.11,1.35ZM78.77,29.36c-1.56.05-.39,1.88.46.72-.15-.24-.3-.46-.46-.72ZM69.91,29.82c.05.31.26.44.44.62,1.52-.06.32-1.93-.44-.62ZM33.86,31.52c.21.1.39.19.56.28.2-.09.35-.16.51-.27.14-1.02-1.38-1.21-1.07-.01ZM90.35,31.8s-.08-.05-.12-.08c.01.03.02.06.04.1.03,0,.06-.02.08-.02ZM88.51,34.03c-.06-.53-.43-.55-.86-.64-.35-.04-.28.46.07.44-1.01.57.88,1.02.8.2ZM74.2,28.75c.2.07.13.23.22.33.57.04.58.04.78-.68-.02-.01-.03-.02-.05-.04h-1.16c-.01.17.06.34.21.39ZM55.5,29.08c.63.19.83-.31.7-.7h-.95c-.14.21-.14.37.25.7ZM35.22,33.06c-.01-.27-.02-.49-.03-.64-.06.07-.11.13-.16.19,0,.21.07.36.19.45ZM38.83,29.72c-.23-.46-.93-.3-1.04.19.09.17.17.33.27.51.32.1.52.19.85.09-.09-.29-.08-.5-.08-.78ZM59.1,33.94c-.06-.85-.94-.72-1.18,0,.06.6,1.09.63,1.18,0ZM85.4,33.27c-.18.09-.36.18-.53.27-.35.89.22.97.95.76.07-.43,0-.79-.42-1.03ZM41.1,29.28c-.76.27-.85.92-.12,1.16.76.14.68-.88.12-1.16ZM31.69,33.29c-.33.25-.59.55-.48,1.02,1.02.37,1.59-.65.48-1.02ZM74,33.92c.08.19.16.39.28.56h.54c.84-.36-.08-1.72-.82-.56ZM39.69,30.59c-.51-.09-.72.15-.37.55-.52.45.15.6.57.61.24-.14.26-.4.32-.63q-.35-.24-.52-.53ZM75.31,32.52c.08.17.16.31.23.46.81.32.85-.14.79-.79-.19-.16-.35-.28-.58-.25-.15.19-.29.38-.44.58ZM53.32,30.59c-.68-.15-1.05.64-.51,1.05.64.23,1.07-.66.51-1.05ZM45.7,29.91c.15.18.28.35.43.54.26-.09.51-.17.78-.26.22-1.13-.68-.9-1.22-.27ZM83.22,33.74c-.66-.86-1.46.24-.88.7h.48c.21-.18.37-.38.4-.7ZM44.6,30.97c-.01.31.06.39.06.67.19,0,.37,0,.55.02.16-.08.32-.2.48-.34-.04-.49-.92-.93-1.09-.35ZM88.9,32.17c-.55.63.47,1.21.97.64.05-.49-.54-1.03-.97-.64ZM51.57,32.05c-.87.75.37,1.51.74.72.02-.11.04-.2.07-.28-.26-.3-.28-.3-.81-.44ZM68.88,28.95c.16.1.29.19.41.27.46-.16.48-.48.43-.85h-1.02c.06.2.12.4.17.58ZM72.54,33.82c-.3-.36-.57-.46-.77-.43-.02.29-.04.61-.06.96.12.06.26.11.46.11.15-.18.3-.35.37-.64ZM51.22,29.96c.18.18.22.57.65.55.2-.21.47-.39.52-.76-.1-.1-.21-.22-.3-.33h-.62c-.08.17-.16.34-.25.54ZM73.77,32.35c-.37-.4-.81-.4-1.1.09.12.96,1.07.93,1.1-.09ZM91.06,34.27c.03-.18.07-.35.1-.52-1.08-1.21-1.68,1.2-.1.52ZM36.94,29.22c.53-.04.42-.41.47-.78,0-.01,0-.02,0-.03h-1.01c-.04.07-.08.13-.13.21.39.08.48.4.66.6ZM52.89,29.24c.22-.07.38-.12.54-.17.11-.17.22-.33.32-.49-.05-.08-.1-.14-.15-.19h-.86c-.08.12-.15.28-.2.47.11.12.24.26.35.37ZM72.53,28.7c-.04-.11-.08-.22-.12-.33h-1.03c-.11.45.59,1.24,1.15.33ZM41.87,31.04c-.17.37.26.84.71.82.82-.51-.1-1.51-.71-.82ZM78.97,32.99c.36-.58.1-1.2-.61-.83-.41.12-.07.53-.19.8q.4.23.8.03ZM92.23,33.03c-.25-.18-.54-.38-.86-.59-.02.01-.03.02-.05.03.15.18.19.32.25.56.31,0,.52.02.66,0ZM67.76,29.36c-.6.18-.53.88.05,1.06.79-.14.73-1.08-.05-1.06ZM37.28,30.78c-.39-.24-.59.04-.85.33.38,1.49,1.58.13.85-.33ZM67.15,28.83c0-.13-.1-.31-.22-.46h-.92c-.27.49.57.84,1.15.46ZM61.79,31.42c-.22-.22-.27-.54-.61-.62-.74.18-.74.89,0,1.08.27-.07.43-.24.61-.46ZM50.84,28.86c.13-.18.14-.33.09-.46h-1.04c.08.49.54.8.95.46ZM58.17,29c.77.15.89-.27.75-.62h-.92c-.02.05-.04.1-.06.16.08.15.14.28.23.46ZM30.92,32.68c-.1-.33-.33-.53-.56-.69-.35.04-.42.32-.59.55.24.72.71.69,1.15.14ZM44.12,30.3c0-.25.04-.39.11-.65-1.16-1.15-1.39,1.32-.11.65ZM60.43,29.87c-.11-.04-.22-.09-.33-.13,0-.08-.02-.14-.02-.24-.18-.02-.35-.06-.53-.11-.21.2-.23.46-.3.67.28.63.97.43,1.18-.18ZM50.53,30.68c-1.39.51-.21,1.58.54.65-.07-.3-.32-.44-.54-.65ZM42.14,33.34c-.17.19-.4.29-.46.58.09.14.2.28.3.43.24.03.45.05.68-.02.22-.63.12-.83-.52-.99ZM41.11,32.03c-.62.19-.73.59-.38.97.66.5,1.28-.59.38-.97ZM43.36,33.03c-.01-.3-.02-.54-.03-.71-.07.05-.13.11-.2.16,0,.3.1.47.23.55ZM85.47,30.68c-.32.12-.6.27-.73.6.2.31.51.39.78.52.46-.23.44-.9-.05-1.11ZM82.05,31.14c.08.47.32.61.69.61.97-.48-.1-1.56-.69-.61ZM48.77,29.42c-.11.34-.09.67.03,1.06.33-.17.67-.26.94-.53-.41-.63-.46-.65-.97-.53ZM64,29.07c.28-.39.36-.51.3-.69h-.9c-.04.07-.08.13-.12.19q.2.58.72.5ZM39.26,28.94c.62.6.64.09.97-.38-.03-.06-.07-.11-.11-.15h-.97s0,0,0,.01c.04.17.08.35.12.52ZM48.61,32.7c.13,1.06,1.4.09.69-.58-.38-.2-.75.11-.69.58ZM56.13,31.15c.02-.09.04-.18.07-.3-.27-.04-.49-.08-.71-.12-.15.13-.32.24-.37.42.22.34.55.44.85.64.12-.14.24-.27.36-.4-.08-.1-.14-.17-.2-.24ZM32.08,30.98c-.43-.44-1.01-.11-.95.46.28.65,1.38.12.95-.46ZM39.25,34.2c.68.34.98.11.86-.66-.45-.4-1.39.16-.86.66ZM35.26,29.63c-.16.83,0,.81.58.9.51-.71.44-1.35-.58-.9ZM86.09,30.09c.23.17.43.32.64.48.32-.15.33-.41.39-.65-.26-.14-.51-.28-.75-.41-.15.15-.15.41-.28.59ZM84.19,32.19v.74c.12-.05.22-.11.31-.19-.06-.23-.17-.43-.31-.56ZM83.41,32.62c.1.43.46.45.78.32v-.75c-.3-.27-.68-.23-.78.43ZM48.09,28.98c.13-.33.18-.46.12-.59h-.91c-.07.11-.11.24-.15.38.28.31.61.23.93.21ZM38.73,32.34c.02.1.05.24.08.42.03-.17,0-.32-.08-.42ZM47.98,34.42c.1-.2.18-.38.26-.54-.1-.28-.26-.47-.51-.6-.3.1-.23.48-.43.69.06.15.12.3.18.48.18-.01.34-.02.5-.03ZM34.66,29.01c.15-.19.27-.47.08-.59h-.84c-.08.35.09.8.76.59ZM55.95,33.49c-.07,0-.14,0-.2,0,0,.26,0,.56,0,.89.18.01.4-.08.58-.32-.13-.19-.25-.37-.38-.56ZM33.37,30.28c.04-.18.08-.35.12-.53-.16-.24-.37-.36-.65-.4-.14.17-.26.32-.38.48.32.54.39.57.91.45ZM80.76,29.94c-.19.73,1.05.42,1.07-.19-.84-.62-.53-.41-1.07.19ZM76.8,33.95c.08.13.15.26.23.39.27,0,.55.15.75-.15-.15-.76-.66-1.22-.98-.24ZM50.1,34.23c.34.16.53.15.89-.01-.07-1.16-1.05-1.04-.89.01ZM29.85,29.65c.02.18.06.37.1.55,1.45.7.94-1.27-.1-.55ZM45.54,28.4h-.84c-.01.13-.03.26-.05.41.7.48.83.25.88-.41ZM68.82,31.13c-.01.2-.02.36-.03.54h.78c.1-.14.19-.27.3-.44-.24-.16-.42-.27-.6-.39-.18.12-.33.21-.45.29ZM58.82,31.66c.31-.46.18-.48-.1-.72-1-.56-.78,1.05.1.72ZM31.35,28.87c.3.13.61.21.75-.15-.04-.1-.07-.2-.11-.3h-.71c-.11.16-.15.33.07.45ZM76.55,29.92c-.15-.35-.44-.37-.71-.43-.44.54-.31.67.2.84.19-.08.4-.16.51-.41ZM79.8,29c.59.11.66-.36.38-.64h-.59c-.18.24-.16.63.21.64ZM53.96,30.62v-.04s-.04.02-.04.02l.04.02ZM28.44,28.42c-.05.31.07.71.38.67v-.11c.18.04.36.07.56-.05-.02-.17-.04-.34-.05-.51h-.88ZM28.82,34.34c.27-.05.58,0,.79-.28-.22-.34-.37-.71-.79-.83v.45c-.51-.31-.61.9,0,.67ZM24.08,28.74c-.02-.1-.05-.21-.07-.31h-1.13c-.04.68.82,1.03,1.21.31ZM25.87,30.78c-.62.27-.3,1.02.27.98,1.01.11.51-1.44-.27-.98ZM13.54,30.15q.38.24.94.13c.15-.48.28-.74-.16-.97l-.76.4c-.03.11-.03.24-.02.43ZM16.89,32.02c-.85.31-.99.99-.04,1.23.66-.37.67-.8.04-1.23ZM12.15,34c.89,1.48,1.8-.4.42-.7-.14.23-.28.46-.42.7ZM26.62,28.89c.19-.14.22-.31.16-.47h-1.1c-.15.46.25.81.94.47ZM12.04,32.42c-.16-.16-.33-.32-.5-.5-.19.12-.43.07-.58.31.1.16.04.37.02.55.19.71,1.1.28,1.07-.35ZM23.94,34.2c-.04-.23-.07-.44-.1-.64-.19-.24-.55-.33-.87.05.02.33.07.65.37.9h.29c.16-.08.26-.19.31-.31ZM27.26,29.36c-.17.19-.36.32-.44.58.21.42.75.49,1.17.37.15-.56-.08-1.08-.73-.94ZM15.83,34.19c.03-.12.06-.22.09-.33-.09-.26-.25-.45-.51-.59-1.04.35-.48,1.79.42.92ZM13.53,32.71c.44.81,1.28.15,1.05-.49-.6-.54-.84-.11-1.05.49ZM18.51,31.61v-.73c-.48-.26-.51-.25-.94.1-.05.63.37,1.15.94.63ZM10.49,34.46c.18-.34.03-1.27-.5-1.11-.28.21-.71.47-.45.87.3.07.6.15.95.23ZM15.55,28.67l-.54.28c.24.25.68.24.95-.06,0-.18-.05-.34-.11-.47h-.4s.09.24.09.24ZM10.54,31.3l-.77.4c.25.21.68,0,.77-.4ZM18.49,33.67c-.47-.23-.78-.5-.94.19-.18,1.22,1.58.22.94-.19ZM17.1,29.46c-.34,0-.78-.07-.85.37.06.16.12.33.18.49.11.05.21.09.32.14.57-.34.88-.4.34-1ZM27.87,32.16c-.3-.11-.55-.1-.7.03.06.15.14.45.24.87.44.1.79-.4.47-.91ZM24.4,29.53c-.29.67.65,1.42.93.54.17-.55-.53-.76-.93-.54ZM22.5,33.14c.3-.52.09-1.27-.6-1.06.07.11.11.17.16.26-.79.22-.13,1.15.44.81ZM13.37,30.98c-.4-.16-.67-.49-1.07-.1-.18.85.62.87,1.09.47,0-.12-.01-.24-.02-.37ZM6.91,33.92c.26.66.69.66,1.08.1-.2-.58-.94-.93-1.08-.1ZM15.42,31.8c.8-.56.3-1.42-.5-.87-.19.38-.02.68.5.87ZM22.53,29.59c-.43-.55-.8-.04-.95.42.06.17.18.28.27.41.61.12.49-.46.68-.83ZM20.41,33.93c-.3.44.35.73.65.41.12-.26.17-.49.08-.78-.59-.34-.59-.16-.72.37ZM19.69,29.49h-.64c-.05.15-.1.27-.16.43.2.71.84.38,1.05-.09-.09-.12-.18-.24-.25-.34ZM9.11,32.32c-.07-.05-.14-.1-.22-.15l-.6.32c-.16.61,1.01,1.1.82-.16ZM17.58,28.74c.13.51.57.35.91.15.17-.2.19-.35.14-.46h-.87c-.09.08-.16.18-.19.31ZM20.45,31q.13.22,0,.52c.09.09.2.18.31.29.19-.12.35-.23.55-.35-.24-.43-.33-1.19-.86-.45ZM20.33,29.05c.47,0,.74-.24,1.1-.48-.05-.05-.08-.09-.13-.14h-.75c-.18.12-.3.29-.23.62ZM22.96,30.92c.03.23.07.46.11.72.34-.05.66-.02.83-.39-.05-.09-.1-.19-.16-.31-.25,0-.48-.29-.78-.02ZM19.41,32.37c-.11.24-.36.31-.42.59.56.59,1.29-.35.65-.68-.07-.01-.22.04-.23.09Z"/>
      </g>
    </g>
  </g>
</svg>