<?xml version="1.0" encoding="UTF-8"?>
<svg xmlns="http://www.w3.org/2000/svg" xmlns:xlink="http://www.w3.org/1999/xlink" viewBox="0 0 120 78.84">
  <defs>
    <style>
      .cls-1 {
        fill: url(#linear-gradient-28);
      }

      .cls-2 {
        fill: url(#linear-gradient-39);
      }

      .cls-2, .cls-3, .cls-4, .cls-5, .cls-6, .cls-7, .cls-8, .cls-9, .cls-10, .cls-11, .cls-12, .cls-13, .cls-14, .cls-15, .cls-16, .cls-17, .cls-18, .cls-19, .cls-20, .cls-21, .cls-22, .cls-23, .cls-24, .cls-25, .cls-26, .cls-27, .cls-28, .cls-29, .cls-30, .cls-31 {
        mix-blend-mode: multiply;
      }

      .cls-2, .cls-6, .cls-32, .cls-7, .cls-13, .cls-33, .cls-34, .cls-35, .cls-36, .cls-37, .cls-38, .cls-24, .cls-26, .cls-31 {
        opacity: .5;
      }

      .cls-3, .cls-39, .cls-40, .cls-41, .cls-42 {
        opacity: .2;
      }

      .cls-3, .cls-21 {
        fill: #431a74;
      }

      .cls-4 {
        fill: url(#linear-gradient-2);
      }

      .cls-39 {
        fill: url(#linear-gradient-35);
      }

      .cls-39, .cls-32, .cls-40, .cls-43, .cls-33, .cls-44, .cls-35, .cls-45, .cls-36, .cls-46, .cls-47, .cls-48, .cls-41, .cls-49, .cls-37, .cls-38, .cls-50, .cls-51, .cls-52, .cls-53, .cls-54 {
        mix-blend-mode: lighten;
      }

      .cls-55 {
        fill: url(#linear-gradient-74);
      }

      .cls-55, .cls-56, .cls-57, .cls-58, .cls-59, .cls-60, .cls-34, .cls-61, .cls-62, .cls-42, .cls-63, .cls-64, .cls-65 {
        mix-blend-mode: screen;
      }

      .cls-55, .cls-56, .cls-57, .cls-58, .cls-59, .cls-60, .cls-61, .cls-62, .cls-63, .cls-64, .cls-65 {
        opacity: .3;
      }

      .cls-66 {
        fill: url(#linear-gradient-47);
      }

      .cls-66, .cls-67, .cls-68, .cls-69, .cls-70, .cls-71, .cls-72, .cls-73, .cls-74, .cls-75 {
        mix-blend-mode: overlay;
      }

      .cls-5 {
        fill: url(#linear-gradient-9);
      }

      .cls-6 {
        fill: url(#linear-gradient-60);
      }

      .cls-67 {
        fill: url(#linear-gradient-26);
      }

      .cls-76 {
        fill: url(#linear-gradient-43);
      }

      .cls-68 {
        fill: url(#linear-gradient-59);
      }

      .cls-56 {
        fill: url(#linear-gradient-71);
      }

      .cls-32 {
        fill: url(#linear-gradient-57);
      }

      .cls-77, .cls-78 {
        fill: #fff;
      }

      .cls-7 {
        fill: url(#linear-gradient-25);
      }

      .cls-8 {
        fill: url(#linear-gradient-62);
      }

      .cls-8, .cls-12, .cls-14, .cls-15, .cls-18, .cls-19, .cls-21, .cls-23, .cls-25, .cls-30 {
        opacity: .7;
      }

      .cls-40 {
        fill: url(#linear-gradient-56);
      }

      .cls-9 {
        fill: url(#linear-gradient-40);
      }

      .cls-10 {
        fill: url(#linear-gradient-51);
      }

      .cls-57 {
        fill: url(#linear-gradient-73);
      }

      .cls-11 {
        fill: url(#linear-gradient-30);
      }

      .cls-58 {
        fill: url(#linear-gradient-70);
      }

      .cls-12 {
        fill: url(#linear-gradient-21);
      }

      .cls-59 {
        fill: url(#linear-gradient-65);
      }

      .cls-43 {
        fill: url(#linear-gradient-33);
      }

      .cls-43, .cls-44, .cls-45, .cls-46, .cls-47, .cls-48, .cls-49, .cls-52, .cls-54 {
        opacity: .35;
      }

      .cls-13 {
        fill: url(#linear-gradient-46);
      }

      .cls-14 {
        fill: url(#linear-gradient-20);
      }

      .cls-33 {
        fill: url(#linear-gradient-16);
      }

      .cls-60 {
        fill: url(#linear-gradient-69);
      }

      .cls-34 {
        fill: url(#linear-gradient-75);
      }

      .cls-79 {
        fill: url(#linear-gradient-49);
      }

      .cls-44 {
        fill: url(#linear-gradient-53);
      }

      .cls-80 {
        fill: url(#linear-gradient-22);
      }

      .cls-15 {
        fill: url(#linear-gradient-41);
      }

      .cls-16 {
        fill: url(#linear-gradient-44);
      }

      .cls-35 {
        fill: url(#linear-gradient-36);
      }

      .cls-61 {
        fill: url(#linear-gradient-72);
      }

      .cls-81 {
        isolation: isolate;
      }

      .cls-69 {
        opacity: .25;
      }

      .cls-17 {
        fill: url(#linear-gradient-8);
      }

      .cls-18 {
        fill: url(#linear-gradient-42);
      }

      .cls-19 {
        fill: url(#linear-gradient-45);
      }

      .cls-45 {
        fill: url(#linear-gradient-32);
      }

      .cls-20 {
        fill: url(#linear-gradient-29);
      }

      .cls-36 {
        fill: url(#linear-gradient-15);
      }

      .cls-46 {
        fill: url(#linear-gradient-52);
      }

      .cls-47 {
        fill: url(#linear-gradient-11);
      }

      .cls-48 {
        fill: url(#linear-gradient-31);
      }

      .cls-41 {
        fill: url(#linear-gradient-14);
      }

      .cls-62 {
        fill: url(#linear-gradient-67);
      }

      .cls-49 {
        fill: url(#linear-gradient-12);
      }

      .cls-22 {
        fill: url(#linear-gradient-23);
      }

      .cls-37 {
        fill: url(#linear-gradient-58);
      }

      .cls-70 {
        fill: url(#linear-gradient-27);
      }

      .cls-82 {
        fill: url(#linear-gradient-7);
      }

      .cls-23 {
        fill: url(#linear-gradient-3);
      }

      .cls-38 {
        fill: url(#linear-gradient-37);
      }

      .cls-42 {
        fill: url(#radial-gradient);
      }

      .cls-24 {
        fill: url(#linear-gradient-4);
      }

      .cls-25 {
        fill: url(#linear-gradient-24);
      }

      .cls-50 {
        fill: url(#linear-gradient-13);
      }

      .cls-50, .cls-51, .cls-53 {
        opacity: .1;
      }

      .cls-26 {
        fill: url(#linear-gradient-18);
      }

      .cls-63 {
        fill: url(#linear-gradient-68);
      }

      .cls-71 {
        fill: url(#linear-gradient-17);
      }

      .cls-51 {
        fill: url(#linear-gradient-34);
      }

      .cls-72 {
        fill: url(#linear-gradient-38);
      }

      .cls-78 {
        mix-blend-mode: soft-light;
      }

      .cls-27 {
        fill: url(#linear-gradient-19);
      }

      .cls-64 {
        fill: url(#linear-gradient-66);
      }

      .cls-52 {
        fill: url(#linear-gradient-10);
      }

      .cls-65 {
        fill: url(#linear-gradient-64);
      }

      .cls-73 {
        fill: url(#linear-gradient-5);
      }

      .cls-83 {
        fill: url(#linear-gradient);
      }

      .cls-74 {
        fill: url(#linear-gradient-48);
      }

      .cls-28 {
        fill: url(#linear-gradient-50);
      }

      .cls-29 {
        fill: url(#linear-gradient-61);
      }

      .cls-75 {
        fill: url(#linear-gradient-6);
      }

      .cls-53 {
        fill: url(#linear-gradient-55);
      }

      .cls-54 {
        fill: url(#linear-gradient-54);
      }

      .cls-84 {
        fill: url(#_Áåçûìÿííûé_ãðàäèåíò_16);
      }

      .cls-30 {
        fill: url(#linear-gradient-63);
      }
    </style>
    <radialGradient id="_Áåçûìÿííûé_ãðàäèåíò_16" data-name="Áåçûìÿííûé ãðàäèåíò 16" cx="-820.17" cy="1677.91" fx="-820.17" fy="1677.91" r="104.34" gradientTransform="translate(-755.91 -359.45) rotate(-90) scale(.49)" gradientUnits="userSpaceOnUse">
      <stop offset="0" stop-color="#653048"/>
      <stop offset="1" stop-color="#3e0c32"/>
    </radialGradient>
    <linearGradient id="linear-gradient" x1="-1828.33" y1="-1156.9" x2="-1828.33" y2="-1239.09" gradientTransform="translate(-1144.46 1846.91) rotate(90)" gradientUnits="userSpaceOnUse">
      <stop offset="0" stop-color="#ffb897"/>
      <stop offset=".98" stop-color="#fa9e76"/>
      <stop offset="1" stop-color="#fa9e76"/>
    </linearGradient>
    <linearGradient id="linear-gradient-2" x1="-1828.33" y1="-1188.42" x2="-1828.33" y2="-1218.59" gradientTransform="translate(-1144.46 1846.91) rotate(90)" gradientUnits="userSpaceOnUse">
      <stop offset="0" stop-color="#fff7fc"/>
      <stop offset=".01" stop-color="#fef5fa"/>
      <stop offset=".35" stop-color="#fcd0c1"/>
      <stop offset=".64" stop-color="#fbb498"/>
      <stop offset=".86" stop-color="#faa47f"/>
      <stop offset="1" stop-color="#fa9e76"/>
    </linearGradient>
    <linearGradient id="linear-gradient-3" x1="-1828.33" y1="-1187.37" x2="-1828.33" y2="-1190.7" xlink:href="#linear-gradient-2"/>
    <linearGradient id="linear-gradient-4" x1="-1828.12" y1="-1156.9" x2="-1828.12" y2="-1186.17" xlink:href="#linear-gradient-2"/>
    <linearGradient id="linear-gradient-5" x1="-1828.93" y1="-1161.8" x2="-1828.93" y2="-1166.76" xlink:href="#linear-gradient"/>
    <linearGradient id="linear-gradient-6" x1="-1823.53" y1="-1163.03" x2="-1823.53" y2="-1167.66" xlink:href="#linear-gradient"/>
    <linearGradient id="linear-gradient-7" x1="-1823.78" y1="-1176.32" x2="-1823.78" y2="-1176.34" xlink:href="#linear-gradient-2"/>
    <linearGradient id="linear-gradient-8" x1="-1831.02" y1="-1220.32" x2="-1831.02" y2="-1232.35" xlink:href="#linear-gradient-2"/>
    <linearGradient id="linear-gradient-9" x1="-1823.53" y1="-1219.07" x2="-1823.53" y2="-1232.09" xlink:href="#linear-gradient-2"/>
    <linearGradient id="linear-gradient-10" x1="-1825.53" y1="-1228.25" x2="-1825.53" y2="-1238.64" gradientTransform="translate(-1144.46 1846.91) rotate(90)" gradientUnits="userSpaceOnUse">
      <stop offset="0" stop-color="#261b20"/>
      <stop offset="0" stop-color="#3b3136"/>
      <stop offset=".03" stop-color="#645a5f"/>
      <stop offset=".05" stop-color="#897f84"/>
      <stop offset=".07" stop-color="#a9a0a5"/>
      <stop offset=".09" stop-color="#c4bbc0"/>
      <stop offset=".12" stop-color="#dad1d6"/>
      <stop offset=".15" stop-color="#eae2e7"/>
      <stop offset=".2" stop-color="#f6eef3"/>
      <stop offset=".25" stop-color="#fdf5fa"/>
      <stop offset=".41" stop-color="#fff7fc"/>
      <stop offset=".51" stop-color="#fbf3f8"/>
      <stop offset=".58" stop-color="#f1eaee"/>
      <stop offset=".65" stop-color="#e1d9de"/>
      <stop offset=".72" stop-color="#c9c2c6"/>
      <stop offset=".79" stop-color="#aaa4a7"/>
      <stop offset=".85" stop-color="#857f82"/>
      <stop offset=".91" stop-color="#585455"/>
      <stop offset=".96" stop-color="#262223"/>
      <stop offset="1" stop-color="#030000"/>
    </linearGradient>
    <linearGradient id="linear-gradient-11" x1="-1876.7" y1="-1199.63" x2="-1876.7" y2="-1165.73" gradientTransform="translate(-1180.46 1851.42) rotate(92.04)" gradientUnits="userSpaceOnUse">
      <stop offset="0" stop-color="#fff7fc"/>
      <stop offset=".17" stop-color="#fbf3f8"/>
      <stop offset=".3" stop-color="#f1eaee"/>
      <stop offset=".42" stop-color="#e1d9de"/>
      <stop offset=".53" stop-color="#c9c2c6"/>
      <stop offset=".64" stop-color="#aaa4a7"/>
      <stop offset=".74" stop-color="#857f82"/>
      <stop offset=".84" stop-color="#585455"/>
      <stop offset=".94" stop-color="#262223"/>
      <stop offset="1" stop-color="#030000"/>
    </linearGradient>
    <linearGradient id="linear-gradient-12" x1="-1955.32" y1="-1108.05" x2="-1955.32" y2="-1103.61" gradientTransform="translate(-1237.1 1865.74) rotate(95.19)" xlink:href="#linear-gradient-11"/>
    <linearGradient id="linear-gradient-13" x1="-1828.56" y1="-1191.47" x2="-1828.56" y2="-1208.63" gradientTransform="translate(-1144.46 1846.91) rotate(90)" xlink:href="#linear-gradient-11"/>
    <linearGradient id="linear-gradient-14" x1="-1826.73" y1="-1192.05" x2="-1826.73" y2="-1200.75" gradientTransform="translate(-1144.46 1846.91) rotate(90)" xlink:href="#linear-gradient-11"/>
    <linearGradient id="linear-gradient-15" x1="-1832.6" y1="-1180.75" x2="-1832.6" y2="-1176.23" gradientTransform="translate(-1144.46 1846.91) rotate(90)" xlink:href="#linear-gradient-11"/>
    <linearGradient id="linear-gradient-16" x1="-1826.6" y1="-1181.34" x2="-1826.6" y2="-1179.72" gradientTransform="translate(-1144.46 1846.91) rotate(90)" xlink:href="#linear-gradient-11"/>
    <linearGradient id="linear-gradient-17" x1="-1820.5" y1="-1177.91" x2="-1820.5" y2="-1175.16" xlink:href="#linear-gradient"/>
    <linearGradient id="linear-gradient-18" x1="-1828.34" y1="-1181.64" x2="-1828.34" y2="-1185.98" xlink:href="#linear-gradient-2"/>
    <linearGradient id="linear-gradient-19" x1="-1836.22" y1="-1166.33" x2="-1833.04" y2="-1166.33" gradientTransform="translate(-1144.46 1846.91) rotate(90)" gradientUnits="userSpaceOnUse">
      <stop offset="0" stop-color="#fff7fc"/>
      <stop offset="0" stop-color="#fef5f9"/>
      <stop offset=".16" stop-color="#fddad1"/>
      <stop offset=".31" stop-color="#fcc4b0"/>
      <stop offset=".47" stop-color="#fbb396"/>
      <stop offset=".64" stop-color="#faa784"/>
      <stop offset=".81" stop-color="#faa079"/>
      <stop offset="1" stop-color="#fa9e76"/>
    </linearGradient>
    <linearGradient id="linear-gradient-20" x1="-1829.58" y1="-1168.77" x2="-1829.58" y2="-1159.43" xlink:href="#linear-gradient-2"/>
    <linearGradient id="linear-gradient-21" x1="-1823.45" y1="-1168.53" x2="-1823.45" y2="-1161.67" xlink:href="#linear-gradient-2"/>
    <linearGradient id="linear-gradient-22" x1="-1786.92" y1="-1157.83" x2="-1786.92" y2="-1240.02" xlink:href="#linear-gradient"/>
    <linearGradient id="linear-gradient-23" x1="-1786.92" y1="-1189.35" x2="-1786.92" y2="-1219.52" xlink:href="#linear-gradient-2"/>
    <linearGradient id="linear-gradient-24" x1="-1786.92" y1="-1188.3" x2="-1786.92" y2="-1191.64" xlink:href="#linear-gradient-2"/>
    <linearGradient id="linear-gradient-25" x1="-1786.72" y1="-1157.83" x2="-1786.72" y2="-1187.1" xlink:href="#linear-gradient-2"/>
    <linearGradient id="linear-gradient-26" x1="-1787.52" y1="-1162.73" x2="-1787.52" y2="-1167.7" xlink:href="#linear-gradient"/>
    <linearGradient id="linear-gradient-27" x1="-1782.12" y1="-1163.97" x2="-1782.12" y2="-1168.59" xlink:href="#linear-gradient"/>
    <linearGradient id="linear-gradient-28" x1="-1782.37" y1="-1177.25" x2="-1782.37" y2="-1177.27" xlink:href="#linear-gradient-2"/>
    <linearGradient id="linear-gradient-29" x1="-1789.61" y1="-1221.25" x2="-1789.61" y2="-1233.29" xlink:href="#linear-gradient-2"/>
    <linearGradient id="linear-gradient-30" x1="-1782.13" y1="-1220.01" x2="-1782.13" y2="-1233.03" xlink:href="#linear-gradient-2"/>
    <linearGradient id="linear-gradient-31" x1="-1784.12" y1="-1229.19" x2="-1784.12" y2="-1239.57" xlink:href="#linear-gradient-10"/>
    <linearGradient id="linear-gradient-32" x1="-1835.36" y1="-1202.04" x2="-1835.36" y2="-1168.14" xlink:href="#linear-gradient-11"/>
    <linearGradient id="linear-gradient-33" x1="-1914.16" y1="-1112.73" x2="-1914.16" y2="-1108.29" gradientTransform="translate(-1237.1 1865.74) rotate(95.19)" xlink:href="#linear-gradient-11"/>
    <linearGradient id="linear-gradient-34" x1="-1787.15" y1="-1192.41" x2="-1787.15" y2="-1209.57" gradientTransform="translate(-1144.46 1846.91) rotate(90)" xlink:href="#linear-gradient-11"/>
    <linearGradient id="linear-gradient-35" x1="-1785.32" y1="-1192.99" x2="-1785.32" y2="-1201.68" gradientTransform="translate(-1144.46 1846.91) rotate(90)" xlink:href="#linear-gradient-11"/>
    <linearGradient id="linear-gradient-36" x1="-1791.19" y1="-1181.69" x2="-1791.19" y2="-1177.16" gradientTransform="translate(-1144.46 1846.91) rotate(90)" xlink:href="#linear-gradient-11"/>
    <linearGradient id="linear-gradient-37" x1="-1785.2" y1="-1182.27" x2="-1785.2" y2="-1180.65" gradientTransform="translate(-1144.46 1846.91) rotate(90)" xlink:href="#linear-gradient-11"/>
    <linearGradient id="linear-gradient-38" x1="-1779.1" y1="-1178.85" x2="-1779.1" y2="-1176.1" xlink:href="#linear-gradient"/>
    <linearGradient id="linear-gradient-39" x1="-1786.93" y1="-1182.58" x2="-1786.93" y2="-1186.92" xlink:href="#linear-gradient-2"/>
    <linearGradient id="linear-gradient-40" x1="-1794.81" y1="-1167.27" x2="-1791.63" y2="-1167.27" xlink:href="#linear-gradient-19"/>
    <linearGradient id="linear-gradient-41" x1="-1788.18" y1="-1169.7" x2="-1788.18" y2="-1160.37" xlink:href="#linear-gradient-2"/>
    <linearGradient id="linear-gradient-42" x1="-1782.04" y1="-1169.47" x2="-1782.04" y2="-1162.61" xlink:href="#linear-gradient-2"/>
    <linearGradient id="linear-gradient-43" x1="-1210.47" y1="1991.95" x2="-1210.47" y2="1909.76" gradientTransform="translate(-1888.56 -1171.41) rotate(-90)" xlink:href="#linear-gradient"/>
    <linearGradient id="linear-gradient-44" x1="-1210.47" y1="1960.43" x2="-1210.47" y2="1930.25" gradientTransform="translate(-1888.56 -1171.41) rotate(-90)" xlink:href="#linear-gradient-2"/>
    <linearGradient id="linear-gradient-45" x1="-1210.47" y1="1961.48" x2="-1210.47" y2="1958.14" gradientTransform="translate(-1888.56 -1171.41) rotate(-90)" xlink:href="#linear-gradient-2"/>
    <linearGradient id="linear-gradient-46" x1="-1210.26" y1="1991.95" x2="-1210.26" y2="1962.68" gradientTransform="translate(-1888.56 -1171.41) rotate(-90)" xlink:href="#linear-gradient-2"/>
    <linearGradient id="linear-gradient-47" x1="-1211.07" y1="1987.04" x2="-1211.07" y2="1982.08" gradientTransform="translate(-1888.56 -1171.41) rotate(-90)" xlink:href="#linear-gradient"/>
    <linearGradient id="linear-gradient-48" x1="-1205.67" y1="1985.81" x2="-1205.67" y2="1981.19" gradientTransform="translate(-1888.56 -1171.41) rotate(-90)" xlink:href="#linear-gradient"/>
    <linearGradient id="linear-gradient-49" x1="-1205.92" y1="1972.53" x2="-1205.92" y2="1972.51" gradientTransform="translate(-1888.56 -1171.41) rotate(-90)" xlink:href="#linear-gradient-2"/>
    <linearGradient id="linear-gradient-50" x1="-1213.16" y1="1928.53" x2="-1213.16" y2="1916.49" gradientTransform="translate(-1888.56 -1171.41) rotate(-90)" xlink:href="#linear-gradient-2"/>
    <linearGradient id="linear-gradient-51" x1="-1205.67" y1="1929.77" x2="-1205.67" y2="1916.75" gradientTransform="translate(-1888.56 -1171.41) rotate(-90)" xlink:href="#linear-gradient-2"/>
    <linearGradient id="linear-gradient-52" x1="-1207.67" y1="1920.59" x2="-1207.67" y2="1910.21" gradientTransform="translate(-1888.56 -1171.41) rotate(-90)" xlink:href="#linear-gradient-10"/>
    <linearGradient id="linear-gradient-53" x1="-1147.16" y1="1925.12" x2="-1147.16" y2="1959.02" gradientTransform="translate(-1852.55 -1175.93) rotate(-87.96)" xlink:href="#linear-gradient-11"/>
    <linearGradient id="linear-gradient-54" x1="-1055.02" y1="1971.94" x2="-1055.02" y2="1976.39" gradientTransform="translate(-1795.91 -1190.25) rotate(-84.81)" xlink:href="#linear-gradient-11"/>
    <linearGradient id="linear-gradient-55" x1="-1210.7" y1="1957.37" x2="-1210.7" y2="1940.21" gradientTransform="translate(-1888.56 -1171.41) rotate(-90)" xlink:href="#linear-gradient-11"/>
    <linearGradient id="linear-gradient-56" x1="-1208.87" y1="1956.79" x2="-1208.87" y2="1948.1" gradientTransform="translate(-1888.56 -1171.41) rotate(-90)" xlink:href="#linear-gradient-11"/>
    <linearGradient id="linear-gradient-57" x1="-1214.74" y1="1968.09" x2="-1214.74" y2="1972.62" gradientTransform="translate(-1888.56 -1171.41) rotate(-90)" xlink:href="#linear-gradient-11"/>
    <linearGradient id="linear-gradient-58" x1="-1208.74" y1="1967.51" x2="-1208.74" y2="1969.13" gradientTransform="translate(-1888.56 -1171.41) rotate(-90)" xlink:href="#linear-gradient-11"/>
    <linearGradient id="linear-gradient-59" x1="-1202.64" y1="1970.93" x2="-1202.64" y2="1973.68" gradientTransform="translate(-1888.56 -1171.41) rotate(-90)" xlink:href="#linear-gradient"/>
    <linearGradient id="linear-gradient-60" x1="-1210.48" y1="1967.2" x2="-1210.48" y2="1962.86" gradientTransform="translate(-1888.56 -1171.41) rotate(-90)" xlink:href="#linear-gradient-2"/>
    <linearGradient id="linear-gradient-61" x1="-1218.36" y1="1982.51" x2="-1215.18" y2="1982.51" gradientTransform="translate(-1888.56 -1171.41) rotate(-90)" xlink:href="#linear-gradient-19"/>
    <linearGradient id="linear-gradient-62" x1="-1211.72" y1="1980.08" x2="-1211.72" y2="1989.41" gradientTransform="translate(-1888.56 -1171.41) rotate(-90)" xlink:href="#linear-gradient-2"/>
    <linearGradient id="linear-gradient-63" x1="-1205.59" y1="1980.31" x2="-1205.59" y2="1987.17" gradientTransform="translate(-1888.56 -1171.41) rotate(-90)" xlink:href="#linear-gradient-2"/>
    <radialGradient id="radial-gradient" cx="-154.25" cy="-365.62" fx="-154.25" fy="-365.62" r="104.37" gradientTransform="translate(134.99 217.21) scale(.49)" gradientUnits="userSpaceOnUse">
      <stop offset=".08" stop-color="#000"/>
      <stop offset=".24" stop-color="#030303"/>
      <stop offset=".36" stop-color="#0c0c0c"/>
      <stop offset=".47" stop-color="#1d1d1d"/>
      <stop offset=".57" stop-color="#343434"/>
      <stop offset=".67" stop-color="#515151"/>
      <stop offset=".76" stop-color="#767676"/>
      <stop offset=".85" stop-color="#a2a2a2"/>
      <stop offset=".93" stop-color="#d3d3d3"/>
      <stop offset="1" stop-color="#fff"/>
    </radialGradient>
    <linearGradient id="linear-gradient-64" x1="62.18" y1="22.08" x2="5.1" y2="22.08" gradientUnits="userSpaceOnUse">
      <stop offset=".09" stop-color="#000"/>
      <stop offset=".16" stop-color="#1c1c1c"/>
      <stop offset=".34" stop-color="#606060"/>
      <stop offset=".51" stop-color="#989898"/>
      <stop offset=".66" stop-color="#c5c5c5"/>
      <stop offset=".8" stop-color="#e4e4e4"/>
      <stop offset=".92" stop-color="#f8f8f8"/>
      <stop offset="1" stop-color="#fff"/>
    </linearGradient>
    <linearGradient id="linear-gradient-65" x1="59.27" y1="22.77" y2="22.77" xlink:href="#linear-gradient-64"/>
    <linearGradient id="linear-gradient-66" x1="61.89" y1="51.84" x2="119.11" y2="51.84" xlink:href="#linear-gradient-64"/>
    <linearGradient id="linear-gradient-67" x1="56.97" y1="59.97" x2="116.51" y2="59.97" xlink:href="#linear-gradient-64"/>
    <linearGradient id="linear-gradient-68" x1="71.35" y1="41.6" x2="71.35" y2=".02" gradientUnits="userSpaceOnUse">
      <stop offset=".17" stop-color="#000"/>
      <stop offset=".24" stop-color="#1c1c1c"/>
      <stop offset=".4" stop-color="#606060"/>
      <stop offset=".55" stop-color="#989898"/>
      <stop offset=".7" stop-color="#c5c5c5"/>
      <stop offset=".82" stop-color="#e4e4e4"/>
      <stop offset=".93" stop-color="#f8f8f8"/>
      <stop offset="1" stop-color="#fff"/>
    </linearGradient>
    <linearGradient id="linear-gradient-69" x1="62.1" y1="47.95" x2="119.11" y2="47.95" xlink:href="#linear-gradient-64"/>
    <linearGradient id="linear-gradient-70" x1="53.57" y1="38.04" x2="53.57" y2="78.73" gradientUnits="userSpaceOnUse">
      <stop offset=".25" stop-color="#000"/>
      <stop offset=".31" stop-color="#1c1c1c"/>
      <stop offset=".46" stop-color="#606060"/>
      <stop offset=".6" stop-color="#989898"/>
      <stop offset=".72" stop-color="#c5c5c5"/>
      <stop offset=".84" stop-color="#e4e4e4"/>
      <stop offset=".93" stop-color="#f8f8f8"/>
      <stop offset="1" stop-color="#fff"/>
    </linearGradient>
    <linearGradient id="linear-gradient-71" x1="26.25" y1="39.03" x2="26.25" y2="78.33" xlink:href="#linear-gradient-64"/>
    <linearGradient id="linear-gradient-72" x1="28.78" y1="47.29" x2="28.78" y2="78.33" xlink:href="#linear-gradient-64"/>
    <linearGradient id="linear-gradient-73" x1="13.78" y1="42.68" x2="13.78" y2="62.98" xlink:href="#linear-gradient-64"/>
    <linearGradient id="linear-gradient-74" x1="87.94" y1="52.35" x2="87.94" y2="3.27" xlink:href="#linear-gradient-68"/>
    <linearGradient id="linear-gradient-75" x1="95.7" y1="23.42" x2="95.7" y2="5.28" xlink:href="#linear-gradient-68"/>
  </defs>
  <g class="cls-81">
    <g id="Layer_2" data-name="Layer 2">
      <g id="Layer_1-2" data-name="Layer 1">
        <g>
          <g>
            <g>
              <path class="cls-84" d="M107.18,1.53c4.61.31,8.29,2.43,8.95,5.17,5.21,21.59,5.1,43.4-.03,65.39-.64,2.77-4.37,4.91-9.01,5.2-31.48,1.96-62.35,1.96-92.61-.01-4.41-.29-8.01-2.24-8.87-4.83-.14-.44-.28-.87-.42-1.31C-1.73,49.45-1.77,27.85,5.58,6.34c.88-2.57,4.46-4.49,8.84-4.79,30.72-2.06,61.64-2.07,92.77-.02Z"/>
              <path class="cls-78" d="M13.72,2.07c-4.16.29-7.57,2.19-8.41,4.73C2.67,14.83,1.03,22.87.37,30.92c-1.12,13.66.58,27.35,4.98,41.08.82,2.56,4.25,4.48,8.44,4.76,19.34,1.31,38.95,1.74,58.81,1.29,9.72-.21,19.51-.64,29.35-1.28,4.43-.28,7.96-2.4,8.57-5.12,4.89-21.7,4.99-43.21.04-64.51-.64-2.7-4.14-4.8-8.53-5.1C72.41.02,42.97.04,13.72,2.07ZM95.41,6.58c3.85.26,6.93,2.1,7.49,4.48,4.36,18.71,4.26,37.61-.03,56.67-.54,2.39-3.65,4.25-7.54,4.51-7.41.48-14.77.82-22.09,1.02-18.72.54-37.17.19-55.36-1.04-3.68-.25-6.69-1.94-7.41-4.18-4.09-12.77-5.53-25.5-4.18-38.19.67-6.38,2.05-12.75,4.15-19.1.73-2.23,3.73-3.9,7.38-4.15,25.7-1.79,51.56-1.79,77.6-.02Z"/>
              <path class="cls-3" d="M116.14,6.78c5.21,21.59,5.1,43.4-.03,65.39-.64,2.77-4.37,4.91-9.01,5.2-31.48,1.97-62.35,1.96-92.61-.01-3.98-.26-7.29-1.87-8.53-4.08,1.35,1.94,4.33,3.33,7.83,3.57,28.81,1.95,58.2,1.95,88.16.01,4.43-.29,7.96-2.4,8.57-5.13,3.16-14.01,4.32-27.95,3.4-41.8,2.65-6.61,3.57-14.27,2.2-23.15Z"/>
              <path class="cls-78" d="M14.99,3.05c-3.99.28-7.25,2.1-8.05,4.53C2.34,21.52.91,35.5,2.51,49.52c-.57-13.66,1.8-27.43,6.15-40.6.8-2.43,4.06-4.25,8.05-4.53,22.8-1.59,46.35-2.78,69.63-2.13-23.92-1.12-47.7-.86-71.35.78Z"/>
              <path class="cls-78" d="M100.34,75.61c3.86-.28,7.02-2.1,7.8-4.53,4.45-13.94,4.07-27.92,2.52-41.94.56,13.66.02,27.43-4.19,40.6-.78,2.43-3.94,4.25-7.8,4.53-22.07,1.59-44.87,2.78-67.41,2.13,23.15,1.12,46.17.86,69.07-.78Z"/>
              <path class="cls-3" d="M17.81,6.6c-3.66.25-6.65,1.92-7.38,4.15-6.27,19.01-6.11,38.11.03,57.29.72,2.25,3.73,3.93,7.42,4.18,25.31,1.71,51.13,1.71,77.45.01.64-.04,1.27-.13,1.86-.25-26.2,1.67-51.9,1.65-77.1-.03-3.68-.25-6.7-1.92-7.42-4.15-6.14-19.02-6.31-37.96-.03-56.81.73-2.21,3.73-3.87,7.38-4.12,25.56-1.76,51.28-1.78,77.18-.05-.58-.12-1.18-.2-1.8-.25-26.03-1.77-51.9-1.77-77.6.02Z"/>
              <path class="cls-78" d="M101.37,12.46c4.14,17.78,4.05,35.74-.03,53.86-.51,2.28-3.47,4.04-7.16,4.28-25.01,1.62-49.55,1.62-73.6,0-3.5-.24-6.37-1.84-7.05-3.98-5.84-18.23-5.99-36.37-.03-54.44.7-2.12,3.54-3.7,7.02-3.94,24.42-1.7,48.99-1.71,73.73-.02,3.67.25,6.59,2,7.12,4.26Z"/>
              <path class="cls-77" d="M9.04,6.58c-.36-.47,1.6-1.65,3.18-2.22,3.62-1.32,8.14-.52,8.24.12.16,1.02-10.67,3.07-11.42,2.1Z"/>
              <path class="cls-77" d="M8.47,8.7c.77.15.78,2.85-.47,3.17-.51.13-1.19-.14-1.49-.46-.9-.95,1.25-2.85,1.96-2.71Z"/>
              <path class="cls-77" d="M109.47,41.59c-.71-.06-.69-4.43-1.03-12.69-.36-8.58-.8-12.41-.17-12.49.87-.11,4.09,6.76,3.69,14.84-.28,5.52-1.73,10.41-2.49,10.34Z"/>
            </g>
            <g class="cls-31">
              <path class="cls-21" d="M28.33,21.17c2.59.31,4.64,1.08,6.19,1.62-.71.06-1.47.1-2.29.11-.42,0-.83,0-1.22-.01-.16,0-.31-.02-.46-.02-.23-.01-.46-.02-.68-.04-.18-.01-.34-.03-.52-.05-.18-.02-.37-.03-.55-.05-.18-.02-.35-.04-.52-.06-.16-.02-.31-.04-.46-.06-.18-.03-.36-.05-.53-.08-.13-.02-.26-.04-.39-.06-.2-.03-.39-.07-.58-.1-.09-.02-.17-.03-.26-.05-.3-.05-.59-.11-.88-.16-.08-.01-.17-.03-.25-.04-.17-.03-.33-.06-.49-.08-.07-.01-.14-.02-.21-.04,0,0-.02,0-.07-.01-.02,0-.04,0-.06,0,0,0-.01,0-.02,0,0,0-.01,0-.02,0-.12-.02-.24-.03-.36-.05-.1-.01-.2-.03-.3-.04-.1-.01-.2-.02-.3-.02-.11,0-.22-.02-.32-.02-.09,0-.18,0-.27,0-.11,0-.22,0-.33,0-.08,0-.17,0-.25.02-.11,0-.22.02-.33.04-.08.01-.16.02-.23.04-.11.02-.22.05-.33.08-.07.02-.14.04-.21.06-.12.04-.24.09-.36.14-.06.02-.12.04-.18.07-.18.08-.35.18-.53.29-2.12,1.35-2.83,4.19-2.43,4.5.03.02.06.03.09.02,0,0,.02,0,.03,0,.03,0,.06-.02.09-.03.01,0,.02-.01.04-.02.04-.03.09-.06.14-.1,0,0,0,0,0,0,.05-.04.11-.1.18-.16.01-.01.03-.03.05-.05.06-.06.12-.12.19-.18,0,0,0,0,0,0,.08-.09.17-.17.27-.27.11-.11.22-.23.35-.35.01-.01.03-.03.04-.04.1-.1.22-.21.33-.32.03-.03.07-.06.1-.1.11-.1.23-.2.35-.31.04-.03.07-.06.11-.09.16-.13.32-.26.5-.39,0,0,0,0,0,0,.17-.12.34-.24.52-.35.06-.03.11-.07.17-.1.14-.08.28-.16.42-.24.07-.04.14-.07.21-.11.15-.07.3-.14.46-.2.07-.03.14-.06.21-.08.23-.08.46-.16.71-.22,3.36-.85,4.71,1.47,9.12,1.5,1.76,0,3.38-.35,4.72-.82.26-.09.55.02.69.25,0,0,0,0,0,.01.19.33.01.75-.36.84-1.21.31-2.75.63-4.71.95-11.88,1.92-16.15,1.2-16.13,1.61.03.67,6.32.57,15.56.42.74-.01,3.37.1,5.79-.83,0,0,.01,0,.02,0,.95-.37,2.01-.36,2.9.12.07.03.13.07.2.1.02,0,.04.01.06.02.16.08.33.15.5.21.38.14.78.22,1.19.26.15.01.31.02.46.01.6-.01,1.21-.14,1.81-.36.39.7.86,1.31,1.41,1.8,1.81,1.62,4.17,1.68,21.17-2.5,2.58-.63,4.84-1.21,6.83-1.72.08-.02.15-.04.21-.05.13-.03.22-.06.26-.07h0s.01,0,.01,0c.33,1.06.84,1.88,1.55,2.26.4.22.78.26,1.24.16h0c1.47-.31,3.63-2.03,9.09-3.92,5-1.73,8.14-2,8.14-2.92,0-.77-2.17-1.05-5.53-2.19-5.04-1.71-7.5-3.55-9.19-4.43-.97-.5-1.68-.69-2.49-.37-.6.24-1.12.72-1.56,1.35-1.29-.38-2.71-.79-4.28-1.25-1.02-.3-1.99-.58-2.91-.85,0,0-.13-.04-.36-.11-.03-.01-.07-.02-.1-.03-14.69-4.29-17.01-4.95-19.57-3.29-.91.59-1.71,1.38-2.39,2.31-.87-.4-1.81-.64-2.76-.68-.55-.02-1.11.02-1.66.15-.04,0-.08.02-.11.03-.83.2-1.57.57-2.22,1.05-.63.47-1.31.87-2.06,1.12-.73.25-1.55.45-2.45.54-4.16.44-5.45-1.81-10.5-2.43-.34-.04-.67-.07-1-.1-.09,0-.17,0-.26-.01-.24-.01-.48-.03-.72-.03-.1,0-.21,0-.31,0-.21,0-.43,0-.63,0-.11,0-.21.01-.32.02-.19,0-.39.02-.58.03-.11,0-.22.02-.33.03-.18.02-.36.03-.53.05-.11.01-.22.03-.33.04-.16.02-.33.04-.48.07-.11.02-.21.04-.32.05-.15.03-.3.05-.44.08-.11.02-.2.04-.31.06-.13.03-.27.06-.39.08-.1.02-.19.05-.29.07-.12.03-.24.06-.35.09-.09.03-.18.05-.27.08-.1.03-.21.06-.3.09-.09.03-.16.05-.24.08-.09.03-.17.06-.25.08-.07.03-.14.05-.21.08-.07.03-.15.05-.21.08-.06.02-.11.05-.17.07-.06.02-.12.05-.17.07-.05.02-.09.04-.13.06-.04.02-.09.04-.12.06-.03.02-.05.03-.08.05-.03.02-.06.03-.08.05-.02.01-.02.02-.03.03,0,0-.03.02-.03.03h0s0,.01,0,.01c.03.22,4.35-1.38,9.74-.14.31.07.6.15.89.23.08.02.16.05.24.07.2.06.39.12.57.18.08.03.17.06.25.09.18.07.35.13.52.2.07.03.14.05.2.08.22.09.43.19.63.28,0,0,.01,0,.02,0,.21.1.41.2.6.3.06.03.12.06.18.09.13.07.26.14.39.21.06.04.13.07.19.11.11.06.22.12.32.19.16.09.32.19.47.27.13.08.27.16.4.23.08.05.16.09.24.14.19.11.37.21.55.3.02.01.04.02.06.03.16.08.32.16.49.23.06.03.13.05.19.08.12.05.25.09.38.13.08.02.15.04.23.07.12.03.25.06.38.09.08.02.16.03.24.04.14.02.29.03.44.04.08,0,.15.01.23.01.23,0,.47,0,.73-.02.48-.05.95-.14,1.39-.27.45-.13.87.28.75.74,0,0,0,.01,0,.02-.08.29-.35.49-.66.45-1.02-.12-2.25-.26-3.74-.44-1.69-.21-2.99-.37-4.02-.49-.05,0-.09-.01-.14-.02-.09,0-.17-.02-.25-.03-.11-.01-.21-.02-.31-.03-.06,0-.13-.01-.19-.02-.09,0-.19-.02-.27-.03-.05,0-.09,0-.14-.01-.12-.01-.23-.02-.33-.03-.03,0-.06,0-.1,0-.09,0-.19-.01-.28-.02-.02,0-.04,0-.06,0-.1,0-.2-.01-.3-.01-.02,0-.05,0-.07,0-.1,0-.19,0-.28,0,0,0,0,0-.01,0-.09,0-.17,0-.25,0-.02,0-.03,0-.05,0-.08,0-.16,0-.24.01-.01,0-.02,0-.03,0-.07,0-.14.01-.21.02,0,0-.02,0-.03,0-.07,0-.15.02-.22.03,0,0,0,0-.01,0,0,0,0,0,0,0-.15.03-.3.06-.45.11-.01,0-.02,0-.04.01-.15.05-.31.1-.47.16-1.66.64-2.54,1.56-4.83,1.85-2.06.26-3.48-.22-3.54,0,0,.02,0,.04.01.06,0,0,.01.02.02.03.01.02.02.04.04.06.01.01.02.03.04.04.02.02.04.04.07.07.02.01.03.03.05.05.03.02.06.05.1.08.02.02.04.03.06.05.04.03.09.06.13.09.02.01.04.03.07.04.06.04.12.07.19.11.02,0,.03.02.05.03.17.09.37.19.58.28.02,0,.05.02.07.03.08.03.17.07.25.1.04.01.07.03.11.04.08.03.16.05.24.08.04.01.09.03.14.04.08.02.16.04.24.06.05.01.1.03.15.04.08.02.16.03.24.05.05.01.11.02.16.03.08.01.16.02.25.03.06,0,.11.02.17.02.1,0,.2.01.3.02.18,0,.37,0,.56,0,0,0,0,0,0,0,.16,0,.31-.02.47-.05,2.49-.37,2.9-2.3,5.39-2.81,1.74-.35,3.47,1.2,5.79,1.83.51.14,1.01.24,1.5.32-8.04.12-20.11,2.66-19.98,3.16.02.1.5-.1,5.18-.62,6.05-.69,9.08-1.03,10.71-.84Z"/>
              <path class="cls-21" d="M90.04,59.93c-5.04-1.71-7.5-3.55-9.19-4.43-.97-.5-1.69-.69-2.49-.37-.6.24-1.12.72-1.56,1.35-1.29-.38-2.71-.79-4.28-1.25-1.02-.3-1.99-.58-2.91-.85,0,0-.13-.04-.36-.11-.03-.01-.07-.02-.1-.03-14.69-4.29-17.01-4.95-19.57-3.29-.91.59-1.71,1.38-2.39,2.31-.87-.4-1.81-.64-2.76-.68-.55-.02-1.11.02-1.66.15-.04,0-.08.02-.11.03-.83.2-1.57.57-2.22,1.05-.63.47-1.31.87-2.06,1.12-.73.25-1.55.45-2.45.54-4.16.44-5.45-1.81-10.5-2.43-.34-.04-.67-.07-1-.1-.09,0-.17,0-.26-.01-.24-.01-.48-.03-.72-.03-.11,0-.21,0-.31,0-.21,0-.42,0-.63,0-.11,0-.22.01-.33.02-.19,0-.39.02-.57.03-.11,0-.22.02-.33.03-.18.02-.35.03-.52.05-.11.01-.22.03-.33.04-.16.02-.32.04-.48.07-.11.02-.21.04-.32.05-.15.03-.3.05-.44.08-.1.02-.2.04-.3.06-.13.03-.27.06-.4.09-.1.02-.19.05-.28.07-.12.03-.24.06-.36.09-.09.02-.17.05-.26.07-.1.03-.21.06-.31.09-.08.03-.16.05-.24.08-.09.03-.18.06-.26.09-.07.03-.14.05-.21.08-.07.03-.15.05-.21.08-.06.02-.11.05-.17.07-.06.02-.12.05-.17.07-.05.02-.09.04-.13.06-.04.02-.09.04-.12.06-.03.02-.05.03-.08.05-.03.02-.06.03-.08.05-.02.01-.02.02-.03.03,0,0-.03.02-.03.03h0s0,.01,0,.01c.03.22,4.35-1.38,9.74-.14.31.07.6.15.89.23.08.02.16.05.24.07.2.06.39.12.57.18.08.03.17.06.25.09.18.06.35.13.52.2.07.03.14.05.2.08.22.09.43.18.63.28,0,0,.02,0,.02.01.21.1.41.2.6.3.06.03.12.06.17.09.13.07.27.14.39.22.06.03.12.07.18.1.11.06.22.13.33.19.16.09.32.19.47.27.13.08.27.16.4.23.08.05.16.09.24.14.19.11.37.21.55.3.02.01.04.02.06.03.16.08.32.16.49.23.06.03.13.05.19.08.12.05.25.09.38.13.07.02.15.04.23.07.12.03.25.06.38.09.08.02.16.03.24.04.14.02.29.03.44.04.08,0,.15.01.23.01.23,0,.47,0,.73-.02.48-.05.95-.14,1.39-.27.45-.13.87.28.75.74,0,0,0,.01,0,.02-.08.29-.35.49-.66.45-1.02-.12-2.25-.26-3.74-.44-1.36-.17-2.47-.3-3.38-.41,0,0,0,0,0,0-.2-.02-.4-.05-.58-.07-.07,0-.13-.02-.2-.02-.08,0-.16-.02-.24-.03-.1-.01-.19-.02-.29-.03-.08,0-.15-.02-.23-.02-.09,0-.17-.02-.26-.03-.05,0-.1,0-.14-.01-.11-.01-.23-.02-.33-.03-.03,0-.07,0-.1,0-.09,0-.18-.01-.27-.02-.02,0-.04,0-.07,0-.1,0-.2-.01-.29-.01-.02,0-.05,0-.07,0-.1,0-.19,0-.28,0,0,0-.01,0-.02,0-.09,0-.17,0-.25,0-.02,0-.03,0-.05,0-.08,0-.16,0-.24.01-.01,0-.02,0-.03,0-.07,0-.14.01-.21.02,0,0-.02,0-.03,0-.07,0-.15.02-.22.03,0,0-.01,0-.01,0,0,0,0,0,0,0-.15.03-.3.06-.45.11-.01,0-.02,0-.04.01-.15.05-.31.1-.47.16-1.66.64-2.54,1.56-4.83,1.85-2.06.26-3.48-.22-3.54,0,0,.02,0,.04.01.06,0,0,.01.02.02.03.01.02.02.04.04.06.01.01.02.03.04.04.02.02.04.04.07.07.02.01.03.03.05.05.03.02.06.05.1.08.02.02.04.03.07.05.04.03.08.06.13.09.02.01.04.03.07.04.06.04.12.07.18.11.02,0,.03.02.05.03.17.09.37.19.58.28.02,0,.05.02.07.03.08.03.17.07.25.1.04.01.07.03.11.04.08.03.16.05.24.08.04.01.09.03.14.04.08.02.16.04.24.06.05.01.1.02.15.04.08.02.16.03.24.05.06.01.11.02.17.03.08.01.16.02.25.03.06,0,.11.02.17.02.1,0,.2.01.3.02.18,0,.37,0,.56,0,0,0,0,0,.01,0,.16,0,.31-.02.47-.05,2.49-.37,2.9-2.3,5.39-2.81,1.74-.35,3.47,1.2,5.79,1.83.51.14,1.01.24,1.5.32-8.04.12-20.11,2.66-19.98,3.16.02.1.5-.1,5.18-.62,6.05-.69,9.08-1.03,10.71-.84,2.59.31,4.64,1.08,6.19,1.62-.71.06-1.47.1-2.29.11-.42,0-.83,0-1.22-.01-.16,0-.31-.02-.46-.02-.23-.01-.46-.02-.68-.04-.18-.01-.34-.03-.52-.05-.18-.02-.37-.03-.55-.05-.18-.02-.35-.04-.52-.06-.16-.02-.32-.04-.47-.06-.18-.03-.36-.05-.53-.08-.13-.02-.26-.04-.39-.06-.2-.03-.39-.07-.58-.1-.09-.02-.18-.03-.26-.05-.3-.05-.59-.11-.87-.16-.08-.01-.17-.03-.25-.04-.17-.03-.33-.06-.49-.08-.07-.01-.15-.02-.21-.04,0,0-.02,0-.07-.01-.02,0-.04,0-.06,0,0,0-.01,0-.02,0,0,0-.01,0-.02,0-.12-.02-.24-.03-.36-.05-.1-.01-.2-.03-.3-.04-.1-.01-.2-.02-.3-.02-.11,0-.22-.02-.32-.02-.09,0-.18,0-.27,0-.11,0-.22,0-.33,0-.08,0-.17,0-.25.02-.11,0-.22.02-.33.04-.08.01-.16.02-.23.04-.11.02-.22.05-.33.08-.07.02-.14.04-.21.06-.12.04-.24.09-.36.14-.06.02-.12.04-.18.07-.18.08-.35.18-.53.29-2.12,1.35-2.83,4.19-2.43,4.5.03.02.06.03.09.02,0,0,.02,0,.03,0,.03,0,.06-.02.09-.03.01,0,.02-.01.04-.02.04-.03.09-.06.14-.1,0,0,0,0,0,0,.05-.04.11-.1.18-.16.02-.01.03-.03.05-.05.06-.06.12-.12.18-.18,0,0,0,0,0,0,.08-.08.17-.17.27-.27.11-.11.22-.23.35-.35.01-.01.03-.03.04-.04.1-.1.22-.21.33-.32.03-.03.07-.06.1-.1.11-.1.23-.2.35-.31.04-.03.07-.06.11-.09.16-.13.32-.26.5-.39,0,0,0,0,.01,0,.17-.12.34-.24.52-.35.06-.03.11-.07.17-.1.14-.08.28-.16.42-.24.07-.04.14-.07.21-.11.15-.07.3-.14.46-.2.07-.03.14-.06.21-.08.23-.08.46-.16.71-.22,3.36-.85,4.71,1.47,9.12,1.5,1.76,0,3.38-.35,4.72-.82.26-.09.55.02.69.25,0,0,0,0,0,.01.19.33.01.75-.36.84-1.21.31-2.75.63-4.71.95-11.88,1.92-16.15,1.2-16.13,1.61.03.67,6.32.57,15.56.42.74-.01,3.37.1,5.79-.83,0,0,.01,0,.02,0,.95-.37,2.01-.36,2.9.12.07.03.13.07.2.1.02,0,.04.01.06.02.16.08.33.15.5.21.38.14.78.22,1.19.26.15.01.31.02.46.01.6-.01,1.21-.14,1.81-.36.39.7.86,1.31,1.41,1.8,1.81,1.62,4.17,1.68,21.17-2.5,2.58-.63,4.84-1.21,6.83-1.72.08-.02.15-.04.21-.05.13-.03.22-.06.26-.07h0s.01,0,.01,0c.33,1.06.84,1.88,1.55,2.26.4.22.78.26,1.24.16h0c1.47-.31,3.63-2.03,9.09-3.92,5-1.73,8.14-2,8.14-2.92,0-.77-2.17-1.05-5.53-2.19Z"/>
              <path class="cls-21" d="M103.39,37.06c-.02-.1-.5.1-5.18.62-6.05.69-9.08,1.03-10.71.84-2.59-.31-4.64-1.08-6.19-1.62.71-.06,1.47-.1,2.29-.11.42,0,.83,0,1.22.01.16,0,.31.02.46.02.23.01.46.02.68.04.18.01.34.03.52.05.18.02.37.03.55.05.18.02.35.04.52.06.16.02.31.04.47.06.18.03.36.05.53.08.13.02.26.04.38.06.2.03.39.07.58.1.09.02.18.03.26.05.3.05.59.11.87.16.08.01.17.03.25.04.17.03.33.06.49.08.07.01.14.02.21.04,0,0,.02,0,.07.01.02,0,.04,0,.06,0,0,0,.01,0,.02,0,0,0,.01,0,.02,0,.12.02.24.03.36.05.1.01.2.03.3.04.1.01.2.02.3.02.11,0,.22.02.32.02.09,0,.18,0,.27,0,.11,0,.22,0,.33,0,.08,0,.17,0,.25-.02.11,0,.22-.02.33-.04.08-.01.16-.02.23-.04.11-.02.22-.05.33-.08.07-.02.14-.04.21-.06.12-.04.24-.09.36-.14.06-.02.12-.04.18-.07.18-.08.35-.18.53-.29,2.12-1.35,2.83-4.19,2.43-4.5-.03-.02-.06-.03-.09-.02,0,0-.02,0-.03,0-.03,0-.06.02-.09.03-.01,0-.02.01-.04.02-.04.03-.09.06-.14.1,0,0,0,0,0,0-.05.05-.11.1-.18.16-.01.01-.03.03-.05.04-.06.06-.12.12-.19.19,0,0,0,0,0,0-.08.09-.17.18-.27.27-.11.11-.22.23-.35.35-.01.01-.03.03-.04.04-.1.1-.22.21-.33.32-.03.03-.07.06-.1.1-.11.1-.23.2-.35.31-.04.03-.07.06-.11.09-.16.13-.33.26-.5.39,0,0,0,0,0,0-.17.12-.34.24-.52.35-.06.03-.11.07-.17.1-.14.08-.28.16-.42.24-.07.04-.14.07-.21.11-.15.07-.3.14-.46.2-.07.03-.14.06-.21.08-.23.08-.46.16-.71.22-3.36.85-4.71-1.47-9.12-1.5-1.76,0-3.38.35-4.72.82-.26.09-.55-.02-.69-.25,0,0,0,0,0-.01-.19-.33-.01-.75.36-.84,1.21-.31,2.75-.63,4.71-.95,11.88-1.92,16.15-1.2,16.13-1.61-.03-.67-6.32-.57-15.56-.42-.74.01-3.37-.1-5.79.83,0,0-.01,0-.02,0-.95.37-2.01.36-2.9-.12-.07-.03-.13-.07-.2-.1-.02,0-.04-.01-.06-.02-.16-.08-.33-.15-.5-.21-.38-.14-.78-.22-1.19-.26-.15-.01-.31-.02-.46-.01-.6.01-1.21.14-1.81.36-.39-.7-.86-1.31-1.41-1.8-1.81-1.62-4.17-1.68-21.17,2.5-2.58.63-4.84,1.21-6.83,1.72-.08.02-.15.04-.21.05-.13.03-.22.06-.26.07h0s-.01,0-.01,0c-.33-1.06-.84-1.88-1.55-2.26-.4-.22-.78-.26-1.24-.16h0c-1.47.31-3.63,2.03-9.09,3.92-5,1.73-8.14,2-8.14,2.92,0,.77,2.17,1.05,5.53,2.19,5.04,1.71,7.5,3.55,9.19,4.43.97.5,1.69.69,2.49.37.6-.24,1.12-.72,1.56-1.35,1.29.38,2.71.79,4.28,1.25,1.02.3,1.99.58,2.91.85,0,0,.13.04.36.11.03.01.07.02.1.03,14.69,4.29,17.01,4.95,19.57,3.29.91-.59,1.71-1.38,2.39-2.31.87.4,1.81.64,2.76.68.55.02,1.11-.02,1.66-.15.04,0,.08-.02.11-.03.83-.2,1.57-.57,2.22-1.05.63-.47,1.31-.87,2.06-1.12.73-.25,1.55-.45,2.45-.54,4.16-.44,5.45,1.81,10.5,2.43.34.04.67.07,1,.1.09,0,.17,0,.26.01.24.01.48.03.72.03.1,0,.21,0,.31,0,.21,0,.43,0,.63,0,.11,0,.21-.01.32-.02.19,0,.39-.02.58-.03.11,0,.22-.02.33-.03.18-.02.36-.03.53-.05.11-.01.22-.03.33-.04.16-.02.33-.04.48-.07.11-.02.21-.04.32-.05.15-.03.3-.05.44-.08.11-.02.2-.04.31-.06.13-.03.27-.06.39-.08.1-.02.19-.05.29-.07.12-.03.24-.06.35-.09.09-.03.18-.05.27-.08.1-.03.21-.06.3-.09.09-.03.16-.05.24-.08.09-.03.17-.06.25-.08.07-.03.14-.05.21-.08.07-.03.15-.05.21-.08.06-.02.11-.05.17-.07.06-.02.12-.05.17-.07.05-.02.09-.04.13-.06.04-.02.09-.04.12-.06.03-.02.06-.03.08-.05.03-.02.06-.03.08-.05.02-.01.02-.02.03-.03,0,0,.03-.02.03-.03h0s0-.01,0-.01c-.03-.22-4.35,1.38-9.74.14-.31-.07-.6-.15-.89-.23-.08-.02-.16-.05-.24-.07-.2-.06-.39-.12-.57-.18-.08-.03-.17-.06-.25-.09-.18-.06-.35-.13-.52-.2-.07-.03-.14-.05-.2-.08-.22-.09-.43-.18-.62-.28,0,0-.02,0-.02-.01-.21-.1-.41-.2-.6-.3-.06-.03-.12-.06-.18-.09-.13-.07-.26-.14-.39-.21-.06-.04-.13-.07-.19-.11-.11-.06-.22-.12-.32-.19-.16-.09-.32-.19-.47-.27-.13-.08-.27-.16-.4-.23-.08-.05-.16-.09-.24-.14-.19-.11-.37-.21-.55-.3-.02-.01-.04-.02-.06-.03-.16-.08-.32-.16-.49-.23-.06-.03-.13-.05-.19-.08-.12-.05-.25-.09-.38-.13-.08-.02-.15-.04-.23-.07-.12-.03-.25-.06-.38-.09-.08-.02-.16-.03-.24-.04-.14-.02-.29-.03-.44-.04-.08,0-.15-.01-.23-.01-.23,0-.47,0-.73.02-.48.05-.95.14-1.39.27-.45.13-.87-.28-.75-.74,0,0,0-.01,0-.02.08-.29.35-.49.66-.45,1.02.12,2.25.26,3.74.44,1.69.21,2.99.37,4.02.49.05,0,.09.01.14.02.09,0,.17.02.25.03.11.01.21.02.31.03.06,0,.13.01.19.02.09,0,.19.02.27.03.05,0,.09,0,.14.01.12.01.23.02.33.03.03,0,.06,0,.1,0,.09,0,.19.01.28.02.02,0,.04,0,.06,0,.1,0,.2.01.3.01.02,0,.05,0,.07,0,.1,0,.19,0,.28,0,0,0,0,0,.01,0,.09,0,.17,0,.25,0,.02,0,.03,0,.05,0,.08,0,.16,0,.24-.01.01,0,.02,0,.03,0,.07,0,.14-.01.21-.02,0,0,.02,0,.03,0,.07,0,.15-.02.22-.03,0,0,0,0,.01,0,0,0,0,0,0,0,.15-.03.3-.06.45-.11.01,0,.02,0,.04-.01.15-.05.31-.1.47-.16,1.66-.64,2.54-1.56,4.83-1.85,2.06-.26,3.48.22,3.54,0,0-.02,0-.04-.01-.06,0,0-.01-.02-.02-.03-.01-.02-.02-.04-.04-.06-.01-.01-.02-.03-.04-.04-.02-.02-.04-.04-.07-.07-.02-.01-.03-.03-.05-.05-.03-.02-.06-.05-.1-.08-.02-.02-.04-.03-.07-.05-.04-.03-.08-.06-.13-.09-.02-.01-.04-.03-.07-.04-.06-.04-.12-.07-.18-.11-.02-.01-.03-.02-.05-.03-.17-.09-.37-.19-.58-.28-.02,0-.05-.02-.07-.03-.08-.03-.17-.07-.25-.1-.04-.01-.08-.03-.11-.04-.08-.03-.16-.05-.24-.08-.05-.01-.09-.03-.14-.04-.08-.02-.15-.04-.23-.06-.05-.01-.1-.03-.15-.04-.08-.02-.16-.03-.24-.05-.05-.01-.11-.02-.16-.03-.08-.01-.16-.02-.25-.03-.06,0-.11-.02-.17-.02-.1,0-.2-.01-.3-.02-.34-.01-.69,0-1.05.05-2.49.37-2.9,2.3-5.39,2.81-1.74.35-3.47-1.2-5.79-1.83-.51-.14-1.01-.24-1.5-.32,8.04-.12,20.11-2.66,19.98-3.16Z"/>
            </g>
            <g>
              <path class="cls-83" d="M46.13,28.45c-.55-.49-1.02-1.1-1.41-1.8-.6.22-1.21.35-1.81.36-.16,0-.31,0-.46-.01-.41-.03-.81-.12-1.19-.26-.26-.09-.51-.2-.75-.33-.89-.48-1.96-.49-2.9-.12,0,0-.01,0-.02,0-2.42.93-5.06.82-5.79.83-9.24.15-15.53.24-15.56-.42-.02-.41,4.25.31,16.13-1.61,1.96-.32,3.5-.65,4.71-.95.37-.09.55-.51.36-.84,0,0,0,0,0-.01-.14-.24-.43-.35-.69-.25-1.34.47-2.96.83-4.72.82-4.41-.02-5.76-2.34-9.12-1.5-3.45.87-5.11,4.08-5.57,3.72-.4-.31.31-3.16,2.43-4.5,2.96-1.88,5.96.4,12.47.31.82-.01,1.58-.05,2.29-.11-1.55-.55-3.59-1.32-6.19-1.62-1.63-.19-4.66.15-10.71.84-4.68.53-5.16.73-5.18.62-.13-.5,11.94-3.03,19.98-3.16-.49-.08-.99-.18-1.5-.32-2.32-.63-4.04-2.19-5.79-1.83-2.49.51-2.9,2.43-5.39,2.81-2.5.37-4.84-1.16-4.77-1.46.05-.22,1.47.26,3.54,0,2.29-.29,3.16-1.21,4.83-1.85,1.62-.62,2.53-.42,8.76.34,1.49.18,2.72.32,3.74.44.3.03.58-.16.66-.45,0,0,0-.01,0-.02.12-.45-.3-.87-.75-.74-.45.13-.91.22-1.39.27-3.67.34-4.64-2.45-10.01-3.69-5.39-1.24-9.7.36-9.74.14-.03-.23,4.41-2.13,9.87-1.46,5.05.62,6.33,2.87,10.5,2.43.9-.1,1.72-.29,2.45-.54.74-.25,1.42-.66,2.06-1.12.65-.48,1.39-.85,2.22-1.05.04-.01.08-.02.11-.03.55-.12,1.11-.17,1.66-.15.95.04,1.89.28,2.76.68.68-.93,1.48-1.72,2.39-2.31,2.56-1.66,4.88-1,19.57,3.29.03.01.07.02.1.03.24.07.36.11.36.11.92.27,1.89.55,2.91.85,1.56.46,2.99.87,4.28,1.25.44-.63.96-1.11,1.56-1.35.81-.33,1.53-.14,2.49.37,1.69.88,4.15,2.72,9.19,4.43,3.36,1.14,5.52,1.43,5.53,2.19,0,.92-3.14,1.19-8.14,2.92-5.46,1.89-7.62,3.61-9.09,3.92h0c-.45.1-.84.05-1.24-.16-.71-.39-1.22-1.21-1.55-2.26h-.01s0,0,0,0c-.04,0-.12.03-.26.07-.06.01-.13.03-.21.05-1.98.52-4.25,1.09-6.83,1.72-17.01,4.18-19.36,4.12-21.17,2.5Z"/>
              <path class="cls-4" d="M46.13,28.45c-.55-.49-1.02-1.1-1.41-1.8-1.65-3.66-.36-12.73,1.53-15.82.68-.93,1.48-1.72,2.39-2.31,2.56-1.66,4.88-1,19.57,3.29-2.68-.76-15.3-4.68-18.98-1.57-3.28,2.77-6.85,17.12,2.54,17.26,8.34.12,19.88-2.66,22.37-3.29-1.98.52-4.25,1.09-6.83,1.72-17.01,4.18-19.36,4.12-21.17,2.5Z"/>
              <path class="cls-23" d="M42.91,27c2.83-.21,2.31-15.92.57-16.85.95.04,1.89.28,2.76.68-1.66,2.74-.81,8.87-1.53,15.82-.6.22-1.21.35-1.81.36Z"/>
              <path class="cls-24" d="M31.79,27.12c.74-.01,3.37.1,5.79-.83,0,0,.01,0,.02,0,.95-.37,2.01-.36,2.9.12.07.03.13.07.2.1.18.09.37.17.55.23-4.12-2.42-4.66-14.34.27-16.33.06-.03.12-.05.19-.07-.83.2-1.57.57-2.22,1.05-.63.47-1.31.87-2.06,1.12-.73.25-1.55.45-2.45.54-4.16.44-5.45-1.81-10.5-2.43-5.36-.66-9.74,1.16-9.87,1.45h0s0,.01,0,.01c.03.22,4.35-1.38,9.74-.14,2.16.49,3.6,1.24,4.8,1.93,1.78,1.03,3.01,1.95,5.21,1.75.48-.05.95-.14,1.39-.27.45-.13.87.28.75.74,0,0,0,.01,0,.02-.08.29-.35.49-.66.45-1.02-.12-2.25-.26-3.74-.44-4.94-.6-6.53-.85-7.79-.62-.33.06-.63.15-.97.28-1.66.64-2.54,1.56-4.83,1.85-2.06.26-3.48-.22-3.54,0-.06.26,1.71,1.46,3.83,1.52.31,0,.62,0,.94-.06,2.49-.37,2.9-2.3,5.39-2.81,1.74-.35,3.47,1.2,5.79,1.83.51.14,1.01.24,1.5.32-8.04.12-20.11,2.66-19.98,3.16.02.1.5-.1,5.18-.62,6.05-.69,9.08-1.03,10.71-.84,2.59.31,4.64,1.08,6.19,1.62-.71.06-1.47.1-2.29.11-3.51.05-5.99-.59-8.01-.9,0,0-.02,0-.07-.01-.02,0-.04,0-.06,0,0,0-.01,0-.02,0-1.65-.24-2.99-.24-4.32.61-2.12,1.35-2.83,4.19-2.43,4.5.18.14.52-.24,1.07-.8.9-.93,2.36-2.38,4.5-2.92,3.36-.85,4.71,1.47,9.12,1.5,1.76,0,3.38-.35,4.72-.82.26-.09.55.02.69.25,0,0,0,0,0,.01.19.33.01.75-.36.84-1.21.31-2.75.63-4.71.95-11.88,1.92-16.15,1.2-16.13,1.61.03.67,6.32.57,15.56.42ZM28.21,11.91c.16-.27,2.48,1.73,6.05,1.58,1.83-.08,3.04-.68,3.13-.46.12.28-1.05,1.92-3.11,2.06-3.13.22-6.25-2.88-6.07-3.18ZM31.88,23.12c.25-.02,2.35-.36,3.12-1.11.17-.16.6-.71.44-1.11-.22-.53-1.33-.33-3.58-.75-.11-.02-1.81-.34-1.79-.52.03-.28,4.03.2,4.22-.54.2-.75-3.64-2.07-3.48-2.59.11-.36,2.19-.41,3.82.68,1.52,1.01,2.86,3.13,2.21,4.52-.84,1.8-4.62,1.44-4.96,1.42ZM30.14,26.72c-.05-.29,2.05-1.05,4.24-1.11,1.17-.03,2.14.14,2.83.3-.59.22-.87.53-1.9.73-2.15.42-5.12.39-5.17.08Z"/>
              <path class="cls-73" d="M22.3,17.08c-.1-.13-.84.54-2.21.94-1.61.46-2.73.14-2.75.28-.02.18,1.82,1.01,3.42.3,1-.45,1.64-1.38,1.53-1.51Z"/>
              <path class="cls-75" d="M23.2,21.96c.03.14-1.07.22-2.42,1.04-1.49.91-2.07,2-2.19,1.91-.13-.1.43-1.71,1.84-2.54,1.26-.73,2.73-.58,2.76-.42Z"/>
              <path class="cls-82" d="M31.86,23.13s0,0,.02,0c-.01,0-.02,0-.02,0Z"/>
              <path class="cls-17" d="M87.89,19.24l-12.03-5.19c.44-.63.96-1.11,1.56-1.35.81-.33,1.53-.14,2.49.37-.72,0-1.62.12-1.76.68-.23.9,8.9,5.11,9.74,5.5Z"/>
              <path class="cls-5" d="M76.17,26.36c-.71-.39-1.22-1.21-1.55-2.26l13.02-3.92c-.24.09-7.84,2.83-9.49,3.75-1.23.69-.97,1.97-.75,2.6-.45.1-.84.05-1.24-.16Z"/>
              <path class="cls-52" d="M94.18,19.91c.03.19-1.25.46-3.86,1.18-4.99,1.38-6.43,2.09-6.52,1.89-.13-.29,2.82-2.34,6.59-3.01,1.84-.32,3.76-.3,3.79-.07Z"/>
              <path class="cls-47" d="M85.23,19.24c.04-.87-3.29-.8-16.26-4.64-5.56-1.65-7.67-2.47-10.42-1.88-4.48.96-8.28,5.17-6.99,7.45,2.96,5.23,33.56,1.7,33.66-.94Z"/>
              <path class="cls-49" d="M41.95,23.63c1.37-.32,1.55-4.59,1.03-7.52-.24-1.38-.44-2.5-1-2.6-1.14-.22-3.91,3.73-2.83,7.12.49,1.54,1.86,3.22,2.8,3Z"/>
              <path class="cls-78" d="M84.56,19.09c0-.19-.9-.28-3.15-.72-4.73-.92-6.3-1.57-6.4-1.32-.13.32,2.19,1.96,5.08,2.41,2.25.35,4.47-.08,4.47-.37Z"/>
              <path class="cls-78" d="M74.04,16.73c.05-.39-2.29-1.22-2.5-.88-.11.18.33.72.83.97.73.37,1.64.14,1.67-.09Z"/>
              <path class="cls-77" d="M93.12,19.91c-.02-.2-1.25-.43-2.24.14-.19.11-.68.42-.63.56.12.29,2.9-.39,2.87-.7Z"/>
              <path class="cls-50" d="M61.73,12.81c-2.57-2.48-7.81-3.8-10.66-2.46-4.67,2.19-5.36,12.57-1.77,15.17,3.53,2.56,11.37,1.52,13.94-3.15,1.58-2.88,1.26-6.89-1.5-9.55Z"/>
              <path class="cls-41" d="M56.1,24.33c1.33-2.22-4.53-10.22-7-9.78-1.94.35-2.02,7.08-.14,9.64,1.8,2.45,6.13,1.82,7.14.14Z"/>
              <path class="cls-78" d="M42.55,22.45c.19,0,.34-1.47.38-2.24.06-1.06.05-2.71-.16-2.73-.19-.02-.55,1.36-.57,2.75-.01,1.07.18,2.23.35,2.23Z"/>
              <path class="cls-36" d="M36.29,13.89c.07.25-.94.79-1.82.96-1.33.27-2.71-.21-2.7-.5.02-.5,4.39-.96,4.52-.46Z"/>
              <path class="cls-33" d="M35.26,18.04c.2.17,1.95,1.7,1.56,3.24-.19.73-.82,1.36-1,1.27-.18-.09.22-.88.22-1.95,0-1.11-.44-2.01-.79-2.57Z"/>
              <path class="cls-71" d="M33.45,26.05c-.07-.21-1.29.03-1.36.05-.37.08-1.41.32-1.39.52.02.19.97.36,1.82.07.48-.16.97-.49.93-.64Z"/>
              <path class="cls-69" d="M64.74,12.42c-.15-.3-.67-.44-.93-.25-.4.28-.16,1.26.16,1.34.32.08.98-.64.76-1.09Z"/>
              <path class="cls-69" d="M67.66,19.51c.04-.16-.3-.56-.63-.44-.22.08-.36.37-.28.51.13.22.85.14.9-.07Z"/>
              <path class="cls-69" d="M66.61,19.88c.01-.1-.09-.2-.16-.19-.06.01-.11.11-.09.19.01.05.06.13.13.13.07,0,.12-.07.13-.13Z"/>
              <path class="cls-69" d="M58.09,24.17c.03-.33-1.14-.96-1.6-.56-.22.19-.27.61-.1.83.35.46,1.67.06,1.7-.28Z"/>
              <path class="cls-69" d="M58.77,24.76c-.07-.13-.26-.17-.4-.14-.18.04-.36.22-.31.42.04.18.24.28.4.26.25-.03.41-.35.31-.54Z"/>
              <path class="cls-69" d="M86.25,16.94c.03-.2-.86-.6-1.02-.42-.08.09.02.33.16.46.3.28.84.1.86-.05Z"/>
              <path class="cls-69" d="M49.1,9.38c-.07-.13-.39-.09-.61.02-.27.14-.5.46-.42.59.08.13.45.09.7-.07.21-.14.41-.41.33-.54Z"/>
              <path class="cls-26" d="M41.26,26.73c-.19-.06-.37-.14-.55-.23-1.57-1.32-3.68-3.93-3.51-8.11.3-7.33,4.33-8,4.33-8h0c-4.93,1.99-4.38,13.91-.27,16.33Z"/>
              <path class="cls-69" d="M74.57,22.64c.07-.42-.96-1.04-1.92-1.18-.87-.13-1.99.08-2.06.49-.08.45,1.13,1.18,2.29,1.23.68.03,1.63-.15,1.69-.53Z"/>
              <path class="cls-69" d="M43.02,11.38c-.12-.29-1-.35-1.62.05-.74.49-.9,1.53-.64,1.72.43.32,2.47-1.26,2.26-1.77Z"/>
              <path class="cls-69" d="M43.42,12.7c-.05-.11-.3-.15-.45-.05-.25.16-.16.59-.03.64.16.06.58-.4.49-.59Z"/>
              <path class="cls-69" d="M43.61,24.67c0-.08-.15-.2-.28-.16-.15.05-.17.27-.1.33.08.08.38-.05.38-.17Z"/>
              <path class="cls-69" d="M30.9,22.99c0-.18-.7-.29-1.07-.32-.25-.02-.8-.07-.83.07-.04.16.57.6,1.21.56.32-.02.7-.17.7-.3Z"/>
              <path class="cls-69" d="M28.56,22.32c.02-.2-.4-.42-.53-.32-.12.09-.1.48.12.56.17.06.4-.09.42-.23Z"/>
              <path class="cls-27" d="M14.61,12.07s0,0,0-.01h0c2.07-.94,5.62-2.03,9.62-.87,2.19.63,3.82,1.74,4.92,2.68-1.2-.69-2.65-1.44-4.8-1.93-5.39-1.24-9.7.36-9.74.14Z"/>
              <path class="cls-14" d="M18.81,19.15c-2.12-.05-3.9-1.26-3.83-1.52.05-.22,1.47.26,3.54,0,2.29-.29,3.16-1.21,4.83-1.85.34-.13.64-.22.97-.28-2.01.64-3.42,2.34-5.09,2.54-2.13.26-3.2-.41-3.15,0,.03.27,1.31.89,2.74,1.11Z"/>
              <path class="cls-12" d="M17.32,26.07c-.4-.31.31-3.16,2.43-4.5,1.33-.84,2.66-.85,4.32-.61-.61-.08-3.01-.26-4.6,1.49-1.75,1.93-2.26,3.27-1.07,2.82-.55.57-.9.94-1.07.8Z"/>
              <path class="cls-78" d="M49.98,10.08c.12-.74,5.04-1.34,9.33.08,2.53.83,5.45,2.57,5.13,3.15-.65,1.19-14.67-1.95-14.46-3.23Z"/>
            </g>
            <g>
              <path class="cls-80" d="M47.07,69.85c-.55-.49-1.02-1.1-1.41-1.8-.6.22-1.21.35-1.81.36-.16,0-.31,0-.46-.01-.41-.03-.81-.12-1.19-.26-.26-.09-.51-.2-.75-.33-.89-.47-1.96-.49-2.9-.12,0,0-.01,0-.02,0-2.42.93-5.06.82-5.79.83-9.24.15-15.53.24-15.56-.42-.02-.41,4.25.31,16.13-1.61,1.96-.32,3.5-.65,4.71-.95.37-.09.55-.51.36-.84h0c-.14-.25-.43-.36-.69-.27-1.34.47-2.96.83-4.72.82-4.41-.02-5.76-2.34-9.12-1.5-3.45.87-5.11,4.08-5.57,3.72-.4-.31.31-3.16,2.43-4.5,2.96-1.88,5.96.4,12.47.31.82-.01,1.58-.05,2.29-.11-1.55-.55-3.59-1.32-6.19-1.62-1.63-.19-4.66.15-10.71.84-4.68.53-5.16.73-5.18.62-.13-.5,11.94-3.03,19.98-3.16-.49-.08-.99-.18-1.5-.32-2.32-.63-4.04-2.19-5.79-1.83-2.49.51-2.9,2.43-5.39,2.81-2.5.37-4.84-1.16-4.77-1.46.05-.22,1.47.26,3.54,0,2.29-.29,3.16-1.21,4.83-1.85,1.62-.62,2.53-.42,8.76.34,1.49.18,2.72.32,3.74.44.3.03.58-.16.66-.45,0,0,0-.01,0-.02.12-.45-.3-.87-.75-.74-.45.13-.91.22-1.39.27-3.67.34-4.64-2.45-10.01-3.69-5.39-1.24-9.7.36-9.74.14-.03-.23,4.41-2.13,9.87-1.46,5.05.62,6.33,2.87,10.5,2.43.9-.1,1.72-.29,2.45-.54.74-.25,1.42-.66,2.06-1.12.65-.48,1.39-.85,2.22-1.05.04-.01.08-.02.11-.03.55-.12,1.11-.17,1.66-.15.95.04,1.89.28,2.76.68.68-.93,1.48-1.72,2.39-2.31,2.56-1.66,4.88-1,19.57,3.29.03.01.07.02.1.03.24.07.36.11.36.11.92.27,1.89.55,2.91.85,1.56.46,2.99.87,4.28,1.25.44-.63.96-1.11,1.56-1.35.81-.33,1.53-.14,2.49.37,1.69.88,4.15,2.72,9.19,4.43,3.36,1.14,5.52,1.43,5.53,2.19,0,.92-3.14,1.19-8.14,2.92-5.46,1.89-7.62,3.61-9.09,3.92h0c-.45.1-.84.05-1.24-.16-.71-.39-1.22-1.21-1.55-2.26h-.01s0,0,0,0c-.04,0-.12.03-.26.07-.06.01-.13.03-.21.05-1.98.52-4.25,1.09-6.83,1.72-17.01,4.18-19.36,4.12-21.17,2.5Z"/>
              <path class="cls-22" d="M47.07,69.85c-.55-.49-1.02-1.1-1.41-1.8-1.65-3.66-.36-12.73,1.53-15.82.68-.93,1.48-1.72,2.39-2.31,2.56-1.66,4.88-1,19.57,3.29-2.68-.76-15.3-4.68-18.98-1.57-3.28,2.77-6.85,17.12,2.54,17.26,8.34.12,19.88-2.66,22.37-3.29-1.98.52-4.25,1.09-6.83,1.72-17.01,4.18-19.36,4.12-21.17,2.5Z"/>
              <path class="cls-25" d="M43.85,68.41c2.83-.21,2.31-15.92.57-16.85.95.04,1.89.28,2.76.68-1.66,2.74-.81,8.87-1.53,15.82-.6.22-1.21.35-1.81.36Z"/>
              <path class="cls-7" d="M32.72,68.53c.74-.01,3.37.1,5.79-.83,0,0,.01,0,.02,0,.95-.37,2.01-.36,2.9.12.07.03.13.07.2.1.18.09.37.17.55.23-4.12-2.42-4.66-14.34.27-16.33.06-.03.12-.05.19-.07-.83.2-1.57.57-2.22,1.05-.63.47-1.31.87-2.06,1.12-.73.25-1.55.45-2.45.54-4.16.44-5.45-1.81-10.5-2.43-5.36-.66-9.74,1.16-9.87,1.45h0s0,.01,0,.01c.03.22,4.35-1.38,9.74-.14,2.16.49,3.6,1.24,4.8,1.93,1.78,1.03,3.01,1.95,5.21,1.75.48-.05.95-.14,1.39-.27.45-.13.87.28.75.74,0,0,0,.01,0,.02-.08.29-.35.49-.66.45-1.02-.12-2.25-.26-3.74-.44-4.94-.6-6.53-.85-7.79-.62-.33.06-.63.15-.97.28-1.66.64-2.54,1.56-4.83,1.85-2.06.26-3.48-.22-3.54,0-.06.26,1.71,1.46,3.83,1.52.31,0,.62,0,.94-.06,2.49-.37,2.9-2.3,5.39-2.81,1.74-.35,3.47,1.2,5.79,1.83.51.14,1.01.24,1.5.32-8.04.12-20.11,2.66-19.98,3.16.02.1.5-.1,5.18-.62,6.05-.69,9.08-1.03,10.71-.84,2.59.31,4.64,1.08,6.19,1.62-.71.06-1.47.1-2.29.11-3.51.05-5.99-.59-8.01-.9,0,0-.02,0-.07-.01-.02,0-.04,0-.06,0,0,0-.01,0-.02,0-1.65-.24-2.99-.24-4.32.61-2.12,1.35-2.83,4.19-2.43,4.5.18.14.52-.24,1.07-.8.9-.93,2.36-2.38,4.5-2.92,3.36-.85,4.71,1.47,9.12,1.5,1.76,0,3.38-.35,4.72-.82.26-.09.55.02.69.25h0c.19.34.01.76-.36.86-1.21.31-2.75.63-4.71.95-11.88,1.92-16.15,1.2-16.13,1.61.03.67,6.32.57,15.56.42ZM29.15,53.31c.16-.27,2.48,1.73,6.05,1.58,1.83-.08,3.04-.68,3.13-.46.12.28-1.05,1.92-3.11,2.06-3.13.22-6.25-2.88-6.07-3.18ZM32.82,64.53c.25-.02,2.35-.36,3.12-1.11.17-.16.6-.71.44-1.11-.22-.53-1.33-.33-3.58-.75-.11-.02-1.81-.34-1.79-.52.03-.28,4.03.2,4.22-.54.2-.75-3.64-2.07-3.48-2.59.11-.36,2.19-.41,3.82.68,1.52,1.01,2.86,3.13,2.21,4.52-.84,1.8-4.62,1.44-4.96,1.42ZM31.07,68.13c-.05-.29,2.05-1.05,4.24-1.11,1.17-.03,2.14.14,2.83.3-.59.22-.87.53-1.9.73-2.15.42-5.12.39-5.17.08Z"/>
              <path class="cls-67" d="M23.23,58.49c-.1-.13-.84.54-2.21.94-1.61.46-2.73.14-2.75.28-.02.18,1.82,1.01,3.42.3,1-.45,1.64-1.38,1.53-1.51Z"/>
              <path class="cls-70" d="M24.14,63.37c.03.14-1.07.22-2.42,1.04-1.49.91-2.07,2-2.19,1.91-.13-.1.43-1.71,1.84-2.54,1.26-.73,2.73-.58,2.76-.42Z"/>
              <path class="cls-1" d="M32.79,64.53s0,0,.02,0c-.01,0-.02,0-.02,0Z"/>
              <path class="cls-20" d="M88.83,60.64l-12.03-5.19c.44-.63.96-1.11,1.56-1.35.81-.33,1.53-.14,2.49.37-.72,0-1.62.12-1.76.68-.23.9,8.9,5.11,9.74,5.5Z"/>
              <path class="cls-11" d="M77.1,67.77c-.71-.39-1.22-1.21-1.55-2.26l13.02-3.92c-.24.09-7.84,2.83-9.49,3.75-1.23.69-.97,1.97-.75,2.6-.45.1-.84.05-1.24-.16Z"/>
              <path class="cls-48" d="M95.11,61.32c.03.19-1.25.46-3.86,1.18-4.99,1.38-6.43,2.09-6.52,1.89-.13-.29,2.82-2.34,6.59-3.01,1.84-.32,3.76-.3,3.79-.07Z"/>
              <path class="cls-45" d="M86.17,60.65c.04-.87-3.29-.8-16.26-4.64-5.56-1.65-7.67-2.47-10.42-1.88-4.48.96-8.28,5.17-6.99,7.45,2.96,5.23,33.56,1.7,33.66-.94Z"/>
              <path class="cls-43" d="M42.89,65.04c1.37-.32,1.55-4.59,1.03-7.52-.24-1.38-.44-2.5-1-2.6-1.14-.22-3.91,3.73-2.83,7.12.49,1.54,1.86,3.22,2.8,3Z"/>
              <path class="cls-78" d="M85.5,60.5c0-.19-.9-.28-3.15-.72-4.73-.92-6.3-1.57-6.4-1.32-.13.32,2.19,1.96,5.08,2.41,2.25.35,4.47-.08,4.47-.37Z"/>
              <path class="cls-78" d="M74.97,58.14c.05-.39-2.29-1.22-2.5-.88-.11.18.33.72.83.97.73.37,1.64.14,1.67-.09Z"/>
              <path class="cls-77" d="M94.05,61.32c-.02-.2-1.25-.43-2.24.14-.19.11-.68.42-.63.56.12.29,2.9-.39,2.87-.7Z"/>
              <path class="cls-51" d="M62.66,54.22c-2.57-2.48-7.81-3.8-10.66-2.46-4.67,2.19-5.36,12.57-1.77,15.17,3.53,2.56,11.37,1.52,13.94-3.15,1.58-2.88,1.26-6.89-1.5-9.55Z"/>
              <path class="cls-39" d="M57.03,65.74c1.33-2.22-4.53-10.22-7-9.78-1.94.35-2.02,7.08-.14,9.64,1.8,2.45,6.13,1.82,7.14.14Z"/>
              <path class="cls-78" d="M43.48,63.86c.19,0,.34-1.47.38-2.24.06-1.06.05-2.71-.16-2.73-.19-.02-.55,1.36-.57,2.75-.01,1.07.18,2.23.35,2.23Z"/>
              <path class="cls-35" d="M37.23,55.3c.07.25-.94.79-1.82.96-1.33.27-2.71-.21-2.7-.5.02-.5,4.39-.96,4.52-.46Z"/>
              <path class="cls-38" d="M36.2,59.45c.2.17,1.95,1.7,1.56,3.24-.19.73-.82,1.36-1,1.27-.18-.09.22-.88.22-1.95,0-1.11-.44-2.01-.79-2.57Z"/>
              <path class="cls-72" d="M34.39,67.45c-.07-.21-1.29.03-1.36.05-.37.08-1.41.32-1.39.52.02.19.97.36,1.82.07.48-.16.97-.49.93-.64Z"/>
              <path class="cls-69" d="M65.68,53.82c-.15-.3-.67-.44-.93-.25-.4.28-.16,1.26.16,1.34.32.08.98-.64.76-1.09Z"/>
              <path class="cls-69" d="M68.6,60.92c.04-.16-.3-.56-.63-.44-.22.08-.36.37-.28.51.13.22.85.14.9-.07Z"/>
              <path class="cls-69" d="M67.54,61.29c.01-.1-.09-.2-.16-.19-.06.01-.11.11-.09.19.01.05.06.13.13.13.07,0,.12-.07.13-.13Z"/>
              <path class="cls-69" d="M59.03,65.58c.03-.33-1.14-.96-1.6-.56-.22.19-.27.61-.1.83.35.46,1.67.06,1.7-.28Z"/>
              <path class="cls-69" d="M59.7,66.17c-.07-.13-.26-.17-.4-.14-.18.04-.36.22-.31.42.04.18.24.28.4.26.25-.03.41-.35.31-.54Z"/>
              <path class="cls-69" d="M87.19,58.34c.03-.2-.86-.6-1.02-.42-.08.09.02.33.16.46.3.28.84.1.86-.05Z"/>
              <path class="cls-69" d="M50.04,50.78c-.07-.13-.39-.09-.61.02-.27.14-.5.46-.42.59.08.13.45.09.7-.07.21-.14.41-.41.33-.54Z"/>
              <path class="cls-2" d="M42.19,68.14c-.19-.06-.37-.14-.55-.23-1.57-1.32-3.68-3.93-3.51-8.11.3-7.33,4.33-8,4.33-8h0c-4.93,1.99-4.38,13.91-.27,16.33Z"/>
              <path class="cls-69" d="M75.51,64.05c.07-.42-.96-1.04-1.92-1.18-.87-.13-1.99.08-2.06.49-.08.45,1.13,1.18,2.29,1.23.68.03,1.63-.15,1.69-.53Z"/>
              <path class="cls-69" d="M43.95,52.78c-.12-.29-1-.35-1.62.05-.74.49-.9,1.53-.64,1.72.43.32,2.47-1.26,2.26-1.77Z"/>
              <path class="cls-69" d="M44.35,54.1c-.05-.11-.3-.15-.45-.05-.25.16-.16.59-.03.64.16.06.58-.4.49-.59Z"/>
              <path class="cls-69" d="M44.55,66.08c0-.08-.15-.2-.28-.16-.15.05-.17.27-.1.33.08.08.38-.05.38-.17Z"/>
              <path class="cls-69" d="M31.84,64.39c0-.18-.7-.29-1.07-.32-.25-.02-.8-.07-.83.07-.04.16.57.6,1.21.56.32-.02.7-.17.7-.3Z"/>
              <path class="cls-69" d="M29.5,63.72c.02-.2-.4-.42-.53-.32-.12.09-.1.48.12.56.17.06.4-.09.42-.23Z"/>
              <path class="cls-9" d="M15.54,53.48s0,0,0-.01h0c2.07-.94,5.62-2.03,9.62-.87,2.19.63,3.82,1.74,4.92,2.68-1.2-.69-2.65-1.44-4.8-1.93-5.39-1.24-9.7.36-9.74.14Z"/>
              <path class="cls-15" d="M19.75,60.55c-2.12-.05-3.9-1.26-3.83-1.52.05-.22,1.47.26,3.54,0,2.29-.29,3.16-1.21,4.83-1.85.34-.13.64-.22.97-.28-2.01.64-3.42,2.34-5.09,2.54-2.13.26-3.2-.41-3.15,0,.03.27,1.31.89,2.74,1.11Z"/>
              <path class="cls-18" d="M18.26,67.47c-.4-.31.31-3.16,2.43-4.5,1.33-.84,2.66-.85,4.32-.61-.61-.08-3.01-.26-4.6,1.49-1.75,1.93-2.26,3.27-1.07,2.82-.55.57-.9.94-1.07.8Z"/>
              <path class="cls-78" d="M53.2,52.52c.12-.74,5.04-1.34,9.33.08,2.53.83,5.45,2.57,5.13,3.15-.65,1.19-14.67-1.95-14.46-3.23Z"/>
            </g>
            <g>
              <path class="cls-76" d="M69.7,29.19c.55.49,1.02,1.1,1.41,1.8.6-.22,1.21-.35,1.81-.36.16,0,.31,0,.46.01.41.03.81.12,1.19.26.26.09.51.2.75.33.89.48,1.96.49,2.9.12,0,0,.01,0,.02,0,2.42-.93,5.06-.82,5.79-.83,9.24-.15,15.53-.24,15.56.42.02.41-4.25-.31-16.13,1.61-1.96.32-3.5.65-4.71.95-.37.09-.55.51-.36.84h0c.14.25.43.36.69.27,1.34-.47,2.96-.83,4.72-.82,4.41.02,5.76,2.34,9.12,1.5,3.45-.87,5.11-4.08,5.57-3.72.4.31-.31,3.16-2.43,4.5-2.96,1.88-5.96-.4-12.47-.31-.82.01-1.58.05-2.29.11,1.55.55,3.59,1.32,6.19,1.62,1.63.19,4.66-.15,10.71-.84,4.68-.53,5.16-.73,5.18-.62.13.5-11.94,3.03-19.98,3.16.49.08.99.18,1.5.32,2.32.63,4.04,2.19,5.79,1.83,2.49-.51,2.9-2.43,5.39-2.81,2.5-.37,4.84,1.16,4.77,1.46-.05.22-1.47-.26-3.54,0-2.29.29-3.16,1.21-4.83,1.85-1.62.62-2.53.42-8.76-.34-1.49-.18-2.72-.32-3.74-.44-.3-.03-.58.16-.66.45,0,0,0,.01,0,.02-.12.45.3.87.75.74.45-.13.91-.22,1.39-.27,3.67-.34,4.64,2.45,10.01,3.69,5.39,1.24,9.7-.36,9.74-.14.03.23-4.41,2.13-9.87,1.46-5.05-.62-6.33-2.87-10.5-2.43-.9.1-1.72.29-2.45.54-.74.25-1.43.66-2.06,1.12-.65.48-1.39.85-2.22,1.05-.04.01-.08.02-.11.03-.55.12-1.11.17-1.66.15-.95-.04-1.89-.28-2.76-.68-.68.93-1.48,1.72-2.39,2.31-2.56,1.66-4.88,1-19.57-3.29-.03-.01-.07-.02-.1-.03-.24-.07-.36-.11-.36-.11-.92-.27-1.89-.55-2.91-.85-1.56-.46-2.99-.87-4.28-1.25-.44.63-.96,1.11-1.56,1.35-.81.33-1.53.14-2.49-.37-1.69-.88-4.15-2.72-9.19-4.43-3.36-1.14-5.52-1.43-5.53-2.19,0-.92,3.14-1.19,8.14-2.92,5.46-1.89,7.62-3.61,9.09-3.92h0c.45-.1.84-.05,1.24.16.71.39,1.22,1.21,1.55,2.26h.01s0,0,0,0c.04,0,.12-.03.26-.07.06-.01.13-.03.21-.05,1.98-.52,4.25-1.09,6.83-1.72,17.01-4.18,19.36-4.12,21.17-2.5Z"/>
              <path class="cls-16" d="M69.7,29.19c.55.49,1.02,1.1,1.41,1.8,1.65,3.66.36,12.73-1.53,15.82-.68.93-1.48,1.72-2.39,2.31-2.56,1.66-4.88,1-19.57-3.29,2.68.76,15.3,4.68,18.98,1.57,3.28-2.77,6.85-17.12-2.54-17.26-8.34-.12-19.88,2.66-22.37,3.29,1.98-.52,4.25-1.09,6.83-1.72,17.01-4.18,19.36-4.12,21.17-2.5Z"/>
              <path class="cls-19" d="M72.92,30.63c-2.83.21-2.31,15.92-.57,16.85-.95-.04-1.89-.28-2.76-.68,1.66-2.74.81-8.87,1.53-15.82.6-.22,1.21-.35,1.81-.36Z"/>
              <path class="cls-13" d="M84.04,30.51c-.74.01-3.37-.1-5.79.83,0,0-.01,0-.02,0-.95.37-2.01.36-2.9-.12-.07-.03-.13-.07-.2-.1-.18-.09-.37-.17-.55-.23,4.12,2.42,4.66,14.34-.27,16.33-.06.03-.12.05-.19.07.83-.2,1.57-.57,2.22-1.05.63-.47,1.31-.87,2.06-1.12.73-.25,1.55-.45,2.45-.54,4.16-.44,5.45,1.81,10.5,2.43,5.36.66,9.74-1.16,9.87-1.45h0s0-.01,0-.01c-.03-.22-4.35,1.38-9.74.14-2.16-.49-3.6-1.24-4.8-1.93-1.78-1.03-3.01-1.95-5.21-1.75-.48.05-.95.14-1.39.27-.45.13-.87-.28-.75-.74,0,0,0-.01,0-.02.08-.29.35-.49.66-.45,1.02.12,2.25.26,3.74.44,4.94.6,6.53.85,7.79.62.33-.06.63-.15.97-.28,1.66-.64,2.54-1.56,4.83-1.85,2.06-.26,3.48.22,3.54,0,.06-.26-1.71-1.46-3.83-1.52-.31,0-.62,0-.94.06-2.49.37-2.9,2.3-5.39,2.81-1.74.35-3.47-1.2-5.79-1.83-.51-.14-1.01-.24-1.5-.32,8.04-.12,20.11-2.66,19.98-3.16-.02-.1-.5.1-5.18.62-6.05.69-9.08,1.03-10.71.84-2.59-.31-4.64-1.08-6.19-1.62.71-.06,1.47-.1,2.29-.11,3.51-.05,5.99.59,8.01.9,0,0,.02,0,.07.01.02,0,.04,0,.06,0,0,0,.01,0,.02,0,1.65.24,2.99.24,4.32-.61,2.12-1.35,2.83-4.19,2.43-4.5-.18-.14-.52.24-1.07.8-.9.93-2.36,2.38-4.5,2.92-3.36.85-4.71-1.47-9.12-1.5-1.76,0-3.38.35-4.72.82-.26.09-.55-.02-.69-.25h0c-.19-.34-.01-.76.36-.86,1.21-.31,2.75-.63,4.71-.95,11.88-1.92,16.15-1.2,16.13-1.61-.03-.67-6.32-.57-15.56-.42ZM87.62,45.72c-.16.27-2.48-1.73-6.05-1.58-1.83.08-3.04.68-3.13.46-.12-.28,1.05-1.92,3.11-2.06,3.13-.22,6.25,2.88,6.07,3.18ZM83.95,34.51c-.25.02-2.35.36-3.12,1.11-.17.16-.6.71-.44,1.11.22.53,1.33.33,3.58.75.11.02,1.81.34,1.79.52-.03.28-4.03-.2-4.22.54-.2.75,3.64,2.07,3.48,2.59-.11.36-2.19.41-3.82-.68-1.52-1.01-2.86-3.13-2.21-4.52.84-1.8,4.62-1.44,4.96-1.42ZM85.69,30.91c.05.29-2.05,1.05-4.24,1.11-1.17.03-2.14-.14-2.83-.3.59-.22.87-.53,1.9-.73,2.15-.42,5.12-.39,5.17-.08Z"/>
              <path class="cls-66" d="M93.53,40.55c.1.13.84-.54,2.21-.94,1.61-.46,2.73-.14,2.75-.28.02-.18-1.82-1.01-3.42-.3-1,.45-1.64,1.38-1.53,1.51Z"/>
              <path class="cls-74" d="M92.63,35.67c-.03-.14,1.07-.22,2.42-1.04,1.49-.91,2.07-2,2.19-1.91.13.1-.43,1.71-1.84,2.54-1.26.73-2.73.58-2.76.42Z"/>
              <path class="cls-79" d="M83.97,34.51s0,0-.02,0c.01,0,.02,0,.02,0Z"/>
              <path class="cls-28" d="M27.94,38.39l12.03,5.19c-.44.63-.96,1.11-1.56,1.35-.81.33-1.53.14-2.49-.37.72,0,1.62-.12,1.76-.68.23-.9-8.9-5.11-9.74-5.5Z"/>
              <path class="cls-10" d="M39.66,31.27c.71.39,1.22,1.21,1.55,2.26l-13.02,3.92c.24-.09,7.84-2.83,9.49-3.75,1.23-.69.97-1.97.75-2.6.45-.1.84-.05,1.24.16Z"/>
              <path class="cls-46" d="M21.65,37.72c-.03-.19,1.25-.46,3.86-1.18,4.99-1.38,6.43-2.09,6.52-1.89.13.29-2.82,2.34-6.59,3.01-1.84.32-3.76.3-3.79.07Z"/>
              <path class="cls-44" d="M30.6,38.39c-.04.87,3.29.8,16.26,4.64,5.56,1.65,7.67,2.47,10.42,1.88,4.48-.96,8.28-5.17,6.99-7.45-2.96-5.23-33.56-1.7-33.66.94Z"/>
              <path class="cls-54" d="M73.88,34c-1.37.32-1.55,4.59-1.03,7.52.24,1.38.44,2.5,1,2.6,1.14.22,3.91-3.73,2.83-7.12-.49-1.54-1.86-3.22-2.8-3Z"/>
              <path class="cls-78" d="M31.27,38.54c0,.19.9.28,3.15.72,4.73.92,6.3,1.57,6.4,1.32.13-.32-2.19-1.96-5.08-2.41-2.25-.35-4.47.08-4.47.37Z"/>
              <path class="cls-78" d="M41.79,40.9c-.05.39,2.29,1.22,2.5.88.11-.18-.33-.72-.83-.97-.73-.37-1.64-.14-1.67.09Z"/>
              <path class="cls-77" d="M22.71,37.72c.02.2,1.25.43,2.24-.14.19-.11.68-.42.63-.56-.12-.29-2.9.39-2.87.7Z"/>
              <path class="cls-53" d="M54.1,44.82c2.57,2.48,7.81,3.8,10.66,2.46,4.67-2.19,5.36-12.57,1.77-15.17-3.53-2.56-11.37-1.52-13.94,3.15-1.58,2.88-1.26,6.89,1.5,9.55Z"/>
              <path class="cls-40" d="M59.73,33.3c-1.33,2.22,4.53,10.22,7,9.78,1.94-.35,2.02-7.08.14-9.64-1.8-2.45-6.13-1.82-7.14-.14Z"/>
              <path class="cls-78" d="M73.28,35.18c-.19,0-.34,1.47-.38,2.24-.06,1.06-.05,2.71.16,2.73.19.02.55-1.36.57-2.75.01-1.07-.18-2.23-.35-2.23Z"/>
              <path class="cls-32" d="M79.54,43.74c-.07-.25.94-.79,1.82-.96,1.33-.27,2.71.21,2.7.5-.02.5-4.39.96-4.52.46Z"/>
              <path class="cls-37" d="M80.57,39.59c-.2-.17-1.95-1.7-1.56-3.24.19-.73.82-1.36,1-1.27.18.09-.22.88-.22,1.95,0,1.11.44,2.01.79,2.57Z"/>
              <path class="cls-68" d="M82.38,31.59c.07.21,1.29-.03,1.36-.05.37-.08,1.41-.32,1.39-.52-.02-.19-.97-.36-1.82-.07-.48.16-.97.49-.93.64Z"/>
              <path class="cls-69" d="M51.09,45.21c.15.3.67.44.93.25.4-.28.16-1.26-.16-1.34-.32-.08-.98.64-.76,1.09Z"/>
              <path class="cls-69" d="M48.17,38.12c-.04.16.3.56.63.44.22-.08.36-.37.28-.51-.13-.22-.85-.14-.9.07Z"/>
              <path class="cls-69" d="M49.22,37.75c-.01.1.09.2.16.19.06-.01.11-.11.09-.19-.01-.05-.06-.13-.13-.13-.07,0-.12.07-.13.13Z"/>
              <path class="cls-69" d="M57.74,33.46c-.03.33,1.14.96,1.6.56.22-.19.27-.61.1-.83-.35-.46-1.67-.06-1.7.28Z"/>
              <path class="cls-69" d="M57.06,32.87c.07.13.26.17.4.14.18-.04.36-.22.31-.42-.04-.18-.24-.28-.4-.26-.25.03-.41.35-.31.54Z"/>
              <path class="cls-69" d="M29.58,40.69c-.03.2.86.6,1.02.42.08-.09-.02-.33-.16-.46-.3-.28-.84-.1-.86.05Z"/>
              <path class="cls-69" d="M66.73,48.26c.07.13.39.09.61-.02.27-.14.5-.46.42-.59-.08-.13-.45-.09-.7.07-.21.14-.41.41-.33.54Z"/>
              <path class="cls-6" d="M74.57,30.9c.19.06.37.14.55.23,1.57,1.32,3.68,3.93,3.51,8.11-.3,7.33-4.33,8-4.33,8h0c4.93-1.99,4.38-13.91.27-16.33Z"/>
              <path class="cls-69" d="M41.26,34.99c-.07.42.96,1.04,1.92,1.18.87.13,1.99-.08,2.06-.49.08-.45-1.13-1.18-2.29-1.23-.68-.03-1.63.15-1.69.53Z"/>
              <path class="cls-69" d="M72.81,46.26c.12.29,1,.35,1.62-.05.74-.49.9-1.53.64-1.72-.43-.32-2.47,1.26-2.26,1.77Z"/>
              <path class="cls-69" d="M72.41,44.94c.05.11.3.15.45.05.25-.16.16-.59.03-.64-.16-.06-.58.4-.49.59Z"/>
              <path class="cls-69" d="M72.22,32.96c0,.08.15.2.28.16.15-.05.17-.27.1-.33-.08-.08-.38.05-.38.17Z"/>
              <path class="cls-69" d="M84.93,34.64c0,.18.7.29,1.07.32.25.02.8.07.83-.07.04-.16-.57-.6-1.21-.56-.32.02-.7.17-.7.3Z"/>
              <path class="cls-69" d="M87.27,35.32c-.02.2.4.42.53.32.12-.09.1-.48-.12-.56-.17-.06-.4.09-.42.23Z"/>
              <path class="cls-29" d="M101.22,45.56s0,0,0,.01h0c-2.07.94-5.62,2.03-9.62.87-2.19-.63-3.82-1.74-4.92-2.68,1.2.69,2.65,1.44,4.8,1.93,5.39,1.24,9.7-.36,9.74-.14Z"/>
              <path class="cls-8" d="M97.02,38.48c2.12.05,3.9,1.26,3.83,1.52-.05.22-1.47-.26-3.54,0-2.29.29-3.16,1.21-4.83,1.85-.34.13-.64.22-.97.28,2.01-.64,3.42-2.34,5.09-2.54,2.13-.26,3.2.41,3.15,0-.03-.27-1.31-.89-2.74-1.11Z"/>
              <path class="cls-30" d="M98.51,31.56c.4.31-.31,3.16-2.43,4.5-1.33.84-2.66.85-4.32.61.61.08,3.01.26,4.6-1.49,1.75-1.93,2.26-3.27,1.07-2.82.55-.57.9-.94,1.07-.8Z"/>
              <path class="cls-78" d="M67.42,32.23c0-.74-4.79-2.06-9.25-1.29-2.62.45-5.77,1.74-5.54,2.37.47,1.27,14.8.21,14.78-1.08Z"/>
            </g>
          </g>
          <path class="cls-42" d="M119.97,39.27c0,2.45-.07,4.9-.21,7.35-.14,2.62-.35,5.24-.64,7.85-.05.47-.1.94-.16,1.41-.3,2.59-.69,5.19-1.15,7.79-.38,2.18-.81,4.37-1.29,6.56-.14.64-.28,1.28-.44,1.93-.64,2.77-4.37,4.91-9.01,5.2-3.76.23-7.51.44-11.24.62-16.11.77-32.06,1.02-47.85.74-1.87-.03-3.74-.07-5.61-.11-2.96-.08-5.91-.17-8.85-.28-6.38-.23-12.74-.56-19.06-.97-3.98-.26-7.29-1.87-8.53-4.09.09.13.19.26.29.39-.11-.16-.21-.32-.3-.47-.26-.38-.46-.77-.6-1.19-1.76-5.49-3.09-10.97-3.97-16.44-.57-3.51-.96-7-1.16-10.5-.01-.18-.02-.36-.03-.54-.02-.47-.05-.95-.07-1.42-.02-.38-.03-.76-.04-1.14-.01-.35-.02-.7-.03-1.05-.02-.75-.02-1.49-.02-2.24,0-.14,0-.28,0-.42,0-.63.02-1.26.03-1.88,0-.32.02-.64.03-.96.02-.42.03-.84.05-1.27.02-.41.04-.83.07-1.25.02-.25.03-.51.05-.76.03-.4.05-.8.09-1.2.64-7.87,2.23-15.72,4.77-23.57.06-.19.12-.38.18-.56.13-.39.33-.77.57-1.12.84-1.51,2.63-2.75,4.95-3.47,1.09-.34,2.3-.57,3.58-.65,4.12-.28,8.24-.52,12.37-.72C40.01.19,53.31-.09,66.64.02c8.13.07,16.27.28,24.43.64,5.36.23,10.71.52,16.08.87,4.62.3,8.29,2.43,8.95,5.17,2.61,10.8,3.88,21.66,3.86,32.58Z"/>
          <path class="cls-78" d="M110.56,7.14c-.08-.35-.22-.7-.4-1.02-.83-1.56-2.66-2.82-5.02-3.52-.38-.11-.76-.21-1.16-.29,0,0-.02-.01-.02-.01h-.03c-.61-.12-1.24-.21-1.89-.26C72.41.02,42.97.03,13.72,2.06c-4.16.29-7.57,2.19-8.4,4.73C2.67,14.83,1.03,22.87.37,30.92c-.79,9.71-.17,19.44,1.85,29.18.21,1.06.45,2.11.7,3.17.69,2.91,1.5,5.82,2.43,8.73.09.28.21.56.36.82.65,1.14,1.84,2.12,3.38,2.81h0c1.34.62,2.96,1.01,4.69,1.13,19.34,1.31,38.95,1.74,58.82,1.28,9.72-.21,19.51-.63,29.35-1.27.49-.03.96-.09,1.43-.16h0c.12.01.32-.03.56-.1.76-.15,1.48-.36,2.13-.62,2.37-.91,4.04-2.44,4.45-4.24.12-.52.23-1.05.34-1.57,4.54-21.17,4.53-42.15-.31-62.94ZM110.72,65.13c-.24.26-.5.53-.75.78-.82.83.08,1.68.33,2.44.03.1.02.19.03.28-.02.11-.13.24-.28.39-.22.22-.52.46-.76.69-.79.77-.66,1.4-.3,2.26.15.36.09.79-.15,1.09-.01.01-.02.02-.03.03-.25.3-.66.42-1.05.34-.5-.1-1.34-.02-2.61,1.01-.09.08-.19.16-.28.24-.9.79-.8.4-2.03.4s-.62.3-.87.81c-.24.5-1.85.17-3.36,0-1.5-.17-1.25,1.07-2.43.01-.65-.59-1.87.39-2.67-.01-1.55-.77-3.44-.51-4.69.44-.19.14-.38.26-.57.35-.49.24-1.04.35-1.59.38-4.78.21-9.54.36-14.29.47-19.58.45-38.92.02-57.99-1.27-1.69-.11-3.24-.5-4.56-1.08-1.55-.68-2.75-1.65-3.4-2.79-.15-.26-.28-.53-.36-.82-.66-2.07-1.26-4.15-1.8-6.22.07-.47.17-1.09.23-1.36.1-.41-.21-.53-.32-.88-.01-.02-.02-.04-.02-.07-.09-.4.27-1.17.21-2.01-.02-.29-.17-.65-.37-1.02-.37-.7-.93-1.46-1.23-1.99-.46-.8-.03-1.33,0-2.29.03-.96-.43-.6-.46-1.11-.03-.51.28-2.33,0-3.25-.19-.63-.67-1.57-.95-2.1-.62-6.07-.69-12.14-.2-18.2.65-7.94,2.27-15.87,4.88-23.79.83-2.5,4.19-4.37,8.29-4.66,25.77-1.79,51.69-1.98,77.75-.59.64.07,4.7.52,5.18.97.53.5.78,1.85,2.62,1.36,1.21-.32,2.99-.59,4.22-.58.64,0,1.14.09,1.33.28.56.56-.2.95.7,1.21.9.26,1.14-.29,1.82.63.53.72.58,1.74.94,2.39.11.19.24.35.42.46.81.48,1.11,1.93.93,2.72-.19.78-.7,1.06.05,2.25.44.7.95,1.97,1.3,2.9,2.6,15.77,2.43,31.65-.41,47.64-.06.34-.22.65-.46.91Z"/>
          <path class="cls-78" d="M110.16,6.11c-.4.69-.83,1.42-1.28,2.14-2.01,3.28-4.26,6.56-4.44,6.82.19-.34,3.26-5.88,3.49-7.85.23-1.87-3.43,1.81-3.99,2.38.39-.45,2.31-2.76,1.59-4.04-.78-1.38-12.21,10.11-12.89,10.79l11.44-12.61h0c.66-.73,1.73-.97,2.62-.57,1.59.72,2.81,1.74,3.44,2.93Z"/>
          <path class="cls-78" d="M7.64,62.08l-3.46,1-1.16.34-.1-.15c-.25-1.06-.48-2.11-.7-3.17l1.79-.11,9.37-.6s-7.87,1.32-7.59,1.88c.28.56,1.86.82,1.86.82Z"/>
          <path class="cls-78" d="M12.44,73.51l-2.6,1.64-.75.48h0c-1.54-.69-2.73-1.67-3.38-2.81.19-.13.38-.24.58-.37l.15-.09,9.08-5.33c-.44.3-7.76,5.52-6.96,5.88.69.31,2.66-.66,3.3-.99-.79.44-3.59,2.03-2.78,2.19.95.19,3.35-.6,3.35-.6Z"/>
          <path class="cls-78" d="M110.87,70.07c-.11.52-.22,1.05-.34,1.57-.4,1.8-2.08,3.33-4.45,4.24l-.94-1.45-2.55-3.98c.15.14,2.54,2.39,3.08,2.45.53.06-7.31-14.33-8.02-15.64.71,1.21,8.34,14.1,9.87,12.69,1.52-1.4-1.89-5.53-2.25-5.95,1.77,1.68,3.39,3.35,4.77,5.02.29.35.57.7.83,1.06Z"/>
          <path class="cls-65" d="M62.18,39.55l-2.91,2.68-1.19,1.09L5.1,7.35c.06-.19.12-.38.18-.56.13-.39.33-.77.57-1.12.84-1.51,2.63-2.75,4.95-3.47,1.09-.34,2.3-.57,3.58-.65,4.12-.28,8.24-.52,12.37-.72l35.43,38.71Z"/>
          <path class="cls-59" d="M59.27,42.23l-1.19,1.09L5.1,7.35c.06-.19.12-.38.18-.56.13-.39.33-.77.57-1.12.84-1.51,2.63-2.75,4.95-3.47l48.47,40.03Z"/>
          <path class="cls-64" d="M119.11,54.48c-.05.47-.1.94-.16,1.41-.3,2.59-.69,5.19-1.15,7.79l-55.91-22.26.12-.22h0l.09-.16.58-1.03,2.45.63,53.98,13.84Z"/>
          <path class="cls-62" d="M116.51,70.24c-.14.64-.28,1.28-.44,1.93-.64,2.77-4.37,4.91-9.01,5.2-3.76.23-7.51.44-11.24.62l-38.85-33.38,2.01-2.67,57.53,28.3Z"/>
          <path class="cls-63" d="M91.07.66l-23.25,35.84-2.69,4.15-.62.95-.79-.13-1.71-.27-10.37-1.61L66.64.02c8.13.07,16.27.28,24.43.64Z"/>
          <path class="cls-60" d="M119.11,54.48c-.05.47-.1.94-.16,1.41l-55.23-14.42h-.02l-1.61-.42.58-1.03,2.45.63,53.98,13.84Z"/>
          <path class="cls-58" d="M64.78,38.48l-16.81,40.25c-1.87-.03-3.74-.07-5.61-.11l17.62-40.58,4.8.45Z"/>
          <path class="cls-56" d="M51.15,47.29c-.12,8.84-6.97,22.84-17.64,31.05-6.38-.23-12.74-.56-19.06-.97-3.54-.23-6.55-1.53-8.04-3.38-.19-.23-.35-.46-.48-.71.09.13.19.26.29.39-.11-.16-.21-.32-.3-.47-.26-.38-.46-.77-.6-1.19-.96-3.01-1.8-6.01-2.49-9.02-.59-2.48-1.08-4.95-1.47-7.42,7.49-5.31,16.57-9.88,24.87-12.87,10.74-3.86,20.16-5.05,23.14-1.69,1.27,1.43,1.85,3.63,1.8,6.3Z"/>
          <path class="cls-61" d="M51.15,47.29c-.12,8.84-6.97,22.84-17.64,31.05-6.38-.23-12.74-.56-19.06-.97-3.54-.23-6.55-1.53-8.04-3.38,22.47,7.76,39.06-7.66,44.75-26.69Z"/>
          <path class="cls-57" d="M26.21,42.68c-6.8,3.51-15.94,9.76-23.39,20.3-.59-2.48-1.08-4.95-1.47-7.42,7.49-5.31,16.57-9.88,24.87-12.87Z"/>
          <path class="cls-55" d="M71.16,6.03c4.36-4.85,24.34-3.15,29.64,3.88,10.43,13.83,3.57,40.74-3.03,42.34-10.39,2.51-34.16-37.84-26.62-46.21Z"/>
          <path class="cls-34" d="M89.34,5.62c1.15-1.1,8.4.31,11.4,6.16,1.94,3.78,1.93,11.02.62,11.58-2.57,1.11-13.98-15.86-12.02-17.75Z"/>
        </g>
      </g>
    </g>
  </g>
</svg>