<?xml version="1.0" encoding="UTF-8"?>
<svg id="Layer_2" data-name="Layer 2" xmlns="http://www.w3.org/2000/svg" viewBox="0 0 361.27 344.48">
  <defs>
    <style>
      .cls-1 {
        fill: #30a987;
      }

      .cls-2 {
        fill: #5f6fe6;
      }

      .cls-3 {
        fill: #e0533b;
      }

      .cls-4 {
        fill: #2c91be;
      }

      .cls-5 {
        fill: #f7cd01;
      }

      .cls-6 {
        fill: #838691;
      }

      .cls-7 {
        fill: #5d5b68;
      }

      .cls-8 {
        fill: #c7cdd5;
      }

      .cls-9 {
        fill: #e5e8ed;
      }

      .cls-10 {
        fill: #1f81a2;
      }

      .cls-11 {
        fill: #4ec3a4;
      }

      .cls-12 {
        fill: #c6ccd4;
      }

      .cls-13 {
        fill: #9597a0;
      }

      .cls-14 {
        fill: #6e7fec;
      }
    </style>
  </defs>
  <g id="Layer_1-2" data-name="Layer 1">
    <g>
      <path class="cls-9" d="M345.23.9l-.72,1.47c.47,41.1-12.73,86.59-36.68,120.75-.42.6-1.03,1.07-1.67,1.54s-1.36.87-2.09,1.24c1.05,1.03.59,1.46-.75.75-.99,3.86-3.07,7.26-6.25,10.18-3.56,5.04-7.72,8.88-12.47,11.53-1.92-26.47-1.92-53.02-.99-79.53-3.73,1.32-7.4,1.39-10.99-.57-5.2,2.03-10.53,2.07-15.72,0-.27,35.43-.55,71.05-.83,106.86l-16.15,10.57-1.73-.66c-1.88-7.61-1.94-15.5-.94-23.24-3.75,1.21-7.51,1.17-11.03-.72-5.04,1.84-10.46,1.96-15.67.88,1.07,12.11,1.59,25.43-.8,37.29-.63.62-1.27,1.22-1.97,1.72s-1.39.99-2.14,1.24c-17.75,5.74-35.94,10.23-54.56,12-49.84,1.31-99.76,1.02-149.56.25,1.16,4.85,1.41,9.97.76,15.35l-2.11.87C1.71,159.6.54,88.22.9,16.99,2.36,7.77,9.99,1.04,19.21.12l323.49-.02c1.07-.44,2.08.7,2.53.8Z"/>
      <path class="cls-6" d="M.9,259.9c-1.01-9.56-.51-19.58,0-29.19l.72-1.5h357.65l.93,1.5c.6,9.56.95,19.64,0,29.19-.82,10.04-7.78,15.62-17.22,17.22l-7.4.58c-104.17-.03-208.29-.06-312.37-.08l-5.1-.5c-9.44-1.6-16.39-7.18-17.22-17.22Z"/>
      <path class="cls-8" d="M345.23.9c9.69,2.24,14.89,10.33,15.71,19.85-.72,78.33,1,156.72.02,235.04-.02,1.27.48,3.33-.76,4.11.77-9.37-.57-19.71,0-29.19H.9c.57,9.48-.77,19.82,0,29.19-1.24-.78-.75-2.84-.76-4.11-.1-8.29-.26-16.82.01-25.09,0-.1.74-.85.78-1.81.2-5.12-.21-10.3-.03-15.41,50.01-.41,100.12.9,150.08-.75,20.15-1.98,39.72-6.94,58.77-13.47l1.5.92c5.03-.42,10.17-.47,14.97,1.33,3.52-1.88,7.3-1.94,11.05-.75-1.04-5.28-.67-10.59.93-15.72l17.98-11.76c.26-33.63-.38-67.28-.02-100.91.01-1.27-.48-3.33.76-4.11l1.5.52v131.3c4.8-.23,9.68-.41,14.22,1.42,3.58-1.95,7.25-1.9,10.99-.58-.99-17.53-.66-35.08.99-52.56,6.37-6.99,13.14-14.04,18.71-21.71l1.5.52v72.94c5.05-.27,10.17-.43,14.97,1.4,3.24-1.77,6.89-1.71,10.47-1.39l-.73-72.54,1.49-.92-10.76-.15c-.15.72-.32,1.29-.58,1.33-1.54.24-13.04-.04-14.55-.4l-1.06-1.53c22.62-31.68,36.28-71.56,38.92-110.42.28-4.17-.32-8.62,0-12.75.18-2.3-.37-1.93,2.25-1.83Z"/>
      <path class="cls-7" d="M228.46,278.61l20.96,42.67c-45.87,2.08-91.86,2.08-137.73,0l20.96-42.67c31.86-1.21,63.96-1.21,95.81,0Z"/>
      <path class="cls-6" d="M111.68,321.28c45.89-.17,91.84-.17,137.73,0,9.22.04,18.48-.03,27.7,0v23.2H83.99v-23.2c9.22-.03,18.48.04,27.7,0Z"/>
      <path class="cls-13" d="M342.98,277.11c-.47.08-1.13.69-2.53.8-34.97,2.9-74.06-2.24-109.46-.11-.86-.42-2.36.8-2.53.8-31.67.05-64.11.05-95.81,0-.17,0-1.67-1.23-2.53-.8-35.41-2.14-74.49,3.01-109.46.11-1.4-.12-2.06-.72-2.53-.8h324.87Z"/>
      <path class="cls-3" d="M89.98,29.35l1.5.52v57.71l-1.5.91.69,1.43c-13.63,13.63-27.27,27.27-40.91,40.91l-1.7-.41C9.25,93.01,35.98,28.15,89.98,29.35Z"/>
      <path class="cls-5" d="M147.61,88.48c0,51.95-61.83,78.26-99.56,41.92l41.92-41.92.7-1.5h56.04l.9,1.5Z"/>
      <path class="cls-2" d="M147.61,88.48h-57.64V29.35c32.46.72,57.64,26.69,57.64,59.13Z"/>
      <path class="cls-4" d="M272.62,68.27l1.5.52v131.8l-1.5.92c-5.23.04-10.49-.03-15.72,0V68.27c5.23.03,10.5-.04,15.72,0Z"/>
      <path class="cls-10" d="M272.62,68.27c3.98.03,8-.02,11.98,0-.03,26.69.03,53.41,0,80.1-.02,17.7.01,35.45,0,53.15-3.98.02-8-.03-11.98,0V68.27Z"/>
      <path class="cls-14" d="M29.15,175.49l98.63-.18c8.59.55,9.26,10.58.77,11.99H29.7c-7.39-.71-7.99-10.57-.55-11.82Z"/>
      <path class="cls-4" d="M191.03,126.66l-.65,1.5h-9.09s0,72.45,0,72.45l-1.5.91c-5.48.05-10.99-.03-16.47,0v-75.6l27.7.75Z"/>
      <path class="cls-11" d="M331.01,126.66l-.65,1.5h-9.09s0,72.45,0,72.45l-1.5.91c-5.48.04-10.99-.03-16.47,0v-74.86c.21-.29.57-.5.75-.75l26.95.75Z"/>
      <path class="cls-10" d="M191.03,126.66v74.86c-3.73.02-7.49-.04-11.23,0v-74.86s11.23,0,11.23,0Z"/>
      <path class="cls-14" d="M29.9,195.7c18.58,1.03,39.93-2.01,58.2-.17,10.44,1.05,9.59,11.12,2.27,11.98-18.87,2.22-42.02-1.65-61.35-.06-7.39-1.75-6.49-10.89.89-11.75Z"/>
      <path class="cls-11" d="M226.21,161.09l1.5.7v38.82l-1.5.9c-5.48.04-10.99-.03-16.47,0-.03-.75.03-1.5,0-2.25-.37-12.69.28-25.48,0-38.18,5.48.04,10.99-.04,16.47,0Z"/>
      <path class="cls-1" d="M226.21,161.09c3.98.03,8-.02,11.98,0-.03,7.97.03,15.98,0,23.96-.02,5.48.02,10.99,0,16.47-3.98.02-8-.03-11.98,0v-40.42Z"/>
      <path class="cls-12" d="M178.08,248.83c10.65-3.18,11.12,13.16.77,10.92-5.32-1.15-5.4-9.54-.77-10.92Z"/>
      <path class="cls-1" d="M331.01,126.66l.75,74.86c-3.98.02-8-.03-11.98,0v-74.86s11.23,0,11.23,0Z"/>
    </g>
  </g>
</svg>