<?xml version="1.0" encoding="UTF-8"?>
<svg id="Layer_2" data-name="Layer 2" xmlns="http://www.w3.org/2000/svg" viewBox="0 0 116.03 114.7">
  <defs>
    <style>
      .cls-1 {
        fill: #010101;
      }

      .cls-2 {
        fill: #f8bf23;
      }

      .cls-3 {
        fill: #fddd7b;
      }

      .cls-4 {
        fill: #c6991c;
      }

      .cls-5 {
        fill: #eeecee;
      }

      .cls-6 {
        fill: #bebdbe;
      }

      .cls-7 {
        fill: #c69a1c;
      }

      .cls-8 {
        fill: #cab163;
      }
    </style>
  </defs>
  <g id="Layer_1-2" data-name="Layer 1">
    <g>
      <path d="M4.45,73.87c.32-2.39,2.05-4.08,4.21-4.91-4.82-6.71.12-14.44,4.46-19.88,2.65-3.32,9.52-10.42,13.73-11.06,3.1-.47,6.54,2.29,8.83,4.16.51.42,2.78,2.7,3.05,2.8.1.04.23,0,.34,0,.11-.51.52-.97.85-1.38,3.34-4.16,12.5-13.94,18-14.07s14.76,9.85,18.11,13.93c.35.43.8.97.95,1.51.11,0,.23.03.34,0,.35-.12,2.71-2.56,3.29-3.03,2.23-1.78,5.62-4.38,8.59-3.93,4.2.64,11.09,7.74,13.73,11.06,4.39,5.51,9.22,13.1,4.46,19.88,1.16.63,2.22.99,3.04,2.11.34.47,1.17,2.34,1.17,2.81v5.26c1.46.07,4.11-.51,4.43,1.53v27.35c-.43,3.64-3.2,6.39-6.88,6.68H6.67c-3.65-.45-6.35-3.22-6.67-6.9l.02-27.13c.32-2.04,2.97-1.46,4.43-1.53.16-1.65-.22-3.66,0-5.26Z"/>
      <path d="M40.07,28.31c-.95-.95-.82-5.85-.46-7.23,1.75-6.8,13.11-8.31,8.31-16.17-.76-1.24-3.05-2.89-1.25-4.37,1.67-1.37,2.78.19,3.73,1.43,3.14,4.12,3.4,8.57.02,12.61-2.34,2.81-7.03,4.47-7.37,8.54-.12,1.45.72,3.92-.12,5.03-.63.83-2.15.87-2.86.17Z"/>
      <path d="M75.03.11c1.77-.39,3.32,2.13,4.08,3.54,1.98,3.68,1.85,7.24-.75,10.56-2.34,2.99-7.33,4.7-7.71,8.89-.14,1.5.96,4.42-.48,5.37-1.26.83-2.78,0-3.02-1.4-.46-2.66-.39-5.53.92-7.95,2.8-5.19,11.93-6.94,7.45-14.22-.49-.79-1.72-1.81-1.83-2.64-.12-.94.36-1.94,1.33-2.16Z"/>
      <path d="M56.32,24.8c-.94,1.01-3.02.53-3.23-.98-.97-7.21,10.72-9.55,9.84-16.63-.16-1.29-2.29-3.89.22-4.69,2.68-.85,3.87,4.45,3.75,6.33-.41,6.58-8.49,9.11-9.94,13.45-.22.66-.15,1.99-.64,2.52Z"/>
      <path class="cls-2" d="M102.93,82.87c.18.02.46.08.47.21.05.74.19,6.19,0,6.45-.06.09-.15.16-.24.24-3.67-.03-7.33,0-10.98.12-1.76.67-1.65,3.08.28,3.58,2.24.59,7.83.15,10.48.16l.44.38c.14,1.57.16,4.03.11,5.63-.12,3.92-.67,6.96-5.06,7.99l-94.38.03-.29-.47c-.11-1.36.08-2.84,0-4.21h38.71c2.38,0,2.06-3.74.7-3.74H3.75v-16.37c33.06.08,66.13-.11,99.18,0Z"/>
      <path class="cls-5" d="M54.98,34.69c.21.01.43.03.63.08,1.36.35,7.99,6.83,8.39,8.18.06.2.09.41.11.62.28.26.28.65,0,1.16.86,2.38,2.04,4.65,3.55,6.81.44,1.07,1,2.02,2.3,1.37l.47.24c.9-.72,1.58,1.78,1.8,2.64.67,2.64.72,4.88-.13,7.49-.63,1.92-1.93,4.76-3.78,5.55-9,.08-18.01-.06-27.01,0-3.14-2.3-5.39-6.67-5.01-10.61.72-7.42,12.42-19.84,18.68-23.54Z"/>
      <path class="cls-3" d="M9.37,72.82c29.69-.26,59.37-.25,89.04.05.8.57.67,4.86.51,5.93l-.43.34c-30.09.1-60.2-.07-90.29,0v-5.03c0-.15.73-1.48,1.17-1.29Z"/>
      <path class="cls-7" d="M102.93,93.63c3.12.01,6.24,0,9.36,0v14.39c0,.89-1.65,2.57-2.57,2.81l-102.59.12c-2.1-.24-3.22-1.74-3.38-3.75l94.6-.02c6.5-1.48,4.16-8.66,4.58-13.55Z"/>
      <path class="cls-5" d="M33.46,45.21l.27.44-3.44,5.15-.58.03-.48-.43c.05-1.12-.06-2.23-.3-3.32-.21-1.31-2.51-.58-2.35.25-.34,3.42-.62,7.59.32,10.76l.44.67c-.08,3.45,1.36,6.65,3.5,9.3l.04.79c-5.87.03-11.74.02-17.61-.05-1.74-1.3-3.01-4.47-2.95-6.59.13-4.72,6.88-12.55,10.27-15.7,1.39-1.3,5.53-4.91,7.34-4.78,1.38.09,4.41,2.55,5.53,3.5Z"/>
      <path class="cls-5" d="M87.96,45.91c-.14.36-.43.7-.85,1.04-.63,1.07-.62,8.14-.28,9.47.47,1.83,2.08,1.28,3.23.49l.13-8.8c.44-.46,2.53,1.76,2.21,2.49l.5.11c1.15,2.58,2.46,5.03,3.95,7.37,1.67.28,1.82,3.64,1.72,5.14-.04.64-.15,1.27-.31,1.89-.32,1.25-.91,3.29-2.11,3.73-5.38.05-10.76-.03-16.14,0,4.5-5.49,4.21-11.16,1.3-17.32-.33-.7-1.88-2.77-1.73-3.33,1.59-1.94,3.51-3.46,5.58-4.84,1.09-.31,2.99,1.46,2.81,2.57Z"/>
      <path class="cls-6" d="M68.31,68.84c3.7-4.33,5.21-9.39,2.75-14.8-.16-.35-.21-.72-.64-.88-.11-.36-.04-.8.23-1.3.08-.9-3.52-7.43-4.27-8-.54-.41-1.26-.47-1.82-.06l-.46-.22c-2.63-3.23-5.77-6.38-9.12-8.89,1.13-.67,2.02-1.54,3.51-1.31,3.9.61,12.64,9.85,15.19,13.13,3.18,4.08,7.02,9.73,5.78,15.13-.38,1.64-3.05,6.88-4.73,7.2-1.52.29-4.68-.01-6.43,0Z"/>
      <path class="cls-6" d="M96.15,68.84c1.92-3.29,2.66-6.37,1.25-10.02-.13-.35-.16-.56-.54-.74l.31-.43c.89.07,1.19-.14,1.54-.91s-1.66-4.21-2.17-5.02c-1.25-2.3-1.94-3.25-4.13-1.13l-2.1-2.34-.24,8.65c-.34.01-.55-.13-.51-.46.23-3.31.16-6.57-.22-9.77-.63-.15-1.09-.4-1.37-.76-.78-1.01-1.71-1.93-2.81-2.57,3.41-2.28,3.65-2.06,7,.37,4.41,3.21,13.55,13.05,13.56,18.67,0,1.51-1.47,6.14-3.14,6.45-1.53.29-4.68-.01-6.43,0Z"/>
      <path class="cls-6" d="M33.46,45.21c.56.48,3.03,2.64,3.04,3.15-4.17,6.5-5.94,14.1-.46,20.47-1.71.01-3.43,0-5.15,0-2.58-3.04-4.29-6.68-3.98-10.76.36-.29.86-.47,1.5-.55,1.03-1.77,1.31-3.86.85-6.28l.45-.43,3.74-5.61Z"/>
      <path class="cls-8" d="M9.37,72.82c.24-.39.89-.23,1.28-.24,31.73-.39,63.49.31,95.22,0,.77-.28,1.98.97,1.98,1.53v5.03c-3.12,0-6.24-.01-9.36,0-.25-1.28.67-6.04-.82-6.32H9.37Z"/>
      <path class="cls-4" d="M102.93,82.87c3.12.01,6.24,0,9.36,0v7.02h-20.12c.15-.06.2-.2.56-.25,1.48-.19,9.84.37,10.2.01v-6.78Z"/>
      <path d="M57.49,39.41c1.3-.28,2.26.4,2.41,1.7.4,3.38-.29,7.52-.02,10.98-.31,1.95-3.47,2.07-3.73-.21-.24-2.05-.29-9.02.02-10.98.11-.69.62-1.34,1.33-1.49Z"/>
      <path d="M48.12,53.09c-1.39,1.27-3.57-.09-3.15-1.86.82-1.25,3.77-7.77,4.79-8.08,1.48-.44,3.04.69,2.54,2.3l-4.19,7.63Z"/>
      <path d="M70.42,53.17c-.88.69-1.77.52-2.58-.17-.66-1.83-4.36-6.69-4.2-8.35.02-.23.31-.92.46-1.07.8-.8,2.19-.64,2.91.25.57.72,3.79,6.47,4,7.23.23.85.12,1.55-.59,2.11Z"/>
      <path class="cls-1" d="M29.72,50.83c.06,2.3.95,8.26-2.81,7.25-.53-.14-.88-.99-.94-1.52-.36-2.96.15-6.85.16-9.89,3.86-2.56,3.52,1.6,3.59,4.15Z"/>
      <path d="M23.09,49.5c.55.6.54,1.21.32,1.92-.19.62-2.92,5.58-3.32,6.04-1.08,1.2-3.24.68-3.35-.99-.05-.73,2.68-5.79,3.29-6.56.81-1.03,2.09-1.47,3.07-.41Z"/>
      <path class="cls-1" d="M87.96,45.91c.57-.06,1.44.09,1.8.54.82,1.01.01,8.67.3,10.46-.3,1.63-3.3,1.75-3.69-.41-.27-1.51-.25-7-.04-8.58.13-.99.52-1.9,1.62-2.01Z"/>
      <path d="M92.41,50.59c.09-1.22,1.65-2,2.8-1.51.71.3,3.93,6.13,4,7.01.12,1.52-.91,2.26-2.35,1.99-.68-.13-1.02-.81-1.36-1.33-.51-.81-3.13-5.58-3.09-6.15Z"/>
    </g>
  </g>
</svg>