<?xml version="1.0" encoding="UTF-8"?>
<svg xmlns="http://www.w3.org/2000/svg" xmlns:xlink="http://www.w3.org/1999/xlink" viewBox="0 0 120 85.97">
  <defs>
    <style>
      .cls-1, .cls-2, .cls-3, .cls-4 {
        fill: #ffe9d9;
      }

      .cls-1, .cls-5, .cls-6, .cls-7, .cls-8, .cls-9 {
        opacity: .5;
      }

      .cls-2, .cls-10, .cls-11 {
        opacity: .35;
      }

      .cls-12 {
        fill: url(#linear-gradient-2);
      }

      .cls-5 {
        fill: url(#linear-gradient-9);
      }

      .cls-5, .cls-7, .cls-13 {
        mix-blend-mode: lighten;
      }

      .cls-14 {
        fill: url(#linear-gradient-4);
      }

      .cls-10 {
        fill: url(#linear-gradient-10);
      }

      .cls-10, .cls-6, .cls-11, .cls-8, .cls-9, .cls-15 {
        mix-blend-mode: screen;
      }

      .cls-16 {
        fill: url(#linear-gradient-3);
      }

      .cls-6 {
        fill: url(#White_Black-2);
      }

      .cls-17 {
        isolation: isolate;
      }

      .cls-18 {
        mix-blend-mode: overlay;
        opacity: .25;
      }

      .cls-7 {
        fill: url(#linear-gradient-12);
      }

      .cls-19 {
        fill: url(#linear-gradient-5);
        mix-blend-mode: multiply;
      }

      .cls-20 {
        fill: url(#linear-gradient-7);
      }

      .cls-13 {
        fill: #fff;
        opacity: .15;
      }

      .cls-11 {
        fill: url(#radial-gradient);
      }

      .cls-4 {
        opacity: .65;
      }

      .cls-8 {
        fill: url(#linear-gradient-8);
      }

      .cls-21 {
        fill: url(#linear-gradient-6);
      }

      .cls-22 {
        fill: #f4f4f4;
      }

      .cls-9 {
        fill: url(#White_Black);
      }

      .cls-23 {
        fill: url(#linear-gradient);
      }

      .cls-15 {
        fill: url(#linear-gradient-11);
        opacity: .85;
      }

      .cls-24 {
        fill: #fdcdb9;
      }
    </style>
    <linearGradient id="linear-gradient" x1="125.82" y1="236.04" x2="125.82" y2="116.04" gradientTransform="translate(-116.04 168.8) rotate(-90)" gradientUnits="userSpaceOnUse">
      <stop offset="0" stop-color="#e3e4e6"/>
      <stop offset="1" stop-color="#cacccb"/>
    </linearGradient>
    <linearGradient id="linear-gradient-2" x1="125.82" y1="235" x2="125.82" y2="117.08" gradientTransform="translate(-116.04 168.8) rotate(-90)" gradientUnits="userSpaceOnUse">
      <stop offset="0" stop-color="#fff"/>
      <stop offset=".99" stop-color="#f4f4f4"/>
    </linearGradient>
    <linearGradient id="linear-gradient-3" x1="158.42" y1="232.51" x2="93.22" y2="119.57" gradientTransform="translate(-116.04 168.8) rotate(-90)" gradientUnits="userSpaceOnUse">
      <stop offset="0" stop-color="#f4f4f4"/>
      <stop offset="1" stop-color="#cacccb"/>
    </linearGradient>
    <linearGradient id="linear-gradient-4" x1="125.82" y1="222.07" x2="125.82" y2="130.01" gradientTransform="translate(-116.04 168.8) rotate(-90)" gradientUnits="userSpaceOnUse">
      <stop offset="0" stop-color="#f4f4f4"/>
      <stop offset=".99" stop-color="#e3e4e6"/>
    </linearGradient>
    <linearGradient id="linear-gradient-5" x1="100.37" y1="177.13" x2="155.17" y2="177.13" xlink:href="#linear-gradient-3"/>
    <linearGradient id="linear-gradient-6" x1="125.48" y1="219.88" x2="125.48" y2="132.21" gradientTransform="translate(-116.04 168.8) rotate(-90)" gradientUnits="userSpaceOnUse">
      <stop offset="0" stop-color="#ff9614"/>
      <stop offset=".3" stop-color="#fc8c1a"/>
      <stop offset=".78" stop-color="#f6742a"/>
      <stop offset=".99" stop-color="#f36734"/>
    </linearGradient>
    <linearGradient id="linear-gradient-7" x1="98.18" y1="145.72" x2="152.89" y2="145.72" gradientTransform="translate(-116.04 168.8) rotate(-90)" gradientUnits="userSpaceOnUse">
      <stop offset="0" stop-color="#8a9eb2"/>
      <stop offset=".02" stop-color="#90a2b5"/>
      <stop offset=".12" stop-color="#a6b3c1"/>
      <stop offset=".23" stop-color="#b5bfca"/>
      <stop offset=".36" stop-color="#bfc6cf"/>
      <stop offset=".54" stop-color="#c2c9d1"/>
      <stop offset=".71" stop-color="#bfc7cf"/>
      <stop offset=".81" stop-color="#b7c0cb"/>
      <stop offset=".89" stop-color="#a9b6c3"/>
      <stop offset=".96" stop-color="#96a7b8"/>
      <stop offset=".99" stop-color="#8a9eb2"/>
    </linearGradient>
    <radialGradient id="radial-gradient" cx="125.82" cy="176.04" fx="125.82" fy="176.04" r="52.19" gradientTransform="translate(-116.04 168.8) rotate(-90)" gradientUnits="userSpaceOnUse">
      <stop offset="0" stop-color="#000"/>
      <stop offset=".17" stop-color="#030303"/>
      <stop offset=".3" stop-color="#0c0c0c"/>
      <stop offset=".42" stop-color="#1d1d1d"/>
      <stop offset=".53" stop-color="#343434"/>
      <stop offset=".64" stop-color="#515151"/>
      <stop offset=".74" stop-color="#767676"/>
      <stop offset=".84" stop-color="#a2a2a2"/>
      <stop offset=".93" stop-color="#d3d3d3"/>
      <stop offset="1" stop-color="#fff"/>
    </radialGradient>
    <linearGradient id="White_Black" data-name="White, Black" x1="100.4" y1="211.92" x2="123.15" y2="177.17" gradientTransform="translate(-116.04 168.8) rotate(-90)" gradientUnits="userSpaceOnUse">
      <stop offset="0" stop-color="#fff"/>
      <stop offset="1" stop-color="#000"/>
    </linearGradient>
    <linearGradient id="White_Black-2" data-name="White, Black" x1="111.59" y1="219.43" x2="134.19" y2="184.92" xlink:href="#White_Black"/>
    <linearGradient id="linear-gradient-8" x1="102.43" y1="148.64" x2="112.41" y2="133.39" gradientTransform="translate(-116.04 168.8) rotate(-90)" gradientUnits="userSpaceOnUse">
      <stop offset="0" stop-color="#000"/>
      <stop offset="1" stop-color="#fff"/>
    </linearGradient>
    <linearGradient id="linear-gradient-9" x1="129.44" y1="168.99" x2="145.78" y2="202.96" gradientTransform="translate(-116.04 168.8) rotate(-90)" gradientUnits="userSpaceOnUse">
      <stop offset="0" stop-color="#000"/>
      <stop offset=".09" stop-color="#202020"/>
      <stop offset=".28" stop-color="#636363"/>
      <stop offset=".46" stop-color="#9a9a9a"/>
      <stop offset=".63" stop-color="#c6c6c6"/>
      <stop offset=".78" stop-color="#e5e5e5"/>
      <stop offset=".91" stop-color="#f8f8f8"/>
      <stop offset="1" stop-color="#fff"/>
    </linearGradient>
    <linearGradient id="linear-gradient-10" x1="82.84" y1="171.38" x2="118.21" y2="171.38" gradientTransform="translate(-116.04 168.8) rotate(-90)" gradientUnits="userSpaceOnUse">
      <stop offset="0" stop-color="#fff"/>
      <stop offset=".19" stop-color="#fcfcfc"/>
      <stop offset=".33" stop-color="#f3f3f3"/>
      <stop offset=".44" stop-color="#e3e3e3"/>
      <stop offset=".55" stop-color="#cdcdcd"/>
      <stop offset=".65" stop-color="#b1b1b1"/>
      <stop offset=".74" stop-color="#8e8e8e"/>
      <stop offset=".83" stop-color="#656565"/>
      <stop offset=".92" stop-color="#363636"/>
      <stop offset="1" stop-color="#020202"/>
      <stop offset="1" stop-color="#000"/>
    </linearGradient>
    <linearGradient id="linear-gradient-11" x1="129.18" y1="146.95" x2="151.84" y2="112.34" gradientTransform="translate(-116.04 168.8) rotate(-90)" gradientUnits="userSpaceOnUse">
      <stop offset="0" stop-color="#000"/>
      <stop offset=".06" stop-color="#1f1f1f"/>
      <stop offset=".16" stop-color="#535353"/>
      <stop offset=".26" stop-color="#818181"/>
      <stop offset=".37" stop-color="#a8a8a8"/>
      <stop offset=".48" stop-color="#c7c7c7"/>
      <stop offset=".59" stop-color="#e0e0e0"/>
      <stop offset=".71" stop-color="#f1f1f1"/>
      <stop offset=".84" stop-color="#fbfbfb"/>
      <stop offset="1" stop-color="#fff"/>
    </linearGradient>
    <linearGradient id="linear-gradient-12" x1="140.85" y1="172.7" x2="159.45" y2="136.48" gradientTransform="translate(-116.04 168.8) rotate(-90)" gradientUnits="userSpaceOnUse">
      <stop offset="0" stop-color="#000"/>
      <stop offset=".05" stop-color="#303030"/>
      <stop offset=".1" stop-color="#5b5b5b"/>
      <stop offset=".15" stop-color="#828282"/>
      <stop offset=".21" stop-color="#a4a4a4"/>
      <stop offset=".28" stop-color="silver"/>
      <stop offset=".35" stop-color="#d7d7d7"/>
      <stop offset=".44" stop-color="#e9e9e9"/>
      <stop offset=".54" stop-color="#f5f5f5"/>
      <stop offset=".67" stop-color="#fcfcfc"/>
      <stop offset="1" stop-color="#fff"/>
    </linearGradient>
  </defs>
  <g class="cls-17">
    <g id="Layer_2" data-name="Layer 2">
      <g id="Layer_1-2" data-name="Layer 1">
        <g>
          <g>
            <path class="cls-23" d="M16.34,0h87.31c9.03,0,16.34,7.32,16.34,16.34v53.28c0,9.03-7.32,16.34-16.34,16.34H16.34c-9.03,0-16.34-7.32-16.34-16.34V16.34c0-2.47.55-4.8,1.53-6.9.86-1.85,2.05-3.5,3.5-4.89C7.97,1.73,11.95,0,16.34,0Z"/>
            <rect class="cls-12" x="1.04" y="1.07" width="117.93" height="83.82" rx="14.23" ry="14.23"/>
            <rect class="cls-16" x="2.59" y="2.69" width="114.82" height="80.6" rx="12.75" ry="12.75"/>
            <rect class="cls-22" x="12.93" y="13.43" width="94.14" height="59.1" rx="6.54" ry="6.54"/>
            <rect class="cls-14" x="13.97" y="14.51" width="92.07" height="56.95" rx="5.56" ry="5.56"/>
          </g>
          <path class="cls-19" d="M49.45,13.92c-1.43-.15-2.93-.25-4.48-.27.03,0,.05,0,.08,0-.09,0-.18,0-.27,0-.11,0-.22,0-.33,0-.3,0-.59,0-.89,0-.13,0-.27,0-.4,0-.32,0-.64.02-.96.03-.06,0-.13,0-.19,0-.15,0-.3.02-.45.03-11.62.68-24.14,6.25-24.55,26.8-.02.18,0,.35,0,.52,0,.18,0,.35,0,.52.43,20.39,12.74,26.02,24.28,26.78-.02,0-.04,0-.06,0,.61.04,1.17.07,1.73.08.11,0,.22,0,.33.01.04,0,.08,0,.12,0,.52,0,1.03,0,1.53,0,.15,0,.3,0,.46-.01.45-.01.9-.03,1.35-.05.12,0,.24-.01.36-.02.55-.03,1.09-.07,1.62-.12.1,0,.19-.02.29-.03.47-.05.94-.1,1.4-.15.09-.01.17-.02.26-.03.53-.07,1.05-.14,1.55-.21.04,0,.07-.01.11-.02.48-.07.94-.15,1.38-.23.06-.01.12-.02.18-.03.95-.17,1.82-.35,2.61-.53.05-.01.11-.02.16-.04.77-.18,1.45-.35,2.04-.51.06-.02.11-.03.17-.05.27-.08.53-.15.76-.21,1.18-.34,2.45-.71,3.77-1.08.61-.17,1.24-.35,1.87-.52.68-.19,1.34-.37,2-.55.02,0,.05-.01.07-.02,2.75-.74,5.59-1.48,8.3-2.13,3.25-.78,6.3-1.44,8.73-1.85.47-.08.94-.12,1.4-.15.15,0,.29-.01.44-.01.32,0,.64,0,.95,0,.15,0,.3.01.45.02.34.02.68.06,1.02.11.09.01.19.02.29.04.42.07.84.15,1.25.25.11.03.21.06.32.09.31.08.61.17.91.26.13.04.25.08.37.12.29.1.58.2.86.31.09.04.19.07.29.11.37.15.73.3,1.08.46.05.02.1.05.15.07.29.14.58.27.85.41.12.06.23.12.34.17.28.14.56.29.82.43.05.02.09.05.14.08.4.22.78.42,1.14.62.19.1.37.2.55.3.09.05.19.1.28.15.26.14.51.26.73.37.64.3,1.25.28,1.82.02,1.96-.87,3.47-4.53,4.27-7.62.19-.73.11-1.59-.14-2.51-.01-.09-.04-.19-.07-.27-.33-1.06-.89-2.2-1.58-3.33-.69-1.13-1.5-2.24-2.32-3.24-.06-.09-.12-.17-.19-.24-1.42-1.68-2.85-3.02-3.74-3.54-.58-.34-1.84-.5-3.52-.55-.26,0-.53,0-.81,0,0,0-.24,0-.24,0-.92,0-1.94.04-3.01.08-.06,0-.12,0-.19,0-.24.01-.48.02-.72.03-.08,0-.16,0-.24.01-.09,0-.19,0-.29,0-.27.02-.53.04-.8.06-.26.01-.52.03-.78.05-.11,0-.21.01-.32.02-.75.05-1.5.1-2.24.15-.09,0-.17,0-.25.01-1.89.14-3.75.29-5.4.41-.08,0-.16,0-.24,0-1.17.09-2.23.16-3.1.19-.06,0-.11,0-.17,0-.17,0-.34.01-.49.01-2.91.06-5.04-.83-6.39-1.69-.4-.26-.64-.63-.71-1.03-.03-.17-.03-.33,0-.5.01-.09.04-.17.07-.25.04-.11.07-.17.11-.23.02-.03.03-.07.05-.1.02-.03.05-.06.08-.09.11-.14.24-.27.41-.37.17-.11.35-.21.54-.32.03-.01.06-.03.08-.04.17-.09.34-.18.52-.26.05-.02.11-.05.16-.07.16-.07.33-.15.51-.22.08-.03.16-.06.24-.08.16-.06.32-.12.5-.17.1-.03.21-.06.31-.09.16-.04.32-.09.49-.13.13-.03.26-.05.39-.08.16-.03.31-.06.48-.09.15-.02.31-.04.46-.06.15-.02.31-.03.47-.05.18-.01.36-.02.54-.03.24,0,.47-.02.72-.01.96.02,2.23.1,3.67.2,2.37.16,5.21.4,7.99.58.06,0,.12,0,.19.01.62.04,1.24.08,1.84.11.03,0,.07,0,.1,0,.1,0,.19,0,.28.02.21.01.41.02.62.02.46.02.91.04,1.34.05.13,0,.25,0,.38.01.59.02,1.15.03,1.69.03.04,0,.09,0,.13,0h.23c.17,0,.33,0,.49,0,1.6-.03,2.87-.15,3.57-.43.1-.04.19-.08.27-.13.17-.1.36-.23.56-.38.03-.02.06-.05.09-.07.2-.16.42-.34.64-.54.03-.03.06-.06.09-.08.22-.2.45-.42.69-.66.02-.02.04-.04.06-.06.23-.23.47-.49.71-.75.08-.08.15-.17.23-.26.22-.24.44-.49.66-.76.06-.07.11-.13.16-.2.05-.06.06-.08.08-.1.35-.43.7-.89,1.04-1.35.08-.11.15-.21.23-.32.36-.51.71-1.02,1.02-1.54.68-1.12,1.23-2.25,1.55-3.31.03-.09.06-.18.08-.27.25-.92.32-1.77.13-2.5-.8-3.08-2.3-6.74-4.26-7.62-.58-.26-1.19-.27-1.83.02-.27.13-.57.28-.88.45-.55.29-1.16.63-1.83.99-.07.04-.13.07-.2.1-.48.26-.99.52-1.52.78-.06.03-.13.06-.19.09-.52.25-1.05.48-1.61.71-.18.07-.35.14-.53.21-.13.05-.26.1-.4.14-.06.02-.12.04-.19.06-.29.1-.59.19-.89.27-.1.03-.2.05-.29.08-.27.07-.55.14-.83.2-.1.02-.2.04-.3.06-.3.06-.6.1-.9.14-.09.01-.17.02-.26.03-.32.04-.65.06-.98.07-.1,0-.2.01-.31.02-.08,0-.15,0-.23,0-.15,0-.31-.01-.46-.02-.23,0-.45,0-.68-.03-.38-.03-.76-.07-1.14-.14-.07-.01-.09-.02-.11-.02-.45-.08-.93-.17-1.43-.26-.14-.03-.28-.05-.42-.08-.57-.11-1.17-.23-1.78-.36-.09-.02-.18-.04-.27-.06-.62-.13-1.26-.27-1.91-.42-.13-.03-.25-.06-.38-.08-.36-.08-.73-.17-1.1-.26-.4-.09-.79-.18-1.19-.28-.06-.01-.13-.03-.19-.04-.41-.1-.82-.2-1.23-.3-.41-.1-.82-.2-1.23-.3-.55-.14-1.11-.28-1.66-.42-.25-.06-.49-.13-.74-.19-1.49-.39-2.99-.79-4.44-1.18-.09-.02-.18-.05-.28-.07-.34-.09-.68-.19-1.02-.28-.86-.24-1.71-.47-2.53-.71-.13-.04-.27-.08-.4-.12-.14-.04-.27-.08-.41-.12-.13-.04-.27-.08-.41-.12-.55-.16-1.09-.31-1.61-.47-.22-.07-.48-.14-.76-.21-.06-.02-.13-.03-.19-.05-.25-.07-.52-.14-.8-.21-.05-.01-.09-.02-.14-.04-.7-.18-1.5-.36-2.38-.54-.03,0-.06-.01-.09-.02-.42-.09-.86-.17-1.31-.25-.03,0-.07-.01-.1-.02-.47-.09-.95-.17-1.45-.25-.15-.02-.31-.05-.46-.07-.07-.01-.15-.02-.23-.03-.58-.08-1.18-.16-1.8-.23-.15-.02-.3-.03-.45-.05Z"/>
          <g>
            <g>
              <path class="cls-21" d="M50.58,16.51c.16.02.31.04.46.07,3.18.49,5.75,1.16,7.23,1.59.52.15,1.06.31,1.61.47.13.04.27.08.41.12.14.04.27.08.41.12.13.04.27.08.4.12,1.85.53,3.83,1.07,5.84,1.61.16.04.31.08.47.13.37.1.75.2,1.13.3,1.84.48,3.7.95,5.5,1.39.12.03.25.06.37.09,1.39.34,2.75.65,4.04.93.11.02.21.04.32.07,1.41.3,2.73.56,3.91.77.09.01.18.03.27.04.81.14,1.55.19,2.28.19.15,0,.29,0,.43,0,1.68-.05,3.26-.4,4.71-.9.2-.06.39-.13.59-.21.12-.04.23-.09.35-.13,1.25-.49,2.39-1.06,3.4-1.61.11-.05.22-.11.33-.17,1-.54,1.87-1.04,2.58-1.37.64-.3,1.25-.28,1.83-.02,1.96.88,3.46,4.54,4.26,7.62.19.73.12,1.58-.13,2.5-.02.09-.05.18-.08.27-.32,1.06-.88,2.19-1.55,3.31-.69,1.14-1.51,2.27-2.34,3.27-.07.08-.13.16-.2.24-1.41,1.69-2.84,3.03-3.74,3.55-.62.36-2.01.53-3.84.55-.16,0-.33,0-.49,0h-.23c-1.25,0-2.67-.05-4.16-.12-.09,0-.19-.01-.28-.02-1.35-.07-2.76-.16-4.14-.27-.08,0-.17,0-.25-.02-1.9-.13-3.75-.28-5.4-.4-.08,0-.16,0-.24-.01-1.48-.1-2.78-.18-3.76-.2-.15,0-.3,0-.45,0-2.68.03-4.66.88-5.94,1.69-.4.26-.64.63-.71,1.02-.03.17-.03.35,0,.52.07.4.31.77.71,1.03,1.35.85,3.48,1.75,6.39,1.69.08,0,.16,0,.24,0,4.28-.13,13.71-1.16,19.04-1.03,1.67.05,2.94.21,3.52.55,1.45.85,4.34,3.88,6.25,7.03,1.34,2.21,2.21,4.47,1.78,6.11-.8,3.09-2.31,6.75-4.27,7.62-.57.26-1.18.27-1.82-.02-1.01-.47-2.32-1.26-3.88-2.05-2.87-1.45-6.57-2.87-10.76-2.16-2.43.41-5.48,1.07-8.73,1.85-5.42,1.3-11.4,2.94-16.01,4.3-4.01,1.18-16.06,4.02-26.25.68-7.99-2.63-14.84-9.07-15.74-23.13-.05-.7-.08-1.43-.09-2.17-.02-.18-.01-.35,0-.52,0-.18-.01-.35-.01-.53.03-.74.06-1.45.11-2.15.42-6.59,2.14-11.51,4.68-15.15.1-.15.2-.28.3-.41,1.82-2.49,4.04-4.35,6.48-5.71,1.69-.96,3.5-1.68,5.36-2.21.13-.04.26-.07.39-.11,2.2-.59,4.46-.92,6.69-1.06.17,0,.33-.02.5-.03,3.53-.17,6.96.11,9.91.54Z"/>
              <path class="cls-1" d="M21.26,25.09c-.05.28-.08.56-.07.85-.02.99-.09,1.98.05,2.96.12,1.98.65,3.92,1.4,5.76.75,1.85,1.79,3.59,3.07,5.17,1.27,1.58,2.77,3.02,4.47,4.2-1.85-1.01-3.44-2.41-4.79-3.97-1.36-1.56-2.43-3.35-3.23-5.22-.74-1.89-1.27-3.88-1.32-5.9-.1-1,.02-2.01.08-3,0-.14.02-.28.04-.42.1-.15.2-.28.3-.41Z"/>
              <path class="cls-1" d="M33.49,17.05c.4.1.78.27,1.1.51.56.4.97.96,1.27,1.56.31.59.51,1.22.67,1.87.31,1.28.42,2.59.46,3.9.04,1.31-.01,2.62-.1,3.93-.2,2.61-.59,5.21-1.07,7.79-.24,1.29-.51,2.57-.81,3.85-.14.64-.3,1.28-.47,1.91l-.26.95c-.1.32-.16.63-.33.95.32-1.27.56-2.58.8-3.86.25-1.29.48-2.57.68-3.87.41-2.57.79-5.16.95-7.75.21-2.58.27-5.2-.23-7.71-.13-.63-.31-1.24-.58-1.81-.26-.57-.63-1.1-1.13-1.49-.37-.31-.82-.5-1.31-.6.13-.04.25-.07.38-.11Z"/>
              <path class="cls-1" d="M29.25,24.07c-.98.1-1.83.7-2.36,1.45-.54.75-.8,1.65-.85,2.55-.06.9.06,1.79.19,2.68.3,1.76.22,3.56.41,5.34.1.89.28,1.77.64,2.61.36.83.88,1.6,1.51,2.28.32.33.66.65,1.08.89.4.24.89.39,1.37.37.48-.01.98-.2,1.28-.57.3-.37.41-.82.49-1.26.2-1.77.37-3.55.55-5.33.16-1.78.43-3.55.44-5.34-.01-.89-.11-1.8-.42-2.65-.3-.86-.87-1.63-1.63-2.19-.75-.55-1.73-.92-2.7-.8ZM31.63,25.24c.68.5,1.2,1.18,1.49,1.96.3.79.41,1.64.42,2.51.04,1.74-.16,3.54-.27,5.31-.13,1.78-.23,3.57-.39,5.34-.06.43-.17.87-.45,1.22-.27.35-.74.53-1.2.55-.47.02-.94-.11-1.34-.34-.41-.23-.76-.54-1.08-.87-.62-.68-1.12-1.44-1.47-2.27-.35-.83-.52-1.71-.6-2.59-.15-1.76,0-3.56-.25-5.36-.1-.89-.19-1.76-.1-2.62.07-.85.35-1.66.85-2.33.49-.67,1.22-1.17,2.04-1.23.81-.09,1.66.23,2.33.73Z"/>
              <path class="cls-1" d="M30.38,27.25c-.61.05-1.05.51-1.32.97-.14.23-.25.48-.33.74-.09.25-.17.51-.23.77-.13.52-.21,1.04-.24,1.57-.12,2.14.61,4.2,1.28,6.2.08.25.18.52.37.72.19.21.51.3.8.25.28-.04.55-.19.75-.39.19-.2.32-.45.41-.7.32-1.02.51-2.06.62-3.12.11-1.05.13-2.11.06-3.17-.04-.53-.09-1.05-.18-1.58-.08-.52-.2-1.06-.52-1.51-.32-.44-.88-.8-1.48-.74ZM31.43,28.25c.25.34.39.81.48,1.32.09.51.16,1.02.21,1.54.11,1.03.16,2.07.1,3.12-.06,1.04-.19,2.1-.46,3.11-.15.49-.5.96-1.05,1.05-.26.05-.55-.02-.73-.21-.19-.18-.28-.44-.37-.69-.32-1.01-.64-2.03-.87-3.06-.21-1.04-.29-2.09-.18-3.11.05-.52.16-1.02.31-1.51.15-.49.34-.99.59-1.38.25-.4.61-.71.97-.72.36-.03.77.22,1,.56Z"/>
              <path class="cls-1" d="M49.13,17.13c.47-.24.95-.45,1.45-.63.16.02.31.04.46.07-2.01.77-3.83,1.96-5.37,3.38-2.17,2-3.83,4.44-4.98,7.06-1.15,2.63-1.83,5.41-2.26,8.23-.43,2.81-.62,5.65-.81,8.48-.06-1.43,0-2.84.05-4.27.07-1.42.2-2.84.37-4.26.35-2.84,1.05-5.67,2.18-8.36,1.18-2.67,2.91-5.15,5.16-7.17,1.13-.99,2.39-1.86,3.77-2.54Z"/>
              <path class="cls-1" d="M39.56,43.73c.46-2.54,1.12-5.07,2.02-7.52.91-2.45,2.07-4.82,3.4-7.1,1.34-2.28,2.92-4.43,4.67-6.47.88-1.01,1.87-2,3.12-2.73,1.23-.73,2.77-1.12,4.28-.9.75.11,1.49.39,2.1.85.61.45,1.06,1.07,1.34,1.73.54,1.33.47,2.75.16,4.05-.7,2.59-2.22,4.96-4.35,6.72-2.13,1.77-4.7,2.84-6.85,4.42-1.07.77-2.03,1.71-2.71,2.81-.68,1.09-1.07,2.39-.85,3.66-.31-1.28.04-2.61.71-3.73.67-1.14,1.61-2.12,2.68-2.94,2.15-1.64,4.71-2.75,6.75-4.5,2.03-1.74,3.51-4.04,4.17-6.54.3-1.24.34-2.59-.16-3.78-.26-.59-.65-1.14-1.19-1.53-.53-.4-1.19-.64-1.87-.74-1.36-.2-2.78.14-3.93.82-1.18.68-2.14,1.63-3.01,2.62-1.75,2-3.3,4.14-4.68,6.37-2.74,4.48-4.68,9.38-5.72,14.44h-.05Z"/>
              <path class="cls-1" d="M41.82,43.51l2.83-5.99,2.92-5.96c.48-.99.97-1.99,1.48-2.97.5-.98.98-1.99,1.63-2.95.65-.95,1.49-1.86,2.65-2.42,1.18-.51,2.57-.6,3.8-.09.61.26,1.16.71,1.47,1.3.32.58.38,1.25.27,1.85-.22,1.22-1.07,2.23-2.03,2.93-.96.72-2.01,1.22-2.94,1.84-.95.61-1.87,1.26-2.73,1.98-1.74,1.42-3.26,3.07-4.55,4.87-.65.9-1.25,1.83-1.77,2.8-.52.97-.97,1.98-1.36,3.01,1.33-4.19,3.95-8,7.41-10.95.86-.75,1.79-1.42,2.75-2.05.95-.64,2-1.15,2.9-1.84.91-.67,1.65-1.59,1.84-2.66.09-.53.04-1.09-.23-1.56-.25-.48-.71-.86-1.23-1.08-1.05-.45-2.32-.38-3.37.07-1.04.49-1.85,1.33-2.47,2.24-.63.91-1.11,1.91-1.62,2.89l-1.52,2.95-6.07,11.81-.05-.02Z"/>
              <path class="cls-1" d="M40.67,15.97c-.18.67-.34,1.34-.49,2.01-.59,2.58-1,5.19-1.22,7.82-.09-.67-.07-1.33-.07-2,.04-.66.09-1.32.15-1.98.13-1.32.38-2.63.65-3.93.16-.63.32-1.26.49-1.88.17,0,.33-.02.5-.03Z"/>
              <path class="cls-4" d="M66.95,20.6c.16.04.31.08.47.13l.07.17c.89,2.07,1.82,4.12,2.69,6.21.83,2.08,1.55,4.25,1.66,6.49.12,2.22-.35,4.54-1.71,6.39.54-1,.96-2.04,1.15-3.12.22-1.07.27-2.17.17-3.25-.19-2.17-.88-4.29-1.75-6.34-.82-2.08-1.75-4.14-2.58-6.23l-.17-.43Z"/>
              <path class="cls-1" d="M85.68,24.49c.03.06.07.13.1.19,1.07,2.04,2.37,3.98,3.5,6,1.11,2.02,2.08,4.16,2.38,6.44.19,1.41.13,2.89-.28,4.26h-.23c.07-.29.13-.59.17-.89.17-1.1.13-2.23-.06-3.32-.36-2.2-1.3-4.28-2.44-6.27-1.08-2.02-2.39-3.96-3.4-6.06-.06-.12-.11-.23-.17-.35.15,0,.29,0,.43,0Z"/>
              <path class="cls-2" d="M91.33,23.25c.89,2.23,1.96,4.4,3.18,6.49,1.48,2.56,3.2,5.01,5.12,7.3-.07.08-.13.16-.2.24l-.42-.46-1.11-1.29c-1.44-1.75-2.69-3.63-3.85-5.56-1.09-1.96-2.09-3.96-2.88-6.05l-.19-.54c.12-.04.23-.09.35-.13Z"/>
              <path class="cls-2" d="M95.06,21.47c.9,1.49,1.96,2.9,3.16,4.2,1.57,1.72,3.38,3.25,5.38,4.53-.02.09-.05.18-.08.27l-.91-.54-1.05-.68c-1.37-.95-2.6-2.07-3.74-3.26-1.09-1.23-2.09-2.54-2.88-3.95l-.21-.39c.11-.05.22-.11.33-.17Z"/>
              <path class="cls-1" d="M78.46,23.43c.11.02.21.04.32.07.12.79.31,1.58.53,2.34.58,1.98,1.44,3.87,2.18,5.8.73,1.93,1.36,3.92,1.45,5.98.05,1.12-.06,2.28-.38,3.37-.08,0-.17,0-.25-.02.03-.12.05-.23.07-.35.2-.98.24-1.99.16-2.98-.16-1.99-.77-3.93-1.53-5.84-.69-1.92-1.56-3.83-2.08-5.85-.21-.83-.37-1.66-.46-2.51Z"/>
              <path class="cls-4" d="M74.06,22.41c.12.03.25.06.37.09.11.49.26.96.42,1.44.72,2.09,1.76,4.08,2.33,6.22.91,3.41.81,7.04-.27,10.41-.08,0-.16,0-.24-.01.06-.22.11-.44.16-.67.25-1.06.41-2.13.48-3.21.14-2.15-.03-4.32-.62-6.39-.52-2.09-1.55-4.07-2.21-6.22-.16-.54-.31-1.09-.41-1.64Z"/>
              <path class="cls-1" d="M82.69,24.26c.09.01.18.03.27.04.18,1.01.45,2.01.76,2.99.59,1.87,1.33,3.69,1.96,5.55.63,1.85,1.15,3.76,1.32,5.7.08.9.08,1.82-.03,2.72-.09,0-.19-.01-.28-.02.07-.89.03-1.79-.09-2.68-.24-1.89-.75-3.76-1.41-5.59-.6-1.85-1.34-3.68-1.86-5.58-.25-.95-.48-1.92-.62-2.89-.01-.08-.02-.16-.03-.25Z"/>
              <path class="cls-4" d="M60.7,18.87c.13.04.27.08.4.12.34.75.73,1.49,1.14,2.2.75,1.31,1.58,2.59,2.27,3.93.69,1.35,1.24,2.76,1.57,4.22.67,2.91.49,6.06-.9,8.76-1.37,2.69-3.92,4.92-7.04,5.71,1.49-.54,2.88-1.3,3.99-2.33,1.14-1,2.05-2.22,2.68-3.53.63-1.33,1.02-2.74,1.12-4.19.11-1.44-.02-2.9-.36-4.32-.31-1.43-.82-2.81-1.49-4.13-.66-1.33-1.49-2.6-2.2-3.95-.44-.81-.85-1.63-1.19-2.49Z"/>
              <path class="cls-1" d="M59.88,18.63c.13.04.27.08.41.12l.56,1.55c.94,2.7,1.78,5.45,1.99,8.29.21,2.82-.2,5.76-1.66,8.27-1.44,2.49-3.96,4.53-6.98,5.12,1.46-.42,2.8-1.11,3.91-2.04,1.13-.9,2.05-2.02,2.71-3.25.65-1.23,1.12-2.56,1.35-3.92.23-1.36.26-2.76.16-4.14-.17-2.78-.99-5.51-1.86-8.21l-.59-1.78Z"/>
              <path class="cls-1" d="M50.87,42.31c.06-.47.21-.92.35-1.37.17-.44.38-.88.63-1.29.25-.42.55-.81.86-1.19.32-.37.68-.72,1.06-1.04.39-.32.8-.61,1.23-.87.44-.26.88-.48,1.31-.68.43-.21.84-.43,1.2-.71.18-.13.36-.28.5-.45.14-.18.26-.37.36-.58-.04.47-.31.89-.66,1.21-.35.33-.76.6-1.18.85-.42.25-.85.48-1.25.74-.4.26-.79.54-1.16.85-1.47,1.22-2.6,2.8-3.21,4.55h-.05Z"/>
              <path class="cls-1" d="M28.74,43.48c-1.25.9-2.36,1.96-3.36,3.1-1.36,1.56-2.43,3.35-3.23,5.22-.74,1.89-1.27,3.88-1.32,5.9-.1,1,.02,2.01.08,3,0,.14.02.28.04.42.1.15.2.28.3.41-.05-.28-.08-.56-.07-.85-.02-.99-.09-1.98.05-2.96.12-1.98.65-3.92,1.4-5.76.75-1.85,1.79-3.59,3.07-5.17.98-1.21,2.09-2.34,3.32-3.33-.09,0-.19,0-.28,0Z"/>
              <path class="cls-1" d="M34.14,43.33c.23.95.41,1.94.59,2.9.25,1.29.48,2.57.68,3.87.41,2.57.79,5.16.95,7.75.21,2.58.27,5.2-.23,7.71-.13.63-.31,1.24-.58,1.81-.26.57-.63,1.1-1.13,1.49-.37.31-.82.5-1.31.6.13.04.25.07.38.11.4-.1.78-.27,1.1-.51.56-.4.97-.96,1.27-1.56.31-.59.51-1.22.67-1.87.31-1.28.42-2.59.46-3.9.04-1.31-.01-2.62-.1-3.93-.2-2.61-.59-5.21-1.07-7.79-.24-1.29-.51-2.57-.81-3.85-.14-.64-.3-1.28-.47-1.91l-.25-.93s-.08,0-.13,0Z"/>
              <path class="cls-1" d="M31.95,61.76c.76-.56,1.33-1.34,1.63-2.19.31-.85.41-1.76.42-2.65,0-1.79-.27-3.56-.44-5.34-.19-1.77-.35-3.55-.55-5.33-.07-.44-.19-.9-.49-1.26-.3-.37-.8-.55-1.28-.57-.49-.02-.97.13-1.37.37-.41.24-.76.56-1.08.89-.63.68-1.16,1.44-1.51,2.28s-.54,1.72-.64,2.61c-.19,1.78-.11,3.57-.41,5.34-.13.88-.24,1.78-.19,2.68.05.89.31,1.79.85,2.55.53.75,1.37,1.35,2.36,1.45.97.12,1.95-.25,2.7-.8ZM29.31,62.12c-.82-.07-1.55-.56-2.04-1.23-.5-.67-.78-1.48-.85-2.33-.08-.86,0-1.74.1-2.62.24-1.79.1-3.59.25-5.36.08-.89.25-1.76.6-2.59.34-.83.85-1.6,1.47-2.27.32-.33.67-.64,1.08-.87.4-.23.87-.37,1.34-.34.46.02.92.2,1.2.55.28.34.38.78.45,1.22.17,1.77.26,3.56.39,5.34.11,1.77.31,3.57.27,5.31-.02.86-.12,1.72-.42,2.51-.29.79-.81,1.46-1.49,1.96-.67.51-1.51.82-2.33.73Z"/>
              <path class="cls-1" d="M31.86,58.64c.32-.45.44-.99.52-1.51.08-.53.14-1.05.18-1.58.07-1.06.05-2.12-.06-3.17-.11-1.06-.31-2.1-.62-3.12-.09-.26-.22-.5-.41-.7-.19-.2-.46-.35-.75-.39-.28-.05-.61.04-.8.25-.2.2-.29.47-.37.72-.67,2-1.4,4.06-1.28,6.2.03.53.1,1.06.24,1.57.06.26.14.52.23.77.08.26.19.51.33.74.27.46.71.92,1.32.97.6.06,1.16-.29,1.48-.74ZM30.43,58.93c-.37-.01-.73-.32-.97-.72-.25-.4-.44-.89-.59-1.38-.16-.49-.26-.99-.31-1.51-.11-1.03-.03-2.08.18-3.11.23-1.03.55-2.04.87-3.06.09-.25.18-.51.37-.69.18-.19.47-.26.73-.21.55.09.9.56,1.05,1.05.27,1.01.4,2.07.46,3.11.06,1.05.02,2.09-.1,3.12-.05.52-.12,1.03-.21,1.54-.09.51-.22.97-.48,1.32-.23.34-.64.59-1,.56Z"/>
              <path class="cls-1" d="M37.57,43.37c0,1.27.05,2.53.09,3.8.07,1.42.2,2.84.37,4.26.35,2.84,1.05,5.67,2.18,8.36,1.18,2.67,2.91,5.15,5.16,7.17,1.13.99,2.39,1.86,3.77,2.54.47.24.95.45,1.45.63.16-.02.31-.04.46-.07-2.01-.77-3.83-1.96-5.37-3.38-2.17-2-3.83-4.44-4.98-7.06-1.15-2.63-1.83-5.41-2.26-8.23-.41-2.65-.6-5.33-.78-8-.03,0-.05,0-.08,0Z"/>
              <path class="cls-1" d="M45.81,43.47c-.23,1.25.12,2.55.77,3.65.67,1.14,1.61,2.12,2.68,2.94,2.15,1.64,4.71,2.75,6.75,4.5,2.03,1.74,3.51,4.04,4.17,6.54.3,1.24.34,2.59-.16,3.78-.26.59-.65,1.14-1.19,1.53-.53.4-1.19.64-1.87.74-1.36.2-2.78-.14-3.93-.82-1.18-.68-2.14-1.63-3.01-2.62-1.75-2-3.3-4.14-4.68-6.37-2.64-4.33-4.54-9.06-5.61-13.94-.02,0-.04,0-.07,0,.45,2.38,1.08,4.73,1.92,7.03.91,2.45,2.07,4.82,3.4,7.1,1.34,2.28,2.92,4.44,4.67,6.47.88,1.01,1.87,2,3.12,2.73,1.23.73,2.77,1.12,4.28.9.75-.11,1.49-.39,2.1-.85.61-.45,1.06-1.07,1.34-1.73.54-1.33.47-2.75.16-4.05-.7-2.59-2.22-4.96-4.35-6.72-2.13-1.77-4.7-2.84-6.85-4.42-1.07-.77-2.03-1.71-2.71-2.81-.67-1.07-1.05-2.32-.86-3.57-.02,0-.04,0-.05,0Z"/>
              <path class="cls-1" d="M43.63,43.47c1.43,3.96,3.95,7.57,7.26,10.39.86.75,1.79,1.42,2.75,2.05.95.64,2,1.15,2.9,1.84.91.67,1.65,1.59,1.84,2.66.09.53.04,1.09-.23,1.56-.25.48-.71.86-1.23,1.08-1.05.45-2.32.38-3.37-.07-1.04-.49-1.85-1.33-2.47-2.24-.63-.92-1.11-1.91-1.62-2.89l-1.52-2.95-5.88-11.44s-.05,0-.07,0l2.67,5.65,2.92,5.96c.48.99.97,1.99,1.48,2.97.5.98.98,1.99,1.63,2.95.65.95,1.49,1.86,2.65,2.42,1.18.51,2.57.6,3.8.09.61-.26,1.16-.71,1.47-1.3.32-.58.38-1.25.27-1.85-.22-1.22-1.07-2.23-2.03-2.93-.96-.72-2.01-1.22-2.94-1.84-.95-.61-1.87-1.26-2.73-1.98-1.74-1.42-3.26-3.07-4.55-4.87-.65-.9-1.25-1.83-1.77-2.8-.42-.8-.79-1.62-1.13-2.45-.03,0-.05,0-.08,0Z"/>
              <path class="cls-1" d="M40.67,70.66c-.18-.67-.34-1.34-.49-2.01-.59-2.58-1-5.19-1.22-7.82-.09.67-.07,1.33-.07,2,.04.66.09,1.32.15,1.98.13,1.32.38,2.63.65,3.93.16.63.32,1.26.49,1.88l.5.03Z"/>
              <path class="cls-4" d="M66.95,66.03c.16-.04.31-.08.47-.13l.07-.17c.89-2.07,1.82-4.12,2.69-6.21.83-2.08,1.55-4.25,1.66-6.49.12-2.22-.35-4.54-1.71-6.39.54,1,.96,2.04,1.15,3.12.22,1.07.27,2.17.17,3.25-.19,2.17-.88,4.29-1.75,6.34-.82,2.08-1.75,4.14-2.58,6.23l-.17.43Z"/>
              <path class="cls-1" d="M85.68,62.14c.03-.06.07-.13.1-.19,1.07-2.04,2.37-3.98,3.5-6,1.11-2.02,2.08-4.16,2.38-6.44.19-1.41.13-2.89-.28-4.26h-.23c.07.29.13.59.17.89.17,1.1.13,2.23-.06,3.32-.36,2.2-1.3,4.28-2.44,6.27-1.08,2.02-2.39,3.96-3.4,6.06-.06.12-.11.23-.17.35.15,0,.29,0,.43,0Z"/>
              <path class="cls-2" d="M91.33,63.38c.89-2.23,1.96-4.4,3.18-6.49,1.48-2.56,3.2-5.01,5.12-7.3-.07-.08-.13-.16-.2-.24l-.42.46-1.11,1.29c-1.44,1.75-2.69,3.63-3.85,5.56-1.09,1.96-2.09,3.96-2.88,6.05l-.19.54c.12.04.23.09.35.13Z"/>
              <path class="cls-2" d="M95.06,65.16c.9-1.49,1.96-2.9,3.16-4.19,1.57-1.72,3.38-3.25,5.38-4.53-.02-.09-.05-.18-.08-.27l-.91.54-1.05.68c-1.37.95-2.6,2.07-3.74,3.26-1.09,1.23-2.09,2.54-2.88,3.95l-.21.39c.11.05.22.11.33.17Z"/>
              <path class="cls-1" d="M78.46,63.2c.11-.02.21-.04.32-.07.12-.79.31-1.58.53-2.34.58-1.98,1.44-3.87,2.18-5.8.73-1.93,1.36-3.92,1.45-5.98.05-1.12-.06-2.28-.38-3.37-.08,0-.17,0-.25.02.03.12.05.23.07.35.2.98.24,1.99.16,2.98-.16,1.99-.77,3.93-1.53,5.84-.69,1.92-1.56,3.83-2.08,5.85-.21.83-.37,1.66-.46,2.51Z"/>
              <path class="cls-4" d="M74.06,64.22l.37-.09c.11-.49.26-.96.42-1.44.72-2.09,1.76-4.08,2.33-6.22.91-3.41.81-7.04-.27-10.41-.08,0-.16,0-.24.01.06.22.11.44.16.67.25,1.06.41,2.13.48,3.21.14,2.15-.03,4.32-.62,6.39-.52,2.09-1.55,4.07-2.21,6.22-.16.54-.31,1.09-.41,1.64Z"/>
              <path class="cls-1" d="M82.69,62.37c.09-.01.18-.03.27-.04.18-1.01.45-2.01.76-2.99.59-1.87,1.33-3.69,1.96-5.55.63-1.85,1.15-3.76,1.32-5.7.08-.9.08-1.82-.03-2.72-.09,0-.19.01-.28.02.07.89.03,1.79-.09,2.68-.24,1.89-.75,3.76-1.41,5.59-.6,1.85-1.34,3.68-1.86,5.58-.25.95-.48,1.92-.62,2.89-.01.08-.02.16-.03.25Z"/>
              <path class="cls-4" d="M60.7,67.76c.13-.04.27-.08.4-.12.34-.75.73-1.49,1.14-2.2.75-1.31,1.58-2.59,2.27-3.93.69-1.35,1.24-2.76,1.57-4.22.67-2.91.49-6.06-.9-8.76-1.37-2.69-3.92-4.92-7.04-5.71,1.49.54,2.88,1.3,3.99,2.33,1.14,1,2.05,2.22,2.68,3.53.63,1.33,1.02,2.74,1.12,4.19.11,1.44-.02,2.9-.36,4.32-.31,1.43-.82,2.81-1.49,4.13-.66,1.33-1.49,2.6-2.2,3.95-.44.81-.85,1.63-1.19,2.49Z"/>
              <path class="cls-4" d="M59.88,67.99c.13-.04.27-.08.41-.12l.56-1.55c.94-2.7,1.78-5.45,1.99-8.29.21-2.82-.2-5.76-1.66-8.27-1.44-2.49-3.96-4.53-6.98-5.12,1.46.42,2.8,1.11,3.91,2.04,1.13.9,2.05,2.02,2.71,3.25.65,1.23,1.12,2.56,1.35,3.92.23,1.36.26,2.76.16,4.14-.17,2.78-.99,5.51-1.86,8.21l-.59,1.78Z"/>
              <path class="cls-1" d="M50.87,44.32c.06.47.21.92.35,1.37.17.44.38.88.63,1.29.25.42.55.81.86,1.19.32.37.68.72,1.06,1.04.39.32.8.61,1.23.87.44.26.88.48,1.31.68.43.21.84.43,1.2.71.18.13.36.28.5.45.14.18.26.37.36.58-.04-.47-.31-.89-.66-1.21-.35-.33-.76-.6-1.18-.85-.42-.25-.85-.48-1.25-.74-.4-.26-.79-.54-1.16-.85-1.47-1.22-2.6-2.8-3.21-4.55h-.05Z"/>
              <path class="cls-3" d="M96.19,39.57c-2.16,1.11-4.76,1.17-7.22,1.01-6.69-.42-13.53-2.14-19.97-.4-1.76.48-3.41,1.23-5.15,1.75-1.58.47-3.56,1.01-5.17.42-1.15-.42-1.65-1.17-2.28-2.08-.64-.93-1.89-1.4-3.05-1.49-2.19-.17-4.43,1-5.4,2.84-.96,1.84-.57,4.22.97,5.68s4.12,1.86,6.07.93c1.62-.77,2.49-2.34,3.98-3.24,3.38-2.04,6.76.58,10.01,1.47,6.43,1.75,13.28.02,19.97-.4,2.46-.15,5.06-.1,7.22,1.01,2.48,1.28,3.94,3.72,5.76,5.78-1.91-3.15-4.8-6.18-6.25-7.03-2.46-1.45-17.36.36-22.8.48-2.91.06-5.04-.83-6.39-1.69-.4-.26-.64-.63-.71-1.03-.01-.08-.02-.16-.02-.24,0-.02,0-.05,0-.07,0-.06,0-.12.02-.17.06-.41.3-.8.71-1.06,1.35-.85,3.48-1.75,6.39-1.69,5.44.12,20.34,1.93,22.8.48,1.46-.85,4.36-3.9,6.27-7.06-1.83,2.06-3.29,4.51-5.78,5.8Z"/>
              <path class="cls-24" d="M52.94,47.09c.88-.09,1.81-.37,2.35-1.03.67-.81.57-1.94.44-2.96-.13-1.02-.33-2.15-1.21-2.76-.77-.53-1.87-.49-2.74-.1-3.51,1.57-3.62,7.33,1.16,6.85Z"/>
              <path class="cls-3" d="M83.01,24.31c6.48,1.08,11.79-2.89,14.64-4.22.64-.3,1.25-.28,1.83-.02-2.57,4.53-13.81,6.23-19.06,5.34-2.56-.43-8.49-2.59-15.64-4.57-.77-.21-1.55-.42-2.34-.63-4.7-1.22-9.79-.61-13.89,1.86-.6.36-1.17.75-1.7,1.17-.5.38-1.2-.16-.91-.69.26-.47.64-.87.82-1.35.67-1.79-1.96-3.37-3.55-3.78-2.07-.54-4.32.07-6.32.44-.33.06-.66.13-.98.21-1.3.3-2.53.73-3.7,1.26-3.14,1.44-5.81,3.65-7.85,6.36-2.89,3.82-7.84,12.52-2.99,16.73.99.87,2.36,1.27,3.72,1.21l8.81-.38,13.74-.6c.49-.02.98.13,1.34.44,1.54,1.35-1.56,1.18-2.09,1.11-1.82-.23-3.65-.36-5.49-.41-2.48-.08-4.87.3-7.29.61-1.18.15-2.36.28-3.57.33-2.64.12-5.54-.49-7.94.54-.28.12-.56.28-.83.48-1.85,1.35-2.57,3.65-1.98,5.77,1.46,5.17,5.7,15.15,17.1,17.28,1.58.29,3.05.54,4.56.48.74-.03,1.48-.14,2.24-.35,1.61-.45,3.77-1.51,3.06-3.39-.18-.49-.56-.88-.81-1.34-.31-.55.4-1.08.9-.7.15.11.3.23.46.34,4.25,3.07,9.88,3.97,15.07,2.63,1.36-.35,2.69-.72,3.97-1.08,6.45-1.85,11.7-3.73,14.08-4.13,5.24-.89,16.46.81,19.05,5.33-.57.26-1.18.27-1.82-.02-2.85-1.33-8.16-5.3-14.64-4.22-4.36.73-10.7,2.28-16.64,3.87-2.89.78-5.68,1.57-8.1,2.28-2.73.8-9.17,2.37-16.22,2.24-11.45-.21-24.51-4.9-25.77-24.7l1.22,1.02c-.12-2.49-.11-5.08,0-7.42l-1.23,1.03c.91-14.24,7.91-20.68,16.03-23.25,10.12-3.2,21.99-.4,25.96.77,1.96.58,4.17,1.21,6.48,1.83,6.37,1.75,13.5,3.52,18.26,4.32Z"/>
              <path class="cls-20" d="M39.93,70.63c-10.97-1.23-22.04-7.32-22.43-26.7-.02-.18,0-.35,0-.52,0-.18,0-.35,0-.53.45-21.62,14.18-26.7,26.22-26.95-12.45-.22-27.58,4.23-28.04,26.87-.02.18,0,.35,0,.52,0,.18,0,.35,0,.52.43,20.39,12.74,26.02,24.28,26.78Z"/>
            </g>
            <path class="cls-18" d="M58.27,18.17c1.96.58,4.17,1.21,6.48,1.83l.03.84,1.56,44.53.03.82c-2.89.78-5.68,1.57-8.1,2.28-2.73.8-9.17,2.37-16.22,2.24-.2-.47-.39-.95-.6-1.44-2.58-6.36-5.47-14.93-7.34-24.88-.07-.38-.15-.76-.21-1.15-1.31-7.35-2.05-15.43-1.69-23.91.03-.64.06-1.29.1-1.93,10.12-3.2,21.99-.4,25.96.77Z"/>
            <path class="cls-13" d="M27.74,19.37c-.3,9.05-.95,18.11-.45,27.15.22,3.89.66,7.77,1.43,11.6.66,3.29,1.56,6.54,2.77,9.7.17.45.35.89.53,1.33-7.99-2.63-14.84-9.07-15.74-23.13-.05-.7-.08-1.43-.09-2.17-.02-.18-.01-.35,0-.52,0-.18-.01-.35-.01-.53.03-.74.06-1.45.11-2.15.42-6.59,2.14-11.51,4.68-15.15.1-.15.2-.28.3-.41,1.82-2.49,4.04-4.35,6.48-5.71Z"/>
            <path class="cls-13" d="M92.18,45.26l1.59,19.23c-2.87-1.45-6.57-2.87-10.76-2.16-2.43.41-5.48,1.07-8.73,1.85-.15-4.87-.46-11.16-1.14-17.89,4.28-.13,13.71-1.16,19.04-1.03Z"/>
            <path class="cls-13" d="M68.55,21.02c1.84.48,3.7.95,5.5,1.39.12.03.25.06.37.09,1.39.34,2.75.65,4.04.93.11.02.21.04.32.07,1.41.3,2.73.56,3.91.77.09.01.18.03.27.04.81.14,1.55.19,2.28.19.15,0,.29,0,.43,0,1.68-.05,3.26-.4,4.71-.9l1.47,17.79c-.16,0-.33,0-.49,0h-.23c-1.25,0-2.67-.05-4.16-.12-.09,0-.19-.01-.28-.02-1.35-.07-2.76-.16-4.14-.27-.08,0-.17,0-.25-.02-1.9-.13-3.75-.28-5.4-.4-.08,0-.16,0-.24-.01-1.48-.1-2.78-.18-3.76-.2-.15,0-.3,0-.45,0-.87-6.6-2.11-13.33-3.91-19.33Z"/>
          </g>
          <g>
            <path class="cls-11" d="M16.34,0h87.31c3.94,0,7.55,1.4,10.37,3.72,2.04,1.68,3.66,3.83,4.7,6.3.83,1.95,1.28,4.08,1.28,6.33v53.28c0,9.03-7.32,16.34-16.34,16.34H16.34c-9.03,0-16.34-7.32-16.34-16.34V16.34c0-2.47.55-4.8,1.53-6.9.86-1.85,2.05-3.5,3.5-4.89C7.97,1.73,11.95,0,16.34,0Z"/>
            <g>
              <polygon class="cls-9" points="114.9 80.06 65.91 59.82 66.27 37.97 114.9 80.06"/>
              <polygon class="cls-6" points="115.43 79.25 70.41 32.44 77.02 25.79 115.43 79.25"/>
              <polygon class="cls-8" points="4.21 80.33 53.11 52.92 44.51 41.64 2.87 78.58 4.21 80.33"/>
              <path class="cls-5" d="M114.03,3.72c2.04,1.68,3.66,3.83,4.7,6.3-14,8.34-57.82,37.98-57.82,37.98l-7.88-21.13L114.03,3.72Z"/>
              <polygon class="cls-10" points="47.82 51.94 62.87 50.6 61.5 85.97 55.87 85.97 47.82 51.94"/>
              <path class="cls-15" d="M5.03,4.56l40.82,29.11-4.66,30.81L1.53,9.45c.86-1.85,2.05-3.5,3.5-4.89Z"/>
              <polygon class="cls-7" points="6.09 3.49 66.54 25.25 57.8 36.3 6.09 3.49"/>
            </g>
          </g>
        </g>
      </g>
    </g>
  </g>
</svg>