<?xml version="1.0" encoding="UTF-8"?>
<svg id="Layer_2" data-name="Layer 2" xmlns="http://www.w3.org/2000/svg" viewBox="0 0 56.22 120">
  <defs>
    <style>
      .cls-1 {
        fill: #fe4880;
      }

      .cls-2 {
        fill: #f8a295;
      }

      .cls-3 {
        fill: #fed1e2;
      }

      .cls-4 {
        fill: #fe4881;
      }

      .cls-5 {
        fill: #fd255f;
      }

      .cls-6 {
        fill: #fb709a;
      }

      .cls-7 {
        fill: #f8a294;
      }

      .cls-8 {
        fill: #f6b6b1;
      }

      .cls-9 {
        fill: #fec1d8;
      }

      .cls-10 {
        fill: #f6a5c0;
      }

      .cls-11 {
        fill: #ee917d;
      }

      .cls-12 {
        fill: #ee927d;
      }
    </style>
  </defs>
  <g id="Layer_1-2" data-name="Layer 1">
    <g>
      <path class="cls-6" d="M33.23,0c5.44,1.78,9.4,4.78,11.72,10.08l-.58.16c-4.05-2.63-7.21,1.01-5.54,5.17-.27,1.85-4.99,3.67-6.77,3.58.02.22-.05.38-.23.49-1.04.15-2.09.31-3.1.58-2.41.64-4.62,1.25-4.16,4.36.2,1.33,1.06,2.56,2.39,2.95l.18.52c-.5.62-1.33.87-2.48.74-1.32.23-2.37.06-3.14-.51-1.83.56-3.78.03-5.53-.63-2.5-.94-6.05-3.04-5.72-5.94-1.63-5.73,4.25-9.14,8.86-10.48,3.6-1.05,7.9-.85,9.67-4.87,1.05-2.39,0-5.25,3.04-6.22h1.41Z"/>
      <path class="cls-6" d="M18.69,45.47l1.45-.39c4.17.3,8.32.16,12.4-.84l1.85.05.51-.6c.93-.34,3.89-1.11,4.84-1.24.26-.04.52.09.75.2,1.4-.32,4.04.55,4.9,1.7.44.59.97,1.57.26,2.05.54,1.26.09,1.78-.73,2.7-4.89,2.64-4.84,9.53,1.28,9.99l.39.43-.49.73c-3.71,1.96-7.72,3.77-11.75,4.93l-.89-.27c-.88.73-1.51.81-1.88.23l.06-.61c4.59-3.39,1.77-9.91-3.84-8.92-4.84.95-9.63.92-14.42-.21-3.89-.33-6.42,3.56-4.74,7.07l-.26.56c-.29.28-.76.13-1.41-.47-.99.26-3.32-1.29-3.28-2.34-6.51-6.09-3.63-14.31,2.58-19.22l.61-.03c3.05,2.64,7.44,4.87,11.54,4.02l.28.47Z"/>
      <path class="cls-10" d="M50.1,35.16l.09.63c-.83,1.01-5.7,5.48-6.59,4.99-.11-.06-.2-.14-.29-.23l-.2-.57c2.42-7.55-4.8-8.07-10.04-5.27-4.49,2.41-3.59,7.66,1.03,9.05l.3.54c-6.55,1.58-9.11,1.55-15.7,1.17l.17-.6c5.2-3.65,2.04-9.14-3.63-9.42-1.19-.38-2.56-1.58-1.47-2.63-.31-.64.49-1.35,1-1.77,1.79-1.45,4.46-2.65,6.73-2.92,1.76.1,3.92.12,5.63-.23l.32-.43c2.46-.14,4.87-.67,7.24-1.57l.42.36,1.11-.84c3.43-1.25,7.05-2.97,8.79-6.37l.65-.29c4.56,2.21,8.03,6.38,6.68,11.72-.31,1.23-1.47,3.68-2.23,4.69Z"/>
      <path class="cls-7" d="M49.4,68.91l-1.03,1.64-7,6.72,3.82,3.62v.68c.64.81.93,1.54.59,2.59-.38,1.19-1.7.9-2,1.63-.59.18-1.36-.25-1.86-.6l-4.19-4.17-6.08,6.08-.53-.13-.5.24c-1.9-1.17-3.52.43-2.32,2.33l-.23.48.22.45-6.13,6.07c.93,1.15,1.93,2.24,3.01,3.27l-.14.53-.37.44c-1.46-.14-2.19.83-2.01,2.23l-.43.38-.5.17-3.4-3.35-1.02.37c-.34-.69-1.05-.41-1.64-.82-1.11-.77-.8-3.01,0-3.86l.1-.52c2.89-2.89,5.86-5.74,8.91-8.55-1.27-.67-2.81-2.16-3.14-3.59l.34-.38c1.61.32,2.33-1.03,2.22-2.47l.25-.2.53-.13,3.23,3.04,5.79-5.75c-.73-.71-1.11-1.4-1.12-2.08l.31-.43c1.37.14,2.61-.75,2.15-2.21l.35-.41.46-.21,1.7,1.48,12.83-12.83c.53-.38,1.26-.8,1.89-.63.39.67,1.08.43,1.61,1.09.48.59.63,1.49.4,2.21-.45,1.41-4.27,3.78-5.05,5.61Z"/>
      <path class="cls-9" d="M13.77,32.82c-.3,2.5,3.06,2.36,4.69,2.93,4.55,1.6,4.6,7.81.24,9.73-.75-.04-1.67.32-2.69.23-3.01-.25-7.72-2.41-9.73-4.68-3.18-3.6-3.7-9.18-1.41-13.36l.54.13c-.15,4.6,3.62,7.28,7.78,4.87l.58.16Z"/>
      <path class="cls-11" d="M52.45,60.01c-.43.69-1.1.46-1.65,1.05l-12.89,12.91c-.41.21-1.9-1.35-2.34-1.77-1.15-.1-2.48-1.43-2.58-2.58-3.38-1.26-2.3-3.49.47-4.69,5.39-1.25,8.41-3.35,13.13-5.39l.26-.5c3.08-.72,5.41-3.51,7.19-6.03l.75-.27c-.54,1.77-1.48,5.89-2.34,7.27Z"/>
      <path class="cls-5" d="M56.2,45.71c-.13,4.58-5.36,6.24-8.76,3.64-.98-.75-1.86-1.63-1.79-2.94-.14-.29-.08-.88-.37-1.39-.92-1.61-3.24-1.73-4.79-2.36.13-.55.61-.99,1.43-1.34.44-.55.91-.81,1.39-.77,1.18-.4,2.42-1.32,3.39-2.12.83-.68,2.81-2.48,3.41-3.27,3.7,2.47,5.9,6.05,6.09,10.55Z"/>
      <path class="cls-4" d="M44.95,10.08c1.32,3.02,2.06,5.45.7,8.67-1.77,4.2-6.51,6.22-10.55,7.5l-.09-.58c2.27-2.48.96-6.29-2.57-6.23l-.39-.45c1.25-.4,6.23-2.23,6.31-3.62.02-.43-.38-1.14-.43-1.68-.42-4.42,3.72-6.2,7.01-3.61Z"/>
      <path class="cls-4" d="M54.79,52.74c-1.92,2.87-4.02,5.33-7.26,6.69-.31.13-.78.04-.94.1-4.26.54-7.08-4.32-4.97-7.9,1.11-1.9,4.07-2.67,4.03-5.23,2.47,5.12,9.07,4.98,10.55-.7.14,3.24-.55,4.19-1.41,7.03Z"/>
      <path class="cls-11" d="M18.46,80.4c1.21.18,2.88,1.6,3.05,2.81,1.18,1.19,2.27,2.5,3.51,3.63-2.84,2.94-5.85,5.72-8.66,8.69-.24.25-.67.3-.71.34l-3.28-10.08c-.11-.15-.24-.39-.15-.49,1.13-1.22,4.34-4.13,5.68-5.03l.57.13Z"/>
      <path class="cls-11" d="M43.78,85.79l-3.28,10.08c-.13.61-.62.38-1.02.01-1.64-1.49-3.6-3.29-4.61-5.17l-.68-.02c-.92-1.09-1.91-2.11-2.96-3.06l-.11-.66,6.48-6.55c.46-.08,3.89,3.86,4.65,4.44.53.4,1.21.36,1.53.93Z"/>
      <path class="cls-3" d="M21.51,28.13c-2.28,1.07-4.39,1.74-6.44,3.29-.5.38-.93,1.12-1.29,1.4-2.69,2.09-6.97,1.47-8.32-1.88-.5-1.24-.15-2.15-.59-3.28,1.36-2.48,2.84-3.37,4.87-5.1.37-.32.63-.39.53-1,1.31,4.61,7,6.33,11.25,6.56Z"/>
      <path class="cls-11" d="M29.71,110.87c1.11.55,2.1,1.36,2.95,2.43.64.37,1.14.81,1.51,1.32-1.28,7.17-10.91,7.17-12.19,0,.44-.66,1.06-1.28,1.86-1.86l3.38-3.58.62.05c.82-.18,2.01.79,1.88,1.64Z"/>
      <path class="cls-7" d="M40.49,95.87c.41.45.81,2.16.6,2.83-.44,1.37-1.9,1.2-2.24,1.86l-1.21-.43-5.95,6.14-.57-.08c-1.45-.55-2.5-1.59-3.05-3.05l-.22-.45,6.13-6.07-2.08-2.35.15-.52.38-.43c1.5.18,2.18-.84,2-2.24l.43-.38c1.65,1.6,3.35,3.14,4.92,4.82.24.26.68.3.71.34Z"/>
      <path class="cls-7" d="M6.97,62.58c3.03,2.29,5.88,5,7.97,8.2l-.35.42c-1.35-.19-2.34.7-2.25,2.07l-.45.32c-2.08-1.21-3.8-2.77-5.16-4.69-1.11-2.62-8.96-6.5-3.05-8.67.89.83,2.25,1.66,3.28,2.34Z"/>
      <path class="cls-12" d="M49.4,68.91l-4.22,12.66c-.5-.63-4.45-4.03-4.45-4.34l8.67-8.32Z"/>
      <path class="cls-12" d="M11.9,73.6c1.42.39,2.89,2.09,3.28,3.52l.31.51c-.49.8-3.95,4.67-4.58,4.26l-.18-.79c-1.7-3.74-2.42-8.5-3.98-12.19.1-.47.6.24.7.35,1.46,1.46,2.99,2.88,4.45,4.34Z"/>
      <path class="cls-11" d="M31.12,106.18l6.34-6.46c.29-.14,1.58.24,1.4.83l-3.28,10.08c-1.09.04-2.49-1.49-2.81-2.58-.85.14-1.82-1.06-1.64-1.88Z"/>
      <path class="cls-11" d="M22.21,103.37c1.22.17,2.63,1.83,2.81,3.05.03.13.05.27.05.4-.01.33-3.23,3.3-3.83,3.77l-.67.05-3.28-10.08c-.27-.45.94-.93,1.18-.83s3.23,3.13,3.75,3.64Z"/>
      <path class="cls-7" d="M27.84,109.23c-1.16,1.06-4.51,5.27-5.86,5.39-2.4.21-2.91-2.21-1.41-3.98,1.19-1.4,3.15-2.85,4.45-4.22,1.38.47,2.34,1.44,2.81,2.81Z"/>
      <path class="cls-7" d="M18.46,80.4l-6.09,5.39c-.3-.68-1.75-.37-2.2-1.92-.36-1.25.67-1.66.56-2.77.37.36.05.64.59.24.91-.69,2.47-2.38,3.29-3.28.26-.29.59-.48.58-.94,1.42.76,2.52,1.86,3.28,3.28Z"/>
      <path class="cls-2" d="M35.57,110.64c1.47,1.71,1.01,4.12-1.41,3.98-1.51-.08-3.36-2.69-4.45-3.75l.39-.37c1.45.39,2.44-.69,2.24-2.11l.42-.33c.8.82,2.1,1.74,2.81,2.58Z"/>
      <path class="cls-5" d="M32.06,18.99c4.36-.32,6.03,4.34,3.05,7.27-1.91.61-6.09,2-7.97,1.64-3.19-.61-4.26-5.25-1.52-7.26.94-.69,5.15-1.55,6.44-1.64Z"/>
      <path class="cls-1" d="M31.59,65.16c-1.15.89-6.05,1.91-7.22,1.45-.18-.07-.35-.17-.51-.28l-.35.49c-3.48.07-7.15.05-10.57-.72-1.78-.4-4.24-1.16-4.55-3.05-1.13-2.41-1.06-4.95,1.05-6.8,2.88-2.53,5.65-.69,8.92-.46,1.4.1,3.28.08,4.7.01,3.57-.18,7.73-2.12,10.31,1.39,2.06,2.8.99,6.14-1.76,7.98Z"/>
      <path class="cls-9" d="M43.31,40.55c-.63.97-1.77,1.66-2.81,2.11-1.93.84-4.08,1.15-6.09,1.64-5.21-.83-6.6-7.68-1.64-9.96.75-.35,4.35-1.64,5.05-1.74,4.7-.73,8.1,3.94,5.49,7.96Z"/>
      <path class="cls-7" d="M33.46,64.93l-2.33,2.49c-.04.22,1.56,1.88,1.86,2.19l-.32.42c-1.41-.18-2.57.77-2.13,2.23l-.36.4c-.8-.04-1.54-.51-2.22-1.4l-5.93,6.21-.53-.12c-1.54-.62-2.65-1.74-3.28-3.28l-.21-.45,6.25-5.93c-.42-.52-.56-.97-.41-1.36,2.6-.14,5.19-.68,7.74-1.17.56-.11,1.33-.11,1.88-.23Z"/>
      <path class="cls-11" d="M8.38,63.05c.32.22.76.99,1.33,1.37,2.91,1.93,10.66,2.11,14.14,1.91l1.17,1.29-6.79,6.45c-1.51-.69-2.59-1.77-3.28-3.28-2.69-2.69-5.33-5.47-7.97-8.2.26.17,1.15.3,1.41.47Z"/>
      <path class="cls-11" d="M32.06,93.76c.37.38,2.6,2.67,2.56,2.9l-6.55,6.48c-1.21-.18-2.87-1.6-3.05-2.81-.46-.47-3.54-3.58-3.5-3.84l6.55-6.48.58-.04c.51.39,3.51,3.18,3.49,3.43-.01.12-.04.24-.09.36Z"/>
      <path class="cls-11" d="M30.18,72.66c1.22.2,2.38,1.36,2.58,2.58.63.64,1.18,1.4,1.87,1.99l-6.47,6.43c-.26.04-3.36-3.03-3.84-3.5-1.38-.46-2.34-1.43-2.81-2.81l6.45-6.79c.67.77,1.5,1.4,2.23,2.11Z"/>
      <path class="cls-8" d="M14.94,70.79c1.09,1.09,2.19,2.19,3.28,3.28s2.19,2.2,3.28,3.28c.94.93,1.87,1.89,2.81,2.81.77,1.77-.96,3.78-2.81,3.05-.96-.97-2.09-1.85-3.05-2.81-1.09-1.1-2.19-2.19-3.28-3.28s-2.16-2.39-3.28-3.52c-.23-1.99,1.08-3.18,3.05-2.81Z"/>
      <path class="cls-8" d="M25.02,100.32c.96.97,2.09,1.85,3.05,2.81,1.01,1.02,2.04,2.03,3.05,3.05.57.58,1.08,1.3,1.64,1.88.42,2.03-1.05,3.52-3.05,2.81-.58-.56-1.3-1.07-1.88-1.64-.94-.93-1.87-1.88-2.81-2.81s-1.84-2.09-2.81-3.05c-.32-2.11.65-3.32,2.81-3.05Z"/>
      <path class="cls-8" d="M31.12,86.96c1.42.98,2.52,2.56,3.75,3.75.28,2.14-.56,3.34-2.81,3.05-1.12-1.15-3.05-2.58-3.98-3.75-1.77-2.21.3-4.94,3.05-3.05Z"/>
      <path class="cls-8" d="M32.99,69.62c.81.85,1.73,1.76,2.58,2.58.82,2.02-.85,3.37-2.81,3.05-.83-.85-1.72-1.75-2.58-2.58-.79-2.01.81-3.45,2.81-3.05Z"/>
    </g>
  </g>
</svg>