<?xml version="1.0" encoding="UTF-8"?>
<svg xmlns="http://www.w3.org/2000/svg" xmlns:xlink="http://www.w3.org/1999/xlink" viewBox="0 0 120 85.97">
  <defs>
    <style>
      .cls-1 {
        fill: #d34958;
      }

      .cls-2 {
        fill: url(#linear-gradient-14);
      }

      .cls-2, .cls-3, .cls-4, .cls-5, .cls-6, .cls-7, .cls-8, .cls-9, .cls-10, .cls-11, .cls-12, .cls-13, .cls-14, .cls-15, .cls-16, .cls-17, .cls-18, .cls-19, .cls-20, .cls-21, .cls-22, .cls-23, .cls-24 {
        opacity: .5;
      }

      .cls-25 {
        fill: url(#linear-gradient-16);
      }

      .cls-25, .cls-26, .cls-27, .cls-28, .cls-29, .cls-30, .cls-31, .cls-32, .cls-33, .cls-34, .cls-35, .cls-36, .cls-37, .cls-38, .cls-39, .cls-40 {
        opacity: .76;
      }

      .cls-41 {
        fill: url(#linear-gradient-2);
      }

      .cls-42 {
        fill: #b26f7e;
      }

      .cls-42, .cls-43 {
        mix-blend-mode: multiply;
      }

      .cls-3 {
        fill: url(#linear-gradient-26);
      }

      .cls-44 {
        fill: url(#linear-gradient-25);
      }

      .cls-4 {
        fill: url(#linear-gradient-21);
      }

      .cls-5 {
        fill: url(#linear-gradient-32);
      }

      .cls-45 {
        fill: #a72527;
      }

      .cls-26 {
        fill: url(#linear-gradient-15);
      }

      .cls-27 {
        fill: url(#linear-gradient-17);
      }

      .cls-46 {
        fill: url(#radial-gradient);
        opacity: .15;
      }

      .cls-46, .cls-47, .cls-48, .cls-12, .cls-49, .cls-50, .cls-19, .cls-23 {
        mix-blend-mode: screen;
      }

      .cls-28 {
        fill: url(#linear-gradient-18);
      }

      .cls-6 {
        fill: url(#linear-gradient-40);
      }

      .cls-7 {
        fill: url(#linear-gradient-31);
      }

      .cls-8 {
        fill: url(#linear-gradient-9);
      }

      .cls-51 {
        fill: url(#linear-gradient-4);
      }

      .cls-9 {
        fill: url(#linear-gradient-48);
      }

      .cls-9, .cls-20, .cls-52 {
        mix-blend-mode: lighten;
      }

      .cls-10 {
        fill: url(#linear-gradient-27);
      }

      .cls-47 {
        fill: url(#linear-gradient-47);
        opacity: .85;
      }

      .cls-48 {
        fill: url(#linear-gradient-46);
      }

      .cls-48, .cls-52 {
        opacity: .35;
      }

      .cls-11 {
        fill: url(#linear-gradient-12);
      }

      .cls-53 {
        fill: url(#linear-gradient-3);
      }

      .cls-12 {
        fill: url(#White_Black-2);
      }

      .cls-49 {
        fill: url(#linear-gradient-24);
      }

      .cls-49, .cls-50 {
        opacity: .25;
      }

      .cls-29 {
        fill: url(#linear-gradient-42);
      }

      .cls-54 {
        isolation: isolate;
      }

      .cls-13 {
        fill: url(#linear-gradient-13);
      }

      .cls-14 {
        fill: url(#linear-gradient-8);
      }

      .cls-30 {
        fill: url(#linear-gradient-23);
      }

      .cls-50 {
        fill: url(#linear-gradient-43);
      }

      .cls-15 {
        fill: url(#linear-gradient-10);
      }

      .cls-31 {
        fill: url(#linear-gradient-38);
      }

      .cls-16 {
        fill: url(#linear-gradient-30);
      }

      .cls-17 {
        fill: url(#linear-gradient-29);
      }

      .cls-32 {
        fill: url(#linear-gradient-19);
      }

      .cls-43 {
        fill: url(#linear-gradient-5);
      }

      .cls-18 {
        fill: url(#linear-gradient-11);
      }

      .cls-55 {
        fill: url(#linear-gradient-6);
      }

      .cls-33 {
        fill: url(#linear-gradient-39);
      }

      .cls-19 {
        fill: url(#linear-gradient-44);
      }

      .cls-20 {
        fill: url(#linear-gradient-45);
      }

      .cls-21 {
        fill: url(#linear-gradient-33);
      }

      .cls-34 {
        fill: url(#linear-gradient-37);
      }

      .cls-22 {
        fill: url(#linear-gradient-28);
      }

      .cls-56 {
        fill: #f4f4f4;
      }

      .cls-35 {
        fill: url(#linear-gradient-20);
      }

      .cls-57 {
        fill: #ceb6ba;
        mix-blend-mode: darken;
      }

      .cls-36 {
        fill: url(#linear-gradient-35);
      }

      .cls-52 {
        fill: #fff;
      }

      .cls-37 {
        fill: url(#linear-gradient-41);
      }

      .cls-23 {
        fill: url(#White_Black);
      }

      .cls-58 {
        fill: url(#linear-gradient);
      }

      .cls-24 {
        fill: url(#linear-gradient-7);
      }

      .cls-38 {
        fill: url(#linear-gradient-36);
      }

      .cls-59 {
        fill: #ea9a8f;
      }

      .cls-39 {
        fill: url(#linear-gradient-34);
      }

      .cls-40 {
        fill: url(#linear-gradient-22);
      }
    </style>
    <linearGradient id="linear-gradient" x1="144.1" y1="300.9" x2="144.1" y2="180.9" gradientTransform="translate(300.9 -101.12) rotate(90)" gradientUnits="userSpaceOnUse">
      <stop offset="0" stop-color="#e3e4e6"/>
      <stop offset="1" stop-color="#cacccb"/>
    </linearGradient>
    <linearGradient id="linear-gradient-2" x1="144.1" y1="299.87" x2="144.1" y2="181.94" gradientTransform="translate(-180.91 187.08) rotate(-90)" gradientUnits="userSpaceOnUse">
      <stop offset="0" stop-color="#fff"/>
      <stop offset=".99" stop-color="#f4f4f4"/>
    </linearGradient>
    <linearGradient id="linear-gradient-3" x1="176.7" y1="297.37" x2="111.5" y2="184.44" gradientTransform="translate(-180.91 187.08) rotate(-90)" gradientUnits="userSpaceOnUse">
      <stop offset="0" stop-color="#f4f4f4"/>
      <stop offset="1" stop-color="#cacccb"/>
    </linearGradient>
    <linearGradient id="linear-gradient-4" x1="144.1" y1="286.94" x2="144.1" y2="194.87" gradientTransform="translate(-180.9 187.08) rotate(-90)" gradientUnits="userSpaceOnUse">
      <stop offset="0" stop-color="#f4f4f4"/>
      <stop offset=".99" stop-color="#e3e4e6"/>
    </linearGradient>
    <linearGradient id="linear-gradient-5" x1="120.21" y1="240.13" x2="175.38" y2="240.13" gradientTransform="translate(300.9 -101.12) rotate(90)" xlink:href="#linear-gradient-3"/>
    <linearGradient id="linear-gradient-6" x1="143.95" y1="244.03" x2="143.95" y2="190.03" gradientTransform="translate(300.9 -101.12) rotate(90)" gradientUnits="userSpaceOnUse">
      <stop offset=".02" stop-color="#d34958"/>
      <stop offset=".21" stop-color="#d94b5b"/>
      <stop offset=".45" stop-color="#ea5365"/>
    </linearGradient>
    <linearGradient id="linear-gradient-7" x1="144.75" y1="195.22" x2="152.09" y2="195.22" gradientTransform="translate(300.9 -101.12) rotate(90)" gradientUnits="userSpaceOnUse">
      <stop offset="0" stop-color="#ffd0ca"/>
      <stop offset=".45" stop-color="#f8c9c3"/>
      <stop offset="1" stop-color="#ebbcb4"/>
    </linearGradient>
    <linearGradient id="linear-gradient-8" x1="130.6" y1="200.42" x2="137.95" y2="200.42" xlink:href="#linear-gradient-7"/>
    <linearGradient id="linear-gradient-9" x1="149.77" y1="205.61" x2="157.11" y2="205.61" xlink:href="#linear-gradient-7"/>
    <linearGradient id="linear-gradient-10" x1="149.77" y1="205.29" x2="156.7" y2="205.29" xlink:href="#linear-gradient-7"/>
    <linearGradient id="linear-gradient-11" x1="122.01" y1="210.36" x2="129.35" y2="210.36" xlink:href="#linear-gradient-7"/>
    <linearGradient id="linear-gradient-12" x1="122.01" y1="209.75" x2="129.29" y2="209.75" xlink:href="#linear-gradient-7"/>
    <linearGradient id="linear-gradient-13" x1="137.59" y1="220.39" x2="144.93" y2="220.39" xlink:href="#linear-gradient-7"/>
    <linearGradient id="linear-gradient-14" x1="137.59" y1="219.66" x2="144.9" y2="219.66" xlink:href="#linear-gradient-7"/>
    <linearGradient id="linear-gradient-15" x1="131.68" y1="213.4" x2="135.44" y2="213.4" xlink:href="#linear-gradient-7"/>
    <linearGradient id="linear-gradient-16" x1="120.93" y1="221.1" x2="124.69" y2="221.1" xlink:href="#linear-gradient-7"/>
    <linearGradient id="linear-gradient-17" x1="161.05" y1="227.91" x2="164.81" y2="227.91" xlink:href="#linear-gradient-7"/>
    <linearGradient id="linear-gradient-18" x1="140.09" y1="192.98" x2="143.86" y2="192.98" xlink:href="#linear-gradient-7"/>
    <linearGradient id="linear-gradient-19" x1="131.86" y1="203.55" x2="135.62" y2="203.55" xlink:href="#linear-gradient-7"/>
    <linearGradient id="linear-gradient-20" x1="159.44" y1="199.97" x2="163.2" y2="199.97" xlink:href="#linear-gradient-7"/>
    <linearGradient id="linear-gradient-21" x1="149.68" y1="237.4" x2="157.02" y2="237.4" xlink:href="#linear-gradient-7"/>
    <linearGradient id="linear-gradient-22" x1="142.96" y1="234.89" x2="146.72" y2="234.89" xlink:href="#linear-gradient-7"/>
    <linearGradient id="linear-gradient-23" x1="134.9" y1="238.48" x2="138.66" y2="238.48" xlink:href="#linear-gradient-7"/>
    <linearGradient id="linear-gradient-24" x1="117.08" y1="216.08" x2="170.81" y2="216.08" gradientTransform="translate(300.9 -101.12) rotate(90)" gradientUnits="userSpaceOnUse">
      <stop offset="0" stop-color="#fff"/>
      <stop offset=".15" stop-color="#fbfbfb"/>
      <stop offset=".28" stop-color="#f1f1f1"/>
      <stop offset=".4" stop-color="#dfdfdf"/>
      <stop offset=".52" stop-color="#c6c6c6"/>
      <stop offset=".63" stop-color="#a6a6a6"/>
      <stop offset=".74" stop-color="#7e7e7e"/>
      <stop offset=".85" stop-color="#4f4f4f"/>
      <stop offset=".95" stop-color="#1b1b1b"/>
      <stop offset="1" stop-color="#000"/>
    </linearGradient>
    <linearGradient id="linear-gradient-25" x1="142.51" y1="289.16" x2="142.51" y2="235.16" xlink:href="#linear-gradient-6"/>
    <linearGradient id="linear-gradient-26" x1="143.32" y1="240.36" x2="150.66" y2="240.36" xlink:href="#linear-gradient-7"/>
    <linearGradient id="linear-gradient-27" x1="129.17" y1="245.55" x2="136.51" y2="245.55" xlink:href="#linear-gradient-7"/>
    <linearGradient id="linear-gradient-28" x1="148.33" y1="250.74" x2="155.68" y2="250.74" xlink:href="#linear-gradient-7"/>
    <linearGradient id="linear-gradient-29" x1="148.33" y1="250.42" x2="155.27" y2="250.42" xlink:href="#linear-gradient-7"/>
    <linearGradient id="linear-gradient-30" x1="120.57" y1="255.49" x2="127.92" y2="255.49" xlink:href="#linear-gradient-7"/>
    <linearGradient id="linear-gradient-31" x1="120.57" y1="254.88" x2="127.86" y2="254.88" xlink:href="#linear-gradient-7"/>
    <linearGradient id="linear-gradient-32" x1="136.15" y1="265.52" x2="143.5" y2="265.52" xlink:href="#linear-gradient-7"/>
    <linearGradient id="linear-gradient-33" x1="136.15" y1="264.79" x2="143.47" y2="264.79" xlink:href="#linear-gradient-7"/>
    <linearGradient id="linear-gradient-34" x1="130.24" y1="258.53" x2="134.01" y2="258.53" xlink:href="#linear-gradient-7"/>
    <linearGradient id="linear-gradient-35" x1="119.5" y1="266.24" x2="123.26" y2="266.24" xlink:href="#linear-gradient-7"/>
    <linearGradient id="linear-gradient-36" x1="159.62" y1="273.04" x2="163.38" y2="273.04" xlink:href="#linear-gradient-7"/>
    <linearGradient id="linear-gradient-37" x1="138.66" y1="238.12" x2="142.42" y2="238.12" xlink:href="#linear-gradient-7"/>
    <linearGradient id="linear-gradient-38" x1="130.42" y1="248.68" x2="134.18" y2="248.68" xlink:href="#linear-gradient-7"/>
    <linearGradient id="linear-gradient-39" x1="158" y1="245.1" x2="161.77" y2="245.1" xlink:href="#linear-gradient-7"/>
    <linearGradient id="linear-gradient-40" x1="148.24" y1="282.53" x2="155.59" y2="282.53" xlink:href="#linear-gradient-7"/>
    <linearGradient id="linear-gradient-41" x1="141.53" y1="280.03" x2="145.29" y2="280.03" xlink:href="#linear-gradient-7"/>
    <linearGradient id="linear-gradient-42" x1="133.47" y1="283.61" x2="137.23" y2="283.61" xlink:href="#linear-gradient-7"/>
    <linearGradient id="linear-gradient-43" x1="115.65" y1="261.22" x2="169.38" y2="261.22" xlink:href="#linear-gradient-24"/>
    <radialGradient id="radial-gradient" cx="144.1" cy="240.9" fx="144.1" fy="240.9" r="52.19" gradientTransform="translate(300.9 -101.12) rotate(90)" gradientUnits="userSpaceOnUse">
      <stop offset="0" stop-color="#000"/>
      <stop offset=".17" stop-color="#030303"/>
      <stop offset=".3" stop-color="#0c0c0c"/>
      <stop offset=".42" stop-color="#1d1d1d"/>
      <stop offset=".53" stop-color="#343434"/>
      <stop offset=".64" stop-color="#515151"/>
      <stop offset=".74" stop-color="#767676"/>
      <stop offset=".84" stop-color="#a2a2a2"/>
      <stop offset=".93" stop-color="#d3d3d3"/>
      <stop offset="1" stop-color="#fff"/>
    </radialGradient>
    <linearGradient id="White_Black" data-name="White, Black" x1="118.69" y1="276.78" x2="141.43" y2="242.04" gradientTransform="translate(300.9 -101.12) rotate(90)" gradientUnits="userSpaceOnUse">
      <stop offset="0" stop-color="#fff"/>
      <stop offset="1" stop-color="#000"/>
    </linearGradient>
    <linearGradient id="White_Black-2" data-name="White, Black" x1="129.87" y1="284.29" x2="152.47" y2="249.78" xlink:href="#White_Black"/>
    <linearGradient id="linear-gradient-44" x1="120.71" y1="213.5" x2="130.69" y2="198.25" gradientTransform="translate(300.9 -101.12) rotate(90)" gradientUnits="userSpaceOnUse">
      <stop offset="0" stop-color="#000"/>
      <stop offset="1" stop-color="#fff"/>
    </linearGradient>
    <linearGradient id="linear-gradient-45" x1="147.72" y1="233.85" x2="164.06" y2="267.82" gradientTransform="translate(300.9 -101.12) rotate(90)" gradientUnits="userSpaceOnUse">
      <stop offset="0" stop-color="#000"/>
      <stop offset=".09" stop-color="#202020"/>
      <stop offset=".28" stop-color="#636363"/>
      <stop offset=".46" stop-color="#9a9a9a"/>
      <stop offset=".63" stop-color="#c6c6c6"/>
      <stop offset=".78" stop-color="#e5e5e5"/>
      <stop offset=".91" stop-color="#f8f8f8"/>
      <stop offset="1" stop-color="#fff"/>
    </linearGradient>
    <linearGradient id="linear-gradient-46" x1="101.12" y1="236.25" x2="136.49" y2="236.25" gradientTransform="translate(300.9 -101.12) rotate(90)" gradientUnits="userSpaceOnUse">
      <stop offset="0" stop-color="#fff"/>
      <stop offset=".19" stop-color="#fcfcfc"/>
      <stop offset=".33" stop-color="#f3f3f3"/>
      <stop offset=".44" stop-color="#e3e3e3"/>
      <stop offset=".55" stop-color="#cdcdcd"/>
      <stop offset=".65" stop-color="#b1b1b1"/>
      <stop offset=".74" stop-color="#8e8e8e"/>
      <stop offset=".83" stop-color="#656565"/>
      <stop offset=".92" stop-color="#363636"/>
      <stop offset="1" stop-color="#020202"/>
      <stop offset="1" stop-color="#000"/>
    </linearGradient>
    <linearGradient id="linear-gradient-47" x1="147.46" y1="211.82" x2="170.12" y2="177.2" gradientTransform="translate(300.9 -101.12) rotate(90)" gradientUnits="userSpaceOnUse">
      <stop offset="0" stop-color="#000"/>
      <stop offset=".06" stop-color="#1f1f1f"/>
      <stop offset=".16" stop-color="#535353"/>
      <stop offset=".26" stop-color="#818181"/>
      <stop offset=".37" stop-color="#a8a8a8"/>
      <stop offset=".48" stop-color="#c7c7c7"/>
      <stop offset=".59" stop-color="#e0e0e0"/>
      <stop offset=".71" stop-color="#f1f1f1"/>
      <stop offset=".84" stop-color="#fbfbfb"/>
      <stop offset="1" stop-color="#fff"/>
    </linearGradient>
    <linearGradient id="linear-gradient-48" x1="159.14" y1="237.56" x2="177.73" y2="201.34" gradientTransform="translate(300.9 -101.12) rotate(90)" gradientUnits="userSpaceOnUse">
      <stop offset="0" stop-color="#000"/>
      <stop offset=".05" stop-color="#303030"/>
      <stop offset=".1" stop-color="#5b5b5b"/>
      <stop offset=".15" stop-color="#828282"/>
      <stop offset=".21" stop-color="#a4a4a4"/>
      <stop offset=".28" stop-color="silver"/>
      <stop offset=".35" stop-color="#d7d7d7"/>
      <stop offset=".44" stop-color="#e9e9e9"/>
      <stop offset=".54" stop-color="#f5f5f5"/>
      <stop offset=".67" stop-color="#fcfcfc"/>
      <stop offset="1" stop-color="#fff"/>
    </linearGradient>
  </defs>
  <g class="cls-54">
    <g id="Layer_2" data-name="Layer 2">
      <g id="Layer_1-2" data-name="Layer 1">
        <g>
          <g>
            <path class="cls-58" d="M103.66,85.97H16.34c-9.03,0-16.34-7.32-16.34-16.34V16.34C0,7.32,7.32,0,16.34,0h87.31c9.03,0,16.34,7.32,16.34,16.34v53.28c0,2.47-.55,4.8-1.53,6.9-.86,1.85-2.05,3.5-3.5,4.89-2.94,2.83-6.92,4.56-11.32,4.56Z"/>
            <rect class="cls-41" x="1.03" y="1.07" width="117.93" height="83.82" rx="14.23" ry="14.23" transform="translate(120 85.97) rotate(180)"/>
            <rect class="cls-53" x="2.59" y="2.69" width="114.82" height="80.6" rx="12.75" ry="12.75" transform="translate(120 85.97) rotate(180)"/>
            <rect class="cls-56" x="12.93" y="13.43" width="94.14" height="59.1" rx="6.54" ry="6.54" transform="translate(120 85.97) rotate(180)"/>
            <rect class="cls-51" x="13.97" y="14.51" width="92.07" height="56.95" rx="5.56" ry="5.56" transform="translate(120 85.97) rotate(180)"/>
          </g>
          <path class="cls-43" d="M59.8,64.07c.29-.36.56-.73.83-1.1.16-.09.32-.19.48-.29,1.36,1.92,2.98,3.65,4.81,5.14,4.73,3.87,10.89,6.19,17.64,6.4-.08,0-.15.01-.23.01.4.02.8.03,1.21.03.91,0,1.8-.04,2.67-.11.26-.02.52-.06.78-.08.6-.06,1.2-.13,1.78-.22.31-.05.6-.11.9-.16.51-.1,1-.2,1.49-.33.34-.08.68-.17,1.02-.27.16-.05.32-.08.48-.13.27-.08.52-.19.79-.28.33-.11.65-.22.97-.34.56-.21,1.09-.45,1.62-.7.14-.07.3-.13.44-.2.04-.02.09-.04.13-.06.63-.31,1.22-.66,1.81-1.03.11-.07.21-.13.31-.2.57-.37,1.12-.75,1.65-1.17.05-.04.11-.08.17-.13.58-.46,1.13-.95,1.65-1.46.07-.07.14-.14.21-.22.46-.46.9-.95,1.33-1.46.07-.08.13-.15.2-.23.46-.57.89-1.16,1.29-1.78.05-.08.1-.17.15-.25.35-.54.67-1.11.97-1.69.07-.13.14-.25.2-.38.33-.66.63-1.34.91-2.04.03-.09.06-.18.1-.27.23-.62.44-1.26.63-1.92.05-.18.1-.35.15-.53.2-.75.37-1.51.51-2.29.01-.07.02-.15.03-.22.12-.72.21-1.46.29-2.21.02-.21.04-.43.06-.64.06-.83.11-1.67.11-2.54,0-.5-.01-1-.03-1.49,0-.17-.02-.34-.03-.51-.02-.32-.04-.64-.06-.96-.02-.21-.04-.41-.06-.61-.03-.28-.05-.56-.09-.83-.03-.22-.06-.45-.1-.67-.04-.25-.07-.5-.11-.75-.04-.24-.09-.47-.13-.7-.04-.23-.09-.46-.14-.69-.05-.24-.11-.48-.16-.72-.05-.22-.1-.43-.16-.65-.06-.24-.13-.48-.2-.72-.06-.2-.12-.41-.18-.61-.08-.24-.15-.49-.24-.73-.06-.19-.13-.38-.2-.57-.09-.24-.18-.48-.27-.72-.07-.18-.14-.37-.22-.55-.1-.24-.2-.48-.3-.71-.08-.18-.16-.35-.24-.52-.11-.23-.22-.47-.33-.69-.09-.17-.17-.34-.26-.51-.12-.22-.24-.45-.36-.67-.1-.17-.19-.34-.29-.51-.12-.21-.25-.42-.38-.62-.11-.18-.23-.35-.34-.53-.12-.19-.25-.37-.37-.56-.14-.2-.28-.39-.42-.58-.11-.15-.22-.31-.34-.46-.19-.24-.38-.48-.58-.71-.08-.09-.15-.19-.23-.28-.51-.59-1.04-1.15-1.6-1.69-.04-.04-.08-.08-.12-.12-.22-.21-.45-.42-.68-.62-.08-.07-.15-.14-.23-.2-.22-.19-.44-.36-.66-.54-.1-.08-.19-.16-.29-.23-.21-.16-.43-.32-.65-.48-.11-.08-.22-.16-.34-.24-.21-.15-.43-.29-.65-.43-.13-.08-.25-.16-.38-.24-.22-.13-.43-.26-.65-.39-.14-.08-.28-.16-.42-.23-.22-.12-.43-.23-.66-.34-.15-.08-.3-.15-.46-.22-.22-.1-.44-.2-.66-.3-.16-.07-.33-.14-.5-.21-.22-.09-.44-.18-.66-.26-.18-.07-.36-.13-.54-.19-.22-.08-.43-.15-.65-.22-.19-.06-.39-.12-.58-.17-.21-.06-.43-.13-.65-.18-.21-.05-.42-.1-.63-.15-.21-.05-.42-.1-.63-.14-.22-.05-.45-.09-.68-.13-.21-.04-.41-.08-.62-.11-.25-.04-.5-.07-.75-.1-.19-.02-.38-.05-.58-.07-.29-.03-.6-.05-.89-.07-.16-.01-.31-.03-.47-.03-.46-.02-.93-.04-1.4-.04-.33,0-.66.01-1,.02.06,0,.11,0,.17,0-6.41.17-12.33,2.22-17.04,5.72-.62.46-1.23.96-1.81,1.48-1.28,1.13-2.44,2.37-3.48,3.72-.02-.01-.05-.03-.05-.03l-.02.12c-.07.09-.13.18-.2.26-.02-.04-.05-.08-.07-.13-.1-.17-.19-.34-.29-.51-.12-.21-.25-.42-.38-.62-.11-.18-.23-.35-.34-.53-.12-.19-.25-.37-.37-.56-.14-.2-.28-.39-.42-.58-.11-.15-.22-.31-.34-.46-.19-.24-.38-.48-.58-.71-.08-.09-.15-.19-.23-.28-.51-.59-1.04-1.15-1.6-1.69-.04-.04-.08-.08-.12-.12-.22-.21-.45-.42-.68-.62-.08-.07-.15-.14-.23-.2-.22-.19-.44-.36-.66-.54-.1-.08-.19-.16-.29-.23-.21-.17-.43-.32-.65-.48-.11-.08-.22-.16-.34-.24-.21-.15-.43-.29-.65-.43-.13-.08-.25-.16-.38-.24-.22-.13-.43-.26-.65-.39-.14-.08-.28-.16-.42-.23-.22-.12-.43-.23-.66-.34-.15-.08-.3-.15-.46-.22-.22-.1-.44-.2-.66-.3-.16-.07-.33-.14-.5-.21-.22-.09-.44-.18-.66-.26-.18-.07-.36-.13-.54-.19-.22-.08-.43-.15-.65-.22-.19-.06-.39-.12-.58-.17-.21-.06-.43-.13-.65-.18-.21-.05-.42-.1-.63-.15-.21-.05-.42-.1-.63-.14-.22-.05-.45-.09-.68-.13-.21-.04-.41-.08-.62-.11-.25-.04-.5-.07-.75-.1-.19-.02-.38-.05-.58-.07-.29-.03-.6-.05-.89-.07-.16-.01-.31-.03-.47-.03-.46-.02-.93-.04-1.4-.04-.33,0-.66.01-1,.02.06,0,.11,0,.17,0-6.41.17-12.33,2.22-17.04,5.72-.62.46-1.23.96-1.81,1.48-5.42,4.77-8.81,11.64-8.81,19.63,0,8.45,3.71,15.62,9.59,20.43,4.73,3.87,10.89,6.19,17.64,6.4-.08,0-.15.01-.23.01.4.02.8.03,1.21.03.91,0,1.8-.04,2.67-.11.26-.02.52-.06.78-.08.6-.06,1.2-.13,1.78-.22.31-.05.6-.11.9-.16.51-.1,1-.2,1.49-.33.34-.08.68-.17,1.02-.27.16-.05.32-.08.48-.13.27-.08.52-.19.79-.28.33-.11.65-.22.97-.34.56-.21,1.09-.45,1.62-.7.14-.07.3-.13.44-.2.04-.02.09-.04.13-.06.63-.31,1.22-.66,1.81-1.03.11-.07.21-.13.31-.2.57-.37,1.12-.75,1.65-1.17.05-.04.11-.08.17-.13.58-.46,1.13-.95,1.65-1.46.07-.07.14-.14.21-.22.46-.46.9-.95,1.33-1.46.07-.08.13-.15.2-.23Z"/>
          <g>
            <g>
              <path class="cls-55" d="M85.08,69.69c-7.14,0-13.66-2.37-18.62-6.44-5.88-4.8-9.59-11.98-9.59-20.43,0-7.99,3.4-14.86,8.81-19.63.58-.53,1.18-1.02,1.81-1.48,4.91-3.64,11.13-5.75,17.86-5.75,7.35,0,13.44,2.82,17.83,7.41,4.92,5.15,7.69,12.56,7.69,20.79,0,10.63-4.75,18.64-12.72,22.65-1.24.62-2.56,1.14-3.94,1.57-2.77.86-5.82,1.3-9.12,1.3Z"/>
              <path class="cls-1" d="M108.99,44.17c0,15.35-9.92,25.21-25.12,25.49.4.02.8.03,1.21.03,15.58,0,25.79-9.94,25.79-25.52s-9.94-28.21-25.52-28.21c-.33,0-.66.01-1,.02,15.07.47,24.64,12.91,24.64,28.19Z"/>
              <path class="cls-24" d="M105.68,50.98c-1.29,0-2.33-1.64-2.33-3.67s1.04-3.67,2.33-3.67,2.33,1.64,2.33,3.67-1.04,3.67-2.33,3.67Z"/>
              <path class="cls-14" d="M100.48,36.83c-1.29,0-2.33-1.64-2.33-3.67s1.04-3.67,2.33-3.67,2.33,1.64,2.33,3.67-1.04,3.67-2.33,3.67Z"/>
              <ellipse class="cls-1" cx="104.96" cy="37.1" rx="1.87" ry="2.96"/>
              <path class="cls-1" d="M97.98,27.43c-1.04,0-2.51-1.32-2.51-2.96s1.47-2.96,2.51-2.96,1.87,1.32,1.87,2.96-.84,2.96-1.87,2.96Z"/>
              <ellipse class="cls-1" cx="102.45" cy="54.02" rx="1.87" ry="2.96"/>
              <path class="cls-1" d="M99.59,44.8c-1.04,0-2.15-1.32-2.15-2.96s1.11-2.96,2.15-2.96,1.87,1.32,1.87,2.96-.84,2.96-1.87,2.96Z"/>
              <ellipse class="cls-1" cx="85.44" cy="20.89" rx="1.87" ry="2.96"/>
              <ellipse class="cls-1" cx="87.23" cy="45.6" rx="1.87" ry="2.96"/>
              <path class="cls-1" d="M81.86,33.69c-1.04,0-1.87-1.32-1.87-2.96s.84-2.96,1.87-2.96,2.87,1.5,2.87,3.13-1.83,2.78-2.87,2.78Z"/>
              <ellipse class="cls-1" cx="81.14" cy="55.46" rx="1.87" ry="2.96"/>
              <ellipse class="cls-1" cx="86.61" cy="64.77" rx="1.87" ry="2.96"/>
              <path class="cls-45" d="M92.44,33.02c-.78,0-1.42-1-1.42-2.24s.64-2.24,1.42-2.24,2.03,1.27,2.03,2.51-1.25,1.97-2.03,1.97Z"/>
              <path class="cls-45" d="M77.8,46.19c-.78,0-1.42-1-1.42-2.24s.64-2.24,1.42-2.24,2.03,1.27,2.03,2.51-1.25,1.97-2.03,1.97Z"/>
              <path class="cls-45" d="M67.95,25.44c.48.14.69.87.46,1.63-.23.76-.8,1.26-1.28,1.11-.48-.14-1.01-1.15-.79-1.91.23-.76,1.12-.98,1.61-.83Z"/>
              <path class="cls-45" d="M67.21,57.82c.5-.07.99.51,1.1,1.29.11.78-.2,1.48-.69,1.55s-1.4-.62-1.52-1.4c-.11-.78.61-1.36,1.11-1.43Z"/>
              <path class="cls-45" d="M90.99,62.9c.5-.07.99.51,1.1,1.29s-.2,1.48-.69,1.55c-.5.07-1.4-.62-1.52-1.4-.11-.78.61-1.36,1.11-1.43Z"/>
              <path class="cls-45" d="M82.53,47.78c.29-.04.59.3.65.76.07.46-.12.87-.41.91-.29.04-.83-.37-.9-.83-.07-.46.36-.8.65-.85Z"/>
              <path class="cls-45" d="M76.08,31.65c.29-.04.59.3.65.76.07.46-.12.87-.41.91-.29.04-.83-.37-.9-.83-.07-.46.36-.8.65-.85Z"/>
              <path class="cls-45" d="M91.82,45.96c.29-.04.59.3.65.76.07.46-.12.87-.41.91-.29.04-.83-.37-.9-.83-.07-.46.36-.8.65-.85Z"/>
              <path class="cls-45" d="M89,17.35c.29-.04.59.3.65.76.07.46-.12.87-.41.91-.29.04-.83-.37-.9-.83-.07-.46.36-.8.65-.85Z"/>
              <path class="cls-45" d="M100.39,46.78c.5-.07.99.51,1.1,1.29s-.2,1.48-.69,1.55c-.5.07-1.4-.62-1.52-1.4-.11-.78.61-1.36,1.11-1.43Z"/>
              <path class="cls-45" d="M105.36,29.19c.5-.07.99.51,1.1,1.29s-.2,1.48-.69,1.55c-.5.07-1.4-.62-1.52-1.4-.11-.78.61-1.36,1.11-1.43Z"/>
              <ellipse class="cls-1" cx="69.06" cy="54.56" rx="1.87" ry="2.96"/>
              <ellipse class="cls-1" cx="71.2" cy="35.75" rx="1.87" ry="2.96"/>
              <path class="cls-1" d="M62.79,44.44c-1.04,0-1.87-1.32-1.87-2.96s.84-2.96,1.87-2.96,1.87,1.32,1.87,2.96-.84,2.96-1.87,2.96Z"/>
              <path class="cls-1" d="M75.33,50.89c-1.03,0-1.87-1.32-1.87-2.96s.84-2.96,1.87-2.96,2.77,1.5,2.77,3.13-1.73,2.78-2.77,2.78Z"/>
              <path class="cls-8" d="M95.83,55.99c-1.29,0-3.4-1.73-3.4-3.76s2.12-3.58,3.4-3.58,2.33,1.64,2.33,3.67-1.04,3.67-2.33,3.67Z"/>
              <path class="cls-15" d="M95.2,49.37c1.29,0,2.33,1.64,2.33,3.67,0,.99-.25,1.89-.66,2.55.76-.61,1.28-1.83,1.28-3.26,0-2.03-1.04-3.67-2.33-3.67-.84,0-2.03.68-2.76,1.71.68-.62,1.51-.99,2.13-.99Z"/>
              <path class="cls-18" d="M90.1,28.23c-1.29,0-2.33-1.64-2.33-3.67s1.04-3.67,2.33-3.67,3.22,1.55,3.22,3.58-1.94,3.76-3.22,3.76Z"/>
              <path class="cls-11" d="M89.11,21.34c1.29,0,3.22,1.55,3.22,3.58,0,1.38-.89,2.6-1.87,3.26,1.26-.28,2.85-1.86,2.85-3.7,0-2.03-1.94-3.58-3.22-3.58-.41,0-.78.18-1.12.47.04,0,.09-.02.13-.02Z"/>
              <path class="cls-13" d="M80.07,43.81c-1.29,0-2.33-1.64-2.33-3.67s1.04-3.67,2.33-3.67,3.22,1.73,3.22,3.76-1.94,3.58-3.22,3.58Z"/>
              <path class="cls-2" d="M82.4,40.5c0,1.51-1.07,2.75-2.14,3.29,1.28-.13,3.04-1.62,3.04-3.56s-1.94-3.76-3.22-3.76c-.31,0-.6.1-.87.27,1.29.02,3.2,1.74,3.2,3.76Z"/>
              <path class="cls-26" d="M87.27,34.32c-.66,0-1.19-.84-1.19-1.88s.53-1.88,1.19-1.88,1.65.89,1.65,1.93-.99,1.83-1.65,1.83Z"/>
              <path class="cls-25" d="M79.57,23.58c-.66,0-1.19-.84-1.19-1.88s.53-1.88,1.19-1.88,1.65.89,1.65,1.93-.99,1.83-1.65,1.83Z"/>
              <path class="cls-27" d="M72.76,63.69c-.66,0-1.19-.84-1.19-1.88s.53-1.88,1.19-1.88,1.65.89,1.65,1.93-.99,1.83-1.65,1.83Z"/>
              <path class="cls-28" d="M107.69,42.74c-.66,0-1.19-.84-1.19-1.88s.53-1.88,1.19-1.88,1.65.89,1.65,1.93-.99,1.83-1.65,1.83Z"/>
              <path class="cls-32" d="M97.12,34.5c-.66,0-1.19-.84-1.19-1.88s.53-1.88,1.19-1.88,1.65.89,1.65,1.93-.99,1.83-1.65,1.83Z"/>
              <path class="cls-35" d="M100.7,62.08c-.66,0-1.19-.84-1.19-1.88s.53-1.88,1.19-1.88,1.65.89,1.65,1.93-.99,1.83-1.65,1.83Z"/>
              <path class="cls-4" d="M63.77,55.9c-1.29,0-2.87-1.64-2.87-3.67s1.58-3.67,2.87-3.67,2.33,1.64,2.33,3.67-1.04,3.67-2.33,3.67Z"/>
              <path class="cls-59" d="M88.31,60.65c-1.29,0-3.22-1.55-3.22-3.58s1.94-3.76,3.22-3.76,2.33,1.64,2.33,3.67-1.04,3.67-2.33,3.67Z"/>
              <path class="cls-59" d="M68.6,47.75c-1.29,0-2.33-1.64-2.33-3.67s1.04-3.67,2.33-3.67,3.22,1.55,3.22,3.58-1.94,3.76-3.22,3.76Z"/>
              <path class="cls-59" d="M63.59,37.19c-1.29,0-2.33-1.64-2.33-3.67s1.04-3.67,2.33-3.67,2.33,1.64,2.33,3.67-1.04,3.67-2.33,3.67Z"/>
              <path class="cls-59" d="M73.8,30.02c-1.29,0-2.33-1.64-2.33-3.67s1.04-3.67,2.33-3.67,2.33,1.64,2.33,3.67-1.04,3.67-2.33,3.67Z"/>
              <path class="cls-59" d="M74.16,59.57c-1.29,0-2.33-1.64-2.33-3.67s1.04-3.67,2.33-3.67,3.4,2.09,3.4,4.12-2.12,3.22-3.4,3.22Z"/>
              <path class="cls-59" d="M91.17,43.28c-1.1,0-1.99-1.4-1.99-3.13s.89-3.13,1.99-3.13,2.87,1.31,2.87,3.04-1.77,3.22-2.87,3.22Z"/>
              <path class="cls-59" d="M94.93,66.92c-1.1,0-1.99-1.4-1.99-3.13s.89-3.13,1.99-3.13,3.22,1.13,3.22,2.87-2.13,3.4-3.22,3.4Z"/>
              <path class="cls-59" d="M80.25,67.99c-1.1,0-1.99-1.4-1.99-3.13s.89-3.13,1.99-3.13,1.99,1.4,1.99,3.13-.89,3.13-1.99,3.13Z"/>
              <path class="cls-40" d="M65.78,45.6c-.66,0-1.19-.84-1.19-1.88s.53-1.88,1.19-1.88,1.65.89,1.65,1.93-.99,1.83-1.65,1.83Z"/>
              <path class="cls-30" d="M62.2,37.55c-.66,0-1.19-.84-1.19-1.88s.53-1.88,1.19-1.88,1.65.89,1.65,1.93-.99,1.83-1.65,1.83Z"/>
              <path class="cls-49" d="M85.08,69.69c-7.14,0-13.66-2.37-18.62-6.44.66-2.62,1.52-5.21,2.39-7.76,2.03-5.91,4.23-11.9,4.45-18.14.2-5.74-1.57-11.87-5.8-15.65,4.91-3.64,11.13-5.75,17.86-5.75,7.35,0,13.44,2.82,17.83,7.41-1.04,5.25-2.97,10.33-5.68,14.94-3.59,6.08-8.75,12.13-8.01,19.15.42,3.99,2.7,7.41,4.72,10.93-2.77.86-5.82,1.3-9.12,1.3Z"/>
              <path class="cls-57" d="M85.08,69.69c-7.14,0-13.66-2.37-18.62-6.44-5.88-4.8-9.59-11.98-9.59-20.43,0-7.99,3.4-14.86,8.81-19.63-9.26,37.2,19.83,42.98,32.46,43.63-1.24.62-2.56,1.14-3.94,1.57-2.77.86-5.82,1.3-9.12,1.3Z"/>
            </g>
            <path class="cls-42" d="M62.16,26.89s8.06,3.95,7.7,16.91c-.36,12.97-12.64,16.4-12.64,16.4l4.94-33.31Z"/>
            <g>
              <path class="cls-44" d="M39.95,68.26c-7.14,0-13.66-2.37-18.62-6.44-5.88-4.8-9.59-11.98-9.59-20.43,0-7.99,3.4-14.86,8.81-19.63.58-.53,1.18-1.02,1.81-1.48,4.91-3.64,11.13-5.75,17.86-5.75,7.35,0,13.44,2.82,17.83,7.41,4.92,5.15,7.69,12.56,7.69,20.79,0,10.63-4.75,18.64-12.72,22.65-1.24.62-2.56,1.14-3.94,1.57-2.77.86-5.82,1.3-9.12,1.3Z"/>
              <path class="cls-1" d="M63.86,42.74c0,15.35-9.92,25.21-25.12,25.49.4.02.8.03,1.21.03,15.58,0,25.79-9.94,25.79-25.52s-9.94-28.21-25.52-28.21c-.33,0-.66.01-1,.02,15.07.47,24.64,12.91,24.64,28.19Z"/>
              <path class="cls-3" d="M60.55,49.55c-1.29,0-2.33-1.64-2.33-3.67s1.04-3.67,2.33-3.67,2.33,1.64,2.33,3.67-1.04,3.67-2.33,3.67Z"/>
              <path class="cls-10" d="M55.35,35.4c-1.29,0-2.33-1.64-2.33-3.67s1.04-3.67,2.33-3.67,2.33,1.64,2.33,3.67-1.04,3.67-2.33,3.67Z"/>
              <ellipse class="cls-1" cx="59.83" cy="35.66" rx="1.87" ry="2.96"/>
              <path class="cls-1" d="M52.84,25.99c-1.04,0-2.51-1.32-2.51-2.96s1.47-2.96,2.51-2.96,1.87,1.32,1.87,2.96-.84,2.96-1.87,2.96Z"/>
              <ellipse class="cls-1" cx="57.32" cy="52.59" rx="1.87" ry="2.96"/>
              <path class="cls-1" d="M54.46,43.37c-1.04,0-2.15-1.32-2.15-2.96s1.11-2.96,2.15-2.96,1.87,1.32,1.87,2.96-.84,2.96-1.87,2.96Z"/>
              <ellipse class="cls-1" cx="40.31" cy="19.46" rx="1.87" ry="2.96"/>
              <ellipse class="cls-1" cx="42.1" cy="44.17" rx="1.87" ry="2.96"/>
              <path class="cls-1" d="M36.73,32.26c-1.04,0-1.87-1.32-1.87-2.96s.84-2.96,1.87-2.96,2.87,1.5,2.87,3.13-1.83,2.78-2.87,2.78Z"/>
              <ellipse class="cls-1" cx="36.01" cy="54.02" rx="1.87" ry="2.96"/>
              <ellipse class="cls-1" cx="41.48" cy="63.34" rx="1.87" ry="2.96"/>
              <path class="cls-45" d="M47.31,31.59c-.78,0-1.42-1-1.42-2.24s.64-2.24,1.42-2.24,2.03,1.27,2.03,2.51-1.25,1.97-2.03,1.97Z"/>
              <path class="cls-45" d="M32.67,44.75c-.78,0-1.42-1-1.42-2.24s.64-2.24,1.42-2.24,2.03,1.27,2.03,2.51-1.25,1.97-2.03,1.97Z"/>
              <path class="cls-45" d="M22.82,24c.48.14.69.87.46,1.63-.23.76-.8,1.26-1.28,1.11-.48-.14-1.01-1.15-.79-1.91.23-.76,1.12-.98,1.61-.83Z"/>
              <path class="cls-45" d="M22.08,56.38c.5-.07.99.51,1.1,1.29.11.78-.2,1.48-.69,1.55s-1.4-.62-1.52-1.4c-.11-.78.61-1.36,1.11-1.43Z"/>
              <path class="cls-45" d="M45.85,61.47c.5-.07.99.51,1.1,1.29.11.78-.2,1.48-.69,1.55-.5.07-1.4-.62-1.52-1.4-.11-.78.61-1.36,1.11-1.43Z"/>
              <path class="cls-45" d="M37.4,46.35c.29-.04.59.3.65.76.07.46-.12.87-.41.91-.29.04-.83-.37-.9-.83-.07-.46.36-.8.65-.85Z"/>
              <path class="cls-45" d="M30.95,30.22c.29-.04.59.3.65.76.07.46-.12.87-.41.91-.29.04-.83-.37-.9-.83-.07-.46.36-.8.65-.85Z"/>
              <path class="cls-45" d="M46.68,44.53c.29-.04.59.3.65.76.07.46-.12.87-.41.91-.29.04-.83-.37-.9-.83-.07-.46.36-.8.65-.85Z"/>
              <path class="cls-45" d="M43.86,15.92c.29-.04.59.3.65.76.07.46-.12.87-.41.91-.29.04-.83-.37-.9-.83-.07-.46.36-.8.65-.85Z"/>
              <path class="cls-45" d="M55.26,45.35c.5-.07.99.51,1.1,1.29.11.78-.2,1.48-.69,1.55-.5.07-1.4-.62-1.52-1.4-.11-.78.61-1.36,1.11-1.43Z"/>
              <path class="cls-45" d="M60.23,27.75c.5-.07.99.51,1.1,1.29.11.78-.2,1.48-.69,1.55-.5.07-1.4-.62-1.52-1.4-.11-.78.61-1.36,1.11-1.43Z"/>
              <ellipse class="cls-1" cx="23.93" cy="53.13" rx="1.87" ry="2.96"/>
              <ellipse class="cls-1" cx="26.06" cy="34.32" rx="1.87" ry="2.96"/>
              <path class="cls-1" d="M17.66,43.01c-1.04,0-1.87-1.32-1.87-2.96s.84-2.96,1.87-2.96,1.87,1.32,1.87,2.96-.84,2.96-1.87,2.96Z"/>
              <path class="cls-1" d="M30.19,49.46c-1.03,0-1.87-1.32-1.87-2.96s.84-2.96,1.87-2.96,2.77,1.5,2.77,3.13-1.73,2.78-2.77,2.78Z"/>
              <path class="cls-22" d="M50.69,54.56c-1.29,0-3.4-1.73-3.4-3.76s2.12-3.58,3.4-3.58,2.33,1.64,2.33,3.67-1.04,3.67-2.33,3.67Z"/>
              <path class="cls-17" d="M50.07,47.93c1.29,0,2.33,1.64,2.33,3.67,0,.99-.25,1.89-.66,2.55.76-.61,1.28-1.83,1.28-3.26,0-2.03-1.04-3.67-2.33-3.67-.84,0-2.03.68-2.76,1.71.68-.62,1.51-.99,2.13-.99Z"/>
              <path class="cls-16" d="M44.96,26.8c-1.29,0-2.33-1.64-2.33-3.67s1.04-3.67,2.33-3.67,3.22,1.55,3.22,3.58-1.94,3.76-3.22,3.76Z"/>
              <path class="cls-7" d="M43.98,19.9c1.29,0,3.22,1.55,3.22,3.58,0,1.38-.89,2.6-1.87,3.26,1.26-.28,2.85-1.86,2.85-3.7,0-2.03-1.94-3.58-3.22-3.58-.41,0-.78.18-1.12.47.04,0,.09-.02.13-.02Z"/>
              <path class="cls-5" d="M34.93,42.38c-1.29,0-2.33-1.64-2.33-3.67s1.04-3.67,2.33-3.67,3.22,1.73,3.22,3.76-1.94,3.58-3.22,3.58Z"/>
              <path class="cls-21" d="M37.26,39.07c0,1.51-1.07,2.75-2.14,3.29,1.28-.13,3.04-1.62,3.04-3.56s-1.94-3.76-3.22-3.76c-.31,0-.6.1-.87.27,1.29.02,3.2,1.74,3.2,3.76Z"/>
              <path class="cls-39" d="M42.14,32.89c-.66,0-1.19-.84-1.19-1.88s.53-1.88,1.19-1.88,1.65.89,1.65,1.93-.99,1.83-1.65,1.83Z"/>
              <path class="cls-36" d="M34.44,22.14c-.66,0-1.19-.84-1.19-1.88s.53-1.88,1.19-1.88,1.65.89,1.65,1.93-.99,1.83-1.65,1.83Z"/>
              <path class="cls-38" d="M27.63,62.26c-.66,0-1.19-.84-1.19-1.88s.53-1.88,1.19-1.88,1.65.89,1.65,1.93-.99,1.83-1.65,1.83Z"/>
              <path class="cls-34" d="M62.55,41.31c-.66,0-1.19-.84-1.19-1.88s.53-1.88,1.19-1.88,1.65.89,1.65,1.93-.99,1.83-1.65,1.83Z"/>
              <path class="cls-31" d="M51.99,33.07c-.66,0-1.19-.84-1.19-1.88s.53-1.88,1.19-1.88,1.65.89,1.65,1.93-.99,1.83-1.65,1.83Z"/>
              <path class="cls-33" d="M55.57,60.65c-.66,0-1.19-.84-1.19-1.88s.53-1.88,1.19-1.88,1.65.89,1.65,1.93-.99,1.83-1.65,1.83Z"/>
              <path class="cls-6" d="M18.64,54.47c-1.29,0-2.87-1.64-2.87-3.67s1.58-3.67,2.87-3.67,2.33,1.64,2.33,3.67-1.04,3.67-2.33,3.67Z"/>
              <path class="cls-59" d="M43.17,59.22c-1.29,0-3.22-1.55-3.22-3.58s1.94-3.76,3.22-3.76,2.33,1.64,2.33,3.67-1.04,3.67-2.33,3.67Z"/>
              <path class="cls-59" d="M23.47,46.32c-1.29,0-2.33-1.64-2.33-3.67s1.04-3.67,2.33-3.67,3.22,1.55,3.22,3.58-1.94,3.76-3.22,3.76Z"/>
              <path class="cls-59" d="M18.46,35.75c-1.29,0-2.33-1.64-2.33-3.67s1.04-3.67,2.33-3.67,2.33,1.64,2.33,3.67-1.04,3.67-2.33,3.67Z"/>
              <path class="cls-59" d="M28.67,28.59c-1.29,0-2.33-1.64-2.33-3.67s1.04-3.67,2.33-3.67,2.33,1.64,2.33,3.67-1.04,3.67-2.33,3.67Z"/>
              <path class="cls-59" d="M29.02,58.14c-1.29,0-2.33-1.64-2.33-3.67s1.04-3.67,2.33-3.67,3.4,2.09,3.4,4.12-2.12,3.22-3.4,3.22Z"/>
              <path class="cls-59" d="M46.04,41.84c-1.1,0-1.99-1.4-1.99-3.13s.89-3.13,1.99-3.13,2.87,1.31,2.87,3.04-1.77,3.22-2.87,3.22Z"/>
              <path class="cls-59" d="M49.8,65.48c-1.1,0-1.99-1.4-1.99-3.13s.89-3.13,1.99-3.13,3.22,1.13,3.22,2.87-2.13,3.4-3.22,3.4Z"/>
              <path class="cls-59" d="M35.11,66.56c-1.1,0-1.99-1.4-1.99-3.13s.89-3.13,1.99-3.13,1.99,1.4,1.99,3.13-.89,3.13-1.99,3.13Z"/>
              <path class="cls-37" d="M20.65,44.17c-.66,0-1.19-.84-1.19-1.88s.53-1.88,1.19-1.88,1.65.89,1.65,1.93-.99,1.83-1.65,1.83Z"/>
              <path class="cls-29" d="M17.06,36.11c-.66,0-1.19-.84-1.19-1.88s.53-1.88,1.19-1.88,1.65.89,1.65,1.93-.99,1.83-1.65,1.83Z"/>
              <path class="cls-50" d="M39.95,68.26c-7.14,0-13.66-2.37-18.62-6.44.66-2.62,1.52-5.21,2.39-7.76,2.03-5.91,4.23-11.9,4.45-18.14.2-5.74-1.57-11.87-5.8-15.65,4.91-3.64,11.13-5.75,17.86-5.75,7.35,0,13.44,2.82,17.83,7.41-1.04,5.25-2.97,10.33-5.68,14.94-3.59,6.08-8.75,12.13-8.01,19.15.42,3.99,2.7,7.41,4.72,10.93-2.77.86-5.82,1.3-9.12,1.3Z"/>
              <path class="cls-57" d="M39.95,68.26c-7.14,0-13.66-2.37-18.62-6.44-5.88-4.8-9.59-11.98-9.59-20.43,0-7.99,3.4-14.86,8.81-19.63-9.26,37.2,19.83,42.98,32.46,43.63-1.24.62-2.56,1.14-3.94,1.57-2.77.86-5.82,1.3-9.12,1.3Z"/>
            </g>
            <path class="cls-52" d="M29.7,16.41s27.94-8.78,33.67,20.06c0,0,1.25,11.1-3.22,17.37,0,0,11.1-38.51-30.45-37.43Z"/>
            <path class="cls-52" d="M78.37,17.53s27.27-2.82,31.3,21.76c.89,5.4-.67,15.04-6.98,20.55,0,0,19.88-36.13-24.31-42.31Z"/>
          </g>
          <g>
            <path class="cls-46" d="M103.66,85.97H16.34c-3.94,0-7.55-1.4-10.37-3.72-2.04-1.68-3.66-3.83-4.7-6.3-.83-1.95-1.28-4.08-1.28-6.33V16.34C0,7.32,7.32,0,16.34,0h87.31c9.03,0,16.34,7.32,16.34,16.34v53.28c0,2.47-.55,4.8-1.53,6.9-.86,1.85-2.05,3.5-3.5,4.89-2.94,2.83-6.92,4.56-11.32,4.56Z"/>
            <g>
              <polygon class="cls-23" points="5.1 5.91 54.09 26.15 53.73 48 5.1 5.91"/>
              <polygon class="cls-12" points="4.57 6.72 49.59 53.53 42.98 60.18 4.57 6.72"/>
              <polygon class="cls-19" points="115.79 5.64 66.89 33.04 75.49 44.33 117.13 7.39 115.79 5.64"/>
              <path class="cls-20" d="M5.97,82.25c-2.04-1.68-3.66-3.83-4.7-6.3,14-8.34,57.82-37.98,57.82-37.98l7.88,21.13L5.97,82.25Z"/>
              <polygon class="cls-48" points="72.18 34.03 57.13 35.37 58.5 0 64.13 0 72.18 34.03"/>
              <path class="cls-47" d="M114.97,81.41l-40.82-29.11,4.66-30.81,39.67,55.03c-.86,1.85-2.05,3.5-3.5,4.89Z"/>
              <polygon class="cls-9" points="113.91 82.48 53.46 60.71 62.2 49.67 113.91 82.48"/>
            </g>
          </g>
        </g>
      </g>
    </g>
  </g>
</svg>