<?xml version="1.0" encoding="UTF-8"?>
<svg xmlns="http://www.w3.org/2000/svg" xmlns:xlink="http://www.w3.org/1999/xlink" viewBox="0 0 120 85.97">
  <defs>
    <style>
      .cls-1 {
        fill: url(#linear-gradient-15);
      }

      .cls-2 {
        fill: url(#linear-gradient-13);
      }

      .cls-3 {
        fill: url(#linear-gradient-2);
      }

      .cls-4 {
        fill: url(#linear-gradient-10);
      }

      .cls-5 {
        fill: url(#linear-gradient-12);
      }

      .cls-6 {
        fill: url(#linear-gradient-29);
      }

      .cls-6, .cls-7, .cls-8, .cls-9, .cls-10, .cls-11, .cls-12, .cls-13, .cls-14 {
        mix-blend-mode: screen;
      }

      .cls-6, .cls-11 {
        opacity: .35;
      }

      .cls-7 {
        fill: url(#linear-gradient-24);
      }

      .cls-7, .cls-8, .cls-10 {
        opacity: .15;
      }

      .cls-8 {
        fill: url(#linear-gradient-26);
      }

      .cls-15 {
        fill: url(#linear-gradient-4);
      }

      .cls-16 {
        fill: url(#linear-gradient-3);
      }

      .cls-17 {
        fill: url(#linear-gradient-22);
      }

      .cls-9 {
        fill: url(#White_Black-2);
      }

      .cls-9, .cls-18, .cls-19, .cls-12, .cls-14 {
        opacity: .5;
      }

      .cls-20 {
        isolation: isolate;
      }

      .cls-18 {
        fill: url(#linear-gradient-31);
      }

      .cls-18, .cls-19 {
        mix-blend-mode: lighten;
      }

      .cls-21 {
        fill: url(#linear-gradient-8);
      }

      .cls-10 {
        fill: url(#linear-gradient-25);
      }

      .cls-22 {
        fill: url(#linear-gradient-14);
      }

      .cls-23 {
        fill: url(#linear-gradient-20);
      }

      .cls-24 {
        fill: url(#linear-gradient-5);
        mix-blend-mode: multiply;
      }

      .cls-25 {
        fill: url(#linear-gradient-17);
      }

      .cls-26 {
        fill: url(#linear-gradient-7);
      }

      .cls-27 {
        fill: url(#linear-gradient-9);
      }

      .cls-11 {
        fill: url(#radial-gradient);
      }

      .cls-28 {
        fill: url(#linear-gradient-11);
      }

      .cls-29 {
        fill: url(#linear-gradient-19);
      }

      .cls-30 {
        fill: url(#linear-gradient-6);
      }

      .cls-19 {
        fill: url(#linear-gradient-28);
      }

      .cls-31 {
        fill: #f4f4f4;
      }

      .cls-32 {
        fill: url(#linear-gradient-21);
      }

      .cls-12 {
        fill: url(#linear-gradient-27);
      }

      .cls-13 {
        fill: url(#linear-gradient-30);
        opacity: .85;
      }

      .cls-14 {
        fill: url(#White_Black);
      }

      .cls-33 {
        fill: url(#linear-gradient-16);
      }

      .cls-34 {
        fill: url(#linear-gradient);
      }

      .cls-35 {
        fill: url(#linear-gradient-23);
      }

      .cls-36 {
        fill: url(#linear-gradient-18);
      }
    </style>
    <linearGradient id="linear-gradient" x1="203.31" y1="368.97" x2="203.31" y2="248.97" gradientTransform="translate(-248.97 246.3) rotate(-90)" gradientUnits="userSpaceOnUse">
      <stop offset="0" stop-color="#e3e4e6"/>
      <stop offset="1" stop-color="#cacccb"/>
    </linearGradient>
    <linearGradient id="linear-gradient-2" x1="203.31" y1="367.94" x2="203.31" y2="250.01" gradientTransform="translate(-248.97 246.3) rotate(-90)" gradientUnits="userSpaceOnUse">
      <stop offset="0" stop-color="#fff"/>
      <stop offset=".99" stop-color="#f4f4f4"/>
    </linearGradient>
    <linearGradient id="linear-gradient-3" x1="235.92" y1="365.44" x2="170.71" y2="252.51" gradientTransform="translate(-248.97 246.3) rotate(-90)" gradientUnits="userSpaceOnUse">
      <stop offset="0" stop-color="#f4f4f4"/>
      <stop offset="1" stop-color="#cacccb"/>
    </linearGradient>
    <linearGradient id="linear-gradient-4" x1="203.31" y1="355.01" x2="203.31" y2="262.94" gradientTransform="translate(-248.97 246.3) rotate(-90)" gradientUnits="userSpaceOnUse">
      <stop offset="0" stop-color="#f4f4f4"/>
      <stop offset=".99" stop-color="#e3e4e6"/>
    </linearGradient>
    <linearGradient id="linear-gradient-5" x1="175.01" y1="309.95" x2="237.01" y2="309.95" xlink:href="#linear-gradient-3"/>
    <linearGradient id="linear-gradient-6" x1="202.21" y1="354.5" x2="202.21" y2="260.36" gradientTransform="translate(-248.97 246.3) rotate(-90)" gradientUnits="userSpaceOnUse">
      <stop offset=".02" stop-color="#d34958"/>
      <stop offset=".42" stop-color="#d94b5b"/>
      <stop offset=".95" stop-color="#ea5365"/>
    </linearGradient>
    <linearGradient id="linear-gradient-7" x1="224.59" y1="308.37" x2="230.49" y2="308.37" gradientTransform="translate(-248.97 246.3) rotate(-90)" gradientUnits="userSpaceOnUse">
      <stop offset=".01" stop-color="#ff7387"/>
      <stop offset=".28" stop-color="#fa6c80"/>
      <stop offset=".67" stop-color="#ef5b6d"/>
      <stop offset=".82" stop-color="#ea5365"/>
    </linearGradient>
    <linearGradient id="linear-gradient-8" x1="219.37" y1="307.72" x2="225.31" y2="307.72" xlink:href="#linear-gradient-7"/>
    <linearGradient id="linear-gradient-9" x1="175.84" y1="306.98" x2="182.9" y2="306.98" xlink:href="#linear-gradient-7"/>
    <linearGradient id="linear-gradient-10" x1="180.66" y1="307.2" x2="187.18" y2="307.2" xlink:href="#linear-gradient-7"/>
    <linearGradient id="linear-gradient-11" x1="184.64" y1="306.89" x2="190.73" y2="306.89" xlink:href="#linear-gradient-7"/>
    <linearGradient id="linear-gradient-12" x1="170.09" y1="307.78" x2="178.4" y2="307.78" xlink:href="#linear-gradient-7"/>
    <linearGradient id="linear-gradient-13" x1="187.34" y1="307.83" x2="195.71" y2="307.83" xlink:href="#linear-gradient-7"/>
    <linearGradient id="linear-gradient-14" x1="202.37" y1="306.2" x2="207.15" y2="306.2" xlink:href="#linear-gradient-7"/>
    <linearGradient id="linear-gradient-15" x1="213.2" y1="307.6" x2="218.81" y2="307.6" xlink:href="#linear-gradient-7"/>
    <linearGradient id="linear-gradient-16" x1="192.61" y1="307.29" x2="199.84" y2="307.29" xlink:href="#linear-gradient-7"/>
    <linearGradient id="linear-gradient-17" x1="199.77" y1="307.8" x2="202.15" y2="307.8" xlink:href="#linear-gradient-7"/>
    <linearGradient id="linear-gradient-18" x1="216.65" y1="306.85" x2="221.73" y2="306.85" xlink:href="#linear-gradient-7"/>
    <linearGradient id="linear-gradient-19" x1="204.84" y1="306.74" x2="212.91" y2="306.74" xlink:href="#linear-gradient-7"/>
    <linearGradient id="linear-gradient-20" x1="207.18" y1="306.24" x2="214.68" y2="306.24" xlink:href="#linear-gradient-7"/>
    <linearGradient id="linear-gradient-21" x1="227.66" y1="309.67" x2="232.61" y2="309.67" xlink:href="#linear-gradient-7"/>
    <linearGradient id="linear-gradient-22" x1="221.7" y1="327.81" x2="228.65" y2="327.81" xlink:href="#linear-gradient-7"/>
    <linearGradient id="linear-gradient-23" x1="195.36" y1="281.06" x2="199.52" y2="281.06" xlink:href="#linear-gradient-7"/>
    <linearGradient id="linear-gradient-24" x1="203.94" y1="317.3" x2="203.94" y2="298.33" gradientTransform="translate(-248.97 246.3) rotate(-90)" gradientUnits="userSpaceOnUse">
      <stop offset="0" stop-color="#fff"/>
      <stop offset=".15" stop-color="#fbfbfb"/>
      <stop offset=".28" stop-color="#f1f1f1"/>
      <stop offset=".4" stop-color="#dfdfdf"/>
      <stop offset=".52" stop-color="#c6c6c6"/>
      <stop offset=".63" stop-color="#a6a6a6"/>
      <stop offset=".74" stop-color="#7e7e7e"/>
      <stop offset=".85" stop-color="#4f4f4f"/>
      <stop offset=".95" stop-color="#1b1b1b"/>
      <stop offset="1" stop-color="#000"/>
    </linearGradient>
    <linearGradient id="linear-gradient-25" x1="203.18" y1="288.65" x2="203.18" y2="269.59" xlink:href="#linear-gradient-24"/>
    <linearGradient id="linear-gradient-26" x1="201.16" y1="346.38" x2="201.16" y2="327.34" xlink:href="#linear-gradient-24"/>
    <radialGradient id="radial-gradient" cx="203.31" cy="308.97" fx="203.31" fy="308.97" r="52.19" gradientTransform="translate(-248.97 246.3) rotate(-90)" gradientUnits="userSpaceOnUse">
      <stop offset="0" stop-color="#000"/>
      <stop offset=".17" stop-color="#030303"/>
      <stop offset=".3" stop-color="#0c0c0c"/>
      <stop offset=".42" stop-color="#1d1d1d"/>
      <stop offset=".53" stop-color="#343434"/>
      <stop offset=".64" stop-color="#515151"/>
      <stop offset=".74" stop-color="#767676"/>
      <stop offset=".84" stop-color="#a2a2a2"/>
      <stop offset=".93" stop-color="#d3d3d3"/>
      <stop offset="1" stop-color="#fff"/>
    </radialGradient>
    <linearGradient id="White_Black" data-name="White, Black" x1="177.9" y1="344.85" x2="200.65" y2="310.11" gradientTransform="translate(-248.97 246.3) rotate(-90)" gradientUnits="userSpaceOnUse">
      <stop offset="0" stop-color="#fff"/>
      <stop offset="1" stop-color="#000"/>
    </linearGradient>
    <linearGradient id="White_Black-2" data-name="White, Black" x1="189.08" y1="352.36" x2="211.68" y2="317.85" xlink:href="#White_Black"/>
    <linearGradient id="linear-gradient-27" x1="179.92" y1="281.57" x2="189.91" y2="266.32" gradientTransform="translate(-248.97 246.3) rotate(-90)" gradientUnits="userSpaceOnUse">
      <stop offset="0" stop-color="#000"/>
      <stop offset="1" stop-color="#fff"/>
    </linearGradient>
    <linearGradient id="linear-gradient-28" x1="206.94" y1="301.92" x2="223.27" y2="335.89" gradientTransform="translate(-248.97 246.3) rotate(-90)" gradientUnits="userSpaceOnUse">
      <stop offset="0" stop-color="#000"/>
      <stop offset=".09" stop-color="#202020"/>
      <stop offset=".28" stop-color="#636363"/>
      <stop offset=".46" stop-color="#9a9a9a"/>
      <stop offset=".63" stop-color="#c6c6c6"/>
      <stop offset=".78" stop-color="#e5e5e5"/>
      <stop offset=".91" stop-color="#f8f8f8"/>
      <stop offset="1" stop-color="#fff"/>
    </linearGradient>
    <linearGradient id="linear-gradient-29" x1="160.33" y1="304.32" x2="195.7" y2="304.32" gradientTransform="translate(-248.97 246.3) rotate(-90)" gradientUnits="userSpaceOnUse">
      <stop offset="0" stop-color="#fff"/>
      <stop offset=".19" stop-color="#fcfcfc"/>
      <stop offset=".33" stop-color="#f3f3f3"/>
      <stop offset=".44" stop-color="#e3e3e3"/>
      <stop offset=".55" stop-color="#cdcdcd"/>
      <stop offset=".65" stop-color="#b1b1b1"/>
      <stop offset=".74" stop-color="#8e8e8e"/>
      <stop offset=".83" stop-color="#656565"/>
      <stop offset=".92" stop-color="#363636"/>
      <stop offset="1" stop-color="#020202"/>
      <stop offset="1" stop-color="#000"/>
    </linearGradient>
    <linearGradient id="linear-gradient-30" x1="206.67" y1="279.89" x2="229.34" y2="245.27" gradientTransform="translate(-248.97 246.3) rotate(-90)" gradientUnits="userSpaceOnUse">
      <stop offset="0" stop-color="#000"/>
      <stop offset=".06" stop-color="#1f1f1f"/>
      <stop offset=".16" stop-color="#535353"/>
      <stop offset=".26" stop-color="#818181"/>
      <stop offset=".37" stop-color="#a8a8a8"/>
      <stop offset=".48" stop-color="#c7c7c7"/>
      <stop offset=".59" stop-color="#e0e0e0"/>
      <stop offset=".71" stop-color="#f1f1f1"/>
      <stop offset=".84" stop-color="#fbfbfb"/>
      <stop offset="1" stop-color="#fff"/>
    </linearGradient>
    <linearGradient id="linear-gradient-31" x1="218.35" y1="305.63" x2="236.95" y2="269.41" gradientTransform="translate(-248.97 246.3) rotate(-90)" gradientUnits="userSpaceOnUse">
      <stop offset="0" stop-color="#000"/>
      <stop offset=".05" stop-color="#303030"/>
      <stop offset=".1" stop-color="#5b5b5b"/>
      <stop offset=".15" stop-color="#828282"/>
      <stop offset=".21" stop-color="#a4a4a4"/>
      <stop offset=".28" stop-color="silver"/>
      <stop offset=".35" stop-color="#d7d7d7"/>
      <stop offset=".44" stop-color="#e9e9e9"/>
      <stop offset=".54" stop-color="#f5f5f5"/>
      <stop offset=".67" stop-color="#fcfcfc"/>
      <stop offset="1" stop-color="#fff"/>
    </linearGradient>
  </defs>
  <g class="cls-20">
    <g id="Layer_2" data-name="Layer 2">
      <g id="Layer_1-2" data-name="Layer 1">
        <g>
          <g>
            <path class="cls-34" d="M16.34,0h87.31c9.03,0,16.34,7.32,16.34,16.34v53.28c0,9.03-7.32,16.34-16.34,16.34H16.34c-9.03,0-16.34-7.32-16.34-16.34V16.34c0-2.47.55-4.8,1.53-6.9.86-1.85,2.05-3.5,3.5-4.89C7.97,1.73,11.95,0,16.34,0Z"/>
            <rect class="cls-3" x="1.04" y="1.07" width="117.93" height="83.82" rx="14.23" ry="14.23"/>
            <rect class="cls-16" x="2.59" y="2.69" width="114.82" height="80.6" rx="12.75" ry="12.75"/>
            <rect class="cls-31" x="12.93" y="13.43" width="94.14" height="59.1" rx="6.54" ry="6.54"/>
            <rect class="cls-15" x="13.97" y="14.51" width="92.07" height="56.95" rx="5.56" ry="5.56"/>
          </g>
          <g>
            <g>
              <path class="cls-24" d="M19.43,65.93c2.34,2.35,5.78,3.41,9.15,3.63,3.36.22,6.72-.32,10.06-.72,13.3-1.61,26.86-1.27,40.06.97,3.89.65,7.79,1.47,11.75,1.48s8.06-.88,11.08-3.25c4.1-3.21,5.48-8.56,5.33-13.53-.15-4.97-1.58-9.85-2.04-14.82-.45-4.86.03-9.78,1.43-14.45.96-3.19,2.32-6.66.81-9.73-1.43-2.9-4.95-4.39-8.28-5.16-9.88-2.29-20.07-.37-30.04.86-13.78,1.73-27.8,2.1-41.75,1.07-3.46-.26-7.37-.46-9.82,1.83-1.8,1.69-2.29,4.3-2.57,6.74-1.01,8.9.33,17.09,1.56,25.88.92,6.53-2.21,13.68,3.28,19.2Z"/>
              <path class="cls-30" d="M16.83,71.08c2.34,2.35,5.7,1.49,9.06,1.71,3.36.22,6.72-.32,10.06-.72,13.3-1.61,26.86-1.27,40.06.97,3.89.65,7.79,1.47,11.75,1.48s8.08.91,11.1-1.46c4.1-3.21,3.73-8.82,3.58-13.79-.15-4.97,1.61-6.45-.32-16.34-.93-4.8.17-6.75,1.57-11.42.96-3.19,2.77-10.54,1.25-13.61-1.43-2.9-5.1-1.92-8.42-2.69-9.88-2.29-20.52-1.99-30.49-.76-13.78,1.73-27.8,2.1-41.75,1.07-3.46-.26-7.37-.46-9.82,1.83-1.8,1.69-2.29,4.3-2.57,6.74-1.01,8.9-.43,18.68.81,27.47.92,6.53-1.37,14.01,4.12,19.52Z"/>
              <g>
                <path class="cls-26" d="M104.34,20.64c0,.16-.03.31-.1.46-.26.54-.9.76-1.43.51-4.93-2.35-10.79-2.71-15.96-3.03-4.58-.28-9.32-.58-13.99-.61-6.72-.05-13.6.43-20.26.9-12.27.86-24.96,1.75-37.26-.65-.58-.11-.96-.67-.85-1.26.11-.58.68-.96,1.26-.85,12.02,2.35,24.57,1.47,36.7.61,6.7-.47,13.62-.96,20.42-.91,4.73.04,9.5.33,14.11.62,5.37.33,11.45.71,16.75,3.23.39.18.61.57.61.97Z"/>
                <path class="cls-21" d="M104.32,25.86s0,.1-.01.15c-.08.58-.62.99-1.2.91-29.37-4.12-59.23-4.9-88.77-2.3-.59.05-1.11-.38-1.16-.97-.04-.59.38-1.1.97-1.16,29.7-2.61,59.72-1.84,89.25,2.31.53.08.92.53.92,1.06Z"/>
                <path class="cls-27" d="M101.21,67.71c0,.39-.21.76-.57.95-3.36,1.78-7.58,2.23-12.54,1.36-2.42-.43-4.79-1.11-7.08-1.77-1.55-.44-3.15-.91-4.72-1.28-11.48-2.69-23.57-1.07-35.27.5-4.89.66-9.94,1.33-14.91,1.7-3.78.27-8.03.2-10.94-2.46-.44-.4-.47-1.08-.07-1.52.4-.44,1.08-.47,1.52-.07,2.31,2.11,6.02,2.14,9.34,1.9,4.9-.36,9.92-1.03,14.78-1.68,11.89-1.59,24.18-3.24,36.04-.46,1.63.38,3.26.85,4.83,1.3,2.24.64,4.56,1.31,6.86,1.72,4.48.79,8.23.4,11.16-1.15.52-.28,1.18-.08,1.45.45.09.16.12.33.12.5Z"/>
                <path class="cls-4" d="M103.17,61.64c0,.39-.21.76-.58.95-4.78,2.47-10.8,3.07-18.41,1.86-2.25-.36-4.52-.84-6.7-1.3-3.62-.77-7.36-1.56-11.06-1.81-6.62-.44-13.36.85-19.87,2.1-2.03.39-4.05.77-6.08,1.11-7.81,1.31-17.89,2.25-26.59-2.16-.52-.26-.73-.9-.47-1.43.27-.52.91-.73,1.43-.47,8.15,4.13,17.79,3.22,25.28,1.96,2.01-.34,4.02-.72,6.03-1.11,6.64-1.27,13.51-2.59,20.41-2.13,3.86.25,7.67,1.06,11.36,1.85,2.16.46,4.4.93,6.6,1.29,7.14,1.14,12.74.6,17.1-1.65.52-.27,1.16-.06,1.43.46.08.16.12.32.12.49Z"/>
                <path class="cls-28" d="M102.63,58.61c0,.55-.43,1.02-.99,1.05-7.76.47-15.63-.24-23.24-.92-9.2-.82-18.7-1.67-27.92-.42-2.65.36-5.34.9-7.93,1.43-3.38.68-6.87,1.39-10.38,1.72-7.59.71-13.82-.61-18.5-3.92-.48-.34-.59-1-.25-1.47.34-.48,1-.59,1.47-.25,4.26,3.01,10.01,4.2,17.09,3.54,3.4-.32,6.84-1.01,10.16-1.68,2.63-.53,5.35-1.08,8.07-1.45,9.46-1.29,19.09-.42,28.4.41,7.53.67,15.32,1.37,22.93.91.58-.03,1.08.41,1.12.99,0,.02,0,.04,0,.06Z"/>
                <path class="cls-5" d="M67.64,68.63c1.46.24,2.91.55,4.35.94,1.91.5,3.8,1.16,5.63,1.79.93.32,1.87.66,2.83.97,1.75.57,3.54,1.09,5.33,1.41,4.33.76,8.33.13,11.11-1.71.55-.35,1.05-.77,1.5-1.23.41-.43,1.1-.43,1.52-.02.21.21.32.49.32.77s-.11.54-.31.75c-.74.75-1.58,1.4-2.51,1.93-3.17,1.84-7.38,2.43-11.99,1.61-1.88-.33-3.71-.86-5.49-1.43-1.02-.33-2.02-.69-3.01-1.03-1.78-.61-3.64-1.26-5.48-1.75-1.03-.28-2.06-.52-3.11-.71-5.6-1.07-11.26-1.05-17.09-.61-3.21.24-6.48.6-9.8.97-.58.06-1.17.13-1.76.19-5.88.66-11.9,1.25-17.85,1.03-1.16-.04-2.32-.11-3.47-.22-.59-.05-1.03-.57-.98-1.17.05-.59.58-1.02,1.17-.97,1.3.12,2.61.19,3.93.23,5.53.14,11.17-.4,16.68-1.01.69-.08,1.36-.15,2.04-.23,3.48-.39,7.01-.77,10.53-1.01,5.32-.37,10.66-.38,15.9.49Z"/>
                <path class="cls-2" d="M103.7,51.65c0,.4-.23.78-.62.96-7.4,3.42-15.67,2.77-23.67,2.14-1.35-.11-2.7-.21-4.03-.3-10.9-.7-21.86.08-32.57,2.3-.81.17-1.61.34-2.42.52-4.02.88-8.18,1.79-12.41,1.66-5.98-.18-11-2.57-13.78-6.56-.33-.48-.22-1.14.27-1.48.48-.33,1.14-.22,1.48.27,2.35,3.38,6.87,5.49,12.1,5.65,3.96.12,8-.76,11.89-1.61.81-.18,1.63-.35,2.44-.52,10.9-2.27,22.05-3.05,33.14-2.34,1.34.09,2.7.19,4.06.3,7.73.61,15.72,1.23,22.61-1.96.53-.25,1.16-.01,1.41.52.07.14.1.3.1.45Z"/>
                <path class="cls-22" d="M101.3,41.82c-.02.61-.5,1.06-1.08,1.05l-51.62-1.43c-11.32-.31-23.02-.64-34.12,2.45-.56.16-1.14-.17-1.29-.73-.15-.56.17-1.14.73-1.29,11.4-3.18,23.26-2.85,34.74-2.53l51.62,1.43c.57.02,1.02.48,1.02,1.05Z"/>
                <path class="cls-1" d="M104.21,30.96c0,.56-.44,1.03-1.01,1.06-14.75.86-30.01,1.75-45.03.29-3.09-.3-6.25-.7-9.31-1.09-11.54-1.47-23.47-2.99-34.4.65-.56.19-1.16-.12-1.35-.68-.18-.56.12-1.16.68-1.35,11.4-3.8,23.57-2.24,35.35-.74,3.04.39,6.19.79,9.24,1.08,14.85,1.44,30.03.56,44.7-.3.59-.03,1.09.42,1.13,1,0,.02,0,.04,0,.06Z"/>
                <path class="cls-33" d="M102.53,49.52s0,.06,0,.09c-.05.59-.57,1.03-1.16.98-15.04-1.21-30.59-2.47-45.73-.16-2.33.35-4.69.8-6.98,1.23-4.45.84-9.05,1.71-13.69,1.96-5.81.32-14.08-.34-20.46-5.24-.47-.36-.56-1.04-.2-1.51s1.04-.56,1.51-.2c5.86,4.51,13.59,5.1,19.04,4.8,4.49-.24,9.02-1.1,13.4-1.93,2.3-.44,4.69-.89,7.05-1.25,15.39-2.34,31.07-1.08,46.23.15.56.05.99.52.99,1.07Z"/>
                <path class="cls-25" d="M102.62,45.22c0,.59-.48,1.07-1.07,1.07l-85.43.23c-.59,0-1.08-.48-1.08-1.07,0-.6.48-1.08,1.07-1.08l85.43-.23c.59,0,1.08.48,1.08,1.07h0Z"/>
                <path class="cls-36" d="M103.69,28.58s0,.07,0,.11c-.06.59-.58,1.01-1.17.95-29.58-3.04-59.63-3.73-89.31-2.03-.59.03-1.09-.42-1.13-1-.03-.58.42-1.09,1-1.13,29.79-1.7,59.95-1.02,89.65,2.03.55.06.96.52.96,1.06Z"/>
                <path class="cls-29" d="M102.66,34.42c0,.56-.45,1.02-1.01,1.03-29.15.74-58.63,2.76-87.63,6-.57.06-1.08-.35-1.14-.91-.06-.57.35-1.08.91-1.14,29.05-3.24,58.59-5.26,87.8-6.01.57-.01,1.05.44,1.06,1.01v.03Z"/>
                <path class="cls-23" d="M102.45,37.13c0,.51-.37.97-.89,1.05-12.88,2.16-26.05.15-38.78-1.8-1.95-.3-3.9-.6-5.85-.88-14.56-2.12-29.89-3.3-43.38,2.38-.54.23-1.17-.03-1.4-.57-.23-.54.03-1.17.57-1.4,13.96-5.88,29.65-4.69,44.51-2.53,1.95.28,3.9.58,5.86.88,12.56,1.92,25.56,3.91,38.1,1.81.58-.1,1.13.29,1.23.88.01.06.01.12.01.18Z"/>
                <path class="cls-32" d="M36.44,13.68c1.3,0,2.6.01,3.88.02l9.57.08,15.38.11h1.19c3.94.04,7.93.08,11.93.17,5.49.14,11.01.42,16.5,1.03,3.2.35,6.39.82,9.55,1.42.5.1.87.55.87,1.05,0,.06-.01.14-.02.2-.12.58-.68.97-1.26.85-2.37-.45-4.76-.83-7.17-1.13-.66-.09-1.29-.16-1.93-.23-5.47-.62-10.99-.9-16.5-1.04-4.02-.11-8.03-.14-11.99-.17h-.62l-2.07-.02s-14.38-.11-14.38-.11l-9.07-.06c-1.09-.01-2.17-.02-3.26-.02-5.33-.01-10.72.13-15.97,1.11-.15.02-.29.05-.44.09-1.07.2-2.14.45-3.2.74-.57.16-1.16-.18-1.32-.75-.08-.29-.03-.58.11-.82.14-.24.37-.42.64-.5,1.29-.35,2.59-.64,3.9-.89,5.2-.96,10.47-1.12,15.68-1.12Z"/>
                <path class="cls-17" d="M103.96,23.53c0,.06,0,.11-.01.17-.09.59-.64.99-1.23.89-3.18-.5-6.15-.99-8.96-1.46-15.49-2.55-25.71-4.24-38.84-2.83-.59.06-1.12-.36-1.18-.95-.07-.6.37-1.12.95-1.18,13.42-1.44,24.32.36,39.42,2.85,2.81.46,5.78.95,8.95,1.45.53.08.91.54.91,1.06Z"/>
                <path class="cls-35" d="M49.13,47.86c0,.48-.32.92-.81,1.04-10.61,2.69-21.83,2.72-32.45.1-.58-.14-.93-.72-.79-1.3.14-.58.72-.93,1.3-.79,10.28,2.54,21.14,2.5,31.41-.1.58-.15,1.16.2,1.31.78.02.09.03.18.03.26Z"/>
              </g>
              <path class="cls-7" d="M49.9,13.78l15.38.11c.27.64.44,1.33.53,2.05.01.04.02.08.02.11.06.54.1,1.07.1,1.62.01.14.01.28.01.42,0,.46-.02.92-.05,1.38-.01.12-.01.23-.02.34-.03.52-.08,1.03-.13,1.55-.05.71-.12,1.42-.2,2.13-.04.48-.1.97-.15,1.45-.09.71-.17,1.42-.27,2.13-.15,1.2-.32,2.41-.49,3.61-.1.71-.19,1.41-.3,2.12-.08.54-.15,1.09-.21,1.63-.03.2-.06.41-.09.61-.08.5-.14,1-.2,1.5-.02.19-.05.39-.06.58-.12.88-.23,1.75-.31,2.63-.09.7-.15,1.4-.21,2.1-.01.06-.01.14-.02.2-.06.73-.12,1.46-.16,2.2-.04.71-.09,1.43-.1,2.15-.02.34-.03.69-.03,1.03-.01.71-.01,1.43,0,2.15.01.86.05,1.73.12,2.59.04.71.11,1.42.18,2.13.05.43.11.87.17,1.3.1.71.21,1.42.37,2.13.09.47.19.93.3,1.4.17.72.37,1.43.59,2.13.21.74.47,1.47.75,2.19.13.32.26.66.4.98.17.4.35.81.54,1.2.46.99.93,1.98,1.32,3,.24.6.44,1.21.59,1.85.03.15.06.3.1.45-5.6-1.07-11.26-1.05-17.09-.61.19-.72.35-1.45.49-2.18.12-.67.23-1.33.3-2,.1-.73.17-1.45.23-2.18.03-.53.06-1.06.08-1.59.03-.72.04-1.44.04-2.16s-.01-1.41-.04-2.11c-.01-.71-.04-1.41-.09-2.12-.01-.26-.02-.52-.04-.78-.04-.72-.09-1.43-.13-2.13-.05-.63-.1-1.26-.14-1.88,0-.04-.01-.09-.01-.13-.05-.72-.11-1.44-.16-2.16-.06-.82-.13-1.64-.18-2.46-.05-.72-.11-1.43-.16-2.15-.08-.92-.14-1.85-.21-2.77-.05-.7-.11-1.41-.15-2.11-.04-.47-.08-.94-.11-1.41-.05-.69-.11-1.38-.15-2.06-.04-.42-.08-.85-.1-1.27-.06-.72-.12-1.44-.16-2.16-.03-.35-.06-.72-.09-1.07-.05-.72-.11-1.45-.16-2.17-.06-.85-.13-1.69-.19-2.54-.05-.71-.11-1.43-.16-2.14-.03-.49-.08-.98-.11-1.47-.05-.71-.11-1.43-.16-2.14-.04-.63-.1-1.28-.14-1.91-.03-.42-.06-.84-.1-1.26-.02-.29-.04-.59-.05-.88-.02-.33-.03-.68-.01-1.01.03-.72.16-1.44.49-2.08.01-.02.02-.03.03-.05Z"/>
              <path class="cls-10" d="M36.44,13.68c.31.67.49,1.4.6,2.15.09.57.13,1.15.13,1.73.02.63-.01,1.28-.04,1.9,0,.09-.01.16-.02.25-.02.48-.06.97-.1,1.45-.06.71-.13,1.43-.2,2.14-.05.44-.1.89-.15,1.33-.09.71-.17,1.43-.27,2.14-.03.32-.08.63-.12.96-.1.71-.19,1.41-.29,2.12-.08.6-.16,1.19-.25,1.78-.11.71-.2,1.42-.3,2.13-.16,1.16-.32,2.33-.46,3.5-.09.64-.16,1.28-.23,1.92-.01.05-.02.12-.02.17-.08.64-.15,1.29-.2,1.93-.03.26-.05.5-.08.76-.06.75-.12,1.52-.16,2.28-.05.71-.09,1.43-.11,2.15-.02.75-.03,1.5-.03,2.27,0,.72.02,1.44.05,2.15.01.2.01.41.03.6.03.72.09,1.44.16,2.15.09.87.19,1.74.33,2.6.11.71.24,1.41.4,2.1.04.2.09.4.14.6.15.7.33,1.38.54,2.05s.42,1.34.67,2c.18.48.37.96.57,1.43.09.2.17.4.27.6.11.25.23.49.34.74.31.68.63,1.36.92,2.05.21.52.42,1.02.59,1.55.13.37.24.73.32,1.11.08.32.14.67.19,1-5.88.66-11.9,1.25-17.85,1.03.25-.7.46-1.41.66-2.13.1-.37.18-.73.27-1.1.16-.71.29-1.43.4-2.15.1-.62.18-1.25.25-1.87.06-.7.13-1.41.16-2.12.03-.6.05-1.21.06-1.82.01-.71.01-1.42-.01-2.13.01-.27,0-.55-.01-.82-.01-.74-.04-1.49-.09-2.24-.05-1.2-.14-2.4-.23-3.58-.03-.47-.06-.92-.1-1.39-.02-.28-.04-.55-.06-.83v-.06c-.05-.71-.11-1.42-.16-2.13-.04-.55-.09-1.11-.13-1.65-.05-.72-.11-1.43-.16-2.15-.05-.72-.11-1.43-.16-2.15-.04-.55-.09-1.11-.12-1.65-.02-.15-.03-.29-.03-.44-.04-.54-.09-1.09-.13-1.62-.09-1.1-.16-2.18-.24-3.28-.06-.71-.12-1.43-.16-2.14-.08-.97-.15-1.92-.23-2.88-.05-.71-.11-1.43-.15-2.14-.03-.28-.05-.57-.06-.85-.06-.71-.12-1.43-.16-2.14-.03-.33-.05-.66-.08-.99-.05-.71-.11-1.42-.16-2.13-.08-.97-.15-1.92-.21-2.89-.03-.42-.06-.84-.1-1.26-.02-.26-.04-.53-.05-.78,0-.04-.01-.1,0-.14-.04-.71-.02-1.42.13-2.08,5.2-.96,10.47-1.12,15.68-1.12Z"/>
              <path class="cls-8" d="M78.4,14.06c5.49.14,11.01.42,16.5,1.03.05.69.06,1.38.04,2.06v.11c-.01.32-.02.64-.04.96-.02.37-.04.73-.08,1.1-.04.6-.09,1.19-.14,1.79-.06.72-.13,1.43-.2,2.14-.01.14-.02.28-.04.41-.08.71-.15,1.42-.23,2.13-.04.31-.08.61-.12.92-.09.7-.17,1.41-.26,2.11-.08.54-.14,1.06-.22,1.6-.09.72-.18,1.44-.28,2.16-.04.35-.1.71-.14,1.06-.09.7-.17,1.39-.26,2.08-.05.4-.1.8-.14,1.19-.1.72-.17,1.43-.25,2.15-.05.49-.11,1-.15,1.49-.08.69-.14,1.36-.19,2.05-.04.54-.08,1.05-.12,1.56-.04.72-.09,1.43-.11,2.15-.02.46-.04.92-.05,1.39-.01.72-.02,1.44-.02,2.16.01,1.05.03,2.12.1,3.17.03.71.09,1.42.15,2.13.08.83.17,1.64.29,2.46.1.71.21,1.42.34,2.12.19,1.04.43,2.07.71,3.09.18.7.4,1.4.62,2.08.21.62.43,1.24.68,1.85.18.45.38.9.57,1.35.28.68.58,1.35.85,2.03.26.61.48,1.24.68,1.87.14.42.26.85.35,1.28.06.3.13.61.16.93-3.17,1.84-7.38,2.43-11.99,1.61-1.88-.33-3.71-.86-5.49-1.43.19-.7.38-1.4.53-2.1.29-1.33.49-2.69.64-4.04.08-.73.14-1.45.18-2.18.05-.72.08-1.45.1-2.17.01-.72.02-1.44.01-2.16,0-.92-.02-1.85-.06-2.77-.02-.71-.05-1.42-.09-2.13-.04-.67-.08-1.33-.12-1.99-.04-.72-.1-1.43-.14-2.14-.01-.09-.01-.18-.02-.27-.08-1.07-.15-2.15-.23-3.22-.05-.72-.1-1.44-.15-2.16-.02-.25-.03-.49-.05-.74-.04-.71-.1-1.43-.14-2.15-.05-.62-.1-1.25-.14-1.88-.04-.7-.1-1.4-.14-2.11-.04-.52-.08-1.03-.11-1.56-.05-.72-.11-1.44-.15-2.16-.01-.08-.02-.16-.02-.25-.05-.69-.1-1.38-.14-2.06-.03-.38-.05-.75-.08-1.13-.05-.71-.11-1.42-.15-2.13-.09-1.06-.15-2.13-.23-3.19-.05-.71-.1-1.42-.15-2.14-.03-.43-.06-.86-.09-1.3-.05-.72-.11-1.44-.15-2.16-.03-.44-.06-.88-.1-1.32-.04-.72-.1-1.45-.15-2.17-.01-.17-.02-.35-.03-.53-.04-.57-.08-1.13-.12-1.7-.01-.06-.01-.13-.01-.2-.01-.09-.02-.17-.02-.26-.04-.62-.06-1.27-.02-1.9Z"/>
            </g>
            <g>
              <path class="cls-11" d="M16.34,0h87.31c3.94,0,7.55,1.4,10.37,3.72,2.04,1.68,3.66,3.83,4.7,6.3.83,1.95,1.28,4.08,1.28,6.33v53.28c0,9.03-7.32,16.34-16.34,16.34H16.34c-9.03,0-16.34-7.32-16.34-16.34V16.34c0-2.47.55-4.8,1.53-6.9.86-1.85,2.05-3.5,3.5-4.89C7.97,1.73,11.95,0,16.34,0Z"/>
              <g>
                <polygon class="cls-14" points="114.9 80.06 65.91 59.82 66.27 37.97 114.9 80.06"/>
                <polygon class="cls-9" points="115.43 79.25 70.41 32.44 77.02 25.79 115.43 79.25"/>
                <polygon class="cls-12" points="4.21 80.33 53.11 52.92 44.51 41.64 2.87 78.58 4.21 80.33"/>
                <path class="cls-19" d="M114.03,3.72c2.04,1.68,3.66,3.83,4.7,6.3-14,8.34-57.82,37.98-57.82,37.98l-7.88-21.13L114.03,3.72Z"/>
                <polygon class="cls-6" points="47.82 51.94 62.87 50.6 61.5 85.97 55.87 85.97 47.82 51.94"/>
                <path class="cls-13" d="M5.03,4.56l40.82,29.11-4.66,30.81L1.53,9.45c.86-1.85,2.05-3.5,3.5-4.89Z"/>
                <polygon class="cls-18" points="6.09 3.49 66.54 25.25 57.8 36.3 6.09 3.49"/>
              </g>
            </g>
          </g>
        </g>
      </g>
    </g>
  </g>
</svg>