<?xml version="1.0" encoding="UTF-8"?>
<svg xmlns="http://www.w3.org/2000/svg" xmlns:xlink="http://www.w3.org/1999/xlink" viewBox="0 0 120 81.9">
  <defs>
    <style>
      .cls-1 {
        fill: url(#linear-gradient-27);
        opacity: .7;
      }

      .cls-1, .cls-2, .cls-3, .cls-4, .cls-5, .cls-6, .cls-7, .cls-8, .cls-9, .cls-10, .cls-11, .cls-12, .cls-13, .cls-14, .cls-15, .cls-16, .cls-17, .cls-18, .cls-19, .cls-20 {
        mix-blend-mode: screen;
      }

      .cls-21 {
        fill: #431a74;
      }

      .cls-21, .cls-22, .cls-23, .cls-24 {
        mix-blend-mode: multiply;
      }

      .cls-21, .cls-23 {
        opacity: .2;
      }

      .cls-2 {
        fill: url(#linear-gradient-21);
      }

      .cls-2, .cls-4, .cls-5, .cls-6, .cls-8, .cls-9, .cls-10, .cls-11, .cls-13, .cls-25, .cls-17, .cls-18, .cls-19, .cls-26, .cls-20 {
        opacity: .3;
      }

      .cls-27, .cls-28, .cls-29 {
        opacity: .5;
      }

      .cls-27, .cls-28, .cls-29, .cls-30, .cls-31, .cls-32, .cls-25, .cls-33, .cls-34, .cls-26 {
        mix-blend-mode: soft-light;
      }

      .cls-27, .cls-30, .cls-35, .cls-25 {
        fill: #ffb0b0;
      }

      .cls-28 {
        fill: #ffc2c2;
      }

      .cls-36 {
        fill: url(#linear-gradient-2);
      }

      .cls-3 {
        fill: url(#linear-gradient-10);
      }

      .cls-3, .cls-7, .cls-12, .cls-14, .cls-15, .cls-37 {
        opacity: .6;
      }

      .cls-4 {
        fill: url(#linear-gradient-26);
      }

      .cls-22, .cls-38, .cls-39, .cls-24 {
        opacity: .4;
      }

      .cls-22, .cls-38, .cls-23 {
        fill: #661e1e;
      }

      .cls-29, .cls-32, .cls-26 {
        fill: #ffffae;
      }

      .cls-5 {
        fill: url(#linear-gradient-25);
      }

      .cls-38, .cls-39, .cls-37 {
        mix-blend-mode: hard-light;
      }

      .cls-6 {
        fill: url(#linear-gradient-14);
      }

      .cls-40, .cls-34 {
        fill: #fff;
      }

      .cls-7 {
        fill: url(#linear-gradient-11);
      }

      .cls-41 {
        fill: url(#linear-gradient-4);
      }

      .cls-8 {
        fill: url(#linear-gradient-15);
      }

      .cls-9 {
        fill: url(#linear-gradient-18);
      }

      .cls-42 {
        fill: url(#linear-gradient-3);
      }

      .cls-43 {
        fill: url(#linear-gradient-5);
      }

      .cls-10 {
        fill: url(#linear-gradient-16);
      }

      .cls-39, .cls-37, .cls-24 {
        fill: #741a1a;
      }

      .cls-44 {
        isolation: isolate;
      }

      .cls-45 {
        fill: url(#linear-gradient-8);
      }

      .cls-11 {
        fill: url(#linear-gradient-22);
      }

      .cls-12 {
        fill: url(#linear-gradient-13);
      }

      .cls-13 {
        fill: url(#linear-gradient-23);
      }

      .cls-14 {
        fill: url(#linear-gradient-12);
      }

      .cls-33 {
        fill: #ffffc0;
      }

      .cls-46 {
        fill: url(#linear-gradient-7);
      }

      .cls-15 {
        fill: url(#linear-gradient-9);
      }

      .cls-16 {
        fill: url(#radial-gradient);
        opacity: .35;
      }

      .cls-47 {
        fill: url(#linear-gradient-6);
      }

      .cls-17 {
        fill: url(#linear-gradient-17);
      }

      .cls-18 {
        fill: url(#linear-gradient-19);
      }

      .cls-19 {
        fill: url(#linear-gradient-20);
      }

      .cls-48 {
        fill: url(#linear-gradient);
      }

      .cls-20 {
        fill: url(#linear-gradient-24);
      }
    </style>
    <linearGradient id="linear-gradient" x1="0" y1="40.95" x2="120" y2="40.95" gradientUnits="userSpaceOnUse">
      <stop offset=".56" stop-color="#e0dbff"/>
      <stop offset=".98" stop-color="#f7f0ff"/>
    </linearGradient>
    <linearGradient id="linear-gradient-2" x1="-685.84" y1="-861.54" x2="-685.84" y2="-824.99" gradientTransform="translate(13.64 1113.52) rotate(41.11)" gradientUnits="userSpaceOnUse">
      <stop offset="0" stop-color="#a43c21"/>
      <stop offset="1" stop-color="#860c44"/>
    </linearGradient>
    <linearGradient id="linear-gradient-3" x1="-889" y1="-790.5" x2="-889" y2="-756.72" gradientTransform="translate(-1133.57 -158.65) rotate(-129.82) scale(1 -1)" xlink:href="#linear-gradient-2"/>
    <linearGradient id="linear-gradient-4" x1="1105.59" y1="1643.78" x2="1105.59" y2="1677.56" gradientTransform="translate(-1901.64 -158.65) rotate(-50.18)" xlink:href="#linear-gradient-2"/>
    <linearGradient id="linear-gradient-5" x1="-2250.79" y1="-1125.92" x2="-2250.79" y2="-1092.75" gradientTransform="translate(-1551.15 1919.77) rotate(104.83)" xlink:href="#linear-gradient-2"/>
    <linearGradient id="linear-gradient-6" x1="-552.87" y1="-847.89" x2="-552.87" y2="-811.34" gradientTransform="translate(39.9 1022.88) rotate(35.5)" xlink:href="#linear-gradient-2"/>
    <linearGradient id="linear-gradient-7" x1="-567.27" y1="-802.71" x2="-567.27" y2="-766.16" gradientTransform="translate(39.9 1022.88) rotate(35.5)" xlink:href="#linear-gradient-2"/>
    <linearGradient id="linear-gradient-8" x1="-554.4" y1="-811.89" x2="-554.4" y2="-775.34" gradientTransform="translate(39.9 1022.88) rotate(35.5)" xlink:href="#linear-gradient-2"/>
    <radialGradient id="radial-gradient" cx="60" cy="40.96" fx="60" fy="40.96" r="51.36" gradientUnits="userSpaceOnUse">
      <stop offset=".08" stop-color="#000"/>
      <stop offset=".24" stop-color="#030303"/>
      <stop offset=".36" stop-color="#0c0c0c"/>
      <stop offset=".47" stop-color="#1d1d1d"/>
      <stop offset=".57" stop-color="#343434"/>
      <stop offset=".67" stop-color="#515151"/>
      <stop offset=".76" stop-color="#767676"/>
      <stop offset=".85" stop-color="#a2a2a2"/>
      <stop offset=".93" stop-color="#d3d3d3"/>
      <stop offset="1" stop-color="#fff"/>
    </radialGradient>
    <linearGradient id="linear-gradient-9" x1="21.69" y1="72.64" x2="5.6" y2="72.64" gradientUnits="userSpaceOnUse">
      <stop offset="0" stop-color="#000"/>
      <stop offset="1" stop-color="#fff"/>
    </linearGradient>
    <linearGradient id="linear-gradient-10" x1="117.56" y1="71.15" x2="101.2" y2="71.15" xlink:href="#linear-gradient-9"/>
    <linearGradient id="linear-gradient-11" x1="117.44" y1="11.48" x2="106.84" y2="11.48" xlink:href="#linear-gradient-9"/>
    <linearGradient id="linear-gradient-12" x1="17.09" y1="16.12" x2="17.09" y2="3" xlink:href="#linear-gradient-9"/>
    <linearGradient id="linear-gradient-13" x1="20.21" y1="79.16" x2="20.21" y2="72.64" xlink:href="#linear-gradient-9"/>
    <linearGradient id="linear-gradient-14" x1="61.19" y1="57.68" x2="1.21" y2="57.68" gradientUnits="userSpaceOnUse">
      <stop offset=".09" stop-color="#000"/>
      <stop offset=".16" stop-color="#1c1c1c"/>
      <stop offset=".34" stop-color="#606060"/>
      <stop offset=".51" stop-color="#989898"/>
      <stop offset=".66" stop-color="#c5c5c5"/>
      <stop offset=".8" stop-color="#e4e4e4"/>
      <stop offset=".92" stop-color="#f8f8f8"/>
      <stop offset="1" stop-color="#fff"/>
    </linearGradient>
    <linearGradient id="linear-gradient-15" y1="58.47" x2="15.76" y2="58.47" xlink:href="#linear-gradient-14"/>
    <linearGradient id="linear-gradient-16" x1="21.51" y1="35.91" x2="21.51" y2=".44" xlink:href="#linear-gradient-14"/>
    <linearGradient id="linear-gradient-17" x1="60.65" y1="29.6" x2="119.91" y2="29.6" xlink:href="#linear-gradient-14"/>
    <linearGradient id="linear-gradient-18" x1="61.03" y1="41.51" x2="119.99" y2="41.51" xlink:href="#linear-gradient-14"/>
    <linearGradient id="linear-gradient-19" x1="65.36" y1="40.51" x2="65.36" y2=".02" xlink:href="#linear-gradient-14"/>
    <linearGradient id="linear-gradient-20" x1="60.65" y1="28.91" x2="119.43" y2="28.91" xlink:href="#linear-gradient-14"/>
    <linearGradient id="linear-gradient-21" x1="92.31" y1="48.92" x2="92.31" y2="81.38" xlink:href="#linear-gradient-14"/>
    <linearGradient id="linear-gradient-22" x1="21.51" y1="35.91" x2="21.51" y2=".44" xlink:href="#linear-gradient-14"/>
    <linearGradient id="linear-gradient-23" x1="82.03" y1="51.63" x2="82.03" y2="81.38" xlink:href="#linear-gradient-14"/>
    <linearGradient id="linear-gradient-24" x1="101.47" y1="55.07" x2="101.47" y2="79.89" xlink:href="#linear-gradient-14"/>
    <linearGradient id="linear-gradient-25" x1="28" y1="29" x2="28" y2=".53" xlink:href="#linear-gradient-14"/>
    <linearGradient id="linear-gradient-26" x1="74.12" y1="75.27" x2="74.12" y2="45.51" xlink:href="#linear-gradient-14"/>
    <linearGradient id="linear-gradient-27" x1="55.03" y1="70.15" x2="100.58" y2="70.15" xlink:href="#linear-gradient-14"/>
  </defs>
  <g class="cls-44">
    <g id="Layer_2" data-name="Layer 2">
      <g id="Layer_1-2" data-name="Layer 1">
        <g>
          <g>
            <g>
              <path class="cls-48" d="M2.42,74.93C-.7,51.65-.89,29.09,2.36,7.37c.41-2.75,2.66-4.87,5.44-5.12,34.49-3.07,69.46-2.93,104.85,0,2.92.24,5.26,2.52,5.56,5.43,2.32,22.87,2.45,45.26.06,67.11-.32,2.93-2.71,5.19-5.65,5.39-34.61,2.3-69.47,2.3-104.56-.01-2.88-.19-5.25-2.37-5.63-5.24Z"/>
              <path class="cls-21" d="M112.61,80.18c2.94-.19,5.32-2.46,5.64-5.38,2.39-21.85,2.27-44.24-.06-67.11-.3-2.92-2.64-5.2-5.56-5.44-35.39-2.93-70.36-3.07-104.85,0-2.77.25-5.03,2.37-5.44,5.12-3.25,21.72-3.06,44.28.06,67.56.38,2.87,2.75,5.05,5.63,5.24,35.09,2.31,69.95,2.31,104.56.01ZM11.21,78.68c-2.77-.18-5.05-2.28-5.42-5.04-3-22.4-3.18-44.1-.06-65,.4-2.65,2.56-4.69,5.23-4.93C44.14.77,77.78.91,111.83,3.72c2.81.23,5.06,2.43,5.34,5.23,2.24,22,2.36,43.54.06,64.56-.31,2.81-2.61,4.99-5.43,5.18-33.3,2.22-66.83,2.21-100.59-.01Z"/>
              <path class="cls-21" d="M10.61,70.8c-2.74-20.45-2.91-40.26-.05-59.34.36-2.42,2.34-4.28,4.77-4.5,30.29-2.69,61.01-2.57,92.09,0,2.56.21,4.62,2.21,4.88,4.77,2.04,20.08,2.15,39.75.05,58.94-.28,2.57-2.38,4.56-4.96,4.73-30.4,2.02-61.01,2.02-91.84-.01-2.53-.17-4.61-2.08-4.95-4.6Z"/>
              <path class="cls-21" d="M107.39,75.41c2.58-.17,4.68-2.16,4.96-4.73,2.1-19.19,1.99-38.86-.05-58.94-.26-2.56-2.31-4.56-4.88-4.77-31.09-2.57-61.8-2.7-92.09,0-2.44.22-4.42,2.08-4.78,4.5-2.86,19.08-2.69,38.9.06,59.34.34,2.51,2.41,4.43,4.95,4.6,30.82,2.03,61.43,2.03,91.84.01ZM17.01,74.3c-2.45-.16-4.46-2.01-4.79-4.45-2.66-19.8-2.82-38.98-.05-57.46.35-2.34,2.26-4.15,4.62-4.35,29.33-2.61,59.07-2.49,89.17,0,2.48.2,4.47,2.14,4.73,4.62,1.97,19.45,2.08,38.49.05,57.07-.28,2.49-2.3,4.42-4.8,4.58-29.43,1.96-59.08,1.95-88.92-.02Z"/>
            </g>
            <path class="cls-21" d="M110.39,45.54s.02-.06.03-.1c0,0,0,0,0,0,.75-2.95.64-14.41-.92-16.77-1.77-2.66-3.4-3.76-5.63-8.19-2.23-4.44-4.6-10.23-11.11-10.52-.03,0-.06,0-.09,0-.05,0-.1-.01-.15-.02-.02,0-.04,0-.06,0-.5,0-.97.06-1.42.15,0,0-.01,0-.02,0-.54.11-1.04.27-1.52.49-.01,0-.03.01-.04.02-.47.21-.91.47-1.32.76-.02.01-.03.02-.05.03-.53.38-1.02.81-1.46,1.27v.02c-1.08,1.13-1.87,2.41-2.41,3.42-.11-.11-.21-.22-.32-.33-.76-.77-1.53-1.53-2.28-2.25-.51-.49-1.01-.96-1.49-1.4-2.06-1.88-3.77-3.18-4.38-3.05-.93.2-1.07,1.1-2.2,2.65-1.93,2.64-4.36,3.9-7.3,5.42-.58.3-1.02.5-1.43.66,0-.01-.02-.02-.03-.03-.68-.84-1.37-1.68-2.05-2.46-.46-.54-.91-1.06-1.35-1.54-1.87-2.07-3.45-3.53-4.06-3.46-.94.11-1.18.99-2.45,2.42-2.18,2.44-4.72,3.45-7.8,4.68-2.32.92-2.37.6-7.04,1.88-.04.01-.07.02-.11.03-.17-.21-.34-.42-.51-.64-.32-.43-.62-.86-.91-1.31-.16-.25-.31-.5-.47-.75-2.01-3.33-3.44-6.73-6.86-6.43-2.78.24-8.13,5.06-11.91,8.91h0s-.02.03-.05.05c-.03.03-.05.06-.08.09-.27.27-.52.53-.77.79-1.4,1.46-2.5,2.7-3.02,3.34,0,0-.01.01-.02.02-1.9,2.36-5.26,9.22-4.12,10.59.35.42.79,1.11,1.32,1.9h0c1.19,1.78,2.81,3.99,4.65,4.33,2.64.5,5.08,4.36,6.89,4.79,1.33.31,4.5,1.63,6.74,1.8.56.04,1.06.02,1.46-.11.18-.05.33-.13.46-.22.04-.03.08-.06.12-.09.03-.02.05-.05.07-.07,0,0,0,0,0,0h0c.93-.88,1.8-3.24,1.8-3.24,0,0,0,0,0,0,0,0,0,0,0,0,0,0,.01,0,.02,0,.28-.03,3.36-.38,5.8-1.31.02.03.03.06.05.09.1.19.19.36.27.54.58,1.17.97,2.05,1.38,2.67.02.03.04.05.05.08.08.11.16.21.24.31.02.02.04.04.05.06.1.11.2.2.3.28.02.01.04.03.06.04.09.07.19.12.29.17.03.02.06.03.1.05.13.06.26.1.41.14.15.04.3.05.45.06,1.02.05,1.96-.56,3.39-1.64.79-.6,1.74-1.35,2.93-2.22.08-.06.2-.15.34-.25.92-.66,3.11-2.17,5.71-3.66.63-.36,1.29-.72,1.96-1.07.07.08.14.15.21.23.2.22.42.46.63.71.11.13.23.27.34.41.05.07.11.13.16.2.19.23.38.47.58.73.2.26.38.5.56.74.01.02.02.03.03.05.14.2.28.39.41.58.05.07.1.14.15.21.1.14.19.28.28.41.04.06.08.12.12.18.97,1.48,1.54,2.56,2.11,3.26.02.03.04.05.06.07.09.1.18.2.27.28.02.02.04.04.06.06.11.1.22.18.33.25.02.01.04.02.06.04.1.06.2.1.31.14.03.01.07.03.1.04.13.04.27.08.42.1.16.02.32.02.47.01,1.01-.06,1.88-.75,3.18-1.95.73-.68,1.6-1.52,2.71-2.5.07-.06.19-.16.32-.28.86-.75,2.9-2.48,5.36-4.23,1.36-.97,2.85-1.93,4.33-2.73,1.58-.85,3.02-1.44,4.32-1.88,1.78,5.74,4.24,13.6,7.76,14.87,5.06,1.83,14.81-.75,15.88-1.29.09-.04.17-.19.25-.41,0,0,0-.02,0-.03.01-.05.03-.09.04-.15Z"/>
            <g>
              <path class="cls-36" d="M61.19,34.45c-4.79,2.01-9.8,5.6-10.67,6.23-3.66,2.65-4.98,4.22-6.78,3.8-1.33-.31-1.71-1.42-2.78-3.58-.29-.57-.61-1.22-1.02-1.94-.24-.43-.51-.89-.81-1.37-.54-.86-1.04-1.58-1.51-2.21-.47-.63-.91-1.16-1.32-1.65-1.43-1.67-2.62-2.82-3.96-5.45-.09-.19-.19-.39-.29-.59-.03-.07-.07-.14-.1-.21-1.28-2.68-1.96-4.2-1.34-5.68.27-.64,1.05-1.92,9.41-4.21,4.68-1.27,4.73-.95,7.04-1.88,3.08-1.23,5.62-2.24,7.8-4.68,1.28-1.43,1.51-2.31,2.45-2.42.62-.07,2.19,1.39,4.06,3.46.44.49.89,1,1.35,1.54.68.79,1.37,1.62,2.05,2.46.32.39.63.78.94,1.17,1.04,1.31,2.03,2.6,2.86,3.73.21.28.4.54.58.8.15.2.28.39.41.57,3.16,4.46,4.74,6.7,4.12,8.24-.99,2.48-5.24.83-12.5,3.87Z"/>
              <path class="cls-32" d="M70.44,24.22c-2.16-2.41-4.37-4.9-4.87-5.53-.3-.38-.61-.77-.92-1.15-.67-.83-1.35-1.64-2.01-2.41-.45-.53-.9-1.04-1.33-1.51-1.84-2.03-3.38-3.47-3.99-3.4-.93.11-1.15.98-2.41,2.38-1.27,1.43-3,2.01-4.82,2.49,1.82-.84,3.43-1.81,4.88-3.43,1.25-1.4,1.48-2.27,2.41-2.38.61-.07,2.15,1.37,3.99,3.4.43.48.87.98,1.33,1.51.66.77,1.34,1.59,2.01,2.41.31.38.62.77.92,1.15,1.02,1.29,1.99,2.55,2.8,3.66.2.27.39.53.57.78.14.19.28.39.41.56.37.52.72,1.01,1.04,1.47Z"/>
              <path class="cls-32" d="M40.34,34.63c-3-4.81-4.74-5.08-6.94-9.7.86,1.3,1.89,2.79,2.42,3.27,1,.88,3.95,4.07,5.57,7.03,1.62,2.96,2.33,5.68,4.14,5.71,1.8.02,4.7-3.8,9.43-6.69,2.73-1.67,6.83-2.92,9.81-3.67-.87.26-1.79.58-2.78.99-4.71,1.97-9.62,5.5-10.47,6.11-3.59,2.6-4.88,4.14-6.65,3.73-1.85-.43-1.83-2.44-4.53-6.77Z"/>
              <g class="cls-31">
                <path class="cls-35" d="M62.73,13.61c-1.11,1.17-2.31,2.26-3.65,3.17-1.35.92-2.82,1.61-4.38,2.09-1.52.46-3.09.77-4.62,1.21-1.55.45-2.97,1.1-4.34,1.95-1.41.87-2.74,1.87-4.14,2.75-2.71,1.71-5.72,2.76-8.84,3.42-.14.03-.27.06-.41.08-.09-.19-.19-.39-.29-.59-.03-.07-.07-.14-.1-.21,0,0,.02,0,.03,0,1.47-.37,2.92-.84,4.31-1.45,1.43-.63,2.76-1.46,4.05-2.33,1.35-.91,2.67-1.87,4.11-2.64,1.44-.77,2.97-1.28,4.56-1.68,1.53-.39,3.07-.71,4.55-1.27,1.45-.55,2.78-1.37,4-2.32,1.4-1.1,2.65-2.37,3.81-3.71.44.49.89,1,1.35,1.54Z"/>
              </g>
              <g class="cls-31">
                <path class="cls-35" d="M65.72,17.24c-.82.54-1.61,1.13-2.39,1.71-2.21,1.63-4.37,3.34-6.73,4.75-1.21.73-2.48,1.37-3.8,1.89-1.32.53-2.67.96-3.99,1.48-4.36,1.75-8.24,4.66-11.19,8.3-.47-.63-.91-1.16-1.32-1.65,1.25-1.35,2.63-2.57,4.12-3.65,2.32-1.68,4.87-2.95,7.56-3.92,1.37-.5,2.75-.96,4.07-1.6,1.27-.62,2.48-1.35,3.64-2.14,2.38-1.6,4.6-3.41,6.95-5.04.68-.47,1.39-.94,2.14-1.31.32.39.63.78.94,1.17Z"/>
              </g>
              <g class="cls-31">
                <path class="cls-35" d="M69.16,21.76c-.28.08-.56.16-.84.24-.65.2-1.29.41-1.92.64-1.3.46-2.6.96-3.82,1.59-1.31.67-2.48,1.5-3.55,2.5-2.13,2-3.87,4.41-6.31,6.08-2.27,1.56-4.85,2.57-7.19,4.01-1.22.75-2.34,1.64-3.34,2.68-.42.45-.83.91-1.21,1.39-.29-.57-.61-1.22-1.02-1.94,1.05-1.05,2.23-1.91,3.51-2.66,2.45-1.44,5.13-2.48,7.4-4.21,2.43-1.85,4.18-4.44,6.53-6.38,1.17-.96,2.5-1.69,3.89-2.3,1.31-.58,2.65-1.09,4.02-1.53,1.08-.35,2.18-.66,3.29-.9.21.28.4.54.58.8Z"/>
              </g>
              <path class="cls-24" d="M61.19,34.45c-4.79,2.01-9.8,5.6-10.67,6.23-3.66,2.65-4.98,4.21-6.78,3.8-1.89-.44-1.86-2.49-4.62-6.9-3.06-4.9-4.83-5.17-7.07-9.89-1.34-2.81-2.08-4.37-1.44-5.9.09-.23.26-.53.8-.94-.96,1.19.74,2.47,1.65,4.39,2.25,4.72,4.02,4.99,7.08,9.89,2.75,4.41,2.73,6.46,4.62,6.9,1.8.42,3.11-1.15,6.78-3.8.87-.62,5.87-4.22,10.67-6.23,5.82-2.44,10.85.13,11.53-2.82.13.53.12.99-.04,1.4-.99,2.48-5.24.83-12.5,3.87Z"/>
              <path class="cls-25" d="M42.25,33.52c-.31.02-.78-.27-1.37-.78-2.87-2.48-8.29-10.1-8.19-10.72.11-.71,4.31-2.32,8.39-3.6,3.72-1.16,7.33-2.05,7.69-1.74.75.68-2.52,1.91-4.63,7.31-2.58,6.6-.7,9.43-1.89,9.52Z"/>
              <path class="cls-25" d="M40.89,32.74c-2.87-2.48-8.29-10.1-8.19-10.72.11-.71,4.31-2.32,8.39-3.6-2.76,1.36-5.59,3.64-4.44,7.08.95,2.84,2.67,5.36,4.25,7.24Z"/>
              <path class="cls-39" d="M57.13,13.08c1.81-.37,2.56,6.17,8.83,11.17,2.63,2.1,5,2.94,4.77,3.82-.26,1.03-3.58.31-7.77,1.16-7.37,1.5-11.72,6.71-12.35,6.03-.57-.62,3.98-3.83,4.54-9.46.2-1.97-.28-2.36-.09-5.32.12-1.76.46-7.08,2.07-7.4Z"/>
            </g>
            <path class="cls-21" d="M96.38,49.66s-.01-.01-.02-.02c-.53-.66-1.65-1.93-3.1-3.42-.22-.23-.45-.47-.69-.71-.03-.03-.05-.06-.08-.09-.02-.03-.04-.05-.05-.05h0c-3.78-3.85-9.12-8.67-11.91-8.92-3.42-.3-4.86,3.1-6.86,6.43-.15.25-.31.5-.47.75-.29.45-.59.89-.91,1.31-1.6,2.12-3.45,3.58-5.1,4.74-.02-.03-.05-.05-.07-.08-.15-.17-.3-.35-.47-.53-.21-.24-.42-.48-.66-.74-.93-1.04-2.04-2.23-3.21-3.43-.35-.36-.7-.72-1.05-1.08-.76-.77-1.53-1.53-2.28-2.25-.51-.49-1.01-.96-1.49-1.4-2.06-1.88-3.77-3.18-4.38-3.05-.93.2-1.07,1.1-2.2,2.65-1.45,1.98-3.18,3.18-5.19,4.3-.08-.09-.17-.17-.25-.26-.76-.77-1.53-1.53-2.28-2.25-.51-.49-1.01-.96-1.49-1.4-2.06-1.88-3.77-3.18-4.38-3.05-.93.2-1.07,1.1-2.2,2.65-1.93,2.64-4.36,3.9-7.3,5.42-2.22,1.14-2.29.83-6.83,2.56-6.29,2.4-8.09,3.75-8.67,4.55,0,0,0,0,0,0-.03.04-.05.07-.07.1-.11.18-.17.32-.21.45-.1.34-.13.67-.12,1.02,0,.05,0,.1,0,.15.01.12.04.24.06.37.02.08.02.16.05.24.03.11.07.23.11.35.03.1.06.2.1.3.04.11.1.23.15.35.05.12.1.23.16.35.06.12.13.24.19.37.07.13.13.26.21.39.08.14.17.3.26.45.07.12.14.25.22.38.18.3.36.61.56.94.02.03.03.05.05.08.12.19.23.38.34.56.37.58.72,1.08,1.07,1.53.01.02.02.03.04.05.14.17.27.34.4.5.03.03.06.07.09.1.13.15.25.29.38.43.03.03.06.06.08.09.1.11.21.22.31.33.04.04.08.08.11.12.11.11.22.22.33.33.07.06.13.13.2.19.03.03.06.06.1.09.68.65,1.38,1.28,2.16,2.08.02.02.05.05.07.07.1.11.21.22.31.33.09.1.18.2.28.3.2.22.42.46.63.71.11.13.23.27.34.41.05.07.11.13.16.2.19.23.38.47.58.73.2.26.38.5.56.74.01.02.02.03.03.05.15.2.28.39.41.58.05.07.1.14.14.21.1.14.19.28.28.41.04.06.08.12.12.18.98,1.48,1.54,2.56,2.11,3.26.02.03.04.05.06.07.09.1.18.2.27.28.02.02.04.04.06.06.11.1.22.18.33.25.02.01.04.02.06.04.1.06.2.1.31.14.03.01.07.03.1.04.13.04.27.08.42.1.16.02.32.02.47.01,1.01-.06,1.88-.75,3.18-1.95.73-.68,1.6-1.52,2.71-2.5.08-.07.19-.17.33-.29.59-.51,1.7-1.46,3.12-2.56.04.05.08.1.13.15.19.23.38.47.58.73.2.26.38.5.56.74.01.02.02.03.03.05.15.2.28.39.41.58.05.07.1.14.14.21.1.14.19.28.28.41.04.06.08.12.12.18.98,1.48,1.54,2.56,2.11,3.26.02.03.04.05.06.07.09.1.18.2.27.28.02.02.04.04.06.06.11.1.22.18.33.25.02.01.04.02.06.04.1.06.2.1.31.14.03.01.07.03.1.04.13.04.27.08.42.1.16.02.32.02.47.01,1.01-.06,1.88-.74,3.17-1.94.74-.68,1.61-1.52,2.73-2.52.08-.07.19-.17.33-.29.86-.74,2.85-2.44,5.26-4.15,1.39-.99,2.9-1.98,4.42-2.79,1.1-.59,2.13-1.05,3.1-1.43.21.66.48,1.2.81,1.53,1.68,1.69,2.89,2.21,5.02,4.17,2.05,1.9,7.68,2.54,8.06,2.58,0,0,.01,0,.02,0,0,0,0,0,0,0,0,0,0,0,0,0,0,0,.87,2.35,1.8,3.24h0s0,0,0,0h0s.05.05.07.07c.04.03.07.06.12.09.13.09.29.17.46.22.4.13.9.16,1.46.11,2.25-.18,5.41-1.49,6.74-1.8,1.8-.43,4.25-4.29,6.89-4.79,1.83-.35,3.45-2.56,4.65-4.33h0c.53-.79.97-1.48,1.32-1.9,1.14-1.37-2.22-8.23-4.12-10.59Z"/>
            <g>
              <g>
                <path class="cls-42" d="M19.26,17.4h0s-.02.03-.05.05c-.03.03-.05.06-.08.09-1.78,1.82-3.2,3.41-3.81,4.16-1.9,2.36-5.26,9.22-4.12,10.59.35.42.79,1.11,1.32,1.9h0c1.19,1.78,2.81,3.99,4.65,4.33,2.64.5,5.08,4.36,6.89,4.79,1.33.31,4.5,1.63,6.74,1.8.56.04,1.06.02,1.46-.11.18-.05.33-.13.46-.22.04-.03.08-.06.12-.09.03-.02.05-.05.07-.07.93-.88,1.8-3.24,1.8-3.24,0,0,5.96-.62,8.09-2.59,2.13-1.97,3.34-2.48,5.02-4.17,1.68-1.7,1.91-8.95,0-10.54-1.91-1.6-5.55-3.3-8.42-7.09-.32-.43-.62-.86-.91-1.31-.16-.25-.31-.5-.47-.75-2.01-3.33-3.44-6.73-6.86-6.43-2.78.24-8.13,5.06-11.91,8.91Z"/>
                <path class="cls-37" d="M34.72,41.37s4.03-8.61,4.45-9.73c.42-1.12,2.82-7.12,5.64-6.83,2.82.29,3.61,7.88,2.96,8.42-.65.54-2.91,1.05-3.61,3.01-.72,1.99-5.01,4.5-9.44,5.13Z"/>
                <path class="cls-37" d="M19.08,17.59c-1.76,1.79-3.15,3.36-3.75,4.1-1.9,2.36-5.26,9.22-4.12,10.59.35.42.79,1.11,1.32,1.9h0c1.92,2.28,3.92,3.74,4.71,3.76s3.76,1.92,5.33,3.65c1.57,1.72,1.47.87,5.58,2.41,1.96.73,3.21.96,3.97.99.27-.05.48-.12.61-.22.04-.03.08-.06.12-.09.03-.02.05-.05.08-.07.76-.88-.93-2.53-4.17-4.6-3.46-2.2-7.56-2.13-11.27-3.87-3.71-1.74-3.14-2.15-4.63-6.32-1.34-3.8,5.06-10.95,6.23-12.22Z"/>
                <path class="cls-24" d="M12.96,34.02c1.94,2.29,3.82,3.57,4.38,3.59,1.01.02,4.11,2.11,5.64,3.79.88.96,1.12,1.03,2.16,1.29.66.16,1.65.41,3.25,1.01,1.94.72,3.12.93,3.78.96.26-.06.36-.11.39-.14.03-.02.06-.05.09-.07.01-.01.02-.02.04-.04.2-.23-.1-.69-.38-1.03-.64-.76-1.88-1.74-3.71-2.9-1.88-1.2-3.93-1.7-6.1-2.22-1.69-.41-3.45-.84-5.12-1.62-1.67-.78-2.46-1.29-3-1.95-.57-.68-.82-1.49-1.21-2.72-.17-.54-.37-1.16-.64-1.91-.19-.55-.24-1.15-.18-1.8-.72,1.82-1.09,3.39-.72,3.84.28.34.62.84,1.01,1.42l.33.49Z"/>
                <path class="cls-39" d="M40.55,19.54s-6.06,1.7-7.99,2.86-.43,6.67-2.7,7.73-5.17,7.01-5.17,7.01c0,0-7.37-.88-9.27-3.55-1.9-2.67-1.83-3.82-1.82-5.5.01-1.68,2.53-6.68,6.61-10.6,4.08-3.92,7.82-8.32,10.73-8.3,2.91.02,5.45,3.83,6.37,5.83.93,2,3.22,4.53,3.22,4.53Z"/>
                <path class="cls-32" d="M37.58,33.48l-3.54,7.51c-.35.74-1.3.94-1.92.41-.68-.59-1.54-1.29-2.24-1.73-1.41-.88-3.28-1.46-3.28-1.46,2.02.39,3.83,1.16,5.42,2.32.59.43,1.43.24,1.79-.39l3.76-6.65Z"/>
                <path class="cls-30" d="M34.86,17.72c-1.84,2.02-3.66,5.57-4.11,6.66-.44,1.09-.77,3.25-3.1,5.32-1.54,1.37-3.66,4.89-4.91,7.12-.18.31-.34.59-.47.85.68.16,1.36.33,2.04.51.63-1.16,2.76-4.81,4.27-7.06.59-.88,1.09-1.54,1.36-1.75.43-.34.89-1.24,1.33-2.34t0-.01c.59-1.5,1.13-3.38,1.45-4.71h0c.37-1.5,3.24-4.33,5.23-6.15.19-.17.38-.34.55-.49-.16-.25-.31-.5-.47-.75-.18.13-.36.27-.55.42-.84.66-1.81,1.5-2.62,2.39Z"/>
                <path class="cls-32" d="M37.94,31.86s.57-7.62,6.2-8.68c5.63-1.05,5.18,7.46,4.69,9.19-.49,1.73-4.36,4.54-4.36,4.54,0,0,.09-1.05,1.53-2.14,1.43-1.1,1.94-1.11,2.13-1.55.18-.44.57-7.71-2.09-8.88-4.63-2.04-8.09,7.52-8.09,7.52Z"/>
                <path class="cls-29" d="M41.9,37.96c-1.9,1.48-3.97,2.46-6.31,2.72l3.25-7.06c-1.67,4.68-.96,6.5,3.06,4.33Z"/>
                <path class="cls-26" d="M43.52,22.26c-.17.69-.7,1-2.44,2.01-3.37,1.96-3.41,6.77-5.98,7.47-.75.21-1.57-.09-2-.55-1.44-1.53.77-5.61,1.96-7.38,1.19-1.77,2.86-3.49,4.97-3.59,2.01-.1,3.69,1.28,3.5,2.04Z"/>
                <path class="cls-32" d="M30.8,45.1c.56.04,1.06.02,1.46-.11-.04,0-.1,0-.15,0-.35.07-.81.1-1.31.12Z"/>
                <path class="cls-27" d="M26.8,27.92c-.22-.88-1.96-.38-3.94-1.83-2.01-1.47-2.26-3.48-2.99-3.35-.7.12-.39,1.92-1.42,4.32-1.33,3.09-3.26,3.4-3.12,5.01.18,2.01,3.4,3.96,5.21,3.24.87-.34.81-1.06,1.93-2.67,2.15-3.1,4.59-3.69,4.33-4.72Z"/>
                <path class="cls-30" d="M24.76,27.74c-.1-.25-.84.12-1.72-.26-1.34-.59-1.49-2.29-1.96-2.23-.43.05-.33,1.49-.89,3.11-.93,2.68-3.03,3.9-2.83,4.14.15.18,1.21-.57,4.11-2.37,2.05-1.27,3.4-2.05,3.27-2.39Z"/>
                <path class="cls-32" d="M12.52,34.18c1.19,1.77,2.81,3.98,4.65,4.33,2.64.5,5.08,4.36,6.89,4.79,1.33.31,4.5,1.63,6.74,1.8.56.04,1.06.02,1.46-.11-.04,0-.1,0-.15,0-.76-.04-2.01-.26-3.97-.99-4.12-1.54-4.02-.69-5.58-2.41-1.57-1.72-4.54-3.63-5.33-3.65-.79-.02-2.79-1.49-4.71-3.76Z"/>
              </g>
              <path class="cls-25" d="M35.29,14.54c.36,1.01-1.08,1.66-3.65,5.36-2.97,4.28-2.95,6.17-4.62,6.51-1.98.4-4.59-1.74-5.31-4.22-.95-3.28,1.62-6.33,3.6-7.68,3.74-2.56,9.34-1.76,9.98.04Z"/>
            </g>
            <g>
              <g>
                <path class="cls-41" d="M92.44,44.02h0s.02.03.05.05c.03.03.05.06.08.09,1.78,1.82,3.2,3.41,3.81,4.16,1.9,2.36,5.26,9.22,4.12,10.59-.35.42-.79,1.11-1.32,1.9h0c-1.19,1.78-2.81,3.99-4.65,4.33-2.64.5-5.08,4.36-6.89,4.79-1.33.31-4.5,1.63-6.74,1.8-.56.04-1.06.02-1.46-.11-.18-.05-.33-.13-.46-.22-.04-.03-.08-.06-.12-.09-.03-.02-.05-.05-.07-.07-.93-.88-1.8-3.24-1.8-3.24,0,0-5.96-.62-8.09-2.59-2.13-1.97-3.34-2.48-5.02-4.17-1.68-1.7-1.91-8.95,0-10.54,1.91-1.6,5.55-3.3,8.42-7.09.32-.43.62-.86.91-1.31.16-.25.31-.5.47-.75,2.01-3.33,3.44-6.73,6.86-6.43,2.78.24,8.13,5.06,11.91,8.91Z"/>
                <path class="cls-37" d="M76.98,67.99s-4.03-8.61-4.45-9.73c-.42-1.12-2.82-7.12-5.64-6.83-2.82.29-3.61,7.88-2.96,8.42.65.54,2.91,1.05,3.61,3.01.72,1.99,5.01,4.5,9.44,5.13Z"/>
                <path class="cls-37" d="M92.62,44.21c1.76,1.79,3.15,3.36,3.75,4.1,1.9,2.36,5.26,9.22,4.12,10.59-.35.42-.79,1.11-1.32,1.9h0c-1.92,2.28-3.92,3.74-4.71,3.76-.79.02-3.76,1.92-5.33,3.65-1.57,1.72-1.47.87-5.58,2.41-1.96.73-3.21.96-3.97.99-.27-.05-.48-.12-.61-.22-.04-.03-.08-.06-.12-.09-.03-.02-.05-.05-.08-.07-.76-.88.93-2.53,4.17-4.6,3.46-2.2,7.56-2.13,11.27-3.87,3.71-1.74,3.14-2.15,4.63-6.32,1.34-3.8-5.06-10.95-6.23-12.22Z"/>
                <path class="cls-24" d="M98.73,60.64c-1.94,2.29-3.82,3.57-4.38,3.59-1.01.02-4.11,2.11-5.64,3.79-.88.96-1.12,1.03-2.16,1.29-.66.16-1.65.41-3.25,1.01-1.94.72-3.12.93-3.78.96-.26-.06-.36-.11-.39-.14-.03-.02-.06-.05-.09-.07-.01-.01-.02-.02-.04-.04-.2-.23.1-.69.38-1.03.64-.76,1.88-1.74,3.71-2.9,1.88-1.2,3.93-1.7,6.1-2.22,1.69-.41,3.45-.84,5.12-1.62,1.67-.78,2.46-1.29,3-1.95.57-.68.82-1.49,1.21-2.72.17-.54.37-1.16.64-1.91.19-.55.24-1.15.18-1.8.72,1.82,1.09,3.39.72,3.84-.28.34-.62.84-1.01,1.42l-.33.49Z"/>
                <path class="cls-39" d="M71.15,46.16s6.06,1.7,7.99,2.86.43,6.67,2.7,7.73c2.27,1.06,5.17,7.01,5.17,7.01,0,0,7.37-.88,9.27-3.55,1.9-2.67,1.83-3.82,1.82-5.5-.01-1.68-2.53-6.68-6.61-10.6-4.08-3.92-7.82-8.32-10.73-8.3s-5.45,3.83-6.37,5.83c-.93,2-3.22,4.53-3.22,4.53Z"/>
                <path class="cls-32" d="M74.12,60.1l3.54,7.51c.35.74,1.3.94,1.92.41.68-.59,1.54-1.29,2.24-1.73,1.41-.88,3.28-1.46,3.28-1.46-2.02.39-3.83,1.16-5.42,2.32-.59.43-1.43.24-1.79-.39l-3.76-6.65Z"/>
                <path class="cls-30" d="M76.84,44.35c1.84,2.02,3.66,5.57,4.11,6.66.44,1.09.77,3.25,3.1,5.32,1.54,1.37,3.66,4.89,4.91,7.12.18.31.34.59.47.85-.68.16-1.36.33-2.04.51-.63-1.16-2.76-4.81-4.27-7.06-.59-.88-1.09-1.54-1.36-1.75-.43-.34-.89-1.24-1.33-2.34t0-.01c-.59-1.5-1.13-3.38-1.45-4.71h0c-.37-1.5-3.24-4.33-5.23-6.15-.19-.17-.38-.34-.55-.49.16-.25.31-.5.47-.75.18.13.36.27.55.42.84.66,1.81,1.5,2.62,2.39Z"/>
                <path class="cls-32" d="M73.76,58.48s-.57-7.62-6.2-8.68c-5.63-1.05-5.18,7.46-4.69,9.19.49,1.73,4.36,4.54,4.36,4.54,0,0-.09-1.05-1.53-2.14-1.43-1.1-1.94-1.11-2.13-1.55s-.57-7.71,2.09-8.88c4.63-2.04,8.09,7.52,8.09,7.52Z"/>
                <path class="cls-29" d="M69.79,64.59c1.9,1.48,3.97,2.46,6.31,2.72l-3.25-7.06c1.67,4.68.96,6.5-3.06,4.33Z"/>
                <path class="cls-26" d="M68.18,48.88c.17.69.7,1,2.44,2.01,3.37,1.96,3.41,6.77,5.98,7.47.75.21,1.57-.09,2-.55,1.44-1.53-.77-5.61-1.96-7.38-1.19-1.77-2.86-3.49-4.97-3.59-2-.1-3.69,1.28-3.5,2.04Z"/>
                <path class="cls-32" d="M80.89,71.73c-.56.04-1.06.02-1.46-.11.04,0,.1,0,.15,0,.35.07.81.1,1.31.12Z"/>
                <path class="cls-27" d="M84.9,54.55c.22-.88,1.96-.38,3.94-1.83,2.01-1.47,2.26-3.48,2.99-3.35.7.12.39,1.92,1.42,4.32,1.33,3.09,3.26,3.4,3.12,5.01-.18,2.01-3.4,3.96-5.21,3.24-.87-.34-.81-1.06-1.93-2.67-2.15-3.1-4.59-3.69-4.33-4.72Z"/>
                <path class="cls-30" d="M86.94,54.36c.1-.25.84.12,1.72-.26,1.34-.59,1.49-2.29,1.96-2.23.43.05.33,1.49.89,3.11.93,2.68,3.03,3.9,2.83,4.14-.15.18-1.21-.57-4.11-2.37-2.05-1.27-3.4-2.05-3.27-2.39Z"/>
                <path class="cls-32" d="M99.17,60.8c-1.19,1.77-2.81,3.98-4.65,4.33-2.64.5-5.08,4.36-6.89,4.79-1.33.31-4.5,1.63-6.74,1.8-.56.04-1.06.02-1.46-.11.04,0,.1,0,.15,0,.76-.04,2.01-.26,3.97-.99,4.12-1.54,4.02-.69,5.58-2.41,1.57-1.72,4.54-3.63,5.33-3.65.79-.02,2.79-1.49,4.71-3.76Z"/>
              </g>
              <path class="cls-25" d="M76.4,41.17c-.36,1.01,1.08,1.66,3.65,5.36,2.97,4.28,2.95,6.17,4.62,6.51,1.98.4,4.59-1.74,5.31-4.22.95-3.28-1.62-6.33-3.6-7.68-3.74-2.56-9.34-1.76-9.98.04Z"/>
            </g>
            <g>
              <path class="cls-43" d="M83.38,16.26s2.86-8.31,9.37-8.01c6.51.3,8.88,6.09,11.11,10.52s3.86,5.53,5.63,8.19c1.77,2.66,1.67,16.92.59,17.46-1.08.54-10.82,3.12-15.88,1.29-5.06-1.84-7.95-17.31-9.73-20.48-2.58-4.58-1.09-8.97-1.09-8.97Z"/>
              <path class="cls-22" d="M93.03,44.25c-1.58-1.85-4.81-9.95-5.86-13.25-.67-2.09-1.56-4.59-2.12-6.15-.25-.7-.54-1.39-.84-2.07-.5-1.15-1.3-3.87.27-7.16.93-1.94,2-3.77,3.24-5.05,1.57-1.62,3.42-2.38,5.61-1.4,3.93,1.76,4.12,5.82,3.07,7.29-1.05,1.48-1.63,2.43-1.82,3.75-.19,1.32,1.23,5.1,1.08,6.49-.15,1.39-1.08,9.66-.06,11.63.62,1.2,4.48,3.12,7.98,4.4h.03c2.22.82,4.29,1.37,5.3,1.32,2.62-.13-6.79,1.77-9.45,1.67-2.66-.1-4.86.36-6.44-1.48Z"/>
              <path class="cls-33" d="M105.01,45.72c.34-.25.53-.51.3-.69,2.78-.49,5.08-1.06,3.62-.98-2.61.13-12.3-3.75-13.32-5.72-1.02-1.97-.09-10.24.06-11.63.15-1.39-1.27-5.17-1.08-6.49.19-1.32.77-2.27,1.82-3.75,1.05-1.48.87-5.54-3.07-7.29-3.38-1.51-5.93,1.09-7.91,4.63l1.2-2.84c1.43-1.5,3.36-2.73,5.83-2.72.02,0,.04,0,.06,0,1.24.1,2.52.6,3.61,1.87,3.57,4.12,1.98,6.83,1.19,9.67-.79,2.84-.78,3.87.75,4.65,1.52.77,6.75-1.22,7.8-.69,1.06.53,4.05,3.23,3.28,3.66-.77.43-10.02-.75-11.18.06-1.16.8-2.48,6.55-1.24,9.19,1.05,2.23,9.24,5.97,13.7,7.12-.1.37-.21.61-.33.67-.46.23-2.5.83-5.08,1.31Z"/>
              <path class="cls-38" d="M107.93,28.9c-.04.27-5.84-.46-7.8,1.7-1.78,1.96-.18,7.15-.66,7.33-.45.17-1.74-1.11-2.35-2.6-.78-1.9.11-6.36,1.21-7.12,2.27-1.56,9.64.41,9.6.69Z"/>
              <path class="cls-38" d="M103.95,22.61c-.04-.3-1.52.19-2.8-.72-2.02-1.44-1.47-4.91-2.13-4.95-.51-.03-1.04,2.1-1.23,3.18-.31,1.7-.49,2.72.05,3.37,1.35,1.61,6.17-.33,6.1-.88Z"/>
              <path class="cls-40" d="M97.27,12.41c.08-.02.72,1.42.63,3.27-.07,1.6-.69,3.34-1.14,3.31-.26-.02-.49-.63-.51-1.15-.03-.99.72-1.34,1.12-2.4.58-1.53-.18-3.02-.1-3.03Z"/>
              <path class="cls-40" d="M96.02,23.54c.19-.13.9.56,1.33,1.16.36.51.71,1,.63,1.62-.1.79-.86,1.47-1.14,1.35-.2-.08-.08-.51-.13-1.28-.11-1.74-.91-2.7-.69-2.85Z"/>
              <path class="cls-22" d="M103.59,42.74c-.8-.22-1.79-.51-2.98-.88-5.28-1.63-6.36-3.58-6.37-6.52,0-2.94.65-5.07-1.05-10.88-1.7-5.81,1.27-4.61.12-10.62-.77-4.01-3.71-3.83-5.58-3.26,1.57-1.62,3.42-2.38,5.61-1.4,3.93,1.76,4.12,5.82,3.07,7.29-1.05,1.48-1.63,2.43-1.82,3.75-.19,1.32,1.23,5.1,1.08,6.49-.15,1.39-1.08,9.66-.06,11.63.62,1.2,4.48,3.12,7.98,4.4Z"/>
              <path class="cls-28" d="M88.22,11.39c-1-.2-2.55,2.65-3.17,5.04-1.01,3.85-.07,8.29,1.09,8.42,1.06.12,2.33-3.3,2.82-5.57.74-3.43.4-7.66-.74-7.89Z"/>
              <path class="cls-28" d="M103.64,43.76c0-.59-3.51-.13-7.28-2.18-6.12-3.32-7.42-10.28-7.99-10.05-.65.26,3.12,11.02,6.03,12.69,3.95,2.28,9.23.24,9.24-.46Z"/>
              <path class="cls-23" d="M89.83,11.6c.95-.78,2.71-.98,3.93-.33,1.85.99,1.93,3.62,1.93,3.81.03,1.96-1.12,2.79-1.98,4.67-1.99,4.32.15,8.53-.31,8.65-.83.23-7.3-13.71-3.57-16.79Z"/>
            </g>
            <g>
              <path class="cls-47" d="M82.12,32.71c-4.58,2.47-9.21,6.53-10.01,7.24-3.39,3-4.54,4.68-6.37,4.44-1.35-.18-1.84-1.24-3.12-3.3-.34-.54-.73-1.15-1.21-1.83-.28-.4-.59-.83-.94-1.28-.62-.81-1.19-1.47-1.72-2.05-.52-.58-1.01-1.07-1.48-1.51-1.59-1.52-2.88-2.55-4.47-5.04-.11-.18-.23-.36-.34-.56-.04-.07-.08-.13-.12-.2-1.54-2.54-2.36-3.98-1.89-5.53.2-.67.86-2.02,8.95-5.11,4.53-1.73,4.61-1.41,6.83-2.56,2.94-1.52,5.37-2.77,7.3-5.42,1.13-1.55,1.28-2.45,2.2-2.65.61-.13,2.32,1.17,4.38,3.05.48.44.99.91,1.49,1.4.75.72,1.52,1.48,2.28,2.25.35.36.7.72,1.05,1.08,1.16,1.2,2.27,2.39,3.21,3.43.23.25.45.5.66.74.16.18.32.36.47.53,3.58,4.13,5.37,6.2,4.91,7.8-.74,2.56-5.14,1.34-12.06,5.08Z"/>
              <path class="cls-32" d="M90.33,21.62c-2.38-2.19-4.83-4.45-5.39-5.03-.34-.35-.68-.71-1.03-1.06-.75-.76-1.5-1.5-2.24-2.21-.5-.48-.99-.94-1.47-1.38-2.02-1.84-3.7-3.12-4.3-2.99-.91.2-1.05,1.08-2.16,2.6-1.13,1.54-2.79,2.29-4.56,2.95,1.73-1.01,3.23-2.14,4.52-3.89,1.11-1.52,1.25-2.4,2.16-2.6.6-.13,2.28,1.15,4.3,2.99.47.43.97.89,1.47,1.38.74.7,1.49,1.45,2.24,2.21.35.35.69.7,1.03,1.06,1.14,1.18,2.23,2.35,3.15,3.37.23.25.44.49.65.72.16.18.32.36.46.52.42.48.81.93,1.18,1.36Z"/>
              <path class="cls-32" d="M61.39,34.92c-3.46-4.49-5.21-4.59-7.86-8.98.98,1.21,2.16,2.6,2.73,3.01,1.08.78,4.33,3.67,6.23,6.46,1.9,2.79,2.88,5.43,4.67,5.28,1.79-.15,4.3-4.24,8.73-7.58,2.56-1.93,6.52-3.57,9.4-4.62-.84.34-1.73.76-2.66,1.26-4.49,2.42-9.03,6.41-9.82,7.1-3.32,2.94-4.46,4.59-6.25,4.36-1.88-.25-2.06-2.25-5.17-6.29Z"/>
              <g class="cls-31">
                <path class="cls-35" d="M81.61,11.82c-.99,1.28-2.08,2.47-3.33,3.51-1.25,1.04-2.65,1.88-4.15,2.51-1.47.61-3,1.07-4.48,1.65-1.5.6-2.85,1.39-4.13,2.36-1.32,1.01-2.55,2.13-3.86,3.15-2.53,1.97-5.42,3.3-8.46,4.26-.13.04-.27.08-.4.12-.11-.18-.23-.36-.34-.56-.04-.07-.08-.13-.12-.2,0,0,.02,0,.03,0,1.43-.51,2.83-1.12,4.15-1.86,1.36-.77,2.6-1.72,3.8-2.72,1.25-1.04,2.47-2.12,3.83-3.02,1.36-.91,2.83-1.56,4.37-2.11,1.48-.54,2.99-1.01,4.41-1.71,1.39-.69,2.64-1.63,3.76-2.7,1.29-1.23,2.4-2.62,3.43-4.07.48.44.99.91,1.49,1.4Z"/>
              </g>
              <g class="cls-31">
                <path class="cls-35" d="M84.95,15.14c-.76.61-1.49,1.28-2.21,1.93-2.04,1.84-4.02,3.75-6.23,5.39-1.14.85-2.33,1.6-3.6,2.25-1.26.65-2.56,1.21-3.82,1.86-4.17,2.16-7.74,5.44-10.33,9.36-.52-.58-1.01-1.07-1.48-1.51,1.11-1.46,2.37-2.81,3.74-4.04,2.14-1.9,4.56-3.41,7.14-4.64,1.31-.63,2.65-1.22,3.89-1.99,1.2-.74,2.33-1.59,3.42-2.48,2.21-1.82,4.24-3.85,6.43-5.69.63-.54,1.29-1.07,2-1.51.35.36.7.72,1.05,1.08Z"/>
              </g>
              <g class="cls-31">
                <path class="cls-35" d="M88.81,19.31c-.28.1-.55.21-.82.32-.63.26-1.24.53-1.85.82-1.25.59-2.49,1.21-3.65,1.96-1.24.79-2.32,1.74-3.29,2.84-1.93,2.2-3.43,4.76-5.69,6.67-2.11,1.77-4.58,3.03-6.76,4.69-1.14.87-2.17,1.86-3.06,2.99-.38.49-.74.99-1.07,1.51-.34-.54-.73-1.15-1.21-1.83.94-1.14,2.03-2.12,3.23-2.99,2.29-1.67,4.86-2.97,6.95-4.91,2.24-2.08,3.72-4.83,5.88-6.99,1.07-1.07,2.32-1.92,3.64-2.67,1.24-.71,2.53-1.34,3.85-1.91,1.04-.46,2.1-.87,3.18-1.21.23.25.45.5.66.74Z"/>
              </g>
              <path class="cls-24" d="M82.12,32.71c-4.58,2.47-9.21,6.53-10.01,7.24-3.39,3-4.54,4.68-6.37,4.44-1.92-.25-2.1-2.29-5.27-6.42-3.52-4.58-5.31-4.68-8.01-9.15-1.61-2.67-2.5-4.14-2.01-5.73.07-.23.2-.56.7-1.01-.84,1.27.98,2.39,2.07,4.2,2.7,4.48,4.49,4.57,8.01,9.15,3.17,4.12,3.35,6.16,5.27,6.41,1.83.24,2.99-1.45,6.37-4.44.8-.71,5.43-4.77,10.01-7.24,5.56-3,10.81-.93,11.2-3.93.18.52.22.97.1,1.39-.75,2.56-5.14,1.34-12.06,5.08Z"/>
              <path class="cls-25" d="M63.18,33.63c-.3.05-.81-.19-1.44-.64-3.1-2.18-9.24-9.24-9.2-9.87.04-.72,4.07-2.73,8-4.4,3.58-1.52,7.1-2.76,7.49-2.48.81.6-2.32,2.15-3.89,7.72-1.93,6.82.22,9.46-.95,9.66Z"/>
              <path class="cls-25" d="M61.75,32.99c-3.1-2.18-9.24-9.24-9.2-9.87.04-.72,4.07-2.73,8-4.4-2.61,1.62-5.21,4.17-3.73,7.48,1.22,2.74,3.18,5.07,4.94,6.79Z"/>
              <path class="cls-39" d="M75.99,11.84c1.77-.54,3.15,5.89,9.88,10.25,2.82,1.83,5.26,2.44,5.12,3.34-.16,1.05-3.53.66-7.62,1.91-7.19,2.21-11.01,7.83-11.7,7.2-.63-.56,3.59-4.2,3.6-9.86,0-1.98-.51-2.32-.61-5.28-.06-1.76-.23-7.09,1.33-7.57Z"/>
            </g>
            <g>
              <path class="cls-46" d="M44.16,61.13c-4.58,2.47-9.21,6.53-10.01,7.24-3.39,3-4.54,4.68-6.37,4.44-1.35-.18-1.84-1.24-3.12-3.3-.34-.54-.73-1.15-1.21-1.83-.28-.4-.59-.83-.94-1.28-.62-.81-1.19-1.47-1.72-2.05-.52-.58-1.01-1.07-1.48-1.51-1.59-1.52-2.88-2.55-4.47-5.04-.11-.18-.23-.36-.34-.56-.04-.07-.08-.13-.12-.2-1.54-2.54-2.36-3.98-1.89-5.53.2-.67.86-2.02,8.95-5.11,4.53-1.73,4.61-1.41,6.83-2.56,2.94-1.52,5.37-2.77,7.3-5.42,1.13-1.55,1.28-2.45,2.2-2.65.61-.13,2.32,1.17,4.38,3.05.48.44.98.91,1.49,1.4.75.72,1.52,1.48,2.28,2.25.35.36.7.72,1.05,1.08,1.16,1.2,2.27,2.39,3.21,3.43.23.25.45.5.66.74.16.18.32.36.47.53,3.58,4.13,5.37,6.2,4.91,7.8-.74,2.56-5.14,1.34-12.06,5.08Z"/>
              <path class="cls-32" d="M52.37,50.04c-2.38-2.19-4.83-4.45-5.39-5.03-.34-.35-.68-.71-1.03-1.06-.75-.76-1.5-1.5-2.24-2.21-.5-.48-.99-.94-1.47-1.38-2.02-1.84-3.7-3.12-4.3-2.99-.91.2-1.05,1.08-2.16,2.6-1.13,1.54-2.79,2.29-4.56,2.95,1.73-1.01,3.23-2.14,4.52-3.89,1.11-1.52,1.25-2.4,2.16-2.6.6-.13,2.28,1.15,4.3,2.99.47.43.97.89,1.47,1.38.74.7,1.49,1.45,2.24,2.21.35.35.69.7,1.03,1.06,1.14,1.18,2.23,2.35,3.15,3.37.23.25.44.49.65.72.16.18.32.36.46.52.42.48.81.93,1.18,1.36Z"/>
              <path class="cls-32" d="M23.43,63.34c-3.46-4.49-5.21-4.59-7.86-8.98.98,1.21,2.16,2.6,2.73,3.01,1.08.78,4.33,3.67,6.23,6.46,1.9,2.79,2.88,5.43,4.67,5.28,1.79-.15,4.3-4.24,8.73-7.58,2.56-1.93,6.52-3.57,9.4-4.62-.84.34-1.73.76-2.66,1.26-4.49,2.42-9.03,6.41-9.82,7.1-3.32,2.94-4.46,4.59-6.25,4.36-1.88-.25-2.06-2.25-5.17-6.29Z"/>
              <g class="cls-31">
                <path class="cls-35" d="M43.66,40.24c-.99,1.28-2.08,2.47-3.33,3.51-1.25,1.04-2.65,1.88-4.15,2.51-1.47.61-3,1.07-4.48,1.65-1.5.6-2.85,1.39-4.13,2.36-1.32,1.01-2.55,2.13-3.86,3.15-2.53,1.97-5.42,3.3-8.46,4.26-.13.04-.27.08-.4.12-.11-.18-.23-.36-.34-.56-.04-.07-.08-.13-.12-.2,0,0,.02,0,.03,0,1.43-.51,2.83-1.12,4.15-1.86,1.36-.77,2.6-1.72,3.8-2.72,1.25-1.04,2.47-2.12,3.83-3.02,1.36-.91,2.83-1.56,4.37-2.11,1.48-.54,2.99-1.01,4.41-1.71,1.39-.69,2.64-1.63,3.76-2.7,1.29-1.23,2.4-2.62,3.43-4.07.48.44.98.91,1.49,1.4Z"/>
              </g>
              <g class="cls-31">
                <path class="cls-35" d="M46.99,43.56c-.76.61-1.49,1.28-2.21,1.93-2.04,1.84-4.02,3.75-6.23,5.39-1.14.85-2.34,1.6-3.6,2.25-1.26.65-2.56,1.21-3.82,1.87-4.17,2.16-7.74,5.44-10.33,9.36-.52-.58-1.01-1.07-1.48-1.51,1.11-1.46,2.37-2.81,3.74-4.04,2.14-1.9,4.56-3.41,7.14-4.64,1.31-.63,2.65-1.22,3.89-1.99,1.2-.74,2.33-1.59,3.42-2.48,2.21-1.82,4.24-3.85,6.43-5.69.63-.54,1.29-1.07,2-1.51.35.36.7.72,1.05,1.08Z"/>
              </g>
              <g class="cls-31">
                <path class="cls-35" d="M50.85,47.73c-.28.1-.55.21-.82.32-.63.26-1.24.53-1.85.82-1.25.59-2.49,1.21-3.65,1.96-1.24.79-2.32,1.74-3.29,2.84-1.93,2.2-3.43,4.76-5.69,6.67-2.11,1.77-4.58,3.03-6.76,4.69-1.14.87-2.17,1.86-3.06,2.99-.38.49-.74.99-1.07,1.51-.34-.54-.73-1.15-1.21-1.83.94-1.14,2.03-2.12,3.23-2.99,2.29-1.67,4.86-2.97,6.95-4.91,2.24-2.08,3.72-4.83,5.88-6.99,1.07-1.07,2.32-1.92,3.64-2.67,1.24-.71,2.53-1.34,3.85-1.91,1.04-.46,2.1-.87,3.18-1.21.23.25.45.5.66.74Z"/>
              </g>
              <path class="cls-24" d="M44.17,61.13c-4.58,2.47-9.21,6.53-10.01,7.24-3.39,3-4.54,4.68-6.37,4.44-1.92-.25-2.1-2.29-5.27-6.42-3.52-4.58-5.31-4.68-8.01-9.15-1.61-2.67-2.5-4.14-2.01-5.73.07-.23.2-.56.7-1.01-.84,1.27.98,2.39,2.07,4.2,2.7,4.48,4.49,4.57,8.01,9.15,3.17,4.12,3.35,6.16,5.27,6.41,1.83.24,2.99-1.45,6.37-4.44.8-.71,5.43-4.77,10.01-7.24,5.56-3,10.81-.93,11.2-3.93.18.52.22.97.1,1.39-.75,2.56-5.14,1.34-12.06,5.08Z"/>
              <path class="cls-25" d="M25.22,62.05c-.3.05-.81-.19-1.44-.64-3.1-2.18-9.24-9.24-9.2-9.87.04-.72,4.07-2.73,8-4.4,3.58-1.52,7.1-2.76,7.49-2.48.81.6-2.32,2.15-3.89,7.72-1.93,6.82.22,9.46-.95,9.66Z"/>
              <path class="cls-25" d="M23.79,61.41c-3.1-2.18-9.24-9.24-9.2-9.87.04-.72,4.07-2.73,8-4.4-2.61,1.62-5.21,4.17-3.73,7.48,1.22,2.74,3.18,5.07,4.94,6.79Z"/>
              <path class="cls-39" d="M38.03,40.26c1.77-.54,3.15,5.89,9.88,10.25,2.82,1.83,5.26,2.44,5.12,3.34-.16,1.05-3.53.66-7.62,1.91-7.19,2.21-11.01,7.83-11.7,7.2-.63-.56,3.59-4.2,3.6-9.86,0-1.98-.51-2.32-.61-5.28-.06-1.76-.23-7.09,1.33-7.57Z"/>
            </g>
            <g>
              <path class="cls-45" d="M59.97,61.13c-4.58,2.47-9.21,6.53-10.01,7.24-3.39,3-4.54,4.68-6.37,4.44-1.35-.18-1.84-1.24-3.12-3.3-.34-.54-.73-1.15-1.21-1.83-.28-.4-.59-.83-.94-1.28-.62-.81-1.19-1.47-1.72-2.05-.52-.58-1.01-1.07-1.48-1.51-1.59-1.52-2.88-2.55-4.47-5.04-.11-.18-.23-.36-.34-.56-.04-.07-.08-.13-.12-.2-1.54-2.54-2.36-3.98-1.89-5.53.2-.67.86-2.02,8.95-5.11,4.53-1.73,4.61-1.41,6.83-2.56,2.94-1.52,5.37-2.77,7.3-5.42,1.13-1.55,1.28-2.45,2.2-2.65.61-.13,2.32,1.17,4.38,3.05.48.44.98.91,1.49,1.4.75.72,1.52,1.48,2.28,2.25.35.36.7.72,1.05,1.08,1.16,1.2,2.27,2.39,3.21,3.43.23.25.45.5.66.74.16.18.32.36.47.53,3.58,4.13,5.37,6.2,4.91,7.8-.74,2.56-5.14,1.34-12.06,5.08Z"/>
              <path class="cls-32" d="M68.17,50.04c-2.38-2.19-4.83-4.45-5.39-5.03-.34-.35-.68-.71-1.03-1.06-.75-.76-1.5-1.5-2.24-2.21-.5-.48-.99-.94-1.47-1.38-2.02-1.84-3.7-3.12-4.3-2.99-.91.2-1.05,1.08-2.16,2.6-1.13,1.54-2.79,2.29-4.56,2.95,1.73-1.01,3.23-2.14,4.52-3.89,1.11-1.52,1.25-2.4,2.16-2.6.6-.13,2.28,1.15,4.3,2.99.47.43.97.89,1.47,1.38.74.7,1.49,1.45,2.24,2.21.35.35.69.7,1.03,1.06,1.14,1.18,2.23,2.35,3.15,3.37.23.25.44.49.65.72.16.18.32.36.46.52.42.48.81.93,1.18,1.36Z"/>
              <path class="cls-32" d="M39.23,63.34c-3.46-4.49-5.21-4.59-7.86-8.98.98,1.21,2.16,2.6,2.73,3.01,1.08.78,4.33,3.67,6.23,6.46,1.9,2.79,2.88,5.43,4.67,5.28,1.79-.15,4.3-4.24,8.73-7.58,2.56-1.93,6.52-3.57,9.4-4.62-.84.34-1.73.76-2.66,1.26-4.49,2.42-9.03,6.41-9.82,7.1-3.32,2.94-4.46,4.59-6.25,4.36-1.88-.25-2.06-2.25-5.17-6.29Z"/>
              <g class="cls-31">
                <path class="cls-35" d="M59.46,40.24c-.99,1.28-2.08,2.47-3.33,3.51-1.25,1.04-2.65,1.88-4.15,2.51-1.47.61-3,1.07-4.48,1.65-1.5.6-2.85,1.39-4.13,2.36-1.32,1.01-2.55,2.13-3.86,3.15-2.53,1.97-5.42,3.3-8.46,4.26-.13.04-.27.08-.4.12-.11-.18-.23-.36-.34-.56-.04-.07-.08-.13-.12-.2,0,0,.02,0,.03,0,1.43-.51,2.83-1.12,4.15-1.86,1.36-.77,2.6-1.72,3.8-2.72,1.25-1.04,2.47-2.12,3.83-3.02,1.36-.91,2.83-1.56,4.37-2.11,1.48-.54,2.99-1.01,4.41-1.71,1.39-.69,2.64-1.63,3.76-2.7,1.29-1.23,2.4-2.62,3.43-4.07.48.44.98.91,1.49,1.4Z"/>
              </g>
              <g class="cls-31">
                <path class="cls-35" d="M62.79,43.56c-.76.61-1.49,1.28-2.21,1.93-2.04,1.84-4.02,3.75-6.23,5.39-1.14.85-2.34,1.6-3.6,2.25-1.26.65-2.56,1.21-3.82,1.87-4.17,2.16-7.74,5.44-10.33,9.36-.52-.58-1.01-1.07-1.48-1.51,1.11-1.46,2.37-2.81,3.74-4.04,2.14-1.9,4.56-3.41,7.14-4.64,1.31-.63,2.65-1.22,3.89-1.99,1.2-.74,2.33-1.59,3.42-2.48,2.21-1.82,4.24-3.85,6.43-5.69.63-.54,1.29-1.07,2-1.51.35.36.7.72,1.05,1.08Z"/>
              </g>
              <g class="cls-31">
                <path class="cls-35" d="M66.65,47.73c-.28.1-.55.21-.82.32-.63.26-1.24.53-1.85.82-1.25.59-2.49,1.21-3.65,1.96-1.24.79-2.32,1.74-3.29,2.84-1.93,2.2-3.43,4.76-5.69,6.67-2.11,1.77-4.58,3.03-6.76,4.69-1.14.87-2.17,1.86-3.06,2.99-.38.49-.74.99-1.07,1.51-.34-.54-.73-1.15-1.21-1.83.94-1.14,2.03-2.12,3.23-2.99,2.29-1.67,4.86-2.97,6.95-4.91,2.24-2.08,3.72-4.83,5.88-6.99,1.07-1.07,2.32-1.92,3.64-2.67,1.24-.71,2.53-1.34,3.85-1.91,1.04-.46,2.1-.87,3.18-1.21.23.25.45.5.66.74Z"/>
              </g>
              <path class="cls-24" d="M59.97,61.13c-4.58,2.47-9.21,6.53-10.01,7.24-3.39,3-4.54,4.68-6.37,4.44-1.92-.25-2.1-2.29-5.27-6.42-3.52-4.58-5.31-4.68-8.01-9.15-1.61-2.67-2.5-4.14-2.01-5.73.07-.23.2-.56.7-1.01-.84,1.27.98,2.39,2.07,4.2,2.7,4.48,4.49,4.57,8.01,9.15,3.17,4.12,3.35,6.16,5.27,6.41,1.83.24,2.99-1.45,6.37-4.44.8-.71,5.43-4.77,10.01-7.24,5.56-3,10.81-.93,11.2-3.93.18.52.22.97.1,1.39-.75,2.56-5.14,1.34-12.06,5.08Z"/>
              <path class="cls-25" d="M41.03,62.05c-.3.05-.81-.19-1.44-.64-3.1-2.18-9.24-9.24-9.2-9.87.04-.72,4.07-2.73,8-4.4,3.58-1.52,7.1-2.76,7.49-2.48.81.6-2.32,2.15-3.89,7.72-1.93,6.82.22,9.46-.95,9.66Z"/>
              <path class="cls-25" d="M39.59,61.41c-3.1-2.18-9.24-9.24-9.2-9.87.04-.72,4.07-2.73,8-4.4-2.61,1.62-5.21,4.17-3.73,7.48,1.22,2.74,3.18,5.07,4.94,6.79Z"/>
              <path class="cls-39" d="M53.83,40.26c1.77-.54,3.15,5.89,9.88,10.25,2.82,1.83,5.26,2.44,5.12,3.34-.16,1.05-3.53.66-7.62,1.91-7.19,2.21-11.01,7.83-11.7,7.2-.63-.56,3.59-4.2,3.6-9.86,0-1.98-.51-2.32-.61-5.28-.06-1.76-.23-7.09,1.33-7.57Z"/>
            </g>
          </g>
          <path class="cls-16" d="M119.99,43.16c-.03,10.66-.59,21.21-1.73,31.63-.14,1.3-.7,2.47-1.52,3.39-1.03,1.15-2.5,1.89-4.12,2-7.81.52-15.64.92-23.48,1.21h0c-8.19.3-16.39.47-24.61.51-9.01.05-18.04-.06-27.07-.32-5.24-.15-10.47-.36-15.72-.61-1.99-.1-3.98-.2-5.97-.31-2.57-.15-5.14-.3-7.71-.47-2.88-.19-5.25-2.37-5.63-5.24-.47-3.52-.88-7.02-1.2-10.5C.47,56.79.07,49.23.01,41.76c-.03-4.32.05-8.62.26-12.88.01-.3.02-.6.03-.9,0-.03,0-.06,0-.1.36-6.92,1.04-13.75,2.05-20.5.13-.86.44-1.66.89-2.36.71-1.11,1.77-1.97,3.03-2.43.17-.06.35-.12.53-.16.32-.09.65-.15.99-.18,9.44-.84,18.91-1.43,28.41-1.8C44.74.12,53.3-.02,61.89.02c5.25.02,10.52.11,15.8.27,7.95.23,15.93.62,23.92,1.15,3.67.24,7.36.51,11.04.82.26.02.52.06.77.12,1.45.31,2.71,1.12,3.58,2.26.66.86,1.1,1.91,1.21,3.05.44,4.3.79,8.57,1.06,12.82.04.52.07,1.03.1,1.55.02.36.05.72.06,1.09.23,3.93.39,7.84.48,11.73.04,1.67.06,3.33.07,4.98,0,.2,0,.4,0,.6,0,.9,0,1.8,0,2.7Z"/>
          <path class="cls-40" d="M9.6,9.07c.3.07.12,3.39-.51,8.65-1.44,11.95-.87,19.49-1.35,19.53-.5.04-2.65-7.74-1.42-16.92.81-6.04,2.91-11.35,3.28-11.26Z"/>
          <path class="cls-40" d="M114.71,62.09c.06,0,.69,10.59-4.18,12.85-5.92,2.75-15.78,2.09-15.77,1.95.02-.17,14.95,3.21,19.82-1.46,3.57-3.43.05-13.33.13-13.34Z"/>
          <path class="cls-34" d="M117.44,11.66c-.09-.9-.18-1.8-.27-2.71-.11-1.1-.52-2.1-1.15-2.93-.98-1.29-2.48-2.16-4.19-2.31C80.84,1.15,50.18.81,19.9,3c-1.88.13-3.75.28-5.62.43-1.11.09-2.21.19-3.32.28-2.67.24-4.83,2.28-5.23,4.93-3.06,20.46-2.95,41.7-.13,63.62.06.46.12.92.18,1.38.31,2.29,1.94,4.13,4.08,4.79.43.14.88.22,1.34.25,1.92.13,3.84.24,5.76.36.74.05,1.47.09,2.21.13,30.79,1.71,61.37,1.57,91.77-.41.28-.02.57-.04.85-.06,2.83-.19,5.12-2.36,5.43-5.18.12-1.08.23-2.15.33-3.23,1.86-19.13,1.75-38.69-.12-58.61ZM116.77,69.83c-.1,1.07-.21,2.15-.33,3.22-.31,2.78-2.57,4.93-5.35,5.11-.24.02-.47.03-.71.05-30.09,1.98-60.36,2.11-90.84.4-.67-.03-1.34-.07-2.01-.11-.74-.04-1.49-.09-2.23-.13-.16-.26-.44-.62-.71-.76-.43-.22-1.01.22-1.23.22-.19,0,.18-1.28.05-2.19-.03-.17-.07-.33-.14-.46-.44-.85-3.62,1.56-3.62,1.56,0,0-.19-.41-.77-.95-.58-.55-.77-.18-1.01-.37-.24-.19-.22-1.09-.36-1.45-.09-.22-.52-.31-.85-.34-.03-.15-.06-.29-.08-.44-.06-.43-.11-.85-.16-1.28-2.8-21.63-2.91-42.61.11-62.81.39-2.61,2.53-4.62,5.16-4.86.56-.05,1.12-.09,1.68-.14.26.14.66.33,1.06.4.19.03.39.04.56,0,.81-.16.39-.27,1.22-.28.84-.01,1.84,1.63,3.02,1.18.25-.09.45-.22.62-.36.64-.53.84-1.25,1.47-1.12.81.16,1.42.55,1.71.41.29-.13,2-.97,2.96-.84.97.13,2.83.04,3.31-.01.45-.05,1.88-.57,2.05-.63,26.32-1.36,52.92-.84,79.78,1.38.21.02.41.05.61.09.02.3.13.76.48.85.54.13,1.12,0,1.38.42.26.42-.9,1.55-.26,1.93.26.15.59.11.9.02.48-.13.93-.36,1.06-.19.23.29-.13.55,0,.87.13.32.71.43.71,1.03s-.55,1.15-.45,1.77c.1.61.65,1.02.71,1.38.02.1,0,.19-.04.28-.08.21-.22.4,0,.74.18.27.43.59.62.81,1.66,18.88,1.69,37.43-.07,55.58Z"/>
          <path class="cls-15" d="M16.92,72.84l-3.52,2.79-3.54,2.8c-2.14-.65-3.77-2.5-4.08-4.79-.06-.46-.13-.92-.18-1.38l.79-.35,2.82-1.26s-2.17,1.8-1.38,2.19c.76.37,12.77-5.45,13.86-5.98-1.11.58-13.27,6.94-11.53,7.32,1.77.39,6.5-1.24,6.76-1.34Z"/>
          <path class="cls-3" d="M117.56,70.27c-.1,1.08-.21,2.15-.33,3.23-.31,2.82-2.6,5-5.43,5.18-.28.02-.57.04-.85.06l-.57-.54-7.71-7.29c.39.29,7.4,5.48,10.08,4.17,2.69-1.31-10.78-10.98-11.55-11.53.59.38,8.72,5.57,10.58,6.1,1.93.55-2.4-4.03-2.4-4.03l7.39,4.2.78.44Z"/>
          <path class="cls-7" d="M117.44,11.66l-1.22,1.04-4.59,3.96c.16-.16,2.99-2.86,2.93-4.25-.06-1.44-7.3,4.2-7.71,4.52.39-.4,7.07-7.24,7.04-7.87-.02-.62-6.45,4.6-1.67.19l2.01-1.71,1.8-1.52c.63.83,1.04,1.83,1.15,2.93.09.9.18,1.81.27,2.71Z"/>
          <path class="cls-14" d="M19.9,3l-.07,2.04-.18,5.37s-.15-1.8-.87-1.95c-.68-.14-.43,6.82-.39,7.66-.09-.95-.88-9.86-2.12-10.69-1.3-.87-1.15,4.98-1.15,4.98l-.71-5.92-.13-1.06c1.88-.15,3.75-.3,5.62-.43Z"/>
          <path class="cls-12" d="M23.45,72.64l-3.92,5.96-.36.56c-.73-.04-1.47-.08-2.21-.13l.56-.55,5.93-5.85Z"/>
          <path class="cls-6" d="M61.19,36.64l-39.45,44.31c-1.99-.1-3.98-.2-5.97-.31-2.57-.15-5.14-.3-7.71-.47-2.88-.19-5.25-2.37-5.63-5.24-.47-3.52-.88-7.02-1.2-10.5l56.06-30.02,2.76,1.57,1.15.65Z"/>
          <path class="cls-8" d="M61.19,36.64l-39.45,44.31c-1.99-.1-3.98-.2-5.97-.31l44.27-44.65,1.15.65Z"/>
          <path class="cls-10" d="M36.21.44c-.41,11.5-2.51,33.96-12.46,35.39C12.18,37.5,7.8,10.02,6.81,2.43c.32-.09.65-.15.99-.18,1.97-.18,3.95-.34,5.93-.49,2.7-.21,5.4-.4,8.1-.57,4.1-.27,8.22-.48,12.33-.65.21-.01.41-.02.63-.03.47-.02.95-.04,1.42-.06Z"/>
          <path class="cls-17" d="M119.91,34.87l-54.88,3.58-3.84.25-.29-1.39-.24-1.19,5.64-1.5h0s52.97-14.11,52.97-14.11c.04.52.07,1.03.1,1.55.02.36.05.72.06,1.09.23,3.93.39,7.84.48,11.73Z"/>
          <path class="cls-9" d="M119.99,43.16l-58.58-1.46-.39-1.27,58.96-.57c0,.2,0,.4,0,.6,0,.9,0,1.8,0,2.7Z"/>
          <path class="cls-18" d="M77.68.28l-11.39,34.33-.5,1.51-.77,2.32-.26.78-11.73,1.28L61.89.02c5.25.02,10.52.11,15.8.27Z"/>
          <path class="cls-19" d="M119.43,23.14l-53.64,12.98-4.9,1.19-.24-1.19,5.64-1.5h0s52.97-14.11,52.97-14.11c.04.52.07,1.03.1,1.55.02.36.05.72.06,1.09Z"/>
          <path class="cls-2" d="M116.74,78.18c-.7.78-1.6,1.37-2.61,1.71-.48.15-.98.26-1.51.29-5.47.36-10.95.67-16.44.92-2.34.11-4.7.2-7.04.29h0c-8.34-7.88-22.83-22.78-21.09-29.76.15-.59.41-1.12.8-1.59,2.39-2.85,9.33.04,17.35,5.01,0,0,.02.01.02.02,11.21,6.96,24.53,18,30.53,23.11Z"/>
          <path class="cls-11" d="M36.21.44c-.41,11.5-2.51,33.96-12.46,35.39C12.18,37.5,7.8,10.02,6.81,2.43c.32-.09.65-.15.99-.18,1.97-.18,3.95-.34,5.93-.49.13,9.58,1.28,40.11,11.04,32.85,9.48-7.06,10.1-27.19,10.02-34.1.47-.02.95-.04,1.42-.06Z"/>
          <path class="cls-13" d="M96.18,81.09c-2.34.11-4.7.2-7.04.29h0c-8.34-7.88-22.83-22.78-21.09-29.76,3.22,8.04,22.25,24.5,28.14,29.47Z"/>
          <path class="cls-20" d="M116.74,78.18c-.7.78-1.6,1.37-2.61,1.71-6.13-6.11-17.72-17.25-27.91-24.82,11.21,6.96,24.53,18,30.53,23.11Z"/>
          <path class="cls-5" d="M34.16.53c-.65,7.74-3.22,34.06-7.37,27.4-3.56-5.71-4.64-19.7-4.97-26.74,4.1-.27,8.22-.48,12.33-.65Z"/>
          <path class="cls-4" d="M37.58,73.02c.6,2.16,57.27,3.93,63.51-.48,7.85-5.56,12.19-18.65,7.91-23.94-10.37-12.83-73.21,18-71.43,24.42Z"/>
          <path class="cls-1" d="M84.95,68.17c-15.3-.9-30,1.88-29.92,2.99.14,1.95,45.48,1.16,45.56-.68.04-.85-9.71-1.97-15.64-2.32Z"/>
        </g>
      </g>
    </g>
  </g>
</svg>