<?xml version="1.0" encoding="UTF-8"?>
<svg xmlns="http://www.w3.org/2000/svg" xmlns:xlink="http://www.w3.org/1999/xlink" viewBox="0 0 120 78.86">
  <defs>
    <style>
      .cls-1 {
        fill: url(#linear-gradient-24);
      }

      .cls-1, .cls-2, .cls-3, .cls-4, .cls-5, .cls-6, .cls-7, .cls-8, .cls-9, .cls-10, .cls-11, .cls-12, .cls-13, .cls-14, .cls-15, .cls-16, .cls-17, .cls-18, .cls-19, .cls-20, .cls-21, .cls-22 {
        mix-blend-mode: screen;
      }

      .cls-1, .cls-23, .cls-24 {
        opacity: .5;
      }

      .cls-25 {
        fill: #431a74;
        mix-blend-mode: multiply;
      }

      .cls-25, .cls-26 {
        opacity: .2;
      }

      .cls-2 {
        fill: url(#linear-gradient-21);
      }

      .cls-2, .cls-5, .cls-7, .cls-8, .cls-9, .cls-10, .cls-11, .cls-16, .cls-17, .cls-18, .cls-19, .cls-21 {
        opacity: .3;
      }

      .cls-27 {
        fill: url(#linear-gradient-2);
      }

      .cls-3 {
        fill: url(#linear-gradient-10);
      }

      .cls-3, .cls-4, .cls-6, .cls-12, .cls-20 {
        opacity: .6;
      }

      .cls-4 {
        fill: url(#linear-gradient-7);
      }

      .cls-5 {
        fill: url(#linear-gradient-14);
      }

      .cls-28, .cls-29 {
        fill: #fff;
      }

      .cls-6 {
        fill: url(#linear-gradient-11);
      }

      .cls-30 {
        fill: url(#linear-gradient-4);
      }

      .cls-26 {
        fill: #700000;
        mix-blend-mode: hard-light;
      }

      .cls-7 {
        fill: url(#linear-gradient-15);
      }

      .cls-8 {
        fill: url(#linear-gradient-18);
      }

      .cls-31 {
        fill: url(#linear-gradient-3);
      }

      .cls-9 {
        fill: url(#linear-gradient-16);
      }

      .cls-32 {
        isolation: isolate;
      }

      .cls-10 {
        fill: url(#linear-gradient-22);
      }

      .cls-11 {
        fill: url(#linear-gradient-23);
      }

      .cls-33 {
        fill: #ffffc0;
      }

      .cls-33, .cls-29 {
        mix-blend-mode: soft-light;
      }

      .cls-12 {
        fill: url(#linear-gradient-9);
      }

      .cls-13 {
        fill: url(#radial-gradient);
        opacity: .35;
      }

      .cls-14 {
        fill: url(#linear-gradient-6);
      }

      .cls-14, .cls-15 {
        opacity: .25;
      }

      .cls-15 {
        fill: url(#linear-gradient-5);
      }

      .cls-16 {
        fill: url(#linear-gradient-12);
      }

      .cls-17 {
        fill: url(#linear-gradient-17);
      }

      .cls-18 {
        fill: url(#linear-gradient-13);
      }

      .cls-23 {
        fill: url(#_Áåçûìÿííûé_ãðàäèåíò_15-2);
      }

      .cls-23, .cls-24 {
        mix-blend-mode: color-burn;
      }

      .cls-19 {
        fill: url(#linear-gradient-19);
      }

      .cls-20 {
        fill: url(#linear-gradient-8);
      }

      .cls-21 {
        fill: url(#linear-gradient-20);
      }

      .cls-22 {
        fill: url(#linear-gradient-25);
        opacity: .8;
      }

      .cls-34 {
        fill: url(#linear-gradient);
      }

      .cls-24 {
        fill: url(#_Áåçûìÿííûé_ãðàäèåíò_15);
      }

      .cls-35 {
        fill: #ea9a8f;
      }
    </style>
    <linearGradient id="linear-gradient" x1="41.64" y1="494.21" x2="41.64" y2="374.21" gradientTransform="translate(-374.21 81.03) rotate(-90)" gradientUnits="userSpaceOnUse">
      <stop offset=".56" stop-color="#bcb6e6"/>
      <stop offset=".98" stop-color="#ddcfee"/>
    </linearGradient>
    <linearGradient id="linear-gradient-2" x1="42.29" y1="384.97" x2="42.29" y2="473.69" gradientTransform="translate(-374.21 81.03) rotate(-90)" gradientUnits="userSpaceOnUse">
      <stop offset=".02" stop-color="#d34958"/>
      <stop offset=".21" stop-color="#d94b5b"/>
      <stop offset=".45" stop-color="#ea5365"/>
      <stop offset=".57" stop-color="#e34e5e"/>
      <stop offset=".74" stop-color="#d0414d"/>
      <stop offset=".94" stop-color="#b22c31"/>
      <stop offset="1" stop-color="#a72527"/>
    </linearGradient>
    <linearGradient id="linear-gradient-3" x1="12.77" y1="417.81" x2="22.85" y2="417.81" gradientTransform="translate(-374.21 81.03) rotate(-90)" gradientUnits="userSpaceOnUse">
      <stop offset="0" stop-color="#ffd0ca"/>
      <stop offset=".45" stop-color="#f8c9c3"/>
      <stop offset="1" stop-color="#ebbcb4"/>
    </linearGradient>
    <linearGradient id="linear-gradient-4" x1="64.69" y1="389.76" x2="64.69" y2="437.39" xlink:href="#linear-gradient-3"/>
    <linearGradient id="_Áåçûìÿííûé_ãðàäèåíò_15" data-name="Áåçûìÿííûé ãðàäèåíò 15" x1="42.29" y1="473.66" x2="42.29" y2="391.5" gradientTransform="translate(-374.21 81.03) rotate(-90)" gradientUnits="userSpaceOnUse">
      <stop offset="0" stop-color="#a04cba"/>
      <stop offset="1" stop-color="#dcccf5"/>
    </linearGradient>
    <linearGradient id="_Áåçûìÿííûé_ãðàäèåíò_15-2" data-name="Áåçûìÿííûé ãðàäèåíò 15" x1="10.32" y1="441.59" x2="71.81" y2="441.59" xlink:href="#_Áåçûìÿííûé_ãðàäèåíò_15"/>
    <linearGradient id="linear-gradient-5" x1="23.01" y1="399.37" x2="67.11" y2="399.37" gradientTransform="translate(-374.21 81.03) rotate(-90)" gradientUnits="userSpaceOnUse">
      <stop offset="0" stop-color="#fff"/>
      <stop offset=".15" stop-color="#fbfbfb"/>
      <stop offset=".28" stop-color="#f1f1f1"/>
      <stop offset=".4" stop-color="#dfdfdf"/>
      <stop offset=".52" stop-color="#c6c6c6"/>
      <stop offset=".63" stop-color="#a6a6a6"/>
      <stop offset=".74" stop-color="#7e7e7e"/>
      <stop offset=".85" stop-color="#4f4f4f"/>
      <stop offset=".95" stop-color="#1b1b1b"/>
      <stop offset="1" stop-color="#000"/>
    </linearGradient>
    <linearGradient id="linear-gradient-6" x1="26.41" y1="391.35" x2="52.63" y2="391.35" xlink:href="#linear-gradient-5"/>
    <radialGradient id="radial-gradient" cx="41.6" cy="434.21" fx="41.6" fy="434.21" r="50.77" gradientTransform="translate(-374.21 81.03) rotate(-90)" gradientUnits="userSpaceOnUse">
      <stop offset=".08" stop-color="#000"/>
      <stop offset=".24" stop-color="#030303"/>
      <stop offset=".36" stop-color="#0c0c0c"/>
      <stop offset=".47" stop-color="#1d1d1d"/>
      <stop offset=".57" stop-color="#343434"/>
      <stop offset=".67" stop-color="#515151"/>
      <stop offset=".76" stop-color="#767676"/>
      <stop offset=".85" stop-color="#a2a2a2"/>
      <stop offset=".93" stop-color="#d3d3d3"/>
      <stop offset="1" stop-color="#fff"/>
    </radialGradient>
    <linearGradient id="linear-gradient-7" x1="4.46" y1="478.3" x2="16.5" y2="478.3" gradientTransform="translate(-374.21 81.03) rotate(-90)" gradientUnits="userSpaceOnUse">
      <stop offset="0" stop-color="#000"/>
      <stop offset=".14" stop-color="#343434"/>
      <stop offset=".31" stop-color="#707070"/>
      <stop offset=".48" stop-color="#a3a3a3"/>
      <stop offset=".64" stop-color="#cbcbcb"/>
      <stop offset=".78" stop-color="#e7e7e7"/>
      <stop offset=".91" stop-color="#f8f8f8"/>
      <stop offset="1" stop-color="#fff"/>
    </linearGradient>
    <linearGradient id="linear-gradient-8" x1="72.51" y1="485.04" x2="72.51" y2="468.06" xlink:href="#linear-gradient-7"/>
    <linearGradient id="linear-gradient-9" x1="68.81" y1="485.89" x2="68.81" y2="479.02" xlink:href="#linear-gradient-7"/>
    <linearGradient id="linear-gradient-10" x1="79.09" y1="387.61" x2="65.82" y2="387.61" xlink:href="#linear-gradient-7"/>
    <linearGradient id="linear-gradient-11" x1="4.01" y1="388.86" x2="17.08" y2="388.86" gradientTransform="translate(-374.21 81.03) rotate(-90)" gradientUnits="userSpaceOnUse">
      <stop offset="0" stop-color="#000"/>
      <stop offset=".07" stop-color="#282828"/>
      <stop offset=".16" stop-color="#5a5a5a"/>
      <stop offset=".26" stop-color="#868686"/>
      <stop offset=".36" stop-color="#ababab"/>
      <stop offset=".47" stop-color="#c9c9c9"/>
      <stop offset=".58" stop-color="#e1e1e1"/>
      <stop offset=".7" stop-color="#f2f2f2"/>
      <stop offset=".83" stop-color="#fbfbfb"/>
      <stop offset="1" stop-color="#fff"/>
    </linearGradient>
    <linearGradient id="linear-gradient-12" x1="49.39" y1="394.88" x2="80.29" y2="394.88" gradientTransform="translate(-374.21 81.03) rotate(-90)" gradientUnits="userSpaceOnUse">
      <stop offset=".17" stop-color="#000"/>
      <stop offset=".24" stop-color="#1c1c1c"/>
      <stop offset=".4" stop-color="#606060"/>
      <stop offset=".55" stop-color="#989898"/>
      <stop offset=".7" stop-color="#c5c5c5"/>
      <stop offset=".82" stop-color="#e4e4e4"/>
      <stop offset=".93" stop-color="#f8f8f8"/>
      <stop offset="1" stop-color="#fff"/>
    </linearGradient>
    <linearGradient id="linear-gradient-13" x1="51.56" y1="451.02" x2="80.65" y2="451.02" gradientTransform="translate(-374.21 81.03) rotate(-90)" gradientUnits="userSpaceOnUse">
      <stop offset="0" stop-color="#000"/>
      <stop offset=".08" stop-color="#1c1c1c"/>
      <stop offset=".27" stop-color="#606060"/>
      <stop offset=".46" stop-color="#989898"/>
      <stop offset=".63" stop-color="#c5c5c5"/>
      <stop offset=".78" stop-color="#e4e4e4"/>
      <stop offset=".91" stop-color="#f8f8f8"/>
      <stop offset="1" stop-color="#fff"/>
    </linearGradient>
    <linearGradient id="linear-gradient-14" x1="44.78" y1="422.62" x2="44.78" y2="494.21" xlink:href="#linear-gradient-12"/>
    <linearGradient id="linear-gradient-15" x1="35.65" y1="423.12" x2="35.65" y2="494.11" xlink:href="#linear-gradient-12"/>
    <linearGradient id="linear-gradient-16" x1="34.96" y1="455.93" x2="3.12" y2="455.93" xlink:href="#linear-gradient-13"/>
    <linearGradient id="linear-gradient-17" x1="43.64" y1="420.96" x2="2.18" y2="420.96" xlink:href="#linear-gradient-12"/>
    <linearGradient id="linear-gradient-18" x1="43.64" y1="416.28" x2="2.43" y2="416.28" xlink:href="#linear-gradient-12"/>
    <linearGradient id="linear-gradient-19" x1="39.8" y1="391.46" x2="3.39" y2="391.46" xlink:href="#linear-gradient-12"/>
    <linearGradient id="linear-gradient-20" x1="50.85" y1="390.35" x2="77.3" y2="390.35" xlink:href="#linear-gradient-12"/>
    <linearGradient id="linear-gradient-21" x1="51.93" y1="406.37" y2="406.37" xlink:href="#linear-gradient-12"/>
    <linearGradient id="linear-gradient-22" x1="51.56" y1="451.02" x2="80.65" y2="451.02" xlink:href="#linear-gradient-12"/>
    <linearGradient id="linear-gradient-23" x1="39.8" y1="391.46" x2="3.39" y2="391.46" xlink:href="#linear-gradient-12"/>
    <linearGradient id="linear-gradient-24" x1="38.6" y1="374.38" x2="15.63" y2="374.38" gradientTransform="translate(-318.05 80.85) rotate(-88.3)" xlink:href="#linear-gradient-12"/>
    <linearGradient id="linear-gradient-25" x1="50.65" y1="187.31" x2="47.75" y2="163.59" gradientTransform="translate(-141.86 98.18) rotate(-83.03)" xlink:href="#linear-gradient-12"/>
  </defs>
  <g class="cls-32">
    <g id="Layer_2" data-name="Layer 2">
      <g id="Layer_1-2" data-name="Layer 1">
        <g>
          <g>
            <g>
              <path class="cls-34" d="M107.18,1.53c4.61.31,8.29,2.43,8.95,5.17,5.21,21.6,5.1,43.41-.03,65.41-.64,2.77-4.37,4.91-9.02,5.2-31.49,1.97-62.36,1.96-92.63-.01-4.41-.29-8.01-2.24-8.87-4.83-.14-.44-.28-.87-.42-1.31C-1.76,49.46-1.8,27.86,5.55,6.34c.88-2.57,4.46-4.5,8.84-4.79,30.73-2.06,61.66-2.07,92.79-.02Z"/>
              <path class="cls-29" d="M13.69,2.07c-4.16.29-7.57,2.19-8.41,4.73C2.64,14.83,1,22.87.34,30.93c-1.12,13.66.58,27.36,4.98,41.09.82,2.56,4.25,4.48,8.44,4.76,19.35,1.31,38.96,1.74,58.83,1.29,9.72-.21,19.51-.64,29.36-1.28,4.43-.28,7.97-2.4,8.58-5.13,4.89-21.71,4.99-43.22.04-64.53-.64-2.7-4.14-4.8-8.53-5.1C72.39.02,42.95.04,13.69,2.07ZM95.4,6.58c3.86.26,6.93,2.1,7.49,4.48,4.36,18.71,4.26,37.62-.03,56.69-.54,2.4-3.65,4.25-7.54,4.51-7.41.48-14.78.82-22.1,1.02-18.72.54-37.18.19-55.38-1.04-3.68-.25-6.7-1.94-7.41-4.18-4.09-12.77-5.53-25.5-4.18-38.2.67-6.38,2.05-12.75,4.15-19.11.73-2.23,3.73-3.9,7.38-4.15,25.71-1.79,51.57-1.79,77.62-.02Z"/>
              <path class="cls-25" d="M116.13,6.78c5.21,21.6,5.1,43.41-.03,65.41-.64,2.77-4.37,4.91-9.02,5.2-31.49,1.97-62.36,1.96-92.63-.01-3.98-.26-7.3-1.87-8.53-4.08,1.35,1.94,4.33,3.33,7.83,3.57,28.81,1.95,58.22,1.95,88.19.01,4.43-.29,7.97-2.4,8.58-5.13,3.16-14.02,4.32-27.95,3.41-41.81,2.65-6.61,3.57-14.28,2.21-23.16Z"/>
              <path class="cls-29" d="M14.96,3.05c-3.99.28-7.25,2.1-8.06,4.53C2.31,21.52.88,35.51,2.48,49.53c-.57-13.66,1.8-27.44,6.15-40.61.8-2.43,4.07-4.25,8.06-4.53,22.81-1.59,46.36-2.79,69.64-2.13-23.92-1.12-47.71-.86-71.37.78Z"/>
              <path class="cls-29" d="M100.33,75.62c3.86-.28,7.02-2.1,7.8-4.53,4.45-13.94,4.07-27.92,2.52-41.95.56,13.66.02,27.44-4.19,40.61-.78,2.43-3.94,4.25-7.8,4.53-22.08,1.59-44.88,2.79-67.42,2.13,23.16,1.12,46.19.86,69.09-.78Z"/>
              <path class="cls-25" d="M17.79,6.6c-3.66.25-6.65,1.92-7.39,4.15-6.28,19.02-6.11,38.12.03,57.31.72,2.25,3.73,3.93,7.42,4.18,25.32,1.71,51.14,1.71,77.47.01.64-.04,1.27-.13,1.86-.25-26.21,1.67-51.91,1.65-77.12-.03-3.69-.25-6.7-1.92-7.42-4.15-6.15-19.02-6.31-37.97-.03-56.83.73-2.21,3.73-3.87,7.39-4.12,25.57-1.76,51.3-1.78,77.19-.05-.58-.12-1.18-.2-1.8-.25-26.04-1.77-51.91-1.77-77.61.02Z"/>
              <path class="cls-29" d="M100.88,12.76c4.09,17.59,4.01,35.36-.02,53.28-.51,2.25-3.43,4-7.09,4.23-24.75,1.6-49.02,1.6-72.81,0-3.46-.23-6.3-1.82-6.97-3.93-5.78-18.03-5.93-35.99-.03-53.86.69-2.09,3.5-3.66,6.94-3.9,24.16-1.68,48.47-1.69,72.94-.02,3.63.25,6.52,1.98,7.04,4.21Z"/>
              <path class="cls-28" d="M9.01,6.58c-.36-.47,1.6-1.65,3.18-2.22,3.62-1.32,8.14-.52,8.24.12.16,1.02-10.68,3.07-11.42,2.1Z"/>
              <path class="cls-28" d="M8.44,8.7c.77.15.78,2.85-.47,3.17-.51.13-1.19-.14-1.49-.46-.9-.95,1.25-2.85,1.96-2.71Z"/>
              <path class="cls-28" d="M109.46,41.6c-.71-.06-.69-4.43-1.03-12.69-.36-8.58-.8-12.41-.17-12.49.87-.11,4.1,6.76,3.69,14.84-.28,5.52-1.73,10.41-2.49,10.34Z"/>
            </g>
            <path class="cls-26" d="M46.53,6.42s-.08,0-.11-.01c-.45-.05-.89-.08-1.34-.11-.1,0-.19,0-.29-.02-.33-.02-.65-.03-.98-.04-.14,0-.29,0-.43,0-.35,0-.69,0-1.04,0-.21,0-.42.02-.63.02-.22.01-.44.02-.66.04-.22.02-.45.03-.67.06-.15.01-.3.03-.45.05-.85.1-1.69.23-2.51.41-.04,0-.09.02-.13.03-1.56.35-3.07.84-4.52,1.51-5.57,2.57-10.07,7.53-13.38,13.46.1-.16.21-.32.31-.48-.74,1.3-1.43,2.64-2.06,4.02-2.23,4.91-3.71,10.23-4.38,15.31-.14,1.03-.24,2.05-.3,3.04-.53,7.65.91,14.34,4.53,17.51.39.34.77.62,1.17.84.64.38,1.31.62,2.01.75.56.11,1.15.15,1.76.14,5.02-.08,12.11-3.51,25.71-1.63,9.45,1.31,15.43,4.26,20.81,6.39,2.78,1.11,5.4,1.99,8.25,2.31.44.05.89.08,1.34.1,0,0-.02,0-.02,0,0,0,.01,0,.02,0,0,0-.01,0-.02,0,.23.01.46.02.69.02,0,0,.02,0,.03,0,.19,0,.37,0,.56,0,.08,0,.16,0,.23,0,.09,0,.17,0,.26,0-.02,0-.05,0-.07,0,.04,0,.07,0,.11,0,.11,0,.22,0,.33-.01.3-.02.6-.04.9-.07.2-.02.41-.04.61-.07.08-.01.17-.02.25-.03.44-.06.89-.13,1.35-.22.01,0,.02,0,.03,0,.28-.05.55-.1.84-.17.88-.2,11.01-2.61,15.15-8.63.59-.87,1.07-1.81,1.37-2.83.22-.76.35-1.57.4-2.43.06-1.19-.05-2.46-.33-3.78-.43-2.12-1.26-4.4-2.44-6.77-1.8-3.61-4.39-7.44-7.56-11.22-1.6-1.91-3.34-3.81-5.2-5.66-.33-.33-.67-.66-1.01-.99-1.13-1.08-2.29-2.15-3.48-3.19-2.3-2.01-4.72-3.93-7.24-5.72-1.06-.76-2.14-1.49-3.23-2.2-1.9-1.24-3.84-2.38-5.8-3.44-5.74-3.08-11.65-5.27-17.3-6.1-.04,0-.07-.01-.11-.02-.44-.06-.89-.12-1.33-.17Z"/>
            <g>
              <path class="cls-27" d="M63.17,13.26c1.96,1.05,3.9,2.2,5.8,3.44,1.09.71,2.17,1.44,3.23,2.2,2.52,1.79,4.94,3.71,7.24,5.72,1.2,1.04,2.36,2.11,3.48,3.19.34.33.68.66,1.01.99,1.86,1.86,3.61,3.76,5.2,5.66,3.17,3.78,5.76,7.61,7.56,11.22,1.18,2.37,2.01,4.64,2.44,6.77.27,1.33.39,2.6.33,3.78-.04.85-.17,1.67-.4,2.43-.3,1.02-.77,1.97-1.37,2.83-4.14,6.03-14.27,8.43-15.15,8.63-1.94.44-3.72.62-5.39.59-.7,0-1.38-.05-2.04-.13-2.85-.33-5.47-1.21-8.25-2.31-5.38-2.13-11.37-5.08-20.81-6.39-13.6-1.88-20.69,1.55-25.71,1.63-.62.01-1.2-.03-1.76-.14-.7-.13-1.37-.37-2.01-.75-.4-.22-.78-.5-1.17-.84-3.63-3.17-5.06-9.86-4.53-17.51.07-1,.17-2.01.3-3.04.67-5.07,2.15-10.4,4.38-15.31,3.39-7.46,8.51-13.94,15.16-17,9.35-4.31,21.23-1.67,32.47,4.36Z"/>
              <path class="cls-31" d="M56.05,58.69c3.93.93,7.64,4.26,9.79,7.68,0,0,0,.01.01.02.39.63.73,1.26,1.01,1.88-5.38-2.13-11.37-5.08-20.81-6.39-13.6-1.88-20.69,1.55-25.71,1.63.28-.34.64-.67,1.07-1,2.84-2.19,8.73-4.14,13.82-4.31,2.84-.09,3.35.44,8.75.62,7.92.26,9.15-.82,12.08-.12Z"/>
              <path class="cls-33" d="M56.05,58.69c3.93.93,7.64,4.26,9.79,7.68-1.97-1.95-5.23-4.87-8.18-6.02-4.61-1.81-7.09-.43-10.29,0-3.2.43-6.72-1.05-12.51-1.42-4.34-.28-10.59,2.28-13.45,3.57,2.84-2.19,8.73-4.14,13.82-4.31,2.84-.09,3.35.44,8.75.62,7.92.26,9.15-.82,12.08-.12Z"/>
              <path class="cls-35" d="M83.93,28.79c1.86,1.86,3.61,3.76,5.2,5.66-2.69-.69-6.09-1.25-9.29.07-7.75,3.21-5.22,13.72-12.7,17.38-3.38,1.66-1.06,2.97,7.12,3.08,3.47.05,5.09-.36,6.47-1.01,4.65-2.22,4.26-6.2,8.42-8.05,2.2-.98,5.16-1.13,7.54-.25,1.18,2.37,2.01,4.64,2.44,6.77-2.35-1.69-5.34-3.14-8.5-2.63-3.94.64-4.08,3.67-8.23,5.92-2.27,1.23-4.83,1.73-7.48,1.73-7.83,0-15.54-6.16-30.21-8.01-7.43-.94-11.25-.97-14.54.37-6.52,2.66-9.81,9.14-11.6,13.55-.7-.13-1.37-.37-2.01-.75.74-4.63,3.04-11.21,8.55-14.78,5.77-3.73,12.74-2.67,20.59-1.48,13.15,2,16.45,6.61,20.83,4.19,6.59-3.63,2.21-15.79,10.11-20.34,2.22-1.27,4.85-1.63,7.29-1.42Z"/>
              <path class="cls-35" d="M79.44,24.61c1.2,1.04,2.36,2.11,3.48,3.19-2.08.09-5.97-.34-9.58.84-8.42,2.74-6.97,11.51-13.87,15.16-9.53,5.03-17.95-8.71-34.21-5.46-5.85,1.17-11.2,4.24-14.41,5.91.07-1,.17-2.01.3-3.04,3.4-2.85,8.9-6,16.14-6.48,16.1-1.05,22.33,12.32,30.51,8.6,5.56-2.53,3.84-9.26,13.22-15.62,3.83-2.6,6.59-3.16,8.41-3.1Z"/>
              <path class="cls-30" d="M63.17,13.26c-.09.02-.18.02-.28.03-5.55.46-8.69.46-10.08-.33-.16-.09-.36-.14-.59-.14-1.79,0-5.59,2.31-9.77,2.36-4.73.05-7.76-3.75-14.6-1.52-1.7.55-3.42,1.75-5.05,3.26-2.97,2.73-5.62,6.45-7.27,8.98,3.39-7.46,8.51-13.94,15.16-17,9.35-4.31,21.23-1.67,32.47,4.36Z"/>
              <path class="cls-33" d="M31.71,11.38c5.67.37,9.15,3.16,11.1,3.11,2.65-.06,8.35-2.32,9.42-1.67-1.79,0-5.59,2.31-9.77,2.36-4.73.05-7.76-3.75-14.6-1.52-1.7.55-3.42,1.75-5.05,3.26,2.03-2.32,5.5-5.76,8.9-5.54Z"/>
              <path class="cls-35" d="M60.59,17.36c-2.22,2.68-6.01,15.67-12.85,15.62-2.42-.02-5.73-8.66-5.73-8.66,0,0,1.66,10.77,5.42,12.53-.18,0-.35-.02-.53-.05-6.46-1.03-5.46-16.5-14.24-19.41-6.24-2.08-13.54,3.49-13.5,3.61.04.1,5.55-4.11,11-2.68,9.5,2.49,9.15,19.59,16.09,20.52,6.35.85,12.95-12.61,12.76-12.76-.02-.02-.14.15-.33.45-1.33,1.8-6.37,8.3-9.81,8.22,8.22-3.22,9.89-17,15.11-16.56,2.96.26,6.09.52,8.24.69-1.06-.76-2.14-1.49-3.23-2.2-2.8-.57-6.96-1.06-8.38.66Z"/>
              <path class="cls-35" d="M99.46,56.23c-.04.85-.17,1.67-.4,2.43-.3,1.02-.77,1.97-1.37,2.83-4.14,2.79-9.86,3.46-11.6,3.67-7.78.93-11.94-2.43-12.85-1.02-.71,1.12,1.3,3.78,3.9,6.57-.7,0-1.38-.05-2.04-.13-3.13-3.16-5.37-5.85-4.63-7.45,1.31-2.84,9.94,2.23,20.24-1.94,3.57-1.45,6.71-3.74,8.74-4.95Z"/>
              <path class="cls-24" d="M99.03,58.65c-2.4,8.12-15.51,11.24-16.52,11.47-2.21.5-4.21.66-6.08.57.73-.09,1.48-.22,2.26-.4.97-.22,11.37-3.13,13.66-10.96C97.44,41.95,54.48-.55,29.01,11.26c-4.75,2.2-8.68,6.22-11.72,11.11,3.31-5.93,7.81-10.89,13.38-13.46,26.59-12.26,73.67,31.73,68.36,49.75Z"/>
              <path class="cls-23" d="M39.47,9.23c25.39-.75,59.95,34.63,55.41,50.09-2.29,7.83-13.72,10.74-14.69,10.96-.78.18-1.52.32-2.25.4.08,0,.17,0,.25.01-.6.02-1.19.02-1.77-.01.73-.09,1.48-.22,2.26-.4.97-.22,11.37-3.13,13.66-10.96,4.44-15.16-27.69-49.44-52.88-50.09Z"/>
              <path class="cls-15" d="M15.93,57.76c-4.62-2.04-3.81-16.18.83-26.53,4.03-9,12.62-18.83,17.1-17.1,4.76,1.83,4.97,16.73-.37,27.83-4.27,8.87-13.23,17.72-17.57,15.81Z"/>
              <path class="cls-14" d="M15.24,54.62c-.89-.06-1.26-5.99-1.02-9.98.52-8.62,4.39-16.51,5.45-16.22,1.86.5-2.57,26.34-4.44,26.21Z"/>
              <path class="cls-26" d="M55.5,54.06c12.8,12.02,31.98,10.65,35.5,3.14,5.59-11.93-27.21-45.2-38.92-39.84-7.64,3.5-10.29,23.82,3.42,36.7Z"/>
              <path class="cls-26" d="M89.5,57.45c1.85-1.03,1.93-6.28-1.54-12.45-6.81-12.08-22.73-23.54-24.53-21.76-3.07,3.05,22.26,36.32,26.07,34.21Z"/>
              <path class="cls-26" d="M26.41,57.45c.53.74,3.08-1.2,7.83-1.23,3.21-.02,3.75.86,8.07,1.36,4.11.47,7.97.92,9.24-.8,1.59-2.14-1.83-6.31-4.5-11.71-6.53-13.22-4.52-25.73-5.67-25.7-1.32.03-.27,16.02-9.55,28.23-3.39,4.46-6.18,8.8-5.42,9.86Z"/>
            </g>
          </g>
          <path class="cls-13" d="M84.09.38c4.98.17,9.97.39,14.96.66,2.71.15,5.42.31,8.13.49,4.62.3,8.29,2.43,8.96,5.17,1.26,5.22,2.2,10.44,2.84,15.68.7,5.62,1.03,11.25,1.02,16.9,0,1.72-.04,3.45-.1,5.17-.07,1.88-.19,3.77-.34,5.66-.58,7.33-1.73,14.69-3.45,22.07-.64,2.77-4.37,4.91-9.02,5.2-1.11.07-2.22.14-3.33.2-1.97.11-3.93.22-5.89.32h0c-14.03.7-27.93,1.01-41.72.94-5.04-.03-10.05-.11-15.05-.25-1.26-.03-2.52-.07-3.77-.11-6.19-.2-12.36-.48-18.5-.85-1.46-.08-2.91-.17-4.37-.27-3.78-.24-6.96-1.71-8.32-3.75-.08-.11-.14-.22-.21-.33.07.1.14.2.22.29.02.03.04.06.07.09-.02-.03-.05-.07-.07-.1-.09-.13-.17-.24-.24-.38-.26-.38-.47-.77-.6-1.18C2.43,63.02.72,54.04.19,45.07c-.01-.19-.02-.36-.03-.54-.02-.47-.05-.95-.07-1.42-.02-.38-.03-.76-.04-1.14-.01-.35-.02-.7-.03-1.06-.02-.74-.02-1.49-.02-2.23,0-.14,0-.28.01-.42,0-.63.01-1.26.03-1.88,0-.32.02-.64.03-.96.02-.42.03-.84.05-1.27.02-.41.04-.83.07-1.25.02-.26.03-.51.05-.76.03-.4.05-.8.09-1.2.56-6.77,1.8-13.52,3.76-20.27.37-1.29.77-2.58,1.19-3.86.13-.39.33-.77.57-1.13,1.23-2.22,4.55-3.85,8.53-4.12,4.79-.32,9.58-.59,14.37-.82C47.13-.11,65.57-.23,84.09.38Z"/>
          <path class="cls-29" d="M15.56,1.94c-.62.04-1.25.08-1.87.13-3.06.22-5.71,1.3-7.23,2.86-.55.57-.95,1.19-1.18,1.87C2.64,14.83,1,22.87.34,30.93c-1.12,13.66.58,27.36,4.98,41.09.63,1.97,2.8,3.55,5.67,4.31.87.23,1.8.39,2.77.45,1.24.08,2.48.16,3.73.24,18.14,1.12,36.5,1.47,55.09,1.05,9.72-.21,19.52-.63,29.36-1.27.61-.04,1.21-.11,1.78-.22,2.29-.42,4.23-1.36,5.45-2.59.69-.69,1.15-1.48,1.34-2.31,4.49-19.9,4.95-39.64,1.16-59.22-.08-.4-.15-.8-.24-1.2-.19-.96-.39-1.92-.61-2.89-.09-.41-.18-.81-.27-1.22-.35-1.48-1.55-2.77-3.28-3.69-1.44-.77-3.25-1.27-5.25-1.41C73.03.07,44.2.04,15.56,1.94ZM98.85,2.82c.41.19,1.11.48,1.45.47.51-.03,1.02-.05,1.52,0,.51.04.58,1.64,1.41,1.66.83.03,1.3-.65,1.82-.51.08.02.15.04.2.07.29.14.2.3.5.34.34.05,1.29-.14,1.38.65.09.79-.99,1.99-.32,2.78.42.49,1.62.67,2.47.74.07,0,.14.01.2.02.2.87.38,1.74.56,2.61.07.32.13.63.2.95,3.56,18.09,3.41,36.33-.28,54.72-.09.06-.18.13-.28.2-.58.44-.56,1.34-.58,1.8-.02.46-.41.44-1.17.84-.59.3-.59,1.22-.64,1.85-.01.17-.03.33-.07.44-.16.51-1.13.27-1.89.78-.46.31-.07.98.3,1.45-.17.09-1.12.15-1.32.19-.24.05-.63.34-.98.63-.08.02-.15.04-.23.05-.71.17-1.48.28-2.26.33-9.61.62-19.16,1.03-28.64,1.24-15.95.36-31.73.14-47.33-.66-.91-.05-1.82-.3-2.59-.79-.09-.05-.17-.1-.23-.13-.4-.15-.52.34-.93.37-.4.03-1.05-1.38-1.98-1.63-.51-.13-1.01.29-1.48.71-.39.35-.77.7-1.11.71-.75.03-.91-.46-1.31-.56-.4-.09-.83.21-1.11.34-.27.13-.47-.83-1.14-1.05-.47-.15-1.06.06-1.59.2-.23.06-.46.11-.66.11-.68,0-.65-.77-.99-.89-.05-.02-.12-.03-.21-.05-1.22-.26-2.31-1.01-2.81-2.15-.07-.14-.12-.28-.16-.42C2.29,57.83.63,44.46,1.73,31.14c.64-7.86,2.24-15.71,4.83-23.55.18-.54.48-1.06.89-1.54,1.43-1.68,4.14-2.85,7.31-3.08.65-.04,1.31-.09,1.95-.13,27.22-1.8,54.59-1.81,82.15-.03Z"/>
          <path class="cls-4" d="M103.51,68.02l3.79,3.99,1.87,1.97c-1.22,1.24-3.16,2.17-5.45,2.59l-.61-1.02-2.32-3.89c.26.32,2.46,3.05,2.75,2.65.3-.42-4.27-9.24-4.55-9.77.3.49,4.51,7.49,5.17,7.11.66-.38-.58-3.47-.64-3.62Z"/>
          <path class="cls-20" d="M107.28,3.45c1.74.91,2.93,2.21,3.28,3.69.09.41.19.81.27,1.22l-1.54.66-4.25,1.83c.18-.13,1.76-1.32,1.37-1.64-.41-.33-12.21,4.24-12.57,4.37.36-.2,11.91-6.57,12.05-7.16.14-.6-7.63,1.8-7.63,1.8,0,0,3.66-1.95,7-3.72.7-.37,1.38-.73,2.01-1.06Z"/>
          <path class="cls-12" d="M111.44,11.25c.09.4.16.8.24,1.2l-1.44.16-5.44.59,5.24-1.54,1.39-.41Z"/>
          <path class="cls-3" d="M15.56,1.94c.39.29.78.59,1.15.91,2.01,1.69,3.63,3.58,3.63,3.58,0,0-1.82-.83-2.99-.41-1.01.36,1.42,2.92,2.09,3.59-.83-.79-4.61-4.3-6.29-3.75-1.84.6,6.38,8.88,6.84,9.35-.49-.44-7.99-7.16-8.77-6.52-.74.62,1.5,3.38,1.87,3.83l-5.65-6.46-.98-1.13c1.52-1.56,4.17-2.65,7.23-2.86.62-.04,1.25-.09,1.87-.13Z"/>
          <path class="cls-6" d="M18.31,67.8l-.63,7.18-.19,2.04c-1.25-.08-2.49-.16-3.73-.24-.97-.07-1.91-.22-2.77-.45l.42-1.7.78-3.12c-.05.34-.42,3.2.65,2.28,1.11-.95,3.54-9.27,3.71-9.83-.08.57-1.14,8.49-.72,8.78.43.31,2.47-4.93,2.47-4.93Z"/>
          <path class="cls-16" d="M28.76.74c4.74,8.42,10.4,20.82,7.83,28.36,0,.01,0,.03-.01.04-1.11,3.23-4.3,3.05-8.4,1.05-7.38-3.62-17.7-13.2-24.08-19.53.37-1.29.77-2.58,1.19-3.86.13-.39.33-.77.57-1.13.4-.72,1.02-1.38,1.8-1.94,1.64-1.19,4.03-1.99,6.73-2.17,4.22-.28,8.45-.53,12.68-.73.56-.03,1.13-.05,1.69-.08Z"/>
          <path class="cls-18" d="M84.09.38c1.39.05,2.78.1,4.16.15,3.09.12,6.18.26,9.28.42.51.03,1.02.05,1.52.08-10.67,9.67-35.78,31.34-43.11,28.1-7.54-3.33,17.85-21.66,28.15-28.76Z"/>
          <path class="cls-5" d="M118.98,22.38c.7,5.62,1.03,11.25,1.02,16.9,0,1.72-.04,3.45-.1,5.17-.07,1.88-.19,3.77-.34,5.66-14.08-1.55-48.51-5.85-63.4-7.72-4.38-.55-7.07-.89-7.07-.89l-.18-.86-.51-2.48,1.94-.44h0l68.63-15.36Z"/>
          <path class="cls-7" d="M48.91,40.65l7.25.39,63.74,3.42c-.07,1.88-.19,3.77-.34,5.66-14.08-1.55-48.51-5.85-63.4-7.72-4.38-.55-7.07-.89-7.07-.89l-.18-.86Z"/>
          <path class="cls-9" d="M59.67,46.07l44.09,31.52c-1.97.11-3.93.22-5.89.32h0c-12.4-10.55-37.18-31-38.2-31.84Z"/>
          <path class="cls-17" d="M45.74,37.39l1.06.08,3.54.26,5.81.44v40.68c-5.04-.03-10.05-.11-15.05-.25-1.26-.03-2.52-.07-3.77-.11l8.41-41.1Z"/>
          <path class="cls-8" d="M45.74,37.39l1.06.08-5.69,41.13c-1.26-.03-2.52-.07-3.77-.11l8.41-41.1Z"/>
          <path class="cls-19" d="M18.83,77.64c-.26-.02-.52-.03-.77-.05-1.2-.07-2.4-.14-3.59-.22-2.49-.16-4.73-.85-6.35-1.9-.84-.53-1.51-1.15-1.98-1.85,0-.01.01-.03.02-.04,0,0,0,0,0-.01,4.83-10.38,13.9-28.51,19.88-31.97,6.8-3.94-3.07,24.65-7.21,36.04Z"/>
          <path class="cls-21" d="M7.66,3.73c4.09,5.96,13.54,19.34,20.52,26.46-7.38-3.62-17.7-13.2-24.08-19.53.37-1.29.77-2.58,1.19-3.86.13-.39.33-.77.57-1.13.4-.72,1.02-1.38,1.8-1.94Z"/>
          <path class="cls-2" d="M28.76.74c4.74,8.42,10.4,20.82,7.83,28.36-.62-8.96-6.59-22.23-9.52-28.28.56-.03,1.13-.05,1.69-.08Z"/>
          <path class="cls-10" d="M55.26,28.4c4.75,3.14,34.4-20.93,42.27-27.44.51.03,1.02.05,1.52.08-10.67,9.67-35.78,31.34-43.11,28.1-7.54-3.33,17.85-21.66,28.15-28.76,1.39.05,2.78.1,4.16.15-7.73,5.71-35.33,26.31-32.99,27.86Z"/>
          <path class="cls-11" d="M18.83,77.64c-.26-.02-.52-.03-.77-.05,3.83-11.32,10.39-32.21,7.52-34.45-3.29-2.57-14.01,23.61-17.46,32.33-.84-.53-1.51-1.15-1.98-1.85,0-.01.01-.03.02-.04,0,0,0,0,0-.01,4.83-10.38,13.9-28.51,19.88-31.97,6.8-3.94-3.07,24.65-7.21,36.04Z"/>
          <path class="cls-1" d="M24.32,73.75c.64,1.79,3.33,2.27,35.59,1.79,25.87-.38,28.69-.75,29.3-2.58,1.73-5.16-14.76-19.92-32.96-19.6-17.91.32-33.78,15.19-31.93,20.39Z"/>
          <path class="cls-22" d="M26.41,71.94c.56,3.25,14.54,3.02,19.48,2.94,3.74-.06,4.24-.32,4.37-.68.66-1.9-8.29-9.7-16.98-7.39-3.21.86-7.18,3.3-6.87,5.12Z"/>
        </g>
      </g>
    </g>
  </g>
</svg>