<?xml version="1.0" encoding="UTF-8"?>
<svg id="Layer_2" data-name="Layer 2" xmlns="http://www.w3.org/2000/svg" viewBox="0 0 89.08 120">
  <defs>
    <style>
      .cls-1 {
        fill: #fef8ef;
      }

      .cls-2 {
        fill: #48c6e4;
      }

      .cls-3 {
        fill: #e4d7c5;
      }

      .cls-4 {
        fill: #5bdbfc;
      }

      .cls-5 {
        fill: #afeefd;
      }

      .cls-6 {
        fill: #f8662c;
      }

      .cls-7 {
        fill: #f2e7d5;
      }

      .cls-8 {
        fill: #f8662b;
      }
    </style>
  </defs>
  <g id="Layer_1-2" data-name="Layer 1">
    <g>
      <path d="M76.27,0c2.54.33,2.68,2.36,2.71,4.6-.2,2.88-.22,5.75-.06,8.61,3.47,5.8,6.79,11.68,9.95,17.64l-.08,64.19c-.08.92-1.31,2.19-2,1.29-.27,1.11-2.94-.59-1.87-1.29l-.47-.22v-61.71l.47-.29-.22.47h-16.11l-.28-.47.47.22v83.16l-.47.29.22-.47h15.53l.28.47c.25-4.05.24-8.18-.02-12.39-.16-1.49.8-4.31,2.48-3.08.79-.92,2.01.53,2.09,1.5-.07,3.4-.01,6.8.16,10.2.16,3.17-.16,6.92-3.89,7.28H3.75c-2.16-.11-3.64-1.98-3.75-4.07L.03,30.92c3.14-6,6.46-11.91,9.96-17.71.16-2.86.14-5.73-.06-8.61.03-2.24.17-4.27,2.71-4.6h63.63Z"/>
      <path class="cls-4" d="M54.04,72.89l.47.16.23,43.14-.47.29c-16.6.04-33.25.07-49.82-.12-.11-.05-.47-.42-.47-.47v-43.48c3.35.26,6.28,1.1,9.28,2.54,8.3,3.98,11.61,6.58,21.68,5.17,7.39-1.03,11.84-6.04,19.09-7.24Z"/>
      <path class="cls-1" d="M20.13,31.17c0,.07.59,1.17.71,1.29.26.25.61.26.93.35,10.94.12,21.9.18,32.89.17.04,4.37,0,8.76-.14,13.15l-.47.27c-.37.15-.84.17-1.42.05l-4.36,5.87-.54-.06-.47-.27v-4.91l.47-.33c-.9-.41-1.68-.43-2.34-.05l.04,13.78c1.69.81,2.29-.29,1.81-3.31-.07-1.36,1.07-3.65,2.33-2.15l2.7,4.54c.56.64,1.07,1.25,1.53,1.85.33-.19.62-.22.86-.08.29.27.23,6.9-.39,7.82-8.14,1.07-13.37,7.14-21.64,7.73-9.05.65-11.61-2.27-18.98-5.59-3.19-1.44-6.18-2.1-9.67-2.38v-36.09h10.41c.4,0,1.02-.92,1.05-1.41l.24-.56c.63-.32,4-.37,4.44.32Z"/>
      <path class="cls-3" d="M86.79,101.02c-.94-.05-1.71.62-1.86,1.54-.59,3.8.52,9.04,0,12.89-.04.31-.3,1.04-.6,1.04h-16.02V32.81h16.61v62.23c0,.61,1.2,1.32,1.87,1.29v4.69Z"/>
      <path class="cls-5" d="M63.17,15.47l.3.42-7.31,13.1-.71.31c-11.11.03-22.23-.02-33.34,0-.97-.05-2.04.96-1.98,1.88-1.52.12-3.22-.27-4.68.23.06-.79-.46-2.11-1.29-2.11H5.39l7.88-13.84c16.63.06,33.27-.04,49.9,0Z"/>
      <path class="cls-2" d="M54.04,72.89c3.76-.62,7-.58,10.76.23v43.36c-3.51,0-7.02,0-10.53,0l-.23-43.59Z"/>
      <path class="cls-4" d="M64.34,3.52c.18.05.46.13.47.27.06.93.15,7.46,0,7.82-.07.18-.28.27-.47.34-16.76.04-33.53-.03-50.29,0V3.52c16.76.03,33.53-.04,50.29,0Z"/>
      <path class="cls-7" d="M21.76,32.81h43.04v36.8c-3.42-.75-7.05-.93-10.53-.47-.06-2.3.09-4.62,0-6.92-.02-.45.24-.95-.47-.81l-.06-.49c1.51-.66.98-1.38.11-2.46l.18-.57c-.48-1.49-.64-3.06-.47-4.71-.2-1.75-.04-3.38.47-4.9-.21-.53-.21-1.16,0-1.88l.24-13.36-31.72.02c-.35.13-.62-.2-.79-.25Z"/>
      <path class="cls-4" d="M63.17,15.47c2.93,0,7.22-.37,9.95,0,.32.04.41-.13.34.35l-7.75,13.44c-3.41.08-6.84.03-10.26.04l7.72-13.83Z"/>
      <path class="cls-2" d="M64.34,3.52c3.5,0,7.02,0,10.53,0v8.44c-3.5,0-7.02,0-10.53,0V3.52Z"/>
      <polygon class="cls-7" points="83.52 29.3 69.72 29.3 76.62 17.35 83.52 29.3"/>
      <path class="cls-8" d="M17.79,60.35c-.19,1.06-2.64,1.26-2.8,0l.12-13.7c2.66-3.57,5.42,5.59,5.84,5.38,1.07-1.13,2.54-5.57,3.85-5.99s2.14.1,2.33,1.44c.35,2.47.3,9.84.02,12.4-.23,2.14-2.81,1.21-2.81.7v-9.02l-2.47,4.21c-.57.85-1.38.51-1.85-.24l-2.24-3.97c-.33,2.61.44,6.33,0,8.79Z"/>
      <path class="cls-8" d="M53.81,61.41c-.33.04-.79-.24-1.04-.48-1.3-1.28-2.75-4.49-3.88-6.08-2.17,1.08-.52,4.57-1.38,5.94-.35.55-2.34.66-2.54-.24v-13.98c.41-.96,2.76-.77,2.76.2v5.51l4.55-6.11c.41-.44,1.42-.09,1.77.25.61.59.4,1.24,0,1.88l-.4,1.24-2.51,3.03c1.33,1.66,2.3,3.44,2.91,5.34.54.89,1.69,1.85.84,2.83-.1.12-1,.67-1.07.68Z"/>
      <path class="cls-8" d="M37.44,58.83h5.26c.88,0,.97,2.05.2,2.31-.55.19-5.83.12-6.76.04-.45-.04-.85-.14-1.28-.25v-14.41c0-.63,2.57-.86,2.57,0v12.3Z"/>
      <path class="cls-6" d="M29.77,60.88c-.26-.26-.27-.86-.3-1.22-.26-3.08-.31-9.41,0-12.44.21-1.97,2.63-1.46,2.81-.47v13.59c-.03,1.04-2.01,1.05-2.52.54Z"/>
      <path class="cls-1" d="M54.04,57.89c-1.08-1.79-2.31-3.51-3.43-5.27-.03-.51,2.97-3.61,3.43-4.33v9.61Z"/>
    </g>
  </g>
</svg>