<?xml version="1.0" encoding="UTF-8"?>
<svg xmlns="http://www.w3.org/2000/svg" viewBox="0 0 120 75.65">
  <defs>
    <style>
      .cls-1 {
        fill: #c97a13;
      }

      .cls-2 {
        fill: #d37921;
      }

      .cls-3 {
        fill: #8b8b8b;
      }

      .cls-4 {
        fill: #9a9a9a;
      }

      .cls-5 {
        fill: #7d7d7d;
      }

      .cls-6 {
        fill: #a55002;
      }

      .cls-7 {
        fill: #fff;
      }

      .cls-8 {
        opacity: .5;
      }

      .cls-8, .cls-9 {
        fill: #bb600e;
      }

      .cls-8, .cls-10 {
        mix-blend-mode: multiply;
      }

      .cls-11 {
        fill: #6e6e6e;
      }

      .cls-12 {
        fill: #606060;
      }

      .cls-13 {
        fill: #e2e2e2;
      }

      .cls-14 {
        fill: #904108;
      }

      .cls-15 {
        fill: #dd8c34;
      }

      .cls-16 {
        fill: #c16409;
      }

      .cls-17 {
        isolation: isolate;
      }

      .cls-18 {
        fill: #f2a93c;
      }

      .cls-19 {
        fill: #f1f1f1;
      }

      .cls-20 {
        fill: #dd901e;
      }

      .cls-21 {
        fill: #a74f00;
      }

      .cls-22 {
        fill: #c5c5c5;
      }

      .cls-23 {
        fill: #a8a8a8;
      }

      .cls-24 {
        mix-blend-mode: screen;
        opacity: .7;
      }

      .cls-25 {
        fill: #d4d4d4;
      }

      .cls-26 {
        fill: #b7b7b7;
      }

      .cls-27 {
        fill: #bf6519;
      }
    </style>
  </defs>
  <g class="cls-17">
    <g id="Layer_2" data-name="Layer 2">
      <g id="Layer_1-2" data-name="Layer 1">
        <g>
          <g class="cls-10">
            <path class="cls-7" d="M40.63,73.55h0s0,0,0,0ZM12.33,35.85c.14,0,.27,0,.41,0-.11.12-.22.25-.32.39-.15.2-.26.42-.34.65-.19.34-.33.69-.45,1.08-.03.1-.06.19-.08.29,0,.01,0,.03,0,.04-.04.03-.13.08-.3.16-.71.35-1.1.98-1.3,1.45-.56,1.31-.09,2.52.19,3.24.04.11.08.21.11.31.09.27.19.56.3.86.21.56.55,1.49.4,1.76-.34.62-.51,1.23-.64,1.72-.09.32-.17.6-.26.8-.67,1.43-.44,3.05-.3,3.67.15.7.38,1.33.58,1.89.21.58.4,1.09.46,1.57.03.22.03.48.03.77,0,.75.01,1.68.48,2.71,1.13,2.48,3.31,3.4,5.06,4.13.7.3,1.37.57,1.9.92.56.36,1.11.76,1.69,1.17.66.48,1.35.97,2.08,1.43,1.29.82,2.57,1.74,4.02,2.89,1.43,1.15,3.16,1.83,4.36,2.21.74.23,1.44.47,2.14.72.3.11.6.21.91.3.5.16.93.29,1.25.49.24.14.5.36.78.59.21.17.43.35.65.51.92.68,1.98.79,2.74.86.11.01.22.02.32.04l.25.04c.31.05.74.13,1.19.13.38,0,.72-.05,1.04-.15.78-.24,1.39-.64,1.87-.98.12-.06.23-.14.34-.22.22-.09.86-.12,1.25-.13.53-.02,1.08-.05,1.62-.16,1.41-.3,2.64-.67,3.74-1.15l.48-.21c1.11-.48,2.16-.94,3.24-1.17.49-.11,1.01-.19,1.55-.27.79-.12,1.6-.25,2.44-.48,1.09-.29,2.14-.63,3.17-.96,1.58-.5,3.06-.98,4.61-1.28,2.26-.45,5.23-1.01,8.2-1.4.6-.08,1.2-.14,1.84-.21,1.84-.19,3.75-.38,5.62-1.02,2.35-.79,3.71-2.8,3.64-5.38-.01-.53-.08-1.03-.14-1.47-.06-.43-.11-.84-.1-1.19.01-.43.09-.9.16-1.39.11-.71.24-1.51.21-2.39-.02-.65-.07-1.27-.13-1.87-.06-.68-.11-1.32-.12-1.94v-.04c.56-.04,1.12-.11,1.62-.17.4-.05.85-.11,1.04-.11.8.05,1.59.25,2.43.47,1.09.28,2.33.59,3.73.59.29,0,.59-.01.88-.04,1.23-.12,2.24-.57,3.14-.98l.1-.04c.7-.31,1.38-.45,2.19-.45.5,0,1.06.05,1.82.16,1.13.17,2.22.18,3.25.03,1.28-.18,2.47-.6,3.63-1.28,3.71-2.16,6.43-6.5,6.62-10.56.09-1.83.2-3.12.96-4.44.3-.51.64-1.02,1.01-1.56.38-.55.77-1.13,1.13-1.75.79-1.35,1.22-2.83,1.28-4.41.02-.5-.03-1.01-.15-1.5-.1-.43-.25-.83-.44-1.2-.38-.72-.92-1.35-1.6-1.87-.3-.22-.59-.47-.89-.71-.73-.6-1.55-1.27-2.5-1.77-.46-.24-1.69-.82-3.04-.85-.48-.01-.95-.01-1.4-.01-2.2,0-3.65,0-5.37-1.14-1.72-1.13-3.52-1.26-4.73-1.26-.78,0-1.53.06-2.26.12-.37.03-.73.06-1.09.08-1.75.1-3.69-.19-5.59-.47-.82-.12-1.68-.24-2.5-.34l-.27-.03c-2.22-.25-4.14-.46-5.23-1.77-.74-.89-1.77-1.4-2.91-1.43h-.35c-.54-.02-1.04-.03-1.53-.08-.66-.07-1.2-.07-1.7,0-.85.1-1.57.32-2.19.68-.33.19-.64.43-.94.73-.11.11-.22.23-.32.36l-.04.04c-.13.11-.35.29-.56.56-.24.31-.57.8-.76,1.34l-.03.09c-.06.16-.09.25-.11.3-.03.04-.13.16-.17.21-.19.22-.43.45-.75.73-.46.39-.97.76-1.52,1.15-.2.15-.41.29-.61.44-.56.41-1,.76-1.4,1.12-.06.05-.11.1-.17.15-.45-1.47-1.27-2.72-2.43-3.74-1.01-.88-2.18-1.48-3.22-2.02-.5-.25-.96-.49-1.39-.75-1.63-.98-3.03-2.41-4.5-3.92l-.47-.48c-1.21-1.23-2.72-2.77-4.92-3.35-.41-.11-.84-.16-1.28-.16-1.29,0-2.69.44-4.27,1.36-.71.19-1.45.37-2.18.48-.37.05-.79.08-1.24.08-1.22,0-2.53-.19-3.8-.37l-.31-.04c-.27-.04-.63-.18-1.02-.32-.46-.18-.99-.38-1.58-.5-.53-.11-1.04-.15-1.48-.19-.4-.04-.77-.07-1.08-.14-.39-.09-.8-.2-1.22-.31-1.22-.32-2.59-.69-3.92-.71h-.17c-1.75,0-3.18.5-4.56.99l-.49.17c-1.19.41-2.34.59-3.86.59-.41,0-.86-.01-1.41-.04-.49-.02-.95-.06-1.4-.09-.95-.07-1.93-.14-3.02-.12-1.28.02-2.58.35-4.1,1.02l-.05.02c-.38.17-.8.36-1.23.59-.91.49-1.56,1.04-2.04,1.71-.96,1.35-1.25,3.11-.82,4.97.19.84.49,1.56.77,2.26.09.21.17.43.25.64.33.86,0,1.65-.84,3.24-1.07,2.05-1.28,3.97-.66,6.05.56,1.87,1.19,3.73,1.82,5.38.73,1.92,2.59,3.34,5.23,4,.86.21,1.66.22,2.36.23Z"/>
            <path class="cls-19" d="M40.39,73.17h0s0,0,0,0ZM12.09,35.47c.14,0,.27,0,.41,0-.11.12-.22.25-.32.39-.15.2-.26.42-.34.65-.19.34-.33.69-.45,1.08-.03.1-.06.19-.08.29,0,.01,0,.03,0,.04-.04.03-.13.08-.29.16-.71.35-1.1.98-1.3,1.45-.56,1.31-.09,2.52.19,3.24.04.11.08.21.11.31.09.27.19.56.3.86.21.56.55,1.49.4,1.76-.34.62-.51,1.23-.64,1.72-.09.32-.17.59-.26.81-.67,1.43-.44,3.05-.3,3.67.15.7.38,1.33.58,1.89.21.58.4,1.09.46,1.57.03.22.03.48.03.77,0,.75.01,1.68.48,2.71,1.13,2.48,3.31,3.4,5.06,4.13.7.3,1.37.58,1.9.92.56.36,1.11.76,1.69,1.17.66.48,1.35.97,2.08,1.43,1.29.82,2.57,1.74,4.02,2.89,1.43,1.15,3.16,1.83,4.36,2.21.75.23,1.44.47,2.14.72.3.11.6.21.91.3.5.16.93.29,1.25.48.24.15.5.36.78.59.21.17.43.35.65.51.92.68,1.98.79,2.74.86.11.01.22.02.32.03l.25.04c.31.05.74.13,1.19.13.38,0,.72-.05,1.04-.15.78-.24,1.39-.64,1.87-.98.12-.06.23-.14.34-.22.22-.09.86-.12,1.25-.13.53-.02,1.08-.05,1.62-.16,1.41-.3,2.64-.67,3.74-1.15l.48-.21c1.11-.48,2.16-.94,3.24-1.17.49-.11,1.01-.19,1.55-.27.79-.12,1.6-.25,2.44-.48,1.09-.29,2.14-.63,3.17-.96,1.58-.5,3.06-.98,4.61-1.28,2.26-.45,5.23-1.01,8.2-1.4.6-.08,1.2-.14,1.84-.21,1.84-.19,3.75-.39,5.62-1.02,2.34-.79,3.71-2.8,3.64-5.38-.01-.53-.08-1.03-.14-1.47-.06-.43-.11-.84-.1-1.19.01-.43.09-.89.16-1.39.11-.71.24-1.51.21-2.39-.02-.65-.07-1.27-.13-1.87-.06-.68-.11-1.32-.12-1.94v-.04c.56-.04,1.12-.11,1.62-.17.4-.05.85-.11,1.04-.11.8.05,1.59.25,2.43.47,1.09.28,2.33.59,3.73.59.29,0,.59-.01.88-.04,1.23-.12,2.24-.57,3.13-.98l.1-.04c.7-.31,1.38-.45,2.19-.45.5,0,1.06.05,1.82.17,1.13.17,2.22.18,3.25.03,1.28-.18,2.47-.6,3.63-1.28,3.71-2.16,6.43-6.5,6.62-10.56.09-1.83.2-3.12.96-4.44.3-.51.64-1.02,1.01-1.56.38-.55.77-1.13,1.13-1.75.79-1.35,1.22-2.83,1.28-4.41.02-.5-.03-1.01-.15-1.5-.1-.43-.25-.83-.44-1.2-.38-.72-.92-1.35-1.6-1.87-.3-.22-.59-.47-.89-.71-.73-.6-1.55-1.27-2.5-1.77-.46-.24-1.69-.82-3.04-.85-.48-.01-.95-.01-1.4-.01-2.2,0-3.65,0-5.37-1.14-1.72-1.13-3.52-1.26-4.73-1.26-.78,0-1.53.06-2.26.12-.37.03-.73.06-1.1.08-1.75.1-3.69-.19-5.59-.47-.82-.12-1.67-.24-2.5-.34l-.27-.03c-2.22-.25-4.14-.46-5.23-1.77-.74-.89-1.77-1.4-2.91-1.43h-.35c-.54-.02-1.04-.03-1.53-.08-.66-.07-1.2-.07-1.7,0-.85.1-1.57.32-2.19.68-.33.19-.64.43-.94.73-.11.11-.22.23-.32.36l-.04.04c-.13.11-.35.29-.56.56-.24.31-.57.8-.76,1.34l-.03.09c-.06.16-.09.25-.11.3-.03.04-.13.16-.17.21-.19.22-.43.45-.75.73-.46.39-.97.76-1.52,1.15-.21.15-.41.29-.61.44-.56.41-1,.76-1.4,1.12-.06.05-.11.1-.17.15-.45-1.47-1.27-2.72-2.43-3.74-1.01-.88-2.18-1.48-3.22-2.02-.5-.25-.96-.49-1.39-.75-1.63-.98-3.03-2.41-4.5-3.92l-.47-.48c-1.21-1.23-2.72-2.77-4.92-3.35-.41-.11-.84-.16-1.28-.16-1.29,0-2.69.44-4.27,1.36-.71.19-1.45.37-2.18.48-.37.05-.79.08-1.24.08-1.22,0-2.53-.19-3.8-.37l-.31-.04c-.27-.04-.63-.18-1.02-.32-.46-.18-.99-.38-1.58-.5-.53-.11-1.04-.15-1.48-.2-.4-.04-.77-.07-1.08-.14-.39-.09-.8-.2-1.22-.31-1.22-.32-2.59-.68-3.92-.71h-.17c-1.74,0-3.18.5-4.56.99l-.49.17c-1.19.41-2.34.59-3.86.59-.42,0-.87-.01-1.41-.04-.49-.02-.95-.06-1.4-.09-.95-.07-1.93-.14-3.02-.12-1.28.02-2.58.35-4.1,1.02l-.05.02c-.38.17-.8.36-1.23.59-.91.49-1.56,1.04-2.04,1.71-.96,1.35-1.25,3.11-.82,4.97.19.83.49,1.56.77,2.26.08.21.17.43.25.64.33.86,0,1.65-.84,3.25-1.07,2.05-1.28,3.97-.66,6.05.56,1.87,1.19,3.73,1.82,5.38.73,1.92,2.59,3.34,5.24,4,.86.21,1.66.22,2.36.23Z"/>
            <path class="cls-13" d="M40.16,72.78h0s0,0,0,0ZM11.86,35.08c.14,0,.27,0,.41,0-.11.12-.22.25-.32.39-.15.2-.26.42-.34.65-.19.34-.33.69-.45,1.08-.03.09-.06.19-.08.29,0,.01,0,.03,0,.04-.04.03-.13.08-.3.16-.71.35-1.1.98-1.3,1.45-.56,1.31-.09,2.52.19,3.24.04.11.08.21.11.31.09.27.19.56.3.85.21.56.55,1.49.4,1.76-.34.62-.51,1.23-.64,1.72-.09.32-.17.59-.26.8-.67,1.43-.44,3.05-.3,3.67.15.7.38,1.33.58,1.89.21.58.4,1.09.46,1.57.03.22.03.48.03.77,0,.75.01,1.68.48,2.71,1.13,2.48,3.31,3.4,5.06,4.13.7.3,1.37.57,1.9.92.56.36,1.11.76,1.69,1.17.66.48,1.35.97,2.08,1.43,1.29.82,2.57,1.74,4.02,2.89,1.43,1.15,3.16,1.83,4.36,2.21.75.23,1.44.47,2.14.72.3.11.6.21.91.3.5.16.93.29,1.25.49.24.15.5.36.78.59.21.17.43.35.65.51.92.68,1.98.79,2.75.86.11.01.22.02.32.03l.25.04c.31.05.74.13,1.19.13.38,0,.72-.05,1.04-.15.78-.24,1.39-.64,1.87-.98.12-.06.23-.14.34-.22.22-.09.86-.12,1.25-.13.53-.02,1.08-.05,1.62-.16,1.41-.3,2.64-.67,3.74-1.15l.48-.21c1.11-.48,2.16-.94,3.24-1.17.49-.11,1.01-.19,1.55-.27.79-.12,1.6-.25,2.44-.48,1.09-.29,2.14-.63,3.17-.96,1.58-.5,3.07-.98,4.61-1.28,2.26-.45,5.23-1.01,8.2-1.4.6-.08,1.2-.14,1.84-.21,1.84-.19,3.75-.39,5.62-1.02,2.35-.79,3.71-2.8,3.64-5.37-.01-.53-.08-1.03-.14-1.47-.06-.43-.11-.84-.1-1.19.01-.43.09-.89.16-1.39.11-.71.24-1.51.21-2.39-.02-.65-.07-1.27-.13-1.87-.06-.68-.11-1.32-.12-1.94v-.03c.56-.04,1.12-.11,1.62-.17.4-.05.85-.11,1.04-.11.8.05,1.59.25,2.43.47,1.09.28,2.33.59,3.73.59.29,0,.59-.01.88-.04,1.23-.12,2.24-.57,3.14-.98l.1-.04c.7-.31,1.38-.45,2.19-.45.5,0,1.06.05,1.82.17,1.13.17,2.22.18,3.25.03,1.28-.19,2.47-.6,3.63-1.28,3.71-2.16,6.43-6.5,6.62-10.56.08-1.83.2-3.12.96-4.44.3-.51.64-1.02,1.01-1.56.38-.55.77-1.13,1.13-1.75.79-1.35,1.22-2.83,1.28-4.41.02-.5-.03-1.01-.15-1.5-.1-.43-.25-.83-.44-1.2-.38-.72-.92-1.35-1.6-1.87-.3-.22-.59-.47-.89-.71-.73-.6-1.55-1.27-2.5-1.77-.46-.24-1.69-.82-3.04-.85-.48-.01-.95-.01-1.4-.01-2.2,0-3.65,0-5.37-1.14-1.72-1.13-3.52-1.26-4.73-1.26-.78,0-1.53.06-2.26.12-.37.03-.73.06-1.1.08-1.75.1-3.69-.19-5.59-.47-.82-.12-1.68-.24-2.5-.34l-.27-.03c-2.22-.25-4.14-.46-5.23-1.77-.74-.89-1.77-1.4-2.91-1.43h-.35c-.54-.02-1.04-.03-1.53-.08-.66-.07-1.2-.07-1.7,0-.85.1-1.57.32-2.19.68-.33.19-.64.43-.94.73-.11.11-.22.23-.32.36l-.04.04c-.13.11-.35.29-.56.56-.24.31-.57.8-.76,1.34l-.03.09c-.06.16-.09.25-.11.3-.03.04-.13.16-.17.21-.19.22-.43.45-.75.73-.46.39-.97.76-1.52,1.15-.2.15-.41.29-.61.44-.56.41-1,.76-1.4,1.12-.06.05-.11.1-.17.15-.45-1.47-1.27-2.72-2.43-3.74-1.01-.88-2.18-1.48-3.22-2.02-.5-.25-.96-.49-1.39-.75-1.63-.98-3.03-2.41-4.5-3.92l-.47-.48c-1.21-1.24-2.72-2.77-4.92-3.35-.41-.11-.84-.16-1.28-.16-1.29,0-2.69.44-4.27,1.36-.71.19-1.45.37-2.18.48-.37.05-.79.08-1.24.08-1.22,0-2.53-.19-3.8-.37l-.31-.04c-.27-.04-.63-.18-1.02-.32-.46-.18-.99-.38-1.58-.5-.53-.11-1.04-.15-1.48-.19-.4-.04-.77-.07-1.08-.14-.39-.09-.8-.2-1.22-.31-1.22-.32-2.59-.68-3.92-.71h-.17c-1.75,0-3.18.5-4.56.99l-.49.17c-1.19.41-2.34.59-3.86.59-.42,0-.86-.01-1.41-.04-.49-.02-.95-.06-1.4-.09-.95-.07-1.93-.14-3.02-.12-1.28.02-2.58.35-4.1,1.02l-.05.02c-.38.17-.8.36-1.23.59-.91.49-1.56,1.04-2.04,1.71-.96,1.35-1.25,3.11-.82,4.97.19.83.49,1.56.77,2.26.09.21.17.42.25.64.33.86,0,1.65-.84,3.24-1.07,2.05-1.28,3.97-.66,6.05.56,1.87,1.19,3.73,1.82,5.37.73,1.92,2.59,3.34,5.24,4,.86.21,1.66.22,2.36.23Z"/>
            <path class="cls-25" d="M39.93,72.4h0s0,0,0,0ZM11.63,34.7c.14,0,.28,0,.41,0-.11.12-.22.25-.32.39-.15.2-.26.42-.34.65-.19.34-.33.69-.45,1.08-.03.1-.06.19-.08.29,0,.01,0,.03,0,.04-.04.03-.13.08-.3.16-.71.35-1.1.98-1.3,1.45-.56,1.31-.09,2.52.19,3.24.04.11.08.21.11.31.09.27.19.56.3.85.21.56.55,1.49.4,1.76-.34.62-.51,1.23-.64,1.72-.09.32-.17.59-.26.8-.67,1.43-.44,3.05-.3,3.67.15.7.38,1.33.58,1.89.21.58.4,1.09.46,1.57.03.22.03.48.03.77,0,.75.01,1.68.48,2.71,1.13,2.48,3.31,3.4,5.06,4.13.7.3,1.37.57,1.9.92.56.36,1.11.76,1.69,1.17.66.48,1.35.97,2.08,1.43,1.29.82,2.57,1.74,4.02,2.89,1.43,1.15,3.16,1.83,4.36,2.21.74.23,1.44.47,2.14.72.3.11.6.21.91.3.5.16.93.29,1.25.49.24.14.5.36.78.59.21.17.43.35.65.51.92.69,1.98.79,2.74.86.11.01.22.02.32.03l.25.04c.31.05.74.13,1.19.13.38,0,.72-.05,1.04-.15.78-.24,1.39-.64,1.88-.98.12-.06.23-.14.34-.22.22-.09.86-.12,1.25-.13.53-.02,1.08-.05,1.62-.16,1.41-.3,2.64-.67,3.74-1.15l.48-.21c1.11-.48,2.16-.94,3.24-1.17.49-.11,1.01-.19,1.55-.28.79-.12,1.6-.25,2.44-.48,1.09-.29,2.14-.63,3.17-.96,1.58-.5,3.07-.98,4.61-1.28,2.26-.45,5.23-1.01,8.2-1.4.6-.08,1.2-.14,1.84-.21,1.84-.19,3.75-.39,5.62-1.02,2.35-.79,3.71-2.8,3.64-5.38-.01-.53-.08-1.03-.14-1.47-.06-.43-.11-.84-.1-1.19.01-.43.09-.89.16-1.39.11-.71.24-1.51.21-2.39-.02-.65-.07-1.27-.13-1.87-.06-.68-.11-1.32-.12-1.94v-.03c.56-.04,1.12-.11,1.62-.17.4-.05.85-.11,1.04-.11.8.05,1.59.25,2.43.47,1.09.28,2.33.59,3.73.59.29,0,.59-.01.88-.04,1.23-.12,2.24-.57,3.14-.98l.1-.04c.7-.31,1.38-.45,2.19-.45.5,0,1.06.05,1.82.16,1.13.17,2.22.18,3.25.03,1.28-.18,2.47-.6,3.63-1.28,3.71-2.16,6.43-6.5,6.62-10.56.09-1.83.2-3.12.96-4.44.3-.51.64-1.02,1.01-1.56.38-.55.77-1.13,1.13-1.75.79-1.35,1.22-2.83,1.28-4.41.02-.5-.03-1.01-.15-1.5-.1-.43-.25-.83-.44-1.2-.38-.72-.92-1.35-1.6-1.87-.3-.22-.59-.47-.89-.71-.73-.6-1.55-1.27-2.5-1.77-.47-.24-1.69-.82-3.04-.85-.48-.01-.95-.01-1.4-.01-2.2,0-3.65,0-5.37-1.14-1.72-1.13-3.52-1.26-4.73-1.26-.78,0-1.53.06-2.26.12-.37.03-.73.06-1.09.08-1.75.1-3.69-.19-5.59-.47-.82-.12-1.68-.24-2.5-.34l-.27-.03c-2.22-.25-4.14-.46-5.23-1.77-.74-.89-1.78-1.4-2.91-1.43h-.35c-.54-.02-1.04-.03-1.53-.08-.66-.07-1.2-.07-1.7,0-.85.1-1.57.32-2.19.68-.33.19-.64.43-.94.73-.11.11-.22.23-.32.36l-.04.04c-.13.11-.35.29-.56.56-.24.31-.57.8-.76,1.34l-.03.09c-.06.16-.08.25-.11.3-.03.04-.13.16-.17.21-.19.22-.43.45-.75.73-.46.39-.97.76-1.52,1.15-.2.15-.41.29-.61.44-.56.41-1,.76-1.4,1.12-.06.05-.11.1-.17.15-.45-1.47-1.27-2.72-2.43-3.74-1.01-.88-2.18-1.48-3.22-2.02-.5-.25-.96-.49-1.39-.75-1.63-.98-3.03-2.41-4.5-3.92l-.47-.48c-1.21-1.24-2.72-2.77-4.92-3.35-.41-.11-.84-.16-1.28-.16-1.29,0-2.69.44-4.27,1.36-.71.19-1.45.37-2.18.48-.37.05-.79.08-1.24.08-1.22,0-2.53-.19-3.8-.37l-.31-.04c-.27-.04-.63-.18-1.02-.32-.46-.18-.99-.38-1.58-.5-.53-.11-1.04-.15-1.48-.19-.4-.04-.77-.07-1.08-.14-.39-.09-.8-.2-1.22-.31-1.22-.32-2.59-.69-3.92-.71h-.17c-1.75,0-3.18.5-4.56.99l-.49.17c-1.19.41-2.34.59-3.86.59-.41,0-.86-.01-1.41-.04-.49-.02-.95-.06-1.4-.09-.95-.07-1.93-.14-3.02-.12-1.28.02-2.58.35-4.1,1.02l-.05.02c-.38.17-.8.36-1.23.59-.91.49-1.56,1.04-2.04,1.71-.96,1.35-1.25,3.11-.82,4.97.19.84.49,1.56.77,2.26.08.21.17.43.25.64.33.86,0,1.65-.84,3.24-1.07,2.05-1.28,3.97-.66,6.05.56,1.87,1.19,3.73,1.82,5.38.73,1.92,2.59,3.34,5.23,4,.86.21,1.66.22,2.36.23Z"/>
            <path class="cls-22" d="M39.69,72.01h0s0,0,0,0ZM11.39,34.31c.14,0,.28,0,.41,0-.11.12-.22.25-.32.39-.15.2-.26.42-.34.65-.19.34-.33.69-.45,1.08-.03.1-.06.19-.08.29,0,.01,0,.03,0,.04-.04.03-.13.08-.29.16-.71.35-1.1.98-1.3,1.45-.56,1.31-.09,2.52.19,3.24.04.11.08.21.11.31.09.27.19.56.3.85.21.56.55,1.49.4,1.76-.34.62-.51,1.23-.64,1.73-.09.32-.17.59-.26.8-.67,1.43-.44,3.05-.3,3.67.15.7.38,1.33.58,1.89.21.58.4,1.09.46,1.57.03.22.03.48.03.77,0,.75.01,1.68.48,2.71,1.13,2.48,3.31,3.4,5.06,4.13.7.3,1.37.57,1.9.92.56.36,1.11.76,1.69,1.17.66.48,1.35.97,2.08,1.43,1.29.82,2.57,1.74,4.02,2.89,1.43,1.15,3.16,1.83,4.36,2.21.74.23,1.44.47,2.14.72.3.11.6.21.91.3.5.16.93.29,1.25.49.24.14.5.36.78.59.21.17.43.35.65.51.92.68,1.98.79,2.74.86.11.01.22.02.32.04l.25.04c.31.05.74.13,1.19.13.38,0,.72-.05,1.04-.15.78-.24,1.39-.64,1.88-.98.12-.06.23-.14.34-.22.22-.09.86-.12,1.25-.13.53-.02,1.08-.05,1.62-.16,1.41-.3,2.64-.67,3.74-1.15l.48-.21c1.11-.48,2.16-.94,3.24-1.17.49-.11,1.01-.19,1.55-.27.79-.12,1.6-.25,2.44-.48,1.09-.29,2.14-.63,3.17-.96,1.58-.5,3.07-.98,4.61-1.28,2.26-.45,5.23-1.01,8.2-1.4.6-.08,1.2-.14,1.84-.21,1.84-.19,3.75-.39,5.62-1.02,2.35-.79,3.71-2.8,3.64-5.38-.01-.53-.08-1.03-.14-1.47-.06-.43-.11-.84-.1-1.19.01-.43.09-.89.16-1.39.11-.71.24-1.51.21-2.39-.02-.65-.07-1.27-.12-1.87-.06-.68-.12-1.32-.12-1.95v-.03c.56-.04,1.12-.11,1.62-.17.4-.05.85-.11,1.04-.11.8.05,1.59.25,2.43.47,1.09.28,2.33.59,3.73.59.29,0,.59-.01.88-.04,1.23-.12,2.24-.57,3.14-.98l.1-.04c.7-.31,1.38-.45,2.19-.45.5,0,1.06.05,1.82.16,1.13.17,2.22.18,3.25.03,1.28-.18,2.47-.6,3.63-1.28,3.71-2.16,6.43-6.5,6.62-10.56.09-1.83.2-3.12.96-4.44.3-.51.64-1.02,1.01-1.56.38-.55.77-1.13,1.13-1.75.79-1.35,1.22-2.83,1.28-4.41.02-.5-.03-1.01-.15-1.5-.1-.43-.25-.83-.44-1.2-.38-.72-.92-1.35-1.6-1.87-.3-.22-.59-.47-.89-.71-.73-.6-1.55-1.27-2.5-1.77-.47-.24-1.69-.82-3.04-.85-.48-.01-.95-.01-1.4-.01-2.2,0-3.65,0-5.37-1.14-1.72-1.13-3.52-1.26-4.73-1.26-.78,0-1.53.06-2.26.12-.37.03-.73.06-1.09.08-1.75.1-3.69-.19-5.59-.47-.82-.12-1.68-.24-2.5-.34l-.27-.03c-2.22-.25-4.14-.46-5.23-1.77-.74-.89-1.77-1.4-2.91-1.43h-.35c-.54-.02-1.04-.03-1.53-.08-.66-.07-1.2-.07-1.7,0-.85.1-1.57.32-2.19.68-.33.19-.64.43-.94.73-.11.11-.22.23-.32.36l-.04.04c-.13.11-.35.29-.56.56-.24.32-.57.8-.76,1.34l-.03.09c-.05.16-.09.25-.11.3-.03.04-.13.16-.17.21-.19.22-.43.45-.75.73-.46.39-.97.76-1.52,1.15-.2.15-.41.29-.61.44-.56.41-1,.76-1.4,1.12-.06.05-.11.1-.17.15-.45-1.47-1.27-2.72-2.43-3.74-1.01-.88-2.18-1.48-3.22-2.02-.5-.25-.96-.49-1.39-.75-1.63-.98-3.03-2.41-4.5-3.92l-.47-.48c-1.21-1.24-2.72-2.77-4.92-3.35-.41-.11-.84-.16-1.28-.16-1.29,0-2.69.44-4.27,1.36-.71.19-1.45.37-2.18.48-.37.05-.79.08-1.24.08-1.22,0-2.53-.19-3.8-.37l-.31-.04c-.27-.04-.63-.18-1.02-.32-.46-.18-.99-.38-1.58-.5-.53-.11-1.04-.15-1.48-.19-.4-.04-.77-.07-1.08-.14-.39-.09-.8-.2-1.22-.31-1.22-.32-2.59-.69-3.92-.71h-.17c-1.75,0-3.18.5-4.56.99l-.49.17c-1.19.41-2.34.59-3.86.59-.41,0-.86-.01-1.41-.04-.49-.02-.95-.06-1.4-.09-.95-.07-1.93-.14-3.02-.12-1.28.02-2.58.35-4.1,1.02l-.05.02c-.38.17-.8.36-1.23.59-.91.49-1.56,1.04-2.04,1.71-.96,1.35-1.25,3.11-.82,4.97.19.84.49,1.56.77,2.27.08.21.17.42.25.64.33.86,0,1.65-.84,3.24-1.07,2.05-1.28,3.97-.66,6.05.56,1.87,1.19,3.73,1.82,5.38.73,1.92,2.59,3.34,5.24,4,.86.21,1.66.22,2.36.23Z"/>
            <path class="cls-26" d="M39.46,71.63h0s0,0,0,0ZM11.16,33.93c.14,0,.28,0,.41,0-.11.12-.22.25-.32.39-.15.2-.26.42-.34.65-.19.34-.33.69-.45,1.08-.03.1-.06.19-.08.29,0,.01,0,.03,0,.04-.04.03-.13.08-.29.16-.71.35-1.1.98-1.3,1.45-.56,1.31-.09,2.52.19,3.24.04.11.08.21.11.31.09.27.19.56.3.85.21.56.55,1.49.4,1.76-.34.62-.51,1.23-.64,1.73-.09.32-.17.6-.26.8-.67,1.43-.44,3.05-.3,3.67.15.7.38,1.33.58,1.89.21.58.4,1.09.46,1.57.03.22.03.48.03.77,0,.75.01,1.68.48,2.71,1.13,2.48,3.31,3.4,5.06,4.14.7.3,1.37.57,1.9.92.56.36,1.11.76,1.69,1.17.66.48,1.35.97,2.08,1.43,1.29.82,2.57,1.74,4.02,2.89,1.43,1.15,3.16,1.83,4.36,2.21.74.23,1.44.47,2.14.72.3.11.6.21.91.3.5.16.93.29,1.25.49.24.14.5.36.78.59.21.17.43.35.65.51.92.69,1.98.79,2.74.86.11.01.22.02.32.04l.25.04c.31.05.74.13,1.19.13.38,0,.72-.05,1.04-.15.78-.24,1.39-.64,1.88-.98.12-.06.23-.14.34-.22.22-.09.86-.12,1.25-.13.53-.02,1.08-.05,1.62-.16,1.41-.3,2.64-.67,3.74-1.15l.48-.21c1.11-.48,2.16-.94,3.24-1.17.49-.11,1.01-.19,1.55-.28.79-.12,1.6-.25,2.44-.48,1.09-.29,2.14-.63,3.17-.96,1.58-.5,3.07-.98,4.61-1.28,2.26-.45,5.23-1.01,8.2-1.4.6-.08,1.2-.14,1.84-.21,1.84-.19,3.75-.39,5.62-1.02,2.35-.79,3.71-2.8,3.64-5.38-.01-.53-.08-1.03-.14-1.47-.06-.43-.11-.84-.1-1.19.01-.43.09-.9.16-1.39.11-.71.24-1.51.21-2.39-.02-.65-.07-1.27-.12-1.87-.06-.68-.12-1.32-.12-1.95v-.03c.56-.04,1.12-.11,1.62-.17.4-.05.85-.11,1.04-.11.8.05,1.59.25,2.43.47,1.09.28,2.33.59,3.73.59.29,0,.59-.01.88-.04,1.23-.12,2.24-.57,3.14-.98l.1-.04c.7-.31,1.38-.45,2.19-.45.5,0,1.06.05,1.82.16,1.13.17,2.22.18,3.25.03,1.28-.18,2.47-.6,3.63-1.28,3.71-2.16,6.43-6.5,6.62-10.56.09-1.83.2-3.12.96-4.44.3-.51.64-1.02,1.01-1.56.38-.55.77-1.13,1.13-1.75.79-1.35,1.22-2.83,1.28-4.41.02-.5-.03-1.01-.15-1.5-.1-.43-.25-.83-.44-1.2-.38-.72-.92-1.35-1.6-1.87-.3-.22-.59-.47-.89-.71-.73-.6-1.55-1.27-2.5-1.77-.46-.25-1.69-.82-3.04-.85-.48-.01-.95-.01-1.4-.01-2.2,0-3.65,0-5.37-1.14-1.72-1.13-3.52-1.26-4.73-1.26-.78,0-1.53.06-2.26.12-.37.03-.73.06-1.1.08-1.75.1-3.69-.19-5.59-.47-.82-.12-1.68-.24-2.5-.34l-.27-.03c-2.22-.25-4.14-.46-5.23-1.77-.74-.89-1.78-1.4-2.91-1.43h-.35c-.54-.02-1.04-.03-1.53-.08-.66-.07-1.2-.07-1.7,0-.85.1-1.57.32-2.19.68-.33.19-.64.43-.94.73-.11.11-.22.23-.32.36l-.04.04c-.13.11-.35.29-.56.56-.24.32-.57.8-.76,1.34l-.03.09c-.06.16-.09.25-.11.3-.03.04-.13.16-.17.21-.19.22-.43.45-.75.73-.46.39-.97.76-1.52,1.15-.2.15-.41.29-.61.44-.56.41-1,.76-1.4,1.12-.06.05-.11.1-.17.15-.45-1.47-1.27-2.72-2.43-3.74-1.01-.88-2.18-1.48-3.22-2.02-.5-.25-.96-.49-1.39-.75-1.63-.98-3.03-2.41-4.5-3.92l-.47-.48c-1.21-1.24-2.72-2.77-4.92-3.35-.41-.11-.84-.16-1.28-.16-1.29,0-2.69.44-4.27,1.36-.71.19-1.45.37-2.18.48-.37.05-.79.08-1.24.08-1.22,0-2.53-.19-3.8-.37l-.31-.04c-.27-.04-.63-.18-1.02-.32-.46-.18-.99-.38-1.58-.5-.53-.11-1.04-.15-1.48-.19-.4-.04-.77-.07-1.08-.14-.39-.09-.8-.2-1.22-.31-1.22-.32-2.59-.69-3.92-.71h-.17c-1.75,0-3.18.5-4.56.99l-.49.17c-1.19.41-2.34.59-3.86.59-.42,0-.86-.01-1.41-.04-.49-.02-.95-.06-1.4-.09-.95-.07-1.93-.14-3.02-.12-1.28.02-2.58.35-4.1,1.02l-.05.02c-.38.17-.8.36-1.23.59-.91.49-1.56,1.04-2.04,1.71-.96,1.35-1.25,3.11-.82,4.97.19.83.49,1.56.77,2.26.08.21.17.42.25.64.33.86,0,1.65-.84,3.24-1.07,2.05-1.28,3.97-.66,6.05.56,1.87,1.19,3.73,1.82,5.38.73,1.92,2.59,3.34,5.24,4,.86.21,1.66.22,2.36.23Z"/>
            <path class="cls-23" d="M39.23,71.24h0s0,0,0,0ZM10.93,33.54c.14,0,.28,0,.41,0-.11.12-.22.25-.32.39-.15.2-.26.42-.34.65-.19.34-.33.69-.45,1.08-.03.1-.05.19-.08.29,0,.01,0,.03,0,.04-.04.03-.13.08-.3.16-.71.35-1.1.98-1.3,1.45-.56,1.31-.09,2.52.19,3.24.04.11.08.21.11.31.09.28.19.56.3.86.21.56.55,1.49.4,1.76-.34.62-.51,1.23-.64,1.72-.09.32-.17.6-.26.8-.67,1.43-.44,3.05-.3,3.67.15.7.38,1.33.58,1.89.21.58.4,1.09.46,1.57.03.22.03.48.03.77,0,.75.01,1.68.48,2.71,1.13,2.48,3.31,3.4,5.06,4.14.7.3,1.37.57,1.9.92.56.36,1.11.76,1.69,1.17.66.48,1.35.97,2.08,1.43,1.29.82,2.57,1.74,4.02,2.89,1.43,1.15,3.16,1.83,4.36,2.21.75.23,1.44.47,2.14.72.3.11.6.21.91.3.5.16.93.29,1.25.49.24.14.5.36.78.59.21.17.43.35.65.51.92.68,1.98.79,2.74.86.11.01.22.02.32.04l.25.04c.31.05.74.13,1.19.13.38,0,.72-.05,1.04-.15.78-.24,1.39-.64,1.88-.98.12-.06.23-.14.34-.22.22-.09.86-.12,1.25-.13.53-.02,1.08-.05,1.62-.16,1.41-.3,2.64-.67,3.74-1.15l.48-.21c1.11-.48,2.16-.94,3.24-1.18.49-.11,1.01-.19,1.55-.27.79-.12,1.6-.25,2.44-.48,1.09-.29,2.14-.63,3.17-.96,1.58-.5,3.07-.98,4.61-1.28,2.26-.45,5.23-1.01,8.2-1.4.6-.08,1.2-.14,1.84-.21,1.84-.19,3.75-.39,5.62-1.02,2.35-.79,3.71-2.8,3.64-5.38-.01-.53-.08-1.03-.14-1.47-.06-.43-.11-.84-.1-1.19.01-.43.09-.9.16-1.39.11-.71.24-1.51.21-2.39-.02-.65-.07-1.27-.12-1.87-.06-.68-.11-1.32-.12-1.94v-.04c.56-.04,1.12-.11,1.62-.17.4-.05.85-.11,1.04-.11.8.05,1.59.25,2.43.47,1.09.28,2.33.59,3.73.59.29,0,.59-.01.88-.04,1.23-.12,2.24-.57,3.13-.98l.1-.04c.7-.31,1.38-.45,2.19-.45.5,0,1.06.05,1.82.16,1.13.17,2.22.18,3.25.03,1.28-.18,2.47-.6,3.63-1.28,3.71-2.16,6.43-6.5,6.62-10.56.09-1.83.2-3.12.96-4.44.3-.51.64-1.02,1.01-1.56.38-.55.77-1.13,1.13-1.75.79-1.35,1.22-2.83,1.28-4.41.02-.5-.03-1.01-.15-1.5-.1-.43-.25-.83-.44-1.2-.38-.72-.92-1.35-1.6-1.87-.3-.22-.6-.47-.89-.71-.73-.6-1.55-1.27-2.5-1.77-.46-.24-1.69-.82-3.04-.85-.48-.01-.95-.01-1.4-.01-2.2,0-3.65,0-5.37-1.14-1.71-1.13-3.52-1.26-4.73-1.26-.78,0-1.53.06-2.26.12-.37.03-.73.06-1.1.08-1.75.1-3.69-.19-5.59-.47-.82-.12-1.68-.24-2.5-.34l-.27-.03c-2.22-.25-4.14-.46-5.23-1.77-.74-.89-1.77-1.4-2.91-1.43h-.35c-.54-.02-1.04-.03-1.53-.08-.66-.07-1.2-.07-1.7,0-.85.1-1.57.32-2.19.68-.33.19-.64.43-.94.73-.11.11-.22.23-.32.36l-.04.04c-.13.11-.35.29-.56.56-.24.32-.57.8-.76,1.34l-.03.09c-.06.16-.09.25-.11.3-.03.04-.13.16-.17.21-.19.22-.43.45-.75.73-.46.39-.97.76-1.52,1.15-.2.15-.41.29-.61.44-.56.41-1,.76-1.4,1.12-.06.05-.11.1-.17.15-.45-1.47-1.27-2.72-2.43-3.74-1.01-.88-2.18-1.48-3.22-2.02-.5-.25-.96-.49-1.39-.75-1.63-.98-3.03-2.41-4.5-3.92l-.47-.48c-1.21-1.23-2.72-2.77-4.92-3.35-.41-.11-.84-.16-1.28-.16-1.29,0-2.69.44-4.27,1.36-.71.19-1.45.37-2.18.48-.37.05-.79.08-1.24.08-1.22,0-2.53-.19-3.8-.37l-.31-.04c-.27-.04-.63-.18-1.02-.32-.46-.18-.99-.38-1.58-.5-.53-.11-1.04-.15-1.48-.19-.4-.04-.77-.07-1.08-.14-.39-.09-.8-.2-1.22-.31-1.22-.32-2.59-.69-3.92-.71h-.17c-1.74,0-3.18.5-4.56.99l-.49.17c-1.19.41-2.34.59-3.86.59-.42,0-.86-.01-1.41-.04-.49-.02-.95-.06-1.4-.09-.95-.07-1.93-.14-3.02-.12-1.28.02-2.58.35-4.1,1.02l-.05.02c-.37.17-.8.36-1.23.59-.91.49-1.56,1.04-2.04,1.71-.96,1.35-1.25,3.11-.82,4.97.19.84.49,1.56.77,2.26.08.21.17.42.25.64.33.86,0,1.65-.84,3.24-1.07,2.05-1.28,3.97-.66,6.05.56,1.87,1.19,3.73,1.82,5.38.73,1.92,2.59,3.34,5.24,4,.86.21,1.66.22,2.36.23Z"/>
            <path class="cls-4" d="M39,70.86h0s0,0,0,0ZM10.7,33.16c.14,0,.27,0,.41,0-.11.12-.22.25-.32.39-.15.2-.26.42-.34.65-.19.34-.33.69-.45,1.08-.03.1-.06.19-.08.29,0,.01,0,.03,0,.04-.04.03-.13.08-.29.16-.71.35-1.1.98-1.3,1.45-.56,1.31-.09,2.52.19,3.24.04.11.08.21.11.31.09.27.19.56.3.86.21.56.55,1.49.4,1.76-.34.62-.51,1.23-.64,1.72-.09.32-.17.6-.26.81-.67,1.43-.44,3.05-.3,3.67.15.7.38,1.33.58,1.89.21.58.4,1.09.46,1.57.03.22.03.48.03.77,0,.75.01,1.68.48,2.71,1.13,2.48,3.31,3.4,5.06,4.13.7.3,1.37.57,1.9.92.56.36,1.11.76,1.69,1.17.66.48,1.35.97,2.08,1.43,1.29.82,2.57,1.74,4.02,2.89,1.43,1.15,3.16,1.83,4.36,2.21.74.23,1.44.47,2.14.72.3.11.6.21.91.3.5.16.93.29,1.25.49.24.14.5.36.78.59.21.17.43.35.65.51.92.68,1.98.79,2.74.86.11.01.22.02.32.04l.25.04c.31.05.74.13,1.19.13.38,0,.72-.05,1.04-.15.78-.24,1.39-.64,1.88-.98.12-.06.23-.14.34-.22.22-.09.86-.12,1.25-.13.53-.02,1.08-.05,1.62-.16,1.41-.3,2.64-.67,3.74-1.15l.48-.21c1.11-.48,2.16-.94,3.24-1.17.49-.11,1.01-.19,1.55-.27.79-.12,1.6-.25,2.44-.48,1.09-.29,2.14-.63,3.17-.96,1.58-.5,3.07-.98,4.61-1.28,2.26-.45,5.23-1.01,8.2-1.4.6-.08,1.2-.14,1.84-.21,1.84-.19,3.75-.38,5.62-1.02,2.35-.79,3.71-2.8,3.64-5.38-.01-.53-.08-1.03-.14-1.47-.06-.43-.11-.84-.1-1.19.01-.43.09-.9.16-1.39.11-.71.24-1.51.21-2.39-.02-.65-.07-1.27-.13-1.87-.06-.68-.12-1.32-.12-1.94v-.04c.56-.04,1.12-.11,1.62-.17.4-.05.85-.11,1.04-.11.8.05,1.59.25,2.43.47,1.09.28,2.33.59,3.73.59.29,0,.59-.01.88-.04,1.23-.12,2.24-.57,3.13-.98l.1-.04c.7-.31,1.38-.45,2.19-.45.5,0,1.06.05,1.82.16,1.13.17,2.22.18,3.25.03,1.28-.18,2.47-.6,3.63-1.28,3.71-2.16,6.43-6.5,6.62-10.56.09-1.83.2-3.12.96-4.44.3-.51.64-1.02,1.01-1.56.38-.55.77-1.13,1.13-1.75.79-1.35,1.22-2.83,1.28-4.41.02-.5-.03-1.01-.15-1.5-.1-.43-.25-.83-.44-1.2-.38-.72-.92-1.35-1.6-1.87-.3-.22-.6-.47-.89-.71-.73-.6-1.55-1.27-2.5-1.77-.46-.24-1.69-.82-3.04-.85-.48-.01-.95-.01-1.4-.01-2.2,0-3.65,0-5.37-1.14-1.72-1.13-3.52-1.26-4.73-1.26-.78,0-1.53.06-2.26.12-.37.03-.73.06-1.1.08-1.75.1-3.69-.19-5.59-.47-.82-.12-1.67-.24-2.5-.34l-.27-.03c-2.22-.25-4.14-.46-5.23-1.77-.74-.89-1.77-1.4-2.91-1.43h-.35c-.54-.02-1.04-.03-1.53-.08-.66-.06-1.2-.07-1.7,0-.85.1-1.57.32-2.19.68-.33.19-.64.43-.94.73-.11.11-.22.23-.32.36l-.04.04c-.13.11-.35.29-.56.56-.24.31-.57.8-.76,1.34l-.03.09c-.06.16-.09.25-.11.3-.03.04-.13.16-.17.21-.19.22-.43.45-.75.73-.46.39-.97.76-1.52,1.15-.2.15-.41.29-.61.44-.56.41-1,.76-1.4,1.12-.06.05-.11.1-.17.15-.45-1.47-1.27-2.72-2.43-3.74-1.01-.88-2.18-1.48-3.22-2.02-.5-.25-.96-.49-1.39-.75-1.63-.98-3.03-2.41-4.5-3.92l-.47-.48c-1.21-1.23-2.72-2.77-4.92-3.35-.41-.11-.84-.16-1.28-.16-1.29,0-2.69.44-4.27,1.36-.71.19-1.45.37-2.18.48-.37.05-.79.08-1.24.08-1.22,0-2.53-.19-3.8-.37l-.31-.05c-.27-.04-.63-.18-1.02-.32-.46-.18-.99-.38-1.58-.5-.53-.11-1.04-.15-1.48-.19-.4-.04-.77-.07-1.08-.14-.39-.09-.8-.2-1.22-.31-1.22-.32-2.59-.69-3.92-.71h-.17c-1.75,0-3.18.5-4.56.99l-.49.17c-1.19.41-2.34.59-3.86.59-.42,0-.86-.01-1.41-.04-.49-.02-.95-.06-1.4-.09-.95-.07-1.93-.14-3.02-.12-1.28.02-2.58.35-4.1,1.02l-.05.02c-.38.17-.8.36-1.23.59-.91.49-1.56,1.04-2.04,1.71-.96,1.35-1.25,3.11-.82,4.97.19.84.49,1.56.77,2.26.09.21.17.42.25.64.33.86,0,1.65-.84,3.24-1.07,2.05-1.28,3.97-.66,6.05.56,1.87,1.19,3.73,1.82,5.38.73,1.92,2.59,3.34,5.24,4,.86.21,1.66.22,2.36.23Z"/>
            <path class="cls-3" d="M38.76,70.48h0s0,0,0,0ZM10.46,32.78c.14,0,.27,0,.41,0-.11.12-.22.25-.32.39-.15.2-.26.42-.34.65-.19.34-.33.69-.45,1.08-.03.1-.06.19-.08.29,0,.01,0,.03,0,.04-.04.03-.13.08-.29.16-.71.35-1.1.98-1.3,1.45-.56,1.31-.09,2.52.19,3.24.04.11.08.21.11.31.09.28.19.56.3.86.21.56.55,1.49.4,1.76-.34.62-.51,1.23-.64,1.72-.09.32-.17.59-.26.8-.67,1.43-.44,3.05-.3,3.67.15.7.38,1.33.58,1.89.21.58.4,1.09.46,1.57.03.22.03.48.03.77,0,.75.01,1.68.48,2.71,1.13,2.48,3.31,3.4,5.06,4.14.7.3,1.37.57,1.9.92.56.36,1.11.76,1.69,1.17.66.48,1.35.97,2.08,1.43,1.29.82,2.57,1.74,4.02,2.89,1.43,1.15,3.16,1.83,4.36,2.21.74.23,1.44.47,2.14.72.3.11.6.21.91.3.5.16.93.29,1.25.49.24.15.5.36.78.59.21.17.43.35.65.51.92.68,1.98.79,2.74.87.11.01.22.02.32.03l.25.04c.31.05.74.13,1.19.13.38,0,.72-.05,1.04-.15.78-.24,1.39-.64,1.88-.98.12-.06.23-.14.34-.22.22-.09.86-.12,1.25-.13.53-.02,1.08-.05,1.62-.16,1.41-.3,2.64-.67,3.74-1.15l.48-.21c1.11-.48,2.16-.94,3.24-1.18.49-.11,1.01-.19,1.55-.27.79-.12,1.6-.25,2.44-.48,1.09-.29,2.14-.63,3.17-.96,1.58-.5,3.07-.98,4.61-1.28,2.26-.45,5.23-1.01,8.2-1.4.6-.08,1.2-.14,1.84-.21,1.85-.19,3.75-.39,5.62-1.02,2.35-.79,3.71-2.8,3.64-5.38-.01-.53-.08-1.03-.14-1.47-.06-.43-.11-.84-.1-1.19.01-.43.09-.89.16-1.39.11-.71.24-1.51.21-2.39-.02-.65-.07-1.27-.13-1.87-.06-.68-.12-1.32-.12-1.94v-.04c.56-.04,1.12-.11,1.62-.17.4-.05.85-.11,1.04-.11.8.05,1.59.25,2.43.47,1.09.28,2.33.59,3.73.59.29,0,.59-.01.88-.04,1.23-.12,2.24-.57,3.14-.98l.1-.04c.7-.31,1.37-.45,2.19-.45.5,0,1.06.05,1.82.16,1.13.17,2.22.18,3.25.03,1.28-.18,2.47-.6,3.63-1.28,3.71-2.16,6.43-6.5,6.62-10.56.09-1.83.2-3.12.96-4.44.3-.51.64-1.02,1.01-1.56.38-.55.77-1.13,1.13-1.75.79-1.35,1.22-2.83,1.28-4.41.02-.5-.03-1.01-.15-1.5-.1-.43-.25-.83-.45-1.2-.38-.72-.92-1.35-1.6-1.87-.3-.22-.6-.47-.89-.71-.73-.6-1.55-1.27-2.5-1.77-.46-.24-1.69-.82-3.04-.85-.48-.01-.95-.01-1.4-.01-2.2,0-3.65,0-5.37-1.14-1.72-1.13-3.52-1.26-4.73-1.26-.78,0-1.53.06-2.26.12-.37.03-.73.06-1.1.08-1.75.1-3.69-.19-5.59-.47-.82-.12-1.68-.24-2.5-.34l-.27-.03c-2.22-.25-4.14-.46-5.23-1.77-.74-.89-1.78-1.4-2.91-1.43h-.35c-.54-.02-1.04-.03-1.53-.08-.66-.06-1.2-.07-1.7,0-.85.1-1.56.32-2.19.68-.33.19-.64.43-.94.73-.11.11-.21.23-.31.36l-.04.04c-.13.11-.35.29-.56.56-.24.32-.57.8-.76,1.34l-.03.09c-.05.16-.09.25-.11.3-.03.04-.13.16-.17.21-.19.22-.43.45-.75.73-.46.39-.97.76-1.52,1.15-.2.15-.41.29-.61.44-.55.41-1,.76-1.4,1.12-.06.05-.11.1-.17.15-.45-1.47-1.27-2.72-2.43-3.74-1.01-.88-2.18-1.48-3.22-2.02-.5-.25-.96-.49-1.39-.75-1.63-.98-3.03-2.41-4.5-3.92l-.47-.48c-1.21-1.23-2.72-2.77-4.92-3.35-.41-.11-.84-.16-1.28-.16-1.29,0-2.69.44-4.27,1.36-.71.19-1.45.37-2.18.48-.37.05-.79.08-1.24.08-1.22,0-2.53-.19-3.8-.37l-.31-.05c-.27-.04-.63-.18-1.02-.32-.46-.18-.99-.38-1.58-.5-.53-.11-1.04-.15-1.48-.2-.4-.04-.77-.07-1.08-.14-.39-.09-.8-.2-1.22-.31-1.22-.32-2.59-.68-3.92-.71h-.17c-1.75,0-3.18.5-4.56.99l-.49.17c-1.19.41-2.34.59-3.86.59-.42,0-.86-.01-1.41-.04-.49-.02-.95-.06-1.4-.09-.95-.07-1.93-.14-3.02-.12-1.28.02-2.58.35-4.1,1.02l-.05.02c-.38.17-.8.36-1.23.59-.91.49-1.56,1.04-2.04,1.71-.96,1.35-1.25,3.11-.82,4.97.19.84.49,1.56.77,2.27.09.21.17.42.25.64.33.86,0,1.65-.84,3.24-1.07,2.05-1.28,3.97-.66,6.05.56,1.87,1.19,3.73,1.82,5.38.73,1.92,2.59,3.34,5.24,4,.86.21,1.66.22,2.36.23Z"/>
            <path class="cls-5" d="M38.53,70.09h0s0,0,0,0ZM10.23,32.39c.14,0,.28,0,.41,0-.11.12-.22.25-.32.39-.15.2-.26.42-.34.65-.19.34-.33.69-.45,1.08-.03.09-.06.19-.08.29,0,.01,0,.03,0,.04-.04.03-.13.08-.3.16-.71.35-1.1.98-1.3,1.45-.56,1.31-.09,2.52.19,3.24.04.11.08.21.11.31.09.27.19.56.3.85.21.56.55,1.49.4,1.76-.34.62-.51,1.23-.64,1.72-.09.32-.17.59-.26.8-.67,1.43-.44,3.05-.3,3.67.15.7.38,1.33.58,1.89.21.58.4,1.09.46,1.57.03.22.03.48.03.77,0,.75.01,1.68.48,2.71,1.13,2.48,3.31,3.4,5.06,4.13.7.3,1.37.57,1.9.92.56.36,1.11.76,1.69,1.17.66.48,1.35.97,2.08,1.43,1.29.82,2.57,1.74,4.02,2.89,1.43,1.15,3.16,1.83,4.36,2.21.74.23,1.44.47,2.14.72.3.11.6.21.91.3.5.16.93.29,1.25.49.24.14.5.36.78.59.21.17.43.35.65.51.92.68,1.98.79,2.75.87.11.01.22.02.32.03l.25.04c.31.05.74.13,1.19.13.38,0,.72-.05,1.04-.15.78-.24,1.39-.64,1.88-.98.12-.06.23-.14.34-.22.22-.09.86-.12,1.25-.13.53-.02,1.08-.05,1.62-.16,1.41-.3,2.64-.67,3.74-1.15l.48-.21c1.11-.48,2.16-.94,3.24-1.18.49-.11,1.01-.19,1.55-.27.79-.12,1.6-.25,2.44-.48,1.09-.29,2.14-.63,3.17-.96,1.58-.5,3.07-.98,4.61-1.28,2.26-.45,5.23-1.01,8.2-1.4.6-.08,1.2-.14,1.84-.21,1.84-.19,3.75-.39,5.62-1.02,2.35-.79,3.71-2.8,3.64-5.38-.01-.53-.08-1.03-.14-1.47-.06-.43-.11-.84-.1-1.19.01-.43.09-.89.16-1.39.11-.71.24-1.51.21-2.39-.02-.65-.07-1.27-.12-1.87-.06-.68-.12-1.32-.12-1.94v-.04c.56-.04,1.12-.11,1.62-.17.4-.05.85-.11,1.04-.11.8.05,1.59.25,2.43.47,1.09.28,2.33.59,3.73.59.29,0,.59-.01.88-.04,1.23-.12,2.24-.57,3.13-.98l.1-.04c.7-.31,1.38-.45,2.19-.45.5,0,1.06.05,1.82.16,1.13.17,2.22.18,3.25.03,1.28-.19,2.47-.6,3.63-1.28,3.71-2.16,6.43-6.5,6.62-10.56.09-1.83.2-3.12.96-4.44.3-.51.64-1.02,1.01-1.56.38-.55.77-1.13,1.13-1.75.79-1.35,1.22-2.83,1.28-4.41.02-.5-.03-1.01-.15-1.5-.1-.43-.25-.83-.44-1.2-.38-.72-.92-1.35-1.6-1.87-.3-.22-.6-.47-.89-.71-.73-.6-1.55-1.27-2.5-1.77-.46-.24-1.69-.82-3.04-.85-.48-.01-.95-.01-1.4-.01-2.2,0-3.65,0-5.37-1.14-1.72-1.13-3.52-1.26-4.73-1.26-.78,0-1.53.06-2.26.12-.37.03-.73.06-1.1.08-1.75.1-3.69-.19-5.59-.47-.82-.12-1.68-.24-2.5-.34l-.27-.03c-2.22-.25-4.14-.46-5.23-1.77-.74-.89-1.77-1.4-2.91-1.43h-.35c-.54-.02-1.04-.03-1.53-.08-.66-.07-1.2-.07-1.7,0-.85.1-1.56.32-2.19.68-.33.19-.64.43-.94.73-.11.11-.22.23-.32.36l-.04.04c-.13.11-.35.29-.56.56-.24.31-.57.8-.76,1.34l-.03.09c-.05.16-.09.25-.11.3-.03.04-.13.16-.17.21-.19.22-.43.45-.75.73-.46.39-.97.76-1.52,1.15-.2.15-.41.29-.61.44-.56.41-1,.76-1.4,1.12-.06.05-.11.1-.17.15-.45-1.47-1.27-2.72-2.43-3.74-1.01-.88-2.18-1.48-3.22-2.02-.5-.25-.96-.49-1.39-.75-1.63-.98-3.03-2.41-4.5-3.92l-.47-.48c-1.21-1.24-2.72-2.77-4.92-3.35-.41-.11-.84-.16-1.28-.16-1.29,0-2.69.44-4.27,1.36-.71.19-1.45.37-2.18.48-.37.05-.79.08-1.24.08-1.22,0-2.53-.19-3.8-.37l-.31-.05c-.27-.04-.63-.18-1.02-.32-.46-.18-.99-.38-1.58-.5-.53-.11-1.04-.15-1.48-.19-.4-.04-.77-.07-1.08-.14-.39-.09-.8-.2-1.22-.31-1.22-.32-2.59-.69-3.92-.71h-.17c-1.75,0-3.18.5-4.56.99l-.49.17c-1.19.41-2.34.59-3.86.59-.42,0-.86-.01-1.41-.04-.49-.02-.95-.06-1.4-.09-.95-.07-1.93-.14-3.02-.12-1.28.02-2.58.35-4.1,1.02l-.05.02c-.37.17-.8.36-1.23.59-.91.49-1.56,1.04-2.04,1.71-.96,1.35-1.25,3.11-.82,4.97.19.84.49,1.56.77,2.27.09.21.17.42.25.64.33.86,0,1.65-.84,3.24-1.07,2.05-1.28,3.97-.66,6.05.56,1.87,1.19,3.73,1.82,5.38.73,1.92,2.59,3.34,5.24,4,.86.21,1.66.22,2.36.23Z"/>
            <path class="cls-11" d="M38.3,69.71h0s0,0,0,0ZM10,32.01c.14,0,.28,0,.41,0-.11.12-.22.25-.32.39-.15.2-.26.42-.34.65-.19.34-.33.69-.45,1.08-.03.1-.06.19-.08.29,0,.01,0,.03-.01.04-.04.03-.13.08-.29.16-.71.35-1.1.98-1.3,1.45-.56,1.31-.09,2.52.19,3.24.04.11.08.21.11.31.09.28.19.56.3.85.21.56.55,1.49.4,1.76-.34.62-.51,1.23-.64,1.72-.09.32-.17.59-.26.8-.67,1.43-.44,3.05-.3,3.67.15.7.38,1.33.58,1.89.21.58.4,1.09.46,1.57.03.22.03.48.03.77,0,.75.01,1.68.48,2.71,1.13,2.48,3.31,3.4,5.06,4.13.7.3,1.37.57,1.9.92.56.36,1.11.76,1.69,1.17.66.48,1.35.97,2.08,1.43,1.29.82,2.57,1.74,4.02,2.89,1.43,1.15,3.16,1.83,4.36,2.21.74.23,1.44.47,2.14.72.3.11.6.21.91.3.5.16.93.29,1.25.49.24.14.5.36.78.59.21.17.43.35.65.51.92.68,1.98.79,2.74.86.11.01.22.02.32.03l.25.04c.31.05.74.13,1.19.13.38,0,.72-.05,1.04-.15.78-.24,1.39-.64,1.88-.98.12-.06.23-.14.34-.22.22-.09.86-.12,1.25-.13.53-.02,1.08-.05,1.62-.16,1.41-.3,2.64-.67,3.74-1.15l.48-.21c1.11-.48,2.16-.94,3.24-1.17.49-.11,1.01-.19,1.55-.27.79-.12,1.6-.25,2.44-.48,1.09-.29,2.14-.63,3.17-.96,1.58-.5,3.07-.98,4.61-1.28,2.26-.45,5.23-1.01,8.2-1.4.6-.08,1.2-.14,1.84-.21,1.84-.19,3.75-.39,5.62-1.02,2.35-.79,3.71-2.8,3.64-5.38-.01-.53-.08-1.03-.14-1.47-.06-.43-.11-.84-.1-1.19.01-.43.09-.89.16-1.39.11-.71.24-1.51.21-2.39-.02-.65-.07-1.27-.13-1.87-.06-.68-.12-1.32-.12-1.94v-.04c.56-.04,1.12-.11,1.62-.17.4-.05.85-.11,1.04-.11.8.05,1.59.25,2.43.47,1.09.28,2.33.59,3.73.59.29,0,.59-.01.88-.04,1.23-.12,2.24-.57,3.13-.98l.1-.04c.7-.31,1.38-.45,2.19-.45.5,0,1.06.05,1.82.17,1.13.17,2.22.18,3.25.03,1.28-.18,2.47-.6,3.63-1.28,3.71-2.16,6.43-6.5,6.62-10.56.09-1.83.2-3.12.96-4.44.3-.51.64-1.02,1.01-1.56.38-.55.77-1.13,1.13-1.75.79-1.35,1.22-2.83,1.28-4.41.02-.5-.03-1.01-.15-1.5-.1-.43-.25-.83-.44-1.2-.38-.72-.92-1.35-1.6-1.87-.3-.23-.6-.47-.89-.71-.73-.6-1.55-1.27-2.5-1.77-.46-.24-1.69-.82-3.04-.85-.48-.01-.95-.01-1.4-.01-2.2,0-3.65,0-5.37-1.14-1.71-1.13-3.52-1.26-4.73-1.26-.78,0-1.53.06-2.26.12-.37.03-.73.06-1.1.08-1.75.1-3.69-.19-5.59-.47-.82-.12-1.68-.24-2.5-.34l-.27-.03c-2.22-.25-4.14-.46-5.23-1.77-.74-.89-1.78-1.4-2.91-1.43h-.35c-.54-.02-1.04-.03-1.53-.08-.66-.07-1.2-.07-1.7,0-.85.1-1.56.32-2.19.68-.33.19-.64.43-.94.73-.11.11-.21.23-.32.36l-.04.04c-.13.11-.35.29-.56.56-.24.31-.57.8-.76,1.34l-.03.09c-.06.16-.09.25-.11.3-.03.04-.13.16-.17.21-.19.22-.43.45-.75.73-.46.39-.97.76-1.52,1.15-.21.15-.41.29-.61.44-.56.41-1,.76-1.4,1.12-.06.05-.11.1-.17.15-.45-1.47-1.27-2.72-2.43-3.74-1.01-.88-2.18-1.48-3.22-2.02-.5-.25-.96-.49-1.39-.75-1.63-.98-3.03-2.41-4.5-3.92l-.47-.48c-1.21-1.24-2.72-2.77-4.92-3.35-.41-.11-.84-.16-1.28-.16-1.29,0-2.69.44-4.26,1.36-.71.19-1.45.37-2.18.48-.37.05-.79.08-1.24.08-1.22,0-2.53-.19-3.8-.37l-.31-.04c-.27-.04-.63-.18-1.02-.32-.46-.18-.99-.38-1.58-.5-.53-.11-1.04-.15-1.48-.19-.4-.04-.77-.07-1.08-.14-.39-.09-.8-.2-1.22-.31-1.22-.32-2.59-.69-3.92-.71h-.17c-1.75,0-3.18.5-4.56.99l-.49.17c-1.19.41-2.34.59-3.86.59-.42,0-.87-.01-1.41-.04-.49-.02-.95-.06-1.4-.09-.95-.07-1.93-.14-3.02-.12-1.28.02-2.58.34-4.1,1.02l-.05.02c-.37.17-.8.36-1.23.59-.91.49-1.56,1.04-2.04,1.71-.96,1.35-1.25,3.11-.82,4.97.19.84.49,1.56.77,2.26.08.21.17.43.25.64.33.86,0,1.65-.84,3.24-1.07,2.05-1.28,3.97-.66,6.05.56,1.87,1.19,3.73,1.82,5.38.73,1.92,2.59,3.34,5.24,4,.86.21,1.66.22,2.36.23Z"/>
            <path class="cls-12" d="M38.06,69.32h0s0,0,0,0ZM9.76,31.62c.14,0,.28,0,.41,0-.11.12-.22.25-.32.39-.15.2-.26.42-.34.65-.19.34-.33.69-.45,1.08-.03.1-.06.19-.08.29,0,.01,0,.03-.01.04-.04.03-.13.08-.29.16-.71.35-1.1.98-1.3,1.45-.56,1.31-.09,2.52.19,3.24.04.11.08.21.11.31.09.27.19.56.3.85.21.56.55,1.49.4,1.76-.34.62-.51,1.23-.64,1.72-.09.32-.17.59-.26.8-.67,1.43-.44,3.05-.3,3.67.15.7.38,1.33.58,1.89.21.58.4,1.09.46,1.57.03.22.03.48.03.77,0,.75.01,1.68.48,2.71,1.13,2.48,3.31,3.4,5.06,4.13.7.3,1.37.57,1.9.92.56.36,1.11.76,1.69,1.17.66.48,1.35.97,2.08,1.43,1.29.82,2.57,1.74,4.02,2.89,1.43,1.15,3.16,1.83,4.36,2.21.74.23,1.44.47,2.14.72.3.11.6.21.91.3.5.16.93.29,1.25.49.24.14.5.36.78.59.21.17.43.35.65.51.92.68,1.98.79,2.74.86.11.01.22.02.32.03l.25.04c.31.05.74.13,1.19.13.38,0,.72-.05,1.04-.15.78-.24,1.39-.64,1.88-.98.12-.06.23-.14.34-.22.22-.09.86-.12,1.25-.13.53-.02,1.08-.05,1.62-.16,1.41-.3,2.64-.67,3.74-1.15l.48-.21c1.11-.48,2.16-.94,3.24-1.17.49-.11,1.01-.19,1.55-.27.79-.12,1.6-.25,2.44-.48,1.09-.29,2.14-.63,3.17-.96,1.58-.5,3.07-.98,4.61-1.28,2.26-.45,5.23-1.01,8.2-1.4.6-.08,1.2-.14,1.84-.21,1.84-.19,3.75-.39,5.62-1.02,2.35-.79,3.71-2.8,3.64-5.38-.01-.53-.08-1.03-.14-1.47-.06-.43-.11-.84-.1-1.19.01-.43.09-.89.16-1.39.11-.71.24-1.51.21-2.39-.02-.65-.07-1.27-.13-1.87-.06-.68-.11-1.32-.12-1.94v-.03c.56-.04,1.12-.11,1.62-.17.4-.05.85-.11,1.04-.11.8.05,1.59.25,2.43.47,1.09.28,2.33.59,3.73.59.29,0,.59-.01.88-.04,1.23-.12,2.24-.57,3.13-.98l.1-.04c.7-.31,1.38-.45,2.19-.45.5,0,1.06.05,1.82.16,1.13.17,2.22.18,3.25.03,1.28-.18,2.47-.6,3.63-1.28,3.71-2.16,6.43-6.5,6.62-10.56.08-1.83.2-3.12.96-4.44.3-.51.64-1.02,1.01-1.56.38-.55.77-1.13,1.13-1.75.79-1.35,1.22-2.83,1.28-4.41.02-.5-.03-1.01-.15-1.5-.1-.43-.25-.83-.44-1.2-.38-.72-.92-1.35-1.6-1.87-.3-.22-.6-.47-.89-.71-.73-.6-1.55-1.27-2.5-1.77-.46-.24-1.69-.82-3.04-.85-.48-.01-.95-.01-1.4-.01-2.2,0-3.65,0-5.37-1.14-1.72-1.13-3.52-1.26-4.73-1.26-.78,0-1.53.06-2.26.12-.37.03-.73.06-1.1.08-1.75.1-3.69-.19-5.59-.47-.82-.12-1.68-.24-2.5-.34l-.27-.03c-2.22-.25-4.14-.46-5.23-1.77-.74-.89-1.77-1.4-2.91-1.43h-.35c-.54-.02-1.04-.03-1.53-.08-.66-.07-1.2-.07-1.7,0-.85.1-1.56.32-2.19.68-.33.19-.64.43-.94.73-.11.11-.22.23-.32.36l-.04.04c-.13.11-.35.29-.56.56-.24.31-.57.8-.76,1.34l-.03.09c-.06.16-.09.25-.11.3-.03.04-.13.16-.17.21-.19.22-.43.45-.75.73-.46.39-.97.76-1.52,1.15-.2.15-.41.29-.61.44-.56.41-1,.76-1.4,1.12-.06.05-.11.1-.17.15-.45-1.47-1.27-2.72-2.43-3.74-1.01-.88-2.18-1.48-3.22-2.02-.5-.25-.96-.49-1.39-.75-1.63-.98-3.03-2.41-4.5-3.92l-.47-.48c-1.21-1.24-2.72-2.77-4.92-3.35-.41-.11-.84-.16-1.28-.16-1.29,0-2.69.44-4.26,1.36-.71.19-1.45.37-2.18.48-.37.05-.79.08-1.24.08-1.22,0-2.53-.19-3.8-.37l-.31-.04c-.27-.04-.63-.18-1.02-.32-.46-.18-.99-.38-1.58-.5-.53-.11-1.04-.15-1.48-.19-.4-.04-.77-.07-1.08-.14-.39-.09-.8-.2-1.22-.31C26.68.39,25.3.03,23.98,0h-.17c-1.75,0-3.18.5-4.56.99l-.49.17c-1.19.41-2.34.59-3.86.59-.42,0-.86-.01-1.41-.04-.49-.02-.95-.06-1.4-.09-.95-.07-1.93-.14-3.02-.12-1.28.02-2.58.35-4.1,1.02l-.05.02c-.37.17-.8.36-1.23.59-.91.49-1.56,1.04-2.04,1.71-.96,1.35-1.25,3.11-.82,4.97.19.84.49,1.56.77,2.27.09.21.17.42.25.64.33.86,0,1.65-.84,3.24-1.07,2.05-1.28,3.97-.66,6.05.56,1.87,1.19,3.73,1.82,5.38.73,1.92,2.59,3.34,5.24,4,.86.21,1.66.22,2.36.23Z"/>
          </g>
          <path class="cls-7" d="M9.76,31.62c.14,0,.28,0,.41,0-.11.12-.22.25-.32.39-.15.2-.26.42-.34.65-.19.34-.33.69-.45,1.08-.03.1-.06.19-.08.29,0,.01,0,.03-.01.04-.04.03-.13.08-.29.16-.71.35-1.1.98-1.3,1.45-.56,1.31-.09,2.52.19,3.24.04.11.08.21.11.31.09.27.19.56.3.85.21.56.55,1.49.4,1.76-.34.62-.51,1.23-.64,1.72-.09.32-.17.59-.26.8-.67,1.43-.44,3.05-.3,3.67.15.7.38,1.33.58,1.89.21.58.4,1.09.46,1.57.03.22.03.48.03.77,0,.75.01,1.68.48,2.71,1.13,2.48,3.31,3.4,5.06,4.13.7.3,1.37.57,1.9.92.56.36,1.11.76,1.69,1.17.66.48,1.35.97,2.08,1.43,1.29.82,2.57,1.74,4.02,2.89,1.43,1.15,3.16,1.83,4.36,2.21.74.23,1.44.47,2.14.72.3.11.6.21.91.3.5.16.93.29,1.25.49.24.14.5.36.78.59.21.17.43.35.65.51.92.68,1.98.79,2.74.86.11.01.22.02.32.03l.25.04c.31.05.74.13,1.19.13.38,0,.72-.05,1.04-.15.78-.24,1.39-.64,1.88-.98.12-.06.23-.14.34-.22.22-.09.86-.12,1.25-.13.53-.02,1.08-.05,1.62-.16,1.41-.3,2.64-.67,3.74-1.15l.48-.21c1.11-.48,2.16-.94,3.24-1.17.49-.11,1.01-.19,1.55-.27.79-.12,1.6-.25,2.44-.48,1.09-.29,2.14-.63,3.17-.96,1.58-.5,3.07-.98,4.61-1.28,2.26-.45,5.23-1.01,8.2-1.4.6-.08,1.2-.14,1.84-.21,1.84-.19,3.75-.39,5.62-1.02,2.35-.79,3.71-2.8,3.64-5.38-.01-.53-.08-1.03-.14-1.47-.06-.43-.11-.84-.1-1.19.01-.43.09-.89.16-1.39.11-.71.24-1.51.21-2.39-.02-.65-.07-1.27-.13-1.87-.06-.68-.11-1.32-.12-1.94v-.03c.56-.04,1.12-.11,1.62-.17.4-.05.85-.11,1.04-.11.8.05,1.59.25,2.43.47,1.09.28,2.33.59,3.73.59.29,0,.59-.01.88-.04,1.23-.12,2.24-.57,3.13-.98l.1-.04c.7-.31,1.38-.45,2.19-.45.5,0,1.06.05,1.82.16,1.13.17,2.22.18,3.25.03,1.28-.18,2.47-.6,3.63-1.28,3.71-2.16,6.43-6.5,6.62-10.56.08-1.83.2-3.12.96-4.44.3-.51.64-1.02,1.01-1.56.38-.55.77-1.13,1.13-1.75.79-1.35,1.22-2.83,1.28-4.41.02-.5-.03-1.01-.15-1.5-.1-.43-.25-.83-.44-1.2-.38-.72-.92-1.35-1.6-1.87-.3-.22-.6-.47-.89-.71-.73-.6-1.55-1.27-2.5-1.77-.46-.24-1.69-.82-3.04-.85-.48-.01-.95-.01-1.4-.01-2.2,0-3.65,0-5.37-1.14-1.72-1.13-3.52-1.26-4.73-1.26-.78,0-1.53.06-2.26.12-.37.03-.73.06-1.1.08-1.75.1-3.69-.19-5.59-.47-.82-.12-1.68-.24-2.5-.34l-.27-.03c-2.22-.25-4.14-.46-5.23-1.77-.74-.89-1.77-1.4-2.91-1.43h-.35c-.54-.02-1.04-.03-1.53-.08-.66-.07-1.2-.07-1.7,0-.85.1-1.56.32-2.19.68-.33.19-.64.43-.94.73-.11.11-.22.23-.32.36l-.04.04c-.13.11-.35.29-.56.56-.24.31-.57.8-.76,1.34l-.03.09c-.06.16-.09.25-.11.3-.03.04-.13.16-.17.21-.19.22-.43.45-.75.73-.46.39-.97.76-1.52,1.15-.2.15-.41.29-.61.44-.56.41-1,.76-1.4,1.12-.06.05-.11.1-.17.15-.45-1.47-1.27-2.72-2.43-3.74-1.01-.88-2.18-1.48-3.22-2.02-.5-.25-.96-.49-1.39-.75-1.63-.98-3.03-2.41-4.5-3.92l-.47-.48c-1.21-1.24-2.72-2.77-4.92-3.35-.41-.11-.84-.16-1.28-.16-1.29,0-2.69.44-4.26,1.36-.71.19-1.45.37-2.18.48-.37.05-.79.08-1.24.08-1.22,0-2.53-.19-3.8-.37l-.31-.04c-.27-.04-.63-.18-1.02-.32-.46-.18-.99-.38-1.58-.5-.53-.11-1.04-.15-1.48-.19-.4-.04-.77-.07-1.08-.14-.39-.09-.8-.2-1.22-.31C26.68.39,25.3.03,23.98,0h-.17c-1.75,0-3.18.5-4.56.99l-.49.17c-1.19.41-2.34.59-3.86.59-.42,0-.86-.01-1.41-.04-.49-.02-.95-.06-1.4-.09-.95-.07-1.93-.14-3.02-.12-1.28.02-2.58.35-4.1,1.02l-.05.02c-.37.17-.8.36-1.23.59-.91.49-1.56,1.04-2.04,1.71-.96,1.35-1.25,3.11-.82,4.97.19.84.49,1.56.77,2.27.09.21.17.42.25.64.33.86,0,1.65-.84,3.24-1.07,2.05-1.28,3.97-.66,6.05.56,1.87,1.19,3.73,1.82,5.38.73,1.92,2.59,3.34,5.24,4,.86.21,1.66.22,2.36.23ZM38.06,69.32h0s0,0,0,0Z"/>
          <g>
            <path class="cls-20" d="M60.48,12.94c-1.24-1.08-2.9-1.7-4.31-2.54-2.06-1.23-3.73-3.03-5.4-4.73-1.15-1.17-2.34-2.37-3.96-2.79-1.35-.36-2.97.38-4.19,1.12-.89.24-1.78.46-2.69.6-1.91.28-4.08-.07-5.95-.33-.93-.13-1.79-.65-2.72-.84-.86-.18-1.75-.15-2.61-.34-1.46-.33-3.23-.94-4.72-.97-1.62-.03-2.98.53-4.5,1.05-2.07.71-3.91.76-6.06.66-1.5-.07-2.79-.23-4.29-.2-1.14.02-2.25.38-3.28.84-.37.16-.76.34-1.13.54-.47,1.53-.81,4.15,2.01,5.03,4.07,1.13,5.71,1.13,6.8,2.69,1.09,1.56,1.87,2.51,3.29,3.24,1.42.73,1.94,1.78,3.51,2.57,1.57.79,3.2,1.99,3.99,2.89.79.89,3.57.79,6.08-.37,2.52-1.15,4.83-1.47,7.5-1,2.68.47,5.77.94,8.6-.21,2.83-1.15,6.35-3.46,8.71-2.36,2.12.99,5.33.62,7.26-1.21-.27-1.23-.87-2.37-1.95-3.32Z"/>
            <g>
              <path class="cls-1" d="M24.28,12.78c-.23-.27-.52-.43-.88-.41-.09,0-.28.25-.15.28.63.11.93.89,1.19,1.39.11.21.43-.17.39-.33-.08-.36-.32-.65-.56-.93Z"/>
              <path class="cls-1" d="M34.27,13.17c-.5-1.35-2.11-2.92-3.55-1.85-.05.04-.12.23,0,.18.75-.27,1.48,0,2.02.54.44.45.65,1.13,1.14,1.52.17.13.44-.22.39-.38Z"/>
              <path class="cls-1" d="M44.14,10.19c-.51.36-1.3,1.08-1.28,1.78,0,.22.32-.03.35-.13.15-.45.56-1.02,1.02-1.2.55-.22.88.28,1.33.42.17.05.42-.23.39-.38-.12-.69-1.28-.84-1.8-.49Z"/>
              <path class="cls-1" d="M19.89,7.4c-.46-.32-.98-.51-1.54-.36-.2.05-.4.22-.54.36-.3.31-.62.56-.9.89-.08.09-.03.21.08.12.34-.26.9-.82,1.33-.91.44-.09.8.31,1.21.37.16.02.54-.33.35-.46Z"/>
              <path class="cls-1" d="M46.56,6.3c-.44-.17-.96.1-1.35.29-.06.03-.25.3-.09.27.17-.03.33-.08.49-.11.23-.05.43-.02.66,0,.17.02.52-.36.29-.45Z"/>
              <path class="cls-1" d="M27.77,6.85c-.15-.34-.76-.36-1.07-.31-.06,0-.24.2-.12.22.16.04.32.1.47.16.16.07.3.19.48.22.12.01.3-.16.25-.28Z"/>
              <path class="cls-6" d="M10.62,16.95c-.17-.24-.67-.18-.92-.15-.48.06-.97.26-1.34.58-.58.51-.83,1.53-.66,2.27.05.25.44-.17.46-.28.1-.53,0-1.08.29-1.57.22-.37.84-.52,1.23-.59.19-.04.58-.15.76-.06.09.05.24-.12.18-.2Z"/>
              <path class="cls-6" d="M10.55,23.81c-.78-.14-1.35,1.6-.54,1.77.16.04.39-.22.33-.38-.13-.35-.44-.97.11-1.14.06-.02.24-.23.11-.25Z"/>
            </g>
            <g>
              <path class="cls-21" d="M62.43,16.26c-1.93,1.83-5.14,2.2-7.26,1.21-2.36-1.1-5.87,1.21-8.71,2.36-2.83,1.15-5.93.68-8.6.21-2.68-.47-4.98-.16-7.5,1-2.34,1.07-4.9,1.24-5.88.54.05.67.11,1.48.16,2.13.1,1.36-.11,2.47-.68,3.51-.43.78-1.3,1.86-1.71,3.25,1.4-.27,3.15-.23,4.15-.31,3.78-.32,7.58-.48,11.37-.81,7.01-.6,14.04-.71,21.07-.52.18,0,.41-.27.44-.47,1.39-1.03,2.16-4.58,2.53-5.78.63-2.04,1.06-4.31.62-6.33Z"/>
              <path class="cls-8" d="M58.85,22.94c-.95,1.86-1.63,3.84-2,5.85.66.01,1.32.02,1.98.04.18,0,.41-.27.44-.47,1.39-1.03,2.16-4.58,2.53-5.78.48-1.58.85-3.28.79-4.91-1.18,1.79-2.8,3.41-3.75,5.27Z"/>
              <path class="cls-16" d="M24.65,23.71c-.05-.65-.11-1.46-.16-2.13-.08-.05-.15-.11-.2-.18-.79-.89-2.41-2.1-3.99-2.89-1.57-.79-2.1-1.84-3.51-2.57-1.42-.73-2.2-1.68-3.29-3.24-1.09-1.56-2.73-1.56-6.8-2.69-2.81-.88-2.48-3.5-2.01-5.03-.51.28-1,.62-1.33,1.08-.68.95-.74,2.17-.48,3.28.21.91.61,1.76.94,2.63.69,1.82-.12,3.39-.95,4.96-.78,1.49-.99,2.87-.51,4.48.52,1.72,1.13,3.56,1.77,5.23.58,1.53,2.31,2.34,3.78,2.71,1.13.28,2.29.07,3.44.27,1.05.18,1.91,1.04,2.87,1.45,1.86.81,3.63.69,5.56.18.27.1.51.14.8-.11.39-.34,1-.54,1.68-.67.41-1.39,1.28-2.47,1.71-3.25.58-1.05.79-2.15.68-3.51Z"/>
            </g>
            <path class="cls-2" d="M102.28,39.36c-.84-1.61-1.54-1.96.28-3.36s1.54-2.94.42-4.06c-1.12-1.12-3.22-.77-4.83-.49-1.61.28-2.45,1.05-4.06-.28-1.61-1.33-2.59-1.05-6.29-1.61-3.71-.56-8.43-1.68-9.72-2.45-1.29-.77-1.92-1.15-3.15-1.12-1.22.04-2.87-.25-5.59-.25s-4.91.56-7.11-.41c-1.05-.46-2.23-.44-3.17-.28-.16.26-.3.52-.43.79-.94,2.04-.22,3.73.45,5.76.72,2.19.76,4.49,1.81,6.57.88,1.75,2.66,2.9,4.37,3.72,1.97.95,4.25,1.09,6.41,1.1,3.03.01,5.84-.16,8.8.63,1.12.67,3.98-.09,4.97-.03,2.36.16,4.27,1.25,6.7,1.02.92-.09,1.74-.47,2.57-.84,1.75-.78,3.33-.73,5.19-.45.92.14,1.79.15,2.63.03.68-1.45.47-2.65-.23-3.99Z"/>
            <g>
              <path class="cls-18" d="M106.2,26c1.54-2.17,1.68-2.87,4.48-3.15,2.21-.22,4.12-.45,4.57-2.44-.06-.25-.15-.5-.27-.72-.23-.44-.57-.83-1-1.16-1.01-.76-1.99-1.72-3.11-2.31-.61-.32-1.42-.59-2.11-.61-3-.07-5.21.25-7.88-1.5-2.05-1.34-4.51-.84-6.81-.71-2.73.16-5.72-.51-8.45-.81-2.53-.28-5.2-.51-6.88-2.54-.35-.42-.8-.65-1.34-.67-.69-.02-1.36-.02-2.04-.09-.41-.04-.84-.06-1.25-.01-.48.06-.97.17-1.39.41-.18.11-.35.24-.5.39-.12.12-.22.27-.34.39-.13.13-.29.22-.4.37-.16.21-.35.49-.43.74-.09.25-.15.46-.28.69-.11.21-.27.4-.42.58-.3.35-.64.67-.99.97-.71.61-1.49,1.13-2.25,1.69-.43.31-.85.64-1.24.99-1.42,1.26-2.51,2.87-3.6,4.41-.97,1.35-2.32,2.68-3.2,4.14.94-.15,2.12-.18,3.17.28,2.2.97,4.38.41,7.11.41s4.37.28,5.59.25c1.22-.04,1.85.35,3.15,1.12,1.29.77,6.02,1.89,9.72,2.45,3.71.56,4.69.28,6.29,1.61,1.61,1.33,2.45.56,4.06.28.77-.13,1.65-.28,2.48-.28.25-.19.53-.42.88-.7,2.17-1.75,3.15-2.31,4.69-4.48Z"/>
              <path class="cls-9" d="M110.67,22.85c-2.8.28-2.94.98-4.48,3.15-1.54,2.17-2.52,2.73-4.69,4.48-.35.28-.63.51-.88.7.91,0,1.76.18,2.35.77,1.12,1.12,1.4,2.66-.42,4.06s-1.12,1.75-.28,3.36c.7,1.34.91,2.54.23,3.99.98-.14,1.93-.47,2.87-1.02,3.01-1.75,5.41-5.38,5.58-8.85.09-1.96.23-3.65,1.24-5.39.66-1.14,1.48-2.18,2.15-3.32.62-1.05.95-2.21.99-3.43.01-.33-.02-.64-.09-.94-.46,1.99-2.36,2.22-4.57,2.44Z"/>
            </g>
            <g>
              <path class="cls-15" d="M69.18,20.72c-.53-.12-1.16,0-1.62.26-.28.17-.93.76-.6,1.12.1.11.28-.14.3-.22.25-.77,1-.44,1.59-.54.17-.03.67-.55.33-.62Z"/>
              <path class="cls-15" d="M77.88,15.55c-.54-.25-1.28.05-1.66.48-.32.36-.72,1-.64,1.51.03.17.23-.05.25-.12.11-.38.26-.78.52-1.08.34-.4.84-.27,1.28-.32.16-.01.48-.36.25-.47Z"/>
              <path class="cls-15" d="M86.73,23.53c-.25-.49-.84-.58-1.34-.57-.52.01-.84.39-1.2.71-.09.08-.14.34.04.22.34-.23.58-.47,1.03-.43.44.04.73.38,1.14.44.15.02.4-.22.32-.37Z"/>
              <path class="cls-15" d="M98.5,19.89c-.54-.35-1.41-.13-1.98,0-.06.01-.23.18-.11.21.52.15,1.16.06,1.63.33.48.27.75.74,1.09,1.14.15.18.49-.25.47-.4-.08-.61-.61-.96-1.1-1.27Z"/>
              <path class="cls-15" d="M103.96,20.87c-.17-.09-.38-.07-.56-.06-.17,0-.34.02-.52.03-.12,0-.59.1-.61.1-.06,0-.23.14-.14.19.3.19.73.11,1.07.14.55.03.66.45,1.06.68.16.09.43-.17.4-.34-.07-.37-.39-.58-.71-.74Z"/>
              <path class="cls-27" d="M77.42,31.08c-1.08-.33-2,.67-2.43,1.54-.24.47-.72,2.55.38,2.35.15-.03.58-.4.36-.56-.43-.3-.43-.9-.35-1.38.17-1.01,1.03-1.41,1.9-1.62.09-.02.31-.28.14-.33Z"/>
              <path class="cls-27" d="M86.66,38.72c-.33-.26-.6-.49-.8-.87-.22-.42-.21-.86-.21-1.32,0-.2-.29.05-.31.15-.11.57-.17,1.03,0,1.61.15.5.5.86,1.02.88.14,0,.45-.33.29-.45Z"/>
            </g>
            <path class="cls-18" d="M13.11,37.51c2.62.21,2.73-.31,4.41,1.47,1.68,1.78,4.7,2.88,8.49,5.38,3.78,2.5,6.12,4.64,7.29,6.01,1.17,1.37,3.03,2.29,4.29,1.1,1.26-1.19,1.54-1.61,3.99-1.68,2.45-.07,2.59-.63,5.32-.42,2.73.21,9.72-.98,13.22-2.8s7.34-2.17,11.33-2.03c3.47.12,8.68-.23,9.24-2.63-.01-.04-.02-.08-.04-.12-.17-.39-.57-.66-.89-.92-.4-.32-.84-.6-1.31-.81-.01,0-.03,0-.04.01-.07-.04-.14-.08-.21-.12-.66-.29-1.28-.49-2-.58-.71-.09-1.33-.03-1.97-.43-.6-.37-.84-1.1-1.32-1.59-.94-.94-2.51-1.33-3.61-2.06-1.22-.81-2.56-1.41-3.74-2.3-.51-.38-1.09-.72-1.64-1.04-.69-.41-1.25-1-1.9-1.47-1.09-.79-2.39-1.12-3.46-1.93-.98-.74-1.9-1.29-3-1.66.01-.04,0-.07-.03-.07-.17-.02-.35-.06-.53-.1-.04-.01-.07-.02-.11-.03-1.19-.31-2.44-.92-3.54-.23-.49.31-.82.96-1.58.75-.47-.13-.82-.46-1.29-.58-.75-.19-1.85.31-2.57.43-1.17.19-2.37.2-3.55.18-1.21-.02-2.56-.06-3.72-.45-.87-.3-1.69-.52-2.61-.46-1,.06-1.8.91-2.69,1.23-1.2.43-2.22-.07-3.3-.51-.66-.27-1.49-.13-2.13.13-.82.33-1.3,1.14-2.21,1.29-.61.1-1.33-.05-1.96-.04-.47,0-.93.16-1.37.31-.89.3-1.66.87-2.47,1.31-1.01.54-2.12.99-3.23,1.29-1.08.28-2.17.22-3.23.6-.76.27-1.4.71-1.88,1.35-.04.06-.03.1,0,.1-.2.3-.35.58-.46.95.11,1.42.55,3.06,2.03,3.18Z"/>
            <g>
              <path class="cls-2" d="M39.93,62.42c1.35-1.9.89-3,.34-4.56-.55-1.56-.76-4.48-2.24-5.37-.4-.24-.73-.46-1.01-.66-1.21.54-2.73-.3-3.73-1.47-1.17-1.37-3.51-3.51-7.29-6.01-3.78-2.5-6.81-3.59-8.49-5.38-1.68-1.78-1.78-1.26-4.41-1.47-1.47-.12-1.92-1.76-2.03-3.18-.02.07-.04.13-.06.2-.2.83-.66,1.22-1.42,1.59-.13.07-.25.28-.3.4-.29.67.18,1.46.38,2.08.41,1.3,1.29,2.89.55,4.25-.42.77-.48,1.63-.85,2.42-.32.68-.3,1.63-.15,2.35.26,1.25.9,2.34,1.07,3.62.13,1-.09,1.94.34,2.89,1.16,2.57,4.06,2.79,6.19,4.16,1.28.82,2.46,1.78,3.75,2.59,1.49.94,2.84,1.93,4.21,3.03,1.05.84,2.4,1.44,3.67,1.84.76.23,1.5.48,2.24.76.85.31,1.74.48,2.53.97.56.34,1.05.81,1.58,1.2.56.42,1.42.42,2.08.5.03,0,.07.01.11.02.69-.97,1.74-2.12,1.97-3.26.34-1.65-.38-1.61.97-3.51Z"/>
              <path class="cls-9" d="M80.77,49.88c-.04-1.29-.24-2.57-.24-3.87,0-1.01.08-2.01.13-3.02.02-.36.12-.73.02-1.08-.56,2.39-5.77,2.75-9.24,2.63-3.99-.14-7.83.21-11.33,2.03s-10.49,3.01-13.22,2.8c-2.73-.21-2.87.35-5.32.42-2.45.07-2.73.49-3.99,1.68-.18.17-.36.29-.56.37.28.2.61.42,1.01.66,1.48.89,1.69,3.8,2.24,5.37.55,1.56,1.01,2.66-.34,4.56-1.35,1.9-.63,1.86-.97,3.51-.23,1.14-1.28,2.29-1.97,3.26.44.07,1.07.21,1.49.08.57-.18,1.02-.5,1.49-.83.02,0,.04,0,.08-.03.92-.73,2.61-.45,3.71-.68,1.14-.24,2.28-.57,3.35-1.02,1.36-.59,2.65-1.19,4.1-1.51,1.29-.28,2.62-.39,3.9-.73,2.67-.72,5.19-1.73,7.91-2.27,2.76-.55,5.54-1.05,8.33-1.42,2.34-.31,4.82-.37,7.07-1.13,1.56-.53,2.26-1.74,2.22-3.34-.02-.93-.27-1.83-.24-2.77.03-1.24.42-2.41.38-3.66Z"/>
            </g>
            <g>
              <path class="cls-27" d="M15.39,43.79c-.74.26-1.83.57-2.29,1.28-.51.8-.36,2.35-.11,3.2.07.24.44-.18.44-.32.01-.85-.13-1.67,0-2.53.1-.68,1.43-1.05,1.93-1.4.06-.04.19-.28.02-.22Z"/>
              <path class="cls-27" d="M30.2,51.51c-1-.09-1.78.04-2.31,1-.45.81-.5,1.99.1,2.74.15.19.47-.26.47-.4,0-.25-.05-.41-.14-.64-.15-.35-.13-.79-.08-1.16.14-1.08,1.05-.96,1.83-1.22.07-.02.3-.31.14-.32Z"/>
              <path class="cls-27" d="M29.04,58.1c-.04-.07-.08-.12-.11-.2-.03-.09-.03-.19-.07-.28-.08-.14-.3.12-.27.23.04.16-.1.56.13.61.14.03.4-.22.32-.36Z"/>
              <path class="cls-27" d="M15.56,52.95c-.26-.31-.34-.84-.18-1.22.11-.25-.19-.14-.27-.02-.25.37-.55,1.56.1,1.71.19.04.5-.3.35-.47Z"/>
              <path class="cls-15" d="M38.14,40c-.97.01-1.87-.21-2.82-.29-.6-.05-1.19.47-1.62.81-.13.11-.19.43.06.29.24-.13.47-.28.72-.41.53-.28,1.08-.08,1.61.04.68.14,1.28.2,1.93-.07.1-.04.36-.38.12-.37Z"/>
              <path class="cls-15" d="M48.42,38.47c-.39-.48-.99-1.17-1.66-1.1-.73.08-1.06.79-1.61,1.16-.06.04-.17.26-.02.2.38-.14.68-.49,1.02-.72.76-.52,1.34.49,1.87.9.19.14.53-.27.39-.45Z"/>
              <path class="cls-15" d="M26.35,32.77c-.68-.11-1.48-.18-2.05.27-.24.2-.38.48-.53.75-.11.18-.2.37-.29.56-.07.13-.03.29-.11.42-.09.14.05.17.14.07.3-.31.47-.75.7-1.11.25-.38.5-.4.93-.39.32,0,.62,0,.94-.05.15-.02.54-.47.27-.51Z"/>
              <path class="cls-15" d="M64.44,38.16c-.07-.27-.34-.42-.56-.55-.13-.08-.26-.12-.41-.15-.16-.04-.35.02-.5-.04-.08-.04-.22.14-.16.21.17.18.49.16.7.31.23.16.4.36.61.55.14.12.35-.19.32-.31Z"/>
              <path class="cls-14" d="M50.28,53.01c-.13-.66-.49-1.3-1.04-1.7-.08-.06-.25.12-.2.2.3.45.55.87.69,1.39.1.35.13.62-.05.98-.12.23-.18.4-.19.64,0,.2.27,0,.31-.07.24-.44.59-.91.48-1.44Z"/>
              <path class="cls-14" d="M47.95,59.04c-.02-.15-.23.04-.22.13,0,.47-.25.76-.6,1.03-.15.11-.2.48.06.32.49-.3.86-.9.76-1.48Z"/>
              <path class="cls-14" d="M65.62,52.16c-.02-.12-.22.08-.23.14-.07.64.12,1.41-.37,1.93-.41.43-.88.76-1.34,1.13-.07.06-.29.43-.04.4.7-.1,1.34-.89,1.78-1.4.59-.68.36-1.4.19-2.2Z"/>
              <path class="cls-14" d="M69.97,54.87c-.04-.18-.31.14-.32.23-.06.58.28,1.43-.3,1.84-.08.06-.42.52-.11.48.45-.06.74-.51.88-.91.18-.56-.04-1.08-.15-1.63Z"/>
            </g>
            <g class="cls-24">
              <path class="cls-18" d="M102.42,17c-1.79-.72-3.93-1.44-5.88-1.45-2.9-.02-5.79.32-8.66-.26-.98-.2-1.84-.76-2.82-.84-1.18-.09-2.53-.82-3.62-1.26-1.17-.47-2.4-.93-3.64-1.19-1.27-.27-1.91-.03-3.15.24-.12.03-.39.35-.16.36,4.63.2,8.72,3.15,13.18,4.25,2.38.59,4.97.36,7.39.43,2.18.06,4.29,1.76,6.39,1.49.55-.07,1.86-1.42.95-1.79Z"/>
              <path class="cls-18" d="M105.6,17.91c-.23.03-.84.67-.43.8.34.1.6.29.87.51.25.2.56.31.81.52.22.18.42.38.6.59.21.25.26.6.42.88.39.7,1.3-.46,1.4-.84.48-1.89-2.28-2.64-3.68-2.45Z"/>
            </g>
            <g class="cls-24">
              <path class="cls-18" d="M45.43,29.24c-2.07-.91-4.83-.92-7.04-.72-.86.08-1.83.26-2.6.64-.91.45-1.53,1.05-2.72.95-.85-.07-1.72-.55-2.56-.73-.68-.15-1.54-.06-2.14.28-1.5.85-2.67,1.38-4.43,1.36-2.34-.03-4.64,1-6.4,2.47-.07.06-.1.23.03.16,2.49-1.32,4.76-1.37,7.49-1.35.68,0,1.26-.24,1.85-.54,1.07-.55.84-1.31,2.79-1.09.66.07,1.3.35,1.92.56,2.11.72,3.46-.77,5.49-.99,2.39-.25,4.81,1.54,7.15,1.22.69-.09,2.27-1.72,1.18-2.2Z"/>
              <path class="cls-18" d="M54.02,29.05c-.23-.56-.82-.48-1.35-.52-.6-.05-1.22-.12-1.81.01-.88.2-1.75.87-1.98,1.77-.07.26.18.29.36.19,1.34-.79,2.69.8,4.03-.08.38-.25.95-.85.74-1.37Z"/>
            </g>
            <g class="cls-24">
              <path class="cls-20" d="M36.74,5.04c-4.46-.41-8.77-2.56-13.3-1.67-.92.18-1.72.94-2.59,1.25-1.33.47-2.75.59-4.15.69-1.28.1-2.55.02-3.83-.06-1.33-.08-2.27.39-3.48.84-.04.02-.16.18-.05.17,4.19-.49,8.82,1.02,12.71-1.28,2.56-1.51,5.42-.03,7.98.59,1.87.46,3.9,1.23,5.84,1.1.54-.04,1.65-1.56.87-1.63Z"/>
              <path class="cls-20" d="M45.45,4.12c-.88-.17-1.98.11-2.81.4-.48.17-.94.46-1.39.66-.55.25-1.2.29-1.79.41-.21.04-.88.7-.44.82.98.25,1.7.1,2.64-.27,1.12-.44,2.42-.22,3.42-.92.17-.12.95-1,.37-1.11Z"/>
            </g>
          </g>
        </g>
      </g>
    </g>
  </g>
</svg>