<?xml version="1.0" encoding="UTF-8"?>
<svg id="Layer_2" data-name="Layer 2" xmlns="http://www.w3.org/2000/svg" viewBox="0 0 100.05 120">
  <defs>
    <style>
      .cls-1 {
        fill: #fee464;
      }

      .cls-2 {
        fill: #bababa;
      }

      .cls-3 {
        fill: #fec739;
      }

      .cls-4 {
        fill: #f69500;
      }

      .cls-5 {
        fill: #febe4f;
      }

      .cls-6 {
        fill: #efb627;
      }

      .cls-7 {
        fill: #888;
      }

      .cls-8 {
        fill: #feb445;
      }

      .cls-9 {
        fill: #fefefe;
      }

      .cls-10 {
        fill: #fdfdfd;
      }
    </style>
  </defs>
  <g id="Layer_1-2" data-name="Layer 1">
    <g>
      <path class="cls-2" d="M51.37,119.77c.2.07.2.14,0,.23H5.45v-.23l.16-.47h45.47l.29.47Z"/>
      <path class="cls-10" d="M58.17,118.36c.57.05,1.16.85,1.17,1.41.2.07.2.14,0,.23h-7.97v-.23c.98-.56,1.99-1.14,3.03-1.73l.49.33c.67-.73,2.73-.73,3.28,0Z"/>
      <path class="cls-7" d="M94.96,119.77v.23h-35.61v-.23l.16-.47h35.16l.29.47Z"/>
      <path d="M49.5,22.76l.71.4c2.24,4,4.34,8.07,6.31,12.2l-.22.75.48.11c.5.22.32,8.09.23,9.22l-.47.27c.21.04.2.12,0,.23.7,3.16.71,6.45,0,9.61l.47.52c.19,1.44.13,8.1-.97,8.82-.21.14-.42.24-.67.27,1.01,1.37,1.56,2.76,1.64,4.17v45.19c-.2,1.41-.62,3.36-2.11,3.83-.85.16-2.24,1.73-3.51,1.41H5.45c-3.06-.14-5.02-2.83-5.16-5.73v-44.54c-.44-1.06,1.55-3.67,1.57-3.98s-.83-1.16-1.05-1.69c-.24-.59-.45-1.66-.51-2.3-.44-4.84-.35-13.37-.01-18.28.26-3.87,1.61-6.78,4.46-9.37l18.16-13.94.14-16.26c.2-1.51,1.46-2.71,2.78-3.31l18.87-.11c1.84.21,3.36,1.83,3.61,3.65.67,4.91-.59,11.22.01,16.15.11.9.79,1.86,1.18,2.69Z"/>
      <path d="M94.96,119.77h-35.61c-.54-.02-1.15-.97-1.17-1.41-1.09-.43.35-2.15,1.33-2.12,11.48.53,23.49.52,34.75.25.88-.53,1.43-1.21,1.65-2.03v-45.38c-.07-.84-.73-1.5-1.56-1.57-10.48.11-20.95.07-31.41-.11l-1.25-.35c-.6,1.12-3.85.24-3.28-1.17-.92-1.39-.14-2.38,1.49-2.58,11.52.53,23.52.51,34.83.24v-.32c1.78-.64,1.59-5.47-.21-5.5-7.32-.11-14.69-.11-22.03.08-3.54.25-6.98.06-10.33-.58-.3.75-2.07.48-2.64.12-.75-.47-1.37-1.61-.41-2-1.11-1.48,2.3-2.56,3.05-1.41l1.28-.35c10.32-.16,20.65-.21,30.98-.15,2.05-.58,2.21-4.6.21-5.33l-.14-.5c-10.47-.17-21.07-.2-31.83-.11-1.38.47-2.91.65-3.72-.55-.34-.51-.46-1.04.17-1.22-1.36-1.39,2.13-2.87,3.05-1.64.98-.42,2.01-.61,3.07-.56,9.94.16,19.87.14,29.8-.07.96-.04,1.95-5.06-.95-5.37-10.27.44-20.59.45-30.95.03l-.96-.36c-.33.77-2.1.38-2.67-.03-.64-.46-1.29-1.48-.38-1.85-.99-.5.3-1.92,1.25-1.88l33.08-.12c2.03-.04,3.8-3.55,2.44-4.99-4.11-4.35-8.25-8.67-12.7-12.68l-23.61-.03c-1.53,1.24-2.92,2.65-4.17,4.22-.85,1.09-3.35,2.55-3.8.72-.53-.48-.53-1.37-.25-2.01.67-1.54,5.27-4.79,5.59-5.89.63-3.72-1.9-12.28,3.67-12.96,6.77.66,15.2-.87,21.78.03,5.52.75,3.04,9.65,3.77,13.33,3.56,4.16,8.66,7.89,12.07,12.07,2.67,3.27,2.27,6.97-.43,10.08,2.52,2.55,2.55,7.38.23,10.08,1.92,1.84,2.13,6.09,1.03,8.33-.2.41-1.04,1.23-1.01,1.51.01.15.73.74.93,1.12.91,1.73.95,5.25.12,7.01-.2.43-1.06,1.38-1.06,1.47,0,.21,2.07,2.76,1.6,3.74v45.93c-.38,2.39-2.21,4.56-4.69,4.8Z"/>
      <path class="cls-1" d="M59.11,35.88c.09.99-2.53,1-2.81.23-1.38-3.9-4.92-9.3-6.79-13.36.92-.14,1.3-1.24,2.11-1.64.55.49,1.46.46,2.09.1,1.79-1.03,3.78-4.46,5.77-5.48h23.89c4.47,4.04,8.79,8.42,12.9,12.87,1.48,2.6-.42,5.66-3.36,5.8l-32.51.05c-.74-.04-1.24.75-1.28,1.42Z"/>
      <path class="cls-8" d="M55.36,65.17c.18-.6,2.58-.65,2.84-.43l.21,1.13c1.23,1.5,1.49,1.11,3.28,1.17.7.07,1.18,1.21.47,1.52.18,0,.47.05.47.16.15,14.98.29,30.47,0,45.51.18,1.07.02,1.82-.47,2.24l.16-.47h31.65l.29.47c-.24.39-.89.23-1.29.24-11.09.12-22.19-.1-33.28,0-.85-.16-1.56.92-1.52,1.64-.99.12-2.35-.17-3.28,0,.85-1.13,1.54-2.4,1.65-3.86v-45.24c.49-1.04-1.63-3.54-1.64-3.74,0-.15.42-.28.46-.35Z"/>
      <path class="cls-3" d="M45.71,22.33l7.52,15.32c-.51,7.6.72,16.18.02,23.66-.1,1.08-.33,1.88-1.4,2.35H4.97c-.79-.25-1.31-1.32-1.4-2.12,1.05-7.83-2.8-19.68,3.63-25.43,5.42-4.85,12.31-8.98,17.92-13.71l20.6-.07Z"/>
      <rect class="cls-4" x="3.58" y="77.82" width="49.67" height="28.12"/>
      <path class="cls-3" d="M53.25,74.54H3.58v-5.51c0-.87,1.77-2.11,2.69-1.99h43.83c1.11-.22,3.15.8,3.15,1.99v5.51Z"/>
      <path class="cls-3" d="M53.25,109.22v5.51c0,.47-1.25,1.98-1.99,1.76l-46.29-.11c-.57-.08-1.39-1.46-1.39-1.89v-5.27h49.67Z"/>
      <path class="cls-4" d="M45.05,10.81h-18.74V3.9c0-.36,1.43-.57,1.75-.59,3.87-.33,11.4-.36,15.25,0,.43.04,1.75.36,1.75.83v6.68Z"/>
      <rect class="cls-4" x="26.3" y="14.09" width="18.74" height="4.92"/>
      <path class="cls-6" d="M59.11,55.33c-.24,2.09,1.62,1.82,3.05,1.87l.47.21v5.62s31.81.03,31.81.03l.29.47c-.24.39-.89.23-1.29.24-11.17.14-22.35-.11-33.51,0-1.33.16-1.68.81-1.52,2.11-.18-.22-.2-.66-.38-.71-.64-.17-1.91.14-2.66.01,1.74-3.07,1.13-6.17,1.17-9.61.13-.7,2.14-.61,2.58-.23Z"/>
      <path class="cls-8" d="M94.49,47.6l-.16.47-31.7.03v5.49s-.47.34-.47.34c-1.15.04-2.86-.21-3.05,1.41-.79.42-1.72.18-2.58.23.04-3.2.02-6.41,0-9.61.76-.07,1.54-.15,2.34-.23.07-.2.14-.2.23,0-.02.98.52,1.61,1.52,1.64,10.86.1,21.72-.14,32.58,0,.4,0,1.04-.15,1.29.24Z"/>
      <path class="cls-6" d="M62.15,37.76c.18.02.46.08.47.21.12,1.59.12,4.18,0,5.78l-.47.34c-1.26.05-3.01-.12-3.05,1.64h-.23c-.75.18-1.64.21-2.34,0-.01-2.23.38-7.86-.23-9.61.93-.07,1.96.21,2.81-.23-.09,1.91,1.71,1.8,3.05,1.87Z"/>
      <path class="cls-5" d="M58.87,45.72c-.63.48-1.58.15-2.34.23,0-.08,0-.16,0-.23h2.34Z"/>
      <path class="cls-1" d="M94.25,116.49h-32.1v-47.92c0-.25-.4-1.16-.47-1.52,10.87.37,21.81-.27,32.69,0,1.13.08,2.04,1.07,2,2.22v45.24c-.1,1.02-1.03,2.16-2.12,1.99Z"/>
      <path class="cls-3" d="M62.15,44.08v-6.33c9.73.52,20.28-.04,30.12.01,1.14,0,1.71-.48,3.01.25,1.62.92,1.6,5.18-.15,5.88-10.92.65-22.03-.25-32.98.18Z"/>
      <path class="cls-1" d="M94.49,47.6c2.73.29,2.65,5.99-.13,6.31-10.72.29-21.49-.33-32.2.02v-6.33s32.33,0,32.33,0Z"/>
      <path class="cls-3" d="M94.72,63.53h-32.57s0-6.33,0-6.33c10.64.41,21.53-.32,32.2.02,2.76.21,2.74,5.93.37,6.31Z"/>
      <path class="cls-4" d="M60.28,4.13c.08-.28.71-.65,1.04-.6,6.45.44,13.57-.54,19.94,0,.51.04,1.51.14,1.51.83v8.08h-22.49V4.13Z"/>
      <path d="M27.42,28.21c.24.22.49,1.1.53,1.46.38,3.44.4,16.02-.35,19.11s-3.62,6.12-6.91,6.68-7.97-.12-11.49-.02c-.58-.44-.86-.91-.95-1.63-.31-2.58-.25-8.85,0-11.5.1-1.08.31-1.28,1.07-1.97,4.63-4.26,10.87-7.78,15.63-12.01.62-.6,1.82-.7,2.46-.12Z"/>
      <path d="M27.88,80.68c.56-.17,1.23-.05,1.69.32.54.43,2.33,3.13,2.88,3.92,3.09,4.43,6.72,9.83,2.65,14.93-5.54,6.93-16.58,1.89-15.01-6.81.21-1.18,1.07-2.89,1.65-3.98.67-1.28,5.19-8.1,6.15-8.39Z"/>
      <path d="M70.99,80.68c1.08-.25,1.41.16,2.06.89,2.25,2.54,6.7,9.22,6.92,12.53.56,8.69-11.13,12.42-15.66,5.12-3.33-5.36.56-10.81,3.75-15.15.57-.77,2.18-3.22,2.94-3.39Z"/>
      <path class="cls-9" d="M11.54,52.28v-9.49l13.12-9.96v14.41c0,1.76-2.79,5.04-4.57,5.04h-8.55Z"/>
      <path class="cls-1" d="M28.18,85.09c.35-.08.38.05.57.25,1.06,1.07,3.87,5.65,4.39,7.09,2.65,7.3-7.12,10.08-9.46,4.3-1.73-4.27,2.67-8.15,4.5-11.64Z"/>
      <path class="cls-4" d="M71.41,85.09c.66-.02,4.65,6.8,4.99,7.9,1.61,5.35-4.71,9.13-8.63,5.34s1.33-9.84,3.64-13.24Z"/>
    </g>
  </g>
</svg>