<?xml version="1.0" encoding="UTF-8"?>
<svg id="Layer_2" data-name="Layer 2" xmlns="http://www.w3.org/2000/svg" viewBox="0 0 66.14 120">
  <defs>
    <style>
      .cls-1 {
        fill: #f2e7cd;
      }

      .cls-2 {
        fill: #585858;
      }

      .cls-3 {
        fill: #010102;
      }

      .cls-4 {
        fill: #dfd5bd;
      }

      .cls-5 {
        fill: #3e3e3e;
      }

      .cls-6 {
        fill: #e6eefe;
      }

      .cls-7 {
        fill: #d2dafd;
      }

      .cls-8 {
        fill: #fecf9c;
      }

      .cls-9 {
        fill: #3a3a3a;
      }

      .cls-10 {
        fill: #666;
      }
    </style>
  </defs>
  <g id="Layer_1-2" data-name="Layer 1">
    <g>
      <path d="M29.73,0l.7.23c.2-.09.44-.17.7-.23h3.74l.47.23c.07-.1.23-.17.47-.23.31.02.63-.03.94,0,2.73.23,6.04.92,8.65,1.75,1.08.34,1.89.36,2.34,1.52.8,2.41-.97,3.24-3.13,2.52l-4.13-1.59-1.04.3c-6.07-.93-12.42-.68-18.29,1.23-8.08,2.64-17.03,9.71-10.24,18.27l34.66.11c1.66.01,3.32.21,4.97.42l.54-.44c1.4.13,2.76.05,4.1-.23,4.52-5.33,1.77-11.07-3.26-14.68-.83-.55-1.16-2.9.02-2.88.6-.09.99-.88,2.33-.34.51.2,2.69,2.16,3.17,2.67,3.31,3.57,4.85,8.07,3.51,12.86-.33,1.16-1.04,2.16-1.29,3.27,6.54,1.18,7.65,10.06,1.73,13.07-.45.23-1.11.11-1.04.59l5.63,65.23c1.1,7.92-4.03,15.11-12.07,15.98-13.47-.69-28.04,1.02-41.38.04C3.42,119.02-.36,111.82.03,103.44c.98-21.01,4.6-42.53,5.62-63.57.03-.57,0-1.17-.04-1.74-6.84-1.9-6.3-12.16.73-13.35-.42-1.39-1.15-2.55-1.48-4.01C2.46,10.26,13.55,3.46,22.25,1.29c2.09-.52,4.25-.67,6.32-1.28h1.17Z"/>
      <path class="cls-10" d="M30.43,0c.2.07.2.14,0,.23-.26,0-.58.06-.7-.23h.7Z"/>
      <path class="cls-5" d="M31.14,0c-.12.3-.44.23-.7.23V0h.7Z"/>
      <path class="cls-9" d="M35.35,0c.2.07.2.14,0,.23-.2,0-.42,0-.47-.23h.47Z"/>
      <path class="cls-2" d="M35.81,0c-.05.24-.27.23-.47.23V0h.47Z"/>
      <path class="cls-7" d="M47.74,3.28c.19.5.31.75.26,1.38,1.01-.05,3.21,1.76,3.95,1.66-.31.6-.37,1.49-.11,2.1.14.34,3.11,2.75,3.74,3.51,2.38,2.9,3.04,6.04,1.63,9.58-.27.69-1.25,2.48-1.85,2.82-.78.45-3.68.21-4.81.22l-.04-.8c5.22-8.43-2.33-15.93-9.94-18.91l-.08-.62c1.3.24,4.86,1.45,5.72,1.39,1.11-.08,1.79-1.29,1.53-2.33Z"/>
      <path class="cls-6" d="M4.7,92.57l51.09-.06.41.96c.62,6.97,1.15,13.87,1.59,20.72l-.69.82c-1.48.73-2.38,1.06-4.08,1.18-13.03.91-27.11-.71-40.25,0-4.54-.36-8.13-3.52-9.18-7.89-.32-5.15.72-10.24.87-15.38l.24-.34Z"/>
      <path class="cls-6" d="M8.68,44.88l.29-1.36c13.79,0,27.94.16,41.74.34.95.78,1.44,1.92,1.47,3.41.39,4.91.78,9.83,1.16,14.75l-.24.27c-8.9-.07-17.79-.03-26.65.12-.67.25-1.43.85-1.4,1.64-.29.54-2.87.67-3.47.51-.79-.01-1-.23-1.21-.97-.21-.25-.52-1.17-1.05-1.17H7.28c.02-.66-.04-1.33,0-1.98.29-4.35.55-11.51,1.4-15.55Z"/>
      <path class="cls-1" d="M20.38,63.58c.83,1,3.36.24,4.68.47.03.82,1.08,1.92,1.98,1.88,8.77.01,17.55-.04,26.32,0,.18.01.46.05.48.17.11.68.32,3.85-.03,4.14-1.8-.1-3.58-.05-5.36.13v.32c-1.79,1.94-.1,2.77,1.88,2.86l.28.5-.07,7.72c0,3.39,3.24,2.75,2.64-.45l-.11-7.24c.21-.7.72-.9.99-.19l.48.18c.38,4.82.75,9.64,1.13,14.47l-.44.31c-16.76.06-33.53-.04-50.29,0l1.87-22.91h12.28c.72,0,1.65-1.57,1.29-2.34Z"/>
      <path class="cls-6" d="M40.49,4.22c.95.71,2.14,1.01,3.2,1.6,7.14,3.92,12.03,10.92,6.86,18.74-13.24.17-26.55-.02-39.76-.12-6-6.57-1.31-13.4,5.22-16.98,7.18-3.93,16.52-4.71,24.48-3.23Z"/>
      <path class="cls-7" d="M8.68,44.88l.47-6.31h47.72l1.87,23.84H26.46c.2-.08.42-.38.79-.25l25.64.02-1.17-14.84c-.25-1.13-.11-2.29-1.15-3.06l-41.52-.35c-.05,0-.34.83-.37.95Z"/>
      <path class="cls-1" d="M55.23,28.06c2.32.84,2.27,6.13,0,7.01-15.93.27-31.9-.21-47.84,0-4.19-.84-4.19-6.19,0-7.02,15.94.25,31.91-.32,47.84,0Z"/>
      <path class="cls-7" d="M57.1,115c.37-.86.28-1.99.23-2.92-.2-3.9-.82-8.01-1.17-11.92-.22-2.52-.36-5.07-.47-7.6H4.7s56.62-.13,56.62-.13l.22.48c-.2,7.65,4.31,17.79-4.45,22.09Z"/>
      <path class="cls-8" d="M53.36,65.92c1.95,0,3.9,0,5.85,0l1.87,22.91c-1.95,0-3.9,0-5.85,0l-1.17-14.96.07-.32c1.61-.4,3.05-1.14,1.37-2.65-2.23-.16-4.49-.18-6.73-.1l-.32-.44c.67-.59,4.91,0,5.15-.23l-.23-4.21Z"/>
      <path class="cls-8" d="M55.23,28.06c1.65.03,3.7-.34,5.08.65,2.67,1.91,1.43,5.99-1.68,6.37-1,.12-2.33-.02-3.4,0,1.61-2.07,1.67-4.98,0-7.01Z"/>
      <path d="M18.9,74.5c-1.41,1.14-2.83-.83-4.5-.65-.6.07-1.34.56-.51,1,.97.52,2.38.78,3.37,1.31,5.02,2.7,2.33,8.9-3.55,8.22-1.7-.2-5.28-2.02-4.1-4.1,1.27-2.25,3.14.39,4.35.58,1.04.17,3.42-.36,2.05-1.4-1.91-1.45-5.64-.96-5.93-4.53-.35-4.32,4.3-5.58,7.66-3.91,1.29.64,2.62,2.31,1.18,3.48Z"/>
      <path d="M30.59,70.9l4.42,11.37c.48,1.87-2.01,2.95-3.15,1.5-.31-.39-.68-1.87-.77-1.92-.4-.26-3.29.14-4.04-.05-.29.08-.27,2.46-1.89,2.61s-2.22-.91-1.94-2.42,3.27-9.13,4.03-10.47,2.08-1.56,3.33-.62Z"/>
      <path d="M54.06,73.87c-.15.01-.31-.02-.47,0-.28.38.28,7.99-.05,9.42s-2.51,1.6-3.17.23c-.76-1.58.06-9.31-.29-9.65-.08-.07-1.42.07-2.09-.36-1.13-.73-.94-2.89.45-3.14.72-.13,6.76-.08,7.25.12.2.08.83.76.9.98.55,1.83-1.12,2.29-2.53,2.4Z"/>
      <path d="M42.6,80.88c1.1-.01,2.54-.16,3.28.81.8,1.06.27,2.47-1.07,2.68-1.08.17-5.32.32-5.67-.85v-12.3c.96-1.59,3.46-.96,3.46.89v8.76Z"/>
      <path class="cls-3" d="M18.2,11.28c3.31-.97,3.31,4.14,0,3.17-1.22-.36-1.23-2.81,0-3.17Z"/>
      <path class="cls-3" d="M32.24,11.28c3.31-.97,3.31,4.14,0,3.17-1.22-.36-1.23-2.81,0-3.17Z"/>
      <path class="cls-3" d="M46.27,11.28c3.31-.97,3.31,4.14,0,3.17-1.22-.36-1.23-2.81,0-3.17Z"/>
      <path class="cls-3" d="M25.22,18.29c3.31-.97,3.31,4.14,0,3.17-1.22-.36-1.23-2.81,0-3.17Z"/>
      <path class="cls-3" d="M39.25,18.29c3.31-.97,3.31,4.14,0,3.17-1.22-.36-1.23-2.81,0-3.17Z"/>
      <polygon class="cls-4" points="29.73 78.31 28.33 78.31 29.15 76.67 29.73 78.31"/>
    </g>
  </g>
</svg>