<?xml version="1.0" encoding="UTF-8"?>
<svg xmlns="http://www.w3.org/2000/svg" xmlns:xlink="http://www.w3.org/1999/xlink" viewBox="0 0 120 85.97">
  <defs>
    <style>
      .cls-1 {
        fill: url(#linear-gradient-33);
      }

      .cls-1, .cls-2, .cls-3, .cls-4, .cls-5, .cls-6, .cls-7, .cls-8, .cls-9, .cls-10, .cls-11, .cls-12, .cls-13, .cls-14, .cls-15, .cls-16, .cls-17, .cls-18, .cls-19, .cls-20, .cls-21, .cls-22 {
        opacity: .5;
      }

      .cls-1, .cls-23, .cls-7, .cls-24, .cls-25, .cls-26, .cls-27, .cls-28, .cls-20, .cls-29 {
        mix-blend-mode: screen;
      }

      .cls-2 {
        fill: url(#linear-gradient-21);
      }

      .cls-2, .cls-6, .cls-8, .cls-10, .cls-14, .cls-16, .cls-18, .cls-21 {
        mix-blend-mode: color-burn;
      }

      .cls-30 {
        fill: url(#linear-gradient-2);
      }

      .cls-3 {
        fill: url(#linear-gradient-6);
      }

      .cls-3, .cls-4, .cls-5, .cls-9, .cls-11, .cls-12, .cls-19, .cls-22 {
        mix-blend-mode: overlay;
      }

      .cls-4 {
        fill: url(#linear-gradient-18);
      }

      .cls-31 {
        fill: url(#linear-gradient-26);
      }

      .cls-32 {
        fill: url(#linear-gradient-4);
      }

      .cls-23 {
        fill: url(#linear-gradient-17);
      }

      .cls-23, .cls-25, .cls-26, .cls-28 {
        opacity: .25;
      }

      .cls-33 {
        fill: url(#linear-gradient-3);
      }

      .cls-5 {
        fill: url(#linear-gradient-12);
      }

      .cls-6 {
        fill: url(#linear-gradient-16);
      }

      .cls-7 {
        fill: url(#White_Black-2);
      }

      .cls-34 {
        isolation: isolate;
      }

      .cls-24 {
        fill: url(#White_Black);
      }

      .cls-24, .cls-35, .cls-27, .cls-29 {
        opacity: .35;
      }

      .cls-36 {
        fill: url(#linear-gradient-8);
      }

      .cls-8 {
        fill: url(#linear-gradient-15);
      }

      .cls-25 {
        fill: url(#linear-gradient-29);
      }

      .cls-9 {
        fill: url(#linear-gradient-19);
      }

      .cls-10 {
        fill: url(#linear-gradient-22);
      }

      .cls-35 {
        fill: url(#linear-gradient-31);
      }

      .cls-35, .cls-15 {
        mix-blend-mode: lighten;
      }

      .cls-26 {
        fill: url(#linear-gradient-11);
      }

      .cls-11 {
        fill: url(#linear-gradient-13);
      }

      .cls-37 {
        fill: url(#linear-gradient-14);
      }

      .cls-38 {
        fill: url(#linear-gradient-20);
      }

      .cls-39 {
        fill: url(#linear-gradient-5);
      }

      .cls-39, .cls-13, .cls-40, .cls-17 {
        mix-blend-mode: multiply;
      }

      .cls-12 {
        fill: url(#linear-gradient-25);
      }

      .cls-27 {
        fill: url(#radial-gradient);
      }

      .cls-13, .cls-41 {
        fill: #b04b2a;
      }

      .cls-14 {
        fill: url(#linear-gradient-27);
      }

      .cls-40 {
        fill: #d3b3ab;
      }

      .cls-42 {
        fill: #f4f4f4;
      }

      .cls-15 {
        fill: url(#linear-gradient-34);
      }

      .cls-16 {
        fill: url(#linear-gradient-10);
      }

      .cls-17 {
        fill: #d35335;
      }

      .cls-18 {
        fill: url(#linear-gradient-28);
      }

      .cls-19 {
        fill: url(#linear-gradient-7);
      }

      .cls-43 {
        fill: url(#linear-gradient);
      }

      .cls-28 {
        fill: url(#linear-gradient-23);
      }

      .cls-20 {
        fill: url(#linear-gradient-30);
      }

      .cls-21 {
        fill: url(#linear-gradient-9);
      }

      .cls-29 {
        fill: url(#linear-gradient-32);
      }

      .cls-22 {
        fill: url(#linear-gradient-24);
      }
    </style>
    <linearGradient id="linear-gradient" x1="186.34" y1="341" x2="186.34" y2="221" gradientTransform="translate(-221 229.33) rotate(-90)" gradientUnits="userSpaceOnUse">
      <stop offset="0" stop-color="#e3e4e6"/>
      <stop offset="1" stop-color="#cacccb"/>
    </linearGradient>
    <linearGradient id="linear-gradient-2" x1="186.34" y1="339.96" x2="186.34" y2="222.03" gradientTransform="translate(-221 229.33) rotate(-90)" gradientUnits="userSpaceOnUse">
      <stop offset="0" stop-color="#fff"/>
      <stop offset=".99" stop-color="#f4f4f4"/>
    </linearGradient>
    <linearGradient id="linear-gradient-3" x1="218.94" y1="337.46" x2="153.74" y2="224.53" gradientTransform="translate(-221 229.33) rotate(-90)" gradientUnits="userSpaceOnUse">
      <stop offset="0" stop-color="#f4f4f4"/>
      <stop offset="1" stop-color="#cacccb"/>
    </linearGradient>
    <linearGradient id="linear-gradient-4" x1="186.34" y1="327.03" x2="186.34" y2="234.96" gradientTransform="translate(-221 229.33) rotate(-90)" gradientUnits="userSpaceOnUse">
      <stop offset="0" stop-color="#f4f4f4"/>
      <stop offset=".99" stop-color="#e3e4e6"/>
    </linearGradient>
    <linearGradient id="linear-gradient-5" x1="156.96" y1="280.59" x2="223.32" y2="280.59" xlink:href="#linear-gradient-3"/>
    <linearGradient id="linear-gradient-6" x1="153.61" y1="252.61" x2="159.36" y2="252.61" gradientTransform="translate(-221 229.33) rotate(-90)" gradientUnits="userSpaceOnUse">
      <stop offset="0" stop-color="#fff"/>
      <stop offset=".09" stop-color="#f8f8f8"/>
      <stop offset=".22" stop-color="#e5e5e5"/>
      <stop offset=".37" stop-color="#c6c6c6"/>
      <stop offset=".54" stop-color="#9a9a9a"/>
      <stop offset=".72" stop-color="#636363"/>
      <stop offset=".91" stop-color="#202020"/>
      <stop offset="1" stop-color="#000"/>
    </linearGradient>
    <linearGradient id="linear-gradient-7" x1="-4314.6" x2="-4308.84" gradientTransform="translate(-221 4325.49) rotate(90) scale(1 -1)" xlink:href="#linear-gradient-6"/>
    <linearGradient id="linear-gradient-8" x1="185.97" y1="260.88" x2="185.97" y2="233.11" gradientTransform="translate(-221 229.33) rotate(-90)" gradientUnits="userSpaceOnUse">
      <stop offset="0" stop-color="#b04b2a"/>
      <stop offset=".99" stop-color="#d35335"/>
    </linearGradient>
    <linearGradient id="linear-gradient-9" x1="186.22" y1="260.88" x2="186.22" y2="251" gradientTransform="translate(-221 229.33) rotate(-90)" gradientUnits="userSpaceOnUse">
      <stop offset="0" stop-color="#b3b3b3"/>
      <stop offset=".18" stop-color="#c6c6c6"/>
      <stop offset=".52" stop-color="#e5e5e5"/>
      <stop offset=".8" stop-color="#f8f8f8"/>
      <stop offset="1" stop-color="#fff"/>
    </linearGradient>
    <linearGradient id="linear-gradient-10" x1="186.08" y1="246.51" x2="186.08" y2="233.11" xlink:href="#linear-gradient-9"/>
    <linearGradient id="linear-gradient-11" x1="157.54" y1="242.9" x2="214.21" y2="242.9" gradientTransform="translate(-221 229.33) rotate(-90)" gradientUnits="userSpaceOnUse">
      <stop offset="0" stop-color="#000"/>
      <stop offset="0" stop-color="#0b0b0b"/>
      <stop offset=".05" stop-color="#3d3d3d"/>
      <stop offset=".09" stop-color="#6b6b6b"/>
      <stop offset=".13" stop-color="#939393"/>
      <stop offset=".18" stop-color="#b4b4b4"/>
      <stop offset=".23" stop-color="#cfcfcf"/>
      <stop offset=".28" stop-color="#e4e4e4"/>
      <stop offset=".34" stop-color="#f3f3f3"/>
      <stop offset=".41" stop-color="#fcfcfc"/>
      <stop offset=".52" stop-color="#fff"/>
      <stop offset=".57" stop-color="#f8f8f8"/>
      <stop offset=".63" stop-color="#e7e7e7"/>
      <stop offset=".7" stop-color="#cacaca"/>
      <stop offset=".77" stop-color="#a2a2a2"/>
      <stop offset=".85" stop-color="#6e6e6e"/>
      <stop offset=".94" stop-color="#303030"/>
      <stop offset="1" stop-color="#000"/>
    </linearGradient>
    <linearGradient id="linear-gradient-12" x1="154.14" y1="274.73" x2="159.9" y2="274.73" xlink:href="#linear-gradient-6"/>
    <linearGradient id="linear-gradient-13" x1="-4315.13" y1="274.73" x2="-4309.38" y2="274.73" gradientTransform="translate(-221 4325.49) rotate(90) scale(1 -1)" xlink:href="#linear-gradient-6"/>
    <linearGradient id="linear-gradient-14" x1="186.51" y1="283.01" x2="186.51" y2="255.24" xlink:href="#linear-gradient-8"/>
    <linearGradient id="linear-gradient-15" x1="186.76" y1="283.01" x2="186.76" y2="273.12" xlink:href="#linear-gradient-9"/>
    <linearGradient id="linear-gradient-16" x1="186.62" y1="268.64" x2="186.62" y2="255.24" xlink:href="#linear-gradient-9"/>
    <linearGradient id="linear-gradient-17" x1="158.07" y1="265.03" x2="214.75" y2="265.03" xlink:href="#linear-gradient-11"/>
    <linearGradient id="linear-gradient-18" x1="154.68" y1="297.41" x2="160.43" y2="297.41" xlink:href="#linear-gradient-6"/>
    <linearGradient id="linear-gradient-19" x1="-4315.67" y1="297.41" x2="-4309.92" y2="297.41" gradientTransform="translate(-221 4325.49) rotate(90) scale(1 -1)" xlink:href="#linear-gradient-6"/>
    <linearGradient id="linear-gradient-20" x1="187.04" y1="305.69" x2="187.04" y2="277.92" xlink:href="#linear-gradient-8"/>
    <linearGradient id="linear-gradient-21" x1="187.3" y1="305.69" x2="187.3" y2="295.8" xlink:href="#linear-gradient-9"/>
    <linearGradient id="linear-gradient-22" x1="187.16" y1="291.32" x2="187.16" y2="277.92" xlink:href="#linear-gradient-9"/>
    <linearGradient id="linear-gradient-23" x1="158.61" y1="287.71" x2="215.28" y2="287.71" xlink:href="#linear-gradient-11"/>
    <linearGradient id="linear-gradient-24" x1="153.88" y1="320.09" x2="159.63" y2="320.09" xlink:href="#linear-gradient-6"/>
    <linearGradient id="linear-gradient-25" x1="-4314.86" y1="320.09" x2="-4309.11" y2="320.09" gradientTransform="translate(-221 4325.49) rotate(90) scale(1 -1)" xlink:href="#linear-gradient-6"/>
    <linearGradient id="linear-gradient-26" x1="186.24" y1="328.37" x2="186.24" y2="300.6" xlink:href="#linear-gradient-8"/>
    <linearGradient id="linear-gradient-27" x1="186.49" y1="328.37" x2="186.49" y2="318.48" xlink:href="#linear-gradient-9"/>
    <linearGradient id="linear-gradient-28" x1="186.35" y1="314" x2="186.35" y2="300.6" xlink:href="#linear-gradient-9"/>
    <linearGradient id="linear-gradient-29" x1="157.8" y1="310.39" x2="214.48" y2="310.39" xlink:href="#linear-gradient-11"/>
    <radialGradient id="radial-gradient" cx="186.34" cy="281" fx="186.34" fy="281" r="52.19" gradientTransform="translate(-221 229.33) rotate(-90)" gradientUnits="userSpaceOnUse">
      <stop offset="0" stop-color="#000"/>
      <stop offset=".17" stop-color="#030303"/>
      <stop offset=".3" stop-color="#0c0c0c"/>
      <stop offset=".42" stop-color="#1d1d1d"/>
      <stop offset=".53" stop-color="#343434"/>
      <stop offset=".64" stop-color="#515151"/>
      <stop offset=".74" stop-color="#767676"/>
      <stop offset=".84" stop-color="#a2a2a2"/>
      <stop offset=".93" stop-color="#d3d3d3"/>
      <stop offset="1" stop-color="#fff"/>
    </radialGradient>
    <linearGradient id="White_Black" data-name="White, Black" x1="160.93" y1="316.88" x2="183.68" y2="282.13" gradientTransform="translate(-221 229.33) rotate(-90)" gradientUnits="userSpaceOnUse">
      <stop offset="0" stop-color="#fff"/>
      <stop offset="1" stop-color="#000"/>
    </linearGradient>
    <linearGradient id="White_Black-2" data-name="White, Black" x1="172.11" y1="324.39" x2="194.71" y2="289.88" xlink:href="#White_Black"/>
    <linearGradient id="linear-gradient-30" x1="162.95" y1="253.6" x2="172.93" y2="238.35" gradientTransform="translate(-221 229.33) rotate(-90)" gradientUnits="userSpaceOnUse">
      <stop offset="0" stop-color="#000"/>
      <stop offset="1" stop-color="#fff"/>
    </linearGradient>
    <linearGradient id="linear-gradient-31" x1="189.97" y1="273.94" x2="206.3" y2="307.92" gradientTransform="translate(-221 229.33) rotate(-90)" gradientUnits="userSpaceOnUse">
      <stop offset="0" stop-color="#000"/>
      <stop offset=".09" stop-color="#202020"/>
      <stop offset=".28" stop-color="#636363"/>
      <stop offset=".46" stop-color="#9a9a9a"/>
      <stop offset=".63" stop-color="#c6c6c6"/>
      <stop offset=".78" stop-color="#e5e5e5"/>
      <stop offset=".91" stop-color="#f8f8f8"/>
      <stop offset="1" stop-color="#fff"/>
    </linearGradient>
    <linearGradient id="linear-gradient-32" x1="143.36" y1="276.34" x2="178.73" y2="276.34" gradientTransform="translate(-221 229.33) rotate(-90)" gradientUnits="userSpaceOnUse">
      <stop offset="0" stop-color="#fff"/>
      <stop offset=".19" stop-color="#fcfcfc"/>
      <stop offset=".33" stop-color="#f3f3f3"/>
      <stop offset=".44" stop-color="#e3e3e3"/>
      <stop offset=".55" stop-color="#cdcdcd"/>
      <stop offset=".65" stop-color="#b1b1b1"/>
      <stop offset=".74" stop-color="#8e8e8e"/>
      <stop offset=".83" stop-color="#656565"/>
      <stop offset=".92" stop-color="#363636"/>
      <stop offset="1" stop-color="#020202"/>
      <stop offset="1" stop-color="#000"/>
    </linearGradient>
    <linearGradient id="linear-gradient-33" x1="189.7" y1="251.91" x2="212.36" y2="217.29" gradientTransform="translate(-221 229.33) rotate(-90)" gradientUnits="userSpaceOnUse">
      <stop offset="0" stop-color="#000"/>
      <stop offset=".06" stop-color="#1f1f1f"/>
      <stop offset=".16" stop-color="#535353"/>
      <stop offset=".26" stop-color="#818181"/>
      <stop offset=".37" stop-color="#a8a8a8"/>
      <stop offset=".48" stop-color="#c7c7c7"/>
      <stop offset=".59" stop-color="#e0e0e0"/>
      <stop offset=".71" stop-color="#f1f1f1"/>
      <stop offset=".84" stop-color="#fbfbfb"/>
      <stop offset="1" stop-color="#fff"/>
    </linearGradient>
    <linearGradient id="linear-gradient-34" x1="201.38" y1="277.66" x2="219.97" y2="241.43" gradientTransform="translate(-221 229.33) rotate(-90)" gradientUnits="userSpaceOnUse">
      <stop offset="0" stop-color="#000"/>
      <stop offset=".05" stop-color="#303030"/>
      <stop offset=".1" stop-color="#5b5b5b"/>
      <stop offset=".15" stop-color="#828282"/>
      <stop offset=".21" stop-color="#a4a4a4"/>
      <stop offset=".28" stop-color="silver"/>
      <stop offset=".35" stop-color="#d7d7d7"/>
      <stop offset=".44" stop-color="#e9e9e9"/>
      <stop offset=".54" stop-color="#f5f5f5"/>
      <stop offset=".67" stop-color="#fcfcfc"/>
      <stop offset="1" stop-color="#fff"/>
    </linearGradient>
  </defs>
  <g class="cls-34">
    <g id="Layer_2" data-name="Layer 2">
      <g id="Layer_1-2" data-name="Layer 1">
        <g>
          <g>
            <path class="cls-43" d="M16.34,0h87.31c9.03,0,16.34,7.32,16.34,16.34v53.28c0,9.03-7.32,16.34-16.34,16.34H16.34c-9.03,0-16.34-7.32-16.34-16.34V16.34c0-2.47.55-4.8,1.53-6.9.86-1.85,2.05-3.5,3.5-4.89C7.97,1.73,11.95,0,16.34,0Z"/>
            <rect class="cls-30" x="1.04" y="1.07" width="117.93" height="83.82" rx="14.23" ry="14.23"/>
            <rect class="cls-33" x="2.59" y="2.69" width="114.82" height="80.6" rx="12.75" ry="12.75"/>
            <rect class="cls-42" x="12.93" y="13.43" width="94.14" height="59.1" rx="6.54" ry="6.54"/>
            <rect class="cls-32" x="13.97" y="14.51" width="92.07" height="56.95" rx="5.56" ry="5.56"/>
          </g>
          <path class="cls-39" d="M84.39,17.64c-.01-.14-.03-.28-.05-.41-.02-.13-.04-.27-.07-.43-.03-.13-.05-.25-.09-.38-.03-.11-.06-.23-.09-.34-.01-.04-.02-.08-.04-.12-.03-.1-.06-.2-.1-.32-.04-.12-.09-.25-.15-.37-.04-.12-.1-.23-.15-.34-.19-.41-.41-.8-.68-1.16-.06-.08-.12-.16-.18-.24-.08-.11-.16-.21-.27-.34-.08-.1-.17-.19-.26-.29-.09-.1-.19-.2-.3-.31-.08-.08-.16-.16-.25-.23-.13-.12-.27-.24-.42-.36-.1-.07-.19-.15-.29-.22-.12-.09-.24-.17-.36-.25-.09-.06-.17-.11-.26-.16-.29-.18-.6-.35-.93-.51-.14-.07-.28-.13-.42-.19-.18-.08-.36-.16-.55-.23-.09-.03-.18-.07-.31-.11l1.54-1.65-.5-.23-.81-.36.45-.92-.31-.12-2.09-.79-.61-.23-.19.59s-1.24-.19-1.24-.19l-.63-.1.06,3.21c-.93-.05-1.91-.02-2.95.07-.04,0-.09,0-.13.01-.12.01-.23.02-.35.04-3.95.52-7.11,3.39-9.41,7.87-.01-.06-.02-.12-.03-.19-.03-.13-.05-.25-.09-.38-.03-.11-.06-.23-.09-.34-.01-.04-.02-.08-.04-.12-.03-.1-.06-.2-.1-.32-.04-.12-.09-.25-.15-.37-.04-.12-.1-.23-.15-.34-.19-.41-.41-.8-.68-1.16-.06-.08-.12-.16-.18-.24-.08-.11-.16-.21-.27-.34-.08-.1-.17-.19-.26-.29-.09-.1-.19-.2-.3-.31-.08-.08-.16-.16-.25-.23-.13-.12-.27-.24-.42-.36-.1-.07-.19-.15-.29-.22-.12-.09-.24-.17-.36-.25-.09-.06-.17-.11-.26-.16-.29-.18-.6-.35-.93-.51-.14-.07-.28-.13-.42-.19-.18-.08-.36-.16-.55-.23-.09-.03-.18-.07-.31-.11l1.54-1.65-.5-.23-.81-.36.45-.92-.31-.12-2.09-.79-.61-.23-.19.59s-1.24-.19-1.24-.19l-.63-.1.06,3.21c-.93-.05-1.91-.02-2.95.07-.04,0-.09,0-.13.01-.12.01-.23.02-.35.04-3.72.49-6.75,3.07-9.01,7.13-.01-.05-.03-.1-.04-.15-.01-.04-.02-.08-.04-.12-.03-.1-.06-.2-.1-.32-.04-.12-.09-.25-.15-.37-.04-.12-.1-.23-.15-.34-.19-.41-.41-.8-.68-1.16-.06-.08-.12-.16-.18-.24-.08-.11-.16-.21-.27-.34-.08-.1-.17-.19-.26-.29-.09-.1-.19-.2-.3-.31-.08-.08-.16-.16-.25-.23-.13-.12-.27-.24-.42-.36-.1-.07-.19-.15-.3-.22-.12-.09-.24-.17-.36-.25-.09-.06-.17-.11-.26-.16-.29-.18-.6-.35-.93-.51-.14-.07-.28-.13-.42-.19-.18-.08-.36-.16-.55-.23-.09-.03-.18-.07-.31-.11l1.54-1.65-.5-.23-.81-.36.45-.92-.31-.12-2.09-.79-.61-.23-.19.59s-1.24-.19-1.24-.19l-.63-.1.06,3.21c-.93-.05-1.91-.02-2.95.07-.04,0-.09,0-.13.01-.12.01-.23.02-.35.04-9.76,1.3-14.76,16.9-13.56,36.03.85,13.5,5.68,20.25,12.08,21.84.47.12.95.21,1.43.27,1.12.14,2.29.14,3.48,0l-.06,3.2.63-.1s1.21-.19,1.24-.19l.19.59.61-.23,2.09-.79.31-.12-.45-.92.81-.36.5-.23-1.72-1.84c3.1-1.11,4.93-2.93,5.96-4.93.02.01.03.02.03.02v-.1c.06-.1.1-.21.15-.31,2.03,2.99,4.61,4.79,7.5,5.51.47.12.95.21,1.43.27,1.12.14,2.29.14,3.48,0l-.06,3.2.63-.1s1.21-.19,1.24-.19l.19.59.61-.23,2.09-.79.31-.12-.45-.92.81-.36.5-.23-1.72-1.84c3.51-1.25,5.38-3.42,6.32-5.74.08.07.16.13.24.19,2.05,3.12,4.68,4.99,7.65,5.73.47.12.95.21,1.43.27,1.12.14,2.29.14,3.48,0l-.06,3.2.63-.1s1.21-.19,1.24-.19l.19.59.61-.23,2.09-.79.31-.12-.45-.92.81-.36.5-.23-1.72-1.84c3.09-1.1,4.91-2.91,5.94-4.9.13.1.24.2.36.29,2.09,3.37,4.82,5.37,7.91,6.14.47.12.95.21,1.43.27,1.12.14,2.29.14,3.48,0l-.06,3.2.63-.1s1.21-.19,1.24-.19l.19.59.61-.23,2.09-.79.31-.12-.45-.92.81-.36.5-.23-1.72-1.84c6.2-2.21,7.29-7.26,7.17-10.99-.09-2.54-.75-4.47-.75-4.47-2.8-8.67-2.21-23.44-.37-30.15,0-.02.01-.04.01-.06.24-.91.36-1.8.36-2.65,0-.14,0-.28-.01-.42,0-.14-.01-.28-.03-.42-.01-.14-.03-.28-.05-.41-.02-.13-.04-.27-.07-.43-.03-.13-.05-.25-.09-.38-.03-.11-.06-.23-.09-.34-.01-.04-.02-.08-.04-.12-.03-.1-.06-.2-.1-.32-.04-.12-.09-.25-.15-.37-.04-.12-.1-.23-.15-.34-.19-.41-.41-.8-.68-1.16-.06-.08-.12-.16-.18-.24-.08-.11-.16-.21-.27-.34-.08-.1-.17-.19-.26-.29-.09-.1-.19-.2-.3-.31-.08-.08-.16-.16-.25-.23-.13-.12-.27-.24-.42-.36-.1-.07-.19-.15-.3-.22-.12-.09-.24-.17-.36-.25-.09-.06-.17-.11-.26-.16-.29-.18-.6-.35-.93-.51-.14-.07-.28-.13-.42-.19-.18-.08-.36-.16-.55-.23-.09-.03-.18-.07-.31-.11l1.54-1.65-.5-.23-.81-.36.45-.92-.31-.12-2.09-.79-.61-.23-.19.59s-1.24-.19-1.24-.19l-.63-.1.06,3.21c-.93-.05-1.91-.02-2.95.07-.04,0-.09,0-.13.01-.12.01-.23.02-.35.04-3.88.52-7,3.3-9.29,7.65,0-.02,0-.03,0-.05,0-.14-.01-.28-.03-.42Z"/>
          <g>
            <g>
              <g>
                <g>
                  <path class="cls-41" d="M32.26,70.76l2.31,2.54-.49.23-.79.36.44.92-.3.12-2.04.79-.6.23-.18-.59s-1.21.19-1.21.19l-.62.1.06-3.42.62-.27.29-.13.44-.19,1.03-.45.55-.24.12-.06.35-.15Z"/>
                  <polygon class="cls-13" points="29.5 70.72 29.76 71.85 30.59 75.36 29.41 75.56 29.47 71.97 29.5 70.72"/>
                  <polygon class="cls-13" points="31.5 70.43 31.9 70.91 34.08 73.52 33.29 73.89 31.78 70.97 31.5 70.43"/>
                  <polygon class="cls-3" points="30.5 69.97 31.23 71.21 33.43 74.93 31.4 75.72 30.21 71.65 29.79 70.23 30.5 69.97"/>
                </g>
                <g>
                  <path class="cls-41" d="M32.26,15.85l2.31-2.54-.49-.23-.79-.36.44-.92-.3-.12-2.04-.79-.6-.23-.18.59s-1.21-.19-1.21-.19l-.62-.1.06,3.42.62.27.29.13.44.19,1.03.45.55.24.12.06.35.15Z"/>
                  <polygon class="cls-13" points="29.5 15.9 29.76 14.77 30.59 11.25 29.41 11.06 29.47 14.65 29.5 15.9"/>
                  <polygon class="cls-13" points="31.5 16.19 31.9 15.7 34.08 13.09 33.29 12.73 31.78 15.65 31.5 16.19"/>
                  <polygon class="cls-19" points="30.5 16.65 31.23 15.41 33.43 11.69 31.4 10.9 30.21 14.96 29.79 16.39 30.5 16.65"/>
                </g>
                <path class="cls-36" d="M28.85,14.18c.21.01.41.02.61.04.14.01.28.02.42.04.04,0,.08,0,.12.01.13.01.26.03.39.05.11.02.2.03.29.05.27.04.54.09.79.15.08.01.15.03.23.05.12.03.21.05.31.08.08.02.16.04.24.07.09.02.18.05.26.07.04.01.07.02.11.04.13.04.26.08.39.13.15.05.25.09.35.13.19.07.36.15.54.23.14.06.28.13.41.19.32.16.62.33.9.51.08.05.17.11.25.16.12.08.24.16.35.25.1.07.19.15.29.22.14.12.28.23.41.36.08.07.16.16.24.23.11.11.2.21.29.31.09.1.17.19.25.29.11.13.19.23.26.34.06.08.12.16.17.24.25.37.47.76.66,1.16.05.11.1.23.15.34.05.12.1.25.14.37.04.12.07.22.1.32.01.04.03.08.04.12.03.11.06.22.09.34.03.13.06.25.08.38.03.16.05.3.07.43.02.14.04.28.05.41.01.14.03.28.03.42,0,.14.01.28.01.42,0,.86-.12,1.74-.35,2.65,0,.02-.01.04-.01.06-1.8,6.71-2.37,21.49.36,30.15,0,0,.64,1.93.73,4.47.12,3.73-.94,8.78-6.99,10.99-.15.06-.28.1-.41.14-.11.04-.21.07-.32.11-.18.06-.36.11-.54.16-.07.02-.14.04-.21.06-.35.1-.71.19-1.06.26-.16.04-.33.07-.5.1-.13.03-.27.05-.4.07-.2.04-.41.06-.61.09-1.16.14-2.29.14-3.39,0-.47-.06-.94-.15-1.4-.27-6.23-1.6-10.95-8.35-11.78-21.84-1.17-19.14,3.71-34.74,13.23-36.03.11-.02.23-.03.34-.04.04,0,.08,0,.12-.01,1.01-.1,1.97-.12,2.88-.07Z"/>
                <path class="cls-21" d="M30,14.27c.13.01.26.03.39.05.11.02.2.03.29.05.27.04.54.09.79.15.08.01.15.03.23.05.12.03.21.05.31.08.08.02.16.04.24.07.09.02.18.05.26.07.04.01.07.02.11.04.13.04.26.08.39.13.15.05.25.09.35.13.19.07.36.15.54.23.14.06.28.13.41.19.32.16.62.33.9.51.08.05.17.11.25.16.12.08.24.16.35.25.1.07.19.15.29.22.14.12.28.23.41.36.08.07.16.16.24.23.11.11.2.21.29.31.09.1.17.19.25.29.11.13.19.23.26.34.06.08.12.16.17.24.25.37.47.76.66,1.16.05.11.1.23.15.34.05.12.1.25.14.37.04.12.07.22.1.32.01.04.03.08.04.12.03.11.06.22.09.34.03.13.06.25.08.38.03.16.05.3.07.43.02.14.04.28.05.41.01.14.03.28.03.42,0,.14.01.28.01.42,0,.86-.12,1.74-.35,2.65,0,.02-.01.04-.01.06-1.8,6.71-2.37,21.49.36,30.15,0,0,.64,1.93.73,4.47.12,3.73-.94,8.78-6.99,10.99-.15.06-.28.1-.41.14-.11.04-.21.07-.32.11-.18.06-.36.11-.54.16-.07.02-.14.04-.21.06.05-.05.1-.11.15-.16.13-.14.26-.29.39-.45.05-.06.09-.11.14-.17.08-.1.16-.19.24-.3,2.39-3.01,4.52-7.56,3.07-13.53-2.79-11.55-2.43-25.58-.24-29.95,1.93-3.84,2.16-8.7-2.65-11.82-.11-.07-.22-.14-.33-.21-.07-.04-.13-.08-.2-.12-.16-.1-.32-.18-.5-.27-.35-.19-.73-.36-1.13-.53-.16-.07-.27-.11-.36-.16Z"/>
                <path class="cls-16" d="M25.52,14.3c-3.53,2.92-11.1,12.2-11.4,31.88-.25,16.31,6.06,23.27,9.96,26-6.23-1.6-10.95-8.35-11.78-21.84-1.17-19.14,3.71-34.74,13.23-36.03Z"/>
                <path class="cls-26" d="M25.84,71.79c1.4.04,2.89-.33,3.84-1.36,1.27-1.39,1.21-3.6.46-5.34-.75-1.73-2.06-3.15-3.16-4.68-3.61-5.04-4.97-11.48-4.52-17.67s2.6-12.16,5.48-17.65c1.21-2.32,2.59-5.04,1.5-7.42-.91-1.99-3.42-2.91-5.54-2.42-2.12.49-3.84,2.15-4.9,4.06-1.06,1.91-3,5.24-3.44,7.39-2.47,12.18-3.61,21.77-.73,33.86,1.06,4.46,6.06,11.09,11,11.23Z"/>
              </g>
              <path class="cls-17" d="M38.8,25.79s-.01.04-.01.06c-1.8,6.71-2.37,21.49.36,30.15,0,0,.64,1.93.73,4.47-.13-.35-.28-.69-.46-1.02-2.67-4.83-5.46-25.23-1.94-30.89.53-.85.96-1.79,1.32-2.77Z"/>
            </g>
            <path class="cls-40" d="M38.73,66.55s-9.94-5.51-8.87-22.97,10.61-23.64,10.61-23.64l-1.75,46.61Z"/>
            <g>
              <g>
                <g>
                  <path class="cls-41" d="M54.38,70.23l2.31,2.54-.49.23-.79.36.44.92-.3.12-2.04.79-.6.23-.18-.59s-1.21.19-1.21.19l-.62.1.06-3.42.62-.27.29-.13.44-.19,1.03-.45.55-.24.12-.06.35-.15Z"/>
                  <polygon class="cls-13" points="51.62 70.18 51.89 71.31 52.71 74.83 51.54 75.02 51.6 71.43 51.62 70.18"/>
                  <polygon class="cls-13" points="53.62 69.89 54.03 70.38 56.2 72.99 55.42 73.35 53.91 70.43 53.62 69.89"/>
                  <polygon class="cls-5" points="52.62 69.43 53.36 70.67 55.56 74.39 53.52 75.18 52.33 71.12 51.92 69.69 52.62 69.43"/>
                </g>
                <g>
                  <path class="cls-41" d="M54.38,15.32l2.31-2.54-.49-.23-.79-.36.44-.92-.3-.12-2.04-.79-.6-.23-.18.59s-1.21-.19-1.21-.19l-.62-.1.06,3.42.62.27.29.13.44.19,1.03.45.55.24.12.06.35.15Z"/>
                  <polygon class="cls-13" points="51.62 15.36 51.89 14.24 52.71 10.72 51.54 10.52 51.6 14.11 51.62 15.36"/>
                  <polygon class="cls-13" points="53.62 15.65 54.03 15.17 56.2 12.56 55.42 12.19 53.91 15.11 53.62 15.65"/>
                  <polygon class="cls-11" points="52.62 16.11 53.36 14.87 55.56 11.15 53.52 10.36 52.33 14.43 51.92 15.85 52.62 16.11"/>
                </g>
                <path class="cls-37" d="M50.98,13.64c.21.01.41.02.61.04.14.01.28.02.42.04.04,0,.08,0,.12.01.13.01.26.03.39.05.11.02.2.03.29.05.27.04.54.09.79.15.08.01.15.03.23.05.12.03.21.05.31.08.08.02.16.04.24.07.09.02.18.05.26.07.04.01.07.02.11.04.13.04.26.08.39.13.15.05.25.09.35.13.19.07.36.15.54.23.14.06.28.13.41.19.32.16.62.33.9.51.08.05.17.11.25.16.12.08.24.16.35.25.1.07.19.15.29.22.14.12.28.23.41.36.08.07.16.16.24.23.11.11.2.21.29.31.09.1.17.19.25.29.11.13.19.23.26.34.06.08.12.16.17.24.25.37.47.76.66,1.16.05.11.1.23.15.34.05.12.1.25.14.37.04.12.07.22.1.32.01.04.03.08.04.12.03.11.06.22.09.34.03.13.06.25.08.38.03.16.05.3.07.43.02.14.04.28.05.41.01.14.03.28.03.42,0,.14.01.28.01.42,0,.86-.12,1.74-.35,2.65,0,.02-.01.04-.01.06-1.8,6.71-2.37,21.49.36,30.15,0,0,.64,1.93.73,4.47.12,3.73-.94,8.78-6.99,10.99-.15.06-.28.1-.41.14-.11.04-.21.07-.32.11-.18.06-.36.11-.54.16-.07.02-.14.04-.21.06-.35.1-.71.19-1.06.26-.16.04-.33.07-.5.1-.13.03-.27.05-.4.07-.2.04-.41.06-.61.09-1.16.14-2.29.14-3.39,0-.47-.06-.94-.15-1.4-.27-6.23-1.6-10.95-8.35-11.78-21.84-1.17-19.14,3.71-34.74,13.23-36.03.11-.02.23-.03.34-.04.04,0,.08,0,.12-.01,1.01-.1,1.97-.12,2.88-.07Z"/>
                <path class="cls-8" d="M52.13,13.74c.13.01.26.03.39.05.11.02.2.03.29.05.27.04.54.09.79.15.08.01.15.03.23.05.12.03.21.05.31.08.08.02.16.04.24.07.09.02.18.05.26.07.04.01.07.02.11.04.13.04.26.08.39.13.15.05.25.09.35.13.19.07.36.15.54.23.14.06.28.13.41.19.32.16.62.33.9.51.08.05.17.11.25.16.12.08.24.16.35.25.1.07.19.15.29.22.14.12.28.23.41.36.08.07.16.16.24.23.11.11.2.21.29.31.09.1.17.19.25.29.11.13.19.23.26.34.06.08.12.16.17.24.25.37.47.76.66,1.16.05.11.1.23.15.34.05.12.1.25.14.37.04.12.07.22.1.32.01.04.03.08.04.12.03.11.06.22.09.34.03.13.06.25.08.38.03.16.05.3.07.43.02.14.04.28.05.41.01.14.03.28.03.42,0,.14.01.28.01.42,0,.86-.12,1.74-.35,2.65,0,.02-.01.04-.01.06-1.8,6.71-2.37,21.49.36,30.15,0,0,.64,1.93.73,4.47.12,3.73-.94,8.78-6.99,10.99-.15.06-.28.1-.41.14-.11.04-.21.07-.32.11-.18.06-.36.11-.54.16-.07.02-.14.04-.21.06.05-.05.1-.11.15-.16.13-.14.26-.29.39-.45.05-.06.09-.11.14-.17.08-.1.16-.19.24-.3,2.39-3.01,4.52-7.56,3.07-13.53-2.79-11.55-2.43-25.58-.24-29.95,1.93-3.84,2.16-8.7-2.65-11.82-.11-.07-.22-.14-.33-.21-.07-.04-.13-.08-.2-.12-.16-.1-.32-.18-.5-.27-.35-.19-.73-.36-1.13-.53-.16-.07-.27-.11-.36-.16Z"/>
                <path class="cls-6" d="M47.64,13.77c-3.53,2.92-11.1,12.2-11.4,31.88-.25,16.31,6.06,23.27,9.96,26-6.23-1.6-10.95-8.35-11.78-21.84-1.17-19.14,3.71-34.74,13.23-36.03Z"/>
                <path class="cls-23" d="M47.97,71.25c1.4.04,2.89-.33,3.84-1.36,1.27-1.39,1.21-3.6.46-5.34-.75-1.73-2.06-3.15-3.16-4.68-3.61-5.04-4.97-11.48-4.52-17.67.45-6.19,2.6-12.16,5.48-17.65,1.21-2.32,2.59-5.04,1.5-7.42-.91-1.99-3.42-2.91-5.54-2.42-2.12.49-3.84,2.15-4.9,4.06s-3,5.24-3.44,7.39c-2.47,12.18-3.61,21.77-.73,33.86,1.06,4.46,6.06,11.09,11,11.23Z"/>
              </g>
              <path class="cls-17" d="M60.92,25.25s-.01.04-.01.06c-1.8,6.71-2.37,21.49.36,30.15,0,0,.64,1.93.73,4.47-.13-.35-.28-.69-.46-1.02-2.67-4.83-5.46-25.23-1.94-30.89.53-.85.96-1.79,1.32-2.77Z"/>
            </g>
            <path class="cls-40" d="M62.51,66.14s-9.94-5.51-8.87-22.97,10.61-23.64,10.61-23.64l-1.75,46.61Z"/>
            <g>
              <g>
                <g>
                  <path class="cls-41" d="M77.06,69.69l2.31,2.54-.49.23-.79.36.44.92-.3.12-2.04.79-.6.23-.18-.59s-1.21.19-1.21.19l-.62.1.06-3.42.62-.27.29-.13.44-.19,1.03-.45.55-.24.12-.06.35-.15Z"/>
                  <polygon class="cls-13" points="74.3 69.65 74.57 70.77 75.39 74.29 74.22 74.48 74.28 70.9 74.3 69.65"/>
                  <polygon class="cls-13" points="76.3 69.36 76.71 69.84 78.88 72.45 78.1 72.81 76.59 69.9 76.3 69.36"/>
                  <polygon class="cls-4" points="75.3 68.89 76.04 70.13 78.24 73.85 76.2 74.64 75.01 70.58 74.6 69.16 75.3 68.89"/>
                </g>
                <g>
                  <path class="cls-41" d="M77.06,14.78l2.31-2.54-.49-.23-.79-.36.44-.92-.3-.12-2.04-.79-.6-.23-.18.59s-1.21-.19-1.21-.19l-.62-.1.06,3.42.62.27.29.13.44.19,1.03.45.55.24.12.06.35.15Z"/>
                  <polygon class="cls-13" points="74.3 14.82 74.57 13.7 75.39 10.18 74.22 9.99 74.28 13.57 74.3 14.82"/>
                  <polygon class="cls-13" points="76.3 15.11 76.71 14.63 78.88 12.02 78.1 11.66 76.59 14.57 76.3 15.11"/>
                  <polygon class="cls-9" points="75.3 15.58 76.04 14.33 78.24 10.62 76.2 9.82 75.01 13.89 74.6 15.31 75.3 15.58"/>
                </g>
                <path class="cls-38" d="M73.66,13.1c.21.01.41.02.61.04.14.01.28.02.42.04.04,0,.08,0,.12.01.13.01.26.03.39.05.11.02.2.03.29.05.27.04.54.09.79.15.08.01.15.03.23.05.12.03.21.05.31.08.08.02.16.04.24.07.09.02.18.05.26.07.04.01.07.02.11.04.13.04.26.08.39.13.15.05.25.09.35.13.19.07.36.15.54.23.14.06.28.13.41.19.32.16.62.33.9.51.08.05.17.11.25.16.12.08.24.16.35.25.1.07.19.15.29.22.14.12.28.23.41.36.08.07.16.16.24.23.11.11.2.21.29.31.09.1.17.19.25.29.11.13.19.23.26.34.06.08.12.16.17.24.25.37.47.76.66,1.16.05.11.1.23.15.34.05.12.1.25.14.37.04.12.07.22.1.32.01.04.03.08.04.12.03.11.06.22.09.34.03.13.06.25.08.38.03.16.05.3.07.43.02.14.04.28.05.41.01.14.03.28.03.42,0,.14.01.28.01.42,0,.86-.12,1.74-.35,2.65,0,.02-.01.04-.01.06-1.8,6.71-2.37,21.49.36,30.15,0,0,.64,1.93.73,4.47.12,3.73-.94,8.78-6.99,10.99-.15.06-.28.1-.41.14-.11.04-.21.07-.32.11-.18.06-.36.11-.54.16-.07.02-.14.04-.21.06-.35.1-.71.19-1.06.26-.16.04-.33.07-.5.1-.13.03-.27.05-.4.07-.2.04-.41.06-.61.09-1.16.14-2.29.14-3.39,0-.47-.06-.94-.15-1.4-.27-6.23-1.6-10.95-8.35-11.78-21.84-1.17-19.14,3.71-34.74,13.23-36.03.11-.02.23-.03.34-.04.04,0,.08,0,.12-.01,1.01-.1,1.97-.12,2.88-.07Z"/>
                <path class="cls-2" d="M74.81,13.2c.13.01.26.03.39.05.11.02.2.03.29.05.27.04.54.09.79.15.08.01.15.03.23.05.12.03.21.05.31.08.08.02.16.04.24.07.09.02.18.05.26.07.04.01.07.02.11.04.13.04.26.08.39.13.15.05.25.09.35.13.19.07.36.15.54.23.14.06.28.13.41.19.32.16.62.33.9.51.08.05.17.11.25.16.12.08.24.16.35.25.1.07.19.15.29.22.14.12.28.23.41.36.08.07.16.16.24.23.11.11.2.21.29.31.09.1.17.19.25.29.11.13.19.23.26.34.06.08.12.16.17.24.25.37.47.76.66,1.16.05.11.1.23.15.34.05.12.1.25.14.37.04.12.07.22.1.32.01.04.03.08.04.12.03.11.06.22.09.34.03.13.06.25.08.38.03.16.05.3.07.43.02.14.04.28.05.41.01.14.03.28.03.42,0,.14.01.28.01.42,0,.86-.12,1.74-.35,2.65,0,.02-.01.04-.01.06-1.8,6.71-2.37,21.49.36,30.15,0,0,.64,1.93.73,4.47.12,3.73-.94,8.78-6.99,10.99-.15.06-.28.1-.41.14-.11.04-.21.07-.32.11-.18.06-.36.11-.54.16-.07.02-.14.04-.21.06.05-.05.1-.11.15-.16.13-.14.26-.29.39-.45.05-.06.09-.11.14-.17.08-.1.16-.19.24-.3,2.39-3.01,4.52-7.56,3.07-13.53-2.79-11.55-2.43-25.58-.24-29.95,1.93-3.84,2.16-8.7-2.65-11.82-.11-.07-.22-.14-.33-.21-.07-.04-.13-.08-.2-.12-.16-.1-.32-.18-.5-.27-.35-.19-.73-.36-1.13-.53-.16-.07-.27-.11-.36-.16Z"/>
                <path class="cls-10" d="M70.32,13.23c-3.53,2.92-11.1,12.2-11.4,31.88-.25,16.31,6.06,23.27,9.96,26-6.23-1.6-10.95-8.35-11.78-21.84-1.17-19.14,3.71-34.74,13.23-36.03Z"/>
                <path class="cls-28" d="M70.65,70.71c1.4.04,2.89-.33,3.84-1.36,1.27-1.39,1.21-3.6.46-5.34-.75-1.73-2.06-3.15-3.16-4.68-3.61-5.04-4.97-11.48-4.52-17.67.45-6.19,2.6-12.16,5.48-17.65,1.21-2.32,2.59-5.04,1.5-7.42-.91-1.99-3.42-2.91-5.54-2.42-2.12.49-3.84,2.15-4.9,4.06s-3,5.24-3.44,7.39c-2.47,12.18-3.61,21.77-.73,33.86,1.06,4.46,6.06,11.09,11,11.23Z"/>
              </g>
              <path class="cls-17" d="M83.6,24.71s-.01.04-.01.06c-1.8,6.71-2.37,21.49.36,30.15,0,0,.64,1.93.73,4.47-.13-.35-.28-.69-.46-1.02-2.67-4.83-5.46-25.23-1.94-30.89.53-.85.96-1.79,1.32-2.77Z"/>
            </g>
            <path class="cls-40" d="M84.94,66.55s-9.94-5.51-8.87-22.97c1.07-17.46,10.61-23.64,10.61-23.64l-1.75,46.61Z"/>
            <g>
              <g>
                <g>
                  <path class="cls-41" d="M99.74,70.49l2.31,2.54-.49.23-.79.36.44.92-.3.12-2.04.79-.6.23-.18-.59s-1.21.19-1.21.19l-.62.1.06-3.42.62-.27.29-.13.44-.19,1.03-.45.55-.24.12-.06.35-.15Z"/>
                  <polygon class="cls-13" points="96.98 70.45 97.25 71.58 98.07 75.1 96.9 75.29 96.96 71.7 96.98 70.45"/>
                  <polygon class="cls-13" points="98.98 70.16 99.39 70.65 101.56 73.26 100.78 73.62 99.26 70.7 98.98 70.16"/>
                  <polygon class="cls-22" points="97.98 69.7 98.72 70.94 100.92 74.66 98.88 75.45 97.69 71.39 97.28 69.96 97.98 69.7"/>
                </g>
                <g>
                  <path class="cls-41" d="M99.74,15.59l2.31-2.54-.49-.23-.79-.36.44-.92-.3-.12-2.04-.79-.6-.23-.18.59s-1.21-.19-1.21-.19l-.62-.1.06,3.42.62.27.29.13.44.19,1.03.45.55.24.12.06.35.15Z"/>
                  <polygon class="cls-13" points="96.98 15.63 97.25 14.5 98.07 10.98 96.9 10.79 96.96 14.38 96.98 15.63"/>
                  <polygon class="cls-13" points="98.98 15.92 99.39 15.43 101.56 12.82 100.78 12.46 99.26 15.38 98.98 15.92"/>
                  <polygon class="cls-12" points="97.98 16.38 98.72 15.14 100.92 11.42 98.88 10.63 97.69 14.69 97.28 16.12 97.98 16.38"/>
                </g>
                <path class="cls-31" d="M96.34,13.91c.21.01.41.02.61.04.14.01.28.02.42.04.04,0,.08,0,.12.01.13.01.26.03.39.05.11.02.2.03.29.05.27.04.54.09.79.15.08.01.15.03.23.05.12.03.21.05.31.08.08.02.16.04.24.07.09.02.18.05.26.07.04.01.07.02.11.04.13.04.26.08.39.13.15.05.25.09.35.13.19.07.36.15.54.23.14.06.28.13.41.19.32.16.62.33.9.51.08.05.17.11.25.16.12.08.24.16.35.25.1.07.19.15.29.22.14.12.28.23.41.36.08.07.16.16.24.23.11.11.2.21.29.31.09.1.17.19.25.29.11.13.19.23.26.34.06.08.12.16.17.24.25.37.47.76.66,1.16.05.11.1.23.15.34.05.12.1.25.14.37.04.12.07.22.1.32.01.04.03.08.04.12.03.11.06.22.09.34.03.13.06.25.08.38.03.16.05.3.07.43.02.14.04.28.05.41.01.14.03.28.03.42,0,.14.01.28.01.42,0,.86-.12,1.74-.35,2.65,0,.02-.01.04-.01.06-1.8,6.71-2.37,21.49.36,30.15,0,0,.64,1.93.73,4.47.12,3.73-.94,8.78-6.99,10.99-.15.06-.28.1-.41.14-.11.04-.21.07-.32.11-.18.06-.36.11-.54.16-.07.02-.14.04-.21.06-.35.1-.71.19-1.06.26-.16.04-.33.07-.5.1-.13.03-.27.05-.4.07-.2.04-.41.06-.61.09-1.16.14-2.29.14-3.39,0-.47-.06-.94-.15-1.4-.27-6.23-1.6-10.95-8.35-11.78-21.84-1.17-19.14,3.71-34.74,13.23-36.03.11-.02.23-.03.34-.04.04,0,.08,0,.12-.01,1.01-.1,1.97-.12,2.88-.07Z"/>
                <path class="cls-14" d="M97.49,14c.13.01.26.03.39.05.11.02.2.03.29.05.27.04.54.09.79.15.08.01.15.03.23.05.12.03.21.05.31.08.08.02.16.04.24.07.09.02.18.05.26.07.04.01.07.02.11.04.13.04.26.08.39.13.15.05.25.09.35.13.19.07.36.15.54.23.14.06.28.13.41.19.32.16.62.33.9.51.08.05.17.11.25.16.12.08.24.16.35.25.1.07.19.15.29.22.14.12.28.23.41.36.08.07.16.16.24.23.11.11.2.21.29.31.09.1.17.19.25.29.11.13.19.23.26.34.06.08.12.16.17.24.25.37.47.76.66,1.16.05.11.1.23.15.34.05.12.1.25.14.37.04.12.07.22.1.32.01.04.03.08.04.12.03.11.06.22.09.34.03.13.06.25.08.38.03.16.05.3.07.43.02.14.04.28.05.41.01.14.03.28.03.42,0,.14.01.28.01.42,0,.86-.12,1.74-.35,2.65,0,.02-.01.04-.01.06-1.8,6.71-2.37,21.49.36,30.15,0,0,.64,1.93.73,4.47.12,3.73-.94,8.78-6.99,10.99-.15.06-.28.1-.41.14-.11.04-.21.07-.32.11-.18.06-.36.11-.54.16-.07.02-.14.04-.21.06.05-.05.1-.11.15-.16.13-.14.26-.29.39-.45.05-.06.09-.11.14-.17.08-.1.16-.19.24-.3,2.39-3.01,4.52-7.56,3.07-13.53-2.79-11.55-2.43-25.58-.24-29.95,1.93-3.84,2.16-8.7-2.65-11.82-.11-.07-.22-.14-.33-.21-.07-.04-.13-.08-.2-.12-.16-.1-.32-.18-.5-.27-.35-.19-.73-.36-1.13-.53-.16-.07-.27-.11-.36-.16Z"/>
                <path class="cls-18" d="M93,14.04c-3.53,2.92-11.1,12.2-11.4,31.88-.25,16.31,6.06,23.27,9.96,26-6.23-1.6-10.95-8.35-11.78-21.84-1.17-19.14,3.71-34.74,13.23-36.03Z"/>
                <path class="cls-25" d="M93.33,71.52c1.4.04,2.89-.33,3.84-1.36,1.27-1.39,1.21-3.6.46-5.34-.75-1.73-2.06-3.15-3.16-4.68-3.61-5.04-4.97-11.48-4.52-17.67s2.6-12.16,5.48-17.65c1.21-2.32,2.59-5.04,1.5-7.42-.91-1.99-3.42-2.91-5.54-2.42-2.12.49-3.84,2.15-4.9,4.06s-3,5.24-3.44,7.39c-2.47,12.18-3.61,21.77-.73,33.86,1.06,4.46,6.06,11.09,11,11.23Z"/>
              </g>
              <path class="cls-17" d="M106.28,25.52s-.01.04-.01.06c-1.8,6.71-2.37,21.49.36,30.15,0,0,.64,1.93.73,4.47-.13-.35-.28-.69-.46-1.02-2.67-4.83-5.46-25.23-1.94-30.89.53-.85.96-1.79,1.32-2.77Z"/>
            </g>
          </g>
          <path class="cls-17" d="M83.91,21.22c-.01-.14-.03-.28-.05-.41-.02-.13-.04-.27-.07-.43-.03-.13-.05-.25-.08-.38-.03-.11-.05-.23-.09-.34-.01-.04-.02-.08-.04-.12-.03-.1-.06-.2-.1-.32-.04-.12-.09-.25-.14-.37-.04-.12-.09-.23-.15-.34-.19-.41-.4-.8-.66-1.16-.05-.08-.11-.16-.17-.24-.08-.11-.16-.21-.26-.34-.08-.1-.16-.19-.25-.29-.09-.1-.18-.2-.29-.31-.08-.08-.16-.16-.24-.23-.13-.12-.27-.24-.41-.36-.09-.07-.19-.15-.29-.22-.11-.09-.23-.17-.35-.25-.08-.06-.17-.11-.25-.16-.28-.18-.59-.35-.9-.51-.13-.07-.27-.13-.41-.19-.17-.08-.35-.16-.54-.23-.09-.03-.18-.07-.3-.11l1.5-1.65-.49-.23-.79-.36.44-.92-.3-.12-2.04-.79-.6-.23-.18.59s-1.21-.19-1.21-.19l-.62-.1.06,3.21c-.91-.05-1.86-.02-2.88.07-.04,0-.08,0-.12.01-.11.01-.23.02-.34.04-3.85.52-6.94,3.39-9.17,7.87-.01-.06-.02-.12-.03-.19-.03-.13-.05-.25-.08-.38-.03-.11-.05-.23-.09-.34-.01-.04-.02-.08-.04-.12-.03-.1-.06-.2-.1-.32-.04-.12-.09-.25-.14-.37-.04-.12-.09-.23-.15-.34-.19-.41-.4-.8-.66-1.16-.05-.08-.11-.16-.17-.24-.08-.11-.16-.21-.26-.34-.08-.1-.16-.19-.25-.29-.09-.1-.18-.2-.29-.31-.08-.08-.16-.16-.24-.23-.13-.12-.27-.24-.41-.36-.09-.07-.19-.15-.29-.22-.11-.09-.23-.17-.35-.25-.08-.06-.17-.11-.25-.16-.28-.18-.59-.35-.9-.51-.13-.07-.27-.13-.41-.19-.17-.08-.35-.16-.54-.23-.09-.03-.18-.07-.3-.11l1.5-1.65-.49-.23-.79-.36.44-.92-.3-.12-2.04-.79-.6-.23-.18.59s-1.21-.19-1.21-.19l-.62-.1.06,3.21c-.91-.05-1.86-.02-2.88.07-.04,0-.08,0-.12.01-.11.01-.23.02-.34.04-3.63.49-6.58,3.07-8.78,7.13-.01-.05-.02-.1-.04-.15-.01-.04-.02-.08-.04-.12-.03-.1-.06-.2-.1-.32-.04-.12-.09-.25-.14-.37-.04-.12-.09-.23-.15-.34-.19-.41-.4-.8-.66-1.16-.05-.08-.11-.16-.17-.24-.08-.11-.16-.21-.26-.34-.08-.1-.16-.19-.25-.29-.09-.1-.18-.2-.29-.31-.08-.08-.16-.16-.24-.23-.13-.12-.27-.24-.41-.36-.09-.07-.19-.15-.29-.22-.11-.09-.23-.17-.35-.25-.08-.06-.17-.11-.25-.16-.28-.18-.59-.35-.9-.51-.13-.07-.27-.13-.41-.19-.17-.08-.35-.16-.54-.23-.09-.03-.18-.07-.3-.11l1.5-1.65-.49-.23-.79-.36.44-.92-.3-.12-2.04-.79-.6-.23-.18.59s-1.21-.19-1.21-.19l-.62-.1.06,3.21c-.91-.05-1.86-.02-2.88.07-.04,0-.08,0-.12.01-.11.01-.23.02-.34.04-9.52,1.3-14.39,16.9-13.23,36.03.83,13.5,5.54,20.25,11.78,21.84.46.12.92.21,1.4.27,1.1.14,2.23.14,3.39,0l-.06,3.2.62-.1s1.18-.19,1.21-.19l.18.59.6-.23,2.04-.79.3-.12-.44-.92.79-.36.49-.23-1.67-1.84c3.02-1.11,4.8-2.93,5.81-4.93.02.01.03.02.03.02v-.1c.05-.1.1-.21.14-.31,1.98,2.99,4.49,4.79,7.32,5.51.46.12.92.21,1.4.27,1.1.14,2.23.14,3.39,0l-.06,3.2.62-.1s1.18-.19,1.21-.19l.18.59.6-.23,2.04-.79.3-.12-.44-.92.79-.36.49-.23-1.67-1.84c3.42-1.25,5.25-3.42,6.17-5.74.08.07.16.13.24.19,2,3.12,4.56,4.99,7.45,5.73.46.12.92.21,1.4.27,1.1.14,2.23.14,3.39,0l-.06,3.2.62-.1s1.18-.19,1.21-.19l.18.59.6-.23,2.04-.79.3-.12-.44-.92.79-.36.49-.23-1.67-1.84c3.01-1.1,4.78-2.91,5.79-4.9.12.1.24.2.35.29,2.04,3.37,4.7,5.37,7.72,6.14.46.12.92.21,1.4.27,1.1.14,2.23.14,3.39,0l-.06,3.2.62-.1s1.18-.19,1.21-.19l.18.59.6-.23,2.04-.79.3-.12-.44-.92.79-.36.49-.23-1.67-1.84c6.04-2.21,7.11-7.26,6.99-10.99-.09-2.54-.73-4.47-.73-4.47-2.73-8.67-2.16-23.44-.36-30.15,0-.02.01-.04.01-.06.24-.91.35-1.8.35-2.65,0-.14,0-.28-.01-.42,0-.14-.01-.28-.03-.42-.01-.14-.03-.28-.05-.41-.02-.13-.04-.27-.07-.43-.03-.13-.05-.25-.08-.38-.03-.11-.05-.23-.09-.34-.01-.04-.02-.08-.04-.12-.03-.1-.06-.2-.1-.32-.04-.12-.09-.25-.14-.37-.04-.12-.09-.23-.15-.34-.19-.41-.4-.8-.66-1.16-.05-.08-.11-.16-.17-.24-.08-.11-.16-.21-.26-.34-.08-.1-.16-.19-.25-.29-.09-.1-.18-.2-.29-.31-.08-.08-.16-.16-.24-.23-.13-.12-.27-.24-.41-.36-.09-.07-.19-.15-.29-.22-.11-.09-.23-.17-.35-.25-.08-.06-.17-.11-.25-.16-.28-.18-.59-.35-.9-.51-.13-.07-.27-.13-.41-.19-.17-.08-.35-.16-.54-.23-.09-.03-.18-.07-.3-.11l1.5-1.65-.49-.23-.79-.36.44-.92-.3-.12-2.04-.79-.6-.23-.18.59s-1.21-.19-1.21-.19l-.62-.1.06,3.21c-.91-.05-1.86-.02-2.88.07-.04,0-.08,0-.12.01-.11.01-.23.02-.34.04-3.78.52-6.83,3.3-9.06,7.65,0-.02,0-.03,0-.05,0-.14-.01-.28-.03-.42Z"/>
          <g>
            <path class="cls-27" d="M16.34,0h87.31c3.94,0,7.55,1.4,10.37,3.72,2.04,1.68,3.66,3.83,4.7,6.3.83,1.95,1.28,4.08,1.28,6.33v53.28c0,9.03-7.32,16.34-16.34,16.34H16.34c-9.03,0-16.34-7.32-16.34-16.34V16.34c0-2.47.55-4.8,1.53-6.9.86-1.85,2.05-3.5,3.5-4.89C7.97,1.73,11.95,0,16.34,0Z"/>
            <g>
              <polygon class="cls-24" points="114.9 80.06 65.91 59.82 66.27 37.97 114.9 80.06"/>
              <polygon class="cls-7" points="115.43 79.25 70.41 32.44 77.02 25.79 115.43 79.25"/>
              <polygon class="cls-20" points="4.21 80.33 53.11 52.92 44.51 41.64 2.87 78.58 4.21 80.33"/>
              <path class="cls-35" d="M114.03,3.72c2.04,1.68,3.66,3.83,4.7,6.3-14,8.34-57.82,37.98-57.82,37.98l-7.88-21.13L114.03,3.72Z"/>
              <polygon class="cls-29" points="47.82 51.94 62.87 50.6 61.5 85.97 55.87 85.97 47.82 51.94"/>
              <path class="cls-1" d="M5.03,4.56l40.82,29.11-4.66,30.81L1.53,9.45c.86-1.85,2.05-3.5,3.5-4.89Z"/>
              <polygon class="cls-15" points="6.09 3.49 66.54 25.25 57.8 36.3 6.09 3.49"/>
            </g>
          </g>
        </g>
      </g>
    </g>
  </g>
</svg>