<?xml version="1.0" encoding="UTF-8"?>
<svg id="Layer_2" data-name="Layer 2" xmlns="http://www.w3.org/2000/svg" viewBox="0 0 119.77 119.32">
  <defs>
    <style>
      .cls-1 {
        fill: #f59494;
      }

      .cls-2 {
        fill: #e8b565;
      }

      .cls-3 {
        fill: #f27b7b;
      }

      .cls-4 {
        fill: #f17b7b;
      }

      .cls-5 {
        fill: #fac46d;
      }

      .cls-6 {
        fill: #f69494;
      }
    </style>
  </defs>
  <g id="Layer_1-2" data-name="Layer 1">
    <g>
      <path d="M71.35,20.6c-.1.08-.2.14-.31.15-1.81.28.03-4.15.68-4.83-.84-.22-1.28-.61-1.3-1.17l-.51.25c-.2-.17-1.27-.84-1.36-.67-1.44,3.3-3.24,6.33-5.38,9.07,0,.91-.38,1.82-1.17,2.74,1.21-.81,2.35-1.73,3.41-2.75.96-.92,3.57-1.45,3.37.24,0,.51.51.99.11,1.87-.44.96-3.7,2.95-3.83,3.44-.08.31.8,2.28.88,3.02.28,2.4-.2,4.66-1.42,6.72-.21.35-.81.75-.86,1.01-.06.31.95,1.61,1.08,2.36.45,2.65-.17,4.45-2.17,6.14-.31.27-1.06.48-1.18.69-.12.19.25,3.08-.23,4.45-.37,1.04-2.13,2.75-2.17,2.96-.07.36.56,1.51.63,2.09.3,2.26-.62,4.39-2.33,5.82-.64.53-1.19.05-.92,1.53.39-.08,1.67.13,1.85-.03.1-.09.64-1.86,1-2.39.54-.8,1.66-1.74,2.54-2.14.53-.24,2.14-.52,2.29-.63.13-.1.56-1.69.79-2.13.73-1.39,2.06-2.46,3.47-3.08.45-.2,1.59-.34,1.76-.58.15-.21.41-1.95.69-2.58.64-1.41,1.98-2.54,3.38-3.17.49-.22,2.01-.52,2.08-.61.07-.09.25-1.68.45-2.23.57-1.53,2.04-3.09,3.55-3.7.67-.27,2.52-.47,2.75-.64.08-.06.68-1.32,1-1.7,1.48-1.75,3.76-2.97,6.07-2.46,1.59-4.83,3.4-10.72,6.8-14.61,3.81-4.36,5.87-.73,9.03,1.96,2.13-1.46,3.5-4.41,6.56-3.07.76.33,4.17,3.48,4.88,4.25,2.82,3.06-.3,5.16-1.98,7.58,1.42,1.72,3.5,2.69,4.43,4.83v1.64c-.84,1.77-2.56,3.24-4.13,4.4-3.19,2.35-6.9,3.82-10.5,5.41.53,2.77-.25,5.64-1.99,7.84-.39.5-2.27,2-2.31,2.15-.07.23.3,2.44.21,3.24-.15,1.35-1.25,2.95-2.35,3.73-.67.47-2.68.97-2.76,1.1-.06.1-.18,1.72-.39,2.3-.55,1.57-2.4,3.5-4.07,3.77.57,3.42-.86,5.98-4,7.35-.27.12-.75.04-.89.16-.2.16-.25,1.63-.39,2.07-.38,1.15-1.48,2.67-2.48,3.37-.45.32-1.8.77-1.98,1.06-.29.47-.04,2.21-.22,3.06-.32,1.55-1.86,3.29-3.25,4.01-.6.31-2.11.63-2.22.7-.18.13-.83,2.89-1.8,3.94-.8.88-3.05,1.73-3.16,1.88-.06.07.26.91.25,1.27-.09,4.01-3.47,7.35-7.42,7.59-.39.02-1.19-.26-1.25-.22-.1.07-.3,1.68-1.04,2.12-.63.38-1.01.13-1.54.22-1.44.39-1.64-1.52-1.54-2.64.16-1.84,1.33-4.1,3.5-3.84,2.51,1.04,5.31-.84,5.24-3.54-.95-2.91.25-4.36,3.12-5,.67-.29,1.15-.87,1.39-1.56-.03-1.95.7-3.22,2.18-3.82,1.95-.34,3.99-.77,3.7-3.14-.89-3.31.48-4.44,3.4-5.19,1.4-.62,1.43-1.94,1.3-3.31.12-1.95,1.66-2.85,3.48-2.91.98-.23,1.67-.88,1.6-1.97-.63-3.15-.18-4.77,3.05-5.45.66-.31,1.12-.82,1.28-1.54-.01-3.43,1.01-4.63,4.38-5,1.49-.62.93-2.58.31-3.7-.32-2.1.79-3.06,2.59-3.85,2.29-1.72,3.49-5.63.38-7.11l-.05-.52c-3.23-2.06-6.27-4.38-9.14-6.96-2.24-.62-3.47.71-4.03,2.8-.36.65-.94,1.1-1.67,1.27-3.25-.07-4.54,1.12-4.45,4.41-.31,1.16-1.16,1.96-2.36,2.16-1.68-.1-2.82.46-3.41,1.69-.32,3.35-.67,4.7-4.39,4.98-.72.21-1.38.69-1.65,1.41-.34,3.08-1.36,4.18-4.52,4.29-.64.17-1.18.61-1.44,1.24-.63,3.22-1.84,4.15-5.03,3.8-.72.13-1.38.52-1.77,1.15-1.05,3.22-2.57,3.62-5.68,2.81-.83.03-1.68.38-2.13,1.12-.91,2.86-2.44,3.15-5.18,2.97-.79.18-1.47.7-1.76,1.47-.23,1.94-1.08,3.12-2.56,3.52-1.73.01-3.57.1-4.23,1.97.19,3.07-.94,4.19-3.66,5.13-2.69,1.59-1.8,4.34.02,6.32.45.8.52,1.71.12,2.57-1.39,1.99-2.57,4.58-.12,6.26,2.87,1.29,3.04,2.84,2.63,5.75.29.68.36,1.26.19,1.73l.82.3c.87,1,2.16,1.32,3.43.98,2.76-1.68,4.07-.89,6.3,1.21,2.55,1.14,4.07-.58,5.33-2.58.61-.74,1.59-1.24,2.56-1.09,1.13.17,5.56,2.12,4.03,3.52-.14,2.95-3.45.82-4.06.92-.12.02-1.11,1.41-1.55,1.78-2.67,2.22-6.02,2.26-8.97.54-.37-.22-.71-.78-1.02-.86-.37-.09-2.18.63-2.99.68-3.65.2-7.15-2.24-7.85-5.86-1.45.79-3.12,1.1-4.77.91-.76-.09-2.05-.74-2.59-.68-.25.03-1.52.98-2.07,1.22-4.18,1.83-8.39-.16-10.16-4.19-.2-.45-.35-1.7-.57-1.88-.18-.15-2.04-.69-2.73-1.13-1.67-1.06-3.03-3.16-3.27-5.15-.13-1.07.33-3.12.17-3.66-.14-.47-1.53-1.48-1.94-2.06-1.92-2.72-1.67-6.39.34-8.99.31-.4,1.4-1.24,1.5-1.51.14-.36-.34-1.55-.32-2.2.05-1.51,1.12-3.76,2.24-4.79.6-.55,2.53-1.35,2.61-1.48.06-.1.23-1.77.39-2.3.39-1.31,1.16-2.52,2.24-3.37.65-.51,2.63-1.25,2.73-1.36.15-.17.44-1.59.64-2.05.93-2.08,3.37-3.88,5.72-3.76.14-1.96,1.17-3.72,2.74-4.86.5-.36,2.24-1.09,2.31-1.2.24-.36.03-1.19.16-1.71.38-1.54,1.16-2.91,2.4-3.91.33-.27,1.63-.86,1.7-.98.19-.32,0-1.92.11-2.59.18-1.1,1.21-2.6,2.05-3.33.45-.4,1.78-.99,1.85-1.08.15-.2-.23-1.43-.21-1.95.05-1.71,1.05-3.8,2.34-4.93.45-.4,1.78-.99,1.85-1.08.09-.13-.24-1.81-.18-2.4.16-1.76,1.35-3.9,2.8-4.92.49-.35,1.72-.71,1.96-1.08.35-.53.43-2.01,1.02-2.96,1.08-1.74,2.78-2.61,4.61-3.34.22-5.21.16-11.6,2.57-16.37s5.85-1.03,9.23,0C59.75,2.93,60.56,0,63.28,0c.93,0,6.53,2.64,7.25,3.29,2.32,2.07.23,4.9-.57,7.11,2.83,2.02,7.42,2.39,5.56,7.01-.58,1.45-2.22,4.58-4.18,3.19Z"/>
      <path class="cls-2" d="M99.42,48.67c1.1.92,2.17.92,2.34,2.69.2,2.08-.72,4.11-2.4,5.32-.96.69-1.83.56-2.29,1.92-.57,1.71.34,1.72.48,3.05.4,3.75-2.85,2.29-4.34,3.62-1.6,1.43.16,4.04-2.28,5.44-.88.5-2.23.5-2.85,1.36-1.23,1.69,1.35,4.86-1.66,6.05-1.12.45-1.82,0-2.79.95-1.57,1.54.03,2.93-1.27,4.58-1.08,1.37-3.12,1.06-3.95,2.13-1.35,1.73.87,3.85-.96,5.82-1.37,1.47-4.18.44-4.81,2.68-.31,1.11-.01,1.81-.81,2.93-1.11,1.56-2.97,1.05-3.86,2.23-1.09,1.45-.06,2.42-.17,3.79-.17,2.07-2.18,3.9-4.24,3.84-1.14-.03-1.67-.74-2.94,0-1.43.81-2.48,4.88-.49,5.71-.95.17-2.82,2.55-4.44,2.11.03-.59-.23-1.16-.71-1.52-.24-.18-3.12-1.52-3.39-1.54-2.99-.22-2.53,3.85-6.08,4.01-2.97.13-3.1-2.18-5.03-2.5-1.19-.19-2.1.84-3.22,1.02-1.75.29-3.08-.36-4.04-1.82l.68-.46c2.39-.21,4.71-.68,6.98-1.41l.59.29c1.47,2.44,5.75,3.69,6.78.36.17-1.32.68-2.06,1.51-2.19,5.11,2.79,7.8,1.14,7.7-4.59l.4-.52c4.99.55,7.42-1.02,6.49-6.26l.19-.46c3.36-1.41,5.48-2.42,5.54-6.54.29-1.32,1.28-1.37,2.41-1.42,3.3-1.15,3.63-2.98,3.13-6.23-.05-.61.18-1.06.81-1.15,3.06.2,3.65-1.26,3.42-4.05.03-.5.3-.85.77-1,2.55-.13,4.54-1.58,4.97-4.13-.73-2.85-.71-3.38,2.22-4.12,1.89-1.11,2.12-3.03,2.32-5.02.09-.53.37-.93.9-1.06,3.67.07,4.74-3.22,3.21-6.11l.08-.77c2.3-1.64,3.98-3.63,4.51-6.56l.57-.45Z"/>
      <path class="cls-3" d="M70.42,14.76c.69.33,1.35.77,2.1.94-.64,1.29-2.92,3.67-1.17,4.91-.4.86-2.58,2.21-2.57,3.04-2.17-2.47-5.15,2.94-6.85,2.98-.11,0-.66-.18-.63-.29.58-.99,1.3-1.94,1.87-2.93,1.89-1.96,3.8-4.18,5.72-6.67.36-.92.87-1.58,1.53-1.98Z"/>
      <path class="cls-5" d="M99.42,48.67c-.44,2.4-1.42,4.58-3.27,6.21-.39.34-1.26.6-1.38.97-.26.77.42,1.46.57,2.17.34,1.59-.32,3.73-1.84,4.51-.86.44-2.22.3-2.64.63s-.36,2.38-.68,3.29c-.37,1.05-1.25,2.16-2.24,2.67-.5.26-2.03.57-2.22.83-.34.49.44,2.02.36,2.91-.15,1.54-1.59,3.43-3.03,4-.79.32-2.26.28-2.6.68-.31.37.08,2.16-.32,3.18-.93,2.37-3.6,1.3-4,1.85-.13,1.23.29,2.34.11,3.62-.24,1.75-1.85,3.07-3.47,3.54-1.1.32-1.87-.33-2.25,1.26s-.03,2.53-1.28,4.1c-1.18,1.49-4.17,2.21-4.32,2.46-.35.58.19,2.33.06,3.34-.48,3.61-3.95,3.92-6.92,3.49-.48.3.17,4.36-1.79,5.82-2.21,1.64-4.62.21-6.76-.69-.68.21-.52,3.66-2.89,4.14-1.69.35-3.1-.03-4.39-1.12-.51-.43-.93-1.33-1.42-1.41-.55-.09-2.89.94-3.8,1.12-1.23.24-2.54.33-3.8.3-1.48-2.24.05-3.44-.73-5.24-.66-1.51-3.36-1.46-3.9-4.05-.7-3.38,2.89-4.27,1.32-6.93-1-1.68-1.92-1.61-1.61-4.25.39-3.24,3.95-2.64,4.89-4.47.77-1.5-.45-2.93,1.43-4.42,1.64-1.3,2.97-.39,4.3-1.08,1.5-.77.75-2.98,2.37-4.18,1.78-1.32,3.12.04,4.65-.97,1.19-.78.86-2.54,2.51-3.34,2.11-1.02,3.16.52,4.79-.13s1.16-2.68,2.83-3.72c1.4-.87,2.3-.3,3.69-.52,2.07-.32,1.43-3.02,2.73-4.29,1.42-1.39,3.17-.32,4.43-1.66,1.06-1.13.31-2.76,1.62-3.99,1.41-1.33,3.44-.67,4.37-1.59,1.36-1.34.11-3.43,1.74-4.93s3.42-.14,4.66-1.89c1.01-1.44-.17-2.84,1.39-4.45s3.13-.55,4.44-1.4c1-.64.97-1.85,1.54-2.67.82-1.19,2.52-1.56,3.84-1.05,3,2.41,5.96,4.87,8.9,7.36Z"/>
      <path class="cls-5" d="M59.19,29.49c.87.88.36,3.17.05,4.4-.4,1.58-1.1,2.77-2.19,3.93,2.94,3.25,2.25,6.57-1.69,8.4,1.23,3.33.03,5.79-2.73,7.76,2.44,3.54.71,7.24-3.03,8.79,1.16,2.09,1.03,6.26-2.35,4.86-3.69-.13-4.75.97-6.26,4.22l-.77.23c-3.48-.58-5.73,1.26-6.44,4.67-.67.94-1.75,1.27-3.21,1-3.27.54-3.89,3.62-4.13,6.47-.16.27-3.02,1.42-3.28.7l-.34-.44c.35-6.63-9.71-7.76-11.25-1.04-.38,1.67,1.36,2.38,2.21,1,2.13-4.58,5.38-3.65,7.32.41.64.12,1.17.3,1.58.53l.23.53c-2.61,3.13-2.36,6.22.3,9.18.26.42.23.88-.03,1.29-2.92,3.04-2.04,7.92,1.86,9.66,2.02,1.44.23,2.7-1.58,1.71l-2.44-1.08-3.44,2.12c-1.26.91-2.44,1.14-3.55.69-1.82-1.79-.9-3.12-1.98-4.45-1.22-1.51-3.55-.48-5-2.95s.57-3.91.09-5.7c-.45-1.68-2.82-1.85-3.44-4.05-1.14-4.04,2.79-4.39,3.22-6.46.3-1.46-1.16-2.55-.11-4.54s4.33-1.11,4.61-3.83c.12-1.2-.54-1.47.27-2.98,1.08-2,3.24-1.24,4.34-2.67.93-1.22.19-2.52,1.5-3.88,1.15-1.19,1.75-.62,3.11-.86,3.18-.56,1.58-3.32,2.98-4.98,1.2-1.42,3.38-.79,4.18-2.37.61-1.2-.04-2.55.54-3.91.67-1.57,1.72-1.33,2.85-2.06,1.88-1.22.94-2.35,1.08-4.07.25-3.1,3.32-2.35,4.04-4.14.77-1.88-1.1-3.23.45-5.4.9-1.26,2.91-1.08,3.52-2.32.93-1.86-.84-2.96.09-5.06s2.87-1.41,3.93-2.62c.85-.97.44-1.96.71-3.03.34-1.33,1.89-2.33,3.23-2.28,3.67,1.5,7.31,3.02,10.93,4.63Z"/>
      <path class="cls-2" d="M59.19,29.49c.59.26,1.76.34,2.33.83,1.33,1.14,1.09,4.52.36,5.96-.88,1.76-3.02,1.95-1.97,4.54.54,1.32,1.69,1.25,1.37,3.28s-3.08,1.52-3.63,3.64c-.28,1.07.27,1.5.36,2.46.38,3.73-2.69,3.01-3.03,5.16s1.52,2.58,1.1,4.61c-.44,2.14-3.02,1.64-3.58,3.43s1.16,2.41.09,4.77-1.66,1.33-3.75,1.62c-1.3.18-3.06,1.17-3.92,2.17-.35.4-.89,1.66-.98,1.71-.25.15-1.03-.02-1.46.06-2.03.39-3.57,1.23-4.78,2.94-.37.52-.93,2.06-1.03,2.13-.2.15-2.2.39-2.92.7-1.54.68-2.92,2.2-3.46,3.79-.22.65-.28,2.01-.47,2.33-.17.3-1.53.75-1.98,1.07-2.77,1.97-3.74,5.55-2.7,8.75.17.53,1.27,2.24,1.24,2.42-.03.21-.56.76-.71,1.17-.87,2.36-.99,4.4.15,6.72.55,1.11,1.5,1.77,2.12,2.8-2.9,2.82-5.06-1.49-7.83.37-1.11.74-1.18,1.59-2.94,1.74-1.54.13-2.15-.18-3.16-1.17.86,0,1.72-.34,2.5-.66.94-.39,4.15-2.59,4.42-2.62.7-.07,4.26,2.39,4.55,1.05.12-.55-1.63-1.29-2.08-1.65-2.77-2.22-3.07-5.57-1.39-8.6.29-.52.98-.74.91-1.43-.03-.28-1.61-2.15-1.93-3.01s-.49-1.67-.42-2.61c.13-1.94,1.31-3.2,2.11-4.57-.49-.52-.14-.85.47-.47l2.94-.92c.04-2.29.47-4.58,2.46-5.96,1.76-1.23,2.43-.52,4.07-.84.99-.19,1.01-1.99,1.52-2.93.59-1.07,2.19-2.48,3.41-2.67.81-.13,2.6.2,3.15-.13.33-.2.48-1.18.74-1.6,1.33-2.21,3.12-2.95,5.69-2.73,1.37.12,2.09,1.18,2.58-1.15.36-1.7-.7-2.84-.57-3.36.15-.58,2-1.11,2.67-1.79.99-1.01,1.68-2.86,1.46-4.28-.14-.88-1.17-2.09-1.13-2.62s1.87-1.65,2.35-2.35c1.17-1.7.96-3.75.27-5.59,1.59-1.23,3.36-1.4,3.61-3.89.22-2.23-1.78-3.76-1.79-4.33,0-.28,1.1-1.43,1.37-1.92,1.05-1.86,1.26-4.29,1.22-6.39Z"/>
      <path class="cls-6" d="M112.99,27.15c-.11.33-.23.65-.39.96s-.3.6-.51.86c-4.12,5.02-8.71,9.88-13.45,14.17l-.62-.31c-.55-.43-1.08-.87-1.63-1.29,4.6-5.66,9.48-11.1,14.65-16.24.45-.08,1.6,1.5,1.96,1.85Z"/>
      <path class="cls-6" d="M65.74,4.7c.04.59,0,1.18-.16,1.75-1.29,4.49-4.54,10.44-6.9,14.65-.61,1.08-1.24,2.15-1.92,3.16l-.84-.15c-.49-.21-1.09-.39-1.62-.48-.09-.39.05-.75.15-1.11.69-2.54,2.89-6.71,4.08-9.25,1.54-3.28,3.26-6.55,4.99-9.72.72.42,1.48.77,2.23,1.15Z"/>
      <path class="cls-3" d="M55.91,24.11c.58.04.59-.36.82-.7,1.21-1.79,2.51-4.36,3.51-6.32,2.05-4.01,3.93-8.18,5.49-12.4.38.19,2.3,1.05,2.32,1.28-3.08,6.39-6.32,12.72-9.92,18.84-.36.42-1.74-.51-2.22-.71Z"/>
      <path class="cls-3" d="M98.02,42.83c.46,0,.65-.31.94-.58,5.06-4.66,9.66-9.78,14.03-15.09.28.28,1.87,1.57,1.87,1.75-3.56,3.52-6.82,7.38-10.4,10.88-.87.85-3.29,3.3-4.11,3.84-1.19.78-1.42-.09-2.33-.8Z"/>
      <path class="cls-3" d="M105.27,44c2.77-1.47,5.89-3.32,8.36-5.55l.99-.29c.29.31,1.47,1.03,1.39,1.49-2.36,2.49-5.66,4.34-8.79,5.73-.77.34-3.41,1.52-4.05,1.57-.29.02-.71-.38-.71-.48,0-.24,2.4-2.08,2.8-2.46Z"/>
      <path class="cls-4" d="M102.23,26.45c.45.42,1.01.78,1.4,1.29l-9.82,11.47c-.32.24-.53.21-.47-.24.17-1.36,1.14-3.47,1.64-4.8.27.05.32.24.14.19-.53-.13,5.54-7.32,7.11-7.91Z"/>
      <path class="cls-4" d="M55.21,7.27c.52.28,1.05.57,1.62.72l-.03.51-5.81,13.51c-.33.35-.42-.02-.47-.35-.14-1.11-.04-2.91,0-4.1,1.02-3.5,2.4-6.91,4.14-10.24l.54-.06Z"/>
      <path class="cls-1" d="M55.21,7.27l-4.68,10.29c.12-3.77.58-8.15,2.45-11.44.72.43,1.49.76,2.23,1.15Z"/>
      <path class="cls-1" d="M102.23,26.45c-2.34,2.54-4.54,5.2-6.82,7.8-.32.37-.46.74-.43-.08,1.28-3.41,2.72-6.89,5.26-9.59.6.69,1.33,1.25,1.99,1.87Z"/>
      <path class="cls-1" d="M114.63,38.15c-2.44,2.4-5.33,4.25-8.42,5.73-.24.11-.8.58-.94.11,2.63-2.47,5.16-5.06,7.6-7.72.66.55,1.18,1.24,1.75,1.87Z"/>
      <path class="cls-1" d="M70.42,14.76c-1.3,3.35-4.07,5.82-6.55,8.3-.11.11-.6.82-.7.35,1.76-3.06,3.37-6.23,5.03-9.36.62-.59,1.55.38,2.22.7Z"/>
      <path d="M39.48,89.67c4.12-.65,7.97,2.85,7.3,7.06-.2,1.27-1.65,1.7-2.69,1.08-1.41-.84-.03-4.06-2.85-4.64s-2.86,1.95-4.21,2.24c-2.11.46-2.82-1.5-1.7-3.11.85-1.22,2.68-2.4,4.15-2.63Z"/>
      <path d="M87.22,51.3c2.69-.19,5.32,1.98,5.44,4.74.06,1.3-.45,2.61-1.98,2.46-2.28-.23-.79-3.37-2.88-3.7-1.67-.26-1.75,2.38-3.82,1.73-3.1-.98.33-5.02,3.24-5.22Z"/>
      <path d="M76.44,66.51c2.44-.42,5.03.7,5.96,3.05.62,1.57.71,4.08-1.56,3.92s-.93-2.97-2.63-3.48c-1.87-.56-1.94,1.39-3,1.59-3.63.68-2.42-4.46,1.24-5.09Z"/>
      <path d="M23.16,84.93s-.28.15-.47.47c-3.27,1.11-2.13-3.55-5.5-3.52-2.96.02-2.43,4.78-5.2,3.58-1.53-.67-.91-2.21-.42-3.34,1.69-3.86,6.66-4.92,9.84-2.1,1.35,1.2,2.53,3.07,1.75,4.92Z"/>
      <path d="M52,40.89c-.7-.71-.43-2.45-2.26-2.27-1.66.16-1.13,3.16-3.42,2.72s-1.36-3.04-.32-4.33c2.28-2.84,7.05-2.31,8.56.99,1.24,2.72-1.13,4.34-2.55,2.9Z"/>
      <path d="M43.92,52.47c2.39-.4,5.3,1.24,5.81,3.67.46,2.19-1.56,3.36-2.94,1.77-.67-.77-.54-2-1.98-2-1.91,0-1.35,3.26-3.62,2.72-3.35-.8-.28-5.65,2.74-6.16Z"/>
    </g>
  </g>
</svg>