<?xml version="1.0" encoding="UTF-8"?>
<svg id="Layer_2" data-name="Layer 2" xmlns="http://www.w3.org/2000/svg" viewBox="0 0 89.4 114">
  <defs>
    <style>
      .cls-1 {
        fill: #e92a3d;
      }
    </style>
  </defs>
  <g id="Layer_1-2" data-name="Layer 1">
    <g>
      <path class="cls-1" d="M8.21,32.8v70.99c0,4.33,6.25,10.14,10.67,10.15l50.98.04c4.66.33,11.33-5.64,11.33-10.19V32.8H8.21ZM36.52,98.42c-.84,4.56-7.52,4.52-7.97-.23v-49.83c.11-1.5,1.53-3.04,2.98-3.34,2.37-.49,4.82,1.1,4.99,3.56v49.84ZM60.84,98.42c-.65,4.14-6.23,4.59-7.77.76-.42-16.9-.05-33.89-.18-50.82.2-1.64,1.62-3.05,3.22-3.33,2.38-.41,4.59,1.1,4.75,3.56v49.83Z"/>
      <path class="cls-1" d="M87.44,17.08c-.25-.15-1.51-.65-1.69-.65h-20.7v-5.26c0-5.52-6.07-10.52-11.33-10.89-5-.35-13.29-.39-18.26,0-5.14.41-11.1,5.51-11.1,10.89v5.26H3.65c-.13,0-1.32.45-1.54.57-3.55,1.88-2.34,7.16,1.53,7.62l82.7-.1c3.39-.93,4.24-5.62,1.09-7.43ZM56.86,16.43h-24.33v-5.03c0-.86,2.09-3.01,3.18-2.9,5.61.3,11.75-.47,17.3-.03,1.04.08,1.75.22,2.56.95.3.27,1.29,1.76,1.29,1.99v5.03Z"/>
    </g>
  </g>
</svg>