<?xml version="1.0" encoding="UTF-8"?>
<svg id="Layer_2" data-name="Layer 2" xmlns="http://www.w3.org/2000/svg" viewBox="0 0 115.98 115.67">
  <defs>
    <style>
      .cls-1 {
        fill: #e9b832;
      }

      .cls-2 {
        fill: #bfcfd7;
      }

      .cls-3 {
        fill: #dcccae;
      }

      .cls-4 {
        fill: #d3e0e7;
      }

      .cls-5 {
        fill: #f3c637;
      }

      .cls-6 {
        fill: #d5a277;
      }

      .cls-7 {
        fill: #293c44;
      }

      .cls-8 {
        fill: #e92a3d;
      }

      .cls-9 {
        fill: #ecdebf;
      }

      .cls-10 {
        fill: #203035;
      }
    </style>
  </defs>
  <g id="Layer_1-2" data-name="Layer 1">
    <g>
      <path class="cls-9" d="M.36,23.46l.47.21c-.04,3.92-.01,7.83.07,11.72h61.86s.29.47.29.47c-3.42,4.45-7.45,8.54-11.93,11.93l-.98.47H10.57c-2.21.02-2.56,3.1-.27,3.03l.35.48c12.13.06,24.27.09,36.41.08.11.21.12.42.03.64l-8.55,8.76c-.2.12-.45.16-.76.11.84.23-.11,3.51-.75,2.46l-27.32.12-.07.53c-1.44.72-1.01,2.44.3,3l26.15-.02.28.47c.49,1.34,0,3.37-.94,4.44l.41.36c-.53,2.23-.91,4.49-1.13,6.76l-.45.37-.16.47H9.9c-1.5.33-1.57,2.54-.1,2.94l40.48.08c3.21-1.5.43-3.8-2.16-3.03l-.26-.46.27-.62c1.96-.49,3.93-.92,5.92-1.29l.6.28c3.01-3.88,6.57-7.38,10.53-10.29l.94-.47,16.32-.09c1.84-.4,1.51-3.3-.51-2.94l-.38-.48-12.12-.15c-.69-.49-.04-1.26,1.23-2.15,5.92-5.94,11.87-11.85,17.85-17.73.54-.53,1.13-1.02,1.73-1.5s1.21-.94,1.84-1.39v71.01c-.07,1.3-1.13,3.02-2.4,3.43-23.56.35-47.24.21-70.82.07-1.1-.29-1.61-1.33-2.33-2-.68-1.07-.93-2.31-.76-3.71l.14-6.86c-.08-2.53-.71-2.81-3.17-2.86l-6.53.15c-1.4.17-2.64-.08-3.71-.76-.66-.72-1.71-1.23-2-2.33-.33-19.98.06-40.02-.1-60.02-.03-4.35-.82-9.4-.01-13.67Z"/>
      <path class="cls-3" d="M78.96,19.96c.34.62,0,1.13-.7.94-4.48,5.5-9.68,10.52-15.2,14.97H.36s0-12.4,0-12.4c.38-2.04,1.25-3.11,3.39-3.51h75.2Z"/>
      <path class="cls-1" d="M95.1,37.73c-1.04,1.04-2,2.23-3.04,3.27-7.54,7.54-15.21,14.96-22.69,22.57l12.16.35-1.24.42-11.09.06-3.06,3.16-.98.34c-3.5,3.44-6.99,6.89-10.53,10.29-.1.05-.2.08-.3.08-.43,0-2.68-7.23-2.86-8.09l.36-.41-.21-.45c12.44-12.37,24.89-24.74,37.34-37.11l.53.13c2.24,1.2,4.35,3.18,5.61,5.38Z"/>
      <path class="cls-8" d="M109.13,23.7l-.45.22c-5.51-5.51-11.02-11.02-16.53-16.53l.13-.53c1.34-1.32,5.74-6.41,7.18-6.73,1.2-.27,2.9-.13,3.82.76,3.39,4.02,8.48,7.67,11.7,11.7.93,1.17,1.13,1.98.91,3.5-.29,2.03-5.15,5.99-6.76,7.62Z"/>
      <path class="cls-4" d="M109.13,23.7c-1.86,1.89-3.75,3.74-5.61,5.61l-.45.22c-5.51-5.51-11.02-11.02-16.53-16.53l.13-.53c1.88-1.86,3.73-3.76,5.61-5.61l16.84,16.84Z"/>
      <path class="cls-4" d="M100.71,32.12c-1.87,1.87-3.75,3.74-5.61,5.61-1.87-1.78-3.79-3.56-5.61-5.38-2.27-1.62-4.23-3.58-5.85-5.85-2.24-1.21-4.23-3.35-5.38-5.61.24-.24.46-.69.7-.94,1.59-1.59,3.32-3.09,4.91-4.68l.45-.22c5.51,5.51,11.02,11.02,16.53,16.53l-.13.53Z"/>
      <path class="cls-2" d="M103.52,29.31c-.93.94-1.88,1.87-2.81,2.81l-16.84-16.84c.94-.93,1.87-1.88,2.81-2.81l16.84,16.84Z"/>
      <path class="cls-3" d="M16.5,113.52c-4.73-4.38-9.66-9.3-14.04-14.04,3.68.72,7.91-.18,11.58.23,1.44.16,2.06.76,2.22,2.22.41,3.67-.49,7.89.23,11.58Z"/>
      <path class="cls-1" d="M83.64,26.51l.22.45c-12.37,12.44-24.74,24.89-37.11,37.34l-.54-.12c-.02.11-.06.21-.12.29-.26.34-7.73-2.25-8.05-2.52-.18-.15-.29-.26-.25-.58l9.12-9.35-36.26-.24c.67-.19,1.36-.37,2.07-.37,11.41,0,22.84-.02,34.26-.11,1.16-.95,2.23-2.01,3.2-3.18l.94-.32c4.01-3.95,7.95-7.96,11.93-11.93,5.03-5.02,10.17-9.95,15.2-14.97,1.78,1.87,3.56,3.79,5.38,5.61Z"/>
      <path class="cls-6" d="M46.21,64.17l.47.2v4.93s4.82.01,4.82.01l.33.47,2.81,8.42c-2.14.87-4.71.66-6.78,1.64-.8.73-2.82,1.04-3.74.47h-.92c-1.6-3.11-3.86-6.18-7.33-7.34l-.41-.62c.27-1.47.67-2.96.94-4.44l-.4-.37c.31-1.09.47-2.14.48-3.14H10s-.29-.47-.29-.47l27.6-.24.47-2.34,8.42,2.81Z"/>
      <path class="cls-10" d="M51.12,47.79c-.76.75-3.34,3.83-4.1,3.97-11.97-.47-24.46.65-36.37,0-.94-.05-1.72.11-2.16-1-.68-1.7.36-2.79,2.04-2.98h40.58Z"/>
      <path class="cls-10" d="M34.28,79.84l.5.2c.55,1.33,1.98,1.61,4.29.84l4.18-.9c.23.27.51.39.85.32,1.29-.21,2.42-.41,3.74-.47.8-.03,2.14-.11,2.87.05,1.99.44,1.78,3.89-.44,3.91l-40.57-.09c-2.06-.53-1.83-3.54.14-3.85h24.43Z"/>
      <path class="cls-10" d="M9.72,63.93h27.37c.15.15-.6,3.4-.7,3.98H9.84c-1.96-.75-2.16-3.31-.12-3.98Z"/>
      <path class="cls-10" d="M81.53,63.93c.84.05,1.67-.12,2.21.72.82,1.28.19,2.82-1.26,3.16l-17.33.1c1.31-1.29,2.45-2.79,3.91-3.93,4.1.08,8.39-.27,12.47-.05Z"/>
      <path class="cls-7" d="M44.1,80.31c-1.78.28-3.55.83-5.34,1.1s-4.25.99-4.49-1.56c-.15-1.56.84-5.67,1.17-7.49,3.83,1.08,6.02,3.92,7.89,7.2.2.35.11.8.77.75Z"/>
      <path class="cls-5" d="M89.48,32.35l-37.66,37.43h-5.62s0-5.61,0-5.61l37.43-37.66c1.95,1.95,3.9,3.9,5.85,5.85Z"/>
    </g>
  </g>
</svg>