<?xml version="1.0" encoding="UTF-8"?>
<svg id="Layer_2" data-name="Layer 2" xmlns="http://www.w3.org/2000/svg" viewBox="0 0 62.19 64">
  <defs>
    <style>
      .cls-1 {
        fill: #df2938;
      }

      .cls-2 {
        fill: #c7e0ff;
      }

      .cls-3 {
        fill: #2d96b3;
      }

      .cls-4 {
        fill: #64d0da;
      }

      .cls-5 {
        fill: #fb9527;
      }

      .cls-6 {
        fill: #055586;
      }
    </style>
  </defs>
  <g id="Layer_1-2" data-name="Layer 1">
    <g id="diagram">
      <g>
        <path class="cls-4" d="M48.18,21.58l-15.34,10.37-7.74-16.82c2.35-1.09,4.97-1.69,7.74-1.69,6.39,0,12.02,3.23,15.34,8.15Z"/>
        <path class="cls-6" d="M37.32,49.92c-1.43.36-2.93.55-4.48.55-5.76,0-10.9-2.62-14.29-6.74l14.29-11.78,4.48,17.97Z"/>
        <path class="cls-5" d="M32.84,31.95l-14.29,11.78c-2.65-3.2-4.23-7.3-4.23-11.78,0-2.9.67-5.65,1.86-8.09l16.66,8.09Z"/>
        <path class="cls-1" d="M32.84,31.95l-16.66-8.09c1.87-3.85,5.03-6.94,8.92-8.73l7.74,16.82Z"/>
        <path class="cls-3" d="M51.35,31.95c0,8.68-5.97,15.97-14.04,17.97l-4.48-17.97,15.34-10.37c2,2.96,3.18,6.53,3.18,10.37Z"/>
      </g>
      <g>
        <path class="cls-6" d="M48.83,60.46l-1.71-3.29c1.71-.89,3.33-1.96,4.82-3.19l2.36,2.86c-1.68,1.39-3.52,2.61-5.47,3.62Z"/>
        <path class="cls-6" d="M34.37,64c-.47,0-.93-.01-1.4-.03l.17-3.7c2.39.11,4.78-.1,7.13-.61l.79,3.62c-2.2.48-4.45.73-6.69.73Z"/>
        <g>
          <path class="cls-6" d="M25.02,62.56c-1.69-.53-3.35-1.22-4.94-2.04C7.66,54.12.96,40.1,3.79,26.43l3.63.75c-2.49,12.05,3.41,24.41,14.37,30.05,1.4.72,2.87,1.33,4.36,1.8l-1.12,3.53Z"/>
          <polygon class="cls-6" points="0 26.66 8.26 19.28 10.52 30.13 0 26.66"/>
        </g>
      </g>
      <g>
        <path class="cls-2" d="M40.96,11.49c0-5.38,4.36-9.75,9.75-9.75s9.75,4.36,9.75,9.75-4.36,9.75-9.75,9.75-9.75-4.36-9.75-9.75Z"/>
        <path class="cls-6" d="M50.71,22.97c-6.33,0-11.49-5.15-11.49-11.49S44.37,0,50.71,0s11.49,5.15,11.49,11.49-5.15,11.49-11.49,11.49ZM50.71,3.47c-4.42,0-8.01,3.6-8.01,8.01s3.59,8.01,8.01,8.01,8.01-3.6,8.01-8.01-3.59-8.01-8.01-8.01Z"/>
        <polygon class="cls-6" points="50.91 12.03 50.5 10.94 54.02 9.61 55.12 9.77 54.43 10.7 50.91 12.03"/>
        <polygon class="cls-6" points="51.03 11.47 50.36 11.49 50.33 5.98 50.63 4.54 51 5.96 51.03 11.47"/>
        <path class="cls-6" d="M48.95,11.49c0-.97.79-1.76,1.76-1.76s1.76.79,1.76,1.76-.79,1.76-1.76,1.76-1.76-.79-1.76-1.76Z"/>
        <rect class="cls-6" x="50.14" y="17.77" width="1.08" height="1.38"/>
        <rect class="cls-6" x="45.07" y="15.86" width="1.38" height="1.08" transform="translate(1.81 37.16) rotate(-45)"/>
        <rect class="cls-6" x="43.05" y="10.92" width="1.38" height="1.08"/>
        <rect class="cls-6" x="45.25" y="5.85" width="1.08" height="1.38" transform="translate(8.79 34.3) rotate(-45)"/>
        <rect class="cls-6" x="50.19" y="3.83" width="1.08" height="1.38"/>
        <polygon class="cls-6" points="55.55 7.44 54.78 6.68 55.76 5.7 56.52 6.47 55.55 7.44"/>
        <rect class="cls-6" x="56.99" y="10.97" width="1.38" height="1.09" transform="translate(-.02 .08) rotate(-.08)"/>
        <rect class="cls-6" x="55.08" y="15.75" width="1.08" height="1.38" transform="translate(4.7 44.2) rotate(-45.06)"/>
      </g>
    </g>
  </g>
</svg>