<?xml version="1.0" encoding="UTF-8"?>
<svg id="Layer_2" data-name="Layer 2" xmlns="http://www.w3.org/2000/svg" viewBox="0 0 70 70.92">
  <defs>
    <style>
      .cls-1 {
        fill: #97d5c9;
      }

      .cls-2 {
        fill: #5cbfab;
      }

      .cls-3 {
        fill: #5a6e7f;
      }

      .cls-4 {
        fill: none;
      }
    </style>
  </defs>
  <g id="Layer_1-2" data-name="Layer 1">
    <g>
      <path class="cls-4" d="M8.64,27.7c-.08,10.81,8.62,19.64,19.43,19.72,10.81.08,19.64-8.62,19.72-19.43.08-10.81-8.62-19.64-19.43-19.72-10.81-.08-19.64,8.62-19.72,19.43ZM28.15,44.6c-9.24-.07-16.67-7.61-16.6-16.85.07-9.23,6.95-16.67,16.18-16.6.11,0,.22,0,.34.01l-.12,16.71,14.98,8.08c-2.25,4.92-8.3,8.7-14.78,8.65ZM33.4,28.32l-1.39-.76,1.14-3.53,2.43-2.46-2.17,6.74ZM36.29,20.85l2.43-2.46-3.52,10.91-1.39-.76,2.48-7.7ZM31.59,27.34l-1.12-.61,1.95-1.97-.83,2.58ZM45.16,27.05c-.02,2.44-.45,4.83-1.51,6.85l-.82-.45,2.32-7.19c.01.26.02.52.02.78ZM45.03,25.11l-2.62,8.13-1.39-.76,3.32-10.29c.32.94.56,1.92.69,2.92ZM44.08,21.49l-3.47,10.77-1.39-.76,3.88-12.03c.37.65.7,1.32.98,2.03ZM42.78,18.93l-3.97,12.33-1.39-.76,4.23-13.15c.41.49.78,1.02,1.13,1.57ZM40.74,16.34c.19.19.38.4.56.61l-4.3,13.34-1.39-.76,3.82-11.87,1.31-1.32ZM30.19,11.26c3.54.1,6.88,1.52,9.1,3.62l-9.29,9.43.18-13.04Z"/>
      <path class="cls-2" d="M67.63,61.41l-.29-.3-7.2,7.09.17.17,1.88,1.91c1.21,1.22,3.8.63,5.78-1.33,1.99-1.96,2.62-4.54,1.41-5.76l-1.76-1.78h0Z"/>
      <polygon class="cls-1" points="65.6 59.38 58.41 66.47 60.14 68.2 67.34 61.12 67.13 60.91 67.13 60.91 65.6 59.38"/>
      <path class="cls-3" d="M28.05,0C12.67-.11.12,12.26,0,27.63c-.11,15.37,12.26,27.93,27.63,28.04,5.7.04,11-1.63,15.44-4.54l15.34,15.33,7.2-7.08-15.23-15.23c3.29-4.53,5.26-10.08,5.31-16.11C55.79,12.67,43.42.12,28.05,0ZM28.07,47.42c-10.81-.08-19.51-8.91-19.43-19.72.08-10.81,8.91-19.51,19.72-19.43,10.81.08,19.51,8.91,19.43,19.72-.08,10.81-8.91,19.51-19.72,19.43Z"/>
      <path class="cls-2" d="M39.29,14.87c-2.23-2.09-5.57-3.52-9.1-3.62l-.18,13.04,9.29-9.43Z"/>
      <path class="cls-1" d="M27.74,11.15c-9.24-.07-16.11,7.37-16.18,16.6-.07,9.24,7.36,16.78,16.6,16.85,6.48.05,12.53-3.73,14.78-8.65l-14.98-8.08.12-16.71c-.11,0-.22-.01-.34-.01Z"/>
      <polygon class="cls-1" points="35.2 29.3 38.71 18.39 36.29 20.85 33.81 28.54 35.2 29.3"/>
      <polygon class="cls-1" points="33.4 28.32 35.57 21.57 33.14 24.03 32 27.56 33.4 28.32"/>
      <path class="cls-1" d="M40.61,32.25l3.47-10.77c-.28-.7-.61-1.38-.98-2.03l-3.88,12.03,1.39.76Z"/>
      <path class="cls-1" d="M42.41,33.24l2.62-8.13c-.13-1-.37-1.98-.69-2.92l-3.32,10.29,1.39.76Z"/>
      <path class="cls-1" d="M43.64,33.91c1.06-2.02,1.5-4.41,1.51-6.85,0-.26,0-.52-.02-.78l-2.32,7.19.82.45Z"/>
      <path class="cls-1" d="M35.61,29.53l1.39.76,4.3-13.34c-.18-.21-.37-.41-.56-.61l-1.31,1.32-3.82,11.87Z"/>
      <polygon class="cls-1" points="32.42 24.76 30.48 26.73 31.59 27.34 32.42 24.76"/>
      <path class="cls-1" d="M38.8,31.27l3.97-12.33c-.35-.55-.72-1.08-1.13-1.57l-4.23,13.15,1.39.76Z"/>
    </g>
  </g>
</svg>