<?xml version="1.0" encoding="UTF-8"?>
<svg id="Layer_2" data-name="Layer 2" xmlns="http://www.w3.org/2000/svg" viewBox="0 0 69.34 64">
  <defs>
    <style>
      .cls-1 {
        fill: #9c8469;
      }

      .cls-2 {
        fill: #e0852a;
      }

      .cls-3 {
        fill: #9c805f;
      }

      .cls-4 {
        fill: #f5cb95;
      }

      .cls-5 {
        fill: #fff;
      }

      .cls-6 {
        fill: #424242;
      }

      .cls-7 {
        fill: #b06821;
      }

      .cls-8 {
        fill: #395878;
      }

      .cls-9 {
        fill: #d1ad7f;
      }

      .cls-10 {
        fill: #4c76a1;
      }

      .cls-11 {
        fill: #9e9e9e;
      }

      .cls-12 {
        fill: #ebebeb;
      }

      .cls-13 {
        fill: #bd9c73;
      }
    </style>
  </defs>
  <g id="Layer_1-2" data-name="Layer 1">
    <g>
      <g>
        <rect class="cls-2" x="4.18" y="41.99" width="61.01" height="3.4"/>
        <rect class="cls-7" x="4.18" y="42.97" width="61.01" height="1.34"/>
      </g>
      <g>
        <rect class="cls-2" x="4.18" y="20.55" width="61.01" height="3.4"/>
        <rect class="cls-7" x="4.18" y="21.53" width="61.01" height="1.34"/>
      </g>
      <g>
        <g>
          <rect class="cls-8" x="1.92" y="8.65" width="2.27" height="54.22"/>
          <rect class="cls-10" x="3.05" y="8.65" width="1.13" height="54.22"/>
        </g>
        <g>
          <rect class="cls-10" y="62.87" width="6.01" height="1.13"/>
          <rect class="cls-8" y="63.17" width="3.05" height=".83"/>
        </g>
      </g>
      <g>
        <g>
          <rect class="cls-8" x="65.2" y="8.65" width="2.27" height="54.22"/>
          <rect class="cls-10" x="66.33" y="8.65" width="1.13" height="54.22"/>
        </g>
        <g>
          <rect class="cls-10" x="63.32" y="62.87" width="6.01" height="1.13"/>
          <rect class="cls-8" x="63.32" y="63.17" width="3.05" height=".83"/>
        </g>
      </g>
      <g>
        <polygon class="cls-4" points="22.89 42.11 6.91 42.11 6.91 42.11 6.91 26.98 6.91 26.98 22.89 26.98 22.89 42.11 22.89 42.11"/>
        <polygon class="cls-9" points="22.89 42.11 6.91 42.11 6.91 26.98 22.89 42.11"/>
        <rect class="cls-3" x="13.67" y="26.96" width="2.44" height="4.6"/>
        <g>
          <rect class="cls-12" x="8.05" y="28.68" width="4.58" height="4.26"/>
          <rect class="cls-11" x="8.49" y="29.22" width="3.48" height=".39"/>
          <rect class="cls-11" x="8.49" y="30.26" width="3.48" height=".39"/>
          <rect class="cls-11" x="8.49" y="31.31" width="3.48" height=".39"/>
          <rect class="cls-11" x="8.49" y="31.88" width="1.98" height=".39"/>
        </g>
        <g>
          <rect class="cls-1" x="14.91" y="37.88" width="6.47" height=".52"/>
          <rect class="cls-1" x="14.91" y="39.65" width="6.47" height=".52"/>
          <rect class="cls-1" x="14.91" y="40.55" width="6.47" height=".52"/>
          <rect class="cls-1" x="14.91" y="38.78" width="3.24" height=".52"/>
        </g>
        <g>
          <rect class="cls-12" x="8.05" y="33.7" width="4.58" height="2.03"/>
          <g>
            <rect class="cls-6" x="9.73" y="34.05" width=".11" height=".94"/>
            <rect class="cls-6" x="8.62" y="34.05" width=".11" height=".94"/>
            <rect class="cls-6" x="11.23" y="34.05" width=".11" height=".94"/>
            <rect class="cls-6" x="11.52" y="34.05" width=".11" height=".94"/>
            <rect class="cls-6" x="8.24" y="34.05" width=".18" height=".94"/>
            <rect class="cls-6" x="9.42" y="34.05" width=".18" height=".94"/>
            <rect class="cls-6" x="10.12" y="34.05" width=".04" height=".94"/>
            <rect class="cls-6" x="9.05" y="34.05" width=".04" height=".94"/>
            <rect class="cls-6" x="10.31" y="34.05" width=".04" height=".94"/>
            <rect class="cls-6" x="10.47" y="34.05" width=".04" height=".94"/>
            <rect class="cls-6" x="8.89" y="34.05" width=".04" height=".94"/>
            <rect class="cls-6" x="11.02" y="34.05" width=".04" height=".94"/>
            <rect class="cls-6" x="11.79" y="34.05" width=".04" height=".94"/>
            <rect class="cls-6" x="9.94" y="34.05" width=".06" height=".94"/>
            <rect class="cls-6" x="9.22" y="34.05" width=".06" height=".94"/>
            <rect class="cls-6" x="10.66" y="34.05" width=".18" height=".94"/>
            <rect class="cls-6" x="12.05" y="34.05" width=".18" height=".94"/>
          </g>
        </g>
      </g>
      <g>
        <polygon class="cls-4" points="22.76 20.55 6.78 20.55 6.78 20.55 6.78 5.41 6.78 5.41 22.76 5.41 22.76 20.55 22.76 20.55"/>
        <polygon class="cls-9" points="22.76 20.55 6.78 20.55 6.78 5.41 22.76 20.55"/>
        <rect class="cls-3" x="13.54" y="5.39" width="2.44" height="4.6"/>
        <g>
          <rect class="cls-12" x="7.92" y="7.12" width="4.58" height="4.26"/>
          <rect class="cls-11" x="8.36" y="7.65" width="3.48" height=".39"/>
          <rect class="cls-11" x="8.36" y="8.7" width="3.48" height=".39"/>
          <rect class="cls-11" x="8.36" y="9.74" width="3.48" height=".39"/>
          <rect class="cls-11" x="8.36" y="10.32" width="1.98" height=".39"/>
        </g>
        <g>
          <rect class="cls-1" x="14.77" y="16.32" width="6.47" height=".52"/>
          <rect class="cls-1" x="14.77" y="18.08" width="6.47" height=".52"/>
          <rect class="cls-1" x="14.77" y="18.98" width="6.47" height=".52"/>
          <rect class="cls-1" x="14.77" y="17.22" width="3.24" height=".52"/>
        </g>
        <g>
          <rect class="cls-12" x="7.92" y="12.14" width="4.58" height="2.03"/>
          <g>
            <rect class="cls-6" x="9.59" y="12.49" width=".11" height=".94"/>
            <rect class="cls-6" x="8.48" y="12.49" width=".11" height=".94"/>
            <rect class="cls-6" x="11.1" y="12.49" width=".11" height=".94"/>
            <rect class="cls-6" x="11.39" y="12.49" width=".11" height=".94"/>
            <rect class="cls-6" x="8.11" y="12.49" width=".18" height=".94"/>
            <rect class="cls-6" x="9.28" y="12.49" width=".18" height=".94"/>
            <rect class="cls-6" x="9.99" y="12.49" width=".04" height=".94"/>
            <rect class="cls-6" x="8.92" y="12.49" width=".04" height=".94"/>
            <rect class="cls-6" x="10.18" y="12.49" width=".04" height=".94"/>
            <rect class="cls-6" x="10.34" y="12.49" width=".04" height=".94"/>
            <rect class="cls-6" x="8.76" y="12.49" width=".04" height=".94"/>
            <rect class="cls-6" x="10.88" y="12.49" width=".04" height=".94"/>
            <rect class="cls-6" x="11.66" y="12.49" width=".04" height=".94"/>
            <rect class="cls-6" x="9.81" y="12.49" width=".06" height=".94"/>
            <rect class="cls-6" x="9.09" y="12.49" width=".06" height=".94"/>
            <rect class="cls-6" x="10.53" y="12.49" width=".18" height=".94"/>
            <rect class="cls-6" x="11.92" y="12.49" width=".18" height=".94"/>
          </g>
        </g>
      </g>
      <g>
        <polygon class="cls-4" points="36.4 20.55 24.44 20.55 24.44 20.55 24.44 .02 24.44 .02 36.4 .02 36.4 20.55 36.4 20.55"/>
        <polygon class="cls-9" points="36.4 20.55 24.44 20.55 24.44 .02 36.4 20.55"/>
        <rect class="cls-3" x="29.2" width="2.44" height="4.6"/>
        <g>
          <rect class="cls-12" x="32.55" y="1.44" width="2.79" height="4.26"/>
          <rect class="cls-11" x="32.82" y="1.98" width="2.12" height=".39"/>
          <rect class="cls-11" x="32.82" y="3.03" width="2.12" height=".39"/>
          <rect class="cls-11" x="32.82" y="4.07" width="2.12" height=".39"/>
          <rect class="cls-11" x="32.82" y="4.65" width="1.21" height=".39"/>
        </g>
        <g>
          <rect class="cls-1" x="32.44" y="16.32" width="2.45" height=".52"/>
          <rect class="cls-1" x="32.44" y="18.08" width="2.45" height=".52"/>
          <rect class="cls-1" x="32.44" y="18.98" width="2.45" height=".52"/>
          <rect class="cls-1" x="32.44" y="17.22" width="3.24" height=".52"/>
        </g>
        <g>
          <rect class="cls-12" x="25.08" y="5.39" width="4.58" height="2.03"/>
          <g>
            <rect class="cls-6" x="26.76" y="5.74" width=".11" height=".94"/>
            <rect class="cls-6" x="25.65" y="5.74" width=".11" height=".94"/>
            <rect class="cls-6" x="28.26" y="5.74" width=".11" height=".94"/>
            <rect class="cls-6" x="28.55" y="5.74" width=".11" height=".94"/>
            <rect class="cls-6" x="25.27" y="5.74" width=".18" height=".94"/>
            <rect class="cls-6" x="26.45" y="5.74" width=".18" height=".94"/>
            <rect class="cls-6" x="27.16" y="5.74" width=".04" height=".94"/>
            <rect class="cls-6" x="26.08" y="5.74" width=".04" height=".94"/>
            <rect class="cls-6" x="27.34" y="5.74" width=".04" height=".94"/>
            <rect class="cls-6" x="27.5" y="5.74" width=".04" height=".94"/>
            <rect class="cls-6" x="25.92" y="5.74" width=".04" height=".94"/>
            <rect class="cls-6" x="28.05" y="5.74" width=".04" height=".94"/>
            <rect class="cls-6" x="28.82" y="5.74" width=".04" height=".94"/>
            <rect class="cls-6" x="26.97" y="5.74" width=".06" height=".94"/>
            <rect class="cls-6" x="26.26" y="5.74" width=".06" height=".94"/>
            <rect class="cls-6" x="27.69" y="5.74" width=".18" height=".94"/>
            <rect class="cls-6" x="29.08" y="5.74" width=".18" height=".94"/>
          </g>
        </g>
      </g>
      <g>
        <polygon class="cls-4" points="60.97 42.11 47.41 42.11 47.41 42.11 47.41 29.27 47.41 29.27 60.97 29.27 60.97 42.11 60.97 42.11"/>
        <polygon class="cls-9" points="60.97 42.11 47.41 42.11 47.41 29.27 60.97 42.11"/>
        <rect class="cls-3" x="53.15" y="29.25" width="2.07" height="3.9"/>
        <g>
          <rect class="cls-12" x="56.19" y="30.72" width="3.88" height="3.61"/>
          <rect class="cls-11" x="56.57" y="31.48" width="2.95" height=".67"/>
          <rect class="cls-11" x="56.57" y="32.82" width="2.95" height=".67"/>
        </g>
        <g>
          <rect class="cls-1" x="54.19" y="40.02" width="5.49" height=".44"/>
          <rect class="cls-1" x="54.19" y="40.78" width="5.49" height=".44"/>
          <rect class="cls-1" x="54.19" y="39.29" width="2.74" height=".44"/>
        </g>
        <g>
          <rect class="cls-12" x="48.13" y="31.14" width="4.58" height="2.03"/>
          <g>
            <rect class="cls-6" x="49.81" y="31.49" width=".11" height=".94"/>
            <rect class="cls-6" x="48.7" y="31.49" width=".11" height=".94"/>
            <rect class="cls-6" x="51.32" y="31.49" width=".11" height=".94"/>
            <rect class="cls-6" x="51.61" y="31.49" width=".11" height=".94"/>
            <rect class="cls-6" x="48.33" y="31.49" width=".18" height=".94"/>
            <rect class="cls-6" x="49.5" y="31.49" width=".18" height=".94"/>
            <rect class="cls-6" x="50.21" y="31.49" width=".04" height=".94"/>
            <rect class="cls-6" x="49.14" y="31.49" width=".04" height=".94"/>
            <rect class="cls-6" x="50.39" y="31.49" width=".04" height=".94"/>
            <rect class="cls-6" x="50.56" y="31.49" width=".04" height=".94"/>
            <rect class="cls-6" x="48.98" y="31.49" width=".04" height=".94"/>
            <rect class="cls-6" x="51.1" y="31.49" width=".04" height=".94"/>
            <rect class="cls-6" x="51.88" y="31.49" width=".04" height=".94"/>
            <rect class="cls-6" x="50.03" y="31.49" width=".06" height=".94"/>
            <rect class="cls-6" x="49.31" y="31.49" width=".06" height=".94"/>
            <rect class="cls-6" x="50.74" y="31.49" width=".18" height=".94"/>
            <rect class="cls-6" x="52.13" y="31.49" width=".18" height=".94"/>
          </g>
        </g>
      </g>
      <g>
        <polygon class="cls-4" points="44.02 42.11 30.4 42.11 30.4 42.11 30.4 29.21 30.4 29.21 44.02 29.21 44.02 42.11 44.02 42.11"/>
        <polygon class="cls-13" points="44.02 42.11 30.4 42.11 30.4 29.21 44.02 42.11"/>
        <rect class="cls-3" x="36.17" y="29.2" width="2.08" height="3.92"/>
        <g>
          <rect class="cls-1" x="31.69" y="39.2" width="5.51" height=".44"/>
          <rect class="cls-1" x="31.69" y="40.01" width="5.51" height=".44"/>
          <rect class="cls-1" x="31.69" y="40.78" width="5.51" height=".44"/>
        </g>
        <g>
          <rect class="cls-12" x="31.06" y="31" width="4.58" height="2.03"/>
          <g>
            <rect class="cls-6" x="32.74" y="31.35" width=".11" height=".94"/>
            <rect class="cls-6" x="31.63" y="31.35" width=".11" height=".94"/>
            <rect class="cls-6" x="34.25" y="31.35" width=".11" height=".94"/>
            <rect class="cls-6" x="34.54" y="31.35" width=".11" height=".94"/>
            <rect class="cls-6" x="31.26" y="31.35" width=".18" height=".94"/>
            <rect class="cls-6" x="32.43" y="31.35" width=".18" height=".94"/>
            <rect class="cls-6" x="33.14" y="31.35" width=".04" height=".94"/>
            <rect class="cls-6" x="32.07" y="31.35" width=".04" height=".94"/>
            <rect class="cls-6" x="33.32" y="31.35" width=".04" height=".94"/>
            <rect class="cls-6" x="33.49" y="31.35" width=".04" height=".94"/>
            <rect class="cls-6" x="31.91" y="31.35" width=".04" height=".94"/>
            <rect class="cls-6" x="34.03" y="31.35" width=".04" height=".94"/>
            <rect class="cls-6" x="34.81" y="31.35" width=".04" height=".94"/>
            <rect class="cls-6" x="32.96" y="31.35" width=".06" height=".94"/>
            <rect class="cls-6" x="32.24" y="31.35" width=".06" height=".94"/>
            <rect class="cls-6" x="33.67" y="31.35" width=".18" height=".94"/>
            <rect class="cls-6" x="35.06" y="31.35" width=".18" height=".94"/>
          </g>
        </g>
      </g>
      <g>
        <polygon class="cls-4" points="62.43 20.59 47.09 20.59 47.09 20.59 47.09 6.06 47.09 6.06 62.43 6.06 62.43 20.59 62.43 20.59"/>
        <polygon class="cls-13" points="62.43 20.59 47.09 20.59 47.09 6.06 62.43 20.59"/>
        <rect class="cls-3" x="53.58" y="6.04" width="2.34" height="4.41"/>
        <g>
          <rect class="cls-1" x="48.54" y="17.31" width="6.21" height=".5"/>
          <rect class="cls-1" x="48.54" y="18.23" width="6.21" height=".5"/>
          <rect class="cls-1" x="48.54" y="19.09" width="6.21" height=".5"/>
        </g>
        <g>
          <rect class="cls-12" x="47.84" y="8.08" width="5.16" height="2.28"/>
          <g>
            <rect class="cls-6" x="49.72" y="8.47" width=".13" height="1.06"/>
            <rect class="cls-6" x="48.48" y="8.47" width=".13" height="1.06"/>
            <rect class="cls-6" x="51.42" y="8.47" width=".13" height="1.06"/>
            <rect class="cls-6" x="51.75" y="8.47" width=".13" height="1.06"/>
            <rect class="cls-6" x="48.05" y="8.47" width=".2" height="1.06"/>
            <rect class="cls-6" x="49.38" y="8.47" width=".2" height="1.06"/>
            <rect class="cls-6" x="50.17" y="8.47" width=".05" height="1.06"/>
            <rect class="cls-6" x="48.97" y="8.47" width=".05" height="1.06"/>
            <rect class="cls-6" x="50.38" y="8.47" width=".05" height="1.06"/>
            <rect class="cls-6" x="50.57" y="8.47" width=".05" height="1.06"/>
            <rect class="cls-6" x="48.79" y="8.47" width=".05" height="1.06"/>
            <rect class="cls-6" x="51.18" y="8.47" width=".05" height="1.06"/>
            <rect class="cls-6" x="52.05" y="8.47" width=".05" height="1.06"/>
            <rect class="cls-6" x="49.97" y="8.47" width=".06" height="1.06"/>
            <rect class="cls-6" x="49.16" y="8.47" width=".06" height="1.06"/>
            <rect class="cls-6" x="50.78" y="8.47" width=".2" height="1.06"/>
            <rect class="cls-6" x="52.34" y="8.47" width=".2" height="1.06"/>
          </g>
        </g>
      </g>
      <g>
        <polygon class="cls-4" points="32.53 42.11 23.66 42.11 23.66 42.11 23.66 33.72 23.66 33.72 32.53 33.72 32.53 42.11 32.53 42.11"/>
        <polygon class="cls-9" points="32.53 42.11 23.66 42.11 23.66 33.72 32.53 42.11"/>
        <rect class="cls-3" x="27.41" y="33.7" width="1.35" height="2.55"/>
        <g>
          <rect class="cls-12" x="24.29" y="34.66" width="2.54" height="2.36"/>
          <rect class="cls-11" x="24.54" y="35.2" width="1.93" height=".52"/>
          <rect class="cls-11" x="24.54" y="35.96" width="1.1" height=".52"/>
        </g>
        <g>
          <rect class="cls-1" x="28.1" y="39.77" width="3.59" height=".29"/>
          <rect class="cls-1" x="28.1" y="40.74" width="3.59" height=".29"/>
          <rect class="cls-1" x="28.1" y="41.24" width="3.59" height=".29"/>
          <rect class="cls-1" x="28.1" y="40.27" width="1.79" height=".29"/>
        </g>
        <g>
          <rect class="cls-12" x="24.29" y="37.39" width="4.58" height="2.03"/>
          <g>
            <rect class="cls-6" x="25.97" y="37.74" width=".11" height=".94"/>
            <rect class="cls-6" x="24.86" y="37.74" width=".11" height=".94"/>
            <rect class="cls-6" x="27.48" y="37.74" width=".11" height=".94"/>
            <rect class="cls-6" x="27.77" y="37.74" width=".11" height=".94"/>
            <rect class="cls-6" x="24.49" y="37.74" width=".18" height=".94"/>
            <rect class="cls-6" x="25.66" y="37.74" width=".18" height=".94"/>
            <rect class="cls-6" x="26.37" y="37.74" width=".04" height=".94"/>
            <rect class="cls-6" x="25.3" y="37.74" width=".04" height=".94"/>
            <rect class="cls-6" x="26.55" y="37.74" width=".04" height=".94"/>
            <rect class="cls-6" x="26.72" y="37.74" width=".04" height=".94"/>
            <rect class="cls-6" x="25.14" y="37.74" width=".04" height=".94"/>
            <rect class="cls-6" x="27.26" y="37.74" width=".04" height=".94"/>
            <rect class="cls-6" x="28.04" y="37.74" width=".04" height=".94"/>
            <rect class="cls-6" x="26.19" y="37.74" width=".06" height=".94"/>
            <rect class="cls-6" x="25.47" y="37.74" width=".06" height=".94"/>
            <rect class="cls-6" x="26.9" y="37.74" width=".18" height=".94"/>
            <rect class="cls-6" x="28.29" y="37.74" width=".18" height=".94"/>
          </g>
        </g>
      </g>
      <g>
        <polygon class="cls-4" points="46.04 20.53 37.17 20.53 37.17 20.53 37.17 12.13 37.17 12.13 46.04 12.13 46.04 20.53 46.04 20.53"/>
        <polygon class="cls-9" points="46.04 20.53 37.17 20.53 37.17 12.13 46.04 20.53"/>
        <rect class="cls-3" x="40.92" y="12.12" width="1.35" height="2.55"/>
        <g>
          <rect class="cls-12" x="37.8" y="13.07" width="2.54" height="2.36"/>
          <rect class="cls-11" x="38.05" y="13.61" width="1.93" height=".52"/>
          <rect class="cls-11" x="38.05" y="14.37" width="1.1" height=".52"/>
        </g>
        <g>
          <rect class="cls-1" x="41.61" y="18.18" width="3.59" height=".29"/>
          <rect class="cls-1" x="41.61" y="19.16" width="3.59" height=".29"/>
          <rect class="cls-1" x="41.61" y="19.66" width="3.59" height=".29"/>
          <rect class="cls-1" x="41.61" y="18.68" width="1.79" height=".29"/>
        </g>
        <g>
          <rect class="cls-12" x="37.8" y="15.8" width="4.58" height="2.03"/>
          <g>
            <rect class="cls-6" x="39.48" y="16.15" width=".11" height=".94"/>
            <rect class="cls-6" x="38.37" y="16.15" width=".11" height=".94"/>
            <rect class="cls-6" x="40.99" y="16.15" width=".11" height=".94"/>
            <rect class="cls-6" x="41.28" y="16.15" width=".11" height=".94"/>
            <rect class="cls-6" x="38" y="16.15" width=".18" height=".94"/>
            <rect class="cls-6" x="39.17" y="16.15" width=".18" height=".94"/>
            <rect class="cls-6" x="39.88" y="16.15" width=".04" height=".94"/>
            <rect class="cls-6" x="38.81" y="16.15" width=".04" height=".94"/>
            <rect class="cls-6" x="40.06" y="16.15" width=".04" height=".94"/>
            <rect class="cls-6" x="40.23" y="16.15" width=".04" height=".94"/>
            <rect class="cls-6" x="38.65" y="16.15" width=".04" height=".94"/>
            <rect class="cls-6" x="40.77" y="16.15" width=".04" height=".94"/>
            <rect class="cls-6" x="41.55" y="16.15" width=".04" height=".94"/>
            <rect class="cls-6" x="39.7" y="16.15" width=".06" height=".94"/>
            <rect class="cls-6" x="38.98" y="16.15" width=".06" height=".94"/>
            <rect class="cls-6" x="40.41" y="16.15" width=".18" height=".94"/>
            <rect class="cls-6" x="41.8" y="16.15" width=".18" height=".94"/>
          </g>
        </g>
      </g>
      <g>
        <polygon class="cls-4" points="44.58 12.12 39.97 12.12 39.97 12.12 39.97 7.75 39.97 7.75 44.58 7.75 44.58 12.12 44.58 12.12"/>
        <polygon class="cls-9" points="44.58 12.12 39.97 12.12 39.97 7.75 44.58 12.12"/>
        <rect class="cls-3" x="41.92" y="7.75" width=".7" height="1.33"/>
        <g>
          <rect class="cls-12" x="40.3" y="8.24" width="1.32" height="1.23"/>
          <rect class="cls-11" x="40.43" y="8.52" width="1" height=".27"/>
          <rect class="cls-11" x="40.43" y="8.92" width=".57" height=".27"/>
        </g>
        <g>
          <rect class="cls-1" x="42.28" y="10.9" width="1.87" height=".15"/>
          <rect class="cls-1" x="42.28" y="11.41" width="1.87" height=".15"/>
          <rect class="cls-1" x="42.28" y="11.67" width="1.87" height=".15"/>
          <rect class="cls-1" x="42.28" y="11.16" width=".93" height=".15"/>
        </g>
        <g>
          <rect class="cls-12" x="40.3" y="9.66" width="2.38" height="1.05"/>
          <g>
            <rect class="cls-6" x="41.17" y="9.84" width=".06" height=".49"/>
            <rect class="cls-6" x="40.6" y="9.84" width=".06" height=".49"/>
            <rect class="cls-6" x="41.96" y="9.84" width=".06" height=".49"/>
            <rect class="cls-6" x="42.11" y="9.84" width=".06" height=".49"/>
            <rect class="cls-6" x="40.4" y="9.84" width=".09" height=".49"/>
            <rect class="cls-6" x="41.01" y="9.84" width=".09" height=".49"/>
            <rect class="cls-6" x="41.38" y="9.84" width=".02" height=".49"/>
            <rect class="cls-6" x="40.82" y="9.84" width=".02" height=".49"/>
            <rect class="cls-6" x="41.48" y="9.84" width=".02" height=".49"/>
            <rect class="cls-6" x="41.56" y="9.84" width=".02" height=".49"/>
            <rect class="cls-6" x="40.74" y="9.84" width=".02" height=".49"/>
            <rect class="cls-6" x="41.84" y="9.84" width=".02" height=".49"/>
            <rect class="cls-6" x="42.25" y="9.84" width=".02" height=".49"/>
            <rect class="cls-6" x="41.29" y="9.84" width=".03" height=".49"/>
            <rect class="cls-6" x="40.91" y="9.84" width=".03" height=".49"/>
            <rect class="cls-6" x="41.66" y="9.84" width=".09" height=".49"/>
            <rect class="cls-6" x="42.38" y="9.84" width=".09" height=".49"/>
          </g>
        </g>
      </g>
      <g>
        <polygon class="cls-4" points="49.92 42.11 41.06 42.11 41.06 42.11 41.06 33.72 41.06 33.72 49.92 33.72 49.92 42.11 49.92 42.11"/>
        <polygon class="cls-9" points="49.92 42.11 41.06 42.11 41.06 33.72 49.92 42.11"/>
        <rect class="cls-3" x="44.81" y="33.7" width="1.35" height="2.55"/>
        <g>
          <rect class="cls-12" x="41.69" y="34.66" width="2.54" height="1.59"/>
          <rect class="cls-11" x="41.94" y="35.2" width="1.93" height=".52"/>
        </g>
        <g>
          <rect class="cls-1" x="45.49" y="40.39" width="3.59" height=".29"/>
          <rect class="cls-1" x="45.49" y="40.89" width="1.79" height=".29"/>
        </g>
        <g>
          <rect class="cls-12" x="41.69" y="36.84" width="4.58" height="2.03"/>
          <g>
            <rect class="cls-6" x="43.37" y="37.19" width=".11" height=".94"/>
            <rect class="cls-6" x="42.26" y="37.19" width=".11" height=".94"/>
            <rect class="cls-6" x="44.87" y="37.19" width=".11" height=".94"/>
            <rect class="cls-6" x="45.16" y="37.19" width=".11" height=".94"/>
            <rect class="cls-6" x="41.88" y="37.19" width=".18" height=".94"/>
            <rect class="cls-6" x="43.06" y="37.19" width=".18" height=".94"/>
            <rect class="cls-6" x="43.76" y="37.19" width=".04" height=".94"/>
            <rect class="cls-6" x="42.69" y="37.19" width=".04" height=".94"/>
            <rect class="cls-6" x="43.95" y="37.19" width=".04" height=".94"/>
            <rect class="cls-6" x="44.11" y="37.19" width=".04" height=".94"/>
            <rect class="cls-6" x="42.53" y="37.19" width=".04" height=".94"/>
            <rect class="cls-6" x="44.66" y="37.19" width=".04" height=".94"/>
            <rect class="cls-6" x="45.43" y="37.19" width=".04" height=".94"/>
            <rect class="cls-6" x="43.58" y="37.19" width=".06" height=".94"/>
            <rect class="cls-6" x="42.86" y="37.19" width=".06" height=".94"/>
            <rect class="cls-6" x="44.3" y="37.19" width=".18" height=".94"/>
            <rect class="cls-6" x="45.69" y="37.19" width=".18" height=".94"/>
          </g>
        </g>
      </g>
      <g>
        <rect class="cls-5" x="5.66" y="20.83" width="7.25" height="2.83"/>
        <g>
          <rect class="cls-6" x="7.12" y="22.51" width=".07" height=".9"/>
          <rect class="cls-6" x="6.46" y="22.51" width=".07" height=".9"/>
          <rect class="cls-6" x="8.03" y="22.51" width=".07" height=".9"/>
          <rect class="cls-6" x="8.21" y="22.51" width=".07" height=".9"/>
          <rect class="cls-6" x="6.23" y="22.51" width=".11" height=".9"/>
          <rect class="cls-6" x="6.94" y="22.51" width=".11" height=".9"/>
          <rect class="cls-6" x="7.37" y="22.51" width=".03" height=".9"/>
          <rect class="cls-6" x="6.72" y="22.51" width=".03" height=".9"/>
          <rect class="cls-6" x="7.48" y="22.51" width=".03" height=".9"/>
          <rect class="cls-6" x="7.58" y="22.51" width=".03" height=".9"/>
          <rect class="cls-6" x="6.62" y="22.51" width=".03" height=".9"/>
          <rect class="cls-6" x="7.9" y="22.51" width=".03" height=".9"/>
          <rect class="cls-6" x="8.37" y="22.51" width=".03" height=".9"/>
          <rect class="cls-6" x="7.26" y="22.51" width=".03" height=".9"/>
          <rect class="cls-6" x="6.82" y="22.51" width=".03" height=".9"/>
          <rect class="cls-6" x="7.69" y="22.51" width=".11" height=".9"/>
          <rect class="cls-6" x="8.52" y="22.51" width=".11" height=".9"/>
        </g>
        <g>
          <path d="M9.44,21.48c.08-.02.2-.03.33-.03.18,0,.3.03.39.1.07.05.12.14.12.25,0,.14-.09.26-.24.31h0c.13.04.29.15.29.36,0,.12-.05.21-.12.28-.1.09-.26.13-.49.13-.13,0-.22,0-.28-.02v-1.38ZM9.62,22.06h.16c.19,0,.31-.1.31-.24,0-.16-.13-.23-.31-.23-.08,0-.13,0-.16.01v.45ZM9.62,22.73s.09,0,.15,0c.19,0,.36-.07.36-.27,0-.19-.16-.27-.36-.27h-.15v.54Z"/>
          <path d="M11,22.24v.14h-.52v-.14h.52Z"/>
          <path d="M11.2,22.66c.05.03.17.09.3.09.24,0,.31-.15.31-.26,0-.19-.17-.27-.35-.27h-.1v-.14h.1c.13,0,.3-.07.3-.23,0-.11-.07-.2-.24-.2-.11,0-.21.05-.27.09l-.05-.13c.07-.05.21-.1.36-.1.27,0,.39.16.39.32,0,.14-.08.26-.25.32h0c.17.04.3.16.3.35,0,.22-.17.41-.49.41-.15,0-.29-.05-.35-.09l.05-.14Z"/>
        </g>
      </g>
      <g>
        <rect class="cls-5" x="5.66" y="42.33" width="7.25" height="2.83"/>
        <g>
          <rect class="cls-6" x="7.12" y="44.01" width=".07" height=".9"/>
          <rect class="cls-6" x="6.46" y="44.01" width=".07" height=".9"/>
          <rect class="cls-6" x="8.03" y="44.01" width=".07" height=".9"/>
          <rect class="cls-6" x="8.21" y="44.01" width=".07" height=".9"/>
          <rect class="cls-6" x="6.23" y="44.01" width=".11" height=".9"/>
          <rect class="cls-6" x="6.94" y="44.01" width=".11" height=".9"/>
          <rect class="cls-6" x="7.37" y="44.01" width=".03" height=".9"/>
          <rect class="cls-6" x="6.72" y="44.01" width=".03" height=".9"/>
          <rect class="cls-6" x="7.48" y="44.01" width=".03" height=".9"/>
          <rect class="cls-6" x="7.58" y="44.01" width=".03" height=".9"/>
          <rect class="cls-6" x="6.62" y="44.01" width=".03" height=".9"/>
          <rect class="cls-6" x="7.9" y="44.01" width=".03" height=".9"/>
          <rect class="cls-6" x="8.37" y="44.01" width=".03" height=".9"/>
          <rect class="cls-6" x="7.26" y="44.01" width=".03" height=".9"/>
          <rect class="cls-6" x="6.82" y="44.01" width=".03" height=".9"/>
          <rect class="cls-6" x="7.69" y="44.01" width=".11" height=".9"/>
          <rect class="cls-6" x="8.52" y="44.01" width=".11" height=".9"/>
        </g>
        <g>
          <path d="M9.44,42.98c.08-.02.2-.03.33-.03.18,0,.3.03.39.1.07.05.12.14.12.25,0,.14-.09.26-.24.31h0c.13.04.29.15.29.36,0,.12-.05.21-.12.28-.1.09-.26.13-.49.13-.13,0-.22,0-.28-.02v-1.38ZM9.62,43.55h.16c.19,0,.31-.1.31-.24,0-.16-.13-.23-.31-.23-.08,0-.13,0-.16.01v.45ZM9.62,44.23s.09,0,.15,0c.19,0,.36-.07.36-.27,0-.19-.16-.27-.36-.27h-.15v.54Z"/>
          <path d="M11,43.73v.14h-.52v-.14h.52Z"/>
          <path d="M11.16,44.37v-.11l.14-.14c.35-.33.5-.51.51-.71,0-.14-.07-.27-.27-.27-.12,0-.23.06-.29.11l-.06-.13c.09-.08.23-.14.38-.14.29,0,.42.2.42.39,0,.25-.18.45-.47.73l-.11.1h0s.61,0,.61,0v.15h-.87Z"/>
        </g>
      </g>
    </g>
  </g>
</svg>