<?xml version="1.0" encoding="UTF-8"?>
<svg id="Layer_2" data-name="Layer 2" xmlns="http://www.w3.org/2000/svg" viewBox="0 0 409.57 369.56">
  <defs>
    <style>
      .cls-1 {
        fill: #000001;
      }

      .cls-2 {
        fill: #b8bac0;
      }

      .cls-3 {
        fill: #e8e9ea;
      }

      .cls-4 {
        fill: #fcc64f;
      }

      .cls-5 {
        fill: #626262;
      }

      .cls-6 {
        fill: #f1f1f1;
      }

      .cls-7 {
        fill: #8a8895;
      }

      .cls-8 {
        fill: #fba529;
      }

      .cls-9 {
        fill: #706f7f;
      }

      .cls-10 {
        fill: #0fafbf;
      }

      .cls-11 {
        fill: #fefefe;
      }

      .cls-12 {
        fill: #fb502a;
      }

      .cls-13 {
        fill: #e50d28;
      }

      .cls-14 {
        fill: #00c5c7;
      }
    </style>
  </defs>
  <g id="Layer_1-2" data-name="Layer 1">
    <g>
      <path d="M75,7.93c3.74,2.55-3.35,10.08-5.99,6.39-.01.61-.11,1.51-.54,1.6-4.48.93-22.29.4-27.64,0l-.95-1.6c.4.09.78.21,1.12.41.94.54.93,18.99.72,21.34l-1.04,1.41,291.22-.35,1.32-1.6c24.09-.03,36.13-.04,36.13-.04l1,1.6c-.62-.07-1.54-.26-1.6-.71-.43-3.65-.58-17.5,0-20.89l1.6-1.15c-12.45,2.18-25.06,2.22-37.52,0-77.83,1.76-155.69,2.3-233.57,1.63-4.39.37-12.71-4.28-8.29-8.01-3.49-1.69,1-6.54,3.98-6.77l276.84-.06c9.7.61,12.18,10.75,12.3,18.94-.34,7.86-.3,15.65.11,23.35l23.69,47.99c.56,1.53,1.15,3.68.77,5.18.48,8.95.92,18.24,0,27.15,2.14,16.82-12.08,28.12-26.4,32.63l.06,163.61-1.6.98c.95-1.76,3.41-2.29,7.39-1.6,3.3-.62,5.5-.09,6.58,1.6.07-.71.42-1.29,1.14-1.38,4.86-.58,14.93,10.65,13.63,16.55v24.75c-.8,4.98-2,7.49-7.12,8.42l-394.16.3c-2.29-.47-5.75-2.36-6.87-4.44-1.93-3.6-1.32-31.17.26-35.09,1.1-2.74,10.86-12.04,13.17-10.1.32.27.57.62.8.99.08-.62.25-1.54.69-1.6,2.52-.31,9.62-.31,12.17,0l1.11,1.6-1.6-.56v-164.21c-11.89-3.46-23.18-11.65-26.39-24.37-1.81-7.15-2.19-31.94-.12-38.76l24.63-49.66c.5-6.54.52-13.13.05-19.79.12-10.32.66-20.15,12.45-22.74,4.22-.93,29.12-1.3,32.42.06,3.11,1.28,7.15,4.04,4.05,7.04Z"/>
      <path class="cls-5" d="M409.46,123.7h-.8c.56-8.85-.41-18.24,0-27.15h.8v27.15Z"/>
      <path class="cls-3" d="M330.43,153.25l2.92-.29c1.04.59.75,20.52-1.33,23.44l-2.44,1.53c-21.15-1.5-42.14-1.27-62.99.7-1.4,1.31-2.74,2.43-4.02,3.36l-.9,1.91c-2.37,1.14-14.11,1.21-15.86-1.11l-1.62-.77c-1-3.41-4.27-4.86-9.82-4.36-22.38.17-44.76.28-67.13.32-6.97.69-9.81,5.82-10.07,12.36.04,28.12-.11,56.25-.45,84.38.09,6.74.55,16.72,8.41,18.12l.85,1.72c55.54-.24,110.89.03,166.03.8.62.07,1.57.28,1.6.71.19,2.63.65,21.95,0,22.89-.4.58-.89.99-1.6,1.15-62.59.29-125.38.29-188.38,0l.03-132.17c-.25-6.55-5.13-11.15-11.62-11.54-21.96,1.6-47.04-2.19-68.62,0-4.95.5-11.59,4.4-11.59,9.97v134.54h-10.38v-165.68c8.79-3.2,16.53-6.79,21.95-14.76,14.27,19.02,42.72,19.74,56.67,0,14.28,19.14,42.63,19.65,56.67,0,13.83,19.39,42.81,19.42,56.67,0,14.03,19.64,42.37,19.15,56.67,0,8.62,12.68,25.87,17.81,40.31,12.76Z"/>
      <path class="cls-7" d="M359.97,332.89c.62.07,1.56.28,1.6.73.21,2.43.41,20.05,0,21.25l-1.6,1.17c-115.73.28-231.5-.21-347.22,0v-17.96c0-1.77,5.2-6.12,7.55-5.23,113.22.52,226.47-.57,339.68.04Z"/>
      <path class="cls-4" d="M90.97,7.93c.04,4.98,4.16,6.07,8.35,6.42,77.84.08,155.69-.23,233.51-.03.62.07,1.42.22,1.6.73.35,1.01.55,20.35,0,21.26l-1.6,1.17H40.68c-2.03-2.02-.13-19.13-.8-23.16h29.13c2.94,0,6.06-3.15,5.99-6.39h15.96Z"/>
      <rect class="cls-10" x="63.83" y="188.38" width="67.85" height="132.54"/>
      <path class="cls-2" d="M330.43,153.25c6.54-2.29,11.62-7.99,16.36-12.76,5.42,7.96,13.17,11.56,21.95,14.76v165.68l-225.1-.8h188.38v-24.75l-166.03-.8.55-1.6,177.94-.32c2.87-1.22,6.01-4.11,6.42-7.34,1.37-10.92,1.49-22.02,1.18-33.07-1.35-21.65-1.67-43.29-.97-64.93-.1-9.24-11.38-9.75-18.07-9.3l-1.03-1.62c-.17-6.78.23-13.61,0-20.4-.05-1.54.81-3.2-1.6-2.76Z"/>
      <polygon class="cls-11" points="224.27 50.25 226.66 91.77 183.56 91.77 185.95 50.25 224.27 50.25"/>
      <polygon class="cls-12" points="173.98 50.25 171.59 91.77 127.69 91.77 136.47 50.25 173.98 50.25"/>
      <polygon class="cls-12" points="273.76 50.25 282.54 91.77 238.64 91.77 236.24 50.25 273.76 50.25"/>
      <polygon class="cls-11" points="124.49 50.25 115.71 91.77 72.61 91.77 86.98 50.25 124.49 50.25"/>
      <polygon class="cls-11" points="323.25 50.25 337.62 91.77 294.51 91.77 285.73 50.25 323.25 50.25"/>
      <polygon class="cls-12" points="74.2 50.25 59.84 91.77 16.73 91.77 37.89 50.25 74.2 50.25"/>
      <polygon class="cls-12" points="393.49 91.77 350.39 91.77 336.02 50.25 372.34 50.25 393.49 91.77"/>
      <path class="cls-13" d="M57.44,103.74v21.96c0,.63-2.72,5.99-3.35,7.03-11.45,18.74-41.35,9.72-41.35-11.02v-17.96h44.7Z"/>
      <path class="cls-13" d="M170.79,103.74v21.16c0,7-10.53,16.62-17.35,17.78-11.91,2.02-27.35-6.47-27.35-19.37v-19.56h44.7Z"/>
      <path class="cls-13" d="M284.14,103.74v19.56c0,12.9-15.44,21.39-27.35,19.37-6.82-1.16-17.35-10.77-17.35-17.78v-21.16h44.7Z"/>
      <path class="cls-13" d="M397.48,103.74v17.96c0,20.74-29.89,29.76-41.35,11.02-.63-1.03-3.35-6.39-3.35-7.03v-21.96h44.7Z"/>
      <path class="cls-6" d="M114.12,103.74v21.16c0,1.41-2.69,6.82-3.67,8.31-11.65,17.9-41.03,8.97-41.03-10.71v-18.76h44.7Z"/>
      <path class="cls-6" d="M227.46,103.74v20.36c0,.72-1.99,5.98-2.54,7.04-8.02,15.63-30.9,15.91-39.31.49-.69-1.27-2.85-6.53-2.85-7.53v-20.36h44.7Z"/>
      <path class="cls-6" d="M340.81,103.74v18.76c0,19.68-29.38,28.61-41.03,10.71-.97-1.49-3.67-6.9-3.67-8.31v-21.16h44.7Z"/>
      <path class="cls-8" d="M332.83,14.32c12.49.03,25.02-.02,37.52,0v22.76l-329.66.4h292.15s0-23.15,0-23.15Z"/>
      <path class="cls-9" d="M359.97,332.89c8.98.05,23.28-1.25,31.48.05,1.95.31,6.03,3.44,6.03,5.14v17.96c-12.49.02-25.02-.03-37.52,0v-23.15Z"/>
      <path class="cls-14" d="M267.37,188.38c12.25.52,24.57.68,36.95.47.69,30.77.87,61.69.56,92.78l-1.6.97c-44.89,2.55-90,2.39-134.9,0l-1.6-.55v-92.7l1.6-.97.55-1.6h72.31l.97,1.6c-.7-1.8,1.72-5.28,3.59-5.59,5.47-.41,11.53.93,16.76-.8,1.25.26,1.89,1.27,1.91,3.02,1.74,1.04,2.7,2.16,2.88,3.36Z"/>
      <path d="M245.82,182.79c-.02,1.77-2.49,5.59-3.59,5.59h-73.84v94.22c44.95-.08,89.95.11,134.9,0,12.45-2.22,25.06-2.18,37.52,0l-1.6-.55v-92.7l1.6-.97c0,.62-.16,1.58-.55,1.6-11.54.5-24.47.27-36.17,0-.32,0-.63-.53-.93-1.2-12.02.35-23.95.21-35.78-.39-3.7-1.1-5.02-2.1-4.79-6.39.22-3.97,3.08-5.17,6.79-5.59,17.07-1.93,44.75-.48,62.66,0,9.55.26,18.54-1.21,20.68,10.85-2.29,30.68,3.29,66.46.07,96.54-.54,5.04-3.31,8.55-7.96,10.4l-178.82.38c-7.34-.63-9.75-6.64-10.36-13.19-2.71-28.87,2.02-61.74-.04-91.04.63-7.96,3.18-12.76,11.6-13.95,22.86,1.59,48.56-2.12,71.07-.03,4.28.4,7.6,1.51,7.55,6.42Z"/>
      <rect class="cls-14" x="64.63" y="189.18" width="29.53" height="130.94"/>
      <path class="cls-1" d="M114.71,241.21c1.44-.21,4.43,1.18,5.37,2.29,1.73,2.05,1.73,14.17.87,16.79-1.75,5.34-10.92,5.33-11.66-2.81-.49-5.39-1.43-15.28,5.42-16.27Z"/>
      <path class="cls-10" d="M267.37,188.38h73.44v94.22c-12.49.02-25.02-.03-37.52,0v-93.42c-10.65-.79-22.74,1.05-33.22.06-1.6-.15-1.84-.6-2.7-.86Z"/>
    </g>
  </g>
</svg>