<?xml version="1.0" encoding="UTF-8"?>
<svg id="Layer_2" data-name="Layer 2" xmlns="http://www.w3.org/2000/svg" viewBox="0 0 124.88 120">
  <defs>
    <style>
      .cls-1 {
        fill: #7dbd89;
      }

      .cls-2 {
        fill: #8ad298;
      }

      .cls-3 {
        fill: #3eb555;
      }

      .cls-4 {
        fill: #fefefe;
      }
    </style>
  </defs>
  <g id="Layer_1-2" data-name="Layer 1">
    <g>
      <path class="cls-3" d="M93.25,13.96c6.65,6.65,16.77.9,21.26,12.33,2.24,5.7-.65,9.01-.09,14.32.92,8.72,10.71,9.66,10.46,19.75-.22,9.02-8.28,10-10.12,17.36-1.83,7.33,3.79,12.19-2.49,19.73-5.38,6.46-11.79,2.99-17.59,7.38s-4.39,11.54-12.62,14.35c-9.29,3.17-11.77-3.83-19.22-4.02-8.16-.2-10.85,7.67-20.7,3.72-7.58-3.04-6.42-9.84-11.92-14.05-6.37-4.88-13.89-.34-19-9.47-3.94-7.05.63-11.22-1.14-17.84C8.11,70.16-.08,69.22,0,59.87s8.13-10.12,10.08-17.41-3.76-12.41,2.55-19.92c5.1-6.06,10.02-3.28,15.62-6.1C36.44,12.3,34.2,1.25,45.87.09c7.13-.71,9.74,4.45,15.94,4.72,7.98.35,10.71-7.14,20.06-4.07,8.07,2.65,6.82,8.66,11.38,13.22Z"/>
      <path class="cls-2" d="M88.17,37.02c3.14,2.46,6.41,9.52,7.5,13.35,7.86,27.75-19.12,52.17-46.02,41.77-2.81-1.09-8.35-4.12-10.17-6.43-5.04-5.01-7.23-12.52-7.49-19.49-.73-19.64,13.71-35.58,33.35-36.66,8.01-.44,17.01,1.69,22.82,7.46Z"/>
      <path class="cls-1" d="M88.17,37.02c-13.14-10.31-32.7-9-44.83,2.24s-14.65,32.72-3.86,46.45c-4.59-3.89-8.19-9.34-9.99-15.1-4.82-15.38,1.31-31.82,15.01-40.18s32.99-5.97,43.68,6.6Z"/>
      <path class="cls-4" d="M76.36,42.57c5.1-.87,8.12,4.51,5.02,8.76-5.6,7.67-13.8,14.69-19.56,22.39-2.33,1.84-4.78,2.06-7.2.21-1.73-1.33-6.59-6.61-8.04-8.44-2.04-2.57-2.05-5.98.75-7.99,4.47-3.21,7.83,1.42,10.49,4.49l14.6-16.61c1.18-1.14,2.2-2.51,3.94-2.8Z"/>
    </g>
  </g>
</svg>